%TF.GenerationSoftware,KiCad,Pcbnew,8.0.8*%
%TF.CreationDate,2025-02-07T22:00:29+01:00*%
%TF.ProjectId,Regler,5265676c-6572-42e6-9b69-6361645f7063,1.1*%
%TF.SameCoordinates,Original*%
%TF.FileFunction,Copper,L2,Bot*%
%TF.FilePolarity,Positive*%
%FSLAX46Y46*%
G04 Gerber Fmt 4.6, Leading zero omitted, Abs format (unit mm)*
G04 Created by KiCad (PCBNEW 8.0.8) date 2025-02-07 22:00:29*
%MOMM*%
%LPD*%
G01*
G04 APERTURE LIST*
G04 Aperture macros list*
%AMRoundRect*
0 Rectangle with rounded corners*
0 $1 Rounding radius*
0 $2 $3 $4 $5 $6 $7 $8 $9 X,Y pos of 4 corners*
0 Add a 4 corners polygon primitive as box body*
4,1,4,$2,$3,$4,$5,$6,$7,$8,$9,$2,$3,0*
0 Add four circle primitives for the rounded corners*
1,1,$1+$1,$2,$3*
1,1,$1+$1,$4,$5*
1,1,$1+$1,$6,$7*
1,1,$1+$1,$8,$9*
0 Add four rect primitives between the rounded corners*
20,1,$1+$1,$2,$3,$4,$5,0*
20,1,$1+$1,$4,$5,$6,$7,0*
20,1,$1+$1,$6,$7,$8,$9,0*
20,1,$1+$1,$8,$9,$2,$3,0*%
G04 Aperture macros list end*
%ADD10C,0.300000*%
%TA.AperFunction,NonConductor*%
%ADD11C,0.300000*%
%TD*%
%TA.AperFunction,ComponentPad*%
%ADD12R,1.400000X1.400000*%
%TD*%
%TA.AperFunction,ComponentPad*%
%ADD13C,1.400000*%
%TD*%
%TA.AperFunction,ComponentPad*%
%ADD14RoundRect,0.250000X0.600000X0.725000X-0.600000X0.725000X-0.600000X-0.725000X0.600000X-0.725000X0*%
%TD*%
%TA.AperFunction,ComponentPad*%
%ADD15O,1.700000X1.950000*%
%TD*%
%TA.AperFunction,ComponentPad*%
%ADD16RoundRect,0.250000X-0.600000X-0.725000X0.600000X-0.725000X0.600000X0.725000X-0.600000X0.725000X0*%
%TD*%
%TA.AperFunction,ComponentPad*%
%ADD17RoundRect,0.250000X0.620000X0.845000X-0.620000X0.845000X-0.620000X-0.845000X0.620000X-0.845000X0*%
%TD*%
%TA.AperFunction,ComponentPad*%
%ADD18O,1.740000X2.190000*%
%TD*%
%TA.AperFunction,ComponentPad*%
%ADD19C,2.000000*%
%TD*%
%TA.AperFunction,ComponentPad*%
%ADD20RoundRect,0.250000X0.620000X0.850000X-0.620000X0.850000X-0.620000X-0.850000X0.620000X-0.850000X0*%
%TD*%
%TA.AperFunction,ComponentPad*%
%ADD21O,1.740000X2.200000*%
%TD*%
%TA.AperFunction,ComponentPad*%
%ADD22C,1.600000*%
%TD*%
%TA.AperFunction,ComponentPad*%
%ADD23O,1.600000X1.600000*%
%TD*%
%TA.AperFunction,ComponentPad*%
%ADD24C,1.701800*%
%TD*%
%TA.AperFunction,ComponentPad*%
%ADD25R,1.500000X1.050000*%
%TD*%
%TA.AperFunction,ComponentPad*%
%ADD26O,1.500000X1.050000*%
%TD*%
%TA.AperFunction,ComponentPad*%
%ADD27C,3.000000*%
%TD*%
%TA.AperFunction,ComponentPad*%
%ADD28C,3.200000*%
%TD*%
%TA.AperFunction,ComponentPad*%
%ADD29R,1.050000X1.500000*%
%TD*%
%TA.AperFunction,ComponentPad*%
%ADD30O,1.050000X1.500000*%
%TD*%
%TA.AperFunction,ComponentPad*%
%ADD31RoundRect,0.250000X-0.620000X-0.845000X0.620000X-0.845000X0.620000X0.845000X-0.620000X0.845000X0*%
%TD*%
%TA.AperFunction,ViaPad*%
%ADD32C,1.500000*%
%TD*%
%TA.AperFunction,Conductor*%
%ADD33C,1.000000*%
%TD*%
%TA.AperFunction,Conductor*%
%ADD34C,0.500000*%
%TD*%
G04 APERTURE END LIST*
D10*
D11*
X53299714Y-82782870D02*
X53299714Y-81282870D01*
X53299714Y-81282870D02*
X52942571Y-81282870D01*
X52942571Y-81282870D02*
X52728285Y-81354299D01*
X52728285Y-81354299D02*
X52585428Y-81497156D01*
X52585428Y-81497156D02*
X52513999Y-81640013D01*
X52513999Y-81640013D02*
X52442571Y-81925727D01*
X52442571Y-81925727D02*
X52442571Y-82140013D01*
X52442571Y-82140013D02*
X52513999Y-82425727D01*
X52513999Y-82425727D02*
X52585428Y-82568584D01*
X52585428Y-82568584D02*
X52728285Y-82711442D01*
X52728285Y-82711442D02*
X52942571Y-82782870D01*
X52942571Y-82782870D02*
X53299714Y-82782870D01*
X51799714Y-82640013D02*
X51728285Y-82711442D01*
X51728285Y-82711442D02*
X51799714Y-82782870D01*
X51799714Y-82782870D02*
X51871142Y-82711442D01*
X51871142Y-82711442D02*
X51799714Y-82640013D01*
X51799714Y-82640013D02*
X51799714Y-82782870D01*
X50085428Y-81282870D02*
X49728285Y-82782870D01*
X49728285Y-82782870D02*
X49442571Y-81711442D01*
X49442571Y-81711442D02*
X49156856Y-82782870D01*
X49156856Y-82782870D02*
X48799714Y-81282870D01*
X47585428Y-82782870D02*
X47585428Y-81997156D01*
X47585428Y-81997156D02*
X47656856Y-81854299D01*
X47656856Y-81854299D02*
X47799713Y-81782870D01*
X47799713Y-81782870D02*
X48085428Y-81782870D01*
X48085428Y-81782870D02*
X48228285Y-81854299D01*
X47585428Y-82711442D02*
X47728285Y-82782870D01*
X47728285Y-82782870D02*
X48085428Y-82782870D01*
X48085428Y-82782870D02*
X48228285Y-82711442D01*
X48228285Y-82711442D02*
X48299713Y-82568584D01*
X48299713Y-82568584D02*
X48299713Y-82425727D01*
X48299713Y-82425727D02*
X48228285Y-82282870D01*
X48228285Y-82282870D02*
X48085428Y-82211442D01*
X48085428Y-82211442D02*
X47728285Y-82211442D01*
X47728285Y-82211442D02*
X47585428Y-82140013D01*
X46656856Y-82782870D02*
X46799713Y-82711442D01*
X46799713Y-82711442D02*
X46871142Y-82568584D01*
X46871142Y-82568584D02*
X46871142Y-81282870D01*
X46299713Y-81782870D02*
X45728285Y-81782870D01*
X46085428Y-81282870D02*
X46085428Y-82568584D01*
X46085428Y-82568584D02*
X46013999Y-82711442D01*
X46013999Y-82711442D02*
X45871142Y-82782870D01*
X45871142Y-82782870D02*
X45728285Y-82782870D01*
X44656856Y-82711442D02*
X44799713Y-82782870D01*
X44799713Y-82782870D02*
X45085428Y-82782870D01*
X45085428Y-82782870D02*
X45228285Y-82711442D01*
X45228285Y-82711442D02*
X45299713Y-82568584D01*
X45299713Y-82568584D02*
X45299713Y-81997156D01*
X45299713Y-81997156D02*
X45228285Y-81854299D01*
X45228285Y-81854299D02*
X45085428Y-81782870D01*
X45085428Y-81782870D02*
X44799713Y-81782870D01*
X44799713Y-81782870D02*
X44656856Y-81854299D01*
X44656856Y-81854299D02*
X44585428Y-81997156D01*
X44585428Y-81997156D02*
X44585428Y-82140013D01*
X44585428Y-82140013D02*
X45299713Y-82282870D01*
X43942571Y-82782870D02*
X43942571Y-81782870D01*
X43942571Y-82068584D02*
X43871142Y-81925727D01*
X43871142Y-81925727D02*
X43799714Y-81854299D01*
X43799714Y-81854299D02*
X43656856Y-81782870D01*
X43656856Y-81782870D02*
X43513999Y-81782870D01*
X50656856Y-84197786D02*
X50299713Y-85197786D01*
X50299713Y-85197786D02*
X49942570Y-84197786D01*
X48585427Y-85197786D02*
X49442570Y-85197786D01*
X49013999Y-85197786D02*
X49013999Y-83697786D01*
X49013999Y-83697786D02*
X49156856Y-83912072D01*
X49156856Y-83912072D02*
X49299713Y-84054929D01*
X49299713Y-84054929D02*
X49442570Y-84126358D01*
X47942571Y-85054929D02*
X47871142Y-85126358D01*
X47871142Y-85126358D02*
X47942571Y-85197786D01*
X47942571Y-85197786D02*
X48013999Y-85126358D01*
X48013999Y-85126358D02*
X47942571Y-85054929D01*
X47942571Y-85054929D02*
X47942571Y-85197786D01*
X46442570Y-85197786D02*
X47299713Y-85197786D01*
X46871142Y-85197786D02*
X46871142Y-83697786D01*
X46871142Y-83697786D02*
X47013999Y-83912072D01*
X47013999Y-83912072D02*
X47156856Y-84054929D01*
X47156856Y-84054929D02*
X47299713Y-84126358D01*
D12*
X156718000Y-101854000D03*
D13*
X156718000Y-99314000D03*
X156718000Y-89054000D03*
X156718000Y-86614000D03*
X149098000Y-86614000D03*
X149098000Y-89054000D03*
X149098000Y-99314000D03*
X149098000Y-101854000D03*
D12*
X189738000Y-102108000D03*
D13*
X189738000Y-99568000D03*
X189738000Y-89308000D03*
X189738000Y-86868000D03*
X182118000Y-86868000D03*
X182118000Y-89308000D03*
X182118000Y-99568000D03*
X182118000Y-102108000D03*
D14*
X156718000Y-79086000D03*
D15*
X154218000Y-79086000D03*
X151718000Y-79086000D03*
X149218000Y-79086000D03*
D14*
X189678000Y-79294000D03*
D15*
X187178000Y-79294000D03*
X184678000Y-79294000D03*
X182178000Y-79294000D03*
D16*
X227410000Y-86741000D03*
D15*
X229910000Y-86741000D03*
X232410000Y-86741000D03*
D16*
X215218000Y-86741000D03*
D15*
X217718000Y-86741000D03*
X220218000Y-86741000D03*
D17*
X77470000Y-83165000D03*
D18*
X74930000Y-83165000D03*
D17*
X59182000Y-83312000D03*
D18*
X56642000Y-83312000D03*
D19*
X79519200Y-108825000D03*
X79519200Y-103745000D03*
X79519200Y-101205000D03*
X79519200Y-98665000D03*
X54519200Y-108966000D03*
X54519200Y-103886000D03*
X54519200Y-101346000D03*
X54519200Y-98806000D03*
D17*
X86360000Y-83185000D03*
D18*
X83820000Y-83185000D03*
D20*
X139446000Y-83058000D03*
D21*
X136906000Y-83058000D03*
D22*
X128778000Y-94234000D03*
D23*
X118618000Y-94234000D03*
D24*
X111996000Y-107569000D03*
X114496000Y-107569000D03*
X116996000Y-107569000D03*
X111996000Y-105069000D03*
X114496000Y-105069000D03*
X116996000Y-105069000D03*
D22*
X97642000Y-96266000D03*
D23*
X97642000Y-86106000D03*
D17*
X126746000Y-83058000D03*
D18*
X124206000Y-83058000D03*
D25*
X106426000Y-92456000D03*
D26*
X106426000Y-91186000D03*
X106426000Y-89916000D03*
D17*
X119616000Y-83058000D03*
D18*
X117076000Y-83058000D03*
D22*
X100944000Y-96266000D03*
D23*
X100944000Y-86106000D03*
D13*
X93218000Y-91186000D03*
X90718000Y-91186000D03*
D27*
X172059200Y-111506000D03*
X166979200Y-111506000D03*
D28*
X174219200Y-98806000D03*
X169519200Y-98806000D03*
X164819200Y-98806000D03*
X174219200Y-94996000D03*
X169519200Y-94996000D03*
X164819200Y-94996000D03*
D22*
X97642000Y-109474000D03*
D23*
X97642000Y-99314000D03*
D22*
X128778000Y-97536000D03*
D23*
X118618000Y-97536000D03*
D29*
X100584000Y-81682000D03*
D30*
X99314000Y-81682000D03*
X98044000Y-81682000D03*
D22*
X128778000Y-111506000D03*
D23*
X128778000Y-101346000D03*
D17*
X200152000Y-98766000D03*
D18*
X197612000Y-98766000D03*
D31*
X137922000Y-98806000D03*
D18*
X140462000Y-98806000D03*
D22*
X100944000Y-99314000D03*
D23*
X100944000Y-109474000D03*
D24*
X221996000Y-107569000D03*
X224496000Y-107569000D03*
X226996000Y-107569000D03*
X221996000Y-105069000D03*
X224496000Y-105069000D03*
X226996000Y-105069000D03*
D17*
X112486000Y-83058000D03*
D18*
X109946000Y-83058000D03*
D22*
X132842000Y-104394000D03*
D23*
X132842000Y-94234000D03*
D32*
X66802000Y-111506000D03*
X214376000Y-109728000D03*
X224536000Y-79248000D03*
X199898000Y-86868000D03*
X159766000Y-100076000D03*
X46228000Y-111506000D03*
X178562000Y-94234000D03*
X155448000Y-111506000D03*
X240538000Y-79502000D03*
X192786000Y-101092000D03*
X223012000Y-91948000D03*
X153924000Y-97790000D03*
X193802000Y-86868000D03*
X207772000Y-86868000D03*
X176784000Y-86868000D03*
X228092000Y-99314000D03*
X199898000Y-79502000D03*
X143764000Y-78994000D03*
X128270000Y-89916000D03*
X91948000Y-99314000D03*
X186944000Y-111506000D03*
X185674000Y-100076000D03*
X170434000Y-79248000D03*
X207518000Y-101092000D03*
X214122000Y-79502000D03*
X215646000Y-97536000D03*
X240284000Y-86868000D03*
X66802000Y-86868000D03*
X144018000Y-111506000D03*
X91694000Y-79502000D03*
X88392000Y-104648000D03*
X185674000Y-86868000D03*
X46228000Y-96012000D03*
X144526000Y-103378000D03*
X66802000Y-79502000D03*
X170434000Y-86868000D03*
X207264000Y-79248000D03*
X162306000Y-86868000D03*
X207518000Y-111506000D03*
X152654000Y-86868000D03*
X176784000Y-79248000D03*
X66802000Y-96012000D03*
X92456000Y-111506000D03*
X112014000Y-111506000D03*
X144780000Y-90424000D03*
X238760000Y-111506000D03*
X220218000Y-98552000D03*
X178562000Y-100076000D03*
X240284000Y-95758000D03*
X118618000Y-105918000D03*
X162306000Y-79248000D03*
X159257998Y-94995998D03*
D33*
X225044000Y-110744000D02*
X226996000Y-108792000D01*
X213868000Y-106426000D02*
X218186000Y-110744000D01*
X162560000Y-106934000D02*
X163068000Y-106426000D01*
X114496000Y-103690000D02*
X115189000Y-102997000D01*
X123444000Y-106934000D02*
X162560000Y-106934000D01*
X114496000Y-105069000D02*
X114496000Y-103690000D01*
X115189000Y-102997000D02*
X119507000Y-102997000D01*
X163068000Y-106426000D02*
X213868000Y-106426000D01*
X226996000Y-108792000D02*
X226996000Y-107569000D01*
X218186000Y-110744000D02*
X225044000Y-110744000D01*
X119507000Y-102997000D02*
X123444000Y-106934000D01*
X156718000Y-86614000D02*
X156718000Y-79086000D01*
X189678000Y-79294000D02*
X189678000Y-86808000D01*
X184678000Y-81768000D02*
X182118000Y-84328000D01*
X182118000Y-84328000D02*
X182118000Y-86868000D01*
X184678000Y-79294000D02*
X184678000Y-81768000D01*
D34*
X77470000Y-80137000D02*
X77470000Y-83165000D01*
X86360000Y-83185000D02*
X86360000Y-80264000D01*
X86360000Y-80264000D02*
X85471000Y-79375000D01*
X85471000Y-79375000D02*
X78232000Y-79375000D01*
X78232000Y-79375000D02*
X77470000Y-80137000D01*
X151384000Y-92964000D02*
X147320000Y-92964000D01*
X176784000Y-96266000D02*
X176759200Y-96266000D01*
X156718000Y-89054000D02*
X175160000Y-89054000D01*
X175160000Y-89054000D02*
X176784000Y-90678000D01*
X141478000Y-98806000D02*
X140462000Y-98806000D01*
X176784000Y-90678000D02*
X176784000Y-96266000D01*
X156718000Y-89054000D02*
X155294000Y-89054000D01*
X155294000Y-89054000D02*
X151384000Y-92964000D01*
X176759200Y-96266000D02*
X174219200Y-98806000D01*
X147320000Y-92964000D02*
X141478000Y-98806000D01*
X193762000Y-98766000D02*
X197612000Y-98766000D01*
X189738000Y-95504000D02*
X187960000Y-97282000D01*
X167359200Y-101346000D02*
X164819200Y-98806000D01*
X192278000Y-97282000D02*
X193762000Y-98766000D01*
X175260000Y-101346000D02*
X167359200Y-101346000D01*
X187960000Y-97282000D02*
X192278000Y-97282000D01*
X187960000Y-97282000D02*
X179324000Y-97282000D01*
X179324000Y-97282000D02*
X175260000Y-101346000D01*
X189738000Y-89308000D02*
X189738000Y-95504000D01*
D33*
X120650000Y-100838000D02*
X124206000Y-104394000D01*
X114554000Y-100838000D02*
X120650000Y-100838000D01*
X111996000Y-105069000D02*
X111996000Y-103396000D01*
X124206000Y-104394000D02*
X132842000Y-104394000D01*
X111996000Y-103396000D02*
X114554000Y-100838000D01*
X159258000Y-104394000D02*
X152908000Y-104394000D01*
X152908000Y-104394000D02*
X150368000Y-101854000D01*
X160782000Y-102870000D02*
X159258000Y-104394000D01*
X150368000Y-101854000D02*
X149098000Y-101854000D01*
X182118000Y-102108000D02*
X181356000Y-102870000D01*
X181356000Y-102870000D02*
X160782000Y-102870000D01*
X217718000Y-83526000D02*
X218440000Y-82804000D01*
X229108000Y-82804000D02*
X229910000Y-83606000D01*
X217718000Y-86741000D02*
X217718000Y-83526000D01*
X152654000Y-83058000D02*
X146558000Y-83058000D01*
X138684000Y-88392000D02*
X132842000Y-94234000D01*
X141224000Y-88392000D02*
X138684000Y-88392000D01*
X154218000Y-81494000D02*
X152654000Y-83058000D01*
X146558000Y-83058000D02*
X141224000Y-88392000D01*
X218440000Y-82804000D02*
X229108000Y-82804000D01*
X154218000Y-79086000D02*
X154218000Y-81494000D01*
X229910000Y-83606000D02*
X229910000Y-86741000D01*
X214376000Y-112522000D02*
X210566000Y-108712000D01*
X210566000Y-108712000D02*
X164592000Y-108712000D01*
X163830000Y-109474000D02*
X116401000Y-109474000D01*
X116401000Y-109474000D02*
X114496000Y-107569000D01*
X226314000Y-112522000D02*
X214376000Y-112522000D01*
X164592000Y-108712000D02*
X163830000Y-109474000D01*
X226996000Y-105069000D02*
X228259000Y-105069000D01*
X229108000Y-109728000D02*
X226314000Y-112522000D01*
X229108000Y-105918000D02*
X229108000Y-109728000D01*
X228259000Y-105069000D02*
X229108000Y-105918000D01*
D34*
X112486000Y-82078000D02*
X112522000Y-82042000D01*
X113284000Y-79248000D02*
X120904000Y-79248000D01*
X119616000Y-83058000D02*
X119616000Y-80536000D01*
X120904000Y-79248000D02*
X125730000Y-79248000D01*
X112486000Y-83058000D02*
X112486000Y-82078000D01*
X112522000Y-80010000D02*
X113284000Y-79248000D01*
X119616000Y-80536000D02*
X120904000Y-79248000D01*
X112522000Y-82042000D02*
X112522000Y-80010000D01*
X125730000Y-79248000D02*
X126746000Y-80264000D01*
X126746000Y-80264000D02*
X126746000Y-83058000D01*
X99314000Y-81682000D02*
X99314000Y-90424000D01*
X100944000Y-92054000D02*
X100944000Y-96266000D01*
X99314000Y-90424000D02*
X100944000Y-92054000D01*
X164819200Y-94996000D02*
X164819200Y-93117800D01*
X130302000Y-96012000D02*
X135890000Y-101600000D01*
X100944000Y-109474000D02*
X100944000Y-102002000D01*
X147828002Y-94995998D02*
X159257998Y-94995998D01*
X173355000Y-92202000D02*
X174219200Y-93066200D01*
X165735000Y-92202000D02*
X173355000Y-92202000D01*
X121920000Y-90678000D02*
X127254000Y-96012000D01*
X127254000Y-96012000D02*
X130302000Y-96012000D01*
X135890000Y-101600000D02*
X141224000Y-101600000D01*
X164819200Y-93117800D02*
X165735000Y-92202000D01*
X100944000Y-102002000D02*
X112268000Y-90678000D01*
X112268000Y-90678000D02*
X121920000Y-90678000D01*
X141224000Y-101600000D02*
X147828002Y-94995998D01*
X174219200Y-93066200D02*
X174219200Y-94996000D01*
%TA.AperFunction,Conductor*%
G36*
X173161960Y-92726502D02*
G01*
X173182934Y-92743405D01*
X173524864Y-93085335D01*
X173558890Y-93147647D01*
X173553825Y-93218462D01*
X173511278Y-93275298D01*
X173479805Y-93292484D01*
X173446853Y-93304775D01*
X173446846Y-93304778D01*
X173214021Y-93431910D01*
X173001657Y-93590883D01*
X173001648Y-93590891D01*
X172814091Y-93778448D01*
X172814083Y-93778457D01*
X172655110Y-93990821D01*
X172527979Y-94223643D01*
X172435274Y-94472195D01*
X172378886Y-94731406D01*
X172359963Y-94996000D01*
X172378886Y-95260593D01*
X172432598Y-95507500D01*
X172435275Y-95519808D01*
X172454152Y-95570419D01*
X172527979Y-95768356D01*
X172578298Y-95860508D01*
X172655110Y-96001179D01*
X172698610Y-96059288D01*
X172814083Y-96213542D01*
X172814091Y-96213551D01*
X173001648Y-96401108D01*
X173001657Y-96401116D01*
X173001659Y-96401118D01*
X173214021Y-96560090D01*
X173446845Y-96687221D01*
X173695392Y-96779925D01*
X173695399Y-96779926D01*
X173695406Y-96779929D01*
X173696014Y-96780108D01*
X173696192Y-96780222D01*
X173699609Y-96781497D01*
X173699331Y-96782240D01*
X173755736Y-96818498D01*
X173785221Y-96883082D01*
X173775110Y-96953355D01*
X173728611Y-97007006D01*
X173699528Y-97020287D01*
X173699609Y-97020503D01*
X173696589Y-97021629D01*
X173696014Y-97021892D01*
X173695406Y-97022070D01*
X173695393Y-97022074D01*
X173695392Y-97022075D01*
X173638443Y-97043315D01*
X173446843Y-97114779D01*
X173214021Y-97241910D01*
X173001657Y-97400883D01*
X173001648Y-97400891D01*
X172814091Y-97588448D01*
X172814083Y-97588457D01*
X172655110Y-97800821D01*
X172527979Y-98033643D01*
X172435274Y-98282195D01*
X172378886Y-98541406D01*
X172359963Y-98806000D01*
X172378886Y-99070593D01*
X172415021Y-99236700D01*
X172435275Y-99329808D01*
X172454326Y-99380885D01*
X172527979Y-99578356D01*
X172572157Y-99659262D01*
X172655110Y-99811179D01*
X172814082Y-100023541D01*
X172814083Y-100023542D01*
X172814091Y-100023551D01*
X173001648Y-100211108D01*
X173001657Y-100211116D01*
X173001659Y-100211118D01*
X173214021Y-100370090D01*
X173446845Y-100497221D01*
X173695392Y-100589925D01*
X173697545Y-100590393D01*
X173706674Y-100592380D01*
X173768987Y-100626405D01*
X173803012Y-100688717D01*
X173797947Y-100759533D01*
X173755400Y-100816368D01*
X173688880Y-100841179D01*
X173679891Y-100841500D01*
X170678755Y-100841500D01*
X170610634Y-100821498D01*
X170564141Y-100767842D01*
X170554037Y-100697568D01*
X170583531Y-100632988D01*
X170613287Y-100607843D01*
X170737690Y-100532191D01*
X170819567Y-100465578D01*
X170819567Y-100465577D01*
X169970758Y-99616767D01*
X170108853Y-99524495D01*
X170237695Y-99395653D01*
X170329967Y-99257558D01*
X171180411Y-100108002D01*
X171180412Y-100108001D01*
X171324519Y-99903850D01*
X171324528Y-99903835D01*
X171457197Y-99647798D01*
X171553772Y-99376062D01*
X171553774Y-99376054D01*
X171612446Y-99093702D01*
X171612447Y-99093696D01*
X171632126Y-98806004D01*
X171632126Y-98805995D01*
X171612447Y-98518303D01*
X171612446Y-98518297D01*
X171553774Y-98235945D01*
X171553772Y-98235937D01*
X171457197Y-97964201D01*
X171324527Y-97708163D01*
X171324524Y-97708157D01*
X171180411Y-97503997D01*
X170329967Y-98354441D01*
X170237695Y-98216347D01*
X170108853Y-98087505D01*
X169970758Y-97995232D01*
X170819568Y-97146422D01*
X170819567Y-97146421D01*
X170737685Y-97079805D01*
X170491274Y-96929959D01*
X170368798Y-96876760D01*
X170314286Y-96831275D01*
X170293019Y-96763538D01*
X170311749Y-96695057D01*
X170358608Y-96650606D01*
X170524379Y-96560090D01*
X170736741Y-96401118D01*
X170924318Y-96213541D01*
X171083290Y-96001179D01*
X171210421Y-95768355D01*
X171303125Y-95519808D01*
X171359513Y-95260597D01*
X171378437Y-94996000D01*
X171359513Y-94731403D01*
X171303125Y-94472192D01*
X171210421Y-94223645D01*
X171083290Y-93990821D01*
X170924318Y-93778459D01*
X170924316Y-93778457D01*
X170924308Y-93778448D01*
X170736751Y-93590891D01*
X170736742Y-93590883D01*
X170736741Y-93590882D01*
X170524379Y-93431910D01*
X170379816Y-93352973D01*
X170291556Y-93304779D01*
X170158241Y-93255055D01*
X170043008Y-93212075D01*
X170043004Y-93212074D01*
X169783793Y-93155686D01*
X169519200Y-93136763D01*
X169254606Y-93155686D01*
X168995395Y-93212074D01*
X168746843Y-93304779D01*
X168514021Y-93431910D01*
X168301657Y-93590883D01*
X168301648Y-93590891D01*
X168114091Y-93778448D01*
X168114083Y-93778457D01*
X167955110Y-93990821D01*
X167827979Y-94223643D01*
X167735274Y-94472195D01*
X167678886Y-94731406D01*
X167659963Y-94996000D01*
X167678886Y-95260593D01*
X167732598Y-95507500D01*
X167735275Y-95519808D01*
X167754152Y-95570419D01*
X167827979Y-95768356D01*
X167878298Y-95860508D01*
X167955110Y-96001179D01*
X167998610Y-96059288D01*
X168114083Y-96213542D01*
X168114091Y-96213551D01*
X168301648Y-96401108D01*
X168301657Y-96401116D01*
X168301659Y-96401118D01*
X168514021Y-96560090D01*
X168679788Y-96650605D01*
X168729989Y-96700806D01*
X168745081Y-96770180D01*
X168720271Y-96836701D01*
X168669601Y-96876760D01*
X168547122Y-96929960D01*
X168300717Y-97079802D01*
X168218831Y-97146421D01*
X168218830Y-97146421D01*
X169067641Y-97995232D01*
X168929547Y-98087505D01*
X168800705Y-98216347D01*
X168708432Y-98354441D01*
X167857987Y-97503996D01*
X167713874Y-97708160D01*
X167713872Y-97708163D01*
X167581202Y-97964201D01*
X167484627Y-98235937D01*
X167484625Y-98235945D01*
X167425953Y-98518297D01*
X167425952Y-98518303D01*
X167406274Y-98805995D01*
X167406274Y-98806004D01*
X167425952Y-99093696D01*
X167425953Y-99093702D01*
X167484625Y-99376054D01*
X167484627Y-99376062D01*
X167581202Y-99647798D01*
X167713872Y-99903836D01*
X167713876Y-99903842D01*
X167857987Y-100108002D01*
X168708432Y-99257557D01*
X168800705Y-99395653D01*
X168929547Y-99524495D01*
X169067641Y-99616766D01*
X168218830Y-100465577D01*
X168300714Y-100532194D01*
X168425113Y-100607843D01*
X168472924Y-100660328D01*
X168484769Y-100730329D01*
X168456889Y-100795622D01*
X168398134Y-100835477D01*
X168359645Y-100841500D01*
X167620360Y-100841500D01*
X167552239Y-100821498D01*
X167531265Y-100804595D01*
X166504574Y-99777903D01*
X166470548Y-99715591D01*
X166475613Y-99644775D01*
X166483082Y-99628422D01*
X166487481Y-99620366D01*
X166510421Y-99578355D01*
X166603125Y-99329808D01*
X166659513Y-99070597D01*
X166678437Y-98806000D01*
X166659513Y-98541403D01*
X166603125Y-98282192D01*
X166510421Y-98033645D01*
X166383290Y-97800821D01*
X166224318Y-97588459D01*
X166224316Y-97588457D01*
X166224308Y-97588448D01*
X166036751Y-97400891D01*
X166036742Y-97400883D01*
X165941094Y-97329282D01*
X165824379Y-97241910D01*
X165694443Y-97170960D01*
X165591556Y-97114779D01*
X165497779Y-97079802D01*
X165343008Y-97022075D01*
X165343002Y-97022073D01*
X165342995Y-97022071D01*
X165342392Y-97021894D01*
X165342214Y-97021779D01*
X165338791Y-97020503D01*
X165339068Y-97019758D01*
X165282668Y-96983507D01*
X165253178Y-96918925D01*
X165263286Y-96848651D01*
X165309782Y-96794998D01*
X165338871Y-96781713D01*
X165338791Y-96781497D01*
X165341819Y-96780367D01*
X165342392Y-96780106D01*
X165342995Y-96779928D01*
X165342996Y-96779927D01*
X165343008Y-96779925D01*
X165591555Y-96687221D01*
X165824379Y-96560090D01*
X166036741Y-96401118D01*
X166224318Y-96213541D01*
X166383290Y-96001179D01*
X166510421Y-95768355D01*
X166603125Y-95519808D01*
X166659513Y-95260597D01*
X166678437Y-94996000D01*
X166659513Y-94731403D01*
X166603125Y-94472192D01*
X166510421Y-94223645D01*
X166383290Y-93990821D01*
X166224318Y-93778459D01*
X166224316Y-93778457D01*
X166224308Y-93778448D01*
X166036751Y-93590891D01*
X166036742Y-93590883D01*
X166036741Y-93590882D01*
X165824379Y-93431910D01*
X165591555Y-93304779D01*
X165591551Y-93304777D01*
X165591543Y-93304773D01*
X165587835Y-93303079D01*
X165534184Y-93256581D01*
X165514189Y-93188458D01*
X165534198Y-93120340D01*
X165551088Y-93099381D01*
X165907067Y-92743404D01*
X165969379Y-92709379D01*
X165996162Y-92706500D01*
X173093839Y-92706500D01*
X173161960Y-92726502D01*
G37*
%TD.AperFunction*%
%TA.AperFunction,Conductor*%
G36*
X246141621Y-73680002D02*
G01*
X246188114Y-73733658D01*
X246199500Y-73786000D01*
X246199500Y-113285000D01*
X246179498Y-113353121D01*
X246125842Y-113399614D01*
X246073500Y-113411000D01*
X226756948Y-113411000D01*
X226688827Y-113390998D01*
X226642334Y-113337342D01*
X226632230Y-113267068D01*
X226661724Y-113202488D01*
X226686946Y-113180235D01*
X226794966Y-113108059D01*
X229578592Y-110324430D01*
X229578601Y-110324424D01*
X229694052Y-110208973D01*
X229694059Y-110208966D01*
X229776629Y-110085390D01*
X229776630Y-110085389D01*
X229819331Y-109982298D01*
X229833505Y-109948080D01*
X229847148Y-109879492D01*
X229862501Y-109802312D01*
X229862501Y-109653688D01*
X229862501Y-109648496D01*
X229862500Y-109648470D01*
X229862500Y-105843689D01*
X229862499Y-105843685D01*
X229861755Y-105839943D01*
X229833505Y-105697920D01*
X229776629Y-105560610D01*
X229694059Y-105437034D01*
X229694057Y-105437032D01*
X229694052Y-105437026D01*
X229584571Y-105327545D01*
X229584560Y-105327535D01*
X228783734Y-104526709D01*
X236951500Y-104526709D01*
X236951500Y-104769290D01*
X236983160Y-105009782D01*
X237045944Y-105244095D01*
X237045945Y-105244097D01*
X237045946Y-105244100D01*
X237138776Y-105468212D01*
X237138777Y-105468213D01*
X237138782Y-105468224D01*
X237260061Y-105678285D01*
X237260063Y-105678288D01*
X237260064Y-105678289D01*
X237407735Y-105870738D01*
X237407739Y-105870742D01*
X237407744Y-105870748D01*
X237579251Y-106042255D01*
X237579256Y-106042259D01*
X237579262Y-106042265D01*
X237754359Y-106176621D01*
X237771714Y-106189938D01*
X237981775Y-106311217D01*
X237981779Y-106311218D01*
X237981788Y-106311224D01*
X238205900Y-106404054D01*
X238440211Y-106466838D01*
X238440215Y-106466838D01*
X238440217Y-106466839D01*
X238502202Y-106474999D01*
X238680712Y-106498500D01*
X238680719Y-106498500D01*
X238923281Y-106498500D01*
X238923288Y-106498500D01*
X239140637Y-106469885D01*
X239163782Y-106466839D01*
X239163782Y-106466838D01*
X239163789Y-106466838D01*
X239398100Y-106404054D01*
X239622212Y-106311224D01*
X239832289Y-106189936D01*
X240024738Y-106042265D01*
X240196265Y-105870738D01*
X240343936Y-105678289D01*
X240465224Y-105468212D01*
X240558054Y-105244100D01*
X240620838Y-105009789D01*
X240652500Y-104769288D01*
X240652500Y-104526712D01*
X240620838Y-104286211D01*
X240558054Y-104051900D01*
X240465224Y-103827788D01*
X240465218Y-103827779D01*
X240465217Y-103827775D01*
X240343938Y-103617714D01*
X240342384Y-103615689D01*
X240196265Y-103425262D01*
X240196259Y-103425256D01*
X240196255Y-103425251D01*
X240024748Y-103253744D01*
X240024742Y-103253739D01*
X240024738Y-103253735D01*
X239832289Y-103106064D01*
X239832288Y-103106063D01*
X239832285Y-103106061D01*
X239622224Y-102984782D01*
X239622216Y-102984778D01*
X239622212Y-102984776D01*
X239398100Y-102891946D01*
X239398097Y-102891945D01*
X239398095Y-102891944D01*
X239163782Y-102829160D01*
X238923290Y-102797500D01*
X238923288Y-102797500D01*
X238680712Y-102797500D01*
X238680709Y-102797500D01*
X238440217Y-102829160D01*
X238205904Y-102891944D01*
X238205900Y-102891946D01*
X238134966Y-102921328D01*
X237981786Y-102984777D01*
X237981775Y-102984782D01*
X237771714Y-103106061D01*
X237579262Y-103253735D01*
X237579251Y-103253744D01*
X237407744Y-103425251D01*
X237407735Y-103425262D01*
X237260061Y-103617714D01*
X237138782Y-103827775D01*
X237138777Y-103827786D01*
X237138776Y-103827788D01*
X237114664Y-103886000D01*
X237045946Y-104051900D01*
X237045944Y-104051904D01*
X236983160Y-104286217D01*
X236951500Y-104526709D01*
X228783734Y-104526709D01*
X228739970Y-104482945D01*
X228739969Y-104482944D01*
X228739966Y-104482941D01*
X228616389Y-104400370D01*
X228535955Y-104367053D01*
X228479083Y-104343496D01*
X228479082Y-104343495D01*
X228462956Y-104340287D01*
X228454894Y-104338684D01*
X228454893Y-104338683D01*
X228366526Y-104321106D01*
X228333312Y-104314499D01*
X228184688Y-104314499D01*
X228178475Y-104314499D01*
X228178455Y-104314500D01*
X227857967Y-104314500D01*
X227789846Y-104294498D01*
X227773081Y-104281615D01*
X227665005Y-104183091D01*
X227665004Y-104183090D01*
X227490841Y-104075253D01*
X227490822Y-104075243D01*
X227299810Y-104001245D01*
X227299806Y-104001244D01*
X227299803Y-104001243D01*
X227098430Y-103963600D01*
X226893570Y-103963600D01*
X226692197Y-104001243D01*
X226692193Y-104001244D01*
X226692190Y-104001245D01*
X226692189Y-104001245D01*
X226501177Y-104075243D01*
X226501158Y-104075253D01*
X226326995Y-104183090D01*
X226326994Y-104183091D01*
X226175598Y-104321106D01*
X226052144Y-104484587D01*
X225960826Y-104667978D01*
X225904766Y-104865009D01*
X225885864Y-105069000D01*
X225904766Y-105272990D01*
X225960826Y-105470021D01*
X225960829Y-105470027D01*
X226052143Y-105653411D01*
X226065803Y-105671500D01*
X226175598Y-105816893D01*
X226326994Y-105954908D01*
X226326995Y-105954909D01*
X226501158Y-106062746D01*
X226501162Y-106062748D01*
X226501170Y-106062753D01*
X226501174Y-106062754D01*
X226501177Y-106062756D01*
X226692189Y-106136754D01*
X226692197Y-106136757D01*
X226893570Y-106174400D01*
X226893573Y-106174400D01*
X227098427Y-106174400D01*
X227098430Y-106174400D01*
X227299803Y-106136757D01*
X227490830Y-106062753D01*
X227665006Y-105954908D01*
X227773081Y-105856385D01*
X227836898Y-105825274D01*
X227857967Y-105823500D01*
X227894284Y-105823500D01*
X227962405Y-105843502D01*
X227983379Y-105860404D01*
X228316595Y-106193619D01*
X228350620Y-106255932D01*
X228353500Y-106282715D01*
X228353500Y-107513144D01*
X228336239Y-107571927D01*
X228351156Y-107600663D01*
X228353500Y-107624855D01*
X228353500Y-109363285D01*
X228333498Y-109431406D01*
X228316595Y-109452380D01*
X226038380Y-111730595D01*
X225976068Y-111764621D01*
X225949285Y-111767500D01*
X214740714Y-111767500D01*
X214672593Y-111747498D01*
X214651619Y-111730595D01*
X212851700Y-109930676D01*
X211046966Y-108125941D01*
X210923389Y-108043370D01*
X210821885Y-108001326D01*
X210821878Y-108001323D01*
X210786087Y-107986497D01*
X210786082Y-107986496D01*
X210786080Y-107986495D01*
X210761894Y-107981684D01*
X210761893Y-107981683D01*
X210680645Y-107965522D01*
X210640312Y-107957499D01*
X210491688Y-107957499D01*
X210485475Y-107957499D01*
X210485455Y-107957500D01*
X164672545Y-107957500D01*
X164672525Y-107957499D01*
X164666312Y-107957499D01*
X164517688Y-107957499D01*
X164517687Y-107957499D01*
X164396105Y-107981683D01*
X164396105Y-107981684D01*
X164384012Y-107984089D01*
X164371919Y-107986495D01*
X164371918Y-107986495D01*
X164336114Y-108001325D01*
X164336115Y-108001326D01*
X164234612Y-108043369D01*
X164215371Y-108056226D01*
X164111035Y-108125940D01*
X164111029Y-108125945D01*
X163554380Y-108682595D01*
X163492068Y-108716621D01*
X163465285Y-108719500D01*
X117680519Y-108719500D01*
X117612398Y-108699498D01*
X117565905Y-108645842D01*
X117555801Y-108575568D01*
X117585295Y-108510988D01*
X117614186Y-108486373D01*
X117665006Y-108454908D01*
X117816400Y-108316894D01*
X117939857Y-108153411D01*
X118031171Y-107970027D01*
X118034736Y-107957500D01*
X118087233Y-107772990D01*
X118087232Y-107772990D01*
X118087234Y-107772987D01*
X118106136Y-107569000D01*
X118087234Y-107365013D01*
X118045236Y-107217405D01*
X118031173Y-107167978D01*
X118031171Y-107167973D01*
X117939857Y-106984589D01*
X117899274Y-106930849D01*
X117816401Y-106821106D01*
X117665005Y-106683091D01*
X117665004Y-106683090D01*
X117490841Y-106575253D01*
X117490822Y-106575243D01*
X117299810Y-106501245D01*
X117299806Y-106501244D01*
X117299803Y-106501243D01*
X117098430Y-106463600D01*
X116893570Y-106463600D01*
X116692197Y-106501243D01*
X116692193Y-106501244D01*
X116692190Y-106501245D01*
X116692189Y-106501245D01*
X116501177Y-106575243D01*
X116501158Y-106575253D01*
X116326995Y-106683090D01*
X116326994Y-106683091D01*
X116175598Y-106821106D01*
X116052144Y-106984587D01*
X115960826Y-107167978D01*
X115904766Y-107365009D01*
X115904766Y-107365013D01*
X115887751Y-107548642D01*
X115885864Y-107569004D01*
X115886636Y-107577338D01*
X115873002Y-107647013D01*
X115823863Y-107698256D01*
X115754820Y-107714798D01*
X115687794Y-107691386D01*
X115672078Y-107678053D01*
X115642708Y-107648683D01*
X115608682Y-107586371D01*
X115606340Y-107571213D01*
X115606135Y-107569005D01*
X115606136Y-107569000D01*
X115587234Y-107365013D01*
X115545236Y-107217405D01*
X115531173Y-107167978D01*
X115531171Y-107167973D01*
X115439857Y-106984589D01*
X115399274Y-106930849D01*
X115316401Y-106821106D01*
X115165005Y-106683091D01*
X115165004Y-106683090D01*
X114990841Y-106575253D01*
X114990822Y-106575243D01*
X114799810Y-106501245D01*
X114799806Y-106501244D01*
X114799803Y-106501243D01*
X114598430Y-106463600D01*
X114393570Y-106463600D01*
X114192197Y-106501243D01*
X114192193Y-106501244D01*
X114192190Y-106501245D01*
X114192189Y-106501245D01*
X114001177Y-106575243D01*
X114001158Y-106575253D01*
X113826995Y-106683090D01*
X113826994Y-106683091D01*
X113675598Y-106821106D01*
X113552144Y-106984587D01*
X113460826Y-107167978D01*
X113404766Y-107365009D01*
X113385864Y-107569000D01*
X113404766Y-107772990D01*
X113460826Y-107970021D01*
X113460829Y-107970027D01*
X113552143Y-108153411D01*
X113572434Y-108180280D01*
X113675598Y-108316893D01*
X113826994Y-108454908D01*
X113826995Y-108454909D01*
X114001158Y-108562746D01*
X114001162Y-108562748D01*
X114001170Y-108562753D01*
X114001174Y-108562754D01*
X114001177Y-108562756D01*
X114113645Y-108606326D01*
X114192197Y-108636757D01*
X114393570Y-108674400D01*
X114482185Y-108674400D01*
X114550306Y-108694402D01*
X114571280Y-108711305D01*
X115810530Y-109950554D01*
X115810551Y-109950577D01*
X115920029Y-110060055D01*
X115920033Y-110060058D01*
X115920034Y-110060059D01*
X115957945Y-110085390D01*
X116043611Y-110142630D01*
X116124045Y-110175946D01*
X116180920Y-110199505D01*
X116185731Y-110200461D01*
X116205106Y-110204316D01*
X116205109Y-110204316D01*
X116222809Y-110207836D01*
X116326688Y-110228501D01*
X116326691Y-110228501D01*
X116481525Y-110228501D01*
X116481545Y-110228500D01*
X128507291Y-110228500D01*
X128575412Y-110248502D01*
X128621905Y-110302158D01*
X128632009Y-110372432D01*
X128602515Y-110437012D01*
X128543867Y-110475074D01*
X128436642Y-110507600D01*
X128372507Y-110527055D01*
X128189313Y-110624974D01*
X128189313Y-110624975D01*
X128028747Y-110756747D01*
X127896975Y-110917313D01*
X127896974Y-110917313D01*
X127799055Y-111100507D01*
X127738756Y-111299288D01*
X127718398Y-111505996D01*
X127718398Y-111506003D01*
X127738756Y-111712711D01*
X127738757Y-111712717D01*
X127738758Y-111712718D01*
X127755376Y-111767500D01*
X127799055Y-111911492D01*
X127896974Y-112094686D01*
X128028747Y-112255252D01*
X128189313Y-112387024D01*
X128189313Y-112387025D01*
X128189317Y-112387027D01*
X128372508Y-112484945D01*
X128571282Y-112545242D01*
X128571286Y-112545242D01*
X128571288Y-112545243D01*
X128777997Y-112565602D01*
X128778000Y-112565602D01*
X128778003Y-112565602D01*
X128984711Y-112545243D01*
X128984712Y-112545242D01*
X128984718Y-112545242D01*
X129183492Y-112484945D01*
X129366683Y-112387027D01*
X129366684Y-112387025D01*
X129366686Y-112387025D01*
X129366686Y-112387024D01*
X129527252Y-112255252D01*
X129659027Y-112094683D01*
X129756945Y-111911492D01*
X129817242Y-111712718D01*
X129837602Y-111506000D01*
X129837602Y-111505996D01*
X129817243Y-111299288D01*
X129817242Y-111299286D01*
X129817242Y-111299282D01*
X129756945Y-111100508D01*
X129659027Y-110917317D01*
X129659025Y-110917313D01*
X129527252Y-110756747D01*
X129366686Y-110624975D01*
X129366686Y-110624974D01*
X129183492Y-110527055D01*
X129143366Y-110514883D01*
X129012132Y-110475074D01*
X128952752Y-110436160D01*
X128923837Y-110371318D01*
X128934567Y-110301137D01*
X128981536Y-110247899D01*
X129048709Y-110228500D01*
X163749455Y-110228500D01*
X163749475Y-110228501D01*
X163755688Y-110228501D01*
X163904308Y-110228501D01*
X163904312Y-110228501D01*
X164025894Y-110204315D01*
X164025894Y-110204316D01*
X164025898Y-110204314D01*
X164050080Y-110199505D01*
X164106955Y-110175946D01*
X164187389Y-110142630D01*
X164310966Y-110060059D01*
X164598223Y-109772800D01*
X164867620Y-109503405D01*
X164929932Y-109469379D01*
X164956715Y-109466500D01*
X210201285Y-109466500D01*
X210269406Y-109486502D01*
X210290380Y-109503405D01*
X213785530Y-112998554D01*
X213785551Y-112998577D01*
X213895029Y-113108055D01*
X213895033Y-113108058D01*
X213895034Y-113108059D01*
X213948522Y-113143798D01*
X214003053Y-113180235D01*
X214048581Y-113234711D01*
X214057430Y-113305154D01*
X214026789Y-113369198D01*
X213966387Y-113406510D01*
X213933052Y-113411000D01*
X172671695Y-113411000D01*
X172603574Y-113390998D01*
X172557081Y-113337342D01*
X172546977Y-113267068D01*
X172576471Y-113202488D01*
X172634553Y-113164598D01*
X172701988Y-113143798D01*
X172938910Y-113029702D01*
X173156180Y-112881570D01*
X173348946Y-112702710D01*
X173512901Y-112497117D01*
X173644383Y-112269384D01*
X173649930Y-112255252D01*
X173679939Y-112178787D01*
X173740454Y-112024598D01*
X173798969Y-111768228D01*
X173818620Y-111506000D01*
X173798969Y-111243772D01*
X173740454Y-110987402D01*
X173712946Y-110917313D01*
X173644386Y-110742622D01*
X173644384Y-110742618D01*
X173512903Y-110514886D01*
X173474522Y-110466758D01*
X173348946Y-110309290D01*
X173348945Y-110309289D01*
X173348942Y-110309285D01*
X173176568Y-110149347D01*
X173156180Y-110130430D01*
X173156173Y-110130425D01*
X172938919Y-109982303D01*
X172938912Y-109982299D01*
X172701993Y-109868204D01*
X172701990Y-109868203D01*
X172701988Y-109868202D01*
X172614096Y-109841090D01*
X172450714Y-109790693D01*
X172450709Y-109790692D01*
X172450708Y-109790692D01*
X172190682Y-109751500D01*
X171927718Y-109751500D01*
X171667692Y-109790692D01*
X171667691Y-109790692D01*
X171667685Y-109790693D01*
X171416406Y-109868204D01*
X171179487Y-109982299D01*
X171179480Y-109982303D01*
X170962226Y-110130425D01*
X170962214Y-110130435D01*
X170769457Y-110309285D01*
X170605496Y-110514886D01*
X170474015Y-110742618D01*
X170474013Y-110742622D01*
X170377947Y-110987397D01*
X170377946Y-110987400D01*
X170319431Y-111243768D01*
X170299780Y-111506000D01*
X170319431Y-111768231D01*
X170377946Y-112024599D01*
X170377947Y-112024602D01*
X170474013Y-112269377D01*
X170474015Y-112269381D01*
X170605496Y-112497113D01*
X170605498Y-112497116D01*
X170605499Y-112497117D01*
X170643878Y-112545243D01*
X170769457Y-112702714D01*
X170911626Y-112834626D01*
X170962220Y-112881570D01*
X170962226Y-112881574D01*
X171179480Y-113029696D01*
X171179487Y-113029700D01*
X171179490Y-113029702D01*
X171416412Y-113143798D01*
X171483846Y-113164598D01*
X171543043Y-113203791D01*
X171571655Y-113268767D01*
X171560596Y-113338897D01*
X171513377Y-113391915D01*
X171446705Y-113411000D01*
X167591695Y-113411000D01*
X167523574Y-113390998D01*
X167477081Y-113337342D01*
X167466977Y-113267068D01*
X167496471Y-113202488D01*
X167554553Y-113164598D01*
X167621988Y-113143798D01*
X167858910Y-113029702D01*
X168076180Y-112881570D01*
X168268946Y-112702710D01*
X168432901Y-112497117D01*
X168564383Y-112269384D01*
X168569930Y-112255252D01*
X168599939Y-112178787D01*
X168660454Y-112024598D01*
X168718969Y-111768228D01*
X168738620Y-111506000D01*
X168718969Y-111243772D01*
X168660454Y-110987402D01*
X168632946Y-110917313D01*
X168564386Y-110742622D01*
X168564384Y-110742618D01*
X168432903Y-110514886D01*
X168394522Y-110466758D01*
X168268946Y-110309290D01*
X168268945Y-110309289D01*
X168268942Y-110309285D01*
X168096568Y-110149347D01*
X168076180Y-110130430D01*
X168076173Y-110130425D01*
X167858919Y-109982303D01*
X167858912Y-109982299D01*
X167621993Y-109868204D01*
X167621990Y-109868203D01*
X167621988Y-109868202D01*
X167534096Y-109841090D01*
X167370714Y-109790693D01*
X167370709Y-109790692D01*
X167370708Y-109790692D01*
X167110682Y-109751500D01*
X166847718Y-109751500D01*
X166587692Y-109790692D01*
X166587691Y-109790692D01*
X166587685Y-109790693D01*
X166336406Y-109868204D01*
X166099487Y-109982299D01*
X166099480Y-109982303D01*
X165882226Y-110130425D01*
X165882214Y-110130435D01*
X165689457Y-110309285D01*
X165525496Y-110514886D01*
X165394015Y-110742618D01*
X165394013Y-110742622D01*
X165297947Y-110987397D01*
X165297946Y-110987400D01*
X165239431Y-111243768D01*
X165219780Y-111506000D01*
X165239431Y-111768231D01*
X165297946Y-112024599D01*
X165297947Y-112024602D01*
X165394013Y-112269377D01*
X165394015Y-112269381D01*
X165525496Y-112497113D01*
X165525498Y-112497116D01*
X165525499Y-112497117D01*
X165563878Y-112545243D01*
X165689457Y-112702714D01*
X165831626Y-112834626D01*
X165882220Y-112881570D01*
X165882226Y-112881574D01*
X166099480Y-113029696D01*
X166099487Y-113029700D01*
X166099490Y-113029702D01*
X166336412Y-113143798D01*
X166403846Y-113164598D01*
X166463043Y-113203791D01*
X166491655Y-113268767D01*
X166480596Y-113338897D01*
X166433377Y-113391915D01*
X166366705Y-113411000D01*
X41476500Y-113411000D01*
X41408379Y-113390998D01*
X41361886Y-113337342D01*
X41350500Y-113285000D01*
X41350500Y-108966000D01*
X53259908Y-108966000D01*
X53279039Y-109184674D01*
X53302699Y-109272973D01*
X53335852Y-109396700D01*
X53335854Y-109396706D01*
X53428621Y-109595646D01*
X53554526Y-109775457D01*
X53709743Y-109930674D01*
X53889554Y-110056579D01*
X54088497Y-110149347D01*
X54300526Y-110206161D01*
X54519200Y-110225292D01*
X54737874Y-110206161D01*
X54949903Y-110149347D01*
X55148846Y-110056579D01*
X55328657Y-109930674D01*
X55483874Y-109775457D01*
X55609779Y-109595646D01*
X55702547Y-109396703D01*
X55759361Y-109184674D01*
X55778492Y-108966000D01*
X55766156Y-108825000D01*
X78259908Y-108825000D01*
X78279039Y-109043674D01*
X78307365Y-109149387D01*
X78335852Y-109255700D01*
X78335854Y-109255706D01*
X78401602Y-109396703D01*
X78428621Y-109454646D01*
X78554526Y-109634457D01*
X78709743Y-109789674D01*
X78889554Y-109915579D01*
X79088497Y-110008347D01*
X79300526Y-110065161D01*
X79519200Y-110084292D01*
X79737874Y-110065161D01*
X79949903Y-110008347D01*
X80148846Y-109915579D01*
X80328657Y-109789674D01*
X80483874Y-109634457D01*
X80596230Y-109473996D01*
X96582398Y-109473996D01*
X96582398Y-109474003D01*
X96602756Y-109680711D01*
X96663055Y-109879492D01*
X96760974Y-110062686D01*
X96892747Y-110223252D01*
X97053313Y-110355024D01*
X97053313Y-110355025D01*
X97053317Y-110355027D01*
X97236508Y-110452945D01*
X97435282Y-110513242D01*
X97435286Y-110513242D01*
X97435288Y-110513243D01*
X97641997Y-110533602D01*
X97642000Y-110533602D01*
X97642003Y-110533602D01*
X97848711Y-110513243D01*
X97848712Y-110513242D01*
X97848718Y-110513242D01*
X98047492Y-110452945D01*
X98230683Y-110355027D01*
X98230684Y-110355025D01*
X98230686Y-110355025D01*
X98230686Y-110355024D01*
X98391252Y-110223252D01*
X98523027Y-110062683D01*
X98620945Y-109879492D01*
X98681242Y-109680718D01*
X98683905Y-109653688D01*
X98701602Y-109474003D01*
X98701602Y-109473996D01*
X99884398Y-109473996D01*
X99884398Y-109474003D01*
X99904756Y-109680711D01*
X99965055Y-109879492D01*
X100062974Y-110062686D01*
X100194747Y-110223252D01*
X100355313Y-110355024D01*
X100355313Y-110355025D01*
X100355317Y-110355027D01*
X100538508Y-110452945D01*
X100737282Y-110513242D01*
X100737286Y-110513242D01*
X100737288Y-110513243D01*
X100943997Y-110533602D01*
X100944000Y-110533602D01*
X100944003Y-110533602D01*
X101150711Y-110513243D01*
X101150712Y-110513242D01*
X101150718Y-110513242D01*
X101349492Y-110452945D01*
X101532683Y-110355027D01*
X101532684Y-110355025D01*
X101532686Y-110355025D01*
X101532686Y-110355024D01*
X101693252Y-110223252D01*
X101825027Y-110062683D01*
X101922945Y-109879492D01*
X101983242Y-109680718D01*
X101985905Y-109653688D01*
X102003602Y-109474003D01*
X102003602Y-109473996D01*
X101983243Y-109267288D01*
X101983242Y-109267286D01*
X101983242Y-109267282D01*
X101922945Y-109068508D01*
X101825027Y-108885317D01*
X101825025Y-108885313D01*
X101693252Y-108724747D01*
X101532686Y-108592975D01*
X101532681Y-108592971D01*
X101515101Y-108583574D01*
X101464454Y-108533820D01*
X101448500Y-108472454D01*
X101448500Y-107569000D01*
X110885864Y-107569000D01*
X110904766Y-107772990D01*
X110960826Y-107970021D01*
X110960829Y-107970027D01*
X111052143Y-108153411D01*
X111072434Y-108180280D01*
X111175598Y-108316893D01*
X111326994Y-108454908D01*
X111326995Y-108454909D01*
X111501158Y-108562746D01*
X111501162Y-108562748D01*
X111501170Y-108562753D01*
X111501174Y-108562754D01*
X111501177Y-108562756D01*
X111613645Y-108606326D01*
X111692197Y-108636757D01*
X111893570Y-108674400D01*
X111893573Y-108674400D01*
X112098427Y-108674400D01*
X112098430Y-108674400D01*
X112299803Y-108636757D01*
X112490830Y-108562753D01*
X112665006Y-108454908D01*
X112816400Y-108316894D01*
X112939857Y-108153411D01*
X113031171Y-107970027D01*
X113034736Y-107957500D01*
X113087233Y-107772990D01*
X113087232Y-107772990D01*
X113087234Y-107772987D01*
X113106136Y-107569000D01*
X113087234Y-107365013D01*
X113045236Y-107217405D01*
X113031173Y-107167978D01*
X113031171Y-107167973D01*
X112939857Y-106984589D01*
X112899274Y-106930849D01*
X112816401Y-106821106D01*
X112665005Y-106683091D01*
X112665004Y-106683090D01*
X112490841Y-106575253D01*
X112490822Y-106575243D01*
X112299810Y-106501245D01*
X112299806Y-106501244D01*
X112299803Y-106501243D01*
X112098430Y-106463600D01*
X111893570Y-106463600D01*
X111692197Y-106501243D01*
X111692193Y-106501244D01*
X111692190Y-106501245D01*
X111692189Y-106501245D01*
X111501177Y-106575243D01*
X111501158Y-106575253D01*
X111326995Y-106683090D01*
X111326994Y-106683091D01*
X111175598Y-106821106D01*
X111052144Y-106984587D01*
X110960826Y-107167978D01*
X110904766Y-107365009D01*
X110885864Y-107569000D01*
X101448500Y-107569000D01*
X101448500Y-105069000D01*
X110885864Y-105069000D01*
X110904766Y-105272990D01*
X110960826Y-105470021D01*
X110960829Y-105470027D01*
X111052143Y-105653411D01*
X111065803Y-105671500D01*
X111175598Y-105816893D01*
X111326994Y-105954908D01*
X111326995Y-105954909D01*
X111501158Y-106062746D01*
X111501162Y-106062748D01*
X111501170Y-106062753D01*
X111501174Y-106062754D01*
X111501177Y-106062756D01*
X111692189Y-106136754D01*
X111692197Y-106136757D01*
X111893570Y-106174400D01*
X111893573Y-106174400D01*
X112098427Y-106174400D01*
X112098430Y-106174400D01*
X112299803Y-106136757D01*
X112490830Y-106062753D01*
X112665006Y-105954908D01*
X112816400Y-105816894D01*
X112939857Y-105653411D01*
X113031171Y-105470027D01*
X113031688Y-105468212D01*
X113071714Y-105327535D01*
X113087234Y-105272987D01*
X113106136Y-105069000D01*
X113385864Y-105069000D01*
X113404766Y-105272990D01*
X113460826Y-105470021D01*
X113460829Y-105470027D01*
X113552143Y-105653411D01*
X113565803Y-105671500D01*
X113675598Y-105816893D01*
X113826994Y-105954908D01*
X113826995Y-105954909D01*
X114001158Y-106062746D01*
X114001162Y-106062748D01*
X114001170Y-106062753D01*
X114001174Y-106062754D01*
X114001177Y-106062756D01*
X114192189Y-106136754D01*
X114192197Y-106136757D01*
X114393570Y-106174400D01*
X114393573Y-106174400D01*
X114598427Y-106174400D01*
X114598430Y-106174400D01*
X114799803Y-106136757D01*
X114990830Y-106062753D01*
X115165006Y-105954908D01*
X115316400Y-105816894D01*
X115439857Y-105653411D01*
X115531171Y-105470027D01*
X115531688Y-105468212D01*
X115571714Y-105327535D01*
X115587234Y-105272987D01*
X115606136Y-105069000D01*
X115587234Y-104865013D01*
X115568592Y-104799492D01*
X115531173Y-104667978D01*
X115531171Y-104667973D01*
X115439857Y-104484589D01*
X115376258Y-104400370D01*
X115316401Y-104321106D01*
X115291614Y-104298510D01*
X115254748Y-104237836D01*
X115250500Y-104205395D01*
X115250500Y-104054715D01*
X115270502Y-103986594D01*
X115287405Y-103965620D01*
X115464620Y-103788405D01*
X115526932Y-103754379D01*
X115553715Y-103751500D01*
X116668449Y-103751500D01*
X116736570Y-103771502D01*
X116783063Y-103825158D01*
X116793167Y-103895432D01*
X116763673Y-103960012D01*
X116703947Y-103998396D01*
X116692903Y-104001042D01*
X116692189Y-104001245D01*
X116501177Y-104075243D01*
X116501158Y-104075253D01*
X116326995Y-104183090D01*
X116326994Y-104183091D01*
X116175598Y-104321106D01*
X116052144Y-104484587D01*
X115960826Y-104667978D01*
X115904766Y-104865009D01*
X115885864Y-105069000D01*
X115904766Y-105272990D01*
X115960826Y-105470021D01*
X115960829Y-105470027D01*
X116052143Y-105653411D01*
X116065803Y-105671500D01*
X116175598Y-105816893D01*
X116326994Y-105954908D01*
X116326995Y-105954909D01*
X116501158Y-106062746D01*
X116501162Y-106062748D01*
X116501170Y-106062753D01*
X116501174Y-106062754D01*
X116501177Y-106062756D01*
X116692189Y-106136754D01*
X116692197Y-106136757D01*
X116893570Y-106174400D01*
X116893573Y-106174400D01*
X117098427Y-106174400D01*
X117098430Y-106174400D01*
X117299803Y-106136757D01*
X117490830Y-106062753D01*
X117665006Y-105954908D01*
X117816400Y-105816894D01*
X117939857Y-105653411D01*
X118031171Y-105470027D01*
X118031688Y-105468212D01*
X118071714Y-105327535D01*
X118087234Y-105272987D01*
X118106136Y-105069000D01*
X118087234Y-104865013D01*
X118068592Y-104799492D01*
X118031173Y-104667978D01*
X118031171Y-104667973D01*
X117939857Y-104484589D01*
X117876258Y-104400370D01*
X117816401Y-104321106D01*
X117665005Y-104183091D01*
X117665004Y-104183090D01*
X117490841Y-104075253D01*
X117490822Y-104075243D01*
X117299810Y-104001245D01*
X117294203Y-103999650D01*
X117294562Y-103998386D01*
X117237112Y-103969175D01*
X117201271Y-103907890D01*
X117204252Y-103836956D01*
X117245110Y-103778894D01*
X117310873Y-103752139D01*
X117323551Y-103751500D01*
X119142285Y-103751500D01*
X119210406Y-103771502D01*
X119231380Y-103788405D01*
X122853530Y-107410554D01*
X122853551Y-107410577D01*
X122963026Y-107520052D01*
X122963029Y-107520054D01*
X122963034Y-107520059D01*
X123031353Y-107565708D01*
X123031352Y-107565708D01*
X123083667Y-107600663D01*
X123086611Y-107602630D01*
X123167045Y-107635946D01*
X123223920Y-107659505D01*
X123228731Y-107660461D01*
X123248106Y-107664316D01*
X123248109Y-107664316D01*
X123265809Y-107667836D01*
X123369688Y-107688501D01*
X123369691Y-107688501D01*
X123524525Y-107688501D01*
X123524545Y-107688500D01*
X162479455Y-107688500D01*
X162479475Y-107688501D01*
X162485688Y-107688501D01*
X162634308Y-107688501D01*
X162634312Y-107688501D01*
X162755894Y-107664315D01*
X162755894Y-107664316D01*
X162755898Y-107664314D01*
X162780080Y-107659505D01*
X162836955Y-107635946D01*
X162917389Y-107602630D01*
X163040966Y-107520059D01*
X163343619Y-107217404D01*
X163405932Y-107183380D01*
X163432715Y-107180500D01*
X213503285Y-107180500D01*
X213571406Y-107200502D01*
X213592380Y-107217405D01*
X217595530Y-111220554D01*
X217595551Y-111220577D01*
X217705026Y-111330052D01*
X217705032Y-111330057D01*
X217705034Y-111330059D01*
X217828610Y-111412629D01*
X217965920Y-111469505D01*
X218111688Y-111498500D01*
X224963455Y-111498500D01*
X224963475Y-111498501D01*
X224969688Y-111498501D01*
X225118308Y-111498501D01*
X225118312Y-111498501D01*
X225239894Y-111474315D01*
X225239894Y-111474316D01*
X225239898Y-111474314D01*
X225264080Y-111469505D01*
X225320955Y-111445946D01*
X225401389Y-111412630D01*
X225524966Y-111330059D01*
X227466590Y-109388432D01*
X227466600Y-109388425D01*
X227582052Y-109272973D01*
X227582059Y-109272966D01*
X227664629Y-109149390D01*
X227664630Y-109149389D01*
X227702399Y-109058205D01*
X227721505Y-109012080D01*
X227737418Y-108932080D01*
X227750501Y-108866312D01*
X227750501Y-108717688D01*
X227750501Y-108712496D01*
X227750500Y-108712470D01*
X227750500Y-108432603D01*
X227770502Y-108364482D01*
X227791611Y-108339491D01*
X227816400Y-108316894D01*
X227939857Y-108153411D01*
X228031171Y-107970027D01*
X228034736Y-107957500D01*
X228087233Y-107772990D01*
X228087232Y-107772990D01*
X228087234Y-107772987D01*
X228102037Y-107613226D01*
X228119633Y-107568916D01*
X228106604Y-107548642D01*
X228102038Y-107524775D01*
X228087234Y-107365013D01*
X228045236Y-107217405D01*
X228031173Y-107167978D01*
X228031171Y-107167973D01*
X227939857Y-106984589D01*
X227899274Y-106930849D01*
X227816401Y-106821106D01*
X227665005Y-106683091D01*
X227665004Y-106683090D01*
X227490841Y-106575253D01*
X227490822Y-106575243D01*
X227299810Y-106501245D01*
X227299806Y-106501244D01*
X227299803Y-106501243D01*
X227098430Y-106463600D01*
X226893570Y-106463600D01*
X226692197Y-106501243D01*
X226692193Y-106501244D01*
X226692190Y-106501245D01*
X226692189Y-106501245D01*
X226501177Y-106575243D01*
X226501158Y-106575253D01*
X226326995Y-106683090D01*
X226326994Y-106683091D01*
X226175598Y-106821106D01*
X226052144Y-106984587D01*
X225960826Y-107167978D01*
X225904766Y-107365009D01*
X225885864Y-107569000D01*
X225904766Y-107772990D01*
X225960826Y-107970021D01*
X225960829Y-107970027D01*
X226052143Y-108153411D01*
X226083816Y-108195353D01*
X226175599Y-108316893D01*
X226197603Y-108336952D01*
X226234469Y-108397626D01*
X226232680Y-108468600D01*
X226201812Y-108519162D01*
X224768380Y-109952595D01*
X224706068Y-109986620D01*
X224679285Y-109989500D01*
X218550714Y-109989500D01*
X218482593Y-109969498D01*
X218461619Y-109952595D01*
X216078025Y-107569000D01*
X220885864Y-107569000D01*
X220904766Y-107772990D01*
X220960826Y-107970021D01*
X220960829Y-107970027D01*
X221052143Y-108153411D01*
X221072434Y-108180280D01*
X221175598Y-108316893D01*
X221326994Y-108454908D01*
X221326995Y-108454909D01*
X221501158Y-108562746D01*
X221501162Y-108562748D01*
X221501170Y-108562753D01*
X221501174Y-108562754D01*
X221501177Y-108562756D01*
X221613645Y-108606326D01*
X221692197Y-108636757D01*
X221893570Y-108674400D01*
X221893573Y-108674400D01*
X222098427Y-108674400D01*
X222098430Y-108674400D01*
X222299803Y-108636757D01*
X222490830Y-108562753D01*
X222665006Y-108454908D01*
X222816400Y-108316894D01*
X222939857Y-108153411D01*
X223031171Y-107970027D01*
X223034736Y-107957500D01*
X223087233Y-107772990D01*
X223087232Y-107772990D01*
X223087234Y-107772987D01*
X223106136Y-107569000D01*
X223385864Y-107569000D01*
X223404766Y-107772990D01*
X223460826Y-107970021D01*
X223460829Y-107970027D01*
X223552143Y-108153411D01*
X223572434Y-108180280D01*
X223675598Y-108316893D01*
X223826994Y-108454908D01*
X223826995Y-108454909D01*
X224001158Y-108562746D01*
X224001162Y-108562748D01*
X224001170Y-108562753D01*
X224001174Y-108562754D01*
X224001177Y-108562756D01*
X224113645Y-108606326D01*
X224192197Y-108636757D01*
X224393570Y-108674400D01*
X224393573Y-108674400D01*
X224598427Y-108674400D01*
X224598430Y-108674400D01*
X224799803Y-108636757D01*
X224990830Y-108562753D01*
X225165006Y-108454908D01*
X225316400Y-108316894D01*
X225439857Y-108153411D01*
X225531171Y-107970027D01*
X225534736Y-107957500D01*
X225587233Y-107772990D01*
X225587232Y-107772990D01*
X225587234Y-107772987D01*
X225606136Y-107569000D01*
X225587234Y-107365013D01*
X225545236Y-107217405D01*
X225531173Y-107167978D01*
X225531171Y-107167973D01*
X225439857Y-106984589D01*
X225399274Y-106930849D01*
X225316401Y-106821106D01*
X225165005Y-106683091D01*
X225165004Y-106683090D01*
X224990841Y-106575253D01*
X224990822Y-106575243D01*
X224799810Y-106501245D01*
X224799806Y-106501244D01*
X224799803Y-106501243D01*
X224598430Y-106463600D01*
X224393570Y-106463600D01*
X224192197Y-106501243D01*
X224192193Y-106501244D01*
X224192190Y-106501245D01*
X224192189Y-106501245D01*
X224001177Y-106575243D01*
X224001158Y-106575253D01*
X223826995Y-106683090D01*
X223826994Y-106683091D01*
X223675598Y-106821106D01*
X223552144Y-106984587D01*
X223460826Y-107167978D01*
X223404766Y-107365009D01*
X223385864Y-107569000D01*
X223106136Y-107569000D01*
X223087234Y-107365013D01*
X223045236Y-107217405D01*
X223031173Y-107167978D01*
X223031171Y-107167973D01*
X222939857Y-106984589D01*
X222899274Y-106930849D01*
X222816401Y-106821106D01*
X222665005Y-106683091D01*
X222665004Y-106683090D01*
X222490841Y-106575253D01*
X222490822Y-106575243D01*
X222299810Y-106501245D01*
X222299806Y-106501244D01*
X222299803Y-106501243D01*
X222098430Y-106463600D01*
X221893570Y-106463600D01*
X221692197Y-106501243D01*
X221692193Y-106501244D01*
X221692190Y-106501245D01*
X221692189Y-106501245D01*
X221501177Y-106575243D01*
X221501158Y-106575253D01*
X221326995Y-106683090D01*
X221326994Y-106683091D01*
X221175598Y-106821106D01*
X221052144Y-106984587D01*
X220960826Y-107167978D01*
X220904766Y-107365009D01*
X220885864Y-107569000D01*
X216078025Y-107569000D01*
X214348970Y-105839945D01*
X214348968Y-105839943D01*
X214348966Y-105839941D01*
X214225389Y-105757370D01*
X214144955Y-105724053D01*
X214088085Y-105700497D01*
X214088083Y-105700496D01*
X214088082Y-105700495D01*
X214071956Y-105697287D01*
X214063894Y-105695684D01*
X214063893Y-105695683D01*
X213976426Y-105678285D01*
X213942312Y-105671499D01*
X213793688Y-105671499D01*
X213787475Y-105671499D01*
X213787455Y-105671500D01*
X162993685Y-105671500D01*
X162847919Y-105700495D01*
X162847914Y-105700497D01*
X162710610Y-105757371D01*
X162587032Y-105839942D01*
X162587032Y-105839943D01*
X162481941Y-105945034D01*
X162284380Y-106142595D01*
X162222068Y-106176621D01*
X162195285Y-106179500D01*
X123808714Y-106179500D01*
X123740593Y-106159498D01*
X123719619Y-106142595D01*
X121871522Y-104294498D01*
X119987966Y-102410941D01*
X119864389Y-102328370D01*
X119783955Y-102295053D01*
X119757128Y-102283941D01*
X119727083Y-102271496D01*
X119727082Y-102271495D01*
X119710956Y-102268287D01*
X119702894Y-102266684D01*
X119702893Y-102266683D01*
X119621655Y-102250523D01*
X119581312Y-102242499D01*
X119432688Y-102242499D01*
X119426475Y-102242499D01*
X119426455Y-102242500D01*
X115269545Y-102242500D01*
X115269525Y-102242499D01*
X115263312Y-102242499D01*
X115114688Y-102242499D01*
X115114687Y-102242499D01*
X114993104Y-102266684D01*
X114993103Y-102266683D01*
X114968926Y-102271493D01*
X114968916Y-102271496D01*
X114912045Y-102295053D01*
X114831611Y-102328370D01*
X114708035Y-102410940D01*
X114708029Y-102410945D01*
X113909945Y-103209029D01*
X113909940Y-103209035D01*
X113827370Y-103332610D01*
X113818197Y-103354756D01*
X113794053Y-103413045D01*
X113790016Y-103422789D01*
X113776236Y-103456058D01*
X113776237Y-103456059D01*
X113770495Y-103469921D01*
X113744104Y-103602595D01*
X113741499Y-103615689D01*
X113741499Y-103770524D01*
X113741500Y-103770545D01*
X113741500Y-104205395D01*
X113721498Y-104273516D01*
X113700386Y-104298510D01*
X113675598Y-104321106D01*
X113552144Y-104484587D01*
X113460826Y-104667978D01*
X113404766Y-104865009D01*
X113385864Y-105069000D01*
X113106136Y-105069000D01*
X113087234Y-104865013D01*
X113068592Y-104799492D01*
X113031173Y-104667978D01*
X113031171Y-104667973D01*
X112939857Y-104484589D01*
X112876258Y-104400370D01*
X112816401Y-104321106D01*
X112791614Y-104298510D01*
X112754748Y-104237836D01*
X112750500Y-104205395D01*
X112750500Y-103760714D01*
X112770502Y-103692593D01*
X112787405Y-103671619D01*
X114829619Y-101629405D01*
X114891931Y-101595379D01*
X114918714Y-101592500D01*
X120285285Y-101592500D01*
X120353406Y-101612502D01*
X120374380Y-101629405D01*
X123615530Y-104870554D01*
X123615551Y-104870577D01*
X123725026Y-104980052D01*
X123725032Y-104980057D01*
X123725034Y-104980059D01*
X123848610Y-105062629D01*
X123985920Y-105119505D01*
X124131688Y-105148500D01*
X132054060Y-105148500D01*
X132122181Y-105168502D01*
X132133989Y-105177097D01*
X132253317Y-105275027D01*
X132436508Y-105372945D01*
X132635282Y-105433242D01*
X132635286Y-105433242D01*
X132635288Y-105433243D01*
X132841997Y-105453602D01*
X132842000Y-105453602D01*
X132842003Y-105453602D01*
X133048711Y-105433243D01*
X133048712Y-105433242D01*
X133048718Y-105433242D01*
X133247492Y-105372945D01*
X133430683Y-105275027D01*
X133430684Y-105275025D01*
X133430686Y-105275025D01*
X133430686Y-105275024D01*
X133591252Y-105143252D01*
X133723027Y-104982683D01*
X133820945Y-104799492D01*
X133881242Y-104600718D01*
X133885799Y-104554457D01*
X133901602Y-104394003D01*
X133901602Y-104393996D01*
X133881243Y-104187288D01*
X133881242Y-104187286D01*
X133881242Y-104187282D01*
X133820945Y-103988508D01*
X133723027Y-103805317D01*
X133723025Y-103805313D01*
X133591252Y-103644747D01*
X133430686Y-103512975D01*
X133430686Y-103512974D01*
X133247492Y-103415055D01*
X133048711Y-103354756D01*
X132842003Y-103334398D01*
X132841997Y-103334398D01*
X132635288Y-103354756D01*
X132436507Y-103415055D01*
X132253316Y-103512973D01*
X132181458Y-103571946D01*
X132146891Y-103600315D01*
X132133994Y-103610899D01*
X132068646Y-103638653D01*
X132054060Y-103639500D01*
X124570714Y-103639500D01*
X124502593Y-103619498D01*
X124481619Y-103602595D01*
X122822465Y-101943441D01*
X122225020Y-101345996D01*
X127718398Y-101345996D01*
X127718398Y-101346003D01*
X127738756Y-101552711D01*
X127738757Y-101552717D01*
X127738758Y-101552718D01*
X127742385Y-101564674D01*
X127799055Y-101751492D01*
X127896974Y-101934686D01*
X128028747Y-102095252D01*
X128189313Y-102227024D01*
X128189313Y-102227025D01*
X128189317Y-102227027D01*
X128372508Y-102324945D01*
X128571282Y-102385242D01*
X128571286Y-102385242D01*
X128571288Y-102385243D01*
X128777997Y-102405602D01*
X128778000Y-102405602D01*
X128778003Y-102405602D01*
X128984711Y-102385243D01*
X128984712Y-102385242D01*
X128984718Y-102385242D01*
X129183492Y-102324945D01*
X129366683Y-102227027D01*
X129366684Y-102227025D01*
X129366686Y-102227025D01*
X129366686Y-102227024D01*
X129527252Y-102095252D01*
X129659027Y-101934683D01*
X129756945Y-101751492D01*
X129817242Y-101552718D01*
X129818531Y-101539638D01*
X129837602Y-101346003D01*
X129837602Y-101345996D01*
X129817243Y-101139288D01*
X129817242Y-101139286D01*
X129817242Y-101139282D01*
X129756945Y-100940508D01*
X129679502Y-100795622D01*
X129659025Y-100757313D01*
X129527252Y-100596747D01*
X129366686Y-100464975D01*
X129366686Y-100464974D01*
X129183492Y-100367055D01*
X129178290Y-100365477D01*
X128984718Y-100306758D01*
X128984717Y-100306757D01*
X128984711Y-100306756D01*
X128778003Y-100286398D01*
X128777997Y-100286398D01*
X128571288Y-100306756D01*
X128372507Y-100367055D01*
X128189313Y-100464974D01*
X128189313Y-100464975D01*
X128028747Y-100596747D01*
X127896975Y-100757313D01*
X127896974Y-100757313D01*
X127799055Y-100940507D01*
X127738756Y-101139288D01*
X127718398Y-101345996D01*
X122225020Y-101345996D01*
X121130966Y-100251941D01*
X121007389Y-100169370D01*
X120926955Y-100136053D01*
X120907052Y-100127809D01*
X120870086Y-100112497D01*
X120870082Y-100112496D01*
X120870080Y-100112495D01*
X120836618Y-100105839D01*
X120836614Y-100105838D01*
X120798508Y-100098258D01*
X120724312Y-100083499D01*
X120575688Y-100083499D01*
X120569475Y-100083499D01*
X120569455Y-100083500D01*
X114479685Y-100083500D01*
X114333919Y-100112495D01*
X114333914Y-100112497D01*
X114196610Y-100169371D01*
X114073032Y-100251942D01*
X114073032Y-100251943D01*
X113967941Y-100357034D01*
X111409945Y-102915029D01*
X111409940Y-102915035D01*
X111327371Y-103038609D01*
X111270496Y-103175917D01*
X111270495Y-103175920D01*
X111241499Y-103321689D01*
X111241499Y-103476524D01*
X111241500Y-103476545D01*
X111241500Y-104205395D01*
X111221498Y-104273516D01*
X111200386Y-104298510D01*
X111175598Y-104321106D01*
X111052144Y-104484587D01*
X110960826Y-104667978D01*
X110904766Y-104865009D01*
X110885864Y-105069000D01*
X101448500Y-105069000D01*
X101448500Y-102263160D01*
X101468502Y-102195039D01*
X101485405Y-102174065D01*
X106123474Y-97535996D01*
X117558398Y-97535996D01*
X117558398Y-97536003D01*
X117578756Y-97742711D01*
X117578757Y-97742717D01*
X117578758Y-97742718D01*
X117599974Y-97812658D01*
X117639055Y-97941492D01*
X117736974Y-98124686D01*
X117868747Y-98285252D01*
X118029313Y-98417024D01*
X118029313Y-98417025D01*
X118059150Y-98432973D01*
X118212508Y-98514945D01*
X118411282Y-98575242D01*
X118411286Y-98575242D01*
X118411288Y-98575243D01*
X118617997Y-98595602D01*
X118618000Y-98595602D01*
X118618003Y-98595602D01*
X118824711Y-98575243D01*
X118824712Y-98575242D01*
X118824718Y-98575242D01*
X119023492Y-98514945D01*
X119206683Y-98417027D01*
X119206684Y-98417025D01*
X119206686Y-98417025D01*
X119206686Y-98417024D01*
X119367252Y-98285252D01*
X119499027Y-98124683D01*
X119596945Y-97941492D01*
X119657242Y-97742718D01*
X119659157Y-97723282D01*
X119677602Y-97536003D01*
X119677602Y-97535996D01*
X119657243Y-97329288D01*
X119657242Y-97329286D01*
X119657242Y-97329282D01*
X119596945Y-97130508D01*
X119508846Y-96965687D01*
X119499025Y-96947313D01*
X119367252Y-96786747D01*
X119206686Y-96654975D01*
X119206686Y-96654974D01*
X119023492Y-96557055D01*
X118824711Y-96496756D01*
X118618003Y-96476398D01*
X118617997Y-96476398D01*
X118411288Y-96496756D01*
X118212507Y-96557055D01*
X118029313Y-96654974D01*
X118029313Y-96654975D01*
X117868747Y-96786747D01*
X117736975Y-96947313D01*
X117736974Y-96947313D01*
X117639055Y-97130507D01*
X117578756Y-97329288D01*
X117558398Y-97535996D01*
X106123474Y-97535996D01*
X109425474Y-94233996D01*
X117558398Y-94233996D01*
X117558398Y-94234003D01*
X117578756Y-94440711D01*
X117578757Y-94440717D01*
X117578758Y-94440718D01*
X117588306Y-94472195D01*
X117639055Y-94639492D01*
X117736974Y-94822686D01*
X117868747Y-94983252D01*
X118029313Y-95115024D01*
X118029313Y-95115025D01*
X118029317Y-95115027D01*
X118212508Y-95212945D01*
X118411282Y-95273242D01*
X118411286Y-95273242D01*
X118411288Y-95273243D01*
X118617997Y-95293602D01*
X118618000Y-95293602D01*
X118618003Y-95293602D01*
X118824711Y-95273243D01*
X118824712Y-95273242D01*
X118824718Y-95273242D01*
X119023492Y-95212945D01*
X119206683Y-95115027D01*
X119206684Y-95115025D01*
X119206686Y-95115025D01*
X119206686Y-95115024D01*
X119367252Y-94983252D01*
X119499027Y-94822683D01*
X119596945Y-94639492D01*
X119657242Y-94440718D01*
X119657312Y-94440013D01*
X119677602Y-94234003D01*
X119677602Y-94233996D01*
X119657243Y-94027288D01*
X119657242Y-94027286D01*
X119657242Y-94027282D01*
X119596945Y-93828508D01*
X119499027Y-93645317D01*
X119499025Y-93645313D01*
X119367252Y-93484747D01*
X119206686Y-93352975D01*
X119206686Y-93352974D01*
X119023492Y-93255055D01*
X118910350Y-93220734D01*
X118824718Y-93194758D01*
X118824717Y-93194757D01*
X118824711Y-93194756D01*
X118618003Y-93174398D01*
X118617997Y-93174398D01*
X118411288Y-93194756D01*
X118212507Y-93255055D01*
X118029313Y-93352974D01*
X118029313Y-93352975D01*
X117868747Y-93484747D01*
X117736975Y-93645313D01*
X117736974Y-93645313D01*
X117639055Y-93828507D01*
X117578756Y-94027288D01*
X117558398Y-94233996D01*
X109425474Y-94233996D01*
X112440065Y-91219405D01*
X112502377Y-91185379D01*
X112529160Y-91182500D01*
X121658839Y-91182500D01*
X121726960Y-91202502D01*
X121747934Y-91219405D01*
X126944223Y-96415695D01*
X126944228Y-96415699D01*
X126944230Y-96415701D01*
X127042987Y-96472718D01*
X127059270Y-96482119D01*
X127187581Y-96516500D01*
X128005900Y-96516500D01*
X128074021Y-96536502D01*
X128120514Y-96590158D01*
X128130618Y-96660432D01*
X128101124Y-96725012D01*
X128085833Y-96739900D01*
X128028744Y-96786750D01*
X127896975Y-96947313D01*
X127896974Y-96947313D01*
X127799055Y-97130507D01*
X127738756Y-97329288D01*
X127718398Y-97535996D01*
X127718398Y-97536003D01*
X127738756Y-97742711D01*
X127738757Y-97742717D01*
X127738758Y-97742718D01*
X127759974Y-97812658D01*
X127799055Y-97941492D01*
X127896974Y-98124686D01*
X128028747Y-98285252D01*
X128189313Y-98417024D01*
X128189313Y-98417025D01*
X128219150Y-98432973D01*
X128372508Y-98514945D01*
X128571282Y-98575242D01*
X128571286Y-98575242D01*
X128571288Y-98575243D01*
X128777997Y-98595602D01*
X128778000Y-98595602D01*
X128778003Y-98595602D01*
X128984711Y-98575243D01*
X128984712Y-98575242D01*
X128984718Y-98575242D01*
X129183492Y-98514945D01*
X129366683Y-98417027D01*
X129366684Y-98417025D01*
X129366686Y-98417025D01*
X129366686Y-98417024D01*
X129527252Y-98285252D01*
X129659027Y-98124683D01*
X129756945Y-97941492D01*
X129817242Y-97742718D01*
X129819157Y-97723282D01*
X129837602Y-97536003D01*
X129837602Y-97535996D01*
X129817243Y-97329288D01*
X129817242Y-97329286D01*
X129817242Y-97329282D01*
X129756945Y-97130508D01*
X129668846Y-96965687D01*
X129659025Y-96947313D01*
X129527255Y-96786750D01*
X129470167Y-96739900D01*
X129430198Y-96681223D01*
X129428297Y-96610251D01*
X129465067Y-96549519D01*
X129528835Y-96518307D01*
X129550100Y-96516500D01*
X130040839Y-96516500D01*
X130108960Y-96536502D01*
X130129934Y-96553405D01*
X135486300Y-101909770D01*
X135580230Y-102003700D01*
X135695270Y-102070119D01*
X135823581Y-102104500D01*
X135823583Y-102104500D01*
X141290417Y-102104500D01*
X141290419Y-102104500D01*
X141418730Y-102070119D01*
X141481830Y-102033688D01*
X141533770Y-102003701D01*
X141683475Y-101853996D01*
X148138882Y-101853996D01*
X148138882Y-101854003D01*
X148157309Y-102041107D01*
X148157311Y-102041118D01*
X148211890Y-102221038D01*
X148211891Y-102221040D01*
X148299660Y-102385243D01*
X148300523Y-102386857D01*
X148419801Y-102532199D01*
X148565143Y-102651477D01*
X148568557Y-102653302D01*
X148730959Y-102740108D01*
X148730961Y-102740109D01*
X148910881Y-102794688D01*
X148910882Y-102794688D01*
X148910885Y-102794689D01*
X148910888Y-102794689D01*
X148910892Y-102794690D01*
X149097997Y-102813118D01*
X149098000Y-102813118D01*
X149098003Y-102813118D01*
X149285107Y-102794690D01*
X149285109Y-102794689D01*
X149285115Y-102794689D01*
X149465039Y-102740109D01*
X149630857Y-102651477D01*
X149648377Y-102637098D01*
X149713724Y-102609347D01*
X149728308Y-102608500D01*
X150003285Y-102608500D01*
X150071406Y-102628502D01*
X150092380Y-102645405D01*
X152317530Y-104870554D01*
X152317551Y-104870577D01*
X152427026Y-104980052D01*
X152427029Y-104980054D01*
X152427034Y-104980059D01*
X152529464Y-105048500D01*
X152550610Y-105062629D01*
X152687920Y-105119505D01*
X152833688Y-105148500D01*
X152982312Y-105148500D01*
X159177455Y-105148500D01*
X159177475Y-105148501D01*
X159183688Y-105148501D01*
X159332308Y-105148501D01*
X159332312Y-105148501D01*
X159453894Y-105124315D01*
X159453894Y-105124316D01*
X159453898Y-105124314D01*
X159478080Y-105119505D01*
X159534955Y-105095946D01*
X159600010Y-105069000D01*
X220885864Y-105069000D01*
X220904766Y-105272990D01*
X220960826Y-105470021D01*
X220960829Y-105470027D01*
X221052143Y-105653411D01*
X221065803Y-105671500D01*
X221175598Y-105816893D01*
X221326994Y-105954908D01*
X221326995Y-105954909D01*
X221501158Y-106062746D01*
X221501162Y-106062748D01*
X221501170Y-106062753D01*
X221501174Y-106062754D01*
X221501177Y-106062756D01*
X221692189Y-106136754D01*
X221692197Y-106136757D01*
X221893570Y-106174400D01*
X221893573Y-106174400D01*
X222098427Y-106174400D01*
X222098430Y-106174400D01*
X222299803Y-106136757D01*
X222490830Y-106062753D01*
X222665006Y-105954908D01*
X222816400Y-105816894D01*
X222939857Y-105653411D01*
X223031171Y-105470027D01*
X223031688Y-105468212D01*
X223071714Y-105327535D01*
X223087234Y-105272987D01*
X223106136Y-105069000D01*
X223385864Y-105069000D01*
X223404766Y-105272990D01*
X223460826Y-105470021D01*
X223460829Y-105470027D01*
X223552143Y-105653411D01*
X223565803Y-105671500D01*
X223675598Y-105816893D01*
X223826994Y-105954908D01*
X223826995Y-105954909D01*
X224001158Y-106062746D01*
X224001162Y-106062748D01*
X224001170Y-106062753D01*
X224001174Y-106062754D01*
X224001177Y-106062756D01*
X224192189Y-106136754D01*
X224192197Y-106136757D01*
X224393570Y-106174400D01*
X224393573Y-106174400D01*
X224598427Y-106174400D01*
X224598430Y-106174400D01*
X224799803Y-106136757D01*
X224990830Y-106062753D01*
X225165006Y-105954908D01*
X225316400Y-105816894D01*
X225439857Y-105653411D01*
X225531171Y-105470027D01*
X225531688Y-105468212D01*
X225571714Y-105327535D01*
X225587234Y-105272987D01*
X225606136Y-105069000D01*
X225587234Y-104865013D01*
X225568592Y-104799492D01*
X225531173Y-104667978D01*
X225531171Y-104667973D01*
X225439857Y-104484589D01*
X225376258Y-104400370D01*
X225316401Y-104321106D01*
X225165005Y-104183091D01*
X225165004Y-104183090D01*
X224990841Y-104075253D01*
X224990822Y-104075243D01*
X224799810Y-104001245D01*
X224799806Y-104001244D01*
X224799803Y-104001243D01*
X224598430Y-103963600D01*
X224393570Y-103963600D01*
X224192197Y-104001243D01*
X224192193Y-104001244D01*
X224192190Y-104001245D01*
X224192189Y-104001245D01*
X224001177Y-104075243D01*
X224001158Y-104075253D01*
X223826995Y-104183090D01*
X223826994Y-104183091D01*
X223675598Y-104321106D01*
X223552144Y-104484587D01*
X223460826Y-104667978D01*
X223404766Y-104865009D01*
X223385864Y-105069000D01*
X223106136Y-105069000D01*
X223087234Y-104865013D01*
X223068592Y-104799492D01*
X223031173Y-104667978D01*
X223031171Y-104667973D01*
X222939857Y-104484589D01*
X222876258Y-104400370D01*
X222816401Y-104321106D01*
X222665005Y-104183091D01*
X222665004Y-104183090D01*
X222490841Y-104075253D01*
X222490822Y-104075243D01*
X222299810Y-104001245D01*
X222299806Y-104001244D01*
X222299803Y-104001243D01*
X222098430Y-103963600D01*
X221893570Y-103963600D01*
X221692197Y-104001243D01*
X221692193Y-104001244D01*
X221692190Y-104001245D01*
X221692189Y-104001245D01*
X221501177Y-104075243D01*
X221501158Y-104075253D01*
X221326995Y-104183090D01*
X221326994Y-104183091D01*
X221175598Y-104321106D01*
X221052144Y-104484587D01*
X220960826Y-104667978D01*
X220904766Y-104865009D01*
X220885864Y-105069000D01*
X159600010Y-105069000D01*
X159615389Y-105062630D01*
X159738966Y-104980059D01*
X161057619Y-103661404D01*
X161119931Y-103627380D01*
X161146714Y-103624500D01*
X181275455Y-103624500D01*
X181275475Y-103624501D01*
X181281688Y-103624501D01*
X181430308Y-103624501D01*
X181430312Y-103624501D01*
X181551894Y-103600315D01*
X181551894Y-103600316D01*
X181551898Y-103600314D01*
X181576080Y-103595505D01*
X181632955Y-103571946D01*
X181713389Y-103538630D01*
X181836966Y-103456059D01*
X182205817Y-103087206D01*
X182268127Y-103053183D01*
X182282552Y-103050911D01*
X182305115Y-103048689D01*
X182485039Y-102994109D01*
X182650857Y-102905477D01*
X182796199Y-102786199D01*
X182915477Y-102640857D01*
X183004109Y-102475039D01*
X183058689Y-102295115D01*
X183058695Y-102295053D01*
X183077118Y-102108003D01*
X183077118Y-102107996D01*
X183058690Y-101920892D01*
X183058688Y-101920881D01*
X183004109Y-101740961D01*
X183004108Y-101740959D01*
X182915478Y-101575145D01*
X182915477Y-101575143D01*
X182796199Y-101429801D01*
X182739086Y-101382930D01*
X188783500Y-101382930D01*
X188783500Y-102833063D01*
X188783501Y-102833073D01*
X188798265Y-102907300D01*
X188854516Y-102991484D01*
X188938697Y-103047733D01*
X188938699Y-103047734D01*
X189012933Y-103062500D01*
X190463066Y-103062499D01*
X190463069Y-103062498D01*
X190463073Y-103062498D01*
X190512326Y-103052701D01*
X190537301Y-103047734D01*
X190621484Y-102991484D01*
X190677734Y-102907301D01*
X190692500Y-102833067D01*
X190692499Y-101382934D01*
X190692498Y-101382930D01*
X190692498Y-101382926D01*
X190677734Y-101308699D01*
X190621483Y-101224515D01*
X190537302Y-101168266D01*
X190463067Y-101153500D01*
X189012936Y-101153500D01*
X189012926Y-101153501D01*
X188938699Y-101168265D01*
X188854515Y-101224516D01*
X188798266Y-101308697D01*
X188783500Y-101382930D01*
X182739086Y-101382930D01*
X182650857Y-101310523D01*
X182650855Y-101310522D01*
X182650854Y-101310521D01*
X182485040Y-101221891D01*
X182485038Y-101221890D01*
X182305118Y-101167311D01*
X182305107Y-101167309D01*
X182118003Y-101148882D01*
X182117997Y-101148882D01*
X181930892Y-101167309D01*
X181930881Y-101167311D01*
X181750961Y-101221890D01*
X181750959Y-101221891D01*
X181585145Y-101310521D01*
X181439801Y-101429801D01*
X181320521Y-101575145D01*
X181231891Y-101740959D01*
X181231890Y-101740961D01*
X181177312Y-101920880D01*
X181177311Y-101920883D01*
X181175089Y-101943441D01*
X181148504Y-102009272D01*
X181138793Y-102020180D01*
X181080381Y-102078594D01*
X181018069Y-102112620D01*
X180991284Y-102115500D01*
X160707685Y-102115500D01*
X160561919Y-102144495D01*
X160561914Y-102144497D01*
X160424610Y-102201371D01*
X160301032Y-102283942D01*
X160301032Y-102283943D01*
X160195941Y-102389034D01*
X158982380Y-103602595D01*
X158920068Y-103636621D01*
X158893285Y-103639500D01*
X153272714Y-103639500D01*
X153204593Y-103619498D01*
X153183619Y-103602595D01*
X152019125Y-102438101D01*
X150848966Y-101267941D01*
X150725389Y-101185370D01*
X150637298Y-101148882D01*
X150637295Y-101148880D01*
X150589132Y-101128930D01*
X155763500Y-101128930D01*
X155763500Y-102579063D01*
X155763501Y-102579073D01*
X155778265Y-102653300D01*
X155834516Y-102737484D01*
X155918697Y-102793733D01*
X155918699Y-102793734D01*
X155992933Y-102808500D01*
X157443066Y-102808499D01*
X157443069Y-102808498D01*
X157443073Y-102808498D01*
X157498366Y-102797500D01*
X157517301Y-102793734D01*
X157601484Y-102737484D01*
X157657734Y-102653301D01*
X157672500Y-102579067D01*
X157672499Y-101128934D01*
X157672498Y-101128930D01*
X157672498Y-101128926D01*
X157657734Y-101054699D01*
X157601483Y-100970515D01*
X157517302Y-100914266D01*
X157443067Y-100899500D01*
X155992936Y-100899500D01*
X155992926Y-100899501D01*
X155918699Y-100914265D01*
X155834515Y-100970516D01*
X155778266Y-101054697D01*
X155763500Y-101128930D01*
X150589132Y-101128930D01*
X150588084Y-101128496D01*
X150588080Y-101128495D01*
X150582203Y-101127326D01*
X150563894Y-101123684D01*
X150563893Y-101123683D01*
X150482655Y-101107523D01*
X150442312Y-101099499D01*
X150293688Y-101099499D01*
X150287475Y-101099499D01*
X150287455Y-101099500D01*
X149728308Y-101099500D01*
X149660187Y-101079498D01*
X149648382Y-101070905D01*
X149630857Y-101056523D01*
X149515079Y-100994638D01*
X149465040Y-100967891D01*
X149465038Y-100967890D01*
X149285118Y-100913311D01*
X149285107Y-100913309D01*
X149098003Y-100894882D01*
X149097997Y-100894882D01*
X148910892Y-100913309D01*
X148910881Y-100913311D01*
X148730961Y-100967890D01*
X148730959Y-100967891D01*
X148565145Y-101056521D01*
X148419801Y-101175801D01*
X148300521Y-101321145D01*
X148211891Y-101486959D01*
X148211890Y-101486961D01*
X148157311Y-101666881D01*
X148157309Y-101666892D01*
X148138882Y-101853996D01*
X141683475Y-101853996D01*
X144223475Y-99313996D01*
X148138882Y-99313996D01*
X148138882Y-99314003D01*
X148157309Y-99501107D01*
X148157311Y-99501118D01*
X148211890Y-99681038D01*
X148211891Y-99681040D01*
X148300521Y-99846854D01*
X148300523Y-99846857D01*
X148419801Y-99992199D01*
X148565143Y-100111477D01*
X148595698Y-100127809D01*
X148730959Y-100200108D01*
X148730961Y-100200109D01*
X148910881Y-100254688D01*
X148910882Y-100254688D01*
X148910885Y-100254689D01*
X148910888Y-100254689D01*
X148910892Y-100254690D01*
X149097997Y-100273118D01*
X149098000Y-100273118D01*
X149098003Y-100273118D01*
X149285107Y-100254690D01*
X149285109Y-100254689D01*
X149285115Y-100254689D01*
X149465039Y-100200109D01*
X149630857Y-100111477D01*
X149776199Y-99992199D01*
X149895477Y-99846857D01*
X149984109Y-99681039D01*
X150038689Y-99501115D01*
X150042477Y-99462654D01*
X150057118Y-99314003D01*
X150057118Y-99313996D01*
X155758882Y-99313996D01*
X155758882Y-99314003D01*
X155777309Y-99501107D01*
X155777311Y-99501118D01*
X155831890Y-99681038D01*
X155831891Y-99681040D01*
X155920521Y-99846854D01*
X155920523Y-99846857D01*
X156039801Y-99992199D01*
X156185143Y-100111477D01*
X156215698Y-100127809D01*
X156350959Y-100200108D01*
X156350961Y-100200109D01*
X156530881Y-100254688D01*
X156530882Y-100254688D01*
X156530885Y-100254689D01*
X156530888Y-100254689D01*
X156530892Y-100254690D01*
X156717997Y-100273118D01*
X156718000Y-100273118D01*
X156718003Y-100273118D01*
X156905107Y-100254690D01*
X156905109Y-100254689D01*
X156905115Y-100254689D01*
X157085039Y-100200109D01*
X157250857Y-100111477D01*
X157396199Y-99992199D01*
X157515477Y-99846857D01*
X157604109Y-99681039D01*
X157658689Y-99501115D01*
X157662477Y-99462654D01*
X157677118Y-99314003D01*
X157677118Y-99313996D01*
X157658690Y-99126892D01*
X157658688Y-99126881D01*
X157604109Y-98946961D01*
X157604108Y-98946959D01*
X157559793Y-98864052D01*
X157515477Y-98781143D01*
X157396199Y-98635801D01*
X157250857Y-98516523D01*
X157250855Y-98516522D01*
X157250854Y-98516521D01*
X157085040Y-98427891D01*
X157085038Y-98427890D01*
X156905118Y-98373311D01*
X156905107Y-98373309D01*
X156718003Y-98354882D01*
X156717997Y-98354882D01*
X156530892Y-98373309D01*
X156530881Y-98373311D01*
X156350961Y-98427890D01*
X156350959Y-98427891D01*
X156185145Y-98516521D01*
X156039801Y-98635801D01*
X155920521Y-98781145D01*
X155831891Y-98946959D01*
X155831890Y-98946961D01*
X155777311Y-99126881D01*
X155777309Y-99126892D01*
X155758882Y-99313996D01*
X150057118Y-99313996D01*
X150038690Y-99126892D01*
X150038688Y-99126881D01*
X149984109Y-98946961D01*
X149984108Y-98946959D01*
X149939793Y-98864052D01*
X149895477Y-98781143D01*
X149776199Y-98635801D01*
X149630857Y-98516523D01*
X149630855Y-98516522D01*
X149630854Y-98516521D01*
X149465040Y-98427891D01*
X149465038Y-98427890D01*
X149285118Y-98373311D01*
X149285107Y-98373309D01*
X149098003Y-98354882D01*
X149097997Y-98354882D01*
X148910892Y-98373309D01*
X148910881Y-98373311D01*
X148730961Y-98427890D01*
X148730959Y-98427891D01*
X148565145Y-98516521D01*
X148419801Y-98635801D01*
X148300521Y-98781145D01*
X148211891Y-98946959D01*
X148211890Y-98946961D01*
X148157311Y-99126881D01*
X148157309Y-99126892D01*
X148138882Y-99313996D01*
X144223475Y-99313996D01*
X148000068Y-95537403D01*
X148062380Y-95503377D01*
X148089163Y-95500498D01*
X158313799Y-95500498D01*
X158381920Y-95520500D01*
X158414356Y-95552362D01*
X158414819Y-95551983D01*
X158418346Y-95556281D01*
X158418563Y-95556494D01*
X158418746Y-95556768D01*
X158544273Y-95709723D01*
X158697228Y-95835250D01*
X158871733Y-95928525D01*
X159061082Y-95985963D01*
X159061086Y-95985963D01*
X159061088Y-95985964D01*
X159257995Y-96005358D01*
X159257998Y-96005358D01*
X159258001Y-96005358D01*
X159454907Y-95985964D01*
X159454908Y-95985963D01*
X159454914Y-95985963D01*
X159644263Y-95928525D01*
X159818768Y-95835250D01*
X159971723Y-95709723D01*
X160097250Y-95556768D01*
X160190525Y-95382263D01*
X160247963Y-95192914D01*
X160255635Y-95115027D01*
X160267358Y-94996000D01*
X160267358Y-94995995D01*
X160247964Y-94799088D01*
X160247963Y-94799086D01*
X160247963Y-94799082D01*
X160190525Y-94609733D01*
X160097250Y-94435228D01*
X159971723Y-94282273D01*
X159818768Y-94156746D01*
X159644263Y-94063471D01*
X159454914Y-94006033D01*
X159454913Y-94006032D01*
X159454907Y-94006031D01*
X159258001Y-93986638D01*
X159257995Y-93986638D01*
X159061088Y-94006031D01*
X158871732Y-94063471D01*
X158697227Y-94156746D01*
X158544273Y-94282273D01*
X158418746Y-94435227D01*
X158418563Y-94435502D01*
X158418429Y-94435613D01*
X158414819Y-94440013D01*
X158413984Y-94439328D01*
X158364085Y-94481029D01*
X158313799Y-94491498D01*
X147761583Y-94491498D01*
X147683054Y-94512539D01*
X147633267Y-94525880D01*
X147518235Y-94592294D01*
X147518225Y-94592302D01*
X141051934Y-101058595D01*
X140989622Y-101092621D01*
X140962839Y-101095500D01*
X136151160Y-101095500D01*
X136083039Y-101075498D01*
X136062065Y-101058595D01*
X132916208Y-97912737D01*
X136797500Y-97912737D01*
X136797500Y-99699246D01*
X136797502Y-99699270D01*
X136803959Y-99759339D01*
X136803959Y-99759341D01*
X136854657Y-99895266D01*
X136861077Y-99903842D01*
X136941596Y-100011404D01*
X137057733Y-100098342D01*
X137193658Y-100149040D01*
X137253745Y-100155500D01*
X138590254Y-100155499D01*
X138650342Y-100149040D01*
X138786267Y-100098342D01*
X138902404Y-100011404D01*
X138989342Y-99895267D01*
X139040040Y-99759342D01*
X139046500Y-99699255D01*
X139046499Y-98492500D01*
X139337500Y-98492500D01*
X139337500Y-99119500D01*
X139362306Y-99276119D01*
X139365190Y-99294326D01*
X139419883Y-99462654D01*
X139500243Y-99620368D01*
X139544324Y-99681040D01*
X139604280Y-99763562D01*
X139604282Y-99763564D01*
X139604284Y-99763567D01*
X139729432Y-99888715D01*
X139729435Y-99888717D01*
X139729438Y-99888720D01*
X139817576Y-99952756D01*
X139871864Y-99992199D01*
X139872634Y-99992758D01*
X140030342Y-100073115D01*
X140030344Y-100073115D01*
X140030345Y-100073116D01*
X140042296Y-100076999D01*
X140198679Y-100127811D01*
X140373500Y-100155500D01*
X140373503Y-100155500D01*
X140550497Y-100155500D01*
X140550500Y-100155500D01*
X140725321Y-100127811D01*
X140893658Y-100073115D01*
X141051366Y-99992758D01*
X141194562Y-99888720D01*
X141319720Y-99763562D01*
X141423758Y-99620366D01*
X141504115Y-99462658D01*
X141533284Y-99372882D01*
X141573357Y-99314277D01*
X141620503Y-99290112D01*
X141672730Y-99276119D01*
X141741000Y-99236703D01*
X141787770Y-99209701D01*
X147492066Y-93505405D01*
X147554378Y-93471379D01*
X147581161Y-93468500D01*
X151450417Y-93468500D01*
X151450419Y-93468500D01*
X151578730Y-93434119D01*
X151620837Y-93409808D01*
X151693770Y-93367701D01*
X155466066Y-89595405D01*
X155528378Y-89561379D01*
X155555161Y-89558500D01*
X155837657Y-89558500D01*
X155905778Y-89578502D01*
X155935057Y-89604567D01*
X156004043Y-89688628D01*
X156039801Y-89732199D01*
X156185143Y-89851477D01*
X156185145Y-89851478D01*
X156350959Y-89940108D01*
X156350961Y-89940109D01*
X156530881Y-89994688D01*
X156530882Y-89994688D01*
X156530885Y-89994689D01*
X156530888Y-89994689D01*
X156530892Y-89994690D01*
X156717997Y-90013118D01*
X156718000Y-90013118D01*
X156718003Y-90013118D01*
X156905107Y-89994690D01*
X156905109Y-89994689D01*
X156905115Y-89994689D01*
X157085039Y-89940109D01*
X157250857Y-89851477D01*
X157396199Y-89732199D01*
X157500943Y-89604567D01*
X157559620Y-89564598D01*
X157598343Y-89558500D01*
X174898839Y-89558500D01*
X174966960Y-89578502D01*
X174987934Y-89595405D01*
X176242595Y-90850066D01*
X176276621Y-90912378D01*
X176279500Y-90939161D01*
X176279500Y-94570695D01*
X176259498Y-94638816D01*
X176205842Y-94685309D01*
X176135568Y-94695413D01*
X176070988Y-94665919D01*
X176032604Y-94606193D01*
X176030379Y-94597478D01*
X176029252Y-94592297D01*
X176003125Y-94472192D01*
X175910421Y-94223645D01*
X175783290Y-93990821D01*
X175624318Y-93778459D01*
X175624316Y-93778457D01*
X175624308Y-93778448D01*
X175436751Y-93590891D01*
X175436742Y-93590883D01*
X175436741Y-93590882D01*
X175224379Y-93431910D01*
X174991555Y-93304779D01*
X174991554Y-93304778D01*
X174991553Y-93304778D01*
X174991546Y-93304775D01*
X174805667Y-93235445D01*
X174748831Y-93192899D01*
X174724021Y-93126378D01*
X174723700Y-93117390D01*
X174723700Y-92999782D01*
X174703145Y-92923070D01*
X174689319Y-92871470D01*
X174622900Y-92756430D01*
X174528970Y-92662500D01*
X173664770Y-91798299D01*
X173664768Y-91798298D01*
X173664766Y-91798296D01*
X173576809Y-91747515D01*
X173576808Y-91747515D01*
X173549730Y-91731881D01*
X173549729Y-91731880D01*
X173549728Y-91731880D01*
X173473462Y-91711445D01*
X173421419Y-91697500D01*
X165668581Y-91697500D01*
X165616538Y-91711445D01*
X165540271Y-91731880D01*
X165540270Y-91731881D01*
X165513194Y-91747514D01*
X165513192Y-91747515D01*
X165513191Y-91747515D01*
X165425233Y-91798296D01*
X165425223Y-91798304D01*
X164415499Y-92808028D01*
X164415497Y-92808031D01*
X164373391Y-92880959D01*
X164373392Y-92880960D01*
X164349081Y-92923069D01*
X164314700Y-93051382D01*
X164314700Y-93117390D01*
X164294698Y-93185511D01*
X164241042Y-93232004D01*
X164232733Y-93235445D01*
X164046853Y-93304775D01*
X164046846Y-93304778D01*
X163814021Y-93431910D01*
X163601657Y-93590883D01*
X163601648Y-93590891D01*
X163414091Y-93778448D01*
X163414083Y-93778457D01*
X163255110Y-93990821D01*
X163127979Y-94223643D01*
X163035274Y-94472195D01*
X162978886Y-94731406D01*
X162959963Y-94996000D01*
X162978886Y-95260593D01*
X163032598Y-95507500D01*
X163035275Y-95519808D01*
X163054152Y-95570419D01*
X163127979Y-95768356D01*
X163178298Y-95860508D01*
X163255110Y-96001179D01*
X163298610Y-96059288D01*
X163414083Y-96213542D01*
X163414091Y-96213551D01*
X163601648Y-96401108D01*
X163601657Y-96401116D01*
X163601659Y-96401118D01*
X163814021Y-96560090D01*
X164046845Y-96687221D01*
X164295392Y-96779925D01*
X164295399Y-96779926D01*
X164295406Y-96779929D01*
X164296014Y-96780108D01*
X164296192Y-96780222D01*
X164299609Y-96781497D01*
X164299331Y-96782240D01*
X164355736Y-96818498D01*
X164385221Y-96883082D01*
X164375110Y-96953355D01*
X164328611Y-97007006D01*
X164299528Y-97020287D01*
X164299609Y-97020503D01*
X164296589Y-97021629D01*
X164296014Y-97021892D01*
X164295406Y-97022070D01*
X164295393Y-97022074D01*
X164295392Y-97022075D01*
X164238443Y-97043315D01*
X164046843Y-97114779D01*
X163814021Y-97241910D01*
X163601657Y-97400883D01*
X163601648Y-97400891D01*
X163414091Y-97588448D01*
X163414083Y-97588457D01*
X163255110Y-97800821D01*
X163127979Y-98033643D01*
X163035274Y-98282195D01*
X162978886Y-98541406D01*
X162959963Y-98806000D01*
X162978886Y-99070593D01*
X163015021Y-99236700D01*
X163035275Y-99329808D01*
X163054326Y-99380885D01*
X163127979Y-99578356D01*
X163172157Y-99659262D01*
X163255110Y-99811179D01*
X163414082Y-100023541D01*
X163414083Y-100023542D01*
X163414091Y-100023551D01*
X163601648Y-100211108D01*
X163601657Y-100211116D01*
X163601659Y-100211118D01*
X163814021Y-100370090D01*
X164046845Y-100497221D01*
X164295392Y-100589925D01*
X164554603Y-100646313D01*
X164819200Y-100665237D01*
X165083797Y-100646313D01*
X165343008Y-100589925D01*
X165591555Y-100497221D01*
X165641622Y-100469881D01*
X165710996Y-100454790D01*
X165777516Y-100479600D01*
X165791103Y-100491374D01*
X166375228Y-101075498D01*
X166955500Y-101655770D01*
X167049430Y-101749700D01*
X167049431Y-101749701D01*
X167049433Y-101749702D01*
X167076207Y-101765160D01*
X167164470Y-101816119D01*
X167292781Y-101850500D01*
X167292783Y-101850500D01*
X175326417Y-101850500D01*
X175326419Y-101850500D01*
X175454730Y-101816119D01*
X175523000Y-101776703D01*
X175569770Y-101749701D01*
X177751475Y-99567996D01*
X181158882Y-99567996D01*
X181158882Y-99568003D01*
X181177309Y-99755107D01*
X181177311Y-99755118D01*
X181231890Y-99935038D01*
X181231891Y-99935040D01*
X181320521Y-100100854D01*
X181320523Y-100100857D01*
X181439801Y-100246199D01*
X181585143Y-100365477D01*
X181593773Y-100370090D01*
X181750959Y-100454108D01*
X181750961Y-100454109D01*
X181930881Y-100508688D01*
X181930882Y-100508688D01*
X181930885Y-100508689D01*
X181930888Y-100508689D01*
X181930892Y-100508690D01*
X182117997Y-100527118D01*
X182118000Y-100527118D01*
X182118003Y-100527118D01*
X182305107Y-100508690D01*
X182305109Y-100508689D01*
X182305115Y-100508689D01*
X182485039Y-100454109D01*
X182650857Y-100365477D01*
X182796199Y-100246199D01*
X182915477Y-100100857D01*
X183004109Y-99935039D01*
X183058689Y-99755115D01*
X183061796Y-99723567D01*
X183077118Y-99568003D01*
X183077118Y-99567996D01*
X188778882Y-99567996D01*
X188778882Y-99568003D01*
X188797309Y-99755107D01*
X188797311Y-99755118D01*
X188851890Y-99935038D01*
X188851891Y-99935040D01*
X188940521Y-100100854D01*
X188940523Y-100100857D01*
X189059801Y-100246199D01*
X189205143Y-100365477D01*
X189213773Y-100370090D01*
X189370959Y-100454108D01*
X189370961Y-100454109D01*
X189550881Y-100508688D01*
X189550882Y-100508688D01*
X189550885Y-100508689D01*
X189550888Y-100508689D01*
X189550892Y-100508690D01*
X189737997Y-100527118D01*
X189738000Y-100527118D01*
X189738003Y-100527118D01*
X189925107Y-100508690D01*
X189925109Y-100508689D01*
X189925115Y-100508689D01*
X190105039Y-100454109D01*
X190270857Y-100365477D01*
X190416199Y-100246199D01*
X190535477Y-100100857D01*
X190624109Y-99935039D01*
X190678689Y-99755115D01*
X190681796Y-99723567D01*
X190697118Y-99568003D01*
X190697118Y-99567996D01*
X190678690Y-99380892D01*
X190678688Y-99380881D01*
X190624109Y-99200961D01*
X190624108Y-99200959D01*
X190554428Y-99070597D01*
X190535477Y-99035143D01*
X190416199Y-98889801D01*
X190270857Y-98770523D01*
X190270855Y-98770522D01*
X190270854Y-98770521D01*
X190105040Y-98681891D01*
X190105038Y-98681890D01*
X189925118Y-98627311D01*
X189925107Y-98627309D01*
X189738003Y-98608882D01*
X189737997Y-98608882D01*
X189550892Y-98627309D01*
X189550881Y-98627311D01*
X189370961Y-98681890D01*
X189370959Y-98681891D01*
X189205145Y-98770521D01*
X189059801Y-98889801D01*
X188940521Y-99035145D01*
X188851891Y-99200959D01*
X188851890Y-99200961D01*
X188797311Y-99380881D01*
X188797309Y-99380892D01*
X188778882Y-99567996D01*
X183077118Y-99567996D01*
X183058690Y-99380892D01*
X183058688Y-99380881D01*
X183004109Y-99200961D01*
X183004108Y-99200959D01*
X182934428Y-99070597D01*
X182915477Y-99035143D01*
X182796199Y-98889801D01*
X182650857Y-98770523D01*
X182650855Y-98770522D01*
X182650854Y-98770521D01*
X182485040Y-98681891D01*
X182485038Y-98681890D01*
X182305118Y-98627311D01*
X182305107Y-98627309D01*
X182118003Y-98608882D01*
X182117997Y-98608882D01*
X181930892Y-98627309D01*
X181930881Y-98627311D01*
X181750961Y-98681890D01*
X181750959Y-98681891D01*
X181585145Y-98770521D01*
X181439801Y-98889801D01*
X181320521Y-99035145D01*
X181231891Y-99200959D01*
X181231890Y-99200961D01*
X181177311Y-99380881D01*
X181177309Y-99380892D01*
X181158882Y-99567996D01*
X177751475Y-99567996D01*
X179496066Y-97823405D01*
X179558378Y-97789379D01*
X179585161Y-97786500D01*
X187893581Y-97786500D01*
X192016839Y-97786500D01*
X192084960Y-97806502D01*
X192105934Y-97823405D01*
X193452222Y-99169694D01*
X193452227Y-99169698D01*
X193452230Y-99169701D01*
X193506375Y-99200961D01*
X193567270Y-99236119D01*
X193695581Y-99270500D01*
X193695582Y-99270500D01*
X193828419Y-99270500D01*
X196428902Y-99270500D01*
X196497023Y-99290502D01*
X196543516Y-99344158D01*
X196548733Y-99357559D01*
X196554745Y-99376062D01*
X196561110Y-99395653D01*
X196569885Y-99422658D01*
X196590267Y-99462659D01*
X196650243Y-99580368D01*
X196679304Y-99620366D01*
X196754280Y-99723562D01*
X196754282Y-99723564D01*
X196754284Y-99723567D01*
X196879432Y-99848715D01*
X196879435Y-99848717D01*
X196879438Y-99848720D01*
X196955299Y-99903836D01*
X197018573Y-99949808D01*
X197022634Y-99952758D01*
X197180342Y-100033115D01*
X197348679Y-100087811D01*
X197523500Y-100115500D01*
X197523503Y-100115500D01*
X197700497Y-100115500D01*
X197700500Y-100115500D01*
X197875321Y-100087811D01*
X198043658Y-100033115D01*
X198201366Y-99952758D01*
X198344562Y-99848720D01*
X198469720Y-99723562D01*
X198573758Y-99580366D01*
X198654115Y-99422658D01*
X198708811Y-99254321D01*
X198736500Y-99079500D01*
X198736500Y-98452500D01*
X198708811Y-98277679D01*
X198654115Y-98109342D01*
X198573758Y-97951634D01*
X198566389Y-97941492D01*
X198522439Y-97881000D01*
X198516436Y-97872737D01*
X199027500Y-97872737D01*
X199027500Y-99659246D01*
X199027502Y-99659270D01*
X199033959Y-99719339D01*
X199033959Y-99719341D01*
X199084657Y-99855266D01*
X199084658Y-99855267D01*
X199171596Y-99971404D01*
X199287733Y-100058342D01*
X199423658Y-100109040D01*
X199483745Y-100115500D01*
X200820254Y-100115499D01*
X200880342Y-100109040D01*
X201016267Y-100058342D01*
X201132404Y-99971404D01*
X201219342Y-99855267D01*
X201270040Y-99719342D01*
X201276500Y-99659255D01*
X201276499Y-97872746D01*
X201270040Y-97812658D01*
X201219342Y-97676733D01*
X201132404Y-97560596D01*
X201016267Y-97473658D01*
X201016265Y-97473657D01*
X201016266Y-97473657D01*
X200880349Y-97422962D01*
X200880344Y-97422960D01*
X200880342Y-97422960D01*
X200850298Y-97419730D01*
X200820256Y-97416500D01*
X199483753Y-97416500D01*
X199483729Y-97416502D01*
X199423660Y-97422959D01*
X199423658Y-97422959D01*
X199287733Y-97473657D01*
X199171596Y-97560596D01*
X199084657Y-97676734D01*
X199033962Y-97812650D01*
X199033960Y-97812658D01*
X199027500Y-97872737D01*
X198516436Y-97872737D01*
X198469720Y-97808438D01*
X198469717Y-97808435D01*
X198469715Y-97808432D01*
X198344567Y-97683284D01*
X198344564Y-97683282D01*
X198344562Y-97683280D01*
X198266248Y-97626381D01*
X198201368Y-97579243D01*
X198043654Y-97498883D01*
X197875326Y-97444190D01*
X197875322Y-97444189D01*
X197875321Y-97444189D01*
X197700500Y-97416500D01*
X197523500Y-97416500D01*
X197348679Y-97444189D01*
X197348673Y-97444190D01*
X197180345Y-97498883D01*
X197022631Y-97579243D01*
X196879435Y-97683282D01*
X196879432Y-97683284D01*
X196754284Y-97808432D01*
X196754282Y-97808435D01*
X196650243Y-97951631D01*
X196569886Y-98109340D01*
X196569883Y-98109346D01*
X196548735Y-98174436D01*
X196508662Y-98233042D01*
X196443265Y-98260679D01*
X196428902Y-98261500D01*
X194023161Y-98261500D01*
X193955040Y-98241498D01*
X193934066Y-98224595D01*
X192587776Y-96878304D01*
X192587766Y-96878296D01*
X192514837Y-96836191D01*
X192472732Y-96811882D01*
X192472731Y-96811881D01*
X192472730Y-96811881D01*
X192344419Y-96777500D01*
X192344417Y-96777500D01*
X189482161Y-96777500D01*
X189414040Y-96757498D01*
X189367547Y-96703842D01*
X189357443Y-96633568D01*
X189386937Y-96568988D01*
X189393052Y-96562418D01*
X190141701Y-95813770D01*
X190206098Y-95702230D01*
X190208119Y-95698730D01*
X190242500Y-95570419D01*
X190242500Y-90188342D01*
X190262502Y-90120221D01*
X190288563Y-90090945D01*
X190416199Y-89986199D01*
X190535477Y-89840857D01*
X190624109Y-89675039D01*
X190678689Y-89495115D01*
X190681287Y-89468735D01*
X190697118Y-89308003D01*
X190697118Y-89307996D01*
X190678690Y-89120892D01*
X190678688Y-89120881D01*
X190624109Y-88940961D01*
X190624108Y-88940959D01*
X190535478Y-88775145D01*
X190535477Y-88775143D01*
X190416199Y-88629801D01*
X190270857Y-88510523D01*
X190270855Y-88510522D01*
X190270854Y-88510521D01*
X190105040Y-88421891D01*
X190105038Y-88421890D01*
X189925118Y-88367311D01*
X189925107Y-88367309D01*
X189738003Y-88348882D01*
X189737997Y-88348882D01*
X189550892Y-88367309D01*
X189550881Y-88367311D01*
X189370961Y-88421890D01*
X189370959Y-88421891D01*
X189205145Y-88510521D01*
X189059801Y-88629801D01*
X188940521Y-88775145D01*
X188851891Y-88940959D01*
X188851890Y-88940961D01*
X188797311Y-89120881D01*
X188797309Y-89120892D01*
X188778882Y-89307996D01*
X188778882Y-89308003D01*
X188797309Y-89495107D01*
X188797311Y-89495118D01*
X188851890Y-89675038D01*
X188851891Y-89675040D01*
X188940521Y-89840854D01*
X188940523Y-89840857D01*
X189059801Y-89986199D01*
X189187434Y-90090944D01*
X189227402Y-90149619D01*
X189233500Y-90188342D01*
X189233500Y-95242839D01*
X189213498Y-95310960D01*
X189196595Y-95331934D01*
X187787934Y-96740595D01*
X187725622Y-96774621D01*
X187698839Y-96777500D01*
X179257581Y-96777500D01*
X179192278Y-96794998D01*
X179129269Y-96811881D01*
X179087160Y-96836192D01*
X179014231Y-96878297D01*
X179014228Y-96878299D01*
X176044441Y-99848087D01*
X175982129Y-99882113D01*
X175911314Y-99877048D01*
X175854478Y-99834501D01*
X175829667Y-99767981D01*
X175844757Y-99698609D01*
X175910421Y-99578355D01*
X176003125Y-99329808D01*
X176059513Y-99070597D01*
X176078437Y-98806000D01*
X176059513Y-98541403D01*
X176003125Y-98282192D01*
X175910421Y-98033645D01*
X175898163Y-98011196D01*
X175883081Y-97983574D01*
X175867990Y-97914200D01*
X175892801Y-97847680D01*
X175904567Y-97834102D01*
X177023363Y-96715305D01*
X177049453Y-96695285D01*
X177093770Y-96669700D01*
X177187700Y-96575770D01*
X177254119Y-96460730D01*
X177288500Y-96332419D01*
X177288500Y-90611581D01*
X177254119Y-90483270D01*
X177213492Y-90412902D01*
X177187701Y-90368230D01*
X177187698Y-90368227D01*
X177187695Y-90368223D01*
X177142768Y-90323296D01*
X181461912Y-90323296D01*
X181461912Y-90323297D01*
X181511692Y-90358154D01*
X181511697Y-90358157D01*
X181703254Y-90447480D01*
X181703264Y-90447484D01*
X181907432Y-90502191D01*
X182118000Y-90520613D01*
X182328567Y-90502191D01*
X182532735Y-90447484D01*
X182532745Y-90447480D01*
X182724304Y-90358156D01*
X182724305Y-90358155D01*
X182774087Y-90323297D01*
X182774087Y-90323296D01*
X182118001Y-89667210D01*
X182118000Y-89667210D01*
X181461912Y-90323296D01*
X177142768Y-90323296D01*
X176127472Y-89308000D01*
X180905386Y-89308000D01*
X180923808Y-89518567D01*
X180978515Y-89722735D01*
X180978519Y-89722745D01*
X181067842Y-89914302D01*
X181067844Y-89914305D01*
X181102702Y-89964086D01*
X181758790Y-89307999D01*
X181712713Y-89261922D01*
X181768000Y-89261922D01*
X181768000Y-89354078D01*
X181791852Y-89443095D01*
X181837930Y-89522905D01*
X181903095Y-89588070D01*
X181982905Y-89634148D01*
X182071922Y-89658000D01*
X182164078Y-89658000D01*
X182253095Y-89634148D01*
X182332905Y-89588070D01*
X182398070Y-89522905D01*
X182444148Y-89443095D01*
X182468000Y-89354078D01*
X182468000Y-89307999D01*
X182477210Y-89307999D01*
X182477210Y-89308001D01*
X183133296Y-89964087D01*
X183133297Y-89964087D01*
X183168155Y-89914305D01*
X183168156Y-89914304D01*
X183257480Y-89722745D01*
X183257484Y-89722735D01*
X183312191Y-89518567D01*
X183330613Y-89308000D01*
X183312191Y-89097432D01*
X183257484Y-88893264D01*
X183257480Y-88893254D01*
X183168157Y-88701697D01*
X183168154Y-88701692D01*
X183133297Y-88651912D01*
X183133296Y-88651912D01*
X182477210Y-89307999D01*
X182468000Y-89307999D01*
X182468000Y-89261922D01*
X182444148Y-89172905D01*
X182398070Y-89093095D01*
X182332905Y-89027930D01*
X182253095Y-88981852D01*
X182164078Y-88958000D01*
X182071922Y-88958000D01*
X181982905Y-88981852D01*
X181903095Y-89027930D01*
X181837930Y-89093095D01*
X181791852Y-89172905D01*
X181768000Y-89261922D01*
X181712713Y-89261922D01*
X181102703Y-88651912D01*
X181102701Y-88651912D01*
X181067846Y-88701690D01*
X180978517Y-88893258D01*
X180978515Y-88893264D01*
X180923808Y-89097432D01*
X180905386Y-89308000D01*
X176127472Y-89308000D01*
X175469776Y-88650304D01*
X175469766Y-88650296D01*
X175396837Y-88608191D01*
X175354732Y-88583882D01*
X175354731Y-88583881D01*
X175354730Y-88583881D01*
X175226419Y-88549500D01*
X175226417Y-88549500D01*
X157598343Y-88549500D01*
X157530222Y-88529498D01*
X157500943Y-88503433D01*
X157396199Y-88375801D01*
X157363398Y-88348882D01*
X157294941Y-88292701D01*
X181461912Y-88292701D01*
X181461912Y-88292703D01*
X182117999Y-88948790D01*
X182118000Y-88948790D01*
X182774086Y-88292702D01*
X182774086Y-88292701D01*
X182724305Y-88257844D01*
X182724302Y-88257842D01*
X182532745Y-88168519D01*
X182532735Y-88168515D01*
X182328567Y-88113808D01*
X182118000Y-88095386D01*
X181907432Y-88113808D01*
X181703264Y-88168515D01*
X181703258Y-88168517D01*
X181511690Y-88257846D01*
X181461912Y-88292701D01*
X157294941Y-88292701D01*
X157250857Y-88256523D01*
X157250855Y-88256522D01*
X157250854Y-88256521D01*
X157085040Y-88167891D01*
X157085038Y-88167890D01*
X156905118Y-88113311D01*
X156905107Y-88113309D01*
X156718003Y-88094882D01*
X156717997Y-88094882D01*
X156530892Y-88113309D01*
X156530881Y-88113311D01*
X156350961Y-88167890D01*
X156350959Y-88167891D01*
X156185145Y-88256521D01*
X156039800Y-88375801D01*
X155935057Y-88503433D01*
X155876380Y-88543402D01*
X155837657Y-88549500D01*
X155227581Y-88549500D01*
X155142040Y-88572420D01*
X155099269Y-88583881D01*
X155057160Y-88608192D01*
X154984231Y-88650297D01*
X154984228Y-88650299D01*
X151211934Y-92422595D01*
X151149622Y-92456621D01*
X151122839Y-92459500D01*
X147253581Y-92459500D01*
X147199351Y-92474030D01*
X147125271Y-92493880D01*
X147125268Y-92493882D01*
X147094288Y-92511769D01*
X147094287Y-92511769D01*
X147010233Y-92560296D01*
X147010223Y-92560304D01*
X141593357Y-97977170D01*
X141531045Y-98011196D01*
X141460230Y-98006131D01*
X141403394Y-97963584D01*
X141402326Y-97962136D01*
X141394694Y-97951631D01*
X141319720Y-97848438D01*
X141319717Y-97848435D01*
X141319715Y-97848432D01*
X141194567Y-97723284D01*
X141194564Y-97723282D01*
X141194562Y-97723280D01*
X141116248Y-97666381D01*
X141051368Y-97619243D01*
X140893654Y-97538883D01*
X140725326Y-97484190D01*
X140725322Y-97484189D01*
X140725321Y-97484189D01*
X140550500Y-97456500D01*
X140373500Y-97456500D01*
X140198679Y-97484189D01*
X140198673Y-97484190D01*
X140030345Y-97538883D01*
X139872631Y-97619243D01*
X139729435Y-97723282D01*
X139729432Y-97723284D01*
X139604284Y-97848432D01*
X139604282Y-97848435D01*
X139500243Y-97991631D01*
X139419883Y-98149345D01*
X139365190Y-98317673D01*
X139365189Y-98317678D01*
X139365189Y-98317679D01*
X139337500Y-98492500D01*
X139046499Y-98492500D01*
X139046499Y-97912746D01*
X139040040Y-97852658D01*
X138989342Y-97716733D01*
X138902404Y-97600596D01*
X138786267Y-97513658D01*
X138786265Y-97513657D01*
X138786266Y-97513657D01*
X138650349Y-97462962D01*
X138650344Y-97462960D01*
X138650342Y-97462960D01*
X138620298Y-97459730D01*
X138590256Y-97456500D01*
X137253753Y-97456500D01*
X137253729Y-97456502D01*
X137193660Y-97462959D01*
X137193658Y-97462959D01*
X137057733Y-97513657D01*
X136941596Y-97600596D01*
X136854657Y-97716734D01*
X136803962Y-97852650D01*
X136803960Y-97852658D01*
X136797500Y-97912737D01*
X132916208Y-97912737D01*
X130611776Y-95608304D01*
X130611766Y-95608296D01*
X130538837Y-95566191D01*
X130496732Y-95541882D01*
X130496731Y-95541881D01*
X130496730Y-95541881D01*
X130368419Y-95507500D01*
X130368417Y-95507500D01*
X129061895Y-95507500D01*
X128993774Y-95487498D01*
X128947281Y-95433842D01*
X128937177Y-95363568D01*
X128966671Y-95298988D01*
X129025318Y-95260926D01*
X129183492Y-95212945D01*
X129366683Y-95115027D01*
X129366684Y-95115025D01*
X129366686Y-95115025D01*
X129366686Y-95115024D01*
X129527252Y-94983252D01*
X129659027Y-94822683D01*
X129756945Y-94639492D01*
X129817242Y-94440718D01*
X129817312Y-94440013D01*
X129837602Y-94234003D01*
X129837602Y-94233996D01*
X131782398Y-94233996D01*
X131782398Y-94234003D01*
X131802756Y-94440711D01*
X131802757Y-94440717D01*
X131802758Y-94440718D01*
X131812306Y-94472195D01*
X131863055Y-94639492D01*
X131960974Y-94822686D01*
X132092747Y-94983252D01*
X132253313Y-95115024D01*
X132253313Y-95115025D01*
X132253317Y-95115027D01*
X132436508Y-95212945D01*
X132635282Y-95273242D01*
X132635286Y-95273242D01*
X132635288Y-95273243D01*
X132841997Y-95293602D01*
X132842000Y-95293602D01*
X132842003Y-95293602D01*
X133048711Y-95273243D01*
X133048712Y-95273242D01*
X133048718Y-95273242D01*
X133247492Y-95212945D01*
X133430683Y-95115027D01*
X133430684Y-95115025D01*
X133430686Y-95115025D01*
X133430686Y-95115024D01*
X133591252Y-94983252D01*
X133723027Y-94822683D01*
X133820945Y-94639492D01*
X133881242Y-94440718D01*
X133881312Y-94440013D01*
X133896372Y-94287099D01*
X133922954Y-94221266D01*
X133932661Y-94210362D01*
X138073728Y-90069296D01*
X148441912Y-90069296D01*
X148441912Y-90069297D01*
X148491692Y-90104154D01*
X148491697Y-90104157D01*
X148683254Y-90193480D01*
X148683264Y-90193484D01*
X148887432Y-90248191D01*
X149098000Y-90266613D01*
X149308567Y-90248191D01*
X149512735Y-90193484D01*
X149512745Y-90193480D01*
X149704304Y-90104156D01*
X149704305Y-90104155D01*
X149754087Y-90069297D01*
X149754087Y-90069296D01*
X149098001Y-89413210D01*
X149098000Y-89413210D01*
X148441912Y-90069296D01*
X138073728Y-90069296D01*
X138959619Y-89183405D01*
X139021931Y-89149379D01*
X139048714Y-89146500D01*
X141143455Y-89146500D01*
X141143475Y-89146501D01*
X141149688Y-89146501D01*
X141298308Y-89146501D01*
X141298312Y-89146501D01*
X141419894Y-89122315D01*
X141419894Y-89122316D01*
X141419898Y-89122314D01*
X141444080Y-89117505D01*
X141500955Y-89093946D01*
X141581389Y-89060630D01*
X141591312Y-89054000D01*
X147885386Y-89054000D01*
X147903808Y-89264567D01*
X147958515Y-89468735D01*
X147958519Y-89468745D01*
X148047842Y-89660302D01*
X148047844Y-89660305D01*
X148082702Y-89710086D01*
X148738790Y-89053999D01*
X148692713Y-89007922D01*
X148748000Y-89007922D01*
X148748000Y-89100078D01*
X148771852Y-89189095D01*
X148817930Y-89268905D01*
X148883095Y-89334070D01*
X148962905Y-89380148D01*
X149051922Y-89404000D01*
X149144078Y-89404000D01*
X149233095Y-89380148D01*
X149312905Y-89334070D01*
X149378070Y-89268905D01*
X149424148Y-89189095D01*
X149448000Y-89100078D01*
X149448000Y-89053999D01*
X149457210Y-89053999D01*
X149457210Y-89054001D01*
X150113296Y-89710087D01*
X150113297Y-89710087D01*
X150148155Y-89660305D01*
X150148156Y-89660304D01*
X150237480Y-89468745D01*
X150237484Y-89468735D01*
X150292191Y-89264567D01*
X150310613Y-89054000D01*
X150292191Y-88843432D01*
X150237484Y-88639264D01*
X150237480Y-88639254D01*
X150148157Y-88447697D01*
X150148154Y-88447692D01*
X150113297Y-88397912D01*
X150113296Y-88397912D01*
X149457210Y-89053999D01*
X149448000Y-89053999D01*
X149448000Y-89007922D01*
X149424148Y-88918905D01*
X149378070Y-88839095D01*
X149312905Y-88773930D01*
X149233095Y-88727852D01*
X149144078Y-88704000D01*
X149051922Y-88704000D01*
X148962905Y-88727852D01*
X148883095Y-88773930D01*
X148817930Y-88839095D01*
X148771852Y-88918905D01*
X148748000Y-89007922D01*
X148692713Y-89007922D01*
X148082703Y-88397912D01*
X148082701Y-88397912D01*
X148047846Y-88447690D01*
X147958517Y-88639258D01*
X147958515Y-88639264D01*
X147903808Y-88843432D01*
X147885386Y-89054000D01*
X141591312Y-89054000D01*
X141704966Y-88978059D01*
X142644324Y-88038701D01*
X148441912Y-88038701D01*
X148441912Y-88038703D01*
X149097999Y-88694790D01*
X149098000Y-88694790D01*
X149754086Y-88038702D01*
X149754086Y-88038701D01*
X149704305Y-88003844D01*
X149704302Y-88003842D01*
X149512745Y-87914519D01*
X149512735Y-87914515D01*
X149308567Y-87859808D01*
X149098000Y-87841386D01*
X148887432Y-87859808D01*
X148683264Y-87914515D01*
X148683258Y-87914517D01*
X148491690Y-88003846D01*
X148441912Y-88038701D01*
X142644324Y-88038701D01*
X144069028Y-86613996D01*
X148138882Y-86613996D01*
X148138882Y-86614003D01*
X148157309Y-86801107D01*
X148157311Y-86801118D01*
X148211890Y-86981038D01*
X148211891Y-86981040D01*
X148299660Y-87145243D01*
X148300523Y-87146857D01*
X148419801Y-87292199D01*
X148565143Y-87411477D01*
X148565145Y-87411478D01*
X148730959Y-87500108D01*
X148730961Y-87500109D01*
X148910881Y-87554688D01*
X148910882Y-87554688D01*
X148910885Y-87554689D01*
X148910888Y-87554689D01*
X148910892Y-87554690D01*
X149097997Y-87573118D01*
X149098000Y-87573118D01*
X149098003Y-87573118D01*
X149285107Y-87554690D01*
X149285109Y-87554689D01*
X149285115Y-87554689D01*
X149465039Y-87500109D01*
X149630857Y-87411477D01*
X149776199Y-87292199D01*
X149895477Y-87146857D01*
X149984109Y-86981039D01*
X150038689Y-86801115D01*
X150038690Y-86801107D01*
X150057118Y-86614003D01*
X150057118Y-86613996D01*
X150038690Y-86426892D01*
X150038688Y-86426881D01*
X149984109Y-86246961D01*
X149984108Y-86246959D01*
X149895478Y-86081145D01*
X149895477Y-86081143D01*
X149776199Y-85935801D01*
X149630857Y-85816523D01*
X149630855Y-85816522D01*
X149630854Y-85816521D01*
X149465040Y-85727891D01*
X149465038Y-85727890D01*
X149285118Y-85673311D01*
X149285107Y-85673309D01*
X149098003Y-85654882D01*
X149097997Y-85654882D01*
X148910892Y-85673309D01*
X148910881Y-85673311D01*
X148730961Y-85727890D01*
X148730959Y-85727891D01*
X148565145Y-85816521D01*
X148419801Y-85935801D01*
X148300521Y-86081145D01*
X148211891Y-86246959D01*
X148211890Y-86246961D01*
X148157311Y-86426881D01*
X148157309Y-86426892D01*
X148138882Y-86613996D01*
X144069028Y-86613996D01*
X146833619Y-83849404D01*
X146895931Y-83815379D01*
X146922714Y-83812500D01*
X152573455Y-83812500D01*
X152573475Y-83812501D01*
X152579688Y-83812501D01*
X152728308Y-83812501D01*
X152728312Y-83812501D01*
X152849894Y-83788315D01*
X152849894Y-83788316D01*
X152849898Y-83788314D01*
X152874080Y-83783505D01*
X152964434Y-83746079D01*
X153011389Y-83726630D01*
X153134966Y-83644059D01*
X154804059Y-81974966D01*
X154886630Y-81851389D01*
X154924212Y-81760658D01*
X154943505Y-81714080D01*
X154963098Y-81615581D01*
X154972501Y-81568312D01*
X154972501Y-81419688D01*
X154972501Y-81414496D01*
X154972500Y-81414470D01*
X154972500Y-80070688D01*
X154992502Y-80002567D01*
X155009400Y-79981597D01*
X155060465Y-79930533D01*
X155162653Y-79789884D01*
X155241580Y-79634981D01*
X155295303Y-79469638D01*
X155322500Y-79297926D01*
X155322500Y-78874074D01*
X155295303Y-78702362D01*
X155241580Y-78537019D01*
X155162653Y-78382116D01*
X155112258Y-78312753D01*
X155112246Y-78312737D01*
X155613500Y-78312737D01*
X155613500Y-79859246D01*
X155613502Y-79859270D01*
X155619959Y-79919339D01*
X155619959Y-79919341D01*
X155670657Y-80055266D01*
X155682202Y-80070688D01*
X155757596Y-80171404D01*
X155841992Y-80234581D01*
X155873736Y-80258344D01*
X155881530Y-80261251D01*
X155938367Y-80303796D01*
X155963179Y-80370316D01*
X155963500Y-80379307D01*
X155963500Y-85983691D01*
X155943498Y-86051812D01*
X155934900Y-86063623D01*
X155920528Y-86081135D01*
X155920522Y-86081143D01*
X155831891Y-86246959D01*
X155831890Y-86246961D01*
X155777311Y-86426881D01*
X155777309Y-86426892D01*
X155758882Y-86613996D01*
X155758882Y-86614003D01*
X155777309Y-86801107D01*
X155777311Y-86801118D01*
X155831890Y-86981038D01*
X155831891Y-86981040D01*
X155919660Y-87145243D01*
X155920523Y-87146857D01*
X156039801Y-87292199D01*
X156185143Y-87411477D01*
X156185145Y-87411478D01*
X156350959Y-87500108D01*
X156350961Y-87500109D01*
X156530881Y-87554688D01*
X156530882Y-87554688D01*
X156530885Y-87554689D01*
X156530888Y-87554689D01*
X156530892Y-87554690D01*
X156717997Y-87573118D01*
X156718000Y-87573118D01*
X156718003Y-87573118D01*
X156905107Y-87554690D01*
X156905109Y-87554689D01*
X156905115Y-87554689D01*
X157085039Y-87500109D01*
X157250857Y-87411477D01*
X157396199Y-87292199D01*
X157515477Y-87146857D01*
X157604109Y-86981039D01*
X157638401Y-86867996D01*
X181158882Y-86867996D01*
X181158882Y-86868003D01*
X181177309Y-87055107D01*
X181177311Y-87055118D01*
X181231890Y-87235038D01*
X181231891Y-87235040D01*
X181287893Y-87339811D01*
X181320523Y-87400857D01*
X181439801Y-87546199D01*
X181585143Y-87665477D01*
X181668052Y-87709793D01*
X181750959Y-87754108D01*
X181750961Y-87754109D01*
X181930881Y-87808688D01*
X181930882Y-87808688D01*
X181930885Y-87808689D01*
X181930888Y-87808689D01*
X181930892Y-87808690D01*
X182117997Y-87827118D01*
X182118000Y-87827118D01*
X182118003Y-87827118D01*
X182305107Y-87808690D01*
X182305109Y-87808689D01*
X182305115Y-87808689D01*
X182485039Y-87754109D01*
X182650857Y-87665477D01*
X182796199Y-87546199D01*
X182915477Y-87400857D01*
X183004109Y-87235039D01*
X183058689Y-87055115D01*
X183065395Y-86987025D01*
X183077118Y-86868003D01*
X183077118Y-86867996D01*
X183058690Y-86680892D01*
X183058688Y-86680881D01*
X183004109Y-86500961D01*
X183004108Y-86500959D01*
X182915477Y-86335143D01*
X182915471Y-86335135D01*
X182901100Y-86317623D01*
X182873347Y-86252276D01*
X182872500Y-86237691D01*
X182872500Y-84692713D01*
X182892502Y-84624592D01*
X182909400Y-84603623D01*
X185148589Y-82364433D01*
X185148599Y-82364426D01*
X185264052Y-82248973D01*
X185264059Y-82248966D01*
X185323674Y-82159745D01*
X185346630Y-82125389D01*
X185390425Y-82019658D01*
X185403505Y-81988080D01*
X185421446Y-81897885D01*
X185424353Y-81883273D01*
X185430695Y-81851389D01*
X185432501Y-81842312D01*
X185432501Y-81693688D01*
X185432501Y-81688496D01*
X185432500Y-81688470D01*
X185432500Y-80278688D01*
X185452502Y-80210567D01*
X185469400Y-80189597D01*
X185520465Y-80138533D01*
X185622653Y-79997884D01*
X185701580Y-79842981D01*
X185755303Y-79677638D01*
X185782500Y-79505926D01*
X185782500Y-79082074D01*
X186073500Y-79082074D01*
X186073500Y-79505926D01*
X186093940Y-79634976D01*
X186100698Y-79677642D01*
X186149302Y-79827231D01*
X186154420Y-79842981D01*
X186225046Y-79981592D01*
X186233349Y-79997887D01*
X186335536Y-80138535D01*
X186458464Y-80261463D01*
X186458467Y-80261465D01*
X186599116Y-80363653D01*
X186754019Y-80442580D01*
X186919362Y-80496303D01*
X187091074Y-80523500D01*
X187091077Y-80523500D01*
X187264923Y-80523500D01*
X187264926Y-80523500D01*
X187436638Y-80496303D01*
X187601981Y-80442580D01*
X187756884Y-80363653D01*
X187897533Y-80261465D01*
X188020465Y-80138533D01*
X188122653Y-79997884D01*
X188201580Y-79842981D01*
X188255303Y-79677638D01*
X188282500Y-79505926D01*
X188282500Y-79082074D01*
X188255303Y-78910362D01*
X188201580Y-78745019D01*
X188122653Y-78590116D01*
X188072258Y-78520753D01*
X188072246Y-78520737D01*
X188573500Y-78520737D01*
X188573500Y-80067246D01*
X188573502Y-80067270D01*
X188579959Y-80127339D01*
X188579959Y-80127341D01*
X188630657Y-80263266D01*
X188630658Y-80263267D01*
X188717596Y-80379404D01*
X188801992Y-80442581D01*
X188833736Y-80466344D01*
X188841530Y-80469251D01*
X188898367Y-80511796D01*
X188923179Y-80578316D01*
X188923500Y-80587307D01*
X188923500Y-86335428D01*
X188908622Y-86394824D01*
X188851892Y-86500957D01*
X188851886Y-86500972D01*
X188797311Y-86680881D01*
X188797309Y-86680892D01*
X188778882Y-86867996D01*
X188778882Y-86868003D01*
X188797309Y-87055107D01*
X188797311Y-87055118D01*
X188851890Y-87235038D01*
X188851891Y-87235040D01*
X188907893Y-87339811D01*
X188940523Y-87400857D01*
X189059801Y-87546199D01*
X189205143Y-87665477D01*
X189288052Y-87709793D01*
X189370959Y-87754108D01*
X189370961Y-87754109D01*
X189550881Y-87808688D01*
X189550882Y-87808688D01*
X189550885Y-87808689D01*
X189550888Y-87808689D01*
X189550892Y-87808690D01*
X189737997Y-87827118D01*
X189738000Y-87827118D01*
X189738003Y-87827118D01*
X189925107Y-87808690D01*
X189925109Y-87808689D01*
X189925115Y-87808689D01*
X190105039Y-87754109D01*
X190270857Y-87665477D01*
X190416199Y-87546199D01*
X190535477Y-87400857D01*
X190624109Y-87235039D01*
X190678689Y-87055115D01*
X190685395Y-86987025D01*
X190697118Y-86868003D01*
X190697118Y-86867996D01*
X190678690Y-86680892D01*
X190678688Y-86680881D01*
X190624109Y-86500961D01*
X190624108Y-86500959D01*
X190567377Y-86394824D01*
X190535477Y-86335143D01*
X190535475Y-86335140D01*
X190461100Y-86244512D01*
X190433347Y-86179165D01*
X190432500Y-86164580D01*
X190432500Y-85967737D01*
X214113500Y-85967737D01*
X214113500Y-87514246D01*
X214113502Y-87514270D01*
X214119959Y-87574339D01*
X214119959Y-87574341D01*
X214170657Y-87710266D01*
X214180677Y-87723651D01*
X214257596Y-87826404D01*
X214373733Y-87913342D01*
X214509658Y-87964040D01*
X214569745Y-87970500D01*
X215866254Y-87970499D01*
X215926342Y-87964040D01*
X216062267Y-87913342D01*
X216178404Y-87826404D01*
X216265342Y-87710267D01*
X216316040Y-87574342D01*
X216322500Y-87514255D01*
X216322499Y-86529074D01*
X216613500Y-86529074D01*
X216613500Y-86952926D01*
X216638666Y-87111815D01*
X216640698Y-87124642D01*
X216676568Y-87235040D01*
X216694420Y-87289981D01*
X216756326Y-87411478D01*
X216773349Y-87444887D01*
X216875536Y-87585535D01*
X216998464Y-87708463D01*
X217061289Y-87754108D01*
X217139116Y-87810653D01*
X217294019Y-87889580D01*
X217459362Y-87943303D01*
X217631074Y-87970500D01*
X217631077Y-87970500D01*
X217804923Y-87970500D01*
X217804926Y-87970500D01*
X217976638Y-87943303D01*
X218141981Y-87889580D01*
X218296884Y-87810653D01*
X218437533Y-87708465D01*
X218560465Y-87585533D01*
X218662653Y-87444884D01*
X218741580Y-87289981D01*
X218795303Y-87124638D01*
X218822500Y-86952926D01*
X218822500Y-86529074D01*
X219113500Y-86529074D01*
X219113500Y-86952926D01*
X219138666Y-87111815D01*
X219140698Y-87124642D01*
X219176568Y-87235040D01*
X219194420Y-87289981D01*
X219256326Y-87411478D01*
X219273349Y-87444887D01*
X219375536Y-87585535D01*
X219498464Y-87708463D01*
X219561289Y-87754108D01*
X219639116Y-87810653D01*
X219794019Y-87889580D01*
X219959362Y-87943303D01*
X220131074Y-87970500D01*
X220131077Y-87970500D01*
X220304923Y-87970500D01*
X220304926Y-87970500D01*
X220476638Y-87943303D01*
X220641981Y-87889580D01*
X220796884Y-87810653D01*
X220937533Y-87708465D01*
X221060465Y-87585533D01*
X221162653Y-87444884D01*
X221241580Y-87289981D01*
X221295303Y-87124638D01*
X221322500Y-86952926D01*
X221322500Y-86529074D01*
X221295303Y-86357362D01*
X221241580Y-86192019D01*
X221162653Y-86037116D01*
X221112258Y-85967753D01*
X221112246Y-85967737D01*
X226305500Y-85967737D01*
X226305500Y-87514246D01*
X226305502Y-87514270D01*
X226311959Y-87574339D01*
X226311959Y-87574341D01*
X226362657Y-87710266D01*
X226372677Y-87723651D01*
X226449596Y-87826404D01*
X226565733Y-87913342D01*
X226701658Y-87964040D01*
X226761745Y-87970500D01*
X228058254Y-87970499D01*
X228118342Y-87964040D01*
X228254267Y-87913342D01*
X228370404Y-87826404D01*
X228457342Y-87710267D01*
X228508040Y-87574342D01*
X228514500Y-87514255D01*
X228514499Y-85967746D01*
X228508040Y-85907658D01*
X228457342Y-85771733D01*
X228370404Y-85655596D01*
X228254267Y-85568658D01*
X228254265Y-85568657D01*
X228254266Y-85568657D01*
X228118349Y-85517962D01*
X228118344Y-85517960D01*
X228118342Y-85517960D01*
X228088298Y-85514730D01*
X228058256Y-85511500D01*
X226761753Y-85511500D01*
X226761729Y-85511502D01*
X226701660Y-85517959D01*
X226701658Y-85517959D01*
X226565733Y-85568657D01*
X226449596Y-85655596D01*
X226362657Y-85771734D01*
X226311962Y-85907650D01*
X226311960Y-85907658D01*
X226305500Y-85967737D01*
X221112246Y-85967737D01*
X221060463Y-85896464D01*
X220937535Y-85773536D01*
X220796887Y-85671349D01*
X220796886Y-85671348D01*
X220796884Y-85671347D01*
X220641981Y-85592420D01*
X220641978Y-85592419D01*
X220641976Y-85592418D01*
X220476642Y-85538698D01*
X220476640Y-85538697D01*
X220476638Y-85538697D01*
X220304926Y-85511500D01*
X220131074Y-85511500D01*
X219959362Y-85538697D01*
X219959360Y-85538697D01*
X219959357Y-85538698D01*
X219794023Y-85592418D01*
X219794017Y-85592421D01*
X219639112Y-85671349D01*
X219498464Y-85773536D01*
X219375536Y-85896464D01*
X219273349Y-86037112D01*
X219194421Y-86192017D01*
X219194418Y-86192023D01*
X219140698Y-86357357D01*
X219140697Y-86357360D01*
X219140697Y-86357362D01*
X219113500Y-86529074D01*
X218822500Y-86529074D01*
X218795303Y-86357362D01*
X218741580Y-86192019D01*
X218662653Y-86037116D01*
X218612258Y-85967753D01*
X218560463Y-85896464D01*
X218509405Y-85845406D01*
X218475379Y-85783094D01*
X218472500Y-85756311D01*
X218472500Y-83890714D01*
X218492502Y-83822593D01*
X218509405Y-83801619D01*
X218715619Y-83595405D01*
X218777931Y-83561379D01*
X218804714Y-83558500D01*
X228743284Y-83558500D01*
X228811405Y-83578502D01*
X228832379Y-83595404D01*
X229118595Y-83881619D01*
X229152620Y-83943932D01*
X229155500Y-83970715D01*
X229155500Y-85756311D01*
X229135498Y-85824432D01*
X229118595Y-85845406D01*
X229067539Y-85896461D01*
X229067536Y-85896464D01*
X228965349Y-86037112D01*
X228886421Y-86192017D01*
X228886418Y-86192023D01*
X228832698Y-86357357D01*
X228832697Y-86357360D01*
X228832697Y-86357362D01*
X228805500Y-86529074D01*
X228805500Y-86952926D01*
X228830666Y-87111815D01*
X228832698Y-87124642D01*
X228868568Y-87235040D01*
X228886420Y-87289981D01*
X228948326Y-87411478D01*
X228965349Y-87444887D01*
X229067536Y-87585535D01*
X229190464Y-87708463D01*
X229253289Y-87754108D01*
X229331116Y-87810653D01*
X229486019Y-87889580D01*
X229651362Y-87943303D01*
X229823074Y-87970500D01*
X229823077Y-87970500D01*
X229996923Y-87970500D01*
X229996926Y-87970500D01*
X230168638Y-87943303D01*
X230333981Y-87889580D01*
X230488884Y-87810653D01*
X230629533Y-87708465D01*
X230752465Y-87585533D01*
X230854653Y-87444884D01*
X230933580Y-87289981D01*
X230987303Y-87124638D01*
X231014500Y-86952926D01*
X231014500Y-86529074D01*
X231305500Y-86529074D01*
X231305500Y-86952926D01*
X231330666Y-87111815D01*
X231332698Y-87124642D01*
X231368568Y-87235040D01*
X231386420Y-87289981D01*
X231448326Y-87411478D01*
X231465349Y-87444887D01*
X231567536Y-87585535D01*
X231690464Y-87708463D01*
X231753289Y-87754108D01*
X231831116Y-87810653D01*
X231986019Y-87889580D01*
X232151362Y-87943303D01*
X232323074Y-87970500D01*
X232323077Y-87970500D01*
X232496923Y-87970500D01*
X232496926Y-87970500D01*
X232668638Y-87943303D01*
X232833981Y-87889580D01*
X232988884Y-87810653D01*
X233129533Y-87708465D01*
X233252465Y-87585533D01*
X233354653Y-87444884D01*
X233433580Y-87289981D01*
X233487303Y-87124638D01*
X233514500Y-86952926D01*
X233514500Y-86529074D01*
X233487303Y-86357362D01*
X233433580Y-86192019D01*
X233354653Y-86037116D01*
X233304258Y-85967753D01*
X233252463Y-85896464D01*
X233129535Y-85773536D01*
X232988887Y-85671349D01*
X232988886Y-85671348D01*
X232988884Y-85671347D01*
X232833981Y-85592420D01*
X232833978Y-85592419D01*
X232833976Y-85592418D01*
X232668642Y-85538698D01*
X232668640Y-85538697D01*
X232668638Y-85538697D01*
X232496926Y-85511500D01*
X232323074Y-85511500D01*
X232151362Y-85538697D01*
X232151360Y-85538697D01*
X232151357Y-85538698D01*
X231986023Y-85592418D01*
X231986017Y-85592421D01*
X231831112Y-85671349D01*
X231690464Y-85773536D01*
X231567536Y-85896464D01*
X231465349Y-86037112D01*
X231386421Y-86192017D01*
X231386418Y-86192023D01*
X231332698Y-86357357D01*
X231332697Y-86357360D01*
X231332697Y-86357362D01*
X231305500Y-86529074D01*
X231014500Y-86529074D01*
X230987303Y-86357362D01*
X230933580Y-86192019D01*
X230854653Y-86037116D01*
X230804258Y-85967753D01*
X230752463Y-85896464D01*
X230701405Y-85845406D01*
X230667379Y-85783094D01*
X230664500Y-85756311D01*
X230664500Y-83531689D01*
X230664499Y-83531685D01*
X230635505Y-83385920D01*
X230578629Y-83248610D01*
X230496059Y-83125034D01*
X230496057Y-83125032D01*
X230496052Y-83125026D01*
X230386571Y-83015545D01*
X230386560Y-83015535D01*
X229588970Y-82217945D01*
X229588968Y-82217943D01*
X229588966Y-82217941D01*
X229465389Y-82135370D01*
X229369696Y-82095733D01*
X229369695Y-82095732D01*
X229328091Y-82078498D01*
X229328082Y-82078496D01*
X229328080Y-82078495D01*
X229303894Y-82073684D01*
X229303893Y-82073683D01*
X229220021Y-82057000D01*
X229182312Y-82049499D01*
X229033688Y-82049499D01*
X229027475Y-82049499D01*
X229027455Y-82049500D01*
X218365685Y-82049500D01*
X218219919Y-82078495D01*
X218219914Y-82078497D01*
X218082610Y-82135371D01*
X217959032Y-82217942D01*
X217959032Y-82217943D01*
X217853941Y-82323034D01*
X217131945Y-83045029D01*
X217131940Y-83045035D01*
X217070498Y-83136991D01*
X217049370Y-83168611D01*
X217016234Y-83248610D01*
X217001175Y-83284966D01*
X217001174Y-83284965D01*
X216992496Y-83305917D01*
X216992495Y-83305921D01*
X216963499Y-83451689D01*
X216963499Y-83606524D01*
X216963500Y-83606545D01*
X216963500Y-85756311D01*
X216943498Y-85824432D01*
X216926595Y-85845406D01*
X216875539Y-85896461D01*
X216875536Y-85896464D01*
X216773349Y-86037112D01*
X216694421Y-86192017D01*
X216694418Y-86192023D01*
X216640698Y-86357357D01*
X216640697Y-86357360D01*
X216640697Y-86357362D01*
X216613500Y-86529074D01*
X216322499Y-86529074D01*
X216322499Y-85967746D01*
X216316040Y-85907658D01*
X216265342Y-85771733D01*
X216178404Y-85655596D01*
X216062267Y-85568658D01*
X216062265Y-85568657D01*
X216062266Y-85568657D01*
X215926349Y-85517962D01*
X215926344Y-85517960D01*
X215926342Y-85517960D01*
X215896298Y-85514730D01*
X215866256Y-85511500D01*
X214569753Y-85511500D01*
X214569729Y-85511502D01*
X214509660Y-85517959D01*
X214509658Y-85517959D01*
X214373733Y-85568657D01*
X214257596Y-85655596D01*
X214170657Y-85771734D01*
X214119962Y-85907650D01*
X214119960Y-85907658D01*
X214113500Y-85967737D01*
X190432500Y-85967737D01*
X190432500Y-80587307D01*
X190452502Y-80519186D01*
X190506158Y-80472693D01*
X190514470Y-80469251D01*
X190522263Y-80466344D01*
X190522264Y-80466342D01*
X190522267Y-80466342D01*
X190638404Y-80379404D01*
X190725342Y-80263267D01*
X190776040Y-80127342D01*
X190782500Y-80067255D01*
X190782499Y-78520746D01*
X190776040Y-78460658D01*
X190725342Y-78324733D01*
X190638404Y-78208596D01*
X190522267Y-78121658D01*
X190522265Y-78121657D01*
X190522266Y-78121657D01*
X190386349Y-78070962D01*
X190386344Y-78070960D01*
X190386342Y-78070960D01*
X190356298Y-78067730D01*
X190326256Y-78064500D01*
X189029753Y-78064500D01*
X189029729Y-78064502D01*
X188969660Y-78070959D01*
X188969658Y-78070959D01*
X188833733Y-78121657D01*
X188717596Y-78208596D01*
X188630657Y-78324734D01*
X188579962Y-78460650D01*
X188579960Y-78460658D01*
X188573500Y-78520737D01*
X188072246Y-78520737D01*
X188020463Y-78449464D01*
X187897535Y-78326536D01*
X187756887Y-78224349D01*
X187756886Y-78224348D01*
X187756884Y-78224347D01*
X187601981Y-78145420D01*
X187601978Y-78145419D01*
X187601976Y-78145418D01*
X187436642Y-78091698D01*
X187436640Y-78091697D01*
X187436638Y-78091697D01*
X187264926Y-78064500D01*
X187091074Y-78064500D01*
X186919362Y-78091697D01*
X186919360Y-78091697D01*
X186919357Y-78091698D01*
X186754023Y-78145418D01*
X186754017Y-78145421D01*
X186599112Y-78224349D01*
X186458464Y-78326536D01*
X186335536Y-78449464D01*
X186233349Y-78590112D01*
X186154421Y-78745017D01*
X186154418Y-78745023D01*
X186100698Y-78910357D01*
X186100697Y-78910360D01*
X186100697Y-78910362D01*
X186073500Y-79082074D01*
X185782500Y-79082074D01*
X185755303Y-78910362D01*
X185701580Y-78745019D01*
X185622653Y-78590116D01*
X185572258Y-78520753D01*
X185520463Y-78449464D01*
X185397535Y-78326536D01*
X185256887Y-78224349D01*
X185256886Y-78224348D01*
X185256884Y-78224347D01*
X185101981Y-78145420D01*
X185101978Y-78145419D01*
X185101976Y-78145418D01*
X184936642Y-78091698D01*
X184936640Y-78091697D01*
X184936638Y-78091697D01*
X184764926Y-78064500D01*
X184591074Y-78064500D01*
X184419362Y-78091697D01*
X184419360Y-78091697D01*
X184419357Y-78091698D01*
X184254023Y-78145418D01*
X184254017Y-78145421D01*
X184099112Y-78224349D01*
X183958464Y-78326536D01*
X183835536Y-78449464D01*
X183733349Y-78590112D01*
X183654421Y-78745017D01*
X183654418Y-78745023D01*
X183600698Y-78910357D01*
X183600697Y-78910360D01*
X183600697Y-78910362D01*
X183573500Y-79082074D01*
X183573500Y-79505926D01*
X183593940Y-79634976D01*
X183600698Y-79677642D01*
X183649302Y-79827231D01*
X183654420Y-79842981D01*
X183725046Y-79981592D01*
X183733349Y-79997887D01*
X183783748Y-80067255D01*
X183835535Y-80138533D01*
X183886596Y-80189594D01*
X183920620Y-80251904D01*
X183923500Y-80278688D01*
X183923500Y-81403285D01*
X183903498Y-81471406D01*
X183886595Y-81492380D01*
X181531945Y-83847029D01*
X181531940Y-83847035D01*
X181450678Y-83968654D01*
X181449370Y-83970611D01*
X181432499Y-84011342D01*
X181413068Y-84058254D01*
X181413067Y-84058253D01*
X181392496Y-84107916D01*
X181392495Y-84107921D01*
X181365276Y-84244758D01*
X181363499Y-84253689D01*
X181363499Y-84408524D01*
X181363500Y-84408545D01*
X181363500Y-86237691D01*
X181343498Y-86305812D01*
X181334900Y-86317623D01*
X181320528Y-86335135D01*
X181320522Y-86335143D01*
X181231891Y-86500959D01*
X181231890Y-86500961D01*
X181177311Y-86680881D01*
X181177309Y-86680892D01*
X181158882Y-86867996D01*
X157638401Y-86867996D01*
X157658689Y-86801115D01*
X157658690Y-86801107D01*
X157677118Y-86614003D01*
X157677118Y-86613996D01*
X157658690Y-86426892D01*
X157658688Y-86426881D01*
X157604109Y-86246961D01*
X157604108Y-86246959D01*
X157515477Y-86081143D01*
X157515471Y-86081135D01*
X157501100Y-86063623D01*
X157473347Y-85998276D01*
X157472500Y-85983691D01*
X157472500Y-80379307D01*
X157492502Y-80311186D01*
X157546158Y-80264693D01*
X157554470Y-80261251D01*
X157562263Y-80258344D01*
X157562264Y-80258342D01*
X157562267Y-80258342D01*
X157678404Y-80171404D01*
X157765342Y-80055267D01*
X157816040Y-79919342D01*
X157822500Y-79859255D01*
X157822499Y-79082074D01*
X181073500Y-79082074D01*
X181073500Y-79505926D01*
X181093940Y-79634976D01*
X181100698Y-79677642D01*
X181149302Y-79827231D01*
X181154420Y-79842981D01*
X181225046Y-79981592D01*
X181233349Y-79997887D01*
X181335536Y-80138535D01*
X181458464Y-80261463D01*
X181458467Y-80261465D01*
X181599116Y-80363653D01*
X181754019Y-80442580D01*
X181919362Y-80496303D01*
X182091074Y-80523500D01*
X182091077Y-80523500D01*
X182264923Y-80523500D01*
X182264926Y-80523500D01*
X182436638Y-80496303D01*
X182601981Y-80442580D01*
X182756884Y-80363653D01*
X182897533Y-80261465D01*
X183020465Y-80138533D01*
X183122653Y-79997884D01*
X183201580Y-79842981D01*
X183255303Y-79677638D01*
X183282500Y-79505926D01*
X183282500Y-79082074D01*
X183255303Y-78910362D01*
X183201580Y-78745019D01*
X183122653Y-78590116D01*
X183072258Y-78520753D01*
X183020463Y-78449464D01*
X182897535Y-78326536D01*
X182756887Y-78224349D01*
X182756886Y-78224348D01*
X182756884Y-78224347D01*
X182601981Y-78145420D01*
X182601978Y-78145419D01*
X182601976Y-78145418D01*
X182436642Y-78091698D01*
X182436640Y-78091697D01*
X182436638Y-78091697D01*
X182264926Y-78064500D01*
X182091074Y-78064500D01*
X181919362Y-78091697D01*
X181919360Y-78091697D01*
X181919357Y-78091698D01*
X181754023Y-78145418D01*
X181754017Y-78145421D01*
X181599112Y-78224349D01*
X181458464Y-78326536D01*
X181335536Y-78449464D01*
X181233349Y-78590112D01*
X181154421Y-78745017D01*
X181154418Y-78745023D01*
X181100698Y-78910357D01*
X181100697Y-78910360D01*
X181100697Y-78910362D01*
X181073500Y-79082074D01*
X157822499Y-79082074D01*
X157822499Y-78312746D01*
X157816040Y-78252658D01*
X157765342Y-78116733D01*
X157678404Y-78000596D01*
X157562267Y-77913658D01*
X157562265Y-77913657D01*
X157562266Y-77913657D01*
X157426349Y-77862962D01*
X157426344Y-77862960D01*
X157426342Y-77862960D01*
X157396298Y-77859730D01*
X157366256Y-77856500D01*
X156069753Y-77856500D01*
X156069729Y-77856502D01*
X156009660Y-77862959D01*
X156009658Y-77862959D01*
X155873733Y-77913657D01*
X155757596Y-78000596D01*
X155670657Y-78116734D01*
X155619962Y-78252650D01*
X155619960Y-78252658D01*
X155613500Y-78312737D01*
X155112246Y-78312737D01*
X155060463Y-78241464D01*
X154937535Y-78118536D01*
X154796887Y-78016349D01*
X154796886Y-78016348D01*
X154796884Y-78016347D01*
X154641981Y-77937420D01*
X154641978Y-77937419D01*
X154641976Y-77937418D01*
X154476642Y-77883698D01*
X154476640Y-77883697D01*
X154476638Y-77883697D01*
X154304926Y-77856500D01*
X154131074Y-77856500D01*
X153959362Y-77883697D01*
X153959360Y-77883697D01*
X153959357Y-77883698D01*
X153794023Y-77937418D01*
X153794017Y-77937421D01*
X153639112Y-78016349D01*
X153498464Y-78118536D01*
X153375536Y-78241464D01*
X153273349Y-78382112D01*
X153194421Y-78537017D01*
X153194418Y-78537023D01*
X153140698Y-78702357D01*
X153140697Y-78702360D01*
X153140697Y-78702362D01*
X153113500Y-78874074D01*
X153113500Y-79297926D01*
X153140697Y-79469638D01*
X153140698Y-79469642D01*
X153152487Y-79505926D01*
X153194420Y-79634981D01*
X153273103Y-79789405D01*
X153273349Y-79789887D01*
X153323748Y-79859255D01*
X153375535Y-79930533D01*
X153426596Y-79981594D01*
X153460620Y-80043904D01*
X153463500Y-80070688D01*
X153463500Y-81129285D01*
X153443498Y-81197406D01*
X153426595Y-81218380D01*
X152378380Y-82266595D01*
X152316068Y-82300621D01*
X152289285Y-82303500D01*
X146638545Y-82303500D01*
X146638525Y-82303499D01*
X146632312Y-82303499D01*
X146483688Y-82303499D01*
X146483687Y-82303499D01*
X146362105Y-82327683D01*
X146362105Y-82327684D01*
X146337920Y-82332495D01*
X146200609Y-82389371D01*
X146077032Y-82471942D01*
X146077032Y-82471943D01*
X145971941Y-82577034D01*
X140948380Y-87600595D01*
X140886068Y-87634621D01*
X140859285Y-87637500D01*
X138764545Y-87637500D01*
X138764525Y-87637499D01*
X138758312Y-87637499D01*
X138609688Y-87637499D01*
X138609687Y-87637499D01*
X138488104Y-87661684D01*
X138488103Y-87661683D01*
X138463926Y-87666493D01*
X138463916Y-87666496D01*
X138407045Y-87690053D01*
X138326611Y-87723369D01*
X138326193Y-87723649D01*
X138326190Y-87723651D01*
X138245426Y-87777615D01*
X138203034Y-87805941D01*
X138097941Y-87911034D01*
X138097939Y-87911036D01*
X132865644Y-93143329D01*
X132803332Y-93177355D01*
X132788900Y-93179627D01*
X132729163Y-93185511D01*
X132635282Y-93194758D01*
X132512498Y-93232004D01*
X132436507Y-93255055D01*
X132253313Y-93352974D01*
X132253313Y-93352975D01*
X132092747Y-93484747D01*
X131960975Y-93645313D01*
X131960974Y-93645313D01*
X131863055Y-93828507D01*
X131802756Y-94027288D01*
X131782398Y-94233996D01*
X129837602Y-94233996D01*
X129817243Y-94027288D01*
X129817242Y-94027286D01*
X129817242Y-94027282D01*
X129756945Y-93828508D01*
X129659027Y-93645317D01*
X129659025Y-93645313D01*
X129527252Y-93484747D01*
X129366686Y-93352975D01*
X129366686Y-93352974D01*
X129183492Y-93255055D01*
X129070350Y-93220734D01*
X128984718Y-93194758D01*
X128984717Y-93194757D01*
X128984711Y-93194756D01*
X128778003Y-93174398D01*
X128777997Y-93174398D01*
X128571288Y-93194756D01*
X128372507Y-93255055D01*
X128189313Y-93352974D01*
X128189313Y-93352975D01*
X128028747Y-93484747D01*
X127896975Y-93645313D01*
X127896974Y-93645313D01*
X127799055Y-93828507D01*
X127738756Y-94027288D01*
X127718398Y-94233996D01*
X127718398Y-94234003D01*
X127738756Y-94440711D01*
X127738757Y-94440717D01*
X127738758Y-94440718D01*
X127748306Y-94472195D01*
X127799055Y-94639492D01*
X127896974Y-94822686D01*
X128028747Y-94983252D01*
X128189313Y-95115024D01*
X128189313Y-95115025D01*
X128189317Y-95115027D01*
X128372508Y-95212945D01*
X128530681Y-95260926D01*
X128590062Y-95299840D01*
X128618977Y-95364681D01*
X128608247Y-95434862D01*
X128561278Y-95488101D01*
X128494105Y-95507500D01*
X127515161Y-95507500D01*
X127447040Y-95487498D01*
X127426066Y-95470595D01*
X122229777Y-90274305D01*
X122229773Y-90274302D01*
X122229770Y-90274299D01*
X122177701Y-90244237D01*
X122147639Y-90226881D01*
X122147638Y-90226881D01*
X122114730Y-90207881D01*
X122114729Y-90207880D01*
X122114728Y-90207880D01*
X122046583Y-90189621D01*
X121986419Y-90173500D01*
X112201581Y-90173500D01*
X112127015Y-90193480D01*
X112073269Y-90207881D01*
X111958233Y-90274297D01*
X111958223Y-90274305D01*
X100540299Y-101692228D01*
X100540297Y-101692231D01*
X100498191Y-101765159D01*
X100498192Y-101765160D01*
X100473881Y-101807269D01*
X100473881Y-101807270D01*
X100443439Y-101920883D01*
X100439500Y-101935582D01*
X100439500Y-108472454D01*
X100419498Y-108540575D01*
X100372899Y-108583574D01*
X100355318Y-108592971D01*
X100355313Y-108592975D01*
X100194747Y-108724747D01*
X100062975Y-108885313D01*
X100062974Y-108885313D01*
X99965055Y-109068507D01*
X99904756Y-109267288D01*
X99884398Y-109473996D01*
X98701602Y-109473996D01*
X98681243Y-109267288D01*
X98681242Y-109267286D01*
X98681242Y-109267282D01*
X98620945Y-109068508D01*
X98523027Y-108885317D01*
X98523025Y-108885313D01*
X98391252Y-108724747D01*
X98230686Y-108592975D01*
X98230686Y-108592974D01*
X98047492Y-108495055D01*
X97915144Y-108454908D01*
X97848718Y-108434758D01*
X97848717Y-108434757D01*
X97848711Y-108434756D01*
X97642003Y-108414398D01*
X97641997Y-108414398D01*
X97435288Y-108434756D01*
X97236507Y-108495055D01*
X97053313Y-108592974D01*
X97053313Y-108592975D01*
X96892747Y-108724747D01*
X96760975Y-108885313D01*
X96760974Y-108885313D01*
X96663055Y-109068507D01*
X96602756Y-109267288D01*
X96582398Y-109473996D01*
X80596230Y-109473996D01*
X80609779Y-109454646D01*
X80702547Y-109255703D01*
X80759361Y-109043674D01*
X80778492Y-108825000D01*
X80759361Y-108606326D01*
X80702547Y-108394297D01*
X80609779Y-108195354D01*
X80483874Y-108015543D01*
X80328657Y-107860326D01*
X80217728Y-107782653D01*
X80148846Y-107734421D01*
X79949906Y-107641654D01*
X79949900Y-107641652D01*
X79843825Y-107613229D01*
X79737874Y-107584839D01*
X79519200Y-107565708D01*
X79300526Y-107584839D01*
X79088499Y-107641652D01*
X79088493Y-107641654D01*
X78889553Y-107734421D01*
X78709746Y-107860323D01*
X78709740Y-107860328D01*
X78554528Y-108015540D01*
X78554523Y-108015546D01*
X78428621Y-108195353D01*
X78335854Y-108394293D01*
X78335852Y-108394299D01*
X78282617Y-108592973D01*
X78279039Y-108606326D01*
X78259908Y-108825000D01*
X55766156Y-108825000D01*
X55759361Y-108747326D01*
X55702547Y-108535297D01*
X55609779Y-108336354D01*
X55483874Y-108156543D01*
X55328657Y-108001326D01*
X55300605Y-107981684D01*
X55148846Y-107875421D01*
X54949906Y-107782654D01*
X54949900Y-107782652D01*
X54860291Y-107758641D01*
X54737874Y-107725839D01*
X54519200Y-107706708D01*
X54300526Y-107725839D01*
X54088499Y-107782652D01*
X54088493Y-107782654D01*
X53889553Y-107875421D01*
X53709746Y-108001323D01*
X53709743Y-108001326D01*
X53554528Y-108156540D01*
X53554523Y-108156546D01*
X53428621Y-108336353D01*
X53335854Y-108535293D01*
X53335852Y-108535299D01*
X53286982Y-108717682D01*
X53279039Y-108747326D01*
X53259908Y-108966000D01*
X41350500Y-108966000D01*
X41350500Y-98806000D01*
X53259908Y-98806000D01*
X53268274Y-98901632D01*
X53279039Y-99024673D01*
X53335852Y-99236700D01*
X53335854Y-99236706D01*
X53428621Y-99435646D01*
X53528547Y-99578356D01*
X53554526Y-99615457D01*
X53709743Y-99770674D01*
X53889554Y-99896579D01*
X53982382Y-99939865D01*
X54029432Y-99961805D01*
X54082717Y-100008722D01*
X54102178Y-100076999D01*
X54081636Y-100144959D01*
X54029432Y-100190195D01*
X53889553Y-100255421D01*
X53709746Y-100381323D01*
X53709740Y-100381328D01*
X53554528Y-100536540D01*
X53554523Y-100536546D01*
X53428621Y-100716353D01*
X53335854Y-100915293D01*
X53335852Y-100915299D01*
X53291855Y-101079498D01*
X53279039Y-101127326D01*
X53259908Y-101346000D01*
X53268274Y-101441632D01*
X53279039Y-101564673D01*
X53335852Y-101776700D01*
X53335854Y-101776706D01*
X53428621Y-101975646D01*
X53518845Y-102104500D01*
X53554526Y-102155457D01*
X53709743Y-102310674D01*
X53889554Y-102436579D01*
X53982382Y-102479865D01*
X54029432Y-102501805D01*
X54082717Y-102548722D01*
X54102178Y-102616999D01*
X54081636Y-102684959D01*
X54029432Y-102730195D01*
X53889553Y-102795421D01*
X53709746Y-102921323D01*
X53709740Y-102921328D01*
X53554528Y-103076540D01*
X53554523Y-103076546D01*
X53428621Y-103256353D01*
X53335854Y-103455293D01*
X53335852Y-103455299D01*
X53286722Y-103638653D01*
X53279039Y-103667326D01*
X53259908Y-103886000D01*
X53279039Y-104104674D01*
X53301174Y-104187282D01*
X53335852Y-104316700D01*
X53335854Y-104316706D01*
X53413372Y-104482945D01*
X53428621Y-104515646D01*
X53554526Y-104695457D01*
X53709743Y-104850674D01*
X53889554Y-104976579D01*
X54088497Y-105069347D01*
X54300526Y-105126161D01*
X54519200Y-105145292D01*
X54737874Y-105126161D01*
X54949903Y-105069347D01*
X55148846Y-104976579D01*
X55328657Y-104850674D01*
X55483874Y-104695457D01*
X55602033Y-104526709D01*
X64951500Y-104526709D01*
X64951500Y-104769290D01*
X64983160Y-105009782D01*
X65045944Y-105244095D01*
X65045945Y-105244097D01*
X65045946Y-105244100D01*
X65138776Y-105468212D01*
X65138777Y-105468213D01*
X65138782Y-105468224D01*
X65260061Y-105678285D01*
X65260063Y-105678288D01*
X65260064Y-105678289D01*
X65407735Y-105870738D01*
X65407739Y-105870742D01*
X65407744Y-105870748D01*
X65579251Y-106042255D01*
X65579256Y-106042259D01*
X65579262Y-106042265D01*
X65754359Y-106176621D01*
X65771714Y-106189938D01*
X65981775Y-106311217D01*
X65981779Y-106311218D01*
X65981788Y-106311224D01*
X66205900Y-106404054D01*
X66440211Y-106466838D01*
X66440215Y-106466838D01*
X66440217Y-106466839D01*
X66502202Y-106474999D01*
X66680712Y-106498500D01*
X66680719Y-106498500D01*
X66923281Y-106498500D01*
X66923288Y-106498500D01*
X67140637Y-106469885D01*
X67163782Y-106466839D01*
X67163782Y-106466838D01*
X67163789Y-106466838D01*
X67398100Y-106404054D01*
X67622212Y-106311224D01*
X67832289Y-106189936D01*
X68024738Y-106042265D01*
X68196265Y-105870738D01*
X68343936Y-105678289D01*
X68465224Y-105468212D01*
X68558054Y-105244100D01*
X68620838Y-105009789D01*
X68652500Y-104769288D01*
X68652500Y-104526712D01*
X68620838Y-104286211D01*
X68558054Y-104051900D01*
X68465224Y-103827788D01*
X68465218Y-103827779D01*
X68465217Y-103827775D01*
X68343938Y-103617714D01*
X68342384Y-103615689D01*
X68196265Y-103425262D01*
X68196259Y-103425256D01*
X68196255Y-103425251D01*
X68024748Y-103253744D01*
X68024742Y-103253739D01*
X68024738Y-103253735D01*
X67832289Y-103106064D01*
X67832288Y-103106063D01*
X67832285Y-103106061D01*
X67622224Y-102984782D01*
X67622216Y-102984778D01*
X67622212Y-102984776D01*
X67398100Y-102891946D01*
X67398097Y-102891945D01*
X67398095Y-102891944D01*
X67163782Y-102829160D01*
X66923290Y-102797500D01*
X66923288Y-102797500D01*
X66680712Y-102797500D01*
X66680709Y-102797500D01*
X66440217Y-102829160D01*
X66205904Y-102891944D01*
X66205900Y-102891946D01*
X66134966Y-102921328D01*
X65981786Y-102984777D01*
X65981775Y-102984782D01*
X65771714Y-103106061D01*
X65579262Y-103253735D01*
X65579251Y-103253744D01*
X65407744Y-103425251D01*
X65407735Y-103425262D01*
X65260061Y-103617714D01*
X65138782Y-103827775D01*
X65138777Y-103827786D01*
X65138776Y-103827788D01*
X65114664Y-103886000D01*
X65045946Y-104051900D01*
X65045944Y-104051904D01*
X64983160Y-104286217D01*
X64951500Y-104526709D01*
X55602033Y-104526709D01*
X55609779Y-104515646D01*
X55702547Y-104316703D01*
X55759361Y-104104674D01*
X55778492Y-103886000D01*
X55759361Y-103667326D01*
X55702547Y-103455297D01*
X55609779Y-103256354D01*
X55483874Y-103076543D01*
X55328657Y-102921326D01*
X55308629Y-102907302D01*
X55148844Y-102795419D01*
X55008968Y-102730195D01*
X54955682Y-102683278D01*
X54936221Y-102615001D01*
X54956763Y-102547041D01*
X55008968Y-102501805D01*
X55148844Y-102436580D01*
X55148844Y-102436579D01*
X55148846Y-102436579D01*
X55328657Y-102310674D01*
X55483874Y-102155457D01*
X55609779Y-101975646D01*
X55702547Y-101776703D01*
X55759361Y-101564674D01*
X55778492Y-101346000D01*
X55759361Y-101127326D01*
X55702547Y-100915297D01*
X55609779Y-100716354D01*
X55483874Y-100536543D01*
X55328657Y-100381326D01*
X55317626Y-100373602D01*
X55148844Y-100255419D01*
X55008968Y-100190195D01*
X54955682Y-100143278D01*
X54936221Y-100075001D01*
X54956763Y-100007041D01*
X55008968Y-99961805D01*
X55148844Y-99896580D01*
X55148844Y-99896579D01*
X55148846Y-99896579D01*
X55328657Y-99770674D01*
X55483874Y-99615457D01*
X55609779Y-99435646D01*
X55702547Y-99236703D01*
X55759361Y-99024674D01*
X55778492Y-98806000D01*
X55766156Y-98665000D01*
X78006537Y-98665000D01*
X78025160Y-98901632D01*
X78080571Y-99132437D01*
X78171406Y-99351733D01*
X78286097Y-99538891D01*
X78998299Y-98826689D01*
X79011341Y-98875362D01*
X79083091Y-98999638D01*
X79184562Y-99101109D01*
X79308838Y-99172859D01*
X79357509Y-99185900D01*
X78645306Y-99898102D01*
X78647921Y-99920189D01*
X78647921Y-99949807D01*
X78645306Y-99971897D01*
X79357508Y-100684099D01*
X79308838Y-100697141D01*
X79184562Y-100768891D01*
X79083091Y-100870362D01*
X79011341Y-100994638D01*
X78998299Y-101043308D01*
X78286098Y-100331107D01*
X78286096Y-100331107D01*
X78171408Y-100518262D01*
X78080571Y-100737562D01*
X78025160Y-100968367D01*
X78006537Y-101205000D01*
X78025160Y-101441632D01*
X78080571Y-101672437D01*
X78171406Y-101891733D01*
X78286097Y-102078891D01*
X78998299Y-101366689D01*
X79011341Y-101415362D01*
X79083091Y-101539638D01*
X79184562Y-101641109D01*
X79308838Y-101712859D01*
X79357509Y-101725900D01*
X78645307Y-102438101D01*
X78776449Y-102518465D01*
X78824080Y-102571113D01*
X78835687Y-102641154D01*
X78807584Y-102706352D01*
X78782885Y-102729111D01*
X78709746Y-102780323D01*
X78709740Y-102780328D01*
X78554528Y-102935540D01*
X78554523Y-102935546D01*
X78428621Y-103115353D01*
X78335854Y-103314293D01*
X78335852Y-103314299D01*
X78297867Y-103456059D01*
X78279039Y-103526326D01*
X78259908Y-103745000D01*
X78279039Y-103963674D01*
X78288340Y-103998386D01*
X78335852Y-104175700D01*
X78335854Y-104175706D01*
X78428621Y-104374646D01*
X78535103Y-104526719D01*
X78554526Y-104554457D01*
X78709743Y-104709674D01*
X78889554Y-104835579D01*
X79088497Y-104928347D01*
X79300526Y-104985161D01*
X79519200Y-105004292D01*
X79737874Y-104985161D01*
X79949903Y-104928347D01*
X80148846Y-104835579D01*
X80328657Y-104709674D01*
X80483874Y-104554457D01*
X80609779Y-104374646D01*
X80702547Y-104175703D01*
X80759361Y-103963674D01*
X80778492Y-103745000D01*
X80759361Y-103526326D01*
X80702547Y-103314297D01*
X80609779Y-103115354D01*
X80483874Y-102935543D01*
X80328657Y-102780326D01*
X80328653Y-102780323D01*
X80328648Y-102780319D01*
X80255515Y-102729111D01*
X80211186Y-102673654D01*
X80203877Y-102603035D01*
X80235907Y-102539675D01*
X80261950Y-102518465D01*
X80393092Y-102438101D01*
X79680891Y-101725900D01*
X79729562Y-101712859D01*
X79853838Y-101641109D01*
X79955309Y-101539638D01*
X80027059Y-101415362D01*
X80040100Y-101366691D01*
X80752301Y-102078892D01*
X80752302Y-102078891D01*
X80866991Y-101891738D01*
X80957828Y-101672437D01*
X81013239Y-101441632D01*
X81031862Y-101205000D01*
X81013239Y-100968367D01*
X80957828Y-100737562D01*
X80866991Y-100518261D01*
X80752302Y-100331107D01*
X80752301Y-100331107D01*
X80040100Y-101043308D01*
X80027059Y-100994638D01*
X79955309Y-100870362D01*
X79853838Y-100768891D01*
X79729562Y-100697141D01*
X79680890Y-100684099D01*
X80393091Y-99971897D01*
X80390477Y-99949808D01*
X80390477Y-99920187D01*
X80393091Y-99898100D01*
X79680891Y-99185900D01*
X79729562Y-99172859D01*
X79853838Y-99101109D01*
X79955309Y-98999638D01*
X80027059Y-98875362D01*
X80040100Y-98826691D01*
X80752301Y-99538892D01*
X80752302Y-99538891D01*
X80866991Y-99351738D01*
X80882624Y-99313996D01*
X96582398Y-99313996D01*
X96582398Y-99314003D01*
X96602756Y-99520711D01*
X96602757Y-99520717D01*
X96602758Y-99520718D01*
X96651391Y-99681040D01*
X96663055Y-99719492D01*
X96760974Y-99902686D01*
X96892747Y-100063252D01*
X97053313Y-100195024D01*
X97053313Y-100195025D01*
X97053317Y-100195027D01*
X97236508Y-100292945D01*
X97435282Y-100353242D01*
X97435286Y-100353242D01*
X97435288Y-100353243D01*
X97641997Y-100373602D01*
X97642000Y-100373602D01*
X97642003Y-100373602D01*
X97848711Y-100353243D01*
X97848712Y-100353242D01*
X97848718Y-100353242D01*
X98047492Y-100292945D01*
X98230683Y-100195027D01*
X98230684Y-100195025D01*
X98230686Y-100195025D01*
X98230686Y-100195024D01*
X98391252Y-100063252D01*
X98523027Y-99902683D01*
X98620945Y-99719492D01*
X98681242Y-99520718D01*
X98683173Y-99501118D01*
X98701602Y-99314003D01*
X98701602Y-99313996D01*
X99884398Y-99313996D01*
X99884398Y-99314003D01*
X99904756Y-99520711D01*
X99904757Y-99520717D01*
X99904758Y-99520718D01*
X99953391Y-99681040D01*
X99965055Y-99719492D01*
X100062974Y-99902686D01*
X100194747Y-100063252D01*
X100355313Y-100195024D01*
X100355313Y-100195025D01*
X100355317Y-100195027D01*
X100538508Y-100292945D01*
X100737282Y-100353242D01*
X100737286Y-100353242D01*
X100737288Y-100353243D01*
X100943997Y-100373602D01*
X100944000Y-100373602D01*
X100944003Y-100373602D01*
X101150711Y-100353243D01*
X101150712Y-100353242D01*
X101150718Y-100353242D01*
X101349492Y-100292945D01*
X101532683Y-100195027D01*
X101532684Y-100195025D01*
X101532686Y-100195025D01*
X101532686Y-100195024D01*
X101693252Y-100063252D01*
X101825027Y-99902683D01*
X101922945Y-99719492D01*
X101983242Y-99520718D01*
X101985173Y-99501118D01*
X102003602Y-99314003D01*
X102003602Y-99313996D01*
X101983243Y-99107288D01*
X101983242Y-99107286D01*
X101983242Y-99107282D01*
X101922945Y-98908508D01*
X101825027Y-98725317D01*
X101825025Y-98725313D01*
X101693252Y-98564747D01*
X101532686Y-98432975D01*
X101532686Y-98432974D01*
X101349492Y-98335055D01*
X101334021Y-98330362D01*
X101150718Y-98274758D01*
X101150717Y-98274757D01*
X101150711Y-98274756D01*
X100944003Y-98254398D01*
X100943997Y-98254398D01*
X100737288Y-98274756D01*
X100538507Y-98335055D01*
X100355313Y-98432974D01*
X100355313Y-98432975D01*
X100194747Y-98564747D01*
X100062975Y-98725313D01*
X100062974Y-98725313D01*
X99965055Y-98908507D01*
X99904756Y-99107288D01*
X99884398Y-99313996D01*
X98701602Y-99313996D01*
X98681243Y-99107288D01*
X98681242Y-99107286D01*
X98681242Y-99107282D01*
X98620945Y-98908508D01*
X98523027Y-98725317D01*
X98523025Y-98725313D01*
X98391252Y-98564747D01*
X98230686Y-98432975D01*
X98230686Y-98432974D01*
X98047492Y-98335055D01*
X98032021Y-98330362D01*
X97848718Y-98274758D01*
X97848717Y-98274757D01*
X97848711Y-98274756D01*
X97642003Y-98254398D01*
X97641997Y-98254398D01*
X97435288Y-98274756D01*
X97236507Y-98335055D01*
X97053313Y-98432974D01*
X97053313Y-98432975D01*
X96892747Y-98564747D01*
X96760975Y-98725313D01*
X96760974Y-98725313D01*
X96663055Y-98908507D01*
X96602756Y-99107288D01*
X96582398Y-99313996D01*
X80882624Y-99313996D01*
X80957828Y-99132437D01*
X81013239Y-98901632D01*
X81031862Y-98665000D01*
X81013239Y-98428367D01*
X80957828Y-98197562D01*
X80866991Y-97978261D01*
X80752302Y-97791107D01*
X80752301Y-97791107D01*
X80040100Y-98503308D01*
X80027059Y-98454638D01*
X79955309Y-98330362D01*
X79853838Y-98228891D01*
X79729562Y-98157141D01*
X79680890Y-98144099D01*
X80393091Y-97431897D01*
X80205933Y-97317206D01*
X79986637Y-97226371D01*
X79755832Y-97170960D01*
X79519200Y-97152337D01*
X79282567Y-97170960D01*
X79051762Y-97226371D01*
X78832462Y-97317208D01*
X78645307Y-97431896D01*
X78645307Y-97431898D01*
X79357508Y-98144099D01*
X79308838Y-98157141D01*
X79184562Y-98228891D01*
X79083091Y-98330362D01*
X79011341Y-98454638D01*
X78998299Y-98503308D01*
X78286098Y-97791107D01*
X78286096Y-97791107D01*
X78171408Y-97978262D01*
X78080571Y-98197562D01*
X78025160Y-98428367D01*
X78006537Y-98665000D01*
X55766156Y-98665000D01*
X55759361Y-98587326D01*
X55702547Y-98375297D01*
X55609779Y-98176354D01*
X55483874Y-97996543D01*
X55328657Y-97841326D01*
X55287703Y-97812650D01*
X55148846Y-97715421D01*
X54949906Y-97622654D01*
X54949900Y-97622652D01*
X54860291Y-97598641D01*
X54737874Y-97565839D01*
X54519200Y-97546708D01*
X54300526Y-97565839D01*
X54088499Y-97622652D01*
X54088493Y-97622654D01*
X53889553Y-97715421D01*
X53709746Y-97841323D01*
X53709740Y-97841328D01*
X53554528Y-97996540D01*
X53554523Y-97996546D01*
X53428621Y-98176353D01*
X53335854Y-98375293D01*
X53335852Y-98375299D01*
X53297534Y-98518303D01*
X53279039Y-98587326D01*
X53259908Y-98806000D01*
X41350500Y-98806000D01*
X41350500Y-96265996D01*
X96582398Y-96265996D01*
X96582398Y-96266003D01*
X96602756Y-96472711D01*
X96602757Y-96472717D01*
X96602758Y-96472718D01*
X96616039Y-96516500D01*
X96663055Y-96671492D01*
X96760974Y-96854686D01*
X96892747Y-97015252D01*
X97053313Y-97147024D01*
X97053313Y-97147025D01*
X97063251Y-97152337D01*
X97236508Y-97244945D01*
X97435282Y-97305242D01*
X97435286Y-97305242D01*
X97435288Y-97305243D01*
X97641997Y-97325602D01*
X97642000Y-97325602D01*
X97642003Y-97325602D01*
X97848711Y-97305243D01*
X97848712Y-97305242D01*
X97848718Y-97305242D01*
X98047492Y-97244945D01*
X98230683Y-97147027D01*
X98230684Y-97147025D01*
X98230686Y-97147025D01*
X98230686Y-97147024D01*
X98391252Y-97015252D01*
X98523027Y-96854683D01*
X98620945Y-96671492D01*
X98681242Y-96472718D01*
X98686859Y-96415695D01*
X98701602Y-96266003D01*
X98701602Y-96265996D01*
X98681243Y-96059288D01*
X98681242Y-96059286D01*
X98681242Y-96059282D01*
X98620945Y-95860508D01*
X98523027Y-95677317D01*
X98523025Y-95677313D01*
X98391252Y-95516747D01*
X98230686Y-95384975D01*
X98230686Y-95384974D01*
X98047492Y-95287055D01*
X97848711Y-95226756D01*
X97642003Y-95206398D01*
X97641997Y-95206398D01*
X97435288Y-95226756D01*
X97236507Y-95287055D01*
X97053313Y-95384974D01*
X97053313Y-95384975D01*
X96892747Y-95516747D01*
X96760975Y-95677313D01*
X96760974Y-95677313D01*
X96663055Y-95860507D01*
X96602756Y-96059288D01*
X96582398Y-96265996D01*
X41350500Y-96265996D01*
X41350500Y-92201296D01*
X90061912Y-92201296D01*
X90061912Y-92201297D01*
X90111692Y-92236154D01*
X90111697Y-92236157D01*
X90303254Y-92325480D01*
X90303264Y-92325484D01*
X90507432Y-92380191D01*
X90718000Y-92398613D01*
X90928567Y-92380191D01*
X91132735Y-92325484D01*
X91132745Y-92325480D01*
X91324304Y-92236156D01*
X91324305Y-92236155D01*
X91374087Y-92201297D01*
X91374087Y-92201296D01*
X90718001Y-91545210D01*
X90718000Y-91545210D01*
X90061912Y-92201296D01*
X41350500Y-92201296D01*
X41350500Y-91186000D01*
X89505386Y-91186000D01*
X89523808Y-91396567D01*
X89578515Y-91600735D01*
X89578519Y-91600745D01*
X89667842Y-91792302D01*
X89667844Y-91792305D01*
X89702702Y-91842086D01*
X90358790Y-91185999D01*
X90312713Y-91139922D01*
X90368000Y-91139922D01*
X90368000Y-91232078D01*
X90391852Y-91321095D01*
X90437930Y-91400905D01*
X90503095Y-91466070D01*
X90582905Y-91512148D01*
X90671922Y-91536000D01*
X90764078Y-91536000D01*
X90853095Y-91512148D01*
X90932905Y-91466070D01*
X90998070Y-91400905D01*
X91044148Y-91321095D01*
X91068000Y-91232078D01*
X91068000Y-91185999D01*
X91077210Y-91185999D01*
X91077210Y-91186001D01*
X91733296Y-91842087D01*
X91733297Y-91842087D01*
X91768155Y-91792305D01*
X91768156Y-91792304D01*
X91857480Y-91600745D01*
X91857484Y-91600735D01*
X91912191Y-91396567D01*
X91930613Y-91186000D01*
X91930613Y-91185996D01*
X92258882Y-91185996D01*
X92258882Y-91186003D01*
X92277309Y-91373107D01*
X92277311Y-91373118D01*
X92331890Y-91553038D01*
X92331891Y-91553040D01*
X92409107Y-91697500D01*
X92420523Y-91718857D01*
X92539801Y-91864199D01*
X92685143Y-91983477D01*
X92685145Y-91983478D01*
X92850959Y-92072108D01*
X92850961Y-92072109D01*
X93030881Y-92126688D01*
X93030882Y-92126688D01*
X93030885Y-92126689D01*
X93030888Y-92126689D01*
X93030892Y-92126690D01*
X93217997Y-92145118D01*
X93218000Y-92145118D01*
X93218003Y-92145118D01*
X93405107Y-92126690D01*
X93405109Y-92126689D01*
X93405115Y-92126689D01*
X93585039Y-92072109D01*
X93750857Y-91983477D01*
X93896199Y-91864199D01*
X94015477Y-91718857D01*
X94104109Y-91553039D01*
X94158689Y-91373115D01*
X94158690Y-91373107D01*
X94177118Y-91186003D01*
X94177118Y-91185996D01*
X94158690Y-90998892D01*
X94158688Y-90998881D01*
X94104109Y-90818961D01*
X94104108Y-90818959D01*
X94015478Y-90653145D01*
X94015477Y-90653143D01*
X93896199Y-90507801D01*
X93750857Y-90388523D01*
X93750855Y-90388522D01*
X93750854Y-90388521D01*
X93585040Y-90299891D01*
X93585038Y-90299890D01*
X93405118Y-90245311D01*
X93405107Y-90245309D01*
X93218003Y-90226882D01*
X93217997Y-90226882D01*
X93030892Y-90245309D01*
X93030881Y-90245311D01*
X92850961Y-90299890D01*
X92850959Y-90299891D01*
X92685145Y-90388521D01*
X92539801Y-90507801D01*
X92420521Y-90653145D01*
X92331891Y-90818959D01*
X92331890Y-90818961D01*
X92277311Y-90998881D01*
X92277309Y-90998892D01*
X92258882Y-91185996D01*
X91930613Y-91185996D01*
X91912191Y-90975432D01*
X91857484Y-90771264D01*
X91857480Y-90771254D01*
X91768157Y-90579697D01*
X91768154Y-90579692D01*
X91733297Y-90529912D01*
X91733296Y-90529912D01*
X91077210Y-91185999D01*
X91068000Y-91185999D01*
X91068000Y-91139922D01*
X91044148Y-91050905D01*
X90998070Y-90971095D01*
X90932905Y-90905930D01*
X90853095Y-90859852D01*
X90764078Y-90836000D01*
X90671922Y-90836000D01*
X90582905Y-90859852D01*
X90503095Y-90905930D01*
X90437930Y-90971095D01*
X90391852Y-91050905D01*
X90368000Y-91139922D01*
X90312713Y-91139922D01*
X89702703Y-90529912D01*
X89702701Y-90529912D01*
X89667846Y-90579690D01*
X89578517Y-90771258D01*
X89578515Y-90771264D01*
X89523808Y-90975432D01*
X89505386Y-91186000D01*
X41350500Y-91186000D01*
X41350500Y-90170701D01*
X90061912Y-90170701D01*
X90061912Y-90170703D01*
X90717999Y-90826790D01*
X90718000Y-90826790D01*
X91374086Y-90170702D01*
X91374086Y-90170701D01*
X91324305Y-90135844D01*
X91324302Y-90135842D01*
X91132745Y-90046519D01*
X91132735Y-90046515D01*
X90928567Y-89991808D01*
X90718000Y-89973386D01*
X90507432Y-89991808D01*
X90303264Y-90046515D01*
X90303258Y-90046517D01*
X90111690Y-90135846D01*
X90061912Y-90170701D01*
X41350500Y-90170701D01*
X41350500Y-86105996D01*
X96582398Y-86105996D01*
X96582398Y-86106003D01*
X96602756Y-86312711D01*
X96602757Y-86312717D01*
X96602758Y-86312718D01*
X96616299Y-86357357D01*
X96663055Y-86511492D01*
X96760974Y-86694686D01*
X96892747Y-86855252D01*
X97053313Y-86987024D01*
X97053313Y-86987025D01*
X97053317Y-86987027D01*
X97236508Y-87084945D01*
X97435282Y-87145242D01*
X97435286Y-87145242D01*
X97435288Y-87145243D01*
X97641997Y-87165602D01*
X97642000Y-87165602D01*
X97642003Y-87165602D01*
X97848711Y-87145243D01*
X97848712Y-87145242D01*
X97848718Y-87145242D01*
X98047492Y-87084945D01*
X98230683Y-86987027D01*
X98230684Y-86987025D01*
X98230686Y-86987025D01*
X98230686Y-86987024D01*
X98391252Y-86855252D01*
X98523027Y-86694683D01*
X98572378Y-86602353D01*
X98622130Y-86551706D01*
X98691367Y-86535996D01*
X98758106Y-86560212D01*
X98801158Y-86616666D01*
X98809500Y-86661750D01*
X98809500Y-90490417D01*
X98809499Y-90490417D01*
X98843880Y-90618728D01*
X98843882Y-90618733D01*
X98856216Y-90640095D01*
X98863750Y-90653143D01*
X98910299Y-90733770D01*
X98910302Y-90733773D01*
X98910305Y-90733777D01*
X100402595Y-92226066D01*
X100436620Y-92288378D01*
X100439500Y-92315161D01*
X100439500Y-95264454D01*
X100419498Y-95332575D01*
X100372899Y-95375574D01*
X100355318Y-95384971D01*
X100355313Y-95384975D01*
X100194747Y-95516747D01*
X100062975Y-95677313D01*
X100062974Y-95677313D01*
X99965055Y-95860507D01*
X99904756Y-96059288D01*
X99884398Y-96265996D01*
X99884398Y-96266003D01*
X99904756Y-96472711D01*
X99904757Y-96472717D01*
X99904758Y-96472718D01*
X99918039Y-96516500D01*
X99965055Y-96671492D01*
X100062974Y-96854686D01*
X100194747Y-97015252D01*
X100355313Y-97147024D01*
X100355313Y-97147025D01*
X100365251Y-97152337D01*
X100538508Y-97244945D01*
X100737282Y-97305242D01*
X100737286Y-97305242D01*
X100737288Y-97305243D01*
X100943997Y-97325602D01*
X100944000Y-97325602D01*
X100944003Y-97325602D01*
X101150711Y-97305243D01*
X101150712Y-97305242D01*
X101150718Y-97305242D01*
X101349492Y-97244945D01*
X101532683Y-97147027D01*
X101532684Y-97147025D01*
X101532686Y-97147025D01*
X101532686Y-97147024D01*
X101693252Y-97015252D01*
X101825027Y-96854683D01*
X101922945Y-96671492D01*
X101983242Y-96472718D01*
X101988859Y-96415695D01*
X102003602Y-96266003D01*
X102003602Y-96265996D01*
X101983243Y-96059288D01*
X101983242Y-96059286D01*
X101983242Y-96059282D01*
X101922945Y-95860508D01*
X101825027Y-95677317D01*
X101825025Y-95677313D01*
X101693252Y-95516747D01*
X101532686Y-95384975D01*
X101532681Y-95384971D01*
X101515101Y-95375574D01*
X101464454Y-95325820D01*
X101448500Y-95264454D01*
X101448500Y-91987582D01*
X101448500Y-91987581D01*
X101414119Y-91859270D01*
X101395199Y-91826500D01*
X101395198Y-91826498D01*
X101395198Y-91826497D01*
X101347703Y-91744233D01*
X101347695Y-91744223D01*
X99855405Y-90251933D01*
X99821379Y-90189621D01*
X99818500Y-90162838D01*
X99818500Y-89839220D01*
X105421500Y-89839220D01*
X105421500Y-89992779D01*
X105451456Y-90143378D01*
X105510213Y-90285227D01*
X105510215Y-90285231D01*
X105595522Y-90412901D01*
X105595527Y-90412907D01*
X105644525Y-90461905D01*
X105678551Y-90524217D01*
X105673486Y-90595032D01*
X105644525Y-90640095D01*
X105595527Y-90689092D01*
X105595522Y-90689098D01*
X105510215Y-90816768D01*
X105510213Y-90816772D01*
X105451456Y-90958621D01*
X105421500Y-91109220D01*
X105421500Y-91262779D01*
X105451456Y-91413378D01*
X105510213Y-91555227D01*
X105510214Y-91555229D01*
X105523575Y-91575225D01*
X105544789Y-91642978D01*
X105526005Y-91711445D01*
X105500464Y-91737915D01*
X105501290Y-91738741D01*
X105492516Y-91747514D01*
X105436266Y-91831697D01*
X105421500Y-91905930D01*
X105421500Y-93006063D01*
X105421501Y-93006073D01*
X105436265Y-93080300D01*
X105492516Y-93164484D01*
X105576697Y-93220733D01*
X105576699Y-93220734D01*
X105650933Y-93235500D01*
X107201066Y-93235499D01*
X107201069Y-93235498D01*
X107201073Y-93235498D01*
X107259031Y-93223970D01*
X107275301Y-93220734D01*
X107359484Y-93164484D01*
X107415734Y-93080301D01*
X107430500Y-93006067D01*
X107430499Y-91905934D01*
X107430498Y-91905930D01*
X107430498Y-91905926D01*
X107415734Y-91831699D01*
X107359482Y-91747513D01*
X107350710Y-91738741D01*
X107352385Y-91737065D01*
X107317660Y-91695514D01*
X107308812Y-91625071D01*
X107328424Y-91575225D01*
X107341784Y-91555232D01*
X107400545Y-91413372D01*
X107430500Y-91262774D01*
X107430500Y-91109226D01*
X107400545Y-90958628D01*
X107400543Y-90958625D01*
X107400543Y-90958621D01*
X107341786Y-90816772D01*
X107341784Y-90816768D01*
X107256477Y-90689098D01*
X107256472Y-90689092D01*
X107207475Y-90640095D01*
X107173449Y-90577783D01*
X107178514Y-90506968D01*
X107207475Y-90461905D01*
X107256472Y-90412907D01*
X107256477Y-90412902D01*
X107341784Y-90285232D01*
X107365954Y-90226881D01*
X107400543Y-90143378D01*
X107400543Y-90143375D01*
X107400545Y-90143372D01*
X107430500Y-89992774D01*
X107430500Y-89839226D01*
X107400545Y-89688628D01*
X107400543Y-89688625D01*
X107400543Y-89688621D01*
X107341786Y-89546772D01*
X107341784Y-89546768D01*
X107256477Y-89419098D01*
X107256472Y-89419092D01*
X107147907Y-89310527D01*
X107147901Y-89310522D01*
X107020231Y-89225215D01*
X107020227Y-89225213D01*
X106878378Y-89166456D01*
X106727779Y-89136500D01*
X106727774Y-89136500D01*
X106124226Y-89136500D01*
X106124220Y-89136500D01*
X105973621Y-89166456D01*
X105831772Y-89225213D01*
X105831768Y-89225215D01*
X105704098Y-89310522D01*
X105704092Y-89310527D01*
X105595527Y-89419092D01*
X105595522Y-89419098D01*
X105510215Y-89546768D01*
X105510213Y-89546772D01*
X105451456Y-89688621D01*
X105421500Y-89839220D01*
X99818500Y-89839220D01*
X99818500Y-87134481D01*
X99838502Y-87066360D01*
X99892158Y-87019867D01*
X99962432Y-87009763D01*
X100027012Y-87039257D01*
X100033595Y-87045386D01*
X100100019Y-87111810D01*
X100100025Y-87111815D01*
X100287501Y-87243087D01*
X100494926Y-87339811D01*
X100494931Y-87339813D01*
X100690000Y-87392081D01*
X100690000Y-86417686D01*
X100698394Y-86426080D01*
X100789606Y-86478741D01*
X100891339Y-86506000D01*
X100996661Y-86506000D01*
X101098394Y-86478741D01*
X101189606Y-86426080D01*
X101198000Y-86417686D01*
X101198000Y-87392081D01*
X101393068Y-87339813D01*
X101393073Y-87339811D01*
X101600498Y-87243087D01*
X101787974Y-87111815D01*
X101787980Y-87111810D01*
X101949810Y-86949980D01*
X101949815Y-86949974D01*
X102081087Y-86762498D01*
X102177811Y-86555073D01*
X102177813Y-86555068D01*
X102230082Y-86360000D01*
X101255686Y-86360000D01*
X101264080Y-86351606D01*
X101316741Y-86260394D01*
X101344000Y-86158661D01*
X101344000Y-86053339D01*
X101316741Y-85951606D01*
X101264080Y-85860394D01*
X101255686Y-85852000D01*
X102230082Y-85852000D01*
X102177813Y-85656931D01*
X102177811Y-85656926D01*
X102081087Y-85449501D01*
X101949815Y-85262025D01*
X101949810Y-85262019D01*
X101787980Y-85100189D01*
X101787974Y-85100184D01*
X101600498Y-84968912D01*
X101393073Y-84872188D01*
X101393071Y-84872187D01*
X101198000Y-84819917D01*
X101198000Y-85794314D01*
X101189606Y-85785920D01*
X101098394Y-85733259D01*
X100996661Y-85706000D01*
X100891339Y-85706000D01*
X100789606Y-85733259D01*
X100698394Y-85785920D01*
X100690000Y-85794314D01*
X100690000Y-84819917D01*
X100689999Y-84819917D01*
X100494928Y-84872187D01*
X100494926Y-84872188D01*
X100287501Y-84968912D01*
X100100025Y-85100184D01*
X100033595Y-85166614D01*
X99971282Y-85200639D01*
X99900467Y-85195573D01*
X99843631Y-85153026D01*
X99818821Y-85086506D01*
X99818500Y-85077518D01*
X99818500Y-83059639D01*
X99838502Y-82991518D01*
X99892158Y-82945025D01*
X99957972Y-82934361D01*
X100010407Y-82939999D01*
X100010415Y-82940000D01*
X100330000Y-82940000D01*
X100330000Y-81958330D01*
X100353745Y-81982075D01*
X100439255Y-82031444D01*
X100534630Y-82057000D01*
X100633370Y-82057000D01*
X100728745Y-82031444D01*
X100814255Y-81982075D01*
X100838000Y-81958330D01*
X100838000Y-82940000D01*
X101157585Y-82940000D01*
X101157597Y-82939999D01*
X101218093Y-82933494D01*
X101354964Y-82882444D01*
X101354965Y-82882444D01*
X101471904Y-82794904D01*
X101509636Y-82744500D01*
X108821500Y-82744500D01*
X108821500Y-83371500D01*
X108846872Y-83531689D01*
X108849190Y-83546326D01*
X108903883Y-83714654D01*
X108903884Y-83714657D01*
X108903885Y-83714658D01*
X108938964Y-83783504D01*
X108984243Y-83872368D01*
X109017778Y-83918524D01*
X109088280Y-84015562D01*
X109088282Y-84015564D01*
X109088284Y-84015567D01*
X109213432Y-84140715D01*
X109213435Y-84140717D01*
X109213438Y-84140720D01*
X109356634Y-84244758D01*
X109514342Y-84325115D01*
X109682679Y-84379811D01*
X109857500Y-84407500D01*
X109857503Y-84407500D01*
X110034497Y-84407500D01*
X110034500Y-84407500D01*
X110209321Y-84379811D01*
X110377658Y-84325115D01*
X110535366Y-84244758D01*
X110678562Y-84140720D01*
X110803720Y-84015562D01*
X110907758Y-83872366D01*
X110988115Y-83714658D01*
X111042811Y-83546321D01*
X111070500Y-83371500D01*
X111070500Y-82744500D01*
X111042811Y-82569679D01*
X110988115Y-82401342D01*
X110907758Y-82243634D01*
X110850436Y-82164737D01*
X111361500Y-82164737D01*
X111361500Y-83951246D01*
X111361502Y-83951270D01*
X111367959Y-84011339D01*
X111367959Y-84011341D01*
X111418657Y-84147266D01*
X111418658Y-84147267D01*
X111505596Y-84263404D01*
X111621733Y-84350342D01*
X111757658Y-84401040D01*
X111817745Y-84407500D01*
X113154254Y-84407499D01*
X113214342Y-84401040D01*
X113350267Y-84350342D01*
X113466404Y-84263404D01*
X113553342Y-84147267D01*
X113604040Y-84011342D01*
X113610500Y-83951255D01*
X113610499Y-82744500D01*
X115951500Y-82744500D01*
X115951500Y-83371500D01*
X115976872Y-83531689D01*
X115979190Y-83546326D01*
X116033883Y-83714654D01*
X116033884Y-83714657D01*
X116033885Y-83714658D01*
X116068964Y-83783504D01*
X116114243Y-83872368D01*
X116147778Y-83918524D01*
X116218280Y-84015562D01*
X116218282Y-84015564D01*
X116218284Y-84015567D01*
X116343432Y-84140715D01*
X116343435Y-84140717D01*
X116343438Y-84140720D01*
X116486634Y-84244758D01*
X116644342Y-84325115D01*
X116812679Y-84379811D01*
X116987500Y-84407500D01*
X116987503Y-84407500D01*
X117164497Y-84407500D01*
X117164500Y-84407500D01*
X117339321Y-84379811D01*
X117507658Y-84325115D01*
X117665366Y-84244758D01*
X117808562Y-84140720D01*
X117933720Y-84015562D01*
X118037758Y-83872366D01*
X118118115Y-83714658D01*
X118172811Y-83546321D01*
X118200500Y-83371500D01*
X118200500Y-82744500D01*
X118172811Y-82569679D01*
X118118115Y-82401342D01*
X118037758Y-82243634D01*
X117933720Y-82100438D01*
X117933717Y-82100435D01*
X117933715Y-82100432D01*
X117808567Y-81975284D01*
X117808564Y-81975282D01*
X117808562Y-81975280D01*
X117694843Y-81892658D01*
X117665368Y-81871243D01*
X117507654Y-81790883D01*
X117339326Y-81736190D01*
X117339322Y-81736189D01*
X117339321Y-81736189D01*
X117164500Y-81708500D01*
X116987500Y-81708500D01*
X116812679Y-81736189D01*
X116812673Y-81736190D01*
X116644345Y-81790883D01*
X116486631Y-81871243D01*
X116343435Y-81975282D01*
X116343432Y-81975284D01*
X116218284Y-82100432D01*
X116218282Y-82100435D01*
X116114243Y-82243631D01*
X116033883Y-82401345D01*
X115979190Y-82569673D01*
X115979189Y-82569678D01*
X115979189Y-82569679D01*
X115951500Y-82744500D01*
X113610499Y-82744500D01*
X113610499Y-82164746D01*
X113604040Y-82104658D01*
X113553342Y-81968733D01*
X113466404Y-81852596D01*
X113350267Y-81765658D01*
X113350265Y-81765657D01*
X113350266Y-81765657D01*
X113214349Y-81714962D01*
X113214344Y-81714960D01*
X113214342Y-81714960D01*
X113206157Y-81714080D01*
X113154262Y-81708500D01*
X113154255Y-81708500D01*
X113152500Y-81708500D01*
X113152109Y-81708385D01*
X113150890Y-81708320D01*
X113150899Y-81708139D01*
X113150900Y-81708126D01*
X113150905Y-81708031D01*
X113084379Y-81688498D01*
X113037886Y-81634842D01*
X113026500Y-81582500D01*
X113026500Y-80271161D01*
X113046502Y-80203040D01*
X113063405Y-80182066D01*
X113456066Y-79789405D01*
X113518378Y-79755379D01*
X113545161Y-79752500D01*
X119381839Y-79752500D01*
X119449960Y-79772502D01*
X119496453Y-79826158D01*
X119506557Y-79896432D01*
X119477063Y-79961012D01*
X119470947Y-79967581D01*
X119394625Y-80043904D01*
X119212301Y-80226227D01*
X119212298Y-80226231D01*
X119201607Y-80244748D01*
X119190918Y-80263265D01*
X119190917Y-80263266D01*
X119190916Y-80263267D01*
X119145883Y-80341265D01*
X119145881Y-80341270D01*
X119111589Y-80469251D01*
X119111500Y-80469582D01*
X119111500Y-81582500D01*
X119091498Y-81650621D01*
X119037842Y-81697114D01*
X118985503Y-81708500D01*
X118947754Y-81708500D01*
X118947729Y-81708502D01*
X118887660Y-81714959D01*
X118887658Y-81714959D01*
X118751733Y-81765657D01*
X118635596Y-81852596D01*
X118548657Y-81968734D01*
X118497962Y-82104650D01*
X118497960Y-82104658D01*
X118491500Y-82164737D01*
X118491500Y-83951246D01*
X118491502Y-83951270D01*
X118497959Y-84011339D01*
X118497959Y-84011341D01*
X118548657Y-84147266D01*
X118548658Y-84147267D01*
X118635596Y-84263404D01*
X118751733Y-84350342D01*
X118887658Y-84401040D01*
X118947745Y-84407500D01*
X120284254Y-84407499D01*
X120344342Y-84401040D01*
X120480267Y-84350342D01*
X120596404Y-84263404D01*
X120683342Y-84147267D01*
X120734040Y-84011342D01*
X120740500Y-83951255D01*
X120740499Y-82744500D01*
X123081500Y-82744500D01*
X123081500Y-83371500D01*
X123106872Y-83531689D01*
X123109190Y-83546326D01*
X123163883Y-83714654D01*
X123163884Y-83714657D01*
X123163885Y-83714658D01*
X123198964Y-83783504D01*
X123244243Y-83872368D01*
X123277778Y-83918524D01*
X123348280Y-84015562D01*
X123348282Y-84015564D01*
X123348284Y-84015567D01*
X123473432Y-84140715D01*
X123473435Y-84140717D01*
X123473438Y-84140720D01*
X123616634Y-84244758D01*
X123774342Y-84325115D01*
X123942679Y-84379811D01*
X124117500Y-84407500D01*
X124117503Y-84407500D01*
X124294497Y-84407500D01*
X124294500Y-84407500D01*
X124469321Y-84379811D01*
X124637658Y-84325115D01*
X124795366Y-84244758D01*
X124938562Y-84140720D01*
X125063720Y-84015562D01*
X125167758Y-83872366D01*
X125248115Y-83714658D01*
X125302811Y-83546321D01*
X125330500Y-83371500D01*
X125330500Y-82744500D01*
X125302811Y-82569679D01*
X125248115Y-82401342D01*
X125167758Y-82243634D01*
X125063720Y-82100438D01*
X125063717Y-82100435D01*
X125063715Y-82100432D01*
X124938567Y-81975284D01*
X124938564Y-81975282D01*
X124938562Y-81975280D01*
X124824843Y-81892658D01*
X124795368Y-81871243D01*
X124637654Y-81790883D01*
X124469326Y-81736190D01*
X124469322Y-81736189D01*
X124469321Y-81736189D01*
X124294500Y-81708500D01*
X124117500Y-81708500D01*
X123942679Y-81736189D01*
X123942673Y-81736190D01*
X123774345Y-81790883D01*
X123616631Y-81871243D01*
X123473435Y-81975282D01*
X123473432Y-81975284D01*
X123348284Y-82100432D01*
X123348282Y-82100435D01*
X123244243Y-82243631D01*
X123163883Y-82401345D01*
X123109190Y-82569673D01*
X123109189Y-82569678D01*
X123109189Y-82569679D01*
X123081500Y-82744500D01*
X120740499Y-82744500D01*
X120740499Y-82164746D01*
X120734040Y-82104658D01*
X120683342Y-81968733D01*
X120596404Y-81852596D01*
X120480267Y-81765658D01*
X120480265Y-81765657D01*
X120480266Y-81765657D01*
X120344349Y-81714962D01*
X120344344Y-81714960D01*
X120344342Y-81714960D01*
X120336157Y-81714080D01*
X120284262Y-81708500D01*
X120284255Y-81708500D01*
X120246500Y-81708500D01*
X120178379Y-81688498D01*
X120131886Y-81634842D01*
X120120500Y-81582500D01*
X120120500Y-80797161D01*
X120140502Y-80729040D01*
X120157405Y-80708066D01*
X121076066Y-79789405D01*
X121138378Y-79755379D01*
X121165161Y-79752500D01*
X125468839Y-79752500D01*
X125536960Y-79772502D01*
X125557934Y-79789405D01*
X126204595Y-80436066D01*
X126238621Y-80498378D01*
X126241500Y-80525161D01*
X126241500Y-81582500D01*
X126221498Y-81650621D01*
X126167842Y-81697114D01*
X126115503Y-81708500D01*
X126077754Y-81708500D01*
X126077729Y-81708502D01*
X126017660Y-81714959D01*
X126017658Y-81714959D01*
X125881733Y-81765657D01*
X125765596Y-81852596D01*
X125678657Y-81968734D01*
X125627962Y-82104650D01*
X125627960Y-82104658D01*
X125621500Y-82164737D01*
X125621500Y-83951246D01*
X125621502Y-83951270D01*
X125627959Y-84011339D01*
X125627959Y-84011341D01*
X125678657Y-84147266D01*
X125678658Y-84147267D01*
X125765596Y-84263404D01*
X125881733Y-84350342D01*
X126017658Y-84401040D01*
X126077745Y-84407500D01*
X127414254Y-84407499D01*
X127474342Y-84401040D01*
X127610267Y-84350342D01*
X127726404Y-84263404D01*
X127813342Y-84147267D01*
X127864040Y-84011342D01*
X127870500Y-83951255D01*
X127870499Y-82719552D01*
X135528000Y-82719552D01*
X135528000Y-82804000D01*
X136359827Y-82804000D01*
X136346889Y-82826409D01*
X136306000Y-82979009D01*
X136306000Y-83136991D01*
X136346889Y-83289591D01*
X136359827Y-83312000D01*
X135528000Y-83312000D01*
X135528000Y-83396447D01*
X135561932Y-83610687D01*
X135628955Y-83816963D01*
X135628958Y-83816969D01*
X135727430Y-84010231D01*
X135854920Y-84185708D01*
X136008291Y-84339079D01*
X136183768Y-84466569D01*
X136377030Y-84565041D01*
X136377036Y-84565044D01*
X136583314Y-84632067D01*
X136583312Y-84632067D01*
X136652000Y-84642946D01*
X136652000Y-83604173D01*
X136674409Y-83617111D01*
X136827009Y-83658000D01*
X136984991Y-83658000D01*
X137137591Y-83617111D01*
X137160000Y-83604173D01*
X137160000Y-84642946D01*
X137228686Y-84632067D01*
X137434963Y-84565044D01*
X137434969Y-84565041D01*
X137628231Y-84466569D01*
X137803708Y-84339079D01*
X137957079Y-84185708D01*
X138084570Y-84010228D01*
X138093947Y-83991827D01*
X138142694Y-83940212D01*
X138211609Y-83923145D01*
X138278811Y-83946045D01*
X138322964Y-84001642D01*
X138325842Y-84010664D01*
X138378657Y-84152266D01*
X138378658Y-84152267D01*
X138465596Y-84268404D01*
X138581733Y-84355342D01*
X138717658Y-84406040D01*
X138777745Y-84412500D01*
X140114254Y-84412499D01*
X140174342Y-84406040D01*
X140310267Y-84355342D01*
X140426404Y-84268404D01*
X140513342Y-84152267D01*
X140564040Y-84016342D01*
X140570500Y-83956255D01*
X140570499Y-82159746D01*
X140570498Y-82159741D01*
X140570497Y-82159729D01*
X140570273Y-82157646D01*
X140564040Y-82099658D01*
X140513342Y-81963733D01*
X140426404Y-81847596D01*
X140310267Y-81760658D01*
X140310265Y-81760657D01*
X140310266Y-81760657D01*
X140174349Y-81709962D01*
X140174344Y-81709960D01*
X140174342Y-81709960D01*
X140144298Y-81706730D01*
X140114256Y-81703500D01*
X138777753Y-81703500D01*
X138777729Y-81703502D01*
X138717660Y-81709959D01*
X138717658Y-81709959D01*
X138581733Y-81760657D01*
X138465596Y-81847596D01*
X138378657Y-81963734D01*
X138325205Y-82107043D01*
X138322989Y-82106216D01*
X138293700Y-82157646D01*
X138230789Y-82190550D01*
X138160075Y-82184218D01*
X138104010Y-82140661D01*
X138093948Y-82124174D01*
X138084571Y-82105771D01*
X137957079Y-81930291D01*
X137803708Y-81776920D01*
X137628231Y-81649430D01*
X137434969Y-81550958D01*
X137434963Y-81550955D01*
X137228681Y-81483930D01*
X137160000Y-81473051D01*
X137160000Y-82511826D01*
X137137591Y-82498889D01*
X136984991Y-82458000D01*
X136827009Y-82458000D01*
X136674409Y-82498889D01*
X136652000Y-82511826D01*
X136652000Y-81473051D01*
X136583318Y-81483930D01*
X136377036Y-81550955D01*
X136377030Y-81550958D01*
X136183768Y-81649430D01*
X136008291Y-81776920D01*
X135854920Y-81930291D01*
X135727430Y-82105768D01*
X135628958Y-82299030D01*
X135628955Y-82299036D01*
X135561932Y-82505312D01*
X135528000Y-82719552D01*
X127870499Y-82719552D01*
X127870499Y-82164746D01*
X127864040Y-82104658D01*
X127813342Y-81968733D01*
X127726404Y-81852596D01*
X127610267Y-81765658D01*
X127610265Y-81765657D01*
X127610266Y-81765657D01*
X127474349Y-81714962D01*
X127474344Y-81714960D01*
X127474342Y-81714960D01*
X127466157Y-81714080D01*
X127414262Y-81708500D01*
X127414255Y-81708500D01*
X127376500Y-81708500D01*
X127308379Y-81688498D01*
X127261886Y-81634842D01*
X127250500Y-81582500D01*
X127250500Y-80197582D01*
X127248359Y-80189592D01*
X127216119Y-80069270D01*
X127173508Y-79995466D01*
X127157418Y-79967596D01*
X127149703Y-79954233D01*
X127149697Y-79954225D01*
X126069546Y-78874074D01*
X148113500Y-78874074D01*
X148113500Y-79297926D01*
X148140697Y-79469638D01*
X148140698Y-79469642D01*
X148152487Y-79505926D01*
X148194420Y-79634981D01*
X148273103Y-79789405D01*
X148273349Y-79789887D01*
X148375536Y-79930535D01*
X148498464Y-80053463D01*
X148520223Y-80069272D01*
X148639116Y-80155653D01*
X148794019Y-80234580D01*
X148959362Y-80288303D01*
X149131074Y-80315500D01*
X149131077Y-80315500D01*
X149304923Y-80315500D01*
X149304926Y-80315500D01*
X149476638Y-80288303D01*
X149641981Y-80234580D01*
X149796884Y-80155653D01*
X149937533Y-80053465D01*
X150060465Y-79930533D01*
X150162653Y-79789884D01*
X150241580Y-79634981D01*
X150295303Y-79469638D01*
X150322500Y-79297926D01*
X150322500Y-78874074D01*
X150613500Y-78874074D01*
X150613500Y-79297926D01*
X150640697Y-79469638D01*
X150640698Y-79469642D01*
X150652487Y-79505926D01*
X150694420Y-79634981D01*
X150773103Y-79789405D01*
X150773349Y-79789887D01*
X150875536Y-79930535D01*
X150998464Y-80053463D01*
X151020223Y-80069272D01*
X151139116Y-80155653D01*
X151294019Y-80234580D01*
X151459362Y-80288303D01*
X151631074Y-80315500D01*
X151631077Y-80315500D01*
X151804923Y-80315500D01*
X151804926Y-80315500D01*
X151976638Y-80288303D01*
X152141981Y-80234580D01*
X152296884Y-80155653D01*
X152437533Y-80053465D01*
X152560465Y-79930533D01*
X152662653Y-79789884D01*
X152741580Y-79634981D01*
X152795303Y-79469638D01*
X152822500Y-79297926D01*
X152822500Y-78874074D01*
X152795303Y-78702362D01*
X152741580Y-78537019D01*
X152662653Y-78382116D01*
X152612258Y-78312753D01*
X152560463Y-78241464D01*
X152437535Y-78118536D01*
X152296887Y-78016349D01*
X152296886Y-78016348D01*
X152296884Y-78016347D01*
X152141981Y-77937420D01*
X152141978Y-77937419D01*
X152141976Y-77937418D01*
X151976642Y-77883698D01*
X151976640Y-77883697D01*
X151976638Y-77883697D01*
X151804926Y-77856500D01*
X151631074Y-77856500D01*
X151459362Y-77883697D01*
X151459360Y-77883697D01*
X151459357Y-77883698D01*
X151294023Y-77937418D01*
X151294017Y-77937421D01*
X151139112Y-78016349D01*
X150998464Y-78118536D01*
X150875536Y-78241464D01*
X150773349Y-78382112D01*
X150694421Y-78537017D01*
X150694418Y-78537023D01*
X150640698Y-78702357D01*
X150640697Y-78702360D01*
X150640697Y-78702362D01*
X150613500Y-78874074D01*
X150322500Y-78874074D01*
X150295303Y-78702362D01*
X150241580Y-78537019D01*
X150162653Y-78382116D01*
X150112258Y-78312753D01*
X150060463Y-78241464D01*
X149937535Y-78118536D01*
X149796887Y-78016349D01*
X149796886Y-78016348D01*
X149796884Y-78016347D01*
X149641981Y-77937420D01*
X149641978Y-77937419D01*
X149641976Y-77937418D01*
X149476642Y-77883698D01*
X149476640Y-77883697D01*
X149476638Y-77883697D01*
X149304926Y-77856500D01*
X149131074Y-77856500D01*
X148959362Y-77883697D01*
X148959360Y-77883697D01*
X148959357Y-77883698D01*
X148794023Y-77937418D01*
X148794017Y-77937421D01*
X148639112Y-78016349D01*
X148498464Y-78118536D01*
X148375536Y-78241464D01*
X148273349Y-78382112D01*
X148194421Y-78537017D01*
X148194418Y-78537023D01*
X148140698Y-78702357D01*
X148140697Y-78702360D01*
X148140697Y-78702362D01*
X148113500Y-78874074D01*
X126069546Y-78874074D01*
X126039776Y-78844304D01*
X126039766Y-78844296D01*
X125966837Y-78802191D01*
X125924732Y-78777882D01*
X125924731Y-78777881D01*
X125924730Y-78777881D01*
X125796419Y-78743500D01*
X120970419Y-78743500D01*
X113217581Y-78743500D01*
X113132040Y-78766420D01*
X113089269Y-78777881D01*
X113047160Y-78802192D01*
X112974231Y-78844297D01*
X112974228Y-78844299D01*
X112118305Y-79700222D01*
X112118298Y-79700232D01*
X112084352Y-79759029D01*
X112051883Y-79815265D01*
X112051880Y-79815272D01*
X112033899Y-79882379D01*
X112017852Y-79942270D01*
X112017500Y-79943582D01*
X112017500Y-81582500D01*
X111997498Y-81650621D01*
X111943842Y-81697114D01*
X111891502Y-81708500D01*
X111817754Y-81708500D01*
X111817729Y-81708502D01*
X111757660Y-81714959D01*
X111757658Y-81714959D01*
X111621733Y-81765657D01*
X111505596Y-81852596D01*
X111418657Y-81968734D01*
X111367962Y-82104650D01*
X111367960Y-82104658D01*
X111361500Y-82164737D01*
X110850436Y-82164737D01*
X110803720Y-82100438D01*
X110803717Y-82100435D01*
X110803715Y-82100432D01*
X110678567Y-81975284D01*
X110678564Y-81975282D01*
X110678562Y-81975280D01*
X110564843Y-81892658D01*
X110535368Y-81871243D01*
X110377654Y-81790883D01*
X110209326Y-81736190D01*
X110209322Y-81736189D01*
X110209321Y-81736189D01*
X110034500Y-81708500D01*
X109857500Y-81708500D01*
X109682679Y-81736189D01*
X109682673Y-81736190D01*
X109514345Y-81790883D01*
X109356631Y-81871243D01*
X109213435Y-81975282D01*
X109213432Y-81975284D01*
X109088284Y-82100432D01*
X109088282Y-82100435D01*
X108984243Y-82243631D01*
X108903883Y-82401345D01*
X108849190Y-82569673D01*
X108849189Y-82569678D01*
X108849189Y-82569679D01*
X108821500Y-82744500D01*
X101509636Y-82744500D01*
X101559444Y-82677965D01*
X101559444Y-82677964D01*
X101610494Y-82541093D01*
X101616999Y-82480597D01*
X101617000Y-82480585D01*
X101617000Y-81936000D01*
X100860330Y-81936000D01*
X100884075Y-81912255D01*
X100933444Y-81826745D01*
X100959000Y-81731370D01*
X100959000Y-81632630D01*
X100933444Y-81537255D01*
X100884075Y-81451745D01*
X100860330Y-81428000D01*
X101617000Y-81428000D01*
X101617000Y-80883414D01*
X101616999Y-80883402D01*
X101610494Y-80822906D01*
X101559444Y-80686035D01*
X101559444Y-80686034D01*
X101471904Y-80569095D01*
X101354965Y-80481555D01*
X101218093Y-80430505D01*
X101157597Y-80424000D01*
X100838000Y-80424000D01*
X100838000Y-81405670D01*
X100814255Y-81381925D01*
X100728745Y-81332556D01*
X100633370Y-81307000D01*
X100534630Y-81307000D01*
X100439255Y-81332556D01*
X100353745Y-81381925D01*
X100330000Y-81405670D01*
X100330000Y-80424000D01*
X100010402Y-80424000D01*
X99949906Y-80430505D01*
X99813035Y-80481555D01*
X99813034Y-80481555D01*
X99696095Y-80569096D01*
X99633470Y-80652752D01*
X99576634Y-80695298D01*
X99508022Y-80700821D01*
X99390779Y-80677500D01*
X99390774Y-80677500D01*
X99237226Y-80677500D01*
X99237220Y-80677500D01*
X99086621Y-80707456D01*
X98944772Y-80766213D01*
X98944768Y-80766215D01*
X98817098Y-80851522D01*
X98817092Y-80851527D01*
X98768095Y-80900525D01*
X98705783Y-80934551D01*
X98634968Y-80929486D01*
X98589905Y-80900525D01*
X98540907Y-80851527D01*
X98540901Y-80851522D01*
X98413231Y-80766215D01*
X98413227Y-80766213D01*
X98271378Y-80707456D01*
X98120779Y-80677500D01*
X98120774Y-80677500D01*
X97967226Y-80677500D01*
X97967220Y-80677500D01*
X97816621Y-80707456D01*
X97674772Y-80766213D01*
X97674768Y-80766215D01*
X97547098Y-80851522D01*
X97547092Y-80851527D01*
X97438527Y-80960092D01*
X97438522Y-80960098D01*
X97353215Y-81087768D01*
X97353213Y-81087772D01*
X97294456Y-81229621D01*
X97264500Y-81380220D01*
X97264500Y-81983779D01*
X97294456Y-82134378D01*
X97353213Y-82276227D01*
X97353215Y-82276231D01*
X97438522Y-82403901D01*
X97438527Y-82403907D01*
X97547092Y-82512472D01*
X97547098Y-82512477D01*
X97674768Y-82597784D01*
X97674772Y-82597786D01*
X97816621Y-82656543D01*
X97816625Y-82656543D01*
X97816628Y-82656545D01*
X97924317Y-82677965D01*
X97967220Y-82686499D01*
X97967223Y-82686499D01*
X97967226Y-82686500D01*
X97967227Y-82686500D01*
X98120773Y-82686500D01*
X98120774Y-82686500D01*
X98271372Y-82656545D01*
X98271375Y-82656543D01*
X98271378Y-82656543D01*
X98413227Y-82597786D01*
X98413226Y-82597786D01*
X98413232Y-82597784D01*
X98540902Y-82512477D01*
X98589906Y-82463472D01*
X98652216Y-82429449D01*
X98723031Y-82434513D01*
X98768095Y-82463474D01*
X98772595Y-82467974D01*
X98806621Y-82530286D01*
X98809500Y-82557069D01*
X98809500Y-85550249D01*
X98789498Y-85618370D01*
X98735842Y-85664863D01*
X98665568Y-85674967D01*
X98600988Y-85645473D01*
X98572378Y-85609646D01*
X98563171Y-85592421D01*
X98523027Y-85517317D01*
X98523024Y-85517313D01*
X98523023Y-85517311D01*
X98391252Y-85356747D01*
X98230686Y-85224975D01*
X98230686Y-85224974D01*
X98047492Y-85127055D01*
X97958926Y-85100189D01*
X97848718Y-85066758D01*
X97848717Y-85066757D01*
X97848711Y-85066756D01*
X97642003Y-85046398D01*
X97641997Y-85046398D01*
X97435288Y-85066756D01*
X97236507Y-85127055D01*
X97053313Y-85224974D01*
X97053313Y-85224975D01*
X96892747Y-85356747D01*
X96760975Y-85517313D01*
X96760974Y-85517313D01*
X96663055Y-85700507D01*
X96602756Y-85899288D01*
X96582398Y-86105996D01*
X41350500Y-86105996D01*
X41350500Y-85608577D01*
X43104499Y-85608577D01*
X53709214Y-85608577D01*
X53709214Y-82998500D01*
X55517500Y-82998500D01*
X55517500Y-83625500D01*
X55543288Y-83788316D01*
X55545190Y-83800326D01*
X55599883Y-83968654D01*
X55680243Y-84126368D01*
X55699059Y-84152266D01*
X55784280Y-84269562D01*
X55784282Y-84269564D01*
X55784284Y-84269567D01*
X55909432Y-84394715D01*
X55909435Y-84394717D01*
X55909438Y-84394720D01*
X56052634Y-84498758D01*
X56210342Y-84579115D01*
X56378679Y-84633811D01*
X56553500Y-84661500D01*
X56553503Y-84661500D01*
X56730497Y-84661500D01*
X56730500Y-84661500D01*
X56905321Y-84633811D01*
X57073658Y-84579115D01*
X57231366Y-84498758D01*
X57374562Y-84394720D01*
X57499720Y-84269562D01*
X57603758Y-84126366D01*
X57684115Y-83968658D01*
X57738811Y-83800321D01*
X57766500Y-83625500D01*
X57766500Y-82998500D01*
X57738811Y-82823679D01*
X57697544Y-82696673D01*
X57684116Y-82655345D01*
X57684115Y-82655344D01*
X57684115Y-82655342D01*
X57603758Y-82497634D01*
X57546436Y-82418737D01*
X58057500Y-82418737D01*
X58057500Y-84205246D01*
X58057502Y-84205270D01*
X58063959Y-84265339D01*
X58063959Y-84265341D01*
X58114657Y-84401266D01*
X58123066Y-84412499D01*
X58201596Y-84517404D01*
X58317733Y-84604342D01*
X58453658Y-84655040D01*
X58513745Y-84661500D01*
X59850254Y-84661499D01*
X59910342Y-84655040D01*
X60046267Y-84604342D01*
X60162404Y-84517404D01*
X60249342Y-84401267D01*
X60300040Y-84265342D01*
X60306500Y-84205255D01*
X60306499Y-82851500D01*
X73805500Y-82851500D01*
X73805500Y-83478500D01*
X73827454Y-83617111D01*
X73833190Y-83653326D01*
X73887883Y-83821654D01*
X73968243Y-83979368D01*
X73995112Y-84016349D01*
X74072280Y-84122562D01*
X74072282Y-84122564D01*
X74072284Y-84122567D01*
X74197432Y-84247715D01*
X74197435Y-84247717D01*
X74197438Y-84247720D01*
X74340634Y-84351758D01*
X74498342Y-84432115D01*
X74666679Y-84486811D01*
X74841500Y-84514500D01*
X74841503Y-84514500D01*
X75018497Y-84514500D01*
X75018500Y-84514500D01*
X75193321Y-84486811D01*
X75361658Y-84432115D01*
X75519366Y-84351758D01*
X75662562Y-84247720D01*
X75787720Y-84122562D01*
X75891758Y-83979366D01*
X75972115Y-83821658D01*
X76026811Y-83653321D01*
X76054500Y-83478500D01*
X76054500Y-82851500D01*
X76026811Y-82676679D01*
X75972115Y-82508342D01*
X75891758Y-82350634D01*
X75834436Y-82271737D01*
X76345500Y-82271737D01*
X76345500Y-84058246D01*
X76345501Y-84058254D01*
X76351959Y-84118339D01*
X76351959Y-84118341D01*
X76402657Y-84254266D01*
X76414109Y-84269564D01*
X76489596Y-84370404D01*
X76605733Y-84457342D01*
X76741658Y-84508040D01*
X76801745Y-84514500D01*
X78138254Y-84514499D01*
X78198342Y-84508040D01*
X78334267Y-84457342D01*
X78450404Y-84370404D01*
X78537342Y-84254267D01*
X78588040Y-84118342D01*
X78594500Y-84058255D01*
X78594499Y-82871500D01*
X82695500Y-82871500D01*
X82695500Y-83498500D01*
X82723189Y-83673321D01*
X82723190Y-83673326D01*
X82777883Y-83841654D01*
X82858243Y-83999368D01*
X82870581Y-84016349D01*
X82962280Y-84142562D01*
X82962282Y-84142564D01*
X82962284Y-84142567D01*
X83087432Y-84267715D01*
X83087435Y-84267717D01*
X83087438Y-84267720D01*
X83230634Y-84371758D01*
X83388342Y-84452115D01*
X83556679Y-84506811D01*
X83731500Y-84534500D01*
X83731503Y-84534500D01*
X83908497Y-84534500D01*
X83908500Y-84534500D01*
X84083321Y-84506811D01*
X84251658Y-84452115D01*
X84409366Y-84371758D01*
X84552562Y-84267720D01*
X84677720Y-84142562D01*
X84781758Y-83999366D01*
X84862115Y-83841658D01*
X84916811Y-83673321D01*
X84944500Y-83498500D01*
X84944500Y-82871500D01*
X84916811Y-82696679D01*
X84862115Y-82528342D01*
X84781758Y-82370634D01*
X84677720Y-82227438D01*
X84677717Y-82227435D01*
X84677715Y-82227432D01*
X84552567Y-82102284D01*
X84552564Y-82102282D01*
X84552562Y-82102280D01*
X84438843Y-82019658D01*
X84409368Y-81998243D01*
X84251654Y-81917883D01*
X84083326Y-81863190D01*
X84083322Y-81863189D01*
X84083321Y-81863189D01*
X83908500Y-81835500D01*
X83731500Y-81835500D01*
X83556679Y-81863189D01*
X83556673Y-81863190D01*
X83388345Y-81917883D01*
X83230631Y-81998243D01*
X83087435Y-82102282D01*
X83087432Y-82102284D01*
X82962284Y-82227432D01*
X82962282Y-82227435D01*
X82858243Y-82370631D01*
X82777883Y-82528345D01*
X82723190Y-82696673D01*
X82723189Y-82696678D01*
X82723189Y-82696679D01*
X82695500Y-82871500D01*
X78594499Y-82871500D01*
X78594499Y-82271746D01*
X78588040Y-82211658D01*
X78537342Y-82075733D01*
X78450404Y-81959596D01*
X78334267Y-81872658D01*
X78334265Y-81872657D01*
X78334266Y-81872657D01*
X78198349Y-81821962D01*
X78198344Y-81821960D01*
X78198342Y-81821960D01*
X78190831Y-81821152D01*
X78138262Y-81815500D01*
X78138255Y-81815500D01*
X78100500Y-81815500D01*
X78032379Y-81795498D01*
X77985886Y-81741842D01*
X77974500Y-81689500D01*
X77974500Y-80398161D01*
X77994502Y-80330040D01*
X78011405Y-80309066D01*
X78404066Y-79916405D01*
X78466378Y-79882379D01*
X78493161Y-79879500D01*
X85209839Y-79879500D01*
X85277960Y-79899502D01*
X85298934Y-79916405D01*
X85818595Y-80436066D01*
X85852621Y-80498378D01*
X85855500Y-80525161D01*
X85855500Y-81709500D01*
X85835498Y-81777621D01*
X85781842Y-81824114D01*
X85729503Y-81835500D01*
X85691754Y-81835500D01*
X85691729Y-81835502D01*
X85631660Y-81841959D01*
X85631658Y-81841959D01*
X85495733Y-81892657D01*
X85379596Y-81979596D01*
X85292658Y-82095733D01*
X85241962Y-82231650D01*
X85241960Y-82231658D01*
X85235500Y-82291737D01*
X85235500Y-84078246D01*
X85235502Y-84078270D01*
X85241959Y-84138339D01*
X85241959Y-84138341D01*
X85292657Y-84274266D01*
X85292658Y-84274267D01*
X85379596Y-84390404D01*
X85495733Y-84477342D01*
X85631658Y-84528040D01*
X85691745Y-84534500D01*
X87028254Y-84534499D01*
X87088342Y-84528040D01*
X87224267Y-84477342D01*
X87340404Y-84390404D01*
X87427342Y-84274267D01*
X87478040Y-84138342D01*
X87484500Y-84078255D01*
X87484499Y-82291746D01*
X87478040Y-82231658D01*
X87427342Y-82095733D01*
X87340404Y-81979596D01*
X87224267Y-81892658D01*
X87224265Y-81892657D01*
X87224266Y-81892657D01*
X87088349Y-81841962D01*
X87088344Y-81841960D01*
X87088342Y-81841960D01*
X87080831Y-81841152D01*
X87028262Y-81835500D01*
X87028255Y-81835500D01*
X86990500Y-81835500D01*
X86922379Y-81815498D01*
X86875886Y-81761842D01*
X86864500Y-81709500D01*
X86864500Y-80197582D01*
X86862359Y-80189592D01*
X86830119Y-80069270D01*
X86787508Y-79995466D01*
X86771418Y-79967596D01*
X86763703Y-79954233D01*
X86763697Y-79954225D01*
X85780776Y-78971304D01*
X85780772Y-78971301D01*
X85780770Y-78971299D01*
X85675223Y-78910362D01*
X85665730Y-78904881D01*
X85665728Y-78904880D01*
X85606179Y-78888924D01*
X85537419Y-78870500D01*
X78165581Y-78870500D01*
X78111351Y-78885030D01*
X78037271Y-78904880D01*
X78037270Y-78904881D01*
X78027777Y-78910362D01*
X77975003Y-78940830D01*
X77922231Y-78971298D01*
X77922223Y-78971304D01*
X77066299Y-79827228D01*
X77066297Y-79827231D01*
X77024191Y-79900159D01*
X77024192Y-79900160D01*
X76999881Y-79942269D01*
X76994859Y-79961012D01*
X76965852Y-80069270D01*
X76965500Y-80070582D01*
X76965500Y-81689500D01*
X76945498Y-81757621D01*
X76891842Y-81804114D01*
X76839503Y-81815500D01*
X76801754Y-81815500D01*
X76801729Y-81815502D01*
X76741660Y-81821959D01*
X76741658Y-81821959D01*
X76605733Y-81872657D01*
X76489596Y-81959596D01*
X76402657Y-82075734D01*
X76351962Y-82211650D01*
X76351960Y-82211658D01*
X76345500Y-82271737D01*
X75834436Y-82271737D01*
X75787720Y-82207438D01*
X75787717Y-82207435D01*
X75787715Y-82207432D01*
X75662567Y-82082284D01*
X75662564Y-82082282D01*
X75662562Y-82082280D01*
X75532907Y-81988080D01*
X75519368Y-81978243D01*
X75361654Y-81897883D01*
X75193326Y-81843190D01*
X75193322Y-81843189D01*
X75193321Y-81843189D01*
X75018500Y-81815500D01*
X74841500Y-81815500D01*
X74672210Y-81842313D01*
X74666673Y-81843190D01*
X74498345Y-81897883D01*
X74340631Y-81978243D01*
X74197435Y-82082282D01*
X74197432Y-82082284D01*
X74072284Y-82207432D01*
X74072282Y-82207435D01*
X73968243Y-82350631D01*
X73887883Y-82508345D01*
X73833190Y-82676673D01*
X73833189Y-82676678D01*
X73833189Y-82676679D01*
X73805500Y-82851500D01*
X60306499Y-82851500D01*
X60306499Y-82418746D01*
X60300040Y-82358658D01*
X60249342Y-82222733D01*
X60162404Y-82106596D01*
X60046267Y-82019658D01*
X60046265Y-82019657D01*
X60046266Y-82019657D01*
X59910349Y-81968962D01*
X59910344Y-81968960D01*
X59910342Y-81968960D01*
X59880298Y-81965730D01*
X59850256Y-81962500D01*
X58513753Y-81962500D01*
X58513729Y-81962502D01*
X58453660Y-81968959D01*
X58453658Y-81968959D01*
X58317733Y-82019657D01*
X58201596Y-82106596D01*
X58114657Y-82222734D01*
X58063962Y-82358650D01*
X58063960Y-82358658D01*
X58057500Y-82418737D01*
X57546436Y-82418737D01*
X57499720Y-82354438D01*
X57499717Y-82354435D01*
X57499715Y-82354432D01*
X57374567Y-82229284D01*
X57374564Y-82229282D01*
X57374562Y-82229280D01*
X57275966Y-82157646D01*
X57231368Y-82125243D01*
X57073654Y-82044883D01*
X56905326Y-81990190D01*
X56905322Y-81990189D01*
X56905321Y-81990189D01*
X56730500Y-81962500D01*
X56553500Y-81962500D01*
X56391995Y-81988080D01*
X56378673Y-81990190D01*
X56210345Y-82044883D01*
X56052631Y-82125243D01*
X55909435Y-82229282D01*
X55909432Y-82229284D01*
X55784284Y-82354432D01*
X55784282Y-82354435D01*
X55680243Y-82497631D01*
X55599883Y-82655345D01*
X55545190Y-82823673D01*
X55545189Y-82823678D01*
X55545189Y-82823679D01*
X55517500Y-82998500D01*
X53709214Y-82998500D01*
X53709214Y-80870601D01*
X43104499Y-80870601D01*
X43104499Y-85608577D01*
X41350500Y-85608577D01*
X41350500Y-73786000D01*
X41370502Y-73717879D01*
X41424158Y-73671386D01*
X41476500Y-73660000D01*
X246073500Y-73660000D01*
X246141621Y-73680002D01*
G37*
%TD.AperFunction*%
M02*
