G04 #@! TF.FileFunction,Copper,L1,Top,Signal*
%FSLAX46Y46*%
G04 Gerber Fmt 4.6, Leading zero omitted, Abs format (unit mm)*
G04 Created by KiCad (PCBNEW 4.0.7) date 04/22/18 21:25:17*
%MOMM*%
%LPD*%
G01*
G04 APERTURE LIST*
%ADD10C,0.100000*%
%ADD11R,3.500000X3.500000*%
%ADD12C,3.500000*%
%ADD13C,3.149600*%
%ADD14C,2.997200*%
%ADD15R,2.499360X1.501140*%
%ADD16O,2.499360X1.501140*%
%ADD17C,1.998980*%
%ADD18R,1.900000X2.000000*%
%ADD19C,1.900000*%
%ADD20C,3.500120*%
%ADD21C,2.499360*%
%ADD22C,2.159000*%
%ADD23C,2.000000*%
%ADD24C,1.000000*%
G04 APERTURE END LIST*
D10*
D11*
X95885000Y-46435000D03*
D12*
X95885000Y-56435000D03*
D13*
X116459000Y-37465000D03*
X143891000Y-37465000D03*
X143891000Y-55880000D03*
X116459000Y-55880000D03*
D11*
X177165000Y-110410000D03*
D12*
X177165000Y-100410000D03*
D11*
X95885000Y-73740000D03*
D12*
X95885000Y-83740000D03*
D11*
X140335000Y-102315000D03*
D12*
X140335000Y-112315000D03*
D14*
X112395000Y-123190000D03*
X112395000Y-85090000D03*
D13*
X116459000Y-74295000D03*
X143891000Y-74295000D03*
D15*
X78232000Y-52832000D03*
D16*
X78232000Y-57912000D03*
D15*
X61976000Y-57912000D03*
D16*
X61976000Y-52832000D03*
D15*
X78232000Y-75692000D03*
D16*
X78232000Y-70612000D03*
D15*
X61976000Y-70612000D03*
D16*
X61976000Y-75692000D03*
D17*
X149352000Y-52070000D03*
X149352000Y-44450000D03*
D18*
X183515000Y-50800000D03*
D19*
X180975000Y-50800000D03*
D17*
X73660000Y-107696000D03*
X83820000Y-107696000D03*
X83820000Y-100076000D03*
X73660000Y-100076000D03*
X64516000Y-107696000D03*
X54356000Y-107696000D03*
X54356000Y-100076000D03*
X64516000Y-100076000D03*
D20*
X60744100Y-33528000D03*
X82511900Y-33528000D03*
X95885000Y-120738900D03*
X95885000Y-98971100D03*
D21*
X101892100Y-33782000D03*
X97751900Y-33792160D03*
X45720000Y-64554100D03*
X45709840Y-60413900D03*
X45974000Y-100291900D03*
X45984160Y-104432100D03*
D17*
X75184000Y-64008000D03*
X65024000Y-64008000D03*
X84455000Y-69850000D03*
X84455000Y-59690000D03*
X153035000Y-83820000D03*
X163195000Y-83820000D03*
X149352000Y-56388000D03*
X149352000Y-66548000D03*
X107950000Y-59690000D03*
X107950000Y-69850000D03*
X163195000Y-88265000D03*
X153035000Y-88265000D03*
X176530000Y-50800000D03*
X166370000Y-50800000D03*
X84328000Y-88900000D03*
X74168000Y-88900000D03*
D22*
X69977000Y-43561000D03*
X69977000Y-58547000D03*
X54356000Y-43307000D03*
X54356000Y-58293000D03*
X70104000Y-68707000D03*
X70104000Y-83693000D03*
X54356000Y-68707000D03*
X54356000Y-83693000D03*
X86233000Y-112776000D03*
X71247000Y-112776000D03*
X86233000Y-93980000D03*
X71247000Y-93980000D03*
X66929000Y-112776000D03*
X51943000Y-112776000D03*
X66929000Y-93980000D03*
X51943000Y-93980000D03*
D21*
X155752800Y-40640000D03*
X155752800Y-35560000D03*
X153212800Y-38100000D03*
X188595000Y-72390000D03*
X188595000Y-76530200D03*
X188595000Y-68249800D03*
X174625000Y-72390000D03*
X174625000Y-76530200D03*
X174625000Y-68249800D03*
D23*
X163195000Y-66548000D03*
X163195000Y-80010000D03*
D24*
X163195000Y-80010000D02*
X163195000Y-66548000D01*
M02*
