G04 #@! TF.FileFunction,Legend,Bot*
%FSLAX46Y46*%
G04 Gerber Fmt 4.6, Leading zero omitted, Abs format (unit mm)*
G04 Created by KiCad (PCBNEW 4.0.7) date 04/22/18 21:25:17*
%MOMM*%
%LPD*%
G01*
G04 APERTURE LIST*
%ADD10C,0.100000*%
%ADD11C,0.088900*%
G04 APERTURE END LIST*
D10*
D11*
X126170267Y-36935229D02*
X126078343Y-37027152D01*
X125802572Y-37119076D01*
X125618724Y-37119076D01*
X125342952Y-37027152D01*
X125159105Y-36843305D01*
X125067181Y-36659457D01*
X124975257Y-36291762D01*
X124975257Y-36015990D01*
X125067181Y-35648295D01*
X125159105Y-35464448D01*
X125342952Y-35280600D01*
X125618724Y-35188676D01*
X125802572Y-35188676D01*
X126078343Y-35280600D01*
X126170267Y-35372524D01*
X127824895Y-35832143D02*
X127824895Y-37119076D01*
X127365276Y-35096752D02*
X126905657Y-36475610D01*
X128100667Y-36475610D01*
X121574076Y-39659076D02*
X120470990Y-39659076D01*
X121022533Y-39659076D02*
X121022533Y-37728676D01*
X120838685Y-38004448D01*
X120654838Y-38188295D01*
X120470990Y-38280219D01*
X122401390Y-38372143D02*
X122401390Y-40302543D01*
X123320628Y-39383305D02*
X123412552Y-39567152D01*
X123596400Y-39659076D01*
X122401390Y-39383305D02*
X122493314Y-39567152D01*
X122677161Y-39659076D01*
X123044857Y-39659076D01*
X123228704Y-39567152D01*
X123320628Y-39383305D01*
X123320628Y-38372143D01*
X125067181Y-38647914D02*
X124423714Y-38647914D01*
X124423714Y-39659076D02*
X124423714Y-37728676D01*
X125342952Y-37728676D01*
X127457200Y-37636752D02*
X125802572Y-40118695D01*
X128927981Y-37728676D02*
X128560286Y-37728676D01*
X128376438Y-37820600D01*
X128284515Y-37912524D01*
X128100667Y-38188295D01*
X128008743Y-38555990D01*
X128008743Y-39291381D01*
X128100667Y-39475229D01*
X128192591Y-39567152D01*
X128376438Y-39659076D01*
X128744134Y-39659076D01*
X128927981Y-39567152D01*
X129019905Y-39475229D01*
X129111829Y-39291381D01*
X129111829Y-38831762D01*
X129019905Y-38647914D01*
X128927981Y-38555990D01*
X128744134Y-38464067D01*
X128376438Y-38464067D01*
X128192591Y-38555990D01*
X128100667Y-38647914D01*
X128008743Y-38831762D01*
X129755295Y-37728676D02*
X130950305Y-37728676D01*
X130306838Y-38464067D01*
X130582610Y-38464067D01*
X130766457Y-38555990D01*
X130858381Y-38647914D01*
X130950305Y-38831762D01*
X130950305Y-39291381D01*
X130858381Y-39475229D01*
X130766457Y-39567152D01*
X130582610Y-39659076D01*
X130031067Y-39659076D01*
X129847219Y-39567152D01*
X129755295Y-39475229D01*
X132145314Y-37728676D02*
X132329162Y-37728676D01*
X132513010Y-37820600D01*
X132604933Y-37912524D01*
X132696857Y-38096371D01*
X132788781Y-38464067D01*
X132788781Y-38923686D01*
X132696857Y-39291381D01*
X132604933Y-39475229D01*
X132513010Y-39567152D01*
X132329162Y-39659076D01*
X132145314Y-39659076D01*
X131961467Y-39567152D01*
X131869543Y-39475229D01*
X131777619Y-39291381D01*
X131685695Y-38923686D01*
X131685695Y-38464067D01*
X131777619Y-38096371D01*
X131869543Y-37912524D01*
X131961467Y-37820600D01*
X132145314Y-37728676D01*
X133340324Y-37728676D02*
X133983790Y-39659076D01*
X134627257Y-37728676D01*
X133536267Y-57788629D02*
X133444343Y-57880552D01*
X133168572Y-57972476D01*
X132984724Y-57972476D01*
X132708952Y-57880552D01*
X132525105Y-57696705D01*
X132433181Y-57512857D01*
X132341257Y-57145162D01*
X132341257Y-56869390D01*
X132433181Y-56501695D01*
X132525105Y-56317848D01*
X132708952Y-56134000D01*
X132984724Y-56042076D01*
X133168572Y-56042076D01*
X133444343Y-56134000D01*
X133536267Y-56225924D01*
X135282819Y-56042076D02*
X134363581Y-56042076D01*
X134271657Y-56961314D01*
X134363581Y-56869390D01*
X134547429Y-56777467D01*
X135007048Y-56777467D01*
X135190895Y-56869390D01*
X135282819Y-56961314D01*
X135374743Y-57145162D01*
X135374743Y-57604781D01*
X135282819Y-57788629D01*
X135190895Y-57880552D01*
X135007048Y-57972476D01*
X134547429Y-57972476D01*
X134363581Y-57880552D01*
X134271657Y-57788629D01*
X127009676Y-55432476D02*
X125906590Y-55432476D01*
X126458133Y-55432476D02*
X126458133Y-53502076D01*
X126274285Y-53777848D01*
X126090438Y-53961695D01*
X125906590Y-54053619D01*
X127836990Y-54145543D02*
X127836990Y-56075943D01*
X128756228Y-55156705D02*
X128848152Y-55340552D01*
X129032000Y-55432476D01*
X127836990Y-55156705D02*
X127928914Y-55340552D01*
X128112761Y-55432476D01*
X128480457Y-55432476D01*
X128664304Y-55340552D01*
X128756228Y-55156705D01*
X128756228Y-54145543D01*
X130502781Y-54421314D02*
X129859314Y-54421314D01*
X129859314Y-55432476D02*
X129859314Y-53502076D01*
X130778552Y-53502076D01*
X132892800Y-53410152D02*
X131238172Y-55892095D01*
X134363581Y-53502076D02*
X133995886Y-53502076D01*
X133812038Y-53594000D01*
X133720115Y-53685924D01*
X133536267Y-53961695D01*
X133444343Y-54329390D01*
X133444343Y-55064781D01*
X133536267Y-55248629D01*
X133628191Y-55340552D01*
X133812038Y-55432476D01*
X134179734Y-55432476D01*
X134363581Y-55340552D01*
X134455505Y-55248629D01*
X134547429Y-55064781D01*
X134547429Y-54605162D01*
X134455505Y-54421314D01*
X134363581Y-54329390D01*
X134179734Y-54237467D01*
X133812038Y-54237467D01*
X133628191Y-54329390D01*
X133536267Y-54421314D01*
X133444343Y-54605162D01*
X135190895Y-53502076D02*
X136385905Y-53502076D01*
X135742438Y-54237467D01*
X136018210Y-54237467D01*
X136202057Y-54329390D01*
X136293981Y-54421314D01*
X136385905Y-54605162D01*
X136385905Y-55064781D01*
X136293981Y-55248629D01*
X136202057Y-55340552D01*
X136018210Y-55432476D01*
X135466667Y-55432476D01*
X135282819Y-55340552D01*
X135190895Y-55248629D01*
X137580914Y-53502076D02*
X137764762Y-53502076D01*
X137948610Y-53594000D01*
X138040533Y-53685924D01*
X138132457Y-53869771D01*
X138224381Y-54237467D01*
X138224381Y-54697086D01*
X138132457Y-55064781D01*
X138040533Y-55248629D01*
X137948610Y-55340552D01*
X137764762Y-55432476D01*
X137580914Y-55432476D01*
X137397067Y-55340552D01*
X137305143Y-55248629D01*
X137213219Y-55064781D01*
X137121295Y-54697086D01*
X137121295Y-54237467D01*
X137213219Y-53869771D01*
X137305143Y-53685924D01*
X137397067Y-53594000D01*
X137580914Y-53502076D01*
X138775924Y-53502076D02*
X139419390Y-55432476D01*
X140062857Y-53502076D01*
X125251029Y-73765229D02*
X125159105Y-73857152D01*
X124883334Y-73949076D01*
X124699486Y-73949076D01*
X124423714Y-73857152D01*
X124239867Y-73673305D01*
X124147943Y-73489457D01*
X124056019Y-73121762D01*
X124056019Y-72845990D01*
X124147943Y-72478295D01*
X124239867Y-72294448D01*
X124423714Y-72110600D01*
X124699486Y-72018676D01*
X124883334Y-72018676D01*
X125159105Y-72110600D01*
X125251029Y-72202524D01*
X127089505Y-73949076D02*
X125986419Y-73949076D01*
X126537962Y-73949076D02*
X126537962Y-72018676D01*
X126354114Y-72294448D01*
X126170267Y-72478295D01*
X125986419Y-72570219D01*
X128744133Y-72662143D02*
X128744133Y-73949076D01*
X128284514Y-71926752D02*
X127824895Y-73305610D01*
X129019905Y-73305610D01*
X128330476Y-81498924D02*
X128330476Y-82602010D01*
X128330476Y-82050467D02*
X126400076Y-82050467D01*
X126675848Y-82234315D01*
X126859695Y-82418162D01*
X126951619Y-82602010D01*
X127043543Y-80671610D02*
X128973943Y-80671610D01*
X128054705Y-79752372D02*
X128238552Y-79660448D01*
X128330476Y-79476600D01*
X128054705Y-80671610D02*
X128238552Y-80579686D01*
X128330476Y-80395839D01*
X128330476Y-80028143D01*
X128238552Y-79844296D01*
X128054705Y-79752372D01*
X127043543Y-79752372D01*
X127319314Y-78005819D02*
X127319314Y-78649286D01*
X128330476Y-78649286D02*
X126400076Y-78649286D01*
X126400076Y-77730048D01*
X126308152Y-75615800D02*
X128790095Y-77270428D01*
X126400076Y-74145019D02*
X126400076Y-74512714D01*
X126492000Y-74696562D01*
X126583924Y-74788485D01*
X126859695Y-74972333D01*
X127227390Y-75064257D01*
X127962781Y-75064257D01*
X128146629Y-74972333D01*
X128238552Y-74880409D01*
X128330476Y-74696562D01*
X128330476Y-74328866D01*
X128238552Y-74145019D01*
X128146629Y-74053095D01*
X127962781Y-73961171D01*
X127503162Y-73961171D01*
X127319314Y-74053095D01*
X127227390Y-74145019D01*
X127135467Y-74328866D01*
X127135467Y-74696562D01*
X127227390Y-74880409D01*
X127319314Y-74972333D01*
X127503162Y-75064257D01*
X126400076Y-72766162D02*
X126400076Y-72582314D01*
X126492000Y-72398466D01*
X126583924Y-72306543D01*
X126767771Y-72214619D01*
X127135467Y-72122695D01*
X127595086Y-72122695D01*
X127962781Y-72214619D01*
X128146629Y-72306543D01*
X128238552Y-72398466D01*
X128330476Y-72582314D01*
X128330476Y-72766162D01*
X128238552Y-72950009D01*
X128146629Y-73041933D01*
X127962781Y-73133857D01*
X127595086Y-73225781D01*
X127135467Y-73225781D01*
X126767771Y-73133857D01*
X126583924Y-73041933D01*
X126492000Y-72950009D01*
X126400076Y-72766162D01*
X126400076Y-70927686D02*
X126400076Y-70743838D01*
X126492000Y-70559990D01*
X126583924Y-70468067D01*
X126767771Y-70376143D01*
X127135467Y-70284219D01*
X127595086Y-70284219D01*
X127962781Y-70376143D01*
X128146629Y-70468067D01*
X128238552Y-70559990D01*
X128330476Y-70743838D01*
X128330476Y-70927686D01*
X128238552Y-71111533D01*
X128146629Y-71203457D01*
X127962781Y-71295381D01*
X127595086Y-71387305D01*
X127135467Y-71387305D01*
X126767771Y-71295381D01*
X126583924Y-71203457D01*
X126492000Y-71111533D01*
X126400076Y-70927686D01*
X126400076Y-69732676D02*
X128330476Y-69089210D01*
X126400076Y-68445743D01*
X71192571Y-49741667D02*
X71253048Y-49802143D01*
X71313524Y-49983572D01*
X71313524Y-50104524D01*
X71253048Y-50285952D01*
X71132095Y-50406905D01*
X71011143Y-50467381D01*
X70769238Y-50527857D01*
X70587810Y-50527857D01*
X70345905Y-50467381D01*
X70224952Y-50406905D01*
X70104000Y-50285952D01*
X70043524Y-50104524D01*
X70043524Y-49983572D01*
X70104000Y-49802143D01*
X70164476Y-49741667D01*
X71313524Y-48532143D02*
X71313524Y-49257857D01*
X71313524Y-48895000D02*
X70043524Y-48895000D01*
X70224952Y-49015952D01*
X70345905Y-49136905D01*
X70406381Y-49257857D01*
X69662524Y-50920952D02*
X69662524Y-51646666D01*
X69662524Y-51283809D02*
X68392524Y-51283809D01*
X68573952Y-51404761D01*
X68694905Y-51525714D01*
X68755381Y-51646666D01*
X68815857Y-50376666D02*
X69662524Y-50376666D01*
X68936810Y-50376666D02*
X68876333Y-50316190D01*
X68815857Y-50195237D01*
X68815857Y-50013809D01*
X68876333Y-49892857D01*
X68997286Y-49832380D01*
X69662524Y-49832380D01*
X68997286Y-48804285D02*
X68997286Y-49227618D01*
X69662524Y-49227618D02*
X68392524Y-49227618D01*
X68392524Y-48622856D01*
X55571571Y-49487667D02*
X55632048Y-49548143D01*
X55692524Y-49729572D01*
X55692524Y-49850524D01*
X55632048Y-50031952D01*
X55511095Y-50152905D01*
X55390143Y-50213381D01*
X55148238Y-50273857D01*
X54966810Y-50273857D01*
X54724905Y-50213381D01*
X54603952Y-50152905D01*
X54483000Y-50031952D01*
X54422524Y-49850524D01*
X54422524Y-49729572D01*
X54483000Y-49548143D01*
X54543476Y-49487667D01*
X54543476Y-49003857D02*
X54483000Y-48943381D01*
X54422524Y-48822429D01*
X54422524Y-48520048D01*
X54483000Y-48399095D01*
X54543476Y-48338619D01*
X54664429Y-48278143D01*
X54785381Y-48278143D01*
X54966810Y-48338619D01*
X55692524Y-49064333D01*
X55692524Y-48278143D01*
X54041524Y-50666952D02*
X54041524Y-51392666D01*
X54041524Y-51029809D02*
X52771524Y-51029809D01*
X52952952Y-51150761D01*
X53073905Y-51271714D01*
X53134381Y-51392666D01*
X53194857Y-50122666D02*
X54041524Y-50122666D01*
X53315810Y-50122666D02*
X53255333Y-50062190D01*
X53194857Y-49941237D01*
X53194857Y-49759809D01*
X53255333Y-49638857D01*
X53376286Y-49578380D01*
X54041524Y-49578380D01*
X53376286Y-48550285D02*
X53376286Y-48973618D01*
X54041524Y-48973618D02*
X52771524Y-48973618D01*
X52771524Y-48368856D01*
X71319571Y-74887667D02*
X71380048Y-74948143D01*
X71440524Y-75129572D01*
X71440524Y-75250524D01*
X71380048Y-75431952D01*
X71259095Y-75552905D01*
X71138143Y-75613381D01*
X70896238Y-75673857D01*
X70714810Y-75673857D01*
X70472905Y-75613381D01*
X70351952Y-75552905D01*
X70231000Y-75431952D01*
X70170524Y-75250524D01*
X70170524Y-75129572D01*
X70231000Y-74948143D01*
X70291476Y-74887667D01*
X70170524Y-74464333D02*
X70170524Y-73617667D01*
X71440524Y-74161952D01*
X69789524Y-76066952D02*
X69789524Y-76792666D01*
X69789524Y-76429809D02*
X68519524Y-76429809D01*
X68700952Y-76550761D01*
X68821905Y-76671714D01*
X68882381Y-76792666D01*
X68942857Y-75522666D02*
X69789524Y-75522666D01*
X69063810Y-75522666D02*
X69003333Y-75462190D01*
X68942857Y-75341237D01*
X68942857Y-75159809D01*
X69003333Y-75038857D01*
X69124286Y-74978380D01*
X69789524Y-74978380D01*
X69124286Y-73950285D02*
X69124286Y-74373618D01*
X69789524Y-74373618D02*
X68519524Y-74373618D01*
X68519524Y-73768856D01*
X55571571Y-74887667D02*
X55632048Y-74948143D01*
X55692524Y-75129572D01*
X55692524Y-75250524D01*
X55632048Y-75431952D01*
X55511095Y-75552905D01*
X55390143Y-75613381D01*
X55148238Y-75673857D01*
X54966810Y-75673857D01*
X54724905Y-75613381D01*
X54603952Y-75552905D01*
X54483000Y-75431952D01*
X54422524Y-75250524D01*
X54422524Y-75129572D01*
X54483000Y-74948143D01*
X54543476Y-74887667D01*
X54966810Y-74161952D02*
X54906333Y-74282905D01*
X54845857Y-74343381D01*
X54724905Y-74403857D01*
X54664429Y-74403857D01*
X54543476Y-74343381D01*
X54483000Y-74282905D01*
X54422524Y-74161952D01*
X54422524Y-73920048D01*
X54483000Y-73799095D01*
X54543476Y-73738619D01*
X54664429Y-73678143D01*
X54724905Y-73678143D01*
X54845857Y-73738619D01*
X54906333Y-73799095D01*
X54966810Y-73920048D01*
X54966810Y-74161952D01*
X55027286Y-74282905D01*
X55087762Y-74343381D01*
X55208714Y-74403857D01*
X55450619Y-74403857D01*
X55571571Y-74343381D01*
X55632048Y-74282905D01*
X55692524Y-74161952D01*
X55692524Y-73920048D01*
X55632048Y-73799095D01*
X55571571Y-73738619D01*
X55450619Y-73678143D01*
X55208714Y-73678143D01*
X55087762Y-73738619D01*
X55027286Y-73799095D01*
X54966810Y-73920048D01*
X54041524Y-76066952D02*
X54041524Y-76792666D01*
X54041524Y-76429809D02*
X52771524Y-76429809D01*
X52952952Y-76550761D01*
X53073905Y-76671714D01*
X53134381Y-76792666D01*
X53194857Y-75522666D02*
X54041524Y-75522666D01*
X53315810Y-75522666D02*
X53255333Y-75462190D01*
X53194857Y-75341237D01*
X53194857Y-75159809D01*
X53255333Y-75038857D01*
X53376286Y-74978380D01*
X54041524Y-74978380D01*
X53376286Y-73950285D02*
X53376286Y-74373618D01*
X54041524Y-74373618D02*
X52771524Y-74373618D01*
X52771524Y-73768856D01*
X79447571Y-113991571D02*
X79387095Y-114052048D01*
X79205666Y-114112524D01*
X79084714Y-114112524D01*
X78903286Y-114052048D01*
X78782333Y-113931095D01*
X78721857Y-113810143D01*
X78661381Y-113568238D01*
X78661381Y-113386810D01*
X78721857Y-113144905D01*
X78782333Y-113023952D01*
X78903286Y-112903000D01*
X79084714Y-112842524D01*
X79205666Y-112842524D01*
X79387095Y-112903000D01*
X79447571Y-112963476D01*
X80657095Y-114112524D02*
X79931381Y-114112524D01*
X80294238Y-114112524D02*
X80294238Y-112842524D01*
X80173286Y-113023952D01*
X80052333Y-113144905D01*
X79931381Y-113205381D01*
X81866619Y-114112524D02*
X81140905Y-114112524D01*
X81503762Y-114112524D02*
X81503762Y-112842524D01*
X81382810Y-113023952D01*
X81261857Y-113144905D01*
X81140905Y-113205381D01*
X78873048Y-112461524D02*
X78147334Y-112461524D01*
X78510191Y-112461524D02*
X78510191Y-111191524D01*
X78389239Y-111372952D01*
X78268286Y-111493905D01*
X78147334Y-111554381D01*
X79417334Y-111614857D02*
X79417334Y-112461524D01*
X79417334Y-111735810D02*
X79477810Y-111675333D01*
X79598763Y-111614857D01*
X79780191Y-111614857D01*
X79901143Y-111675333D01*
X79961620Y-111796286D01*
X79961620Y-112461524D01*
X80989715Y-111796286D02*
X80566382Y-111796286D01*
X80566382Y-112461524D02*
X80566382Y-111191524D01*
X81171144Y-111191524D01*
X79447571Y-95195571D02*
X79387095Y-95256048D01*
X79205666Y-95316524D01*
X79084714Y-95316524D01*
X78903286Y-95256048D01*
X78782333Y-95135095D01*
X78721857Y-95014143D01*
X78661381Y-94772238D01*
X78661381Y-94590810D01*
X78721857Y-94348905D01*
X78782333Y-94227952D01*
X78903286Y-94107000D01*
X79084714Y-94046524D01*
X79205666Y-94046524D01*
X79387095Y-94107000D01*
X79447571Y-94167476D01*
X80657095Y-95316524D02*
X79931381Y-95316524D01*
X80294238Y-95316524D02*
X80294238Y-94046524D01*
X80173286Y-94227952D01*
X80052333Y-94348905D01*
X79931381Y-94409381D01*
X81140905Y-94167476D02*
X81201381Y-94107000D01*
X81322333Y-94046524D01*
X81624714Y-94046524D01*
X81745667Y-94107000D01*
X81806143Y-94167476D01*
X81866619Y-94288429D01*
X81866619Y-94409381D01*
X81806143Y-94590810D01*
X81080429Y-95316524D01*
X81866619Y-95316524D01*
X78873048Y-93665524D02*
X78147334Y-93665524D01*
X78510191Y-93665524D02*
X78510191Y-92395524D01*
X78389239Y-92576952D01*
X78268286Y-92697905D01*
X78147334Y-92758381D01*
X79417334Y-92818857D02*
X79417334Y-93665524D01*
X79417334Y-92939810D02*
X79477810Y-92879333D01*
X79598763Y-92818857D01*
X79780191Y-92818857D01*
X79901143Y-92879333D01*
X79961620Y-93000286D01*
X79961620Y-93665524D01*
X80989715Y-93000286D02*
X80566382Y-93000286D01*
X80566382Y-93665524D02*
X80566382Y-92395524D01*
X81171144Y-92395524D01*
X60143571Y-113991571D02*
X60083095Y-114052048D01*
X59901666Y-114112524D01*
X59780714Y-114112524D01*
X59599286Y-114052048D01*
X59478333Y-113931095D01*
X59417857Y-113810143D01*
X59357381Y-113568238D01*
X59357381Y-113386810D01*
X59417857Y-113144905D01*
X59478333Y-113023952D01*
X59599286Y-112903000D01*
X59780714Y-112842524D01*
X59901666Y-112842524D01*
X60083095Y-112903000D01*
X60143571Y-112963476D01*
X61353095Y-114112524D02*
X60627381Y-114112524D01*
X60990238Y-114112524D02*
X60990238Y-112842524D01*
X60869286Y-113023952D01*
X60748333Y-113144905D01*
X60627381Y-113205381D01*
X62502143Y-112842524D02*
X61897381Y-112842524D01*
X61836905Y-113447286D01*
X61897381Y-113386810D01*
X62018333Y-113326333D01*
X62320714Y-113326333D01*
X62441667Y-113386810D01*
X62502143Y-113447286D01*
X62562619Y-113568238D01*
X62562619Y-113870619D01*
X62502143Y-113991571D01*
X62441667Y-114052048D01*
X62320714Y-114112524D01*
X62018333Y-114112524D01*
X61897381Y-114052048D01*
X61836905Y-113991571D01*
X59569048Y-112461524D02*
X58843334Y-112461524D01*
X59206191Y-112461524D02*
X59206191Y-111191524D01*
X59085239Y-111372952D01*
X58964286Y-111493905D01*
X58843334Y-111554381D01*
X60113334Y-111614857D02*
X60113334Y-112461524D01*
X60113334Y-111735810D02*
X60173810Y-111675333D01*
X60294763Y-111614857D01*
X60476191Y-111614857D01*
X60597143Y-111675333D01*
X60657620Y-111796286D01*
X60657620Y-112461524D01*
X61685715Y-111796286D02*
X61262382Y-111796286D01*
X61262382Y-112461524D02*
X61262382Y-111191524D01*
X61867144Y-111191524D01*
X60143571Y-95195571D02*
X60083095Y-95256048D01*
X59901666Y-95316524D01*
X59780714Y-95316524D01*
X59599286Y-95256048D01*
X59478333Y-95135095D01*
X59417857Y-95014143D01*
X59357381Y-94772238D01*
X59357381Y-94590810D01*
X59417857Y-94348905D01*
X59478333Y-94227952D01*
X59599286Y-94107000D01*
X59780714Y-94046524D01*
X59901666Y-94046524D01*
X60083095Y-94107000D01*
X60143571Y-94167476D01*
X61353095Y-95316524D02*
X60627381Y-95316524D01*
X60990238Y-95316524D02*
X60990238Y-94046524D01*
X60869286Y-94227952D01*
X60748333Y-94348905D01*
X60627381Y-94409381D01*
X62441667Y-94046524D02*
X62199762Y-94046524D01*
X62078810Y-94107000D01*
X62018333Y-94167476D01*
X61897381Y-94348905D01*
X61836905Y-94590810D01*
X61836905Y-95074619D01*
X61897381Y-95195571D01*
X61957857Y-95256048D01*
X62078810Y-95316524D01*
X62320714Y-95316524D01*
X62441667Y-95256048D01*
X62502143Y-95195571D01*
X62562619Y-95074619D01*
X62562619Y-94772238D01*
X62502143Y-94651286D01*
X62441667Y-94590810D01*
X62320714Y-94530333D01*
X62078810Y-94530333D01*
X61957857Y-94590810D01*
X61897381Y-94651286D01*
X61836905Y-94772238D01*
X59569048Y-93665524D02*
X58843334Y-93665524D01*
X59206191Y-93665524D02*
X59206191Y-92395524D01*
X59085239Y-92576952D01*
X58964286Y-92697905D01*
X58843334Y-92758381D01*
X60113334Y-92818857D02*
X60113334Y-93665524D01*
X60113334Y-92939810D02*
X60173810Y-92879333D01*
X60294763Y-92818857D01*
X60476191Y-92818857D01*
X60597143Y-92879333D01*
X60657620Y-93000286D01*
X60657620Y-93665524D01*
X61685715Y-93000286D02*
X61262382Y-93000286D01*
X61262382Y-93665524D02*
X61262382Y-92395524D01*
X61867144Y-92395524D01*
M02*
