G04 #@! TF.FileFunction,Copper,L2,Bot,Signal*
%FSLAX46Y46*%
G04 Gerber Fmt 4.6, Leading zero omitted, Abs format (unit mm)*
G04 Created by KiCad (PCBNEW 4.0.7) date 04/22/18 21:25:17*
%MOMM*%
%LPD*%
G01*
G04 APERTURE LIST*
%ADD10C,0.100000*%
%ADD11C,0.300000*%
%ADD12R,3.500000X3.500000*%
%ADD13C,3.500000*%
%ADD14C,3.149600*%
%ADD15C,2.997200*%
%ADD16R,2.499360X1.501140*%
%ADD17O,2.499360X1.501140*%
%ADD18C,1.998980*%
%ADD19R,1.900000X2.000000*%
%ADD20C,1.900000*%
%ADD21C,3.500120*%
%ADD22C,2.499360*%
%ADD23C,2.159000*%
%ADD24C,2.000000*%
%ADD25C,1.000000*%
%ADD26C,0.250000*%
%ADD27C,0.500000*%
G04 APERTURE END LIST*
D10*
D11*
X192491714Y-39789571D02*
X192491714Y-38289571D01*
X192134571Y-38289571D01*
X191920286Y-38361000D01*
X191777428Y-38503857D01*
X191706000Y-38646714D01*
X191634571Y-38932429D01*
X191634571Y-39146714D01*
X191706000Y-39432429D01*
X191777428Y-39575286D01*
X191920286Y-39718143D01*
X192134571Y-39789571D01*
X192491714Y-39789571D01*
X190991714Y-39646714D02*
X190920286Y-39718143D01*
X190991714Y-39789571D01*
X191063143Y-39718143D01*
X190991714Y-39646714D01*
X190991714Y-39789571D01*
X189277428Y-38289571D02*
X188920285Y-39789571D01*
X188634571Y-38718143D01*
X188348857Y-39789571D01*
X187991714Y-38289571D01*
X186777428Y-39789571D02*
X186777428Y-39003857D01*
X186848857Y-38861000D01*
X186991714Y-38789571D01*
X187277428Y-38789571D01*
X187420285Y-38861000D01*
X186777428Y-39718143D02*
X186920285Y-39789571D01*
X187277428Y-39789571D01*
X187420285Y-39718143D01*
X187491714Y-39575286D01*
X187491714Y-39432429D01*
X187420285Y-39289571D01*
X187277428Y-39218143D01*
X186920285Y-39218143D01*
X186777428Y-39146714D01*
X185848856Y-39789571D02*
X185991714Y-39718143D01*
X186063142Y-39575286D01*
X186063142Y-38289571D01*
X185491714Y-38789571D02*
X184920285Y-38789571D01*
X185277428Y-38289571D02*
X185277428Y-39575286D01*
X185206000Y-39718143D01*
X185063142Y-39789571D01*
X184920285Y-39789571D01*
X183848857Y-39718143D02*
X183991714Y-39789571D01*
X184277428Y-39789571D01*
X184420285Y-39718143D01*
X184491714Y-39575286D01*
X184491714Y-39003857D01*
X184420285Y-38861000D01*
X184277428Y-38789571D01*
X183991714Y-38789571D01*
X183848857Y-38861000D01*
X183777428Y-39003857D01*
X183777428Y-39146714D01*
X184491714Y-39289571D01*
X183134571Y-39789571D02*
X183134571Y-38789571D01*
X183134571Y-39075286D02*
X183063143Y-38932429D01*
X182991714Y-38861000D01*
X182848857Y-38789571D01*
X182706000Y-38789571D01*
X189848856Y-41339571D02*
X189491713Y-42339571D01*
X189134571Y-41339571D01*
X187777428Y-42339571D02*
X188634571Y-42339571D01*
X188205999Y-42339571D02*
X188205999Y-40839571D01*
X188348856Y-41053857D01*
X188491714Y-41196714D01*
X188634571Y-41268143D01*
X187134571Y-42196714D02*
X187063143Y-42268143D01*
X187134571Y-42339571D01*
X187206000Y-42268143D01*
X187134571Y-42196714D01*
X187134571Y-42339571D01*
X186134571Y-40839571D02*
X185991714Y-40839571D01*
X185848857Y-40911000D01*
X185777428Y-40982429D01*
X185705999Y-41125286D01*
X185634571Y-41411000D01*
X185634571Y-41768143D01*
X185705999Y-42053857D01*
X185777428Y-42196714D01*
X185848857Y-42268143D01*
X185991714Y-42339571D01*
X186134571Y-42339571D01*
X186277428Y-42268143D01*
X186348857Y-42196714D01*
X186420285Y-42053857D01*
X186491714Y-41768143D01*
X186491714Y-41411000D01*
X186420285Y-41125286D01*
X186348857Y-40982429D01*
X186277428Y-40911000D01*
X186134571Y-40839571D01*
X179562000Y-122066857D02*
X179347714Y-122138286D01*
X179276286Y-122209714D01*
X179204857Y-122352571D01*
X179204857Y-122566857D01*
X179276286Y-122709714D01*
X179347714Y-122781143D01*
X179490572Y-122852571D01*
X180062000Y-122852571D01*
X180062000Y-121352571D01*
X179562000Y-121352571D01*
X179419143Y-121424000D01*
X179347714Y-121495429D01*
X179276286Y-121638286D01*
X179276286Y-121781143D01*
X179347714Y-121924000D01*
X179419143Y-121995429D01*
X179562000Y-122066857D01*
X180062000Y-122066857D01*
X178347714Y-122852571D02*
X178490572Y-122781143D01*
X178562000Y-122709714D01*
X178633429Y-122566857D01*
X178633429Y-122138286D01*
X178562000Y-121995429D01*
X178490572Y-121924000D01*
X178347714Y-121852571D01*
X178133429Y-121852571D01*
X177990572Y-121924000D01*
X177919143Y-121995429D01*
X177847714Y-122138286D01*
X177847714Y-122566857D01*
X177919143Y-122709714D01*
X177990572Y-122781143D01*
X178133429Y-122852571D01*
X178347714Y-122852571D01*
X177419143Y-121852571D02*
X176847714Y-121852571D01*
X177204857Y-121352571D02*
X177204857Y-122638286D01*
X177133429Y-122781143D01*
X176990571Y-122852571D01*
X176847714Y-122852571D01*
D12*
X95885000Y-46435000D03*
D13*
X95885000Y-56435000D03*
D14*
X116459000Y-37465000D03*
X143891000Y-37465000D03*
X143891000Y-55880000D03*
X116459000Y-55880000D03*
D12*
X177165000Y-110410000D03*
D13*
X177165000Y-100410000D03*
D12*
X95885000Y-73740000D03*
D13*
X95885000Y-83740000D03*
D12*
X140335000Y-102315000D03*
D13*
X140335000Y-112315000D03*
D15*
X112395000Y-123190000D03*
X112395000Y-85090000D03*
D14*
X116459000Y-74295000D03*
X143891000Y-74295000D03*
D16*
X78232000Y-52832000D03*
D17*
X78232000Y-57912000D03*
D16*
X61976000Y-57912000D03*
D17*
X61976000Y-52832000D03*
D16*
X78232000Y-75692000D03*
D17*
X78232000Y-70612000D03*
D16*
X61976000Y-70612000D03*
D17*
X61976000Y-75692000D03*
D18*
X149352000Y-52070000D03*
X149352000Y-44450000D03*
D19*
X183515000Y-50800000D03*
D20*
X180975000Y-50800000D03*
D18*
X73660000Y-107696000D03*
X83820000Y-107696000D03*
X83820000Y-100076000D03*
X73660000Y-100076000D03*
X64516000Y-107696000D03*
X54356000Y-107696000D03*
X54356000Y-100076000D03*
X64516000Y-100076000D03*
D21*
X60744100Y-33528000D03*
X82511900Y-33528000D03*
X95885000Y-120738900D03*
X95885000Y-98971100D03*
D22*
X101892100Y-33782000D03*
X97751900Y-33792160D03*
X45720000Y-64554100D03*
X45709840Y-60413900D03*
X45974000Y-100291900D03*
X45984160Y-104432100D03*
D18*
X75184000Y-64008000D03*
X65024000Y-64008000D03*
X84455000Y-69850000D03*
X84455000Y-59690000D03*
X153035000Y-83820000D03*
X163195000Y-83820000D03*
X149352000Y-56388000D03*
X149352000Y-66548000D03*
X107950000Y-59690000D03*
X107950000Y-69850000D03*
X163195000Y-88265000D03*
X153035000Y-88265000D03*
X176530000Y-50800000D03*
X166370000Y-50800000D03*
X84328000Y-88900000D03*
X74168000Y-88900000D03*
D23*
X69977000Y-43561000D03*
X69977000Y-58547000D03*
X54356000Y-43307000D03*
X54356000Y-58293000D03*
X70104000Y-68707000D03*
X70104000Y-83693000D03*
X54356000Y-68707000D03*
X54356000Y-83693000D03*
X86233000Y-112776000D03*
X71247000Y-112776000D03*
X86233000Y-93980000D03*
X71247000Y-93980000D03*
X66929000Y-112776000D03*
X51943000Y-112776000D03*
X66929000Y-93980000D03*
X51943000Y-93980000D03*
D22*
X155752800Y-40640000D03*
X155752800Y-35560000D03*
X153212800Y-38100000D03*
X188595000Y-72390000D03*
X188595000Y-76530200D03*
X188595000Y-68249800D03*
X174625000Y-72390000D03*
X174625000Y-76530200D03*
X174625000Y-68249800D03*
D24*
X163195000Y-66548000D03*
X163195000Y-80010000D03*
D25*
X61976000Y-52832000D02*
X61976000Y-47033756D01*
X61976000Y-47033756D02*
X58249244Y-43307000D01*
X58249244Y-43307000D02*
X54356000Y-43307000D01*
X78232000Y-52832000D02*
X78232000Y-48396512D01*
X78232000Y-48396512D02*
X73396488Y-43561000D01*
X73396488Y-43561000D02*
X69977000Y-43561000D01*
X82511900Y-33528000D02*
X82511900Y-39408100D01*
X78359000Y-43561000D02*
X69977000Y-43561000D01*
X82511900Y-39408100D02*
X78359000Y-43561000D01*
X54356000Y-43307000D02*
X69723000Y-43307000D01*
X69723000Y-43307000D02*
X69977000Y-43561000D01*
X69723000Y-43307000D02*
X69977000Y-43561000D01*
X69723000Y-43307000D02*
X69977000Y-43561000D01*
X69977000Y-43561000D02*
X70104000Y-43561000D01*
X70104000Y-68707000D02*
X70104000Y-58674000D01*
X70104000Y-58674000D02*
X69977000Y-58547000D01*
X70104000Y-58674000D02*
X69977000Y-58547000D01*
X70104000Y-58674000D02*
X69977000Y-58547000D01*
X54356000Y-68707000D02*
X54356000Y-58293000D01*
X95885000Y-46435000D02*
X95885000Y-41837130D01*
X95885000Y-41837130D02*
X97751900Y-39970230D01*
X97751900Y-39970230D02*
X97751900Y-33792160D01*
X116459000Y-37465000D02*
X116459000Y-40662603D01*
X116459000Y-40662603D02*
X110686603Y-46435000D01*
X110686603Y-46435000D02*
X95885000Y-46435000D01*
X84455000Y-59690000D02*
X84455000Y-52091267D01*
X84455000Y-52091267D02*
X90111267Y-46435000D01*
X90111267Y-46435000D02*
X95885000Y-46435000D01*
X75184000Y-64008000D02*
X80137000Y-64008000D01*
X80137000Y-64008000D02*
X84455000Y-59690000D01*
X95885000Y-46435000D02*
X95885000Y-46990000D01*
X95885000Y-73740000D02*
X104060000Y-73740000D01*
X104060000Y-73740000D02*
X107950000Y-69850000D01*
X95885000Y-73740000D02*
X88345000Y-73740000D01*
X88345000Y-73740000D02*
X84455000Y-69850000D01*
X95885000Y-73740000D02*
X95885000Y-56435000D01*
X153035000Y-88265000D02*
X153035000Y-99060000D01*
X155575000Y-102235000D02*
X155575000Y-102315000D01*
X155655000Y-102315000D02*
X155575000Y-102235000D01*
X156290000Y-102315000D02*
X155655000Y-102315000D01*
X153035000Y-99060000D02*
X156290000Y-102315000D01*
X153035000Y-83820000D02*
X153035000Y-88265000D01*
X140335000Y-102315000D02*
X155575000Y-102315000D01*
X155575000Y-102315000D02*
X158750000Y-102315000D01*
X175260000Y-102315000D02*
X177165000Y-100410000D01*
X158750000Y-102315000D02*
X175260000Y-102315000D01*
X78232000Y-75692000D02*
X78232000Y-79047547D01*
X78232000Y-79047547D02*
X73586547Y-83693000D01*
X73586547Y-83693000D02*
X70104000Y-83693000D01*
X61976000Y-75692000D02*
X61976000Y-79214316D01*
X61976000Y-79214316D02*
X57497316Y-83693000D01*
X57497316Y-83693000D02*
X54356000Y-83693000D01*
X45720000Y-64554100D02*
X42125900Y-64554100D01*
X47117000Y-83693000D02*
X54356000Y-83693000D01*
X40132000Y-76708000D02*
X47117000Y-83693000D01*
X40132000Y-66548000D02*
X40132000Y-76708000D01*
X42125900Y-64554100D02*
X40132000Y-66548000D01*
X54356000Y-83693000D02*
X70104000Y-83693000D01*
X78232000Y-75692000D02*
X77470000Y-75692000D01*
D26*
X78105000Y-76327000D02*
X78359000Y-76327000D01*
D25*
X95885000Y-98971100D02*
X84924900Y-98971100D01*
X84924900Y-98971100D02*
X83820000Y-100076000D01*
X83820000Y-107696000D02*
X83820000Y-100076000D01*
X83820000Y-107696000D02*
X83820000Y-110363000D01*
X83820000Y-110363000D02*
X86233000Y-112776000D01*
X83820000Y-100076000D02*
X83820000Y-96393000D01*
X83820000Y-96393000D02*
X86233000Y-93980000D01*
X71247000Y-112776000D02*
X66929000Y-112776000D01*
X66929000Y-93980000D02*
X71247000Y-93980000D01*
X54356000Y-107696000D02*
X54356000Y-100076000D01*
X45974000Y-100291900D02*
X54140100Y-100291900D01*
X54140100Y-100291900D02*
X54356000Y-100076000D01*
X54356000Y-107696000D02*
X54356000Y-110363000D01*
X54356000Y-110363000D02*
X51943000Y-112776000D01*
X54356000Y-100076000D02*
X54356000Y-96393000D01*
X54356000Y-96393000D02*
X51943000Y-93980000D01*
X65024000Y-64008000D02*
X65024000Y-67564000D01*
X65024000Y-67564000D02*
X61976000Y-70612000D01*
X65024000Y-64008000D02*
X65024000Y-60960000D01*
X65024000Y-60960000D02*
X61976000Y-57912000D01*
X155752800Y-40640000D02*
X155752800Y-43890581D01*
X155752800Y-43890581D02*
X149352000Y-50291381D01*
X149352000Y-50291381D02*
X149352000Y-52070000D01*
X149352000Y-56388000D02*
X149352000Y-52070000D01*
X176530000Y-50800000D02*
X180975000Y-50800000D01*
X74168000Y-88900000D02*
X75184000Y-89916000D01*
X75184000Y-89916000D02*
X75184000Y-98552000D01*
X75184000Y-98552000D02*
X73660000Y-100076000D01*
X64516000Y-100076000D02*
X73660000Y-100076000D01*
X45709840Y-60413900D02*
X45709840Y-41623793D01*
X45709840Y-41623793D02*
X53805633Y-33528000D01*
X53805633Y-33528000D02*
X60744100Y-33528000D01*
X95885000Y-120738900D02*
X50253900Y-120738900D01*
X45984160Y-116469160D02*
X45984160Y-104432100D01*
X50253900Y-120738900D02*
X45984160Y-116469160D01*
X166370000Y-50800000D02*
X166370000Y-39370000D01*
X166370000Y-39370000D02*
X162560000Y-35560000D01*
X162560000Y-35560000D02*
X155752800Y-35560000D01*
X153212800Y-38100000D02*
X158935075Y-38100000D01*
X158935075Y-38100000D02*
X161544000Y-40708925D01*
X161544000Y-40708925D02*
X161544000Y-60332333D01*
X161544000Y-60332333D02*
X155328333Y-66548000D01*
X155328333Y-66548000D02*
X149352000Y-66548000D01*
X183515000Y-92075000D02*
X183515000Y-78698520D01*
X183515000Y-78698520D02*
X185683320Y-76530200D01*
X185683320Y-76530200D02*
X188595000Y-76530200D01*
X183515000Y-92075000D02*
X183515000Y-88159450D01*
X183515000Y-88159450D02*
X179175550Y-83820000D01*
X179175550Y-83820000D02*
X163195000Y-83820000D01*
X143891000Y-55880000D02*
X143891000Y-63937816D01*
X143891000Y-63937816D02*
X146501184Y-66548000D01*
X146501184Y-66548000D02*
X149352000Y-66548000D01*
X188595000Y-76530200D02*
X186827686Y-76530200D01*
X186827686Y-76530200D02*
X174625000Y-76530200D01*
X149352000Y-66548000D02*
X163195000Y-66548000D01*
X163195000Y-83820000D02*
X163195000Y-80010000D01*
X177165000Y-110410000D02*
X179785000Y-110410000D01*
X179785000Y-110410000D02*
X183515000Y-106680000D01*
X183515000Y-106680000D02*
X183515000Y-92075000D01*
X101892100Y-33782000D02*
X101892100Y-36401159D01*
X101892100Y-36401159D02*
X103219799Y-37728858D01*
X143891000Y-48641000D02*
X143891000Y-55880000D01*
X103219799Y-37728858D02*
X109537374Y-37728858D01*
X109537374Y-37728858D02*
X114269942Y-32996290D01*
X114269942Y-32996290D02*
X128246290Y-32996290D01*
X128246290Y-32996290D02*
X143891000Y-48641000D01*
X116459000Y-74295000D02*
X134022478Y-74295000D01*
X134022478Y-74295000D02*
X139828053Y-80100575D01*
X139828053Y-80100575D02*
X147668127Y-80100575D01*
X147668127Y-80100575D02*
X152368802Y-75399900D01*
X152368802Y-75399900D02*
X162656113Y-75399900D01*
X162656113Y-75399900D02*
X169806213Y-68249800D01*
X169806213Y-68249800D02*
X174625000Y-68249800D01*
X174625000Y-68249800D02*
X176392314Y-68249800D01*
X176392314Y-68249800D02*
X188595000Y-68249800D01*
X84328000Y-88900000D02*
X108585000Y-88900000D01*
X108585000Y-88900000D02*
X112395000Y-85090000D01*
X116459000Y-74295000D02*
X116459000Y-81026000D01*
X116459000Y-81026000D02*
X112395000Y-85090000D01*
D27*
G36*
X195389180Y-125559500D02*
X38270500Y-125559500D01*
X38270500Y-122592871D01*
X38830680Y-122592871D01*
X39286450Y-123695918D01*
X40129644Y-124540584D01*
X41231893Y-124998278D01*
X42425391Y-124999320D01*
X43461655Y-124571144D01*
X111016684Y-124571144D01*
X111168892Y-124880996D01*
X111909340Y-125221487D01*
X112723725Y-125252704D01*
X113488065Y-124969892D01*
X113621108Y-124880996D01*
X113773316Y-124571144D01*
X112395000Y-123192828D01*
X111016684Y-124571144D01*
X43461655Y-124571144D01*
X43528438Y-124543550D01*
X44373104Y-123700356D01*
X44830798Y-122598107D01*
X44831840Y-121404609D01*
X44376070Y-120301562D01*
X43532876Y-119456896D01*
X42430627Y-118999202D01*
X41237129Y-118998160D01*
X40134082Y-119453930D01*
X39289416Y-120297124D01*
X38831722Y-121399373D01*
X38830680Y-122592871D01*
X38270500Y-122592871D01*
X38270500Y-96406273D01*
X43123306Y-96406273D01*
X43556309Y-97454220D01*
X44357383Y-98256693D01*
X44440159Y-98291065D01*
X43856110Y-98874096D01*
X43474754Y-99792501D01*
X43473887Y-100786936D01*
X43853638Y-101706005D01*
X44514087Y-102367608D01*
X43866270Y-103014296D01*
X43484914Y-103932701D01*
X43484047Y-104927136D01*
X43863798Y-105846205D01*
X44234160Y-106217214D01*
X44234160Y-116469160D01*
X44367371Y-117138856D01*
X44746723Y-117706597D01*
X49016463Y-121976337D01*
X49584204Y-122355689D01*
X50253900Y-122488900D01*
X93392920Y-122488900D01*
X94183384Y-123280744D01*
X95285633Y-123738438D01*
X96479131Y-123739480D01*
X97013398Y-123518725D01*
X110332296Y-123518725D01*
X110615108Y-124283065D01*
X110704004Y-124416108D01*
X111013856Y-124568316D01*
X112392172Y-123190000D01*
X112397828Y-123190000D01*
X113776144Y-124568316D01*
X114085996Y-124416108D01*
X114426487Y-123675660D01*
X114457704Y-122861275D01*
X114174892Y-122096935D01*
X114085996Y-121963892D01*
X113776144Y-121811684D01*
X112397828Y-123190000D01*
X112392172Y-123190000D01*
X111013856Y-121811684D01*
X110704004Y-121963892D01*
X110363513Y-122704340D01*
X110332296Y-123518725D01*
X97013398Y-123518725D01*
X97582178Y-123283710D01*
X98426844Y-122440516D01*
X98689132Y-121808856D01*
X111016684Y-121808856D01*
X112395000Y-123187172D01*
X113773316Y-121808856D01*
X113621108Y-121499004D01*
X112880660Y-121158513D01*
X112066275Y-121127296D01*
X111301935Y-121410108D01*
X111168892Y-121499004D01*
X111016684Y-121808856D01*
X98689132Y-121808856D01*
X98884538Y-121338267D01*
X98885580Y-120144769D01*
X98711722Y-119724000D01*
X175454857Y-119724000D01*
X175454857Y-124774000D01*
X181669143Y-124774000D01*
X181669143Y-122592871D01*
X188830380Y-122592871D01*
X189286150Y-123695918D01*
X190129344Y-124540584D01*
X191231593Y-124998278D01*
X192425091Y-124999320D01*
X193528138Y-124543550D01*
X194372804Y-123700356D01*
X194830498Y-122598107D01*
X194831540Y-121404609D01*
X194375770Y-120301562D01*
X193532576Y-119456896D01*
X192430327Y-118999202D01*
X191236829Y-118998160D01*
X190133782Y-119453930D01*
X189289116Y-120297124D01*
X188831422Y-121399373D01*
X188830380Y-122592871D01*
X181669143Y-122592871D01*
X181669143Y-119724000D01*
X175454857Y-119724000D01*
X98711722Y-119724000D01*
X98429810Y-119041722D01*
X97586616Y-118197056D01*
X96484367Y-117739362D01*
X95290869Y-117738320D01*
X94187822Y-118194090D01*
X93391624Y-118988900D01*
X50978774Y-118988900D01*
X47734160Y-115744286D01*
X47734160Y-106217153D01*
X48102050Y-105849904D01*
X48483406Y-104931499D01*
X48484273Y-103937064D01*
X48104522Y-103017995D01*
X47444073Y-102356392D01*
X47759114Y-102041900D01*
X52606000Y-102041900D01*
X52606000Y-106264462D01*
X52450087Y-106420103D01*
X52106901Y-107246586D01*
X52106120Y-108141488D01*
X52447863Y-108968569D01*
X52606000Y-109126982D01*
X52606000Y-109638126D01*
X51797754Y-110446372D01*
X51481667Y-110446096D01*
X50625168Y-110799994D01*
X49969297Y-111454721D01*
X49613905Y-112310601D01*
X49613096Y-113237333D01*
X49966994Y-114093832D01*
X50621721Y-114749703D01*
X51477601Y-115105095D01*
X52404333Y-115105904D01*
X53260832Y-114752006D01*
X53916703Y-114097279D01*
X54272095Y-113241399D01*
X54272098Y-113237333D01*
X64599096Y-113237333D01*
X64952994Y-114093832D01*
X65607721Y-114749703D01*
X66463601Y-115105095D01*
X67390333Y-115105904D01*
X68246832Y-114752006D01*
X68473233Y-114526000D01*
X69702408Y-114526000D01*
X69925721Y-114749703D01*
X70781601Y-115105095D01*
X71708333Y-115105904D01*
X72564832Y-114752006D01*
X73220703Y-114097279D01*
X73576095Y-113241399D01*
X73576904Y-112314667D01*
X73223006Y-111458168D01*
X72568279Y-110802297D01*
X71712399Y-110446905D01*
X70785667Y-110446096D01*
X69929168Y-110799994D01*
X69702767Y-111026000D01*
X68473592Y-111026000D01*
X68250279Y-110802297D01*
X67394399Y-110446905D01*
X66467667Y-110446096D01*
X65611168Y-110799994D01*
X64955297Y-111454721D01*
X64599905Y-112310601D01*
X64599096Y-113237333D01*
X54272098Y-113237333D01*
X54272374Y-112921500D01*
X55593437Y-111600437D01*
X55972789Y-111032696D01*
X56106000Y-110363000D01*
X56106000Y-109127538D01*
X56261913Y-108971897D01*
X56367628Y-108717306D01*
X63497522Y-108717306D01*
X63589008Y-108975298D01*
X64149138Y-109232661D01*
X64765119Y-109256082D01*
X65343173Y-109041994D01*
X65442992Y-108975298D01*
X65534478Y-108717306D01*
X72641522Y-108717306D01*
X72733008Y-108975298D01*
X73293138Y-109232661D01*
X73909119Y-109256082D01*
X74487173Y-109041994D01*
X74586992Y-108975298D01*
X74678478Y-108717306D01*
X73660000Y-107698828D01*
X72641522Y-108717306D01*
X65534478Y-108717306D01*
X64516000Y-107698828D01*
X63497522Y-108717306D01*
X56367628Y-108717306D01*
X56605099Y-108145414D01*
X56605273Y-107945119D01*
X62955918Y-107945119D01*
X63170006Y-108523173D01*
X63236702Y-108622992D01*
X63494694Y-108714478D01*
X64513172Y-107696000D01*
X64518828Y-107696000D01*
X65537306Y-108714478D01*
X65795298Y-108622992D01*
X66052661Y-108062862D01*
X66057137Y-107945119D01*
X72099918Y-107945119D01*
X72314006Y-108523173D01*
X72380702Y-108622992D01*
X72638694Y-108714478D01*
X73657172Y-107696000D01*
X73662828Y-107696000D01*
X74681306Y-108714478D01*
X74939298Y-108622992D01*
X75196661Y-108062862D01*
X75220082Y-107446881D01*
X75005994Y-106868827D01*
X74939298Y-106769008D01*
X74681306Y-106677522D01*
X73662828Y-107696000D01*
X73657172Y-107696000D01*
X72638694Y-106677522D01*
X72380702Y-106769008D01*
X72123339Y-107329138D01*
X72099918Y-107945119D01*
X66057137Y-107945119D01*
X66076082Y-107446881D01*
X65861994Y-106868827D01*
X65795298Y-106769008D01*
X65537306Y-106677522D01*
X64518828Y-107696000D01*
X64513172Y-107696000D01*
X63494694Y-106677522D01*
X63236702Y-106769008D01*
X62979339Y-107329138D01*
X62955918Y-107945119D01*
X56605273Y-107945119D01*
X56605880Y-107250512D01*
X56367957Y-106674694D01*
X63497522Y-106674694D01*
X64516000Y-107693172D01*
X65534478Y-106674694D01*
X72641522Y-106674694D01*
X73660000Y-107693172D01*
X74678478Y-106674694D01*
X74586992Y-106416702D01*
X74026862Y-106159339D01*
X73410881Y-106135918D01*
X72832827Y-106350006D01*
X72733008Y-106416702D01*
X72641522Y-106674694D01*
X65534478Y-106674694D01*
X65442992Y-106416702D01*
X64882862Y-106159339D01*
X64266881Y-106135918D01*
X63688827Y-106350006D01*
X63589008Y-106416702D01*
X63497522Y-106674694D01*
X56367957Y-106674694D01*
X56264137Y-106423431D01*
X56106000Y-106265018D01*
X56106000Y-101507538D01*
X56261913Y-101351897D01*
X56605099Y-100525414D01*
X56605102Y-100521488D01*
X62266120Y-100521488D01*
X62607863Y-101348569D01*
X63240103Y-101981913D01*
X64066586Y-102325099D01*
X64961488Y-102325880D01*
X65788569Y-101984137D01*
X65946982Y-101826000D01*
X72228462Y-101826000D01*
X72384103Y-101981913D01*
X73210586Y-102325099D01*
X74105488Y-102325880D01*
X74932569Y-101984137D01*
X75565913Y-101351897D01*
X75909099Y-100525414D01*
X75909102Y-100521488D01*
X81570120Y-100521488D01*
X81911863Y-101348569D01*
X82070000Y-101506982D01*
X82070000Y-106264462D01*
X81914087Y-106420103D01*
X81570901Y-107246586D01*
X81570120Y-108141488D01*
X81911863Y-108968569D01*
X82070000Y-109126982D01*
X82070000Y-110363000D01*
X82203211Y-111032696D01*
X82582563Y-111600437D01*
X83903372Y-112921246D01*
X83903096Y-113237333D01*
X84256994Y-114093832D01*
X84911721Y-114749703D01*
X85767601Y-115105095D01*
X86694333Y-115105904D01*
X87550832Y-114752006D01*
X88206703Y-114097279D01*
X88298007Y-113877394D01*
X138775434Y-113877394D01*
X138958226Y-114213368D01*
X139789501Y-114595732D01*
X140703823Y-114630875D01*
X141561995Y-114313447D01*
X141711774Y-114213368D01*
X141894566Y-113877394D01*
X140335000Y-112317828D01*
X138775434Y-113877394D01*
X88298007Y-113877394D01*
X88562095Y-113241399D01*
X88562581Y-112683823D01*
X138019125Y-112683823D01*
X138336553Y-113541995D01*
X138436632Y-113691774D01*
X138772606Y-113874566D01*
X140332172Y-112315000D01*
X140337828Y-112315000D01*
X141897394Y-113874566D01*
X142233368Y-113691774D01*
X142615732Y-112860499D01*
X142650875Y-111946177D01*
X142333447Y-111088005D01*
X142233368Y-110938226D01*
X141897394Y-110755434D01*
X140337828Y-112315000D01*
X140332172Y-112315000D01*
X138772606Y-110755434D01*
X138436632Y-110938226D01*
X138054268Y-111769501D01*
X138019125Y-112683823D01*
X88562581Y-112683823D01*
X88562904Y-112314667D01*
X88209006Y-111458168D01*
X87554279Y-110802297D01*
X87434610Y-110752606D01*
X138775434Y-110752606D01*
X140335000Y-112312172D01*
X141894566Y-110752606D01*
X141711774Y-110416632D01*
X140880499Y-110034268D01*
X139966177Y-109999125D01*
X139108005Y-110316553D01*
X138958226Y-110416632D01*
X138775434Y-110752606D01*
X87434610Y-110752606D01*
X86698399Y-110446905D01*
X86378500Y-110446626D01*
X85570000Y-109638126D01*
X85570000Y-109127538D01*
X85725913Y-108971897D01*
X86069099Y-108145414D01*
X86069880Y-107250512D01*
X85728137Y-106423431D01*
X85570000Y-106265018D01*
X85570000Y-101507538D01*
X85725913Y-101351897D01*
X85987843Y-100721100D01*
X93392920Y-100721100D01*
X94183384Y-101512944D01*
X95285633Y-101970638D01*
X96479131Y-101971680D01*
X97582178Y-101515910D01*
X98426844Y-100672716D01*
X98471571Y-100565000D01*
X137310512Y-100565000D01*
X137310512Y-104065000D01*
X137397673Y-104528222D01*
X137671437Y-104953663D01*
X138089153Y-105239076D01*
X138585000Y-105339488D01*
X142085000Y-105339488D01*
X142548222Y-105252327D01*
X142973663Y-104978563D01*
X143259076Y-104560847D01*
X143359488Y-104065000D01*
X175260000Y-104065000D01*
X175929696Y-103931789D01*
X176497437Y-103552437D01*
X176640331Y-103409543D01*
X177759119Y-103410519D01*
X178862143Y-102954759D01*
X179706793Y-102111582D01*
X180164478Y-101009355D01*
X180165519Y-99815881D01*
X179709759Y-98712857D01*
X178866582Y-97868207D01*
X177764355Y-97410522D01*
X176570881Y-97409481D01*
X175467857Y-97865241D01*
X174623207Y-98708418D01*
X174165522Y-99810645D01*
X174164864Y-100565000D01*
X157014874Y-100565000D01*
X154785000Y-98335126D01*
X154785000Y-89696538D01*
X154940913Y-89540897D01*
X155046628Y-89286306D01*
X162176522Y-89286306D01*
X162268008Y-89544298D01*
X162828138Y-89801661D01*
X163444119Y-89825082D01*
X164022173Y-89610994D01*
X164121992Y-89544298D01*
X164213478Y-89286306D01*
X163195000Y-88267828D01*
X162176522Y-89286306D01*
X155046628Y-89286306D01*
X155284099Y-88714414D01*
X155284273Y-88514119D01*
X161634918Y-88514119D01*
X161849006Y-89092173D01*
X161915702Y-89191992D01*
X162173694Y-89283478D01*
X163192172Y-88265000D01*
X163197828Y-88265000D01*
X164216306Y-89283478D01*
X164474298Y-89191992D01*
X164731661Y-88631862D01*
X164755082Y-88015881D01*
X164540994Y-87437827D01*
X164474298Y-87338008D01*
X164216306Y-87246522D01*
X163197828Y-88265000D01*
X163192172Y-88265000D01*
X162173694Y-87246522D01*
X161915702Y-87338008D01*
X161658339Y-87898138D01*
X161634918Y-88514119D01*
X155284273Y-88514119D01*
X155284880Y-87819512D01*
X155046957Y-87243694D01*
X162176522Y-87243694D01*
X163195000Y-88262172D01*
X164213478Y-87243694D01*
X164121992Y-86985702D01*
X163561862Y-86728339D01*
X162945881Y-86704918D01*
X162367827Y-86919006D01*
X162268008Y-86985702D01*
X162176522Y-87243694D01*
X155046957Y-87243694D01*
X154943137Y-86992431D01*
X154785000Y-86834018D01*
X154785000Y-85251538D01*
X154940913Y-85095897D01*
X155284099Y-84269414D01*
X155284880Y-83374512D01*
X154943137Y-82547431D01*
X154310897Y-81914087D01*
X153484414Y-81570901D01*
X152589512Y-81570120D01*
X151762431Y-81911863D01*
X151129087Y-82544103D01*
X150785901Y-83370586D01*
X150785120Y-84265488D01*
X151126863Y-85092569D01*
X151285000Y-85250982D01*
X151285000Y-86833462D01*
X151129087Y-86989103D01*
X150785901Y-87815586D01*
X150785120Y-88710488D01*
X151126863Y-89537569D01*
X151285000Y-89695982D01*
X151285000Y-99060000D01*
X151418211Y-99729696D01*
X151797563Y-100297437D01*
X152065126Y-100565000D01*
X143359488Y-100565000D01*
X143272327Y-100101778D01*
X142998563Y-99676337D01*
X142580847Y-99390924D01*
X142085000Y-99290512D01*
X138585000Y-99290512D01*
X138121778Y-99377673D01*
X137696337Y-99651437D01*
X137410924Y-100069153D01*
X137310512Y-100565000D01*
X98471571Y-100565000D01*
X98884538Y-99570467D01*
X98885580Y-98376969D01*
X98429810Y-97273922D01*
X97586616Y-96429256D01*
X96484367Y-95971562D01*
X95290869Y-95970520D01*
X94187822Y-96426290D01*
X93391624Y-97221100D01*
X85570000Y-97221100D01*
X85570000Y-97117874D01*
X86378246Y-96309628D01*
X86694333Y-96309904D01*
X87550832Y-95956006D01*
X88206703Y-95301279D01*
X88562095Y-94445399D01*
X88562904Y-93518667D01*
X88209006Y-92662168D01*
X87554279Y-92006297D01*
X86698399Y-91650905D01*
X85771667Y-91650096D01*
X84915168Y-92003994D01*
X84259297Y-92658721D01*
X83903905Y-93514601D01*
X83903626Y-93834500D01*
X82582563Y-95155563D01*
X82203211Y-95723304D01*
X82070000Y-96393000D01*
X82070000Y-98644462D01*
X81914087Y-98800103D01*
X81570901Y-99626586D01*
X81570120Y-100521488D01*
X75909102Y-100521488D01*
X75909294Y-100301580D01*
X76421437Y-99789437D01*
X76800789Y-99221696D01*
X76934000Y-98552000D01*
X76934000Y-89916000D01*
X76820518Y-89345488D01*
X82078120Y-89345488D01*
X82419863Y-90172569D01*
X83052103Y-90805913D01*
X83878586Y-91149099D01*
X84773488Y-91149880D01*
X85600569Y-90808137D01*
X85758982Y-90650000D01*
X108585000Y-90650000D01*
X109254696Y-90516789D01*
X109822437Y-90137437D01*
X112121512Y-87838362D01*
X112939332Y-87839076D01*
X113949923Y-87421508D01*
X114723791Y-86648990D01*
X115143122Y-85639129D01*
X115143840Y-84816034D01*
X117696437Y-82263437D01*
X118075789Y-81695696D01*
X118209000Y-81026000D01*
X118209000Y-76539440D01*
X118704304Y-76045000D01*
X133297604Y-76045000D01*
X138590616Y-81338012D01*
X139158357Y-81717364D01*
X139828053Y-81850575D01*
X147668127Y-81850575D01*
X148337823Y-81717364D01*
X148905564Y-81338012D01*
X149787987Y-80455589D01*
X160944610Y-80455589D01*
X161286431Y-81282858D01*
X161445000Y-81441704D01*
X161445000Y-82388462D01*
X161289087Y-82544103D01*
X160945901Y-83370586D01*
X160945120Y-84265488D01*
X161286863Y-85092569D01*
X161919103Y-85725913D01*
X162745586Y-86069099D01*
X163640488Y-86069880D01*
X164467569Y-85728137D01*
X164625982Y-85570000D01*
X178450676Y-85570000D01*
X181765000Y-88884324D01*
X181765000Y-105955126D01*
X179875636Y-107844490D01*
X179828563Y-107771337D01*
X179410847Y-107485924D01*
X178915000Y-107385512D01*
X175415000Y-107385512D01*
X174951778Y-107472673D01*
X174526337Y-107746437D01*
X174240924Y-108164153D01*
X174140512Y-108660000D01*
X174140512Y-112160000D01*
X174227673Y-112623222D01*
X174501437Y-113048663D01*
X174919153Y-113334076D01*
X175415000Y-113434488D01*
X178915000Y-113434488D01*
X179378222Y-113347327D01*
X179803663Y-113073563D01*
X180089076Y-112655847D01*
X180189488Y-112160000D01*
X180189488Y-112079542D01*
X180454696Y-112026789D01*
X181022437Y-111647437D01*
X184752437Y-107917437D01*
X185131789Y-107349696D01*
X185265000Y-106680000D01*
X185265000Y-79423394D01*
X186408194Y-78280200D01*
X186809947Y-78280200D01*
X187177196Y-78648090D01*
X188095601Y-79029446D01*
X189090036Y-79030313D01*
X190009105Y-78650562D01*
X190712890Y-77948004D01*
X191094246Y-77029599D01*
X191095113Y-76035164D01*
X190715362Y-75116095D01*
X190012804Y-74412310D01*
X189213074Y-74080232D01*
X189555457Y-73953497D01*
X189671931Y-73875671D01*
X189793855Y-73591683D01*
X188595000Y-72392828D01*
X187396145Y-73591683D01*
X187518069Y-73875671D01*
X187970424Y-74083612D01*
X187180895Y-74409838D01*
X186809886Y-74780200D01*
X185683325Y-74780200D01*
X185683320Y-74780199D01*
X185683315Y-74780200D01*
X176410053Y-74780200D01*
X176042804Y-74412310D01*
X175243074Y-74080232D01*
X175585457Y-73953497D01*
X175701931Y-73875671D01*
X175823855Y-73591683D01*
X174625000Y-72392828D01*
X173426145Y-73591683D01*
X173548069Y-73875671D01*
X174000424Y-74083612D01*
X173210895Y-74409838D01*
X172507110Y-75112396D01*
X172125754Y-76030801D01*
X172124887Y-77025236D01*
X172504638Y-77944305D01*
X173207196Y-78648090D01*
X174125601Y-79029446D01*
X175120036Y-79030313D01*
X176039105Y-78650562D01*
X176410114Y-78280200D01*
X181848209Y-78280200D01*
X181765000Y-78698520D01*
X181765000Y-83934576D01*
X180412987Y-82582563D01*
X179845246Y-82203211D01*
X179175550Y-82070000D01*
X164945000Y-82070000D01*
X164945000Y-81442259D01*
X165101345Y-81286187D01*
X165444608Y-80459516D01*
X165445390Y-79564411D01*
X165103569Y-78737142D01*
X164471187Y-78103655D01*
X163644516Y-77760392D01*
X162749411Y-77759610D01*
X161922142Y-78101431D01*
X161288655Y-78733813D01*
X160945392Y-79560484D01*
X160944610Y-80455589D01*
X149787987Y-80455589D01*
X153093676Y-77149900D01*
X162656113Y-77149900D01*
X163325809Y-77016689D01*
X163893550Y-76637337D01*
X167851864Y-72679023D01*
X172812967Y-72679023D01*
X173061503Y-73350457D01*
X173139329Y-73466931D01*
X173423317Y-73588855D01*
X174622172Y-72390000D01*
X174627828Y-72390000D01*
X175826683Y-73588855D01*
X176110671Y-73466931D01*
X176409704Y-72816413D01*
X176414952Y-72679023D01*
X186782967Y-72679023D01*
X187031503Y-73350457D01*
X187109329Y-73466931D01*
X187393317Y-73588855D01*
X188592172Y-72390000D01*
X188597828Y-72390000D01*
X189796683Y-73588855D01*
X190080671Y-73466931D01*
X190379704Y-72816413D01*
X190407033Y-72100977D01*
X190158497Y-71429543D01*
X190080671Y-71313069D01*
X189796683Y-71191145D01*
X188597828Y-72390000D01*
X188592172Y-72390000D01*
X187393317Y-71191145D01*
X187109329Y-71313069D01*
X186810296Y-71963587D01*
X186782967Y-72679023D01*
X176414952Y-72679023D01*
X176437033Y-72100977D01*
X176188497Y-71429543D01*
X176110671Y-71313069D01*
X175826683Y-71191145D01*
X174627828Y-72390000D01*
X174622172Y-72390000D01*
X173423317Y-71191145D01*
X173139329Y-71313069D01*
X172840296Y-71963587D01*
X172812967Y-72679023D01*
X167851864Y-72679023D01*
X170531087Y-69999800D01*
X172839947Y-69999800D01*
X173207196Y-70367690D01*
X174006926Y-70699768D01*
X173664543Y-70826503D01*
X173548069Y-70904329D01*
X173426145Y-71188317D01*
X174625000Y-72387172D01*
X175823855Y-71188317D01*
X175701931Y-70904329D01*
X175249576Y-70696388D01*
X176039105Y-70370162D01*
X176410114Y-69999800D01*
X186809947Y-69999800D01*
X187177196Y-70367690D01*
X187976926Y-70699768D01*
X187634543Y-70826503D01*
X187518069Y-70904329D01*
X187396145Y-71188317D01*
X188595000Y-72387172D01*
X189793855Y-71188317D01*
X189671931Y-70904329D01*
X189219576Y-70696388D01*
X190009105Y-70370162D01*
X190712890Y-69667604D01*
X191094246Y-68749199D01*
X191095113Y-67754764D01*
X190715362Y-66835695D01*
X190130057Y-66249368D01*
X190207400Y-66217411D01*
X191009873Y-65416337D01*
X191444704Y-64369147D01*
X191445694Y-63235267D01*
X191012691Y-62187320D01*
X190211617Y-61384847D01*
X189164427Y-60950016D01*
X188030547Y-60949026D01*
X186982600Y-61382029D01*
X186180127Y-62183103D01*
X185745296Y-63230293D01*
X185744306Y-64364173D01*
X186177309Y-65412120D01*
X186978383Y-66214593D01*
X187061159Y-66248965D01*
X186809886Y-66499800D01*
X176410053Y-66499800D01*
X176160057Y-66249368D01*
X176237400Y-66217411D01*
X177039873Y-65416337D01*
X177474704Y-64369147D01*
X177475694Y-63235267D01*
X177042691Y-62187320D01*
X176241617Y-61384847D01*
X175194427Y-60950016D01*
X174060547Y-60949026D01*
X173012600Y-61382029D01*
X172210127Y-62183103D01*
X171775296Y-63230293D01*
X171774306Y-64364173D01*
X172207309Y-65412120D01*
X173008383Y-66214593D01*
X173091159Y-66248965D01*
X172839886Y-66499800D01*
X169806213Y-66499800D01*
X169136517Y-66633011D01*
X168568776Y-67012363D01*
X161931239Y-73649900D01*
X152368802Y-73649900D01*
X151699106Y-73783111D01*
X151131365Y-74162463D01*
X146943253Y-78350575D01*
X140552927Y-78350575D01*
X137933434Y-75731082D01*
X142457747Y-75731082D01*
X142619225Y-76048851D01*
X143387203Y-76402035D01*
X144231879Y-76434441D01*
X145024660Y-76141136D01*
X145162775Y-76048851D01*
X145324253Y-75731082D01*
X143891000Y-74297828D01*
X142457747Y-75731082D01*
X137933434Y-75731082D01*
X136838231Y-74635879D01*
X141751559Y-74635879D01*
X142044864Y-75428660D01*
X142137149Y-75566775D01*
X142454918Y-75728253D01*
X143888172Y-74295000D01*
X143893828Y-74295000D01*
X145327082Y-75728253D01*
X145644851Y-75566775D01*
X145998035Y-74798797D01*
X146030441Y-73954121D01*
X145737136Y-73161340D01*
X145644851Y-73023225D01*
X145327082Y-72861747D01*
X143893828Y-74295000D01*
X143888172Y-74295000D01*
X142454918Y-72861747D01*
X142137149Y-73023225D01*
X141783965Y-73791203D01*
X141751559Y-74635879D01*
X136838231Y-74635879D01*
X135259915Y-73057563D01*
X134962622Y-72858918D01*
X142457747Y-72858918D01*
X143891000Y-74292172D01*
X145324253Y-72858918D01*
X145162775Y-72541149D01*
X144394797Y-72187965D01*
X143550121Y-72155559D01*
X142757340Y-72448864D01*
X142619225Y-72541149D01*
X142457747Y-72858918D01*
X134962622Y-72858918D01*
X134692174Y-72678211D01*
X134022478Y-72545000D01*
X118703440Y-72545000D01*
X118061210Y-71901648D01*
X117023353Y-71470692D01*
X115899578Y-71469711D01*
X114860970Y-71898855D01*
X114065648Y-72692790D01*
X113634692Y-73730647D01*
X113633711Y-74854422D01*
X114062855Y-75893030D01*
X114709000Y-76540304D01*
X114709000Y-80301126D01*
X112668488Y-82341638D01*
X111850668Y-82340924D01*
X110840077Y-82758492D01*
X110066209Y-83531010D01*
X109646878Y-84540871D01*
X109646160Y-85363966D01*
X107860126Y-87150000D01*
X85759538Y-87150000D01*
X85603897Y-86994087D01*
X84777414Y-86650901D01*
X83882512Y-86650120D01*
X83055431Y-86991863D01*
X82422087Y-87624103D01*
X82078901Y-88450586D01*
X82078120Y-89345488D01*
X76820518Y-89345488D01*
X76800789Y-89246304D01*
X76421437Y-88678563D01*
X76417688Y-88674814D01*
X76417880Y-88454512D01*
X76076137Y-87627431D01*
X75443897Y-86994087D01*
X74617414Y-86650901D01*
X73722512Y-86650120D01*
X72895431Y-86991863D01*
X72262087Y-87624103D01*
X71918901Y-88450586D01*
X71918120Y-89345488D01*
X72259863Y-90172569D01*
X72892103Y-90805913D01*
X73434000Y-91030928D01*
X73434000Y-93172813D01*
X73223006Y-92662168D01*
X72568279Y-92006297D01*
X71712399Y-91650905D01*
X70785667Y-91650096D01*
X69929168Y-92003994D01*
X69702767Y-92230000D01*
X68473592Y-92230000D01*
X68250279Y-92006297D01*
X67394399Y-91650905D01*
X66467667Y-91650096D01*
X65611168Y-92003994D01*
X64955297Y-92658721D01*
X64599905Y-93514601D01*
X64599096Y-94441333D01*
X64952994Y-95297832D01*
X65607721Y-95953703D01*
X66463601Y-96309095D01*
X67390333Y-96309904D01*
X68246832Y-95956006D01*
X68473233Y-95730000D01*
X69702408Y-95730000D01*
X69925721Y-95953703D01*
X70781601Y-96309095D01*
X71708333Y-96309904D01*
X72564832Y-95956006D01*
X73220703Y-95301279D01*
X73434000Y-94787602D01*
X73434000Y-97826312D01*
X73214512Y-97826120D01*
X72387431Y-98167863D01*
X72229018Y-98326000D01*
X65947538Y-98326000D01*
X65791897Y-98170087D01*
X64965414Y-97826901D01*
X64070512Y-97826120D01*
X63243431Y-98167863D01*
X62610087Y-98800103D01*
X62266901Y-99626586D01*
X62266120Y-100521488D01*
X56605102Y-100521488D01*
X56605880Y-99630512D01*
X56264137Y-98803431D01*
X56106000Y-98645018D01*
X56106000Y-96393000D01*
X55972789Y-95723304D01*
X55593437Y-95155563D01*
X54272628Y-93834754D01*
X54272904Y-93518667D01*
X53919006Y-92662168D01*
X53264279Y-92006297D01*
X52408399Y-91650905D01*
X51481667Y-91650096D01*
X50625168Y-92003994D01*
X49969297Y-92658721D01*
X49613905Y-93514601D01*
X49613096Y-94441333D01*
X49966994Y-95297832D01*
X50621721Y-95953703D01*
X51477601Y-96309095D01*
X51797500Y-96309374D01*
X52606000Y-97117874D01*
X52606000Y-98541900D01*
X47759053Y-98541900D01*
X47509057Y-98291468D01*
X47586400Y-98259511D01*
X48388873Y-97458437D01*
X48823704Y-96411247D01*
X48824694Y-95277367D01*
X48391691Y-94229420D01*
X47590617Y-93426947D01*
X46543427Y-92992116D01*
X45409547Y-92991126D01*
X44361600Y-93424129D01*
X43559127Y-94225203D01*
X43124296Y-95272393D01*
X43123306Y-96406273D01*
X38270500Y-96406273D01*
X38270500Y-66548000D01*
X38382000Y-66548000D01*
X38382000Y-76708000D01*
X38515211Y-77377696D01*
X38894563Y-77945437D01*
X45879563Y-84930437D01*
X46447304Y-85309789D01*
X47117000Y-85443000D01*
X52811408Y-85443000D01*
X53034721Y-85666703D01*
X53890601Y-86022095D01*
X54817333Y-86022904D01*
X55673832Y-85669006D01*
X55900233Y-85443000D01*
X68559408Y-85443000D01*
X68782721Y-85666703D01*
X69638601Y-86022095D01*
X70565333Y-86022904D01*
X71421832Y-85669006D01*
X71648233Y-85443000D01*
X73586547Y-85443000D01*
X74256243Y-85309789D01*
X74267310Y-85302394D01*
X94325434Y-85302394D01*
X94508226Y-85638368D01*
X95339501Y-86020732D01*
X96253823Y-86055875D01*
X97111995Y-85738447D01*
X97261774Y-85638368D01*
X97444566Y-85302394D01*
X95885000Y-83742828D01*
X94325434Y-85302394D01*
X74267310Y-85302394D01*
X74823984Y-84930437D01*
X75645598Y-84108823D01*
X93569125Y-84108823D01*
X93886553Y-84966995D01*
X93986632Y-85116774D01*
X94322606Y-85299566D01*
X95882172Y-83740000D01*
X95887828Y-83740000D01*
X97447394Y-85299566D01*
X97783368Y-85116774D01*
X98165732Y-84285499D01*
X98200875Y-83371177D01*
X97883447Y-82513005D01*
X97783368Y-82363226D01*
X97447394Y-82180434D01*
X95887828Y-83740000D01*
X95882172Y-83740000D01*
X94322606Y-82180434D01*
X93986632Y-82363226D01*
X93604268Y-83194501D01*
X93569125Y-84108823D01*
X75645598Y-84108823D01*
X77576815Y-82177606D01*
X94325434Y-82177606D01*
X95885000Y-83737172D01*
X97444566Y-82177606D01*
X97261774Y-81841632D01*
X96430499Y-81459268D01*
X95516177Y-81424125D01*
X94658005Y-81741553D01*
X94508226Y-81841632D01*
X94325434Y-82177606D01*
X77576815Y-82177606D01*
X79469437Y-80284984D01*
X79848789Y-79717243D01*
X79982000Y-79047547D01*
X79982000Y-77606025D01*
X80370343Y-77356133D01*
X80655756Y-76938417D01*
X80756168Y-76442570D01*
X80756168Y-74941430D01*
X80669007Y-74478208D01*
X80395243Y-74052767D01*
X79977527Y-73767354D01*
X79481680Y-73666942D01*
X76982320Y-73666942D01*
X76519098Y-73754103D01*
X76093657Y-74027867D01*
X75808244Y-74445583D01*
X75707832Y-74941430D01*
X75707832Y-76442570D01*
X75794993Y-76905792D01*
X76068757Y-77331233D01*
X76482000Y-77613590D01*
X76482000Y-78322673D01*
X72861673Y-81943000D01*
X71648592Y-81943000D01*
X71425279Y-81719297D01*
X70569399Y-81363905D01*
X69642667Y-81363096D01*
X68786168Y-81716994D01*
X68559767Y-81943000D01*
X61722190Y-81943000D01*
X63213437Y-80451753D01*
X63592789Y-79884012D01*
X63726000Y-79214316D01*
X63726000Y-77248738D01*
X63938699Y-77106617D01*
X64372368Y-76457585D01*
X64524652Y-75692000D01*
X64372368Y-74926415D01*
X63938699Y-74277383D01*
X63289667Y-73843714D01*
X62524082Y-73691430D01*
X61427918Y-73691430D01*
X60662333Y-73843714D01*
X60013301Y-74277383D01*
X59579632Y-74926415D01*
X59427348Y-75692000D01*
X59579632Y-76457585D01*
X60013301Y-77106617D01*
X60226000Y-77248738D01*
X60226000Y-78489442D01*
X56772442Y-81943000D01*
X55900592Y-81943000D01*
X55677279Y-81719297D01*
X54821399Y-81363905D01*
X53894667Y-81363096D01*
X53038168Y-81716994D01*
X52811767Y-81943000D01*
X47841874Y-81943000D01*
X41882000Y-75983126D01*
X41882000Y-67272874D01*
X42850774Y-66304100D01*
X43934947Y-66304100D01*
X44184943Y-66554532D01*
X44107600Y-66586489D01*
X43305127Y-67387563D01*
X42870296Y-68434753D01*
X42869306Y-69568633D01*
X43302309Y-70616580D01*
X44103383Y-71419053D01*
X45150573Y-71853884D01*
X46284453Y-71854874D01*
X47332400Y-71421871D01*
X48134873Y-70620797D01*
X48569704Y-69573607D01*
X48570694Y-68439727D01*
X48137691Y-67391780D01*
X47336617Y-66589307D01*
X47253841Y-66554935D01*
X47837890Y-65971904D01*
X48219246Y-65053499D01*
X48220113Y-64059064D01*
X47840362Y-63139995D01*
X47179913Y-62478392D01*
X47827730Y-61831704D01*
X48209086Y-60913299D01*
X48209953Y-59918864D01*
X47830202Y-58999795D01*
X47585169Y-58754333D01*
X52026096Y-58754333D01*
X52379994Y-59610832D01*
X52606000Y-59837233D01*
X52606000Y-67162408D01*
X52382297Y-67385721D01*
X52026905Y-68241601D01*
X52026096Y-69168333D01*
X52379994Y-70024832D01*
X53034721Y-70680703D01*
X53890601Y-71036095D01*
X54817333Y-71036904D01*
X55673832Y-70683006D01*
X56329703Y-70028279D01*
X56685095Y-69172399D01*
X56685904Y-68245667D01*
X56332006Y-67389168D01*
X56106000Y-67162767D01*
X56106000Y-59837592D01*
X56329703Y-59614279D01*
X56685095Y-58758399D01*
X56685904Y-57831667D01*
X56408968Y-57161430D01*
X59451832Y-57161430D01*
X59451832Y-58662570D01*
X59538993Y-59125792D01*
X59812757Y-59551233D01*
X60230473Y-59836646D01*
X60726320Y-59937058D01*
X61526184Y-59937058D01*
X63274000Y-61684874D01*
X63274000Y-62576462D01*
X63118087Y-62732103D01*
X62774901Y-63558586D01*
X62774120Y-64453488D01*
X63115863Y-65280569D01*
X63274000Y-65438982D01*
X63274000Y-66839126D01*
X61526184Y-68586942D01*
X60726320Y-68586942D01*
X60263098Y-68674103D01*
X59837657Y-68947867D01*
X59552244Y-69365583D01*
X59451832Y-69861430D01*
X59451832Y-71362570D01*
X59538993Y-71825792D01*
X59812757Y-72251233D01*
X60230473Y-72536646D01*
X60726320Y-72637058D01*
X63225680Y-72637058D01*
X63688902Y-72549897D01*
X64114343Y-72276133D01*
X64399756Y-71858417D01*
X64500168Y-71362570D01*
X64500168Y-70562706D01*
X66261437Y-68801437D01*
X66640789Y-68233696D01*
X66774000Y-67564000D01*
X66774000Y-65439538D01*
X66929913Y-65283897D01*
X67273099Y-64457414D01*
X67273880Y-63562512D01*
X66932137Y-62735431D01*
X66774000Y-62577018D01*
X66774000Y-60960000D01*
X66640789Y-60290304D01*
X66261437Y-59722563D01*
X65547207Y-59008333D01*
X67647096Y-59008333D01*
X68000994Y-59864832D01*
X68354000Y-60218455D01*
X68354000Y-67162408D01*
X68130297Y-67385721D01*
X67774905Y-68241601D01*
X67774096Y-69168333D01*
X68127994Y-70024832D01*
X68782721Y-70680703D01*
X69638601Y-71036095D01*
X70565333Y-71036904D01*
X71096503Y-70817429D01*
X76448647Y-70817429D01*
X76530555Y-71107859D01*
X76811834Y-71530228D01*
X77233336Y-71812805D01*
X77730890Y-71912570D01*
X78230000Y-71912570D01*
X78230000Y-70614000D01*
X78234000Y-70614000D01*
X78234000Y-71912570D01*
X78733110Y-71912570D01*
X79230664Y-71812805D01*
X79652166Y-71530228D01*
X79933445Y-71107859D01*
X80015353Y-70817429D01*
X79894178Y-70614000D01*
X78234000Y-70614000D01*
X78230000Y-70614000D01*
X76569822Y-70614000D01*
X76448647Y-70817429D01*
X71096503Y-70817429D01*
X71421832Y-70683006D01*
X71698750Y-70406571D01*
X76448647Y-70406571D01*
X76569822Y-70610000D01*
X78230000Y-70610000D01*
X78230000Y-69311430D01*
X78234000Y-69311430D01*
X78234000Y-70610000D01*
X79894178Y-70610000D01*
X80015353Y-70406571D01*
X79984026Y-70295488D01*
X82205120Y-70295488D01*
X82546863Y-71122569D01*
X83179103Y-71755913D01*
X84005586Y-72099099D01*
X84229420Y-72099294D01*
X87107563Y-74977437D01*
X87675304Y-75356789D01*
X88345000Y-75490000D01*
X92860512Y-75490000D01*
X92947673Y-75953222D01*
X93221437Y-76378663D01*
X93639153Y-76664076D01*
X94135000Y-76764488D01*
X97635000Y-76764488D01*
X98098222Y-76677327D01*
X98523663Y-76403563D01*
X98809076Y-75985847D01*
X98909488Y-75490000D01*
X104060000Y-75490000D01*
X104729696Y-75356789D01*
X105297437Y-74977437D01*
X108175186Y-72099688D01*
X108395488Y-72099880D01*
X109222569Y-71758137D01*
X109855913Y-71125897D01*
X110199099Y-70299414D01*
X110199880Y-69404512D01*
X109858137Y-68577431D01*
X109225897Y-67944087D01*
X108399414Y-67600901D01*
X107504512Y-67600120D01*
X106677431Y-67941863D01*
X106044087Y-68574103D01*
X105700901Y-69400586D01*
X105700706Y-69624420D01*
X103335126Y-71990000D01*
X98909488Y-71990000D01*
X98822327Y-71526778D01*
X98548563Y-71101337D01*
X98130847Y-70815924D01*
X97635000Y-70715512D01*
X97635000Y-60711306D01*
X106931522Y-60711306D01*
X107023008Y-60969298D01*
X107583138Y-61226661D01*
X108199119Y-61250082D01*
X108777173Y-61035994D01*
X108876992Y-60969298D01*
X108968478Y-60711306D01*
X107950000Y-59692828D01*
X106931522Y-60711306D01*
X97635000Y-60711306D01*
X97635000Y-59939119D01*
X106389918Y-59939119D01*
X106604006Y-60517173D01*
X106670702Y-60616992D01*
X106928694Y-60708478D01*
X107947172Y-59690000D01*
X107952828Y-59690000D01*
X108971306Y-60708478D01*
X109229298Y-60616992D01*
X109486661Y-60056862D01*
X109510082Y-59440881D01*
X109295994Y-58862827D01*
X109229298Y-58763008D01*
X108971306Y-58671522D01*
X107952828Y-59690000D01*
X107947172Y-59690000D01*
X106928694Y-58671522D01*
X106670702Y-58763008D01*
X106413339Y-59323138D01*
X106389918Y-59939119D01*
X97635000Y-59939119D01*
X97635000Y-58926994D01*
X97893751Y-58668694D01*
X106931522Y-58668694D01*
X107950000Y-59687172D01*
X108968478Y-58668694D01*
X108876992Y-58410702D01*
X108316862Y-58153339D01*
X107700881Y-58129918D01*
X107122827Y-58344006D01*
X107023008Y-58410702D01*
X106931522Y-58668694D01*
X97893751Y-58668694D01*
X98426793Y-58136582D01*
X98767494Y-57316082D01*
X115025747Y-57316082D01*
X115187225Y-57633851D01*
X115955203Y-57987035D01*
X116799879Y-58019441D01*
X117592660Y-57726136D01*
X117730775Y-57633851D01*
X117892253Y-57316082D01*
X116459000Y-55882828D01*
X115025747Y-57316082D01*
X98767494Y-57316082D01*
X98884478Y-57034355D01*
X98885187Y-56220879D01*
X114319559Y-56220879D01*
X114612864Y-57013660D01*
X114705149Y-57151775D01*
X115022918Y-57313253D01*
X116456172Y-55880000D01*
X116461828Y-55880000D01*
X117895082Y-57313253D01*
X118212851Y-57151775D01*
X118566035Y-56383797D01*
X118598441Y-55539121D01*
X118305136Y-54746340D01*
X118212851Y-54608225D01*
X117895082Y-54446747D01*
X116461828Y-55880000D01*
X116456172Y-55880000D01*
X115022918Y-54446747D01*
X114705149Y-54608225D01*
X114351965Y-55376203D01*
X114319559Y-56220879D01*
X98885187Y-56220879D01*
X98885519Y-55840881D01*
X98429759Y-54737857D01*
X98136333Y-54443918D01*
X115025747Y-54443918D01*
X116459000Y-55877172D01*
X117892253Y-54443918D01*
X117730775Y-54126149D01*
X116962797Y-53772965D01*
X116118121Y-53740559D01*
X115325340Y-54033864D01*
X115187225Y-54126149D01*
X115025747Y-54443918D01*
X98136333Y-54443918D01*
X97586582Y-53893207D01*
X96484355Y-53435522D01*
X95290881Y-53434481D01*
X94187857Y-53890241D01*
X93343207Y-54733418D01*
X92885522Y-55835645D01*
X92884481Y-57029119D01*
X93340241Y-58132143D01*
X94135000Y-58928290D01*
X94135000Y-70715512D01*
X93671778Y-70802673D01*
X93246337Y-71076437D01*
X92960924Y-71494153D01*
X92860512Y-71990000D01*
X89069874Y-71990000D01*
X86704688Y-69624814D01*
X86704880Y-69404512D01*
X86363137Y-68577431D01*
X85730897Y-67944087D01*
X84904414Y-67600901D01*
X84009512Y-67600120D01*
X83182431Y-67941863D01*
X82549087Y-68574103D01*
X82205901Y-69400586D01*
X82205120Y-70295488D01*
X79984026Y-70295488D01*
X79933445Y-70116141D01*
X79652166Y-69693772D01*
X79230664Y-69411195D01*
X78733110Y-69311430D01*
X78234000Y-69311430D01*
X78230000Y-69311430D01*
X77730890Y-69311430D01*
X77233336Y-69411195D01*
X76811834Y-69693772D01*
X76530555Y-70116141D01*
X76448647Y-70406571D01*
X71698750Y-70406571D01*
X72077703Y-70028279D01*
X72433095Y-69172399D01*
X72433904Y-68245667D01*
X72080006Y-67389168D01*
X71854000Y-67162767D01*
X71854000Y-64453488D01*
X72934120Y-64453488D01*
X73275863Y-65280569D01*
X73908103Y-65913913D01*
X74734586Y-66257099D01*
X75629488Y-66257880D01*
X76456569Y-65916137D01*
X76614982Y-65758000D01*
X80137000Y-65758000D01*
X80806696Y-65624789D01*
X81374437Y-65245437D01*
X84680186Y-61939688D01*
X84900488Y-61939880D01*
X85727569Y-61598137D01*
X86360913Y-60965897D01*
X86704099Y-60139414D01*
X86704880Y-59244512D01*
X86363137Y-58417431D01*
X86205000Y-58259018D01*
X86205000Y-52816141D01*
X90836141Y-48185000D01*
X92860512Y-48185000D01*
X92947673Y-48648222D01*
X93221437Y-49073663D01*
X93639153Y-49359076D01*
X94135000Y-49459488D01*
X97635000Y-49459488D01*
X98098222Y-49372327D01*
X98523663Y-49098563D01*
X98809076Y-48680847D01*
X98909488Y-48185000D01*
X110686603Y-48185000D01*
X111356299Y-48051789D01*
X111924040Y-47672437D01*
X117696437Y-41900040D01*
X118075789Y-41332299D01*
X118209000Y-40662603D01*
X118209000Y-39709440D01*
X118852352Y-39067210D01*
X119283308Y-38029353D01*
X119284289Y-36905578D01*
X118855145Y-35866970D01*
X118061210Y-35071648D01*
X117277661Y-34746290D01*
X127521416Y-34746290D01*
X142141000Y-49365874D01*
X142141000Y-53635560D01*
X141497648Y-54277790D01*
X141066692Y-55315647D01*
X141065711Y-56439422D01*
X141494855Y-57478030D01*
X142141000Y-58125304D01*
X142141000Y-63937816D01*
X142274211Y-64607512D01*
X142653563Y-65175253D01*
X145263747Y-67785437D01*
X145831488Y-68164789D01*
X146501184Y-68298000D01*
X147920462Y-68298000D01*
X148076103Y-68453913D01*
X148902586Y-68797099D01*
X149797488Y-68797880D01*
X150624569Y-68456137D01*
X150782982Y-68298000D01*
X161762741Y-68298000D01*
X161918813Y-68454345D01*
X162745484Y-68797608D01*
X163640589Y-68798390D01*
X164467858Y-68456569D01*
X165101345Y-67824187D01*
X165444608Y-66997516D01*
X165445390Y-66102411D01*
X165103569Y-65275142D01*
X164471187Y-64641655D01*
X163644516Y-64298392D01*
X162749411Y-64297610D01*
X161922142Y-64639431D01*
X161763296Y-64798000D01*
X159553207Y-64798000D01*
X162781437Y-61569770D01*
X163160789Y-61002029D01*
X163294000Y-60332333D01*
X163294000Y-40708925D01*
X163160789Y-40039229D01*
X162781437Y-39471488D01*
X160619949Y-37310000D01*
X161835126Y-37310000D01*
X164620000Y-40094874D01*
X164620000Y-49368462D01*
X164464087Y-49524103D01*
X164120901Y-50350586D01*
X164120120Y-51245488D01*
X164461863Y-52072569D01*
X165094103Y-52705913D01*
X165920586Y-53049099D01*
X166815488Y-53049880D01*
X167642569Y-52708137D01*
X168275913Y-52075897D01*
X168619099Y-51249414D01*
X168619102Y-51245488D01*
X174280120Y-51245488D01*
X174621863Y-52072569D01*
X175254103Y-52705913D01*
X176080586Y-53049099D01*
X176975488Y-53049880D01*
X177802569Y-52708137D01*
X177960982Y-52550000D01*
X179613390Y-52550000D01*
X179727173Y-52663982D01*
X180535473Y-52999618D01*
X181410687Y-53000381D01*
X182219572Y-52666157D01*
X182536281Y-52350000D01*
X183375500Y-52350000D01*
X183513000Y-52212500D01*
X183513000Y-50802000D01*
X183517000Y-50802000D01*
X183517000Y-52212500D01*
X183654500Y-52350000D01*
X184574402Y-52350000D01*
X184776550Y-52266268D01*
X184931267Y-52111550D01*
X185015000Y-51909402D01*
X185015000Y-50939500D01*
X184877500Y-50802000D01*
X183517000Y-50802000D01*
X183513000Y-50802000D01*
X183493000Y-50802000D01*
X183493000Y-50798000D01*
X183513000Y-50798000D01*
X183513000Y-49387500D01*
X183517000Y-49387500D01*
X183517000Y-50798000D01*
X184877500Y-50798000D01*
X185015000Y-50660500D01*
X185015000Y-49690598D01*
X184931267Y-49488450D01*
X184776550Y-49333732D01*
X184574402Y-49250000D01*
X183654500Y-49250000D01*
X183517000Y-49387500D01*
X183513000Y-49387500D01*
X183375500Y-49250000D01*
X182536262Y-49250000D01*
X182222827Y-48936018D01*
X181414527Y-48600382D01*
X180539313Y-48599619D01*
X179730428Y-48933843D01*
X179614068Y-49050000D01*
X177961538Y-49050000D01*
X177805897Y-48894087D01*
X176979414Y-48550901D01*
X176084512Y-48550120D01*
X175257431Y-48891863D01*
X174624087Y-49524103D01*
X174280901Y-50350586D01*
X174280120Y-51245488D01*
X168619102Y-51245488D01*
X168619880Y-50354512D01*
X168278137Y-49527431D01*
X168120000Y-49369018D01*
X168120000Y-39370000D01*
X167986789Y-38700304D01*
X167982496Y-38693879D01*
X169009490Y-38693879D01*
X169465067Y-39796459D01*
X170307904Y-40640768D01*
X171409687Y-41098269D01*
X172602679Y-41099310D01*
X173705259Y-40643733D01*
X174549568Y-39800896D01*
X175007069Y-38699113D01*
X175008110Y-37506121D01*
X174658913Y-36661000D01*
X181313143Y-36661000D01*
X181313143Y-44261000D01*
X194098857Y-44261000D01*
X194098857Y-36661000D01*
X181313143Y-36661000D01*
X174658913Y-36661000D01*
X174552533Y-36403541D01*
X173709696Y-35559232D01*
X172607913Y-35101731D01*
X171414921Y-35100690D01*
X170312341Y-35556267D01*
X169468032Y-36399104D01*
X169010531Y-37500887D01*
X169009490Y-38693879D01*
X167982496Y-38693879D01*
X167607437Y-38132563D01*
X163797437Y-34322563D01*
X163229696Y-33943211D01*
X162560000Y-33810000D01*
X157537853Y-33810000D01*
X157170604Y-33442110D01*
X156252199Y-33060754D01*
X155257764Y-33059887D01*
X154338695Y-33439638D01*
X153634910Y-34142196D01*
X153253554Y-35060601D01*
X153253083Y-35600354D01*
X152717764Y-35599887D01*
X151798695Y-35979638D01*
X151094910Y-36682196D01*
X150713554Y-37600601D01*
X150712687Y-38595036D01*
X151092438Y-39514105D01*
X151794996Y-40217890D01*
X152713401Y-40599246D01*
X153253154Y-40599717D01*
X153252687Y-41135036D01*
X153632438Y-42054105D01*
X154002800Y-42425114D01*
X154002800Y-43165707D01*
X148114563Y-49053944D01*
X147735211Y-49621685D01*
X147602000Y-50291381D01*
X147602000Y-50638462D01*
X147446087Y-50794103D01*
X147102901Y-51620586D01*
X147102120Y-52515488D01*
X147443863Y-53342569D01*
X147602000Y-53500982D01*
X147602000Y-54956462D01*
X147446087Y-55112103D01*
X147102901Y-55938586D01*
X147102120Y-56833488D01*
X147443863Y-57660569D01*
X148076103Y-58293913D01*
X148902586Y-58637099D01*
X149797488Y-58637880D01*
X150624569Y-58296137D01*
X151257913Y-57663897D01*
X151601099Y-56837414D01*
X151601880Y-55942512D01*
X151260137Y-55115431D01*
X151102000Y-54957018D01*
X151102000Y-53501538D01*
X151257913Y-53345897D01*
X151601099Y-52519414D01*
X151601880Y-51624512D01*
X151277881Y-50840374D01*
X156990237Y-45128018D01*
X157369589Y-44560277D01*
X157502800Y-43890581D01*
X157502800Y-42425053D01*
X157870690Y-42057804D01*
X158252046Y-41139399D01*
X158252913Y-40144964D01*
X158131037Y-39850000D01*
X158210201Y-39850000D01*
X159794000Y-41433799D01*
X159794000Y-59607459D01*
X154603459Y-64798000D01*
X150783538Y-64798000D01*
X150627897Y-64642087D01*
X149801414Y-64298901D01*
X148906512Y-64298120D01*
X148079431Y-64639863D01*
X147921018Y-64798000D01*
X147226058Y-64798000D01*
X145641000Y-63212942D01*
X145641000Y-58124440D01*
X146284352Y-57482210D01*
X146715308Y-56444353D01*
X146716289Y-55320578D01*
X146287145Y-54281970D01*
X145641000Y-53634696D01*
X145641000Y-48641000D01*
X145507789Y-47971304D01*
X145128437Y-47403563D01*
X143196180Y-45471306D01*
X148333522Y-45471306D01*
X148425008Y-45729298D01*
X148985138Y-45986661D01*
X149601119Y-46010082D01*
X150179173Y-45795994D01*
X150278992Y-45729298D01*
X150370478Y-45471306D01*
X149352000Y-44452828D01*
X148333522Y-45471306D01*
X143196180Y-45471306D01*
X142423993Y-44699119D01*
X147791918Y-44699119D01*
X148006006Y-45277173D01*
X148072702Y-45376992D01*
X148330694Y-45468478D01*
X149349172Y-44450000D01*
X149354828Y-44450000D01*
X150373306Y-45468478D01*
X150631298Y-45376992D01*
X150888661Y-44816862D01*
X150912082Y-44200881D01*
X150697994Y-43622827D01*
X150631298Y-43523008D01*
X150373306Y-43431522D01*
X149354828Y-44450000D01*
X149349172Y-44450000D01*
X148330694Y-43431522D01*
X148072702Y-43523008D01*
X147815339Y-44083138D01*
X147791918Y-44699119D01*
X142423993Y-44699119D01*
X141153568Y-43428694D01*
X148333522Y-43428694D01*
X149352000Y-44447172D01*
X150370478Y-43428694D01*
X150278992Y-43170702D01*
X149718862Y-42913339D01*
X149102881Y-42889918D01*
X148524827Y-43104006D01*
X148425008Y-43170702D01*
X148333522Y-43428694D01*
X141153568Y-43428694D01*
X136625956Y-38901082D01*
X142457747Y-38901082D01*
X142619225Y-39218851D01*
X143387203Y-39572035D01*
X144231879Y-39604441D01*
X145024660Y-39311136D01*
X145162775Y-39218851D01*
X145324253Y-38901082D01*
X143891000Y-37467828D01*
X142457747Y-38901082D01*
X136625956Y-38901082D01*
X135530753Y-37805879D01*
X141751559Y-37805879D01*
X142044864Y-38598660D01*
X142137149Y-38736775D01*
X142454918Y-38898253D01*
X143888172Y-37465000D01*
X143893828Y-37465000D01*
X145327082Y-38898253D01*
X145644851Y-38736775D01*
X145998035Y-37968797D01*
X146030441Y-37124121D01*
X145737136Y-36331340D01*
X145644851Y-36193225D01*
X145327082Y-36031747D01*
X143893828Y-37465000D01*
X143888172Y-37465000D01*
X142454918Y-36031747D01*
X142137149Y-36193225D01*
X141783965Y-36961203D01*
X141751559Y-37805879D01*
X135530753Y-37805879D01*
X133753792Y-36028918D01*
X142457747Y-36028918D01*
X143891000Y-37462172D01*
X145324253Y-36028918D01*
X145162775Y-35711149D01*
X144394797Y-35357965D01*
X143550121Y-35325559D01*
X142757340Y-35618864D01*
X142619225Y-35711149D01*
X142457747Y-36028918D01*
X133753792Y-36028918D01*
X130317925Y-32593051D01*
X188830380Y-32593051D01*
X189286150Y-33696098D01*
X190129344Y-34540764D01*
X191231593Y-34998458D01*
X192425091Y-34999500D01*
X193528138Y-34543730D01*
X194372804Y-33700536D01*
X194830498Y-32598287D01*
X194831540Y-31404789D01*
X194375770Y-30301742D01*
X193532576Y-29457076D01*
X192430327Y-28999382D01*
X191236829Y-28998340D01*
X190133782Y-29454110D01*
X189289116Y-30297304D01*
X188831422Y-31399553D01*
X188830380Y-32593051D01*
X130317925Y-32593051D01*
X129483727Y-31758853D01*
X128915986Y-31379501D01*
X128246290Y-31246290D01*
X114269942Y-31246290D01*
X113600246Y-31379501D01*
X113032505Y-31758853D01*
X108812500Y-35978858D01*
X108175799Y-35978858D01*
X108757053Y-35398617D01*
X109191884Y-34351427D01*
X109192874Y-33217547D01*
X108759871Y-32169600D01*
X107958797Y-31367127D01*
X106911607Y-30932296D01*
X105777727Y-30931306D01*
X104729780Y-31364309D01*
X103927307Y-32165383D01*
X103892935Y-32248159D01*
X103309904Y-31664110D01*
X102391499Y-31282754D01*
X101397064Y-31281887D01*
X100477995Y-31661638D01*
X99816392Y-32322087D01*
X99169704Y-31674270D01*
X98251299Y-31292914D01*
X97256864Y-31292047D01*
X96337795Y-31671798D01*
X95634010Y-32374356D01*
X95252654Y-33292761D01*
X95251787Y-34287196D01*
X95631538Y-35206265D01*
X96001900Y-35577274D01*
X96001900Y-39245356D01*
X94647563Y-40599693D01*
X94268211Y-41167434D01*
X94135000Y-41837130D01*
X94135000Y-43410512D01*
X93671778Y-43497673D01*
X93246337Y-43771437D01*
X92960924Y-44189153D01*
X92860512Y-44685000D01*
X90111272Y-44685000D01*
X90111267Y-44684999D01*
X89441571Y-44818211D01*
X88873830Y-45197563D01*
X83217563Y-50853830D01*
X82838211Y-51421571D01*
X82705000Y-52091267D01*
X82705000Y-58258462D01*
X82549087Y-58414103D01*
X82205901Y-59240586D01*
X82205706Y-59464420D01*
X79412126Y-62258000D01*
X76615538Y-62258000D01*
X76459897Y-62102087D01*
X75633414Y-61758901D01*
X74738512Y-61758120D01*
X73911431Y-62099863D01*
X73278087Y-62732103D01*
X72934901Y-63558586D01*
X72934120Y-64453488D01*
X71854000Y-64453488D01*
X71854000Y-59964813D01*
X71950703Y-59868279D01*
X72306095Y-59012399D01*
X72306876Y-58117429D01*
X76448647Y-58117429D01*
X76530555Y-58407859D01*
X76811834Y-58830228D01*
X77233336Y-59112805D01*
X77730890Y-59212570D01*
X78230000Y-59212570D01*
X78230000Y-57914000D01*
X78234000Y-57914000D01*
X78234000Y-59212570D01*
X78733110Y-59212570D01*
X79230664Y-59112805D01*
X79652166Y-58830228D01*
X79933445Y-58407859D01*
X80015353Y-58117429D01*
X79894178Y-57914000D01*
X78234000Y-57914000D01*
X78230000Y-57914000D01*
X76569822Y-57914000D01*
X76448647Y-58117429D01*
X72306876Y-58117429D01*
X72306904Y-58085667D01*
X72150265Y-57706571D01*
X76448647Y-57706571D01*
X76569822Y-57910000D01*
X78230000Y-57910000D01*
X78230000Y-56611430D01*
X78234000Y-56611430D01*
X78234000Y-57910000D01*
X79894178Y-57910000D01*
X80015353Y-57706571D01*
X79933445Y-57416141D01*
X79652166Y-56993772D01*
X79230664Y-56711195D01*
X78733110Y-56611430D01*
X78234000Y-56611430D01*
X78230000Y-56611430D01*
X77730890Y-56611430D01*
X77233336Y-56711195D01*
X76811834Y-56993772D01*
X76530555Y-57416141D01*
X76448647Y-57706571D01*
X72150265Y-57706571D01*
X71953006Y-57229168D01*
X71298279Y-56573297D01*
X70442399Y-56217905D01*
X69515667Y-56217096D01*
X68659168Y-56570994D01*
X68003297Y-57225721D01*
X67647905Y-58081601D01*
X67647096Y-59008333D01*
X65547207Y-59008333D01*
X64500168Y-57961294D01*
X64500168Y-57161430D01*
X64413007Y-56698208D01*
X64139243Y-56272767D01*
X63721527Y-55987354D01*
X63225680Y-55886942D01*
X60726320Y-55886942D01*
X60263098Y-55974103D01*
X59837657Y-56247867D01*
X59552244Y-56665583D01*
X59451832Y-57161430D01*
X56408968Y-57161430D01*
X56332006Y-56975168D01*
X55677279Y-56319297D01*
X54821399Y-55963905D01*
X53894667Y-55963096D01*
X53038168Y-56316994D01*
X52382297Y-56971721D01*
X52026905Y-57827601D01*
X52026096Y-58754333D01*
X47585169Y-58754333D01*
X47459840Y-58628786D01*
X47459840Y-43768333D01*
X52026096Y-43768333D01*
X52379994Y-44624832D01*
X53034721Y-45280703D01*
X53890601Y-45636095D01*
X54817333Y-45636904D01*
X55673832Y-45283006D01*
X55900233Y-45057000D01*
X57524370Y-45057000D01*
X60226000Y-47758630D01*
X60226000Y-51275262D01*
X60013301Y-51417383D01*
X59579632Y-52066415D01*
X59427348Y-52832000D01*
X59579632Y-53597585D01*
X60013301Y-54246617D01*
X60662333Y-54680286D01*
X61427918Y-54832570D01*
X62524082Y-54832570D01*
X63289667Y-54680286D01*
X63938699Y-54246617D01*
X64372368Y-53597585D01*
X64524652Y-52832000D01*
X64372368Y-52066415D01*
X63938699Y-51417383D01*
X63726000Y-51275262D01*
X63726000Y-47033756D01*
X63592789Y-46364060D01*
X63213437Y-45796319D01*
X62474118Y-45057000D01*
X68178851Y-45057000D01*
X68655721Y-45534703D01*
X69511601Y-45890095D01*
X70438333Y-45890904D01*
X71294832Y-45537006D01*
X71521233Y-45311000D01*
X72671614Y-45311000D01*
X76482000Y-49121386D01*
X76482000Y-50917975D01*
X76093657Y-51167867D01*
X75808244Y-51585583D01*
X75707832Y-52081430D01*
X75707832Y-53582570D01*
X75794993Y-54045792D01*
X76068757Y-54471233D01*
X76486473Y-54756646D01*
X76982320Y-54857058D01*
X79481680Y-54857058D01*
X79944902Y-54769897D01*
X80370343Y-54496133D01*
X80655756Y-54078417D01*
X80756168Y-53582570D01*
X80756168Y-52081430D01*
X80669007Y-51618208D01*
X80395243Y-51192767D01*
X79982000Y-50910410D01*
X79982000Y-48396512D01*
X79848789Y-47726816D01*
X79469437Y-47159075D01*
X77621362Y-45311000D01*
X78359000Y-45311000D01*
X79028696Y-45177789D01*
X79596437Y-44798437D01*
X83749337Y-40645537D01*
X84128689Y-40077796D01*
X84261901Y-39408100D01*
X84261900Y-39408095D01*
X84261900Y-36020080D01*
X85053744Y-35229616D01*
X85511438Y-34127367D01*
X85512480Y-32933869D01*
X85056710Y-31830822D01*
X84213516Y-30986156D01*
X83111267Y-30528462D01*
X81917769Y-30527420D01*
X80814722Y-30983190D01*
X79970056Y-31826384D01*
X79512362Y-32928633D01*
X79511320Y-34122131D01*
X79967090Y-35225178D01*
X80761900Y-36021376D01*
X80761900Y-38683226D01*
X77634126Y-41811000D01*
X71521592Y-41811000D01*
X71298279Y-41587297D01*
X70442399Y-41231905D01*
X69515667Y-41231096D01*
X68726919Y-41557000D01*
X55900592Y-41557000D01*
X55677279Y-41333297D01*
X54821399Y-40977905D01*
X53894667Y-40977096D01*
X53038168Y-41330994D01*
X52382297Y-41985721D01*
X52026905Y-42841601D01*
X52026096Y-43768333D01*
X47459840Y-43768333D01*
X47459840Y-42348667D01*
X54530507Y-35278000D01*
X58252020Y-35278000D01*
X59042484Y-36069844D01*
X60144733Y-36527538D01*
X61338231Y-36528580D01*
X62441278Y-36072810D01*
X63285944Y-35229616D01*
X63743638Y-34127367D01*
X63744680Y-32933869D01*
X63288910Y-31830822D01*
X62445716Y-30986156D01*
X61343467Y-30528462D01*
X60149969Y-30527420D01*
X59046922Y-30983190D01*
X58250724Y-31778000D01*
X53805633Y-31778000D01*
X53135937Y-31911211D01*
X52568196Y-32290563D01*
X44472403Y-40386356D01*
X44093051Y-40954097D01*
X43959840Y-41623793D01*
X43959840Y-58628847D01*
X43591950Y-58996096D01*
X43210594Y-59914501D01*
X43209727Y-60908936D01*
X43589478Y-61828005D01*
X44249927Y-62489608D01*
X43934886Y-62804100D01*
X42125900Y-62804100D01*
X41456204Y-62937311D01*
X40888463Y-63316663D01*
X38894563Y-65310563D01*
X38515211Y-65878304D01*
X38382000Y-66548000D01*
X38270500Y-66548000D01*
X38270500Y-32593051D01*
X38830680Y-32593051D01*
X39286450Y-33696098D01*
X40129644Y-34540764D01*
X41231893Y-34998458D01*
X42425391Y-34999500D01*
X43528438Y-34543730D01*
X44373104Y-33700536D01*
X44830798Y-32598287D01*
X44831840Y-31404789D01*
X44376070Y-30301742D01*
X43532876Y-29457076D01*
X42430627Y-28999382D01*
X41237129Y-28998340D01*
X40134082Y-29454110D01*
X39289416Y-30297304D01*
X38831722Y-31399553D01*
X38830680Y-32593051D01*
X38270500Y-32593051D01*
X38270500Y-28440700D01*
X195389180Y-28440700D01*
X195389180Y-125559500D01*
X195389180Y-125559500D01*
G37*
X195389180Y-125559500D02*
X38270500Y-125559500D01*
X38270500Y-122592871D01*
X38830680Y-122592871D01*
X39286450Y-123695918D01*
X40129644Y-124540584D01*
X41231893Y-124998278D01*
X42425391Y-124999320D01*
X43461655Y-124571144D01*
X111016684Y-124571144D01*
X111168892Y-124880996D01*
X111909340Y-125221487D01*
X112723725Y-125252704D01*
X113488065Y-124969892D01*
X113621108Y-124880996D01*
X113773316Y-124571144D01*
X112395000Y-123192828D01*
X111016684Y-124571144D01*
X43461655Y-124571144D01*
X43528438Y-124543550D01*
X44373104Y-123700356D01*
X44830798Y-122598107D01*
X44831840Y-121404609D01*
X44376070Y-120301562D01*
X43532876Y-119456896D01*
X42430627Y-118999202D01*
X41237129Y-118998160D01*
X40134082Y-119453930D01*
X39289416Y-120297124D01*
X38831722Y-121399373D01*
X38830680Y-122592871D01*
X38270500Y-122592871D01*
X38270500Y-96406273D01*
X43123306Y-96406273D01*
X43556309Y-97454220D01*
X44357383Y-98256693D01*
X44440159Y-98291065D01*
X43856110Y-98874096D01*
X43474754Y-99792501D01*
X43473887Y-100786936D01*
X43853638Y-101706005D01*
X44514087Y-102367608D01*
X43866270Y-103014296D01*
X43484914Y-103932701D01*
X43484047Y-104927136D01*
X43863798Y-105846205D01*
X44234160Y-106217214D01*
X44234160Y-116469160D01*
X44367371Y-117138856D01*
X44746723Y-117706597D01*
X49016463Y-121976337D01*
X49584204Y-122355689D01*
X50253900Y-122488900D01*
X93392920Y-122488900D01*
X94183384Y-123280744D01*
X95285633Y-123738438D01*
X96479131Y-123739480D01*
X97013398Y-123518725D01*
X110332296Y-123518725D01*
X110615108Y-124283065D01*
X110704004Y-124416108D01*
X111013856Y-124568316D01*
X112392172Y-123190000D01*
X112397828Y-123190000D01*
X113776144Y-124568316D01*
X114085996Y-124416108D01*
X114426487Y-123675660D01*
X114457704Y-122861275D01*
X114174892Y-122096935D01*
X114085996Y-121963892D01*
X113776144Y-121811684D01*
X112397828Y-123190000D01*
X112392172Y-123190000D01*
X111013856Y-121811684D01*
X110704004Y-121963892D01*
X110363513Y-122704340D01*
X110332296Y-123518725D01*
X97013398Y-123518725D01*
X97582178Y-123283710D01*
X98426844Y-122440516D01*
X98689132Y-121808856D01*
X111016684Y-121808856D01*
X112395000Y-123187172D01*
X113773316Y-121808856D01*
X113621108Y-121499004D01*
X112880660Y-121158513D01*
X112066275Y-121127296D01*
X111301935Y-121410108D01*
X111168892Y-121499004D01*
X111016684Y-121808856D01*
X98689132Y-121808856D01*
X98884538Y-121338267D01*
X98885580Y-120144769D01*
X98711722Y-119724000D01*
X175454857Y-119724000D01*
X175454857Y-124774000D01*
X181669143Y-124774000D01*
X181669143Y-122592871D01*
X188830380Y-122592871D01*
X189286150Y-123695918D01*
X190129344Y-124540584D01*
X191231593Y-124998278D01*
X192425091Y-124999320D01*
X193528138Y-124543550D01*
X194372804Y-123700356D01*
X194830498Y-122598107D01*
X194831540Y-121404609D01*
X194375770Y-120301562D01*
X193532576Y-119456896D01*
X192430327Y-118999202D01*
X191236829Y-118998160D01*
X190133782Y-119453930D01*
X189289116Y-120297124D01*
X188831422Y-121399373D01*
X188830380Y-122592871D01*
X181669143Y-122592871D01*
X181669143Y-119724000D01*
X175454857Y-119724000D01*
X98711722Y-119724000D01*
X98429810Y-119041722D01*
X97586616Y-118197056D01*
X96484367Y-117739362D01*
X95290869Y-117738320D01*
X94187822Y-118194090D01*
X93391624Y-118988900D01*
X50978774Y-118988900D01*
X47734160Y-115744286D01*
X47734160Y-106217153D01*
X48102050Y-105849904D01*
X48483406Y-104931499D01*
X48484273Y-103937064D01*
X48104522Y-103017995D01*
X47444073Y-102356392D01*
X47759114Y-102041900D01*
X52606000Y-102041900D01*
X52606000Y-106264462D01*
X52450087Y-106420103D01*
X52106901Y-107246586D01*
X52106120Y-108141488D01*
X52447863Y-108968569D01*
X52606000Y-109126982D01*
X52606000Y-109638126D01*
X51797754Y-110446372D01*
X51481667Y-110446096D01*
X50625168Y-110799994D01*
X49969297Y-111454721D01*
X49613905Y-112310601D01*
X49613096Y-113237333D01*
X49966994Y-114093832D01*
X50621721Y-114749703D01*
X51477601Y-115105095D01*
X52404333Y-115105904D01*
X53260832Y-114752006D01*
X53916703Y-114097279D01*
X54272095Y-113241399D01*
X54272098Y-113237333D01*
X64599096Y-113237333D01*
X64952994Y-114093832D01*
X65607721Y-114749703D01*
X66463601Y-115105095D01*
X67390333Y-115105904D01*
X68246832Y-114752006D01*
X68473233Y-114526000D01*
X69702408Y-114526000D01*
X69925721Y-114749703D01*
X70781601Y-115105095D01*
X71708333Y-115105904D01*
X72564832Y-114752006D01*
X73220703Y-114097279D01*
X73576095Y-113241399D01*
X73576904Y-112314667D01*
X73223006Y-111458168D01*
X72568279Y-110802297D01*
X71712399Y-110446905D01*
X70785667Y-110446096D01*
X69929168Y-110799994D01*
X69702767Y-111026000D01*
X68473592Y-111026000D01*
X68250279Y-110802297D01*
X67394399Y-110446905D01*
X66467667Y-110446096D01*
X65611168Y-110799994D01*
X64955297Y-111454721D01*
X64599905Y-112310601D01*
X64599096Y-113237333D01*
X54272098Y-113237333D01*
X54272374Y-112921500D01*
X55593437Y-111600437D01*
X55972789Y-111032696D01*
X56106000Y-110363000D01*
X56106000Y-109127538D01*
X56261913Y-108971897D01*
X56367628Y-108717306D01*
X63497522Y-108717306D01*
X63589008Y-108975298D01*
X64149138Y-109232661D01*
X64765119Y-109256082D01*
X65343173Y-109041994D01*
X65442992Y-108975298D01*
X65534478Y-108717306D01*
X72641522Y-108717306D01*
X72733008Y-108975298D01*
X73293138Y-109232661D01*
X73909119Y-109256082D01*
X74487173Y-109041994D01*
X74586992Y-108975298D01*
X74678478Y-108717306D01*
X73660000Y-107698828D01*
X72641522Y-108717306D01*
X65534478Y-108717306D01*
X64516000Y-107698828D01*
X63497522Y-108717306D01*
X56367628Y-108717306D01*
X56605099Y-108145414D01*
X56605273Y-107945119D01*
X62955918Y-107945119D01*
X63170006Y-108523173D01*
X63236702Y-108622992D01*
X63494694Y-108714478D01*
X64513172Y-107696000D01*
X64518828Y-107696000D01*
X65537306Y-108714478D01*
X65795298Y-108622992D01*
X66052661Y-108062862D01*
X66057137Y-107945119D01*
X72099918Y-107945119D01*
X72314006Y-108523173D01*
X72380702Y-108622992D01*
X72638694Y-108714478D01*
X73657172Y-107696000D01*
X73662828Y-107696000D01*
X74681306Y-108714478D01*
X74939298Y-108622992D01*
X75196661Y-108062862D01*
X75220082Y-107446881D01*
X75005994Y-106868827D01*
X74939298Y-106769008D01*
X74681306Y-106677522D01*
X73662828Y-107696000D01*
X73657172Y-107696000D01*
X72638694Y-106677522D01*
X72380702Y-106769008D01*
X72123339Y-107329138D01*
X72099918Y-107945119D01*
X66057137Y-107945119D01*
X66076082Y-107446881D01*
X65861994Y-106868827D01*
X65795298Y-106769008D01*
X65537306Y-106677522D01*
X64518828Y-107696000D01*
X64513172Y-107696000D01*
X63494694Y-106677522D01*
X63236702Y-106769008D01*
X62979339Y-107329138D01*
X62955918Y-107945119D01*
X56605273Y-107945119D01*
X56605880Y-107250512D01*
X56367957Y-106674694D01*
X63497522Y-106674694D01*
X64516000Y-107693172D01*
X65534478Y-106674694D01*
X72641522Y-106674694D01*
X73660000Y-107693172D01*
X74678478Y-106674694D01*
X74586992Y-106416702D01*
X74026862Y-106159339D01*
X73410881Y-106135918D01*
X72832827Y-106350006D01*
X72733008Y-106416702D01*
X72641522Y-106674694D01*
X65534478Y-106674694D01*
X65442992Y-106416702D01*
X64882862Y-106159339D01*
X64266881Y-106135918D01*
X63688827Y-106350006D01*
X63589008Y-106416702D01*
X63497522Y-106674694D01*
X56367957Y-106674694D01*
X56264137Y-106423431D01*
X56106000Y-106265018D01*
X56106000Y-101507538D01*
X56261913Y-101351897D01*
X56605099Y-100525414D01*
X56605102Y-100521488D01*
X62266120Y-100521488D01*
X62607863Y-101348569D01*
X63240103Y-101981913D01*
X64066586Y-102325099D01*
X64961488Y-102325880D01*
X65788569Y-101984137D01*
X65946982Y-101826000D01*
X72228462Y-101826000D01*
X72384103Y-101981913D01*
X73210586Y-102325099D01*
X74105488Y-102325880D01*
X74932569Y-101984137D01*
X75565913Y-101351897D01*
X75909099Y-100525414D01*
X75909102Y-100521488D01*
X81570120Y-100521488D01*
X81911863Y-101348569D01*
X82070000Y-101506982D01*
X82070000Y-106264462D01*
X81914087Y-106420103D01*
X81570901Y-107246586D01*
X81570120Y-108141488D01*
X81911863Y-108968569D01*
X82070000Y-109126982D01*
X82070000Y-110363000D01*
X82203211Y-111032696D01*
X82582563Y-111600437D01*
X83903372Y-112921246D01*
X83903096Y-113237333D01*
X84256994Y-114093832D01*
X84911721Y-114749703D01*
X85767601Y-115105095D01*
X86694333Y-115105904D01*
X87550832Y-114752006D01*
X88206703Y-114097279D01*
X88298007Y-113877394D01*
X138775434Y-113877394D01*
X138958226Y-114213368D01*
X139789501Y-114595732D01*
X140703823Y-114630875D01*
X141561995Y-114313447D01*
X141711774Y-114213368D01*
X141894566Y-113877394D01*
X140335000Y-112317828D01*
X138775434Y-113877394D01*
X88298007Y-113877394D01*
X88562095Y-113241399D01*
X88562581Y-112683823D01*
X138019125Y-112683823D01*
X138336553Y-113541995D01*
X138436632Y-113691774D01*
X138772606Y-113874566D01*
X140332172Y-112315000D01*
X140337828Y-112315000D01*
X141897394Y-113874566D01*
X142233368Y-113691774D01*
X142615732Y-112860499D01*
X142650875Y-111946177D01*
X142333447Y-111088005D01*
X142233368Y-110938226D01*
X141897394Y-110755434D01*
X140337828Y-112315000D01*
X140332172Y-112315000D01*
X138772606Y-110755434D01*
X138436632Y-110938226D01*
X138054268Y-111769501D01*
X138019125Y-112683823D01*
X88562581Y-112683823D01*
X88562904Y-112314667D01*
X88209006Y-111458168D01*
X87554279Y-110802297D01*
X87434610Y-110752606D01*
X138775434Y-110752606D01*
X140335000Y-112312172D01*
X141894566Y-110752606D01*
X141711774Y-110416632D01*
X140880499Y-110034268D01*
X139966177Y-109999125D01*
X139108005Y-110316553D01*
X138958226Y-110416632D01*
X138775434Y-110752606D01*
X87434610Y-110752606D01*
X86698399Y-110446905D01*
X86378500Y-110446626D01*
X85570000Y-109638126D01*
X85570000Y-109127538D01*
X85725913Y-108971897D01*
X86069099Y-108145414D01*
X86069880Y-107250512D01*
X85728137Y-106423431D01*
X85570000Y-106265018D01*
X85570000Y-101507538D01*
X85725913Y-101351897D01*
X85987843Y-100721100D01*
X93392920Y-100721100D01*
X94183384Y-101512944D01*
X95285633Y-101970638D01*
X96479131Y-101971680D01*
X97582178Y-101515910D01*
X98426844Y-100672716D01*
X98471571Y-100565000D01*
X137310512Y-100565000D01*
X137310512Y-104065000D01*
X137397673Y-104528222D01*
X137671437Y-104953663D01*
X138089153Y-105239076D01*
X138585000Y-105339488D01*
X142085000Y-105339488D01*
X142548222Y-105252327D01*
X142973663Y-104978563D01*
X143259076Y-104560847D01*
X143359488Y-104065000D01*
X175260000Y-104065000D01*
X175929696Y-103931789D01*
X176497437Y-103552437D01*
X176640331Y-103409543D01*
X177759119Y-103410519D01*
X178862143Y-102954759D01*
X179706793Y-102111582D01*
X180164478Y-101009355D01*
X180165519Y-99815881D01*
X179709759Y-98712857D01*
X178866582Y-97868207D01*
X177764355Y-97410522D01*
X176570881Y-97409481D01*
X175467857Y-97865241D01*
X174623207Y-98708418D01*
X174165522Y-99810645D01*
X174164864Y-100565000D01*
X157014874Y-100565000D01*
X154785000Y-98335126D01*
X154785000Y-89696538D01*
X154940913Y-89540897D01*
X155046628Y-89286306D01*
X162176522Y-89286306D01*
X162268008Y-89544298D01*
X162828138Y-89801661D01*
X163444119Y-89825082D01*
X164022173Y-89610994D01*
X164121992Y-89544298D01*
X164213478Y-89286306D01*
X163195000Y-88267828D01*
X162176522Y-89286306D01*
X155046628Y-89286306D01*
X155284099Y-88714414D01*
X155284273Y-88514119D01*
X161634918Y-88514119D01*
X161849006Y-89092173D01*
X161915702Y-89191992D01*
X162173694Y-89283478D01*
X163192172Y-88265000D01*
X163197828Y-88265000D01*
X164216306Y-89283478D01*
X164474298Y-89191992D01*
X164731661Y-88631862D01*
X164755082Y-88015881D01*
X164540994Y-87437827D01*
X164474298Y-87338008D01*
X164216306Y-87246522D01*
X163197828Y-88265000D01*
X163192172Y-88265000D01*
X162173694Y-87246522D01*
X161915702Y-87338008D01*
X161658339Y-87898138D01*
X161634918Y-88514119D01*
X155284273Y-88514119D01*
X155284880Y-87819512D01*
X155046957Y-87243694D01*
X162176522Y-87243694D01*
X163195000Y-88262172D01*
X164213478Y-87243694D01*
X164121992Y-86985702D01*
X163561862Y-86728339D01*
X162945881Y-86704918D01*
X162367827Y-86919006D01*
X162268008Y-86985702D01*
X162176522Y-87243694D01*
X155046957Y-87243694D01*
X154943137Y-86992431D01*
X154785000Y-86834018D01*
X154785000Y-85251538D01*
X154940913Y-85095897D01*
X155284099Y-84269414D01*
X155284880Y-83374512D01*
X154943137Y-82547431D01*
X154310897Y-81914087D01*
X153484414Y-81570901D01*
X152589512Y-81570120D01*
X151762431Y-81911863D01*
X151129087Y-82544103D01*
X150785901Y-83370586D01*
X150785120Y-84265488D01*
X151126863Y-85092569D01*
X151285000Y-85250982D01*
X151285000Y-86833462D01*
X151129087Y-86989103D01*
X150785901Y-87815586D01*
X150785120Y-88710488D01*
X151126863Y-89537569D01*
X151285000Y-89695982D01*
X151285000Y-99060000D01*
X151418211Y-99729696D01*
X151797563Y-100297437D01*
X152065126Y-100565000D01*
X143359488Y-100565000D01*
X143272327Y-100101778D01*
X142998563Y-99676337D01*
X142580847Y-99390924D01*
X142085000Y-99290512D01*
X138585000Y-99290512D01*
X138121778Y-99377673D01*
X137696337Y-99651437D01*
X137410924Y-100069153D01*
X137310512Y-100565000D01*
X98471571Y-100565000D01*
X98884538Y-99570467D01*
X98885580Y-98376969D01*
X98429810Y-97273922D01*
X97586616Y-96429256D01*
X96484367Y-95971562D01*
X95290869Y-95970520D01*
X94187822Y-96426290D01*
X93391624Y-97221100D01*
X85570000Y-97221100D01*
X85570000Y-97117874D01*
X86378246Y-96309628D01*
X86694333Y-96309904D01*
X87550832Y-95956006D01*
X88206703Y-95301279D01*
X88562095Y-94445399D01*
X88562904Y-93518667D01*
X88209006Y-92662168D01*
X87554279Y-92006297D01*
X86698399Y-91650905D01*
X85771667Y-91650096D01*
X84915168Y-92003994D01*
X84259297Y-92658721D01*
X83903905Y-93514601D01*
X83903626Y-93834500D01*
X82582563Y-95155563D01*
X82203211Y-95723304D01*
X82070000Y-96393000D01*
X82070000Y-98644462D01*
X81914087Y-98800103D01*
X81570901Y-99626586D01*
X81570120Y-100521488D01*
X75909102Y-100521488D01*
X75909294Y-100301580D01*
X76421437Y-99789437D01*
X76800789Y-99221696D01*
X76934000Y-98552000D01*
X76934000Y-89916000D01*
X76820518Y-89345488D01*
X82078120Y-89345488D01*
X82419863Y-90172569D01*
X83052103Y-90805913D01*
X83878586Y-91149099D01*
X84773488Y-91149880D01*
X85600569Y-90808137D01*
X85758982Y-90650000D01*
X108585000Y-90650000D01*
X109254696Y-90516789D01*
X109822437Y-90137437D01*
X112121512Y-87838362D01*
X112939332Y-87839076D01*
X113949923Y-87421508D01*
X114723791Y-86648990D01*
X115143122Y-85639129D01*
X115143840Y-84816034D01*
X117696437Y-82263437D01*
X118075789Y-81695696D01*
X118209000Y-81026000D01*
X118209000Y-76539440D01*
X118704304Y-76045000D01*
X133297604Y-76045000D01*
X138590616Y-81338012D01*
X139158357Y-81717364D01*
X139828053Y-81850575D01*
X147668127Y-81850575D01*
X148337823Y-81717364D01*
X148905564Y-81338012D01*
X149787987Y-80455589D01*
X160944610Y-80455589D01*
X161286431Y-81282858D01*
X161445000Y-81441704D01*
X161445000Y-82388462D01*
X161289087Y-82544103D01*
X160945901Y-83370586D01*
X160945120Y-84265488D01*
X161286863Y-85092569D01*
X161919103Y-85725913D01*
X162745586Y-86069099D01*
X163640488Y-86069880D01*
X164467569Y-85728137D01*
X164625982Y-85570000D01*
X178450676Y-85570000D01*
X181765000Y-88884324D01*
X181765000Y-105955126D01*
X179875636Y-107844490D01*
X179828563Y-107771337D01*
X179410847Y-107485924D01*
X178915000Y-107385512D01*
X175415000Y-107385512D01*
X174951778Y-107472673D01*
X174526337Y-107746437D01*
X174240924Y-108164153D01*
X174140512Y-108660000D01*
X174140512Y-112160000D01*
X174227673Y-112623222D01*
X174501437Y-113048663D01*
X174919153Y-113334076D01*
X175415000Y-113434488D01*
X178915000Y-113434488D01*
X179378222Y-113347327D01*
X179803663Y-113073563D01*
X180089076Y-112655847D01*
X180189488Y-112160000D01*
X180189488Y-112079542D01*
X180454696Y-112026789D01*
X181022437Y-111647437D01*
X184752437Y-107917437D01*
X185131789Y-107349696D01*
X185265000Y-106680000D01*
X185265000Y-79423394D01*
X186408194Y-78280200D01*
X186809947Y-78280200D01*
X187177196Y-78648090D01*
X188095601Y-79029446D01*
X189090036Y-79030313D01*
X190009105Y-78650562D01*
X190712890Y-77948004D01*
X191094246Y-77029599D01*
X191095113Y-76035164D01*
X190715362Y-75116095D01*
X190012804Y-74412310D01*
X189213074Y-74080232D01*
X189555457Y-73953497D01*
X189671931Y-73875671D01*
X189793855Y-73591683D01*
X188595000Y-72392828D01*
X187396145Y-73591683D01*
X187518069Y-73875671D01*
X187970424Y-74083612D01*
X187180895Y-74409838D01*
X186809886Y-74780200D01*
X185683325Y-74780200D01*
X185683320Y-74780199D01*
X185683315Y-74780200D01*
X176410053Y-74780200D01*
X176042804Y-74412310D01*
X175243074Y-74080232D01*
X175585457Y-73953497D01*
X175701931Y-73875671D01*
X175823855Y-73591683D01*
X174625000Y-72392828D01*
X173426145Y-73591683D01*
X173548069Y-73875671D01*
X174000424Y-74083612D01*
X173210895Y-74409838D01*
X172507110Y-75112396D01*
X172125754Y-76030801D01*
X172124887Y-77025236D01*
X172504638Y-77944305D01*
X173207196Y-78648090D01*
X174125601Y-79029446D01*
X175120036Y-79030313D01*
X176039105Y-78650562D01*
X176410114Y-78280200D01*
X181848209Y-78280200D01*
X181765000Y-78698520D01*
X181765000Y-83934576D01*
X180412987Y-82582563D01*
X179845246Y-82203211D01*
X179175550Y-82070000D01*
X164945000Y-82070000D01*
X164945000Y-81442259D01*
X165101345Y-81286187D01*
X165444608Y-80459516D01*
X165445390Y-79564411D01*
X165103569Y-78737142D01*
X164471187Y-78103655D01*
X163644516Y-77760392D01*
X162749411Y-77759610D01*
X161922142Y-78101431D01*
X161288655Y-78733813D01*
X160945392Y-79560484D01*
X160944610Y-80455589D01*
X149787987Y-80455589D01*
X153093676Y-77149900D01*
X162656113Y-77149900D01*
X163325809Y-77016689D01*
X163893550Y-76637337D01*
X167851864Y-72679023D01*
X172812967Y-72679023D01*
X173061503Y-73350457D01*
X173139329Y-73466931D01*
X173423317Y-73588855D01*
X174622172Y-72390000D01*
X174627828Y-72390000D01*
X175826683Y-73588855D01*
X176110671Y-73466931D01*
X176409704Y-72816413D01*
X176414952Y-72679023D01*
X186782967Y-72679023D01*
X187031503Y-73350457D01*
X187109329Y-73466931D01*
X187393317Y-73588855D01*
X188592172Y-72390000D01*
X188597828Y-72390000D01*
X189796683Y-73588855D01*
X190080671Y-73466931D01*
X190379704Y-72816413D01*
X190407033Y-72100977D01*
X190158497Y-71429543D01*
X190080671Y-71313069D01*
X189796683Y-71191145D01*
X188597828Y-72390000D01*
X188592172Y-72390000D01*
X187393317Y-71191145D01*
X187109329Y-71313069D01*
X186810296Y-71963587D01*
X186782967Y-72679023D01*
X176414952Y-72679023D01*
X176437033Y-72100977D01*
X176188497Y-71429543D01*
X176110671Y-71313069D01*
X175826683Y-71191145D01*
X174627828Y-72390000D01*
X174622172Y-72390000D01*
X173423317Y-71191145D01*
X173139329Y-71313069D01*
X172840296Y-71963587D01*
X172812967Y-72679023D01*
X167851864Y-72679023D01*
X170531087Y-69999800D01*
X172839947Y-69999800D01*
X173207196Y-70367690D01*
X174006926Y-70699768D01*
X173664543Y-70826503D01*
X173548069Y-70904329D01*
X173426145Y-71188317D01*
X174625000Y-72387172D01*
X175823855Y-71188317D01*
X175701931Y-70904329D01*
X175249576Y-70696388D01*
X176039105Y-70370162D01*
X176410114Y-69999800D01*
X186809947Y-69999800D01*
X187177196Y-70367690D01*
X187976926Y-70699768D01*
X187634543Y-70826503D01*
X187518069Y-70904329D01*
X187396145Y-71188317D01*
X188595000Y-72387172D01*
X189793855Y-71188317D01*
X189671931Y-70904329D01*
X189219576Y-70696388D01*
X190009105Y-70370162D01*
X190712890Y-69667604D01*
X191094246Y-68749199D01*
X191095113Y-67754764D01*
X190715362Y-66835695D01*
X190130057Y-66249368D01*
X190207400Y-66217411D01*
X191009873Y-65416337D01*
X191444704Y-64369147D01*
X191445694Y-63235267D01*
X191012691Y-62187320D01*
X190211617Y-61384847D01*
X189164427Y-60950016D01*
X188030547Y-60949026D01*
X186982600Y-61382029D01*
X186180127Y-62183103D01*
X185745296Y-63230293D01*
X185744306Y-64364173D01*
X186177309Y-65412120D01*
X186978383Y-66214593D01*
X187061159Y-66248965D01*
X186809886Y-66499800D01*
X176410053Y-66499800D01*
X176160057Y-66249368D01*
X176237400Y-66217411D01*
X177039873Y-65416337D01*
X177474704Y-64369147D01*
X177475694Y-63235267D01*
X177042691Y-62187320D01*
X176241617Y-61384847D01*
X175194427Y-60950016D01*
X174060547Y-60949026D01*
X173012600Y-61382029D01*
X172210127Y-62183103D01*
X171775296Y-63230293D01*
X171774306Y-64364173D01*
X172207309Y-65412120D01*
X173008383Y-66214593D01*
X173091159Y-66248965D01*
X172839886Y-66499800D01*
X169806213Y-66499800D01*
X169136517Y-66633011D01*
X168568776Y-67012363D01*
X161931239Y-73649900D01*
X152368802Y-73649900D01*
X151699106Y-73783111D01*
X151131365Y-74162463D01*
X146943253Y-78350575D01*
X140552927Y-78350575D01*
X137933434Y-75731082D01*
X142457747Y-75731082D01*
X142619225Y-76048851D01*
X143387203Y-76402035D01*
X144231879Y-76434441D01*
X145024660Y-76141136D01*
X145162775Y-76048851D01*
X145324253Y-75731082D01*
X143891000Y-74297828D01*
X142457747Y-75731082D01*
X137933434Y-75731082D01*
X136838231Y-74635879D01*
X141751559Y-74635879D01*
X142044864Y-75428660D01*
X142137149Y-75566775D01*
X142454918Y-75728253D01*
X143888172Y-74295000D01*
X143893828Y-74295000D01*
X145327082Y-75728253D01*
X145644851Y-75566775D01*
X145998035Y-74798797D01*
X146030441Y-73954121D01*
X145737136Y-73161340D01*
X145644851Y-73023225D01*
X145327082Y-72861747D01*
X143893828Y-74295000D01*
X143888172Y-74295000D01*
X142454918Y-72861747D01*
X142137149Y-73023225D01*
X141783965Y-73791203D01*
X141751559Y-74635879D01*
X136838231Y-74635879D01*
X135259915Y-73057563D01*
X134962622Y-72858918D01*
X142457747Y-72858918D01*
X143891000Y-74292172D01*
X145324253Y-72858918D01*
X145162775Y-72541149D01*
X144394797Y-72187965D01*
X143550121Y-72155559D01*
X142757340Y-72448864D01*
X142619225Y-72541149D01*
X142457747Y-72858918D01*
X134962622Y-72858918D01*
X134692174Y-72678211D01*
X134022478Y-72545000D01*
X118703440Y-72545000D01*
X118061210Y-71901648D01*
X117023353Y-71470692D01*
X115899578Y-71469711D01*
X114860970Y-71898855D01*
X114065648Y-72692790D01*
X113634692Y-73730647D01*
X113633711Y-74854422D01*
X114062855Y-75893030D01*
X114709000Y-76540304D01*
X114709000Y-80301126D01*
X112668488Y-82341638D01*
X111850668Y-82340924D01*
X110840077Y-82758492D01*
X110066209Y-83531010D01*
X109646878Y-84540871D01*
X109646160Y-85363966D01*
X107860126Y-87150000D01*
X85759538Y-87150000D01*
X85603897Y-86994087D01*
X84777414Y-86650901D01*
X83882512Y-86650120D01*
X83055431Y-86991863D01*
X82422087Y-87624103D01*
X82078901Y-88450586D01*
X82078120Y-89345488D01*
X76820518Y-89345488D01*
X76800789Y-89246304D01*
X76421437Y-88678563D01*
X76417688Y-88674814D01*
X76417880Y-88454512D01*
X76076137Y-87627431D01*
X75443897Y-86994087D01*
X74617414Y-86650901D01*
X73722512Y-86650120D01*
X72895431Y-86991863D01*
X72262087Y-87624103D01*
X71918901Y-88450586D01*
X71918120Y-89345488D01*
X72259863Y-90172569D01*
X72892103Y-90805913D01*
X73434000Y-91030928D01*
X73434000Y-93172813D01*
X73223006Y-92662168D01*
X72568279Y-92006297D01*
X71712399Y-91650905D01*
X70785667Y-91650096D01*
X69929168Y-92003994D01*
X69702767Y-92230000D01*
X68473592Y-92230000D01*
X68250279Y-92006297D01*
X67394399Y-91650905D01*
X66467667Y-91650096D01*
X65611168Y-92003994D01*
X64955297Y-92658721D01*
X64599905Y-93514601D01*
X64599096Y-94441333D01*
X64952994Y-95297832D01*
X65607721Y-95953703D01*
X66463601Y-96309095D01*
X67390333Y-96309904D01*
X68246832Y-95956006D01*
X68473233Y-95730000D01*
X69702408Y-95730000D01*
X69925721Y-95953703D01*
X70781601Y-96309095D01*
X71708333Y-96309904D01*
X72564832Y-95956006D01*
X73220703Y-95301279D01*
X73434000Y-94787602D01*
X73434000Y-97826312D01*
X73214512Y-97826120D01*
X72387431Y-98167863D01*
X72229018Y-98326000D01*
X65947538Y-98326000D01*
X65791897Y-98170087D01*
X64965414Y-97826901D01*
X64070512Y-97826120D01*
X63243431Y-98167863D01*
X62610087Y-98800103D01*
X62266901Y-99626586D01*
X62266120Y-100521488D01*
X56605102Y-100521488D01*
X56605880Y-99630512D01*
X56264137Y-98803431D01*
X56106000Y-98645018D01*
X56106000Y-96393000D01*
X55972789Y-95723304D01*
X55593437Y-95155563D01*
X54272628Y-93834754D01*
X54272904Y-93518667D01*
X53919006Y-92662168D01*
X53264279Y-92006297D01*
X52408399Y-91650905D01*
X51481667Y-91650096D01*
X50625168Y-92003994D01*
X49969297Y-92658721D01*
X49613905Y-93514601D01*
X49613096Y-94441333D01*
X49966994Y-95297832D01*
X50621721Y-95953703D01*
X51477601Y-96309095D01*
X51797500Y-96309374D01*
X52606000Y-97117874D01*
X52606000Y-98541900D01*
X47759053Y-98541900D01*
X47509057Y-98291468D01*
X47586400Y-98259511D01*
X48388873Y-97458437D01*
X48823704Y-96411247D01*
X48824694Y-95277367D01*
X48391691Y-94229420D01*
X47590617Y-93426947D01*
X46543427Y-92992116D01*
X45409547Y-92991126D01*
X44361600Y-93424129D01*
X43559127Y-94225203D01*
X43124296Y-95272393D01*
X43123306Y-96406273D01*
X38270500Y-96406273D01*
X38270500Y-66548000D01*
X38382000Y-66548000D01*
X38382000Y-76708000D01*
X38515211Y-77377696D01*
X38894563Y-77945437D01*
X45879563Y-84930437D01*
X46447304Y-85309789D01*
X47117000Y-85443000D01*
X52811408Y-85443000D01*
X53034721Y-85666703D01*
X53890601Y-86022095D01*
X54817333Y-86022904D01*
X55673832Y-85669006D01*
X55900233Y-85443000D01*
X68559408Y-85443000D01*
X68782721Y-85666703D01*
X69638601Y-86022095D01*
X70565333Y-86022904D01*
X71421832Y-85669006D01*
X71648233Y-85443000D01*
X73586547Y-85443000D01*
X74256243Y-85309789D01*
X74267310Y-85302394D01*
X94325434Y-85302394D01*
X94508226Y-85638368D01*
X95339501Y-86020732D01*
X96253823Y-86055875D01*
X97111995Y-85738447D01*
X97261774Y-85638368D01*
X97444566Y-85302394D01*
X95885000Y-83742828D01*
X94325434Y-85302394D01*
X74267310Y-85302394D01*
X74823984Y-84930437D01*
X75645598Y-84108823D01*
X93569125Y-84108823D01*
X93886553Y-84966995D01*
X93986632Y-85116774D01*
X94322606Y-85299566D01*
X95882172Y-83740000D01*
X95887828Y-83740000D01*
X97447394Y-85299566D01*
X97783368Y-85116774D01*
X98165732Y-84285499D01*
X98200875Y-83371177D01*
X97883447Y-82513005D01*
X97783368Y-82363226D01*
X97447394Y-82180434D01*
X95887828Y-83740000D01*
X95882172Y-83740000D01*
X94322606Y-82180434D01*
X93986632Y-82363226D01*
X93604268Y-83194501D01*
X93569125Y-84108823D01*
X75645598Y-84108823D01*
X77576815Y-82177606D01*
X94325434Y-82177606D01*
X95885000Y-83737172D01*
X97444566Y-82177606D01*
X97261774Y-81841632D01*
X96430499Y-81459268D01*
X95516177Y-81424125D01*
X94658005Y-81741553D01*
X94508226Y-81841632D01*
X94325434Y-82177606D01*
X77576815Y-82177606D01*
X79469437Y-80284984D01*
X79848789Y-79717243D01*
X79982000Y-79047547D01*
X79982000Y-77606025D01*
X80370343Y-77356133D01*
X80655756Y-76938417D01*
X80756168Y-76442570D01*
X80756168Y-74941430D01*
X80669007Y-74478208D01*
X80395243Y-74052767D01*
X79977527Y-73767354D01*
X79481680Y-73666942D01*
X76982320Y-73666942D01*
X76519098Y-73754103D01*
X76093657Y-74027867D01*
X75808244Y-74445583D01*
X75707832Y-74941430D01*
X75707832Y-76442570D01*
X75794993Y-76905792D01*
X76068757Y-77331233D01*
X76482000Y-77613590D01*
X76482000Y-78322673D01*
X72861673Y-81943000D01*
X71648592Y-81943000D01*
X71425279Y-81719297D01*
X70569399Y-81363905D01*
X69642667Y-81363096D01*
X68786168Y-81716994D01*
X68559767Y-81943000D01*
X61722190Y-81943000D01*
X63213437Y-80451753D01*
X63592789Y-79884012D01*
X63726000Y-79214316D01*
X63726000Y-77248738D01*
X63938699Y-77106617D01*
X64372368Y-76457585D01*
X64524652Y-75692000D01*
X64372368Y-74926415D01*
X63938699Y-74277383D01*
X63289667Y-73843714D01*
X62524082Y-73691430D01*
X61427918Y-73691430D01*
X60662333Y-73843714D01*
X60013301Y-74277383D01*
X59579632Y-74926415D01*
X59427348Y-75692000D01*
X59579632Y-76457585D01*
X60013301Y-77106617D01*
X60226000Y-77248738D01*
X60226000Y-78489442D01*
X56772442Y-81943000D01*
X55900592Y-81943000D01*
X55677279Y-81719297D01*
X54821399Y-81363905D01*
X53894667Y-81363096D01*
X53038168Y-81716994D01*
X52811767Y-81943000D01*
X47841874Y-81943000D01*
X41882000Y-75983126D01*
X41882000Y-67272874D01*
X42850774Y-66304100D01*
X43934947Y-66304100D01*
X44184943Y-66554532D01*
X44107600Y-66586489D01*
X43305127Y-67387563D01*
X42870296Y-68434753D01*
X42869306Y-69568633D01*
X43302309Y-70616580D01*
X44103383Y-71419053D01*
X45150573Y-71853884D01*
X46284453Y-71854874D01*
X47332400Y-71421871D01*
X48134873Y-70620797D01*
X48569704Y-69573607D01*
X48570694Y-68439727D01*
X48137691Y-67391780D01*
X47336617Y-66589307D01*
X47253841Y-66554935D01*
X47837890Y-65971904D01*
X48219246Y-65053499D01*
X48220113Y-64059064D01*
X47840362Y-63139995D01*
X47179913Y-62478392D01*
X47827730Y-61831704D01*
X48209086Y-60913299D01*
X48209953Y-59918864D01*
X47830202Y-58999795D01*
X47585169Y-58754333D01*
X52026096Y-58754333D01*
X52379994Y-59610832D01*
X52606000Y-59837233D01*
X52606000Y-67162408D01*
X52382297Y-67385721D01*
X52026905Y-68241601D01*
X52026096Y-69168333D01*
X52379994Y-70024832D01*
X53034721Y-70680703D01*
X53890601Y-71036095D01*
X54817333Y-71036904D01*
X55673832Y-70683006D01*
X56329703Y-70028279D01*
X56685095Y-69172399D01*
X56685904Y-68245667D01*
X56332006Y-67389168D01*
X56106000Y-67162767D01*
X56106000Y-59837592D01*
X56329703Y-59614279D01*
X56685095Y-58758399D01*
X56685904Y-57831667D01*
X56408968Y-57161430D01*
X59451832Y-57161430D01*
X59451832Y-58662570D01*
X59538993Y-59125792D01*
X59812757Y-59551233D01*
X60230473Y-59836646D01*
X60726320Y-59937058D01*
X61526184Y-59937058D01*
X63274000Y-61684874D01*
X63274000Y-62576462D01*
X63118087Y-62732103D01*
X62774901Y-63558586D01*
X62774120Y-64453488D01*
X63115863Y-65280569D01*
X63274000Y-65438982D01*
X63274000Y-66839126D01*
X61526184Y-68586942D01*
X60726320Y-68586942D01*
X60263098Y-68674103D01*
X59837657Y-68947867D01*
X59552244Y-69365583D01*
X59451832Y-69861430D01*
X59451832Y-71362570D01*
X59538993Y-71825792D01*
X59812757Y-72251233D01*
X60230473Y-72536646D01*
X60726320Y-72637058D01*
X63225680Y-72637058D01*
X63688902Y-72549897D01*
X64114343Y-72276133D01*
X64399756Y-71858417D01*
X64500168Y-71362570D01*
X64500168Y-70562706D01*
X66261437Y-68801437D01*
X66640789Y-68233696D01*
X66774000Y-67564000D01*
X66774000Y-65439538D01*
X66929913Y-65283897D01*
X67273099Y-64457414D01*
X67273880Y-63562512D01*
X66932137Y-62735431D01*
X66774000Y-62577018D01*
X66774000Y-60960000D01*
X66640789Y-60290304D01*
X66261437Y-59722563D01*
X65547207Y-59008333D01*
X67647096Y-59008333D01*
X68000994Y-59864832D01*
X68354000Y-60218455D01*
X68354000Y-67162408D01*
X68130297Y-67385721D01*
X67774905Y-68241601D01*
X67774096Y-69168333D01*
X68127994Y-70024832D01*
X68782721Y-70680703D01*
X69638601Y-71036095D01*
X70565333Y-71036904D01*
X71096503Y-70817429D01*
X76448647Y-70817429D01*
X76530555Y-71107859D01*
X76811834Y-71530228D01*
X77233336Y-71812805D01*
X77730890Y-71912570D01*
X78230000Y-71912570D01*
X78230000Y-70614000D01*
X78234000Y-70614000D01*
X78234000Y-71912570D01*
X78733110Y-71912570D01*
X79230664Y-71812805D01*
X79652166Y-71530228D01*
X79933445Y-71107859D01*
X80015353Y-70817429D01*
X79894178Y-70614000D01*
X78234000Y-70614000D01*
X78230000Y-70614000D01*
X76569822Y-70614000D01*
X76448647Y-70817429D01*
X71096503Y-70817429D01*
X71421832Y-70683006D01*
X71698750Y-70406571D01*
X76448647Y-70406571D01*
X76569822Y-70610000D01*
X78230000Y-70610000D01*
X78230000Y-69311430D01*
X78234000Y-69311430D01*
X78234000Y-70610000D01*
X79894178Y-70610000D01*
X80015353Y-70406571D01*
X79984026Y-70295488D01*
X82205120Y-70295488D01*
X82546863Y-71122569D01*
X83179103Y-71755913D01*
X84005586Y-72099099D01*
X84229420Y-72099294D01*
X87107563Y-74977437D01*
X87675304Y-75356789D01*
X88345000Y-75490000D01*
X92860512Y-75490000D01*
X92947673Y-75953222D01*
X93221437Y-76378663D01*
X93639153Y-76664076D01*
X94135000Y-76764488D01*
X97635000Y-76764488D01*
X98098222Y-76677327D01*
X98523663Y-76403563D01*
X98809076Y-75985847D01*
X98909488Y-75490000D01*
X104060000Y-75490000D01*
X104729696Y-75356789D01*
X105297437Y-74977437D01*
X108175186Y-72099688D01*
X108395488Y-72099880D01*
X109222569Y-71758137D01*
X109855913Y-71125897D01*
X110199099Y-70299414D01*
X110199880Y-69404512D01*
X109858137Y-68577431D01*
X109225897Y-67944087D01*
X108399414Y-67600901D01*
X107504512Y-67600120D01*
X106677431Y-67941863D01*
X106044087Y-68574103D01*
X105700901Y-69400586D01*
X105700706Y-69624420D01*
X103335126Y-71990000D01*
X98909488Y-71990000D01*
X98822327Y-71526778D01*
X98548563Y-71101337D01*
X98130847Y-70815924D01*
X97635000Y-70715512D01*
X97635000Y-60711306D01*
X106931522Y-60711306D01*
X107023008Y-60969298D01*
X107583138Y-61226661D01*
X108199119Y-61250082D01*
X108777173Y-61035994D01*
X108876992Y-60969298D01*
X108968478Y-60711306D01*
X107950000Y-59692828D01*
X106931522Y-60711306D01*
X97635000Y-60711306D01*
X97635000Y-59939119D01*
X106389918Y-59939119D01*
X106604006Y-60517173D01*
X106670702Y-60616992D01*
X106928694Y-60708478D01*
X107947172Y-59690000D01*
X107952828Y-59690000D01*
X108971306Y-60708478D01*
X109229298Y-60616992D01*
X109486661Y-60056862D01*
X109510082Y-59440881D01*
X109295994Y-58862827D01*
X109229298Y-58763008D01*
X108971306Y-58671522D01*
X107952828Y-59690000D01*
X107947172Y-59690000D01*
X106928694Y-58671522D01*
X106670702Y-58763008D01*
X106413339Y-59323138D01*
X106389918Y-59939119D01*
X97635000Y-59939119D01*
X97635000Y-58926994D01*
X97893751Y-58668694D01*
X106931522Y-58668694D01*
X107950000Y-59687172D01*
X108968478Y-58668694D01*
X108876992Y-58410702D01*
X108316862Y-58153339D01*
X107700881Y-58129918D01*
X107122827Y-58344006D01*
X107023008Y-58410702D01*
X106931522Y-58668694D01*
X97893751Y-58668694D01*
X98426793Y-58136582D01*
X98767494Y-57316082D01*
X115025747Y-57316082D01*
X115187225Y-57633851D01*
X115955203Y-57987035D01*
X116799879Y-58019441D01*
X117592660Y-57726136D01*
X117730775Y-57633851D01*
X117892253Y-57316082D01*
X116459000Y-55882828D01*
X115025747Y-57316082D01*
X98767494Y-57316082D01*
X98884478Y-57034355D01*
X98885187Y-56220879D01*
X114319559Y-56220879D01*
X114612864Y-57013660D01*
X114705149Y-57151775D01*
X115022918Y-57313253D01*
X116456172Y-55880000D01*
X116461828Y-55880000D01*
X117895082Y-57313253D01*
X118212851Y-57151775D01*
X118566035Y-56383797D01*
X118598441Y-55539121D01*
X118305136Y-54746340D01*
X118212851Y-54608225D01*
X117895082Y-54446747D01*
X116461828Y-55880000D01*
X116456172Y-55880000D01*
X115022918Y-54446747D01*
X114705149Y-54608225D01*
X114351965Y-55376203D01*
X114319559Y-56220879D01*
X98885187Y-56220879D01*
X98885519Y-55840881D01*
X98429759Y-54737857D01*
X98136333Y-54443918D01*
X115025747Y-54443918D01*
X116459000Y-55877172D01*
X117892253Y-54443918D01*
X117730775Y-54126149D01*
X116962797Y-53772965D01*
X116118121Y-53740559D01*
X115325340Y-54033864D01*
X115187225Y-54126149D01*
X115025747Y-54443918D01*
X98136333Y-54443918D01*
X97586582Y-53893207D01*
X96484355Y-53435522D01*
X95290881Y-53434481D01*
X94187857Y-53890241D01*
X93343207Y-54733418D01*
X92885522Y-55835645D01*
X92884481Y-57029119D01*
X93340241Y-58132143D01*
X94135000Y-58928290D01*
X94135000Y-70715512D01*
X93671778Y-70802673D01*
X93246337Y-71076437D01*
X92960924Y-71494153D01*
X92860512Y-71990000D01*
X89069874Y-71990000D01*
X86704688Y-69624814D01*
X86704880Y-69404512D01*
X86363137Y-68577431D01*
X85730897Y-67944087D01*
X84904414Y-67600901D01*
X84009512Y-67600120D01*
X83182431Y-67941863D01*
X82549087Y-68574103D01*
X82205901Y-69400586D01*
X82205120Y-70295488D01*
X79984026Y-70295488D01*
X79933445Y-70116141D01*
X79652166Y-69693772D01*
X79230664Y-69411195D01*
X78733110Y-69311430D01*
X78234000Y-69311430D01*
X78230000Y-69311430D01*
X77730890Y-69311430D01*
X77233336Y-69411195D01*
X76811834Y-69693772D01*
X76530555Y-70116141D01*
X76448647Y-70406571D01*
X71698750Y-70406571D01*
X72077703Y-70028279D01*
X72433095Y-69172399D01*
X72433904Y-68245667D01*
X72080006Y-67389168D01*
X71854000Y-67162767D01*
X71854000Y-64453488D01*
X72934120Y-64453488D01*
X73275863Y-65280569D01*
X73908103Y-65913913D01*
X74734586Y-66257099D01*
X75629488Y-66257880D01*
X76456569Y-65916137D01*
X76614982Y-65758000D01*
X80137000Y-65758000D01*
X80806696Y-65624789D01*
X81374437Y-65245437D01*
X84680186Y-61939688D01*
X84900488Y-61939880D01*
X85727569Y-61598137D01*
X86360913Y-60965897D01*
X86704099Y-60139414D01*
X86704880Y-59244512D01*
X86363137Y-58417431D01*
X86205000Y-58259018D01*
X86205000Y-52816141D01*
X90836141Y-48185000D01*
X92860512Y-48185000D01*
X92947673Y-48648222D01*
X93221437Y-49073663D01*
X93639153Y-49359076D01*
X94135000Y-49459488D01*
X97635000Y-49459488D01*
X98098222Y-49372327D01*
X98523663Y-49098563D01*
X98809076Y-48680847D01*
X98909488Y-48185000D01*
X110686603Y-48185000D01*
X111356299Y-48051789D01*
X111924040Y-47672437D01*
X117696437Y-41900040D01*
X118075789Y-41332299D01*
X118209000Y-40662603D01*
X118209000Y-39709440D01*
X118852352Y-39067210D01*
X119283308Y-38029353D01*
X119284289Y-36905578D01*
X118855145Y-35866970D01*
X118061210Y-35071648D01*
X117277661Y-34746290D01*
X127521416Y-34746290D01*
X142141000Y-49365874D01*
X142141000Y-53635560D01*
X141497648Y-54277790D01*
X141066692Y-55315647D01*
X141065711Y-56439422D01*
X141494855Y-57478030D01*
X142141000Y-58125304D01*
X142141000Y-63937816D01*
X142274211Y-64607512D01*
X142653563Y-65175253D01*
X145263747Y-67785437D01*
X145831488Y-68164789D01*
X146501184Y-68298000D01*
X147920462Y-68298000D01*
X148076103Y-68453913D01*
X148902586Y-68797099D01*
X149797488Y-68797880D01*
X150624569Y-68456137D01*
X150782982Y-68298000D01*
X161762741Y-68298000D01*
X161918813Y-68454345D01*
X162745484Y-68797608D01*
X163640589Y-68798390D01*
X164467858Y-68456569D01*
X165101345Y-67824187D01*
X165444608Y-66997516D01*
X165445390Y-66102411D01*
X165103569Y-65275142D01*
X164471187Y-64641655D01*
X163644516Y-64298392D01*
X162749411Y-64297610D01*
X161922142Y-64639431D01*
X161763296Y-64798000D01*
X159553207Y-64798000D01*
X162781437Y-61569770D01*
X163160789Y-61002029D01*
X163294000Y-60332333D01*
X163294000Y-40708925D01*
X163160789Y-40039229D01*
X162781437Y-39471488D01*
X160619949Y-37310000D01*
X161835126Y-37310000D01*
X164620000Y-40094874D01*
X164620000Y-49368462D01*
X164464087Y-49524103D01*
X164120901Y-50350586D01*
X164120120Y-51245488D01*
X164461863Y-52072569D01*
X165094103Y-52705913D01*
X165920586Y-53049099D01*
X166815488Y-53049880D01*
X167642569Y-52708137D01*
X168275913Y-52075897D01*
X168619099Y-51249414D01*
X168619102Y-51245488D01*
X174280120Y-51245488D01*
X174621863Y-52072569D01*
X175254103Y-52705913D01*
X176080586Y-53049099D01*
X176975488Y-53049880D01*
X177802569Y-52708137D01*
X177960982Y-52550000D01*
X179613390Y-52550000D01*
X179727173Y-52663982D01*
X180535473Y-52999618D01*
X181410687Y-53000381D01*
X182219572Y-52666157D01*
X182536281Y-52350000D01*
X183375500Y-52350000D01*
X183513000Y-52212500D01*
X183513000Y-50802000D01*
X183517000Y-50802000D01*
X183517000Y-52212500D01*
X183654500Y-52350000D01*
X184574402Y-52350000D01*
X184776550Y-52266268D01*
X184931267Y-52111550D01*
X185015000Y-51909402D01*
X185015000Y-50939500D01*
X184877500Y-50802000D01*
X183517000Y-50802000D01*
X183513000Y-50802000D01*
X183493000Y-50802000D01*
X183493000Y-50798000D01*
X183513000Y-50798000D01*
X183513000Y-49387500D01*
X183517000Y-49387500D01*
X183517000Y-50798000D01*
X184877500Y-50798000D01*
X185015000Y-50660500D01*
X185015000Y-49690598D01*
X184931267Y-49488450D01*
X184776550Y-49333732D01*
X184574402Y-49250000D01*
X183654500Y-49250000D01*
X183517000Y-49387500D01*
X183513000Y-49387500D01*
X183375500Y-49250000D01*
X182536262Y-49250000D01*
X182222827Y-48936018D01*
X181414527Y-48600382D01*
X180539313Y-48599619D01*
X179730428Y-48933843D01*
X179614068Y-49050000D01*
X177961538Y-49050000D01*
X177805897Y-48894087D01*
X176979414Y-48550901D01*
X176084512Y-48550120D01*
X175257431Y-48891863D01*
X174624087Y-49524103D01*
X174280901Y-50350586D01*
X174280120Y-51245488D01*
X168619102Y-51245488D01*
X168619880Y-50354512D01*
X168278137Y-49527431D01*
X168120000Y-49369018D01*
X168120000Y-39370000D01*
X167986789Y-38700304D01*
X167982496Y-38693879D01*
X169009490Y-38693879D01*
X169465067Y-39796459D01*
X170307904Y-40640768D01*
X171409687Y-41098269D01*
X172602679Y-41099310D01*
X173705259Y-40643733D01*
X174549568Y-39800896D01*
X175007069Y-38699113D01*
X175008110Y-37506121D01*
X174658913Y-36661000D01*
X181313143Y-36661000D01*
X181313143Y-44261000D01*
X194098857Y-44261000D01*
X194098857Y-36661000D01*
X181313143Y-36661000D01*
X174658913Y-36661000D01*
X174552533Y-36403541D01*
X173709696Y-35559232D01*
X172607913Y-35101731D01*
X171414921Y-35100690D01*
X170312341Y-35556267D01*
X169468032Y-36399104D01*
X169010531Y-37500887D01*
X169009490Y-38693879D01*
X167982496Y-38693879D01*
X167607437Y-38132563D01*
X163797437Y-34322563D01*
X163229696Y-33943211D01*
X162560000Y-33810000D01*
X157537853Y-33810000D01*
X157170604Y-33442110D01*
X156252199Y-33060754D01*
X155257764Y-33059887D01*
X154338695Y-33439638D01*
X153634910Y-34142196D01*
X153253554Y-35060601D01*
X153253083Y-35600354D01*
X152717764Y-35599887D01*
X151798695Y-35979638D01*
X151094910Y-36682196D01*
X150713554Y-37600601D01*
X150712687Y-38595036D01*
X151092438Y-39514105D01*
X151794996Y-40217890D01*
X152713401Y-40599246D01*
X153253154Y-40599717D01*
X153252687Y-41135036D01*
X153632438Y-42054105D01*
X154002800Y-42425114D01*
X154002800Y-43165707D01*
X148114563Y-49053944D01*
X147735211Y-49621685D01*
X147602000Y-50291381D01*
X147602000Y-50638462D01*
X147446087Y-50794103D01*
X147102901Y-51620586D01*
X147102120Y-52515488D01*
X147443863Y-53342569D01*
X147602000Y-53500982D01*
X147602000Y-54956462D01*
X147446087Y-55112103D01*
X147102901Y-55938586D01*
X147102120Y-56833488D01*
X147443863Y-57660569D01*
X148076103Y-58293913D01*
X148902586Y-58637099D01*
X149797488Y-58637880D01*
X150624569Y-58296137D01*
X151257913Y-57663897D01*
X151601099Y-56837414D01*
X151601880Y-55942512D01*
X151260137Y-55115431D01*
X151102000Y-54957018D01*
X151102000Y-53501538D01*
X151257913Y-53345897D01*
X151601099Y-52519414D01*
X151601880Y-51624512D01*
X151277881Y-50840374D01*
X156990237Y-45128018D01*
X157369589Y-44560277D01*
X157502800Y-43890581D01*
X157502800Y-42425053D01*
X157870690Y-42057804D01*
X158252046Y-41139399D01*
X158252913Y-40144964D01*
X158131037Y-39850000D01*
X158210201Y-39850000D01*
X159794000Y-41433799D01*
X159794000Y-59607459D01*
X154603459Y-64798000D01*
X150783538Y-64798000D01*
X150627897Y-64642087D01*
X149801414Y-64298901D01*
X148906512Y-64298120D01*
X148079431Y-64639863D01*
X147921018Y-64798000D01*
X147226058Y-64798000D01*
X145641000Y-63212942D01*
X145641000Y-58124440D01*
X146284352Y-57482210D01*
X146715308Y-56444353D01*
X146716289Y-55320578D01*
X146287145Y-54281970D01*
X145641000Y-53634696D01*
X145641000Y-48641000D01*
X145507789Y-47971304D01*
X145128437Y-47403563D01*
X143196180Y-45471306D01*
X148333522Y-45471306D01*
X148425008Y-45729298D01*
X148985138Y-45986661D01*
X149601119Y-46010082D01*
X150179173Y-45795994D01*
X150278992Y-45729298D01*
X150370478Y-45471306D01*
X149352000Y-44452828D01*
X148333522Y-45471306D01*
X143196180Y-45471306D01*
X142423993Y-44699119D01*
X147791918Y-44699119D01*
X148006006Y-45277173D01*
X148072702Y-45376992D01*
X148330694Y-45468478D01*
X149349172Y-44450000D01*
X149354828Y-44450000D01*
X150373306Y-45468478D01*
X150631298Y-45376992D01*
X150888661Y-44816862D01*
X150912082Y-44200881D01*
X150697994Y-43622827D01*
X150631298Y-43523008D01*
X150373306Y-43431522D01*
X149354828Y-44450000D01*
X149349172Y-44450000D01*
X148330694Y-43431522D01*
X148072702Y-43523008D01*
X147815339Y-44083138D01*
X147791918Y-44699119D01*
X142423993Y-44699119D01*
X141153568Y-43428694D01*
X148333522Y-43428694D01*
X149352000Y-44447172D01*
X150370478Y-43428694D01*
X150278992Y-43170702D01*
X149718862Y-42913339D01*
X149102881Y-42889918D01*
X148524827Y-43104006D01*
X148425008Y-43170702D01*
X148333522Y-43428694D01*
X141153568Y-43428694D01*
X136625956Y-38901082D01*
X142457747Y-38901082D01*
X142619225Y-39218851D01*
X143387203Y-39572035D01*
X144231879Y-39604441D01*
X145024660Y-39311136D01*
X145162775Y-39218851D01*
X145324253Y-38901082D01*
X143891000Y-37467828D01*
X142457747Y-38901082D01*
X136625956Y-38901082D01*
X135530753Y-37805879D01*
X141751559Y-37805879D01*
X142044864Y-38598660D01*
X142137149Y-38736775D01*
X142454918Y-38898253D01*
X143888172Y-37465000D01*
X143893828Y-37465000D01*
X145327082Y-38898253D01*
X145644851Y-38736775D01*
X145998035Y-37968797D01*
X146030441Y-37124121D01*
X145737136Y-36331340D01*
X145644851Y-36193225D01*
X145327082Y-36031747D01*
X143893828Y-37465000D01*
X143888172Y-37465000D01*
X142454918Y-36031747D01*
X142137149Y-36193225D01*
X141783965Y-36961203D01*
X141751559Y-37805879D01*
X135530753Y-37805879D01*
X133753792Y-36028918D01*
X142457747Y-36028918D01*
X143891000Y-37462172D01*
X145324253Y-36028918D01*
X145162775Y-35711149D01*
X144394797Y-35357965D01*
X143550121Y-35325559D01*
X142757340Y-35618864D01*
X142619225Y-35711149D01*
X142457747Y-36028918D01*
X133753792Y-36028918D01*
X130317925Y-32593051D01*
X188830380Y-32593051D01*
X189286150Y-33696098D01*
X190129344Y-34540764D01*
X191231593Y-34998458D01*
X192425091Y-34999500D01*
X193528138Y-34543730D01*
X194372804Y-33700536D01*
X194830498Y-32598287D01*
X194831540Y-31404789D01*
X194375770Y-30301742D01*
X193532576Y-29457076D01*
X192430327Y-28999382D01*
X191236829Y-28998340D01*
X190133782Y-29454110D01*
X189289116Y-30297304D01*
X188831422Y-31399553D01*
X188830380Y-32593051D01*
X130317925Y-32593051D01*
X129483727Y-31758853D01*
X128915986Y-31379501D01*
X128246290Y-31246290D01*
X114269942Y-31246290D01*
X113600246Y-31379501D01*
X113032505Y-31758853D01*
X108812500Y-35978858D01*
X108175799Y-35978858D01*
X108757053Y-35398617D01*
X109191884Y-34351427D01*
X109192874Y-33217547D01*
X108759871Y-32169600D01*
X107958797Y-31367127D01*
X106911607Y-30932296D01*
X105777727Y-30931306D01*
X104729780Y-31364309D01*
X103927307Y-32165383D01*
X103892935Y-32248159D01*
X103309904Y-31664110D01*
X102391499Y-31282754D01*
X101397064Y-31281887D01*
X100477995Y-31661638D01*
X99816392Y-32322087D01*
X99169704Y-31674270D01*
X98251299Y-31292914D01*
X97256864Y-31292047D01*
X96337795Y-31671798D01*
X95634010Y-32374356D01*
X95252654Y-33292761D01*
X95251787Y-34287196D01*
X95631538Y-35206265D01*
X96001900Y-35577274D01*
X96001900Y-39245356D01*
X94647563Y-40599693D01*
X94268211Y-41167434D01*
X94135000Y-41837130D01*
X94135000Y-43410512D01*
X93671778Y-43497673D01*
X93246337Y-43771437D01*
X92960924Y-44189153D01*
X92860512Y-44685000D01*
X90111272Y-44685000D01*
X90111267Y-44684999D01*
X89441571Y-44818211D01*
X88873830Y-45197563D01*
X83217563Y-50853830D01*
X82838211Y-51421571D01*
X82705000Y-52091267D01*
X82705000Y-58258462D01*
X82549087Y-58414103D01*
X82205901Y-59240586D01*
X82205706Y-59464420D01*
X79412126Y-62258000D01*
X76615538Y-62258000D01*
X76459897Y-62102087D01*
X75633414Y-61758901D01*
X74738512Y-61758120D01*
X73911431Y-62099863D01*
X73278087Y-62732103D01*
X72934901Y-63558586D01*
X72934120Y-64453488D01*
X71854000Y-64453488D01*
X71854000Y-59964813D01*
X71950703Y-59868279D01*
X72306095Y-59012399D01*
X72306876Y-58117429D01*
X76448647Y-58117429D01*
X76530555Y-58407859D01*
X76811834Y-58830228D01*
X77233336Y-59112805D01*
X77730890Y-59212570D01*
X78230000Y-59212570D01*
X78230000Y-57914000D01*
X78234000Y-57914000D01*
X78234000Y-59212570D01*
X78733110Y-59212570D01*
X79230664Y-59112805D01*
X79652166Y-58830228D01*
X79933445Y-58407859D01*
X80015353Y-58117429D01*
X79894178Y-57914000D01*
X78234000Y-57914000D01*
X78230000Y-57914000D01*
X76569822Y-57914000D01*
X76448647Y-58117429D01*
X72306876Y-58117429D01*
X72306904Y-58085667D01*
X72150265Y-57706571D01*
X76448647Y-57706571D01*
X76569822Y-57910000D01*
X78230000Y-57910000D01*
X78230000Y-56611430D01*
X78234000Y-56611430D01*
X78234000Y-57910000D01*
X79894178Y-57910000D01*
X80015353Y-57706571D01*
X79933445Y-57416141D01*
X79652166Y-56993772D01*
X79230664Y-56711195D01*
X78733110Y-56611430D01*
X78234000Y-56611430D01*
X78230000Y-56611430D01*
X77730890Y-56611430D01*
X77233336Y-56711195D01*
X76811834Y-56993772D01*
X76530555Y-57416141D01*
X76448647Y-57706571D01*
X72150265Y-57706571D01*
X71953006Y-57229168D01*
X71298279Y-56573297D01*
X70442399Y-56217905D01*
X69515667Y-56217096D01*
X68659168Y-56570994D01*
X68003297Y-57225721D01*
X67647905Y-58081601D01*
X67647096Y-59008333D01*
X65547207Y-59008333D01*
X64500168Y-57961294D01*
X64500168Y-57161430D01*
X64413007Y-56698208D01*
X64139243Y-56272767D01*
X63721527Y-55987354D01*
X63225680Y-55886942D01*
X60726320Y-55886942D01*
X60263098Y-55974103D01*
X59837657Y-56247867D01*
X59552244Y-56665583D01*
X59451832Y-57161430D01*
X56408968Y-57161430D01*
X56332006Y-56975168D01*
X55677279Y-56319297D01*
X54821399Y-55963905D01*
X53894667Y-55963096D01*
X53038168Y-56316994D01*
X52382297Y-56971721D01*
X52026905Y-57827601D01*
X52026096Y-58754333D01*
X47585169Y-58754333D01*
X47459840Y-58628786D01*
X47459840Y-43768333D01*
X52026096Y-43768333D01*
X52379994Y-44624832D01*
X53034721Y-45280703D01*
X53890601Y-45636095D01*
X54817333Y-45636904D01*
X55673832Y-45283006D01*
X55900233Y-45057000D01*
X57524370Y-45057000D01*
X60226000Y-47758630D01*
X60226000Y-51275262D01*
X60013301Y-51417383D01*
X59579632Y-52066415D01*
X59427348Y-52832000D01*
X59579632Y-53597585D01*
X60013301Y-54246617D01*
X60662333Y-54680286D01*
X61427918Y-54832570D01*
X62524082Y-54832570D01*
X63289667Y-54680286D01*
X63938699Y-54246617D01*
X64372368Y-53597585D01*
X64524652Y-52832000D01*
X64372368Y-52066415D01*
X63938699Y-51417383D01*
X63726000Y-51275262D01*
X63726000Y-47033756D01*
X63592789Y-46364060D01*
X63213437Y-45796319D01*
X62474118Y-45057000D01*
X68178851Y-45057000D01*
X68655721Y-45534703D01*
X69511601Y-45890095D01*
X70438333Y-45890904D01*
X71294832Y-45537006D01*
X71521233Y-45311000D01*
X72671614Y-45311000D01*
X76482000Y-49121386D01*
X76482000Y-50917975D01*
X76093657Y-51167867D01*
X75808244Y-51585583D01*
X75707832Y-52081430D01*
X75707832Y-53582570D01*
X75794993Y-54045792D01*
X76068757Y-54471233D01*
X76486473Y-54756646D01*
X76982320Y-54857058D01*
X79481680Y-54857058D01*
X79944902Y-54769897D01*
X80370343Y-54496133D01*
X80655756Y-54078417D01*
X80756168Y-53582570D01*
X80756168Y-52081430D01*
X80669007Y-51618208D01*
X80395243Y-51192767D01*
X79982000Y-50910410D01*
X79982000Y-48396512D01*
X79848789Y-47726816D01*
X79469437Y-47159075D01*
X77621362Y-45311000D01*
X78359000Y-45311000D01*
X79028696Y-45177789D01*
X79596437Y-44798437D01*
X83749337Y-40645537D01*
X84128689Y-40077796D01*
X84261901Y-39408100D01*
X84261900Y-39408095D01*
X84261900Y-36020080D01*
X85053744Y-35229616D01*
X85511438Y-34127367D01*
X85512480Y-32933869D01*
X85056710Y-31830822D01*
X84213516Y-30986156D01*
X83111267Y-30528462D01*
X81917769Y-30527420D01*
X80814722Y-30983190D01*
X79970056Y-31826384D01*
X79512362Y-32928633D01*
X79511320Y-34122131D01*
X79967090Y-35225178D01*
X80761900Y-36021376D01*
X80761900Y-38683226D01*
X77634126Y-41811000D01*
X71521592Y-41811000D01*
X71298279Y-41587297D01*
X70442399Y-41231905D01*
X69515667Y-41231096D01*
X68726919Y-41557000D01*
X55900592Y-41557000D01*
X55677279Y-41333297D01*
X54821399Y-40977905D01*
X53894667Y-40977096D01*
X53038168Y-41330994D01*
X52382297Y-41985721D01*
X52026905Y-42841601D01*
X52026096Y-43768333D01*
X47459840Y-43768333D01*
X47459840Y-42348667D01*
X54530507Y-35278000D01*
X58252020Y-35278000D01*
X59042484Y-36069844D01*
X60144733Y-36527538D01*
X61338231Y-36528580D01*
X62441278Y-36072810D01*
X63285944Y-35229616D01*
X63743638Y-34127367D01*
X63744680Y-32933869D01*
X63288910Y-31830822D01*
X62445716Y-30986156D01*
X61343467Y-30528462D01*
X60149969Y-30527420D01*
X59046922Y-30983190D01*
X58250724Y-31778000D01*
X53805633Y-31778000D01*
X53135937Y-31911211D01*
X52568196Y-32290563D01*
X44472403Y-40386356D01*
X44093051Y-40954097D01*
X43959840Y-41623793D01*
X43959840Y-58628847D01*
X43591950Y-58996096D01*
X43210594Y-59914501D01*
X43209727Y-60908936D01*
X43589478Y-61828005D01*
X44249927Y-62489608D01*
X43934886Y-62804100D01*
X42125900Y-62804100D01*
X41456204Y-62937311D01*
X40888463Y-63316663D01*
X38894563Y-65310563D01*
X38515211Y-65878304D01*
X38382000Y-66548000D01*
X38270500Y-66548000D01*
X38270500Y-32593051D01*
X38830680Y-32593051D01*
X39286450Y-33696098D01*
X40129644Y-34540764D01*
X41231893Y-34998458D01*
X42425391Y-34999500D01*
X43528438Y-34543730D01*
X44373104Y-33700536D01*
X44830798Y-32598287D01*
X44831840Y-31404789D01*
X44376070Y-30301742D01*
X43532876Y-29457076D01*
X42430627Y-28999382D01*
X41237129Y-28998340D01*
X40134082Y-29454110D01*
X39289416Y-30297304D01*
X38831722Y-31399553D01*
X38830680Y-32593051D01*
X38270500Y-32593051D01*
X38270500Y-28440700D01*
X195389180Y-28440700D01*
X195389180Y-125559500D01*
M02*
