G04 #@! TF.GenerationSoftware,KiCad,Pcbnew,8.0.5*
G04 #@! TF.CreationDate,2024-11-20T22:14:33+01:00*
G04 #@! TF.ProjectId,400VAnoden,34303056-416e-46f6-9465-6e2e6b696361,rev?*
G04 #@! TF.SameCoordinates,Original*
G04 #@! TF.FileFunction,Soldermask,Top*
G04 #@! TF.FilePolarity,Negative*
%FSLAX46Y46*%
G04 Gerber Fmt 4.6, Leading zero omitted, Abs format (unit mm)*
G04 Created by KiCad (PCBNEW 8.0.5) date 2024-11-20 22:14:33*
%MOMM*%
%LPD*%
G01*
G04 APERTURE LIST*
G04 Aperture macros list*
%AMRoundRect*
0 Rectangle with rounded corners*
0 $1 Rounding radius*
0 $2 $3 $4 $5 $6 $7 $8 $9 X,Y pos of 4 corners*
0 Add a 4 corners polygon primitive as box body*
4,1,4,$2,$3,$4,$5,$6,$7,$8,$9,$2,$3,0*
0 Add four circle primitives for the rounded corners*
1,1,$1+$1,$2,$3*
1,1,$1+$1,$4,$5*
1,1,$1+$1,$6,$7*
1,1,$1+$1,$8,$9*
0 Add four rect primitives between the rounded corners*
20,1,$1+$1,$2,$3,$4,$5,0*
20,1,$1+$1,$4,$5,$6,$7,0*
20,1,$1+$1,$6,$7,$8,$9,0*
20,1,$1+$1,$8,$9,$2,$3,0*%
G04 Aperture macros list end*
%ADD10R,4.000000X4.000000*%
%ADD11C,4.000000*%
%ADD12C,2.400000*%
%ADD13R,2.000000X2.000000*%
%ADD14O,2.000000X2.000000*%
%ADD15R,1.600000X1.600000*%
%ADD16O,1.600000X1.600000*%
%ADD17R,1.800000X1.800000*%
%ADD18C,1.800000*%
%ADD19R,2.200000X2.200000*%
%ADD20O,2.200000X2.200000*%
%ADD21C,3.500120*%
%ADD22RoundRect,0.250001X1.399999X-1.099999X1.399999X1.099999X-1.399999X1.099999X-1.399999X-1.099999X0*%
%ADD23O,3.300000X2.700000*%
%ADD24RoundRect,0.250001X-1.399999X1.099999X-1.399999X-1.099999X1.399999X-1.099999X1.399999X1.099999X0*%
%ADD25C,1.600000*%
%ADD26O,2.400000X2.400000*%
%ADD27C,2.000000*%
%ADD28O,3.400000X3.400000*%
%ADD29R,2.500000X4.500000*%
%ADD30O,2.500000X4.500000*%
%ADD31R,2.400000X2.400000*%
%ADD32RoundRect,0.250001X-1.099999X-1.399999X1.099999X-1.399999X1.099999X1.399999X-1.099999X1.399999X0*%
%ADD33O,2.700000X3.300000*%
%ADD34RoundRect,0.250000X-0.620000X-0.845000X0.620000X-0.845000X0.620000X0.845000X-0.620000X0.845000X0*%
%ADD35O,1.740000X2.190000*%
%ADD36C,0.800000*%
%ADD37C,6.400000*%
%ADD38C,3.500000*%
G04 APERTURE END LIST*
D10*
X101125000Y-53340000D03*
D11*
X111125000Y-53340000D03*
D12*
X121412000Y-67564000D03*
X148912000Y-67564000D03*
X149225000Y-53340000D03*
X121725000Y-53340000D03*
D10*
X110744000Y-84836000D03*
D11*
X100744000Y-84836000D03*
D13*
X67310000Y-71882000D03*
D14*
X67310000Y-76962000D03*
D15*
X137414000Y-120523000D03*
D16*
X147574000Y-120523000D03*
D17*
X125730000Y-120650000D03*
D18*
X123190000Y-120650000D03*
D19*
X75565000Y-107696000D03*
D20*
X85725000Y-107696000D03*
D19*
X85725000Y-100076000D03*
D20*
X75565000Y-100076000D03*
D19*
X66294000Y-107696000D03*
D20*
X56134000Y-107696000D03*
D19*
X56134000Y-100076000D03*
D20*
X66294000Y-100076000D03*
D21*
X66922000Y-33528000D03*
X81922000Y-33528000D03*
D22*
X101016000Y-34036000D03*
D23*
X106516000Y-34036000D03*
D24*
X55880000Y-33528000D03*
D23*
X50380000Y-33528000D03*
D24*
X62611000Y-122047000D03*
D23*
X57111000Y-122047000D03*
D25*
X79375000Y-62230000D03*
D16*
X69215000Y-62230000D03*
D25*
X111125000Y-67183000D03*
D16*
X100965000Y-67183000D03*
D25*
X192405000Y-76454000D03*
D16*
X192405000Y-66294000D03*
D25*
X137414000Y-117094000D03*
D16*
X147574000Y-117094000D03*
D25*
X192405000Y-113030000D03*
D16*
X192405000Y-102870000D03*
D12*
X116205000Y-111760000D03*
D26*
X131445000Y-111760000D03*
D27*
X59055000Y-48768000D03*
X59055000Y-56268000D03*
X83954000Y-113030000D03*
X76454000Y-113030000D03*
X84074000Y-94615000D03*
X76574000Y-94615000D03*
X65405000Y-113030000D03*
X57905000Y-113030000D03*
X65405000Y-94615000D03*
X57905000Y-94615000D03*
D28*
X143002000Y-92794000D03*
D29*
X137552000Y-111594000D03*
D30*
X143002000Y-111594000D03*
X148452000Y-111594000D03*
D25*
X100965000Y-70993000D03*
D16*
X111125000Y-70993000D03*
D31*
X129032000Y-98044000D03*
D12*
X121532000Y-98044000D03*
D32*
X132715000Y-34290000D03*
D33*
X132715000Y-39790000D03*
D10*
X172085000Y-66548000D03*
D11*
X172085000Y-76548000D03*
D19*
X46863000Y-63373000D03*
D20*
X46863000Y-53213000D03*
D34*
X39878000Y-58674000D03*
D35*
X42418000Y-58674000D03*
D12*
X121412000Y-81788000D03*
X148912000Y-81788000D03*
D32*
X121285000Y-34290000D03*
D33*
X121285000Y-39790000D03*
D21*
X95885000Y-118459900D03*
X95885000Y-103459900D03*
D13*
X69215000Y-53975000D03*
D14*
X69215000Y-48895000D03*
D27*
X88138000Y-69462000D03*
X88138000Y-76962000D03*
X88138000Y-48895000D03*
X88138000Y-56395000D03*
D13*
X78867000Y-48895000D03*
D14*
X78867000Y-53975000D03*
D13*
X80518000Y-76962000D03*
D14*
X80518000Y-71882000D03*
D25*
X70866000Y-89916000D03*
D16*
X70866000Y-100076000D03*
D10*
X172085000Y-103124000D03*
D11*
X172085000Y-113124000D03*
D27*
X59055000Y-69462000D03*
X59055000Y-76962000D03*
D21*
X160281000Y-34290000D03*
X145281000Y-34290000D03*
D36*
X106392944Y-106345056D03*
X107095888Y-104648000D03*
X107095888Y-108042112D03*
X108792944Y-103945056D03*
D37*
X108792944Y-106345056D03*
D36*
X108792944Y-108745056D03*
X110490000Y-104648000D03*
X110490000Y-108042112D03*
X111192944Y-106345056D03*
D38*
X40146000Y-32550000D03*
X40146000Y-121450000D03*
X193006000Y-32550000D03*
X193006000Y-121450000D03*
D32*
X172745000Y-39204000D03*
D33*
X176945000Y-39204000D03*
X172745000Y-44704000D03*
X176945000Y-44704000D03*
D27*
X41141000Y-88091000D03*
X41141000Y-83091000D03*
X41141000Y-93091000D03*
X48641000Y-88091000D03*
X48641000Y-83091000D03*
X48641000Y-93091000D03*
D13*
X41141000Y-68091000D03*
D27*
X48641000Y-68091000D03*
D32*
X184395000Y-39204000D03*
D33*
X188595000Y-39204000D03*
X184395000Y-44704000D03*
X188595000Y-44704000D03*
M02*
