G04 #@! TF.GenerationSoftware,KiCad,Pcbnew,(5.1.9)-1*
G04 #@! TF.CreationDate,2021-08-03T11:41:33+02:00*
G04 #@! TF.ProjectId,12V_6V3_Delay,3132565f-3656-4335-9f44-656c61792e6b,rev?*
G04 #@! TF.SameCoordinates,Original*
G04 #@! TF.FileFunction,Legend,Bot*
G04 #@! TF.FilePolarity,Positive*
%FSLAX46Y46*%
G04 Gerber Fmt 4.6, Leading zero omitted, Abs format (unit mm)*
G04 Created by KiCad (PCBNEW (5.1.9)-1) date 2021-08-03 11:41:33*
%MOMM*%
%LPD*%
G01*
G04 APERTURE LIST*
%ADD10C,0.800000*%
%ADD11C,6.400000*%
%ADD12O,1.740000X2.190000*%
%ADD13C,3.500000*%
%ADD14C,1.600000*%
%ADD15R,1.600000X1.600000*%
%ADD16C,2.400000*%
%ADD17R,2.400000X2.400000*%
%ADD18O,1.600000X1.600000*%
%ADD19R,1.050000X1.500000*%
%ADD20O,1.050000X1.500000*%
%ADD21C,4.000000*%
%ADD22R,4.000000X4.000000*%
%ADD23O,1.905000X2.000000*%
%ADD24R,1.905000X2.000000*%
%ADD25C,3.180000*%
%ADD26O,3.300000X2.640000*%
%ADD27O,2.190000X1.740000*%
%ADD28C,3.500120*%
%ADD29C,1.800000*%
%ADD30R,1.800000X1.800000*%
%ADD31O,3.200000X3.200000*%
%ADD32R,3.200000X3.200000*%
%ADD33O,2.000000X2.000000*%
%ADD34R,2.000000X2.000000*%
%ADD35O,2.200000X2.200000*%
%ADD36R,2.200000X2.200000*%
%ADD37O,2.200000X1.740000*%
%ADD38O,2.000000X1.905000*%
%ADD39R,2.000000X1.905000*%
G04 APERTURE END LIST*
%LPC*%
D10*
X72182056Y-83392944D03*
X70485000Y-82690000D03*
X68787944Y-83392944D03*
X68085000Y-85090000D03*
X68787944Y-86787056D03*
X70485000Y-87490000D03*
X72182056Y-86787056D03*
X72885000Y-85090000D03*
D11*
X70485000Y-85090000D03*
D12*
X177927000Y-62992000D03*
G36*
G01*
X174517000Y-63837001D02*
X174517000Y-62146999D01*
G75*
G02*
X174766999Y-61897000I249999J0D01*
G01*
X176007001Y-61897000D01*
G75*
G02*
X176257000Y-62146999I0J-249999D01*
G01*
X176257000Y-63837001D01*
G75*
G02*
X176007001Y-64087000I-249999J0D01*
G01*
X174766999Y-64087000D01*
G75*
G02*
X174517000Y-63837001I0J249999D01*
G01*
G37*
D13*
X58180000Y-132245000D03*
X211040000Y-132245000D03*
X211040000Y-43345000D03*
X58180000Y-43345000D03*
D14*
X166751000Y-63317000D03*
D15*
X166751000Y-59817000D03*
D14*
X155194000Y-61000000D03*
D15*
X155194000Y-63500000D03*
D14*
X132175000Y-59690000D03*
X130175000Y-59690000D03*
X195580000Y-119070000D03*
D15*
X195580000Y-115570000D03*
D14*
X195580000Y-93035000D03*
D15*
X195580000Y-89535000D03*
D14*
X144455000Y-115316000D03*
D15*
X147955000Y-115316000D03*
D14*
X137255000Y-78740000D03*
D15*
X135255000Y-78740000D03*
D16*
X118110000Y-45840000D03*
D17*
X118110000Y-53340000D03*
D18*
X210185000Y-81915000D03*
D14*
X200025000Y-81915000D03*
D18*
X167640000Y-106045000D03*
X152400000Y-98425000D03*
X165100000Y-106045000D03*
X154940000Y-98425000D03*
X162560000Y-106045000D03*
X157480000Y-98425000D03*
X160020000Y-106045000D03*
X160020000Y-98425000D03*
X157480000Y-106045000D03*
X162560000Y-98425000D03*
X154940000Y-106045000D03*
X165100000Y-98425000D03*
X152400000Y-106045000D03*
D15*
X167640000Y-98425000D03*
D18*
X210185000Y-69850000D03*
D14*
X200025000Y-69850000D03*
D18*
X210185000Y-66040000D03*
D14*
X200025000Y-66040000D03*
D18*
X177165000Y-69215000D03*
D14*
X177165000Y-79375000D03*
D19*
X203835000Y-74295000D03*
D20*
X206375000Y-74295000D03*
X205105000Y-74295000D03*
D12*
X207645000Y-59055000D03*
X205105000Y-59055000D03*
G36*
G01*
X201695000Y-59900001D02*
X201695000Y-58209999D01*
G75*
G02*
X201944999Y-57960000I249999J0D01*
G01*
X203185001Y-57960000D01*
G75*
G02*
X203435000Y-58209999I0J-249999D01*
G01*
X203435000Y-59900001D01*
G75*
G02*
X203185001Y-60150000I-249999J0D01*
G01*
X201944999Y-60150000D01*
G75*
G02*
X201695000Y-59900001I0J249999D01*
G01*
G37*
D18*
X200025000Y-78740000D03*
D15*
X210185000Y-78740000D03*
D21*
X123825000Y-113190000D03*
D22*
X123825000Y-123190000D03*
D18*
X145415000Y-79375000D03*
D14*
X145415000Y-69215000D03*
D18*
X156845000Y-45593000D03*
X149225000Y-53213000D03*
X156845000Y-48133000D03*
X149225000Y-50673000D03*
X156845000Y-50673000D03*
X149225000Y-48133000D03*
X156845000Y-53213000D03*
D15*
X149225000Y-45593000D03*
D14*
X154345000Y-41275000D03*
X156845000Y-41275000D03*
X195199000Y-98044000D03*
X192699000Y-98044000D03*
D18*
X170180000Y-71120000D03*
X162560000Y-78740000D03*
X170180000Y-73660000D03*
X162560000Y-76200000D03*
X170180000Y-76200000D03*
X162560000Y-73660000D03*
X170180000Y-78740000D03*
D15*
X162560000Y-71120000D03*
D23*
X123190000Y-74930000D03*
X120650000Y-74930000D03*
D24*
X118110000Y-74930000D03*
D18*
X201930000Y-41275000D03*
D14*
X191770000Y-41275000D03*
D18*
X201930000Y-45085000D03*
D14*
X191770000Y-45085000D03*
D18*
X185928000Y-55245000D03*
D14*
X185928000Y-45085000D03*
D18*
X183515000Y-79375000D03*
D14*
X183515000Y-69215000D03*
D18*
X179705000Y-55245000D03*
D14*
X179705000Y-45085000D03*
D18*
X173990000Y-79375000D03*
D14*
X173990000Y-69215000D03*
D18*
X176403000Y-55245000D03*
D14*
X176403000Y-45085000D03*
D18*
X158750000Y-69215000D03*
D14*
X158750000Y-79375000D03*
D18*
X173101000Y-45085000D03*
D14*
X173101000Y-55245000D03*
D19*
X186055000Y-59055000D03*
D20*
X183515000Y-59055000D03*
X184785000Y-59055000D03*
D19*
X186055000Y-64135000D03*
D20*
X183515000Y-64135000D03*
X184785000Y-64135000D03*
D12*
X194310000Y-53340000D03*
G36*
G01*
X190900000Y-54185001D02*
X190900000Y-52494999D01*
G75*
G02*
X191149999Y-52245000I249999J0D01*
G01*
X192390001Y-52245000D01*
G75*
G02*
X192640000Y-52494999I0J-249999D01*
G01*
X192640000Y-54185001D01*
G75*
G02*
X192390001Y-54435000I-249999J0D01*
G01*
X191149999Y-54435000D01*
G75*
G02*
X190900000Y-54185001I0J249999D01*
G01*
G37*
X194310000Y-75565000D03*
G36*
G01*
X190900000Y-76410001D02*
X190900000Y-74719999D01*
G75*
G02*
X191149999Y-74470000I249999J0D01*
G01*
X192390001Y-74470000D01*
G75*
G02*
X192640000Y-74719999I0J-249999D01*
G01*
X192640000Y-76410001D01*
G75*
G02*
X192390001Y-76660000I-249999J0D01*
G01*
X191149999Y-76660000D01*
G75*
G02*
X190900000Y-76410001I0J249999D01*
G01*
G37*
X194310000Y-64262000D03*
G36*
G01*
X190900000Y-65107001D02*
X190900000Y-63416999D01*
G75*
G02*
X191149999Y-63167000I249999J0D01*
G01*
X192390001Y-63167000D01*
G75*
G02*
X192640000Y-63416999I0J-249999D01*
G01*
X192640000Y-65107001D01*
G75*
G02*
X192390001Y-65357000I-249999J0D01*
G01*
X191149999Y-65357000D01*
G75*
G02*
X190900000Y-65107001I0J249999D01*
G01*
G37*
D25*
X208915000Y-102230000D03*
D26*
X208915000Y-97790000D03*
G36*
G01*
X207265000Y-94720000D02*
X207265000Y-92580000D01*
G75*
G02*
X207515000Y-92330000I250000J0D01*
G01*
X210315000Y-92330000D01*
G75*
G02*
X210565000Y-92580000I0J-250000D01*
G01*
X210565000Y-94720000D01*
G75*
G02*
X210315000Y-94970000I-250000J0D01*
G01*
X207515000Y-94970000D01*
G75*
G02*
X207265000Y-94720000I0J250000D01*
G01*
G37*
D25*
X208915000Y-124074000D03*
D26*
X208915000Y-119634000D03*
G36*
G01*
X207265000Y-116564000D02*
X207265000Y-114424000D01*
G75*
G02*
X207515000Y-114174000I250000J0D01*
G01*
X210315000Y-114174000D01*
G75*
G02*
X210565000Y-114424000I0J-250000D01*
G01*
X210565000Y-116564000D01*
G75*
G02*
X210315000Y-116814000I-250000J0D01*
G01*
X207515000Y-116814000D01*
G75*
G02*
X207265000Y-116564000I0J250000D01*
G01*
G37*
D27*
X139700000Y-90932000D03*
G36*
G01*
X138854999Y-87522000D02*
X140545001Y-87522000D01*
G75*
G02*
X140795000Y-87771999I0J-249999D01*
G01*
X140795000Y-89012001D01*
G75*
G02*
X140545001Y-89262000I-249999J0D01*
G01*
X138854999Y-89262000D01*
G75*
G02*
X138605000Y-89012001I0J249999D01*
G01*
X138605000Y-87771999D01*
G75*
G02*
X138854999Y-87522000I249999J0D01*
G01*
G37*
X129540000Y-90805000D03*
G36*
G01*
X128694999Y-87395000D02*
X130385001Y-87395000D01*
G75*
G02*
X130635000Y-87644999I0J-249999D01*
G01*
X130635000Y-88885001D01*
G75*
G02*
X130385001Y-89135000I-249999J0D01*
G01*
X128694999Y-89135000D01*
G75*
G02*
X128445000Y-88885001I0J249999D01*
G01*
X128445000Y-87644999D01*
G75*
G02*
X128694999Y-87395000I249999J0D01*
G01*
G37*
D28*
X67856100Y-130175000D03*
X89623900Y-130175000D03*
D29*
X209550000Y-50800000D03*
D30*
X207010000Y-50800000D03*
D29*
X203200000Y-50800000D03*
D30*
X200660000Y-50800000D03*
D18*
X182880000Y-45085000D03*
D15*
X182880000Y-55245000D03*
D18*
X180340000Y-69215000D03*
D15*
X180340000Y-79375000D03*
D18*
X166751000Y-55245000D03*
D15*
X166751000Y-45085000D03*
D18*
X152019000Y-79375000D03*
D15*
X152019000Y-69215000D03*
D18*
X142875000Y-45085000D03*
D15*
X142875000Y-55245000D03*
D29*
X183515000Y-133350000D03*
D30*
X180975000Y-133350000D03*
D19*
X147955000Y-106680000D03*
D20*
X145415000Y-106680000D03*
D31*
X70485000Y-55880000D03*
D32*
X85725000Y-55880000D03*
D31*
X106680000Y-55880000D03*
D32*
X91440000Y-55880000D03*
D31*
X85725000Y-74930000D03*
D32*
X70485000Y-74930000D03*
D33*
X97155000Y-109220000D03*
D34*
X97155000Y-114300000D03*
D33*
X76200000Y-92710000D03*
D34*
X76200000Y-97790000D03*
D33*
X97155000Y-92710000D03*
D34*
X97155000Y-97790000D03*
D35*
X101600000Y-65405000D03*
D36*
X111760000Y-65405000D03*
D35*
X101473000Y-60960000D03*
D36*
X111633000Y-60960000D03*
D35*
X125857000Y-65405000D03*
D36*
X115697000Y-65405000D03*
D31*
X91440000Y-74930000D03*
D32*
X106680000Y-74930000D03*
D14*
X140375000Y-58420000D03*
X142875000Y-58420000D03*
X167680000Y-67945000D03*
X170180000Y-67945000D03*
X195580000Y-111125000D03*
X193080000Y-111125000D03*
X195580000Y-85090000D03*
X193080000Y-85090000D03*
X195159000Y-123952000D03*
X192659000Y-123952000D03*
X70548500Y-60642500D03*
X73048500Y-60642500D03*
X91440000Y-60642500D03*
X93940000Y-60642500D03*
X70461500Y-70167500D03*
X72961500Y-70167500D03*
X122555000Y-78740000D03*
X125055000Y-78740000D03*
D18*
X155194000Y-79375000D03*
D14*
X155194000Y-69215000D03*
D29*
X136525000Y-64770000D03*
D30*
X133985000Y-64770000D03*
D18*
X169799000Y-55245000D03*
D14*
X169799000Y-45085000D03*
D28*
X90258900Y-45085000D03*
X68491100Y-45085000D03*
D18*
X148844000Y-79375000D03*
D14*
X148844000Y-69215000D03*
D18*
X163576000Y-45085000D03*
D14*
X163576000Y-55245000D03*
D18*
X160147000Y-55245000D03*
D14*
X160147000Y-45085000D03*
D18*
X139700000Y-55245000D03*
D14*
X139700000Y-45085000D03*
D18*
X136525000Y-55245000D03*
D14*
X136525000Y-45085000D03*
D18*
X133350000Y-45085000D03*
D14*
X133350000Y-55245000D03*
D18*
X130175000Y-55245000D03*
D14*
X130175000Y-45085000D03*
D18*
X146050000Y-55245000D03*
D14*
X146050000Y-45085000D03*
D18*
X188595000Y-133350000D03*
D14*
X198755000Y-133350000D03*
D18*
X188595000Y-130175000D03*
D14*
X198755000Y-130175000D03*
D37*
X110490000Y-90805000D03*
G36*
G01*
X109639999Y-87395000D02*
X111340001Y-87395000D01*
G75*
G02*
X111590000Y-87644999I0J-249999D01*
G01*
X111590000Y-88885001D01*
G75*
G02*
X111340001Y-89135000I-249999J0D01*
G01*
X109639999Y-89135000D01*
G75*
G02*
X109390000Y-88885001I0J249999D01*
G01*
X109390000Y-87644999D01*
G75*
G02*
X109639999Y-87395000I249999J0D01*
G01*
G37*
D33*
X76200000Y-109220000D03*
D34*
X76200000Y-114300000D03*
D14*
X165060000Y-109220000D03*
X162560000Y-109220000D03*
X165100000Y-95250000D03*
X162600000Y-95250000D03*
X160020000Y-95250000D03*
X157520000Y-95250000D03*
D38*
X180340000Y-115570000D03*
X180340000Y-118110000D03*
D39*
X180340000Y-120650000D03*
D38*
X180340000Y-89535000D03*
X180340000Y-92075000D03*
D39*
X180340000Y-94615000D03*
D18*
X198755000Y-127000000D03*
D14*
X188595000Y-127000000D03*
D18*
X188722000Y-104521000D03*
D14*
X198882000Y-104521000D03*
D18*
X198882000Y-101346000D03*
D14*
X188722000Y-101346000D03*
D18*
X167640000Y-115570000D03*
D14*
X157480000Y-115570000D03*
D18*
X167640000Y-88900000D03*
D14*
X157480000Y-88900000D03*
D18*
X167640000Y-112395000D03*
D14*
X157480000Y-112395000D03*
D18*
X167640000Y-92075000D03*
D14*
X157480000Y-92075000D03*
D18*
X141605000Y-69215000D03*
D14*
X141605000Y-79375000D03*
D18*
X147955000Y-88265000D03*
D14*
X147955000Y-98425000D03*
D25*
X60325000Y-109850000D03*
D26*
X60325000Y-105410000D03*
G36*
G01*
X58675000Y-102340000D02*
X58675000Y-100200000D01*
G75*
G02*
X58925000Y-99950000I250000J0D01*
G01*
X61725000Y-99950000D01*
G75*
G02*
X61975000Y-100200000I0J-250000D01*
G01*
X61975000Y-102340000D01*
G75*
G02*
X61725000Y-102590000I-250000J0D01*
G01*
X58925000Y-102590000D01*
G75*
G02*
X58675000Y-102340000I0J250000D01*
G01*
G37*
D37*
X120015000Y-90805000D03*
G36*
G01*
X119164999Y-87395000D02*
X120865001Y-87395000D01*
G75*
G02*
X121115000Y-87644999I0J-249999D01*
G01*
X121115000Y-88885001D01*
G75*
G02*
X120865001Y-89135000I-249999J0D01*
G01*
X119164999Y-89135000D01*
G75*
G02*
X118915000Y-88885001I0J249999D01*
G01*
X118915000Y-87644999D01*
G75*
G02*
X119164999Y-87395000I249999J0D01*
G01*
G37*
D25*
X60325000Y-73020000D03*
D26*
X60325000Y-68580000D03*
G36*
G01*
X58675000Y-65510000D02*
X58675000Y-63370000D01*
G75*
G02*
X58925000Y-63120000I250000J0D01*
G01*
X61725000Y-63120000D01*
G75*
G02*
X61975000Y-63370000I0J-250000D01*
G01*
X61975000Y-65510000D01*
G75*
G02*
X61725000Y-65760000I-250000J0D01*
G01*
X58925000Y-65760000D01*
G75*
G02*
X58675000Y-65510000I0J250000D01*
G01*
G37*
D14*
X80137000Y-110871000D03*
X80137000Y-113371000D03*
X100965000Y-113411000D03*
X100965000Y-110911000D03*
X104243500Y-70358000D03*
X106743500Y-70358000D03*
X80010000Y-96480000D03*
X80010000Y-93980000D03*
X100965000Y-94020000D03*
X100965000Y-96520000D03*
X119340000Y-78740000D03*
X116840000Y-78740000D03*
M02*
