G04 #@! TF.GenerationSoftware,KiCad,Pcbnew,8.0.5*
G04 #@! TF.CreationDate,2024-11-13T22:26:25+01:00*
G04 #@! TF.ProjectId,12V_6V3_Delay,3132565f-3656-4335-9f44-656c61792e6b,rev?*
G04 #@! TF.SameCoordinates,Original*
G04 #@! TF.FileFunction,Soldermask,Top*
G04 #@! TF.FilePolarity,Negative*
%FSLAX46Y46*%
G04 Gerber Fmt 4.6, Leading zero omitted, Abs format (unit mm)*
G04 Created by KiCad (PCBNEW 8.0.5) date 2024-11-13 22:26:25*
%MOMM*%
%LPD*%
G01*
G04 APERTURE LIST*
G04 Aperture macros list*
%AMRoundRect*
0 Rectangle with rounded corners*
0 $1 Rounding radius*
0 $2 $3 $4 $5 $6 $7 $8 $9 X,Y pos of 4 corners*
0 Add a 4 corners polygon primitive as box body*
4,1,4,$2,$3,$4,$5,$6,$7,$8,$9,$2,$3,0*
0 Add four circle primitives for the rounded corners*
1,1,$1+$1,$2,$3*
1,1,$1+$1,$4,$5*
1,1,$1+$1,$6,$7*
1,1,$1+$1,$8,$9*
0 Add four rect primitives between the rounded corners*
20,1,$1+$1,$2,$3,$4,$5,0*
20,1,$1+$1,$4,$5,$6,$7,0*
20,1,$1+$1,$6,$7,$8,$9,0*
20,1,$1+$1,$8,$9,$2,$3,0*%
G04 Aperture macros list end*
%ADD10C,2.600000*%
%ADD11C,3.500120*%
%ADD12R,2.400000X2.400000*%
%ADD13C,2.400000*%
%ADD14C,1.600000*%
%ADD15R,3.200000X3.200000*%
%ADD16O,3.200000X3.200000*%
%ADD17R,2.200000X2.200000*%
%ADD18O,2.200000X2.200000*%
%ADD19RoundRect,0.250001X-1.099999X-1.399999X1.099999X-1.399999X1.099999X1.399999X-1.099999X1.399999X0*%
%ADD20O,2.700000X3.300000*%
%ADD21O,1.600000X1.600000*%
%ADD22R,2.000000X1.905000*%
%ADD23O,2.000000X1.905000*%
%ADD24R,1.600000X1.600000*%
%ADD25R,1.800000X1.800000*%
%ADD26C,1.800000*%
%ADD27RoundRect,0.249999X-0.620001X-0.845001X0.620001X-0.845001X0.620001X0.845001X-0.620001X0.845001X0*%
%ADD28O,1.740000X2.190000*%
%ADD29R,1.050000X1.500000*%
%ADD30O,1.050000X1.500000*%
%ADD31R,2.000000X2.000000*%
%ADD32O,2.000000X2.000000*%
%ADD33R,1.905000X2.000000*%
%ADD34O,1.905000X2.000000*%
%ADD35RoundRect,0.249999X-0.845001X0.620001X-0.845001X-0.620001X0.845001X-0.620001X0.845001X0.620001X0*%
%ADD36O,2.190000X1.740000*%
%ADD37RoundRect,0.249999X-0.850001X0.620001X-0.850001X-0.620001X0.850001X-0.620001X0.850001X0.620001X0*%
%ADD38O,2.200000X1.740000*%
%ADD39C,3.500000*%
%ADD40RoundRect,0.250000X-0.620000X-0.845000X0.620000X-0.845000X0.620000X0.845000X-0.620000X0.845000X0*%
%ADD41C,0.800000*%
%ADD42C,6.400000*%
%ADD43R,1.200000X1.200000*%
%ADD44C,1.200000*%
%ADD45R,4.000000X4.000000*%
%ADD46C,4.000000*%
G04 APERTURE END LIST*
D10*
X82123900Y-130175000D03*
D11*
X89623900Y-130175000D03*
X74623900Y-130175000D03*
D10*
X81706100Y-45085000D03*
D11*
X74206100Y-45085000D03*
X89206100Y-45085000D03*
D12*
X118110000Y-53340000D03*
D13*
X118110000Y-45840000D03*
D14*
X106743500Y-70358000D03*
X104243500Y-70358000D03*
X72961500Y-70167500D03*
X70461500Y-70167500D03*
X93940000Y-60642500D03*
X91440000Y-60642500D03*
X73048500Y-60642500D03*
X70548500Y-60642500D03*
D15*
X106680000Y-74930000D03*
D16*
X91440000Y-74930000D03*
D17*
X111633000Y-60960000D03*
D18*
X101473000Y-60960000D03*
D17*
X111760000Y-65405000D03*
D18*
X101600000Y-65405000D03*
D19*
X60325000Y-64440000D03*
D20*
X60325000Y-69940000D03*
D19*
X60325000Y-101270000D03*
D20*
X60325000Y-106770000D03*
D14*
X188722000Y-101346000D03*
D21*
X198882000Y-101346000D03*
D14*
X198882000Y-104521000D03*
D21*
X188722000Y-104521000D03*
D14*
X188595000Y-127000000D03*
D21*
X198755000Y-127000000D03*
D22*
X180340000Y-94615000D03*
D23*
X180340000Y-92075000D03*
X180340000Y-89535000D03*
D22*
X180340000Y-120650000D03*
D23*
X180340000Y-118110000D03*
X180340000Y-115570000D03*
D14*
X142875000Y-79375000D03*
D21*
X142875000Y-69215000D03*
D14*
X170053000Y-101366000D03*
X170053000Y-106366000D03*
D24*
X193675000Y-89535000D03*
D14*
X193675000Y-93035000D03*
D15*
X91440000Y-55880000D03*
D16*
X106680000Y-55880000D03*
D14*
X198755000Y-130175000D03*
D21*
X188595000Y-130175000D03*
D14*
X146050000Y-45085000D03*
D21*
X146050000Y-55245000D03*
D14*
X130048000Y-45085000D03*
D21*
X130048000Y-55245000D03*
D14*
X133350000Y-55245000D03*
D21*
X133350000Y-45085000D03*
D14*
X136652000Y-45085000D03*
D21*
X136652000Y-55245000D03*
D14*
X139954000Y-45085000D03*
D21*
X139954000Y-55245000D03*
D14*
X160401000Y-45085000D03*
D21*
X160401000Y-55245000D03*
D14*
X163703000Y-55245000D03*
D21*
X163703000Y-45085000D03*
D14*
X150114000Y-69215000D03*
D21*
X150114000Y-79375000D03*
D14*
X169799000Y-45085000D03*
D21*
X169799000Y-55245000D03*
D25*
X136520000Y-73025000D03*
D26*
X139060000Y-73025000D03*
D14*
X156464000Y-69215000D03*
D21*
X156464000Y-79375000D03*
D24*
X193675000Y-115570000D03*
D14*
X193675000Y-119070000D03*
X192699000Y-98044000D03*
X195199000Y-98044000D03*
X192659000Y-123952000D03*
X195159000Y-123952000D03*
X200025000Y-86995000D03*
X200025000Y-91995000D03*
X142875000Y-58420000D03*
X137875000Y-58420000D03*
D24*
X156464000Y-65532000D03*
D14*
X156464000Y-63532000D03*
D24*
X166624000Y-58928000D03*
D14*
X166624000Y-63928000D03*
D25*
X180975000Y-133350000D03*
D26*
X183515000Y-133350000D03*
D24*
X153289000Y-69215000D03*
D21*
X153289000Y-79375000D03*
D24*
X166751000Y-45085000D03*
D21*
X166751000Y-55245000D03*
D24*
X178435000Y-79375000D03*
D21*
X178435000Y-69215000D03*
D24*
X182880000Y-55245000D03*
D21*
X182880000Y-45085000D03*
D25*
X207010000Y-52070000D03*
D26*
X209550000Y-52070000D03*
D25*
X200660000Y-52070000D03*
D26*
X203200000Y-52070000D03*
D19*
X208915000Y-115494000D03*
D20*
X208915000Y-120994000D03*
D19*
X208915000Y-93650000D03*
D20*
X208915000Y-99150000D03*
D27*
X191770000Y-76200000D03*
D28*
X194310000Y-76200000D03*
D27*
X191770000Y-52070000D03*
D28*
X194310000Y-52070000D03*
D29*
X186055000Y-64770000D03*
D30*
X184785000Y-64770000D03*
X183515000Y-64770000D03*
D29*
X186055000Y-59055000D03*
D30*
X184785000Y-59055000D03*
X183515000Y-59055000D03*
D14*
X173101000Y-55245000D03*
D21*
X173101000Y-45085000D03*
D14*
X159893000Y-79375000D03*
D21*
X159893000Y-69215000D03*
D14*
X176403000Y-45085000D03*
D21*
X176403000Y-55245000D03*
D14*
X175006000Y-69215000D03*
D21*
X175006000Y-79375000D03*
D14*
X179705000Y-45085000D03*
D21*
X179705000Y-55245000D03*
D14*
X185928000Y-45085000D03*
D21*
X185928000Y-55245000D03*
D14*
X191770000Y-45085000D03*
D21*
X201930000Y-45085000D03*
D14*
X191770000Y-41275000D03*
D21*
X201930000Y-41275000D03*
D24*
X163830000Y-71120000D03*
D21*
X163830000Y-73660000D03*
X163830000Y-76200000D03*
X163830000Y-78740000D03*
X171450000Y-78740000D03*
X171450000Y-76200000D03*
X171450000Y-73660000D03*
X171450000Y-71120000D03*
D15*
X70485000Y-74930000D03*
D16*
X85725000Y-74930000D03*
D15*
X85725000Y-55880000D03*
D16*
X70485000Y-55880000D03*
D31*
X76200000Y-114300000D03*
D32*
X76200000Y-109220000D03*
D31*
X76200000Y-97790000D03*
D32*
X76200000Y-92710000D03*
D31*
X97155000Y-114300000D03*
D32*
X97155000Y-109220000D03*
D31*
X97155000Y-97790000D03*
D32*
X97155000Y-92710000D03*
D14*
X80010000Y-93980000D03*
X80010000Y-96480000D03*
X100965000Y-96520000D03*
X100965000Y-94020000D03*
X100965000Y-110911000D03*
X100965000Y-113411000D03*
X80137000Y-113371000D03*
X80137000Y-110871000D03*
D29*
X151765000Y-103505000D03*
D30*
X149225000Y-103505000D03*
D14*
X151765000Y-98425000D03*
D21*
X151765000Y-88265000D03*
D24*
X143002000Y-55245000D03*
D21*
X143002000Y-45085000D03*
D14*
X171450000Y-67945000D03*
X166450000Y-67945000D03*
X157480000Y-92075000D03*
D21*
X167640000Y-92075000D03*
D14*
X158135000Y-109220000D03*
X160635000Y-109220000D03*
X157480000Y-115570000D03*
D21*
X167640000Y-115570000D03*
D14*
X160675000Y-95250000D03*
X163175000Y-95250000D03*
D24*
X133985000Y-79375000D03*
D14*
X135985000Y-79375000D03*
X127762000Y-79375000D03*
X122762000Y-79375000D03*
D33*
X118110000Y-74930000D03*
D34*
X120650000Y-74930000D03*
X123190000Y-74930000D03*
D17*
X115697000Y-65405000D03*
D18*
X125857000Y-65405000D03*
D14*
X114046000Y-79375000D03*
X119046000Y-79375000D03*
X156845000Y-41275000D03*
X151845000Y-41275000D03*
D24*
X149225000Y-45593000D03*
D21*
X149225000Y-48133000D03*
X149225000Y-50673000D03*
X149225000Y-53213000D03*
X156845000Y-53213000D03*
X156845000Y-50673000D03*
X156845000Y-48133000D03*
X156845000Y-45593000D03*
D14*
X157480000Y-88900000D03*
D21*
X167640000Y-88900000D03*
D35*
X120015000Y-93345000D03*
D36*
X120015000Y-95885000D03*
D35*
X120015000Y-85090000D03*
D36*
X120015000Y-87630000D03*
D37*
X110490000Y-93345000D03*
D38*
X110490000Y-95885000D03*
D37*
X110490000Y-85090000D03*
D38*
X110490000Y-87630000D03*
D14*
X157480000Y-112395000D03*
D21*
X167640000Y-112395000D03*
D24*
X165725000Y-98425000D03*
D21*
X163185000Y-98425000D03*
X160645000Y-98425000D03*
X158105000Y-98425000D03*
X158105000Y-106045000D03*
X160645000Y-106045000D03*
X163185000Y-106045000D03*
X165725000Y-106045000D03*
D14*
X198755000Y-133350000D03*
D21*
X188595000Y-133350000D03*
D39*
X58180000Y-43345000D03*
X58180000Y-132245000D03*
X211040000Y-43345000D03*
X211040000Y-132245000D03*
D40*
X140970000Y-90805000D03*
D28*
X143510000Y-90805000D03*
D41*
X68085000Y-85090000D03*
X68787944Y-83392944D03*
X68787944Y-86787056D03*
X70485000Y-82690000D03*
D42*
X70485000Y-85090000D03*
D41*
X70485000Y-87490000D03*
X72182056Y-83392944D03*
X72182056Y-86787056D03*
X72885000Y-85090000D03*
D40*
X132715000Y-90805000D03*
D28*
X135255000Y-90805000D03*
D29*
X200660000Y-59690000D03*
D30*
X201930000Y-59690000D03*
X203200000Y-59690000D03*
D29*
X203200000Y-65405000D03*
D30*
X201930000Y-65405000D03*
X200660000Y-65405000D03*
D14*
X211455000Y-58420000D03*
D21*
X211455000Y-68580000D03*
D14*
X207645000Y-68580000D03*
D21*
X207645000Y-58420000D03*
D40*
X200660000Y-76200000D03*
D28*
X203200000Y-76200000D03*
X205740000Y-76200000D03*
D27*
X191770000Y-65405000D03*
D28*
X194310000Y-65405000D03*
D43*
X130175000Y-58420000D03*
D44*
X130175000Y-59920000D03*
D24*
X150495000Y-109855000D03*
D14*
X150495000Y-113355000D03*
X200025000Y-113030000D03*
X200025000Y-118030000D03*
D40*
X137160000Y-99695000D03*
D28*
X139700000Y-99695000D03*
D45*
X123825000Y-123190000D03*
D46*
X123825000Y-113190000D03*
D14*
X181610000Y-69215000D03*
D21*
X181610000Y-79375000D03*
D14*
X198882000Y-107722000D03*
D21*
X188722000Y-107722000D03*
D25*
X180970000Y-107696000D03*
D26*
X183510000Y-107696000D03*
M02*
