%TF.GenerationSoftware,KiCad,Pcbnew,8.0.8*%
%TF.CreationDate,2025-02-12T00:11:01+01:00*%
%TF.ProjectId,Endstufe,456e6473-7475-4666-952e-6b696361645f,rev?*%
%TF.SameCoordinates,Original*%
%TF.FileFunction,Legend,Top*%
%TF.FilePolarity,Positive*%
%FSLAX46Y46*%
G04 Gerber Fmt 4.6, Leading zero omitted, Abs format (unit mm)*
G04 Created by KiCad (PCBNEW 8.0.8) date 2025-02-12 00:11:01*
%MOMM*%
%LPD*%
G01*
G04 APERTURE LIST*
G04 Aperture macros list*
%AMRoundRect*
0 Rectangle with rounded corners*
0 $1 Rounding radius*
0 $2 $3 $4 $5 $6 $7 $8 $9 X,Y pos of 4 corners*
0 Add a 4 corners polygon primitive as box body*
4,1,4,$2,$3,$4,$5,$6,$7,$8,$9,$2,$3,0*
0 Add four circle primitives for the rounded corners*
1,1,$1+$1,$2,$3*
1,1,$1+$1,$4,$5*
1,1,$1+$1,$6,$7*
1,1,$1+$1,$8,$9*
0 Add four rect primitives between the rounded corners*
20,1,$1+$1,$2,$3,$4,$5,0*
20,1,$1+$1,$4,$5,$6,$7,0*
20,1,$1+$1,$6,$7,$8,$9,0*
20,1,$1+$1,$8,$9,$2,$3,0*%
%AMOutline5P*
0 Free polygon, 5 corners , with rotation*
0 The origin of the aperture is its center*
0 number of corners: always 5*
0 $1 to $10 corner X, Y*
0 $11 Rotation angle, in degrees counterclockwise*
0 create outline with 5 corners*
4,1,5,$1,$2,$3,$4,$5,$6,$7,$8,$9,$10,$1,$2,$11*%
%AMOutline6P*
0 Free polygon, 6 corners , with rotation*
0 The origin of the aperture is its center*
0 number of corners: always 6*
0 $1 to $12 corner X, Y*
0 $13 Rotation angle, in degrees counterclockwise*
0 create outline with 6 corners*
4,1,6,$1,$2,$3,$4,$5,$6,$7,$8,$9,$10,$11,$12,$1,$2,$13*%
%AMOutline7P*
0 Free polygon, 7 corners , with rotation*
0 The origin of the aperture is its center*
0 number of corners: always 7*
0 $1 to $14 corner X, Y*
0 $15 Rotation angle, in degrees counterclockwise*
0 create outline with 7 corners*
4,1,7,$1,$2,$3,$4,$5,$6,$7,$8,$9,$10,$11,$12,$13,$14,$1,$2,$15*%
%AMOutline8P*
0 Free polygon, 8 corners , with rotation*
0 The origin of the aperture is its center*
0 number of corners: always 8*
0 $1 to $16 corner X, Y*
0 $17 Rotation angle, in degrees counterclockwise*
0 create outline with 8 corners*
4,1,8,$1,$2,$3,$4,$5,$6,$7,$8,$9,$10,$11,$12,$13,$14,$15,$16,$1,$2,$17*%
G04 Aperture macros list end*
%ADD10C,0.300000*%
%ADD11C,0.150000*%
%ADD12C,0.120000*%
%ADD13C,2.000000*%
%ADD14C,1.600000*%
%ADD15O,1.600000X1.600000*%
%ADD16RoundRect,0.250001X1.099999X1.399999X-1.099999X1.399999X-1.099999X-1.399999X1.099999X-1.399999X0*%
%ADD17O,2.700000X3.300000*%
%ADD18C,2.400000*%
%ADD19O,2.400000X2.400000*%
%ADD20R,2.200000X2.200000*%
%ADD21O,2.200000X2.200000*%
%ADD22RoundRect,0.250000X0.620000X0.845000X-0.620000X0.845000X-0.620000X-0.845000X0.620000X-0.845000X0*%
%ADD23O,1.740000X2.190000*%
%ADD24RoundRect,0.250001X-1.099999X-1.399999X1.099999X-1.399999X1.099999X1.399999X-1.099999X1.399999X0*%
%ADD25RoundRect,0.250000X0.725000X-0.600000X0.725000X0.600000X-0.725000X0.600000X-0.725000X-0.600000X0*%
%ADD26O,1.950000X1.700000*%
%ADD27RoundRect,0.250000X-0.845000X0.620000X-0.845000X-0.620000X0.845000X-0.620000X0.845000X0.620000X0*%
%ADD28O,2.190000X1.740000*%
%ADD29RoundRect,0.250000X-0.600000X-0.600000X0.600000X-0.600000X0.600000X0.600000X-0.600000X0.600000X0*%
%ADD30C,1.700000*%
%ADD31RoundRect,0.250001X-1.399999X1.099999X-1.399999X-1.099999X1.399999X-1.099999X1.399999X1.099999X0*%
%ADD32O,3.300000X2.700000*%
%ADD33R,2.000000X2.000000*%
%ADD34C,3.200000*%
%ADD35C,6.000000*%
%ADD36Outline5P,-2.300000X2.300000X1.380000X2.300000X2.300000X1.380000X2.300000X-2.300000X-2.300000X-2.300000X0.000000*%
%ADD37C,4.600000*%
%ADD38C,4.000000*%
%ADD39C,1.440000*%
G04 APERTURE END LIST*
D10*
X161395870Y-114175714D02*
X159895870Y-114175714D01*
X159895870Y-114175714D02*
X159895870Y-113818571D01*
X159895870Y-113818571D02*
X159967299Y-113604285D01*
X159967299Y-113604285D02*
X160110156Y-113461428D01*
X160110156Y-113461428D02*
X160253013Y-113389999D01*
X160253013Y-113389999D02*
X160538727Y-113318571D01*
X160538727Y-113318571D02*
X160753013Y-113318571D01*
X160753013Y-113318571D02*
X161038727Y-113389999D01*
X161038727Y-113389999D02*
X161181584Y-113461428D01*
X161181584Y-113461428D02*
X161324442Y-113604285D01*
X161324442Y-113604285D02*
X161395870Y-113818571D01*
X161395870Y-113818571D02*
X161395870Y-114175714D01*
X161395870Y-112461428D02*
X161324442Y-112604285D01*
X161324442Y-112604285D02*
X161253013Y-112675714D01*
X161253013Y-112675714D02*
X161110156Y-112747142D01*
X161110156Y-112747142D02*
X160681584Y-112747142D01*
X160681584Y-112747142D02*
X160538727Y-112675714D01*
X160538727Y-112675714D02*
X160467299Y-112604285D01*
X160467299Y-112604285D02*
X160395870Y-112461428D01*
X160395870Y-112461428D02*
X160395870Y-112247142D01*
X160395870Y-112247142D02*
X160467299Y-112104285D01*
X160467299Y-112104285D02*
X160538727Y-112032857D01*
X160538727Y-112032857D02*
X160681584Y-111961428D01*
X160681584Y-111961428D02*
X161110156Y-111961428D01*
X161110156Y-111961428D02*
X161253013Y-112032857D01*
X161253013Y-112032857D02*
X161324442Y-112104285D01*
X161324442Y-112104285D02*
X161395870Y-112247142D01*
X161395870Y-112247142D02*
X161395870Y-112461428D01*
X160395870Y-110175714D02*
X161395870Y-110175714D01*
X160538727Y-110175714D02*
X160467299Y-110104285D01*
X160467299Y-110104285D02*
X160395870Y-109961428D01*
X160395870Y-109961428D02*
X160395870Y-109747142D01*
X160395870Y-109747142D02*
X160467299Y-109604285D01*
X160467299Y-109604285D02*
X160610156Y-109532857D01*
X160610156Y-109532857D02*
X161395870Y-109532857D01*
X161395870Y-108604285D02*
X161324442Y-108747142D01*
X161324442Y-108747142D02*
X161253013Y-108818571D01*
X161253013Y-108818571D02*
X161110156Y-108889999D01*
X161110156Y-108889999D02*
X160681584Y-108889999D01*
X160681584Y-108889999D02*
X160538727Y-108818571D01*
X160538727Y-108818571D02*
X160467299Y-108747142D01*
X160467299Y-108747142D02*
X160395870Y-108604285D01*
X160395870Y-108604285D02*
X160395870Y-108389999D01*
X160395870Y-108389999D02*
X160467299Y-108247142D01*
X160467299Y-108247142D02*
X160538727Y-108175714D01*
X160538727Y-108175714D02*
X160681584Y-108104285D01*
X160681584Y-108104285D02*
X161110156Y-108104285D01*
X161110156Y-108104285D02*
X161253013Y-108175714D01*
X161253013Y-108175714D02*
X161324442Y-108247142D01*
X161324442Y-108247142D02*
X161395870Y-108389999D01*
X161395870Y-108389999D02*
X161395870Y-108604285D01*
X160395870Y-107675713D02*
X160395870Y-107104285D01*
X159895870Y-107461428D02*
X161181584Y-107461428D01*
X161181584Y-107461428D02*
X161324442Y-107389999D01*
X161324442Y-107389999D02*
X161395870Y-107247142D01*
X161395870Y-107247142D02*
X161395870Y-107104285D01*
X161395870Y-104818571D02*
X159895870Y-104818571D01*
X161324442Y-104818571D02*
X161395870Y-104961428D01*
X161395870Y-104961428D02*
X161395870Y-105247142D01*
X161395870Y-105247142D02*
X161324442Y-105389999D01*
X161324442Y-105389999D02*
X161253013Y-105461428D01*
X161253013Y-105461428D02*
X161110156Y-105532856D01*
X161110156Y-105532856D02*
X160681584Y-105532856D01*
X160681584Y-105532856D02*
X160538727Y-105461428D01*
X160538727Y-105461428D02*
X160467299Y-105389999D01*
X160467299Y-105389999D02*
X160395870Y-105247142D01*
X160395870Y-105247142D02*
X160395870Y-104961428D01*
X160395870Y-104961428D02*
X160467299Y-104818571D01*
X161395870Y-104104285D02*
X160395870Y-104104285D01*
X159895870Y-104104285D02*
X159967299Y-104175713D01*
X159967299Y-104175713D02*
X160038727Y-104104285D01*
X160038727Y-104104285D02*
X159967299Y-104032856D01*
X159967299Y-104032856D02*
X159895870Y-104104285D01*
X159895870Y-104104285D02*
X160038727Y-104104285D01*
X161324442Y-103461427D02*
X161395870Y-103318570D01*
X161395870Y-103318570D02*
X161395870Y-103032856D01*
X161395870Y-103032856D02*
X161324442Y-102889999D01*
X161324442Y-102889999D02*
X161181584Y-102818570D01*
X161181584Y-102818570D02*
X161110156Y-102818570D01*
X161110156Y-102818570D02*
X160967299Y-102889999D01*
X160967299Y-102889999D02*
X160895870Y-103032856D01*
X160895870Y-103032856D02*
X160895870Y-103247142D01*
X160895870Y-103247142D02*
X160824442Y-103389999D01*
X160824442Y-103389999D02*
X160681584Y-103461427D01*
X160681584Y-103461427D02*
X160610156Y-103461427D01*
X160610156Y-103461427D02*
X160467299Y-103389999D01*
X160467299Y-103389999D02*
X160395870Y-103247142D01*
X160395870Y-103247142D02*
X160395870Y-103032856D01*
X160395870Y-103032856D02*
X160467299Y-102889999D01*
X161324442Y-101532856D02*
X161395870Y-101675713D01*
X161395870Y-101675713D02*
X161395870Y-101961427D01*
X161395870Y-101961427D02*
X161324442Y-102104284D01*
X161324442Y-102104284D02*
X161253013Y-102175713D01*
X161253013Y-102175713D02*
X161110156Y-102247141D01*
X161110156Y-102247141D02*
X160681584Y-102247141D01*
X160681584Y-102247141D02*
X160538727Y-102175713D01*
X160538727Y-102175713D02*
X160467299Y-102104284D01*
X160467299Y-102104284D02*
X160395870Y-101961427D01*
X160395870Y-101961427D02*
X160395870Y-101675713D01*
X160395870Y-101675713D02*
X160467299Y-101532856D01*
X161395870Y-100675713D02*
X161324442Y-100818570D01*
X161324442Y-100818570D02*
X161253013Y-100889999D01*
X161253013Y-100889999D02*
X161110156Y-100961427D01*
X161110156Y-100961427D02*
X160681584Y-100961427D01*
X160681584Y-100961427D02*
X160538727Y-100889999D01*
X160538727Y-100889999D02*
X160467299Y-100818570D01*
X160467299Y-100818570D02*
X160395870Y-100675713D01*
X160395870Y-100675713D02*
X160395870Y-100461427D01*
X160395870Y-100461427D02*
X160467299Y-100318570D01*
X160467299Y-100318570D02*
X160538727Y-100247142D01*
X160538727Y-100247142D02*
X160681584Y-100175713D01*
X160681584Y-100175713D02*
X161110156Y-100175713D01*
X161110156Y-100175713D02*
X161253013Y-100247142D01*
X161253013Y-100247142D02*
X161324442Y-100318570D01*
X161324442Y-100318570D02*
X161395870Y-100461427D01*
X161395870Y-100461427D02*
X161395870Y-100675713D01*
X160395870Y-99532856D02*
X161395870Y-99532856D01*
X160538727Y-99532856D02*
X160467299Y-99461427D01*
X160467299Y-99461427D02*
X160395870Y-99318570D01*
X160395870Y-99318570D02*
X160395870Y-99104284D01*
X160395870Y-99104284D02*
X160467299Y-98961427D01*
X160467299Y-98961427D02*
X160610156Y-98889999D01*
X160610156Y-98889999D02*
X161395870Y-98889999D01*
X160395870Y-98175713D02*
X161395870Y-98175713D01*
X160538727Y-98175713D02*
X160467299Y-98104284D01*
X160467299Y-98104284D02*
X160395870Y-97961427D01*
X160395870Y-97961427D02*
X160395870Y-97747141D01*
X160395870Y-97747141D02*
X160467299Y-97604284D01*
X160467299Y-97604284D02*
X160610156Y-97532856D01*
X160610156Y-97532856D02*
X161395870Y-97532856D01*
X161324442Y-96247141D02*
X161395870Y-96389998D01*
X161395870Y-96389998D02*
X161395870Y-96675713D01*
X161395870Y-96675713D02*
X161324442Y-96818570D01*
X161324442Y-96818570D02*
X161181584Y-96889998D01*
X161181584Y-96889998D02*
X160610156Y-96889998D01*
X160610156Y-96889998D02*
X160467299Y-96818570D01*
X160467299Y-96818570D02*
X160395870Y-96675713D01*
X160395870Y-96675713D02*
X160395870Y-96389998D01*
X160395870Y-96389998D02*
X160467299Y-96247141D01*
X160467299Y-96247141D02*
X160610156Y-96175713D01*
X160610156Y-96175713D02*
X160753013Y-96175713D01*
X160753013Y-96175713D02*
X160895870Y-96889998D01*
X161324442Y-94889999D02*
X161395870Y-95032856D01*
X161395870Y-95032856D02*
X161395870Y-95318570D01*
X161395870Y-95318570D02*
X161324442Y-95461427D01*
X161324442Y-95461427D02*
X161253013Y-95532856D01*
X161253013Y-95532856D02*
X161110156Y-95604284D01*
X161110156Y-95604284D02*
X160681584Y-95604284D01*
X160681584Y-95604284D02*
X160538727Y-95532856D01*
X160538727Y-95532856D02*
X160467299Y-95461427D01*
X160467299Y-95461427D02*
X160395870Y-95318570D01*
X160395870Y-95318570D02*
X160395870Y-95032856D01*
X160395870Y-95032856D02*
X160467299Y-94889999D01*
X160395870Y-94461427D02*
X160395870Y-93889999D01*
X159895870Y-94247142D02*
X161181584Y-94247142D01*
X161181584Y-94247142D02*
X161324442Y-94175713D01*
X161324442Y-94175713D02*
X161395870Y-94032856D01*
X161395870Y-94032856D02*
X161395870Y-93889999D01*
X162810786Y-112282857D02*
X163810786Y-111997143D01*
X163810786Y-111997143D02*
X163096500Y-111711428D01*
X163096500Y-111711428D02*
X163810786Y-111425714D01*
X163810786Y-111425714D02*
X162810786Y-111140000D01*
X163810786Y-110568571D02*
X162310786Y-110568571D01*
X163810786Y-109925714D02*
X163025072Y-109925714D01*
X163025072Y-109925714D02*
X162882215Y-109997142D01*
X162882215Y-109997142D02*
X162810786Y-110139999D01*
X162810786Y-110139999D02*
X162810786Y-110354285D01*
X162810786Y-110354285D02*
X162882215Y-110497142D01*
X162882215Y-110497142D02*
X162953643Y-110568571D01*
X163810786Y-109211428D02*
X162810786Y-109211428D01*
X162310786Y-109211428D02*
X162382215Y-109282856D01*
X162382215Y-109282856D02*
X162453643Y-109211428D01*
X162453643Y-109211428D02*
X162382215Y-109139999D01*
X162382215Y-109139999D02*
X162310786Y-109211428D01*
X162310786Y-109211428D02*
X162453643Y-109211428D01*
X163810786Y-108282856D02*
X163739358Y-108425713D01*
X163739358Y-108425713D02*
X163596500Y-108497142D01*
X163596500Y-108497142D02*
X162310786Y-108497142D01*
X163739358Y-107139999D02*
X163810786Y-107282856D01*
X163810786Y-107282856D02*
X163810786Y-107568571D01*
X163810786Y-107568571D02*
X163739358Y-107711428D01*
X163739358Y-107711428D02*
X163596500Y-107782856D01*
X163596500Y-107782856D02*
X163025072Y-107782856D01*
X163025072Y-107782856D02*
X162882215Y-107711428D01*
X162882215Y-107711428D02*
X162810786Y-107568571D01*
X162810786Y-107568571D02*
X162810786Y-107282856D01*
X162810786Y-107282856D02*
X162882215Y-107139999D01*
X162882215Y-107139999D02*
X163025072Y-107068571D01*
X163025072Y-107068571D02*
X163167929Y-107068571D01*
X163167929Y-107068571D02*
X163310786Y-107782856D01*
X162810786Y-105282857D02*
X164310786Y-105282857D01*
X162882215Y-105282857D02*
X162810786Y-105140000D01*
X162810786Y-105140000D02*
X162810786Y-104854285D01*
X162810786Y-104854285D02*
X162882215Y-104711428D01*
X162882215Y-104711428D02*
X162953643Y-104640000D01*
X162953643Y-104640000D02*
X163096500Y-104568571D01*
X163096500Y-104568571D02*
X163525072Y-104568571D01*
X163525072Y-104568571D02*
X163667929Y-104640000D01*
X163667929Y-104640000D02*
X163739358Y-104711428D01*
X163739358Y-104711428D02*
X163810786Y-104854285D01*
X163810786Y-104854285D02*
X163810786Y-105140000D01*
X163810786Y-105140000D02*
X163739358Y-105282857D01*
X163810786Y-103711428D02*
X163739358Y-103854285D01*
X163739358Y-103854285D02*
X163667929Y-103925714D01*
X163667929Y-103925714D02*
X163525072Y-103997142D01*
X163525072Y-103997142D02*
X163096500Y-103997142D01*
X163096500Y-103997142D02*
X162953643Y-103925714D01*
X162953643Y-103925714D02*
X162882215Y-103854285D01*
X162882215Y-103854285D02*
X162810786Y-103711428D01*
X162810786Y-103711428D02*
X162810786Y-103497142D01*
X162810786Y-103497142D02*
X162882215Y-103354285D01*
X162882215Y-103354285D02*
X162953643Y-103282857D01*
X162953643Y-103282857D02*
X163096500Y-103211428D01*
X163096500Y-103211428D02*
X163525072Y-103211428D01*
X163525072Y-103211428D02*
X163667929Y-103282857D01*
X163667929Y-103282857D02*
X163739358Y-103354285D01*
X163739358Y-103354285D02*
X163810786Y-103497142D01*
X163810786Y-103497142D02*
X163810786Y-103711428D01*
X162810786Y-102711428D02*
X163810786Y-102425714D01*
X163810786Y-102425714D02*
X163096500Y-102139999D01*
X163096500Y-102139999D02*
X163810786Y-101854285D01*
X163810786Y-101854285D02*
X162810786Y-101568571D01*
X163739358Y-100425713D02*
X163810786Y-100568570D01*
X163810786Y-100568570D02*
X163810786Y-100854285D01*
X163810786Y-100854285D02*
X163739358Y-100997142D01*
X163739358Y-100997142D02*
X163596500Y-101068570D01*
X163596500Y-101068570D02*
X163025072Y-101068570D01*
X163025072Y-101068570D02*
X162882215Y-100997142D01*
X162882215Y-100997142D02*
X162810786Y-100854285D01*
X162810786Y-100854285D02*
X162810786Y-100568570D01*
X162810786Y-100568570D02*
X162882215Y-100425713D01*
X162882215Y-100425713D02*
X163025072Y-100354285D01*
X163025072Y-100354285D02*
X163167929Y-100354285D01*
X163167929Y-100354285D02*
X163310786Y-101068570D01*
X163810786Y-99711428D02*
X162810786Y-99711428D01*
X163096500Y-99711428D02*
X162953643Y-99639999D01*
X162953643Y-99639999D02*
X162882215Y-99568571D01*
X162882215Y-99568571D02*
X162810786Y-99425713D01*
X162810786Y-99425713D02*
X162810786Y-99282856D01*
X163739358Y-98211428D02*
X163810786Y-98354285D01*
X163810786Y-98354285D02*
X163810786Y-98640000D01*
X163810786Y-98640000D02*
X163739358Y-98782857D01*
X163739358Y-98782857D02*
X163596500Y-98854285D01*
X163596500Y-98854285D02*
X163025072Y-98854285D01*
X163025072Y-98854285D02*
X162882215Y-98782857D01*
X162882215Y-98782857D02*
X162810786Y-98640000D01*
X162810786Y-98640000D02*
X162810786Y-98354285D01*
X162810786Y-98354285D02*
X162882215Y-98211428D01*
X162882215Y-98211428D02*
X163025072Y-98140000D01*
X163025072Y-98140000D02*
X163167929Y-98140000D01*
X163167929Y-98140000D02*
X163310786Y-98854285D01*
X163810786Y-96854286D02*
X162310786Y-96854286D01*
X163739358Y-96854286D02*
X163810786Y-96997143D01*
X163810786Y-96997143D02*
X163810786Y-97282857D01*
X163810786Y-97282857D02*
X163739358Y-97425714D01*
X163739358Y-97425714D02*
X163667929Y-97497143D01*
X163667929Y-97497143D02*
X163525072Y-97568571D01*
X163525072Y-97568571D02*
X163096500Y-97568571D01*
X163096500Y-97568571D02*
X162953643Y-97497143D01*
X162953643Y-97497143D02*
X162882215Y-97425714D01*
X162882215Y-97425714D02*
X162810786Y-97282857D01*
X162810786Y-97282857D02*
X162810786Y-96997143D01*
X162810786Y-96997143D02*
X162882215Y-96854286D01*
X163667929Y-96140000D02*
X163739358Y-96068571D01*
X163739358Y-96068571D02*
X163810786Y-96140000D01*
X163810786Y-96140000D02*
X163739358Y-96211428D01*
X163739358Y-96211428D02*
X163667929Y-96140000D01*
X163667929Y-96140000D02*
X163810786Y-96140000D01*
X163239358Y-96140000D02*
X162382215Y-96211428D01*
X162382215Y-96211428D02*
X162310786Y-96140000D01*
X162310786Y-96140000D02*
X162382215Y-96068571D01*
X162382215Y-96068571D02*
X163239358Y-96140000D01*
X163239358Y-96140000D02*
X162310786Y-96140000D01*
X68842285Y-155657156D02*
X68342285Y-155657156D01*
X68342285Y-156442870D02*
X68342285Y-154942870D01*
X68342285Y-154942870D02*
X69056571Y-154942870D01*
X70199428Y-156371442D02*
X70056571Y-156442870D01*
X70056571Y-156442870D02*
X69770857Y-156442870D01*
X69770857Y-156442870D02*
X69627999Y-156371442D01*
X69627999Y-156371442D02*
X69556571Y-156228584D01*
X69556571Y-156228584D02*
X69556571Y-155657156D01*
X69556571Y-155657156D02*
X69627999Y-155514299D01*
X69627999Y-155514299D02*
X69770857Y-155442870D01*
X69770857Y-155442870D02*
X70056571Y-155442870D01*
X70056571Y-155442870D02*
X70199428Y-155514299D01*
X70199428Y-155514299D02*
X70270857Y-155657156D01*
X70270857Y-155657156D02*
X70270857Y-155800013D01*
X70270857Y-155800013D02*
X69556571Y-155942870D01*
X71485142Y-156371442D02*
X71342285Y-156442870D01*
X71342285Y-156442870D02*
X71056571Y-156442870D01*
X71056571Y-156442870D02*
X70913713Y-156371442D01*
X70913713Y-156371442D02*
X70842285Y-156228584D01*
X70842285Y-156228584D02*
X70842285Y-155657156D01*
X70842285Y-155657156D02*
X70913713Y-155514299D01*
X70913713Y-155514299D02*
X71056571Y-155442870D01*
X71056571Y-155442870D02*
X71342285Y-155442870D01*
X71342285Y-155442870D02*
X71485142Y-155514299D01*
X71485142Y-155514299D02*
X71556571Y-155657156D01*
X71556571Y-155657156D02*
X71556571Y-155800013D01*
X71556571Y-155800013D02*
X70842285Y-155942870D01*
X72842285Y-156442870D02*
X72842285Y-154942870D01*
X72842285Y-156371442D02*
X72699427Y-156442870D01*
X72699427Y-156442870D02*
X72413713Y-156442870D01*
X72413713Y-156442870D02*
X72270856Y-156371442D01*
X72270856Y-156371442D02*
X72199427Y-156300013D01*
X72199427Y-156300013D02*
X72127999Y-156157156D01*
X72127999Y-156157156D02*
X72127999Y-155728584D01*
X72127999Y-155728584D02*
X72199427Y-155585727D01*
X72199427Y-155585727D02*
X72270856Y-155514299D01*
X72270856Y-155514299D02*
X72413713Y-155442870D01*
X72413713Y-155442870D02*
X72699427Y-155442870D01*
X72699427Y-155442870D02*
X72842285Y-155514299D01*
X73556570Y-156442870D02*
X73556570Y-154942870D01*
X73556570Y-155514299D02*
X73699428Y-155442870D01*
X73699428Y-155442870D02*
X73985142Y-155442870D01*
X73985142Y-155442870D02*
X74127999Y-155514299D01*
X74127999Y-155514299D02*
X74199428Y-155585727D01*
X74199428Y-155585727D02*
X74270856Y-155728584D01*
X74270856Y-155728584D02*
X74270856Y-156157156D01*
X74270856Y-156157156D02*
X74199428Y-156300013D01*
X74199428Y-156300013D02*
X74127999Y-156371442D01*
X74127999Y-156371442D02*
X73985142Y-156442870D01*
X73985142Y-156442870D02*
X73699428Y-156442870D01*
X73699428Y-156442870D02*
X73556570Y-156371442D01*
X74913713Y-156300013D02*
X74985142Y-156371442D01*
X74985142Y-156371442D02*
X74913713Y-156442870D01*
X74913713Y-156442870D02*
X74842285Y-156371442D01*
X74842285Y-156371442D02*
X74913713Y-156300013D01*
X74913713Y-156300013D02*
X74913713Y-156442870D01*
X70949428Y-158857786D02*
X70949428Y-157357786D01*
X71663714Y-157857786D02*
X71663714Y-158857786D01*
X71663714Y-158000643D02*
X71735143Y-157929215D01*
X71735143Y-157929215D02*
X71878000Y-157857786D01*
X71878000Y-157857786D02*
X72092286Y-157857786D01*
X72092286Y-157857786D02*
X72235143Y-157929215D01*
X72235143Y-157929215D02*
X72306572Y-158072072D01*
X72306572Y-158072072D02*
X72306572Y-158857786D01*
X173943001Y-45914328D02*
X173657286Y-45914328D01*
X173657286Y-45914328D02*
X173514429Y-45985757D01*
X173514429Y-45985757D02*
X173443001Y-46057185D01*
X173443001Y-46057185D02*
X173300143Y-46271471D01*
X173300143Y-46271471D02*
X173228715Y-46557185D01*
X173228715Y-46557185D02*
X173228715Y-47128614D01*
X173228715Y-47128614D02*
X173300143Y-47271471D01*
X173300143Y-47271471D02*
X173371572Y-47342900D01*
X173371572Y-47342900D02*
X173514429Y-47414328D01*
X173514429Y-47414328D02*
X173800143Y-47414328D01*
X173800143Y-47414328D02*
X173943001Y-47342900D01*
X173943001Y-47342900D02*
X174014429Y-47271471D01*
X174014429Y-47271471D02*
X174085858Y-47128614D01*
X174085858Y-47128614D02*
X174085858Y-46771471D01*
X174085858Y-46771471D02*
X174014429Y-46628614D01*
X174014429Y-46628614D02*
X173943001Y-46557185D01*
X173943001Y-46557185D02*
X173800143Y-46485757D01*
X173800143Y-46485757D02*
X173514429Y-46485757D01*
X173514429Y-46485757D02*
X173371572Y-46557185D01*
X173371572Y-46557185D02*
X173300143Y-46628614D01*
X173300143Y-46628614D02*
X173228715Y-46771471D01*
X174800143Y-47342900D02*
X174800143Y-47414328D01*
X174800143Y-47414328D02*
X174728714Y-47557185D01*
X174728714Y-47557185D02*
X174657286Y-47628614D01*
X175300143Y-45914328D02*
X176228715Y-45914328D01*
X176228715Y-45914328D02*
X175728715Y-46485757D01*
X175728715Y-46485757D02*
X175943000Y-46485757D01*
X175943000Y-46485757D02*
X176085858Y-46557185D01*
X176085858Y-46557185D02*
X176157286Y-46628614D01*
X176157286Y-46628614D02*
X176228715Y-46771471D01*
X176228715Y-46771471D02*
X176228715Y-47128614D01*
X176228715Y-47128614D02*
X176157286Y-47271471D01*
X176157286Y-47271471D02*
X176085858Y-47342900D01*
X176085858Y-47342900D02*
X175943000Y-47414328D01*
X175943000Y-47414328D02*
X175514429Y-47414328D01*
X175514429Y-47414328D02*
X175371572Y-47342900D01*
X175371572Y-47342900D02*
X175300143Y-47271471D01*
X176657286Y-45914328D02*
X177157286Y-47414328D01*
X177157286Y-47414328D02*
X177657286Y-45914328D01*
X179228714Y-46985757D02*
X179943000Y-46985757D01*
X179085857Y-47414328D02*
X179585857Y-45914328D01*
X179585857Y-45914328D02*
X180085857Y-47414328D01*
X181442999Y-47271471D02*
X181371571Y-47342900D01*
X181371571Y-47342900D02*
X181157285Y-47414328D01*
X181157285Y-47414328D02*
X181014428Y-47414328D01*
X181014428Y-47414328D02*
X180800142Y-47342900D01*
X180800142Y-47342900D02*
X180657285Y-47200042D01*
X180657285Y-47200042D02*
X180585856Y-47057185D01*
X180585856Y-47057185D02*
X180514428Y-46771471D01*
X180514428Y-46771471D02*
X180514428Y-46557185D01*
X180514428Y-46557185D02*
X180585856Y-46271471D01*
X180585856Y-46271471D02*
X180657285Y-46128614D01*
X180657285Y-46128614D02*
X180800142Y-45985757D01*
X180800142Y-45985757D02*
X181014428Y-45914328D01*
X181014428Y-45914328D02*
X181157285Y-45914328D01*
X181157285Y-45914328D02*
X181371571Y-45985757D01*
X181371571Y-45985757D02*
X181442999Y-46057185D01*
X183228713Y-47414328D02*
X183228713Y-45914328D01*
X183942999Y-46414328D02*
X183942999Y-47414328D01*
X183942999Y-46557185D02*
X184014428Y-46485757D01*
X184014428Y-46485757D02*
X184157285Y-46414328D01*
X184157285Y-46414328D02*
X184371571Y-46414328D01*
X184371571Y-46414328D02*
X184514428Y-46485757D01*
X184514428Y-46485757D02*
X184585857Y-46628614D01*
X184585857Y-46628614D02*
X184585857Y-47414328D01*
X182710000Y-105666870D02*
X183210000Y-107166870D01*
X183210000Y-107166870D02*
X183710000Y-105666870D01*
X184209999Y-105666870D02*
X184209999Y-106881156D01*
X184209999Y-106881156D02*
X184281428Y-107024013D01*
X184281428Y-107024013D02*
X184352857Y-107095442D01*
X184352857Y-107095442D02*
X184495714Y-107166870D01*
X184495714Y-107166870D02*
X184781428Y-107166870D01*
X184781428Y-107166870D02*
X184924285Y-107095442D01*
X184924285Y-107095442D02*
X184995714Y-107024013D01*
X184995714Y-107024013D02*
X185067142Y-106881156D01*
X185067142Y-106881156D02*
X185067142Y-105666870D01*
X185781428Y-106595442D02*
X186924286Y-106595442D01*
X187638571Y-107166870D02*
X187638571Y-105666870D01*
X187638571Y-105666870D02*
X188138571Y-106738299D01*
X188138571Y-106738299D02*
X188638571Y-105666870D01*
X188638571Y-105666870D02*
X188638571Y-107166870D01*
X189924286Y-107095442D02*
X189781429Y-107166870D01*
X189781429Y-107166870D02*
X189495715Y-107166870D01*
X189495715Y-107166870D02*
X189352857Y-107095442D01*
X189352857Y-107095442D02*
X189281429Y-106952584D01*
X189281429Y-106952584D02*
X189281429Y-106381156D01*
X189281429Y-106381156D02*
X189352857Y-106238299D01*
X189352857Y-106238299D02*
X189495715Y-106166870D01*
X189495715Y-106166870D02*
X189781429Y-106166870D01*
X189781429Y-106166870D02*
X189924286Y-106238299D01*
X189924286Y-106238299D02*
X189995715Y-106381156D01*
X189995715Y-106381156D02*
X189995715Y-106524013D01*
X189995715Y-106524013D02*
X189281429Y-106666870D01*
X190424286Y-106166870D02*
X190995714Y-106166870D01*
X190638571Y-105666870D02*
X190638571Y-106952584D01*
X190638571Y-106952584D02*
X190710000Y-107095442D01*
X190710000Y-107095442D02*
X190852857Y-107166870D01*
X190852857Y-107166870D02*
X190995714Y-107166870D01*
X192067143Y-107095442D02*
X191924286Y-107166870D01*
X191924286Y-107166870D02*
X191638572Y-107166870D01*
X191638572Y-107166870D02*
X191495714Y-107095442D01*
X191495714Y-107095442D02*
X191424286Y-106952584D01*
X191424286Y-106952584D02*
X191424286Y-106381156D01*
X191424286Y-106381156D02*
X191495714Y-106238299D01*
X191495714Y-106238299D02*
X191638572Y-106166870D01*
X191638572Y-106166870D02*
X191924286Y-106166870D01*
X191924286Y-106166870D02*
X192067143Y-106238299D01*
X192067143Y-106238299D02*
X192138572Y-106381156D01*
X192138572Y-106381156D02*
X192138572Y-106524013D01*
X192138572Y-106524013D02*
X191424286Y-106666870D01*
X192781428Y-107166870D02*
X192781428Y-106166870D01*
X192781428Y-106452584D02*
X192852857Y-106309727D01*
X192852857Y-106309727D02*
X192924286Y-106238299D01*
X192924286Y-106238299D02*
X193067143Y-106166870D01*
X193067143Y-106166870D02*
X193210000Y-106166870D01*
X186745714Y-109581786D02*
X186602857Y-109510358D01*
X186602857Y-109510358D02*
X186531428Y-109438929D01*
X186531428Y-109438929D02*
X186460000Y-109296072D01*
X186460000Y-109296072D02*
X186460000Y-108867500D01*
X186460000Y-108867500D02*
X186531428Y-108724643D01*
X186531428Y-108724643D02*
X186602857Y-108653215D01*
X186602857Y-108653215D02*
X186745714Y-108581786D01*
X186745714Y-108581786D02*
X186960000Y-108581786D01*
X186960000Y-108581786D02*
X187102857Y-108653215D01*
X187102857Y-108653215D02*
X187174286Y-108724643D01*
X187174286Y-108724643D02*
X187245714Y-108867500D01*
X187245714Y-108867500D02*
X187245714Y-109296072D01*
X187245714Y-109296072D02*
X187174286Y-109438929D01*
X187174286Y-109438929D02*
X187102857Y-109510358D01*
X187102857Y-109510358D02*
X186960000Y-109581786D01*
X186960000Y-109581786D02*
X186745714Y-109581786D01*
X188531429Y-108581786D02*
X188531429Y-109581786D01*
X187888571Y-108581786D02*
X187888571Y-109367500D01*
X187888571Y-109367500D02*
X187960000Y-109510358D01*
X187960000Y-109510358D02*
X188102857Y-109581786D01*
X188102857Y-109581786D02*
X188317143Y-109581786D01*
X188317143Y-109581786D02*
X188460000Y-109510358D01*
X188460000Y-109510358D02*
X188531429Y-109438929D01*
X189031429Y-108581786D02*
X189602857Y-108581786D01*
X189245714Y-108081786D02*
X189245714Y-109367500D01*
X189245714Y-109367500D02*
X189317143Y-109510358D01*
X189317143Y-109510358D02*
X189460000Y-109581786D01*
X189460000Y-109581786D02*
X189602857Y-109581786D01*
X58059143Y-64574299D02*
X58773429Y-64574299D01*
X57916286Y-65002870D02*
X58416286Y-63502870D01*
X58416286Y-63502870D02*
X58916286Y-65002870D01*
X59416285Y-65002870D02*
X59416285Y-64002870D01*
X59416285Y-64145727D02*
X59487714Y-64074299D01*
X59487714Y-64074299D02*
X59630571Y-64002870D01*
X59630571Y-64002870D02*
X59844857Y-64002870D01*
X59844857Y-64002870D02*
X59987714Y-64074299D01*
X59987714Y-64074299D02*
X60059143Y-64217156D01*
X60059143Y-64217156D02*
X60059143Y-65002870D01*
X60059143Y-64217156D02*
X60130571Y-64074299D01*
X60130571Y-64074299D02*
X60273428Y-64002870D01*
X60273428Y-64002870D02*
X60487714Y-64002870D01*
X60487714Y-64002870D02*
X60630571Y-64074299D01*
X60630571Y-64074299D02*
X60702000Y-64217156D01*
X60702000Y-64217156D02*
X60702000Y-65002870D01*
X61416285Y-64002870D02*
X61416285Y-65502870D01*
X61416285Y-64074299D02*
X61559143Y-64002870D01*
X61559143Y-64002870D02*
X61844857Y-64002870D01*
X61844857Y-64002870D02*
X61987714Y-64074299D01*
X61987714Y-64074299D02*
X62059143Y-64145727D01*
X62059143Y-64145727D02*
X62130571Y-64288584D01*
X62130571Y-64288584D02*
X62130571Y-64717156D01*
X62130571Y-64717156D02*
X62059143Y-64860013D01*
X62059143Y-64860013D02*
X61987714Y-64931442D01*
X61987714Y-64931442D02*
X61844857Y-65002870D01*
X61844857Y-65002870D02*
X61559143Y-65002870D01*
X61559143Y-65002870D02*
X61416285Y-64931442D01*
X62773428Y-64860013D02*
X62844857Y-64931442D01*
X62844857Y-64931442D02*
X62773428Y-65002870D01*
X62773428Y-65002870D02*
X62702000Y-64931442D01*
X62702000Y-64931442D02*
X62773428Y-64860013D01*
X62773428Y-64860013D02*
X62773428Y-65002870D01*
X57487713Y-66632072D02*
X57987713Y-66632072D01*
X58201999Y-67417786D02*
X57487713Y-67417786D01*
X57487713Y-67417786D02*
X57487713Y-65917786D01*
X57487713Y-65917786D02*
X58201999Y-65917786D01*
X58844856Y-66417786D02*
X58844856Y-67417786D01*
X58844856Y-66560643D02*
X58916285Y-66489215D01*
X58916285Y-66489215D02*
X59059142Y-66417786D01*
X59059142Y-66417786D02*
X59273428Y-66417786D01*
X59273428Y-66417786D02*
X59416285Y-66489215D01*
X59416285Y-66489215D02*
X59487714Y-66632072D01*
X59487714Y-66632072D02*
X59487714Y-67417786D01*
X60201999Y-67274929D02*
X60273428Y-67346358D01*
X60273428Y-67346358D02*
X60201999Y-67417786D01*
X60201999Y-67417786D02*
X60130571Y-67346358D01*
X60130571Y-67346358D02*
X60201999Y-67274929D01*
X60201999Y-67274929D02*
X60201999Y-67417786D01*
X62059142Y-67417786D02*
X62059142Y-65917786D01*
X62773428Y-66417786D02*
X62773428Y-67417786D01*
X62773428Y-66560643D02*
X62844857Y-66489215D01*
X62844857Y-66489215D02*
X62987714Y-66417786D01*
X62987714Y-66417786D02*
X63202000Y-66417786D01*
X63202000Y-66417786D02*
X63344857Y-66489215D01*
X63344857Y-66489215D02*
X63416286Y-66632072D01*
X63416286Y-66632072D02*
X63416286Y-67417786D01*
X58099429Y-136169870D02*
X57242286Y-136169870D01*
X57670857Y-136169870D02*
X57670857Y-134669870D01*
X57670857Y-134669870D02*
X57528000Y-134884156D01*
X57528000Y-134884156D02*
X57385143Y-135027013D01*
X57385143Y-135027013D02*
X57242286Y-135098442D01*
X58670857Y-134812727D02*
X58742285Y-134741299D01*
X58742285Y-134741299D02*
X58885143Y-134669870D01*
X58885143Y-134669870D02*
X59242285Y-134669870D01*
X59242285Y-134669870D02*
X59385143Y-134741299D01*
X59385143Y-134741299D02*
X59456571Y-134812727D01*
X59456571Y-134812727D02*
X59528000Y-134955584D01*
X59528000Y-134955584D02*
X59528000Y-135098442D01*
X59528000Y-135098442D02*
X59456571Y-135312727D01*
X59456571Y-135312727D02*
X58599428Y-136169870D01*
X58599428Y-136169870D02*
X59528000Y-136169870D01*
X59956571Y-134669870D02*
X60456571Y-136169870D01*
X60456571Y-136169870D02*
X60956571Y-134669870D01*
X55670856Y-138584786D02*
X55670856Y-137084786D01*
X56385142Y-137584786D02*
X56385142Y-138584786D01*
X56385142Y-137727643D02*
X56456571Y-137656215D01*
X56456571Y-137656215D02*
X56599428Y-137584786D01*
X56599428Y-137584786D02*
X56813714Y-137584786D01*
X56813714Y-137584786D02*
X56956571Y-137656215D01*
X56956571Y-137656215D02*
X57028000Y-137799072D01*
X57028000Y-137799072D02*
X57028000Y-138584786D01*
X58813714Y-137013358D02*
X57528000Y-138941929D01*
X59599429Y-137084786D02*
X59885143Y-137084786D01*
X59885143Y-137084786D02*
X60028000Y-137156215D01*
X60028000Y-137156215D02*
X60170857Y-137299072D01*
X60170857Y-137299072D02*
X60242286Y-137584786D01*
X60242286Y-137584786D02*
X60242286Y-138084786D01*
X60242286Y-138084786D02*
X60170857Y-138370500D01*
X60170857Y-138370500D02*
X60028000Y-138513358D01*
X60028000Y-138513358D02*
X59885143Y-138584786D01*
X59885143Y-138584786D02*
X59599429Y-138584786D01*
X59599429Y-138584786D02*
X59456572Y-138513358D01*
X59456572Y-138513358D02*
X59313714Y-138370500D01*
X59313714Y-138370500D02*
X59242286Y-138084786D01*
X59242286Y-138084786D02*
X59242286Y-137584786D01*
X59242286Y-137584786D02*
X59313714Y-137299072D01*
X59313714Y-137299072D02*
X59456572Y-137156215D01*
X59456572Y-137156215D02*
X59599429Y-137084786D01*
X61528001Y-137584786D02*
X61528001Y-138584786D01*
X60885143Y-137584786D02*
X60885143Y-138370500D01*
X60885143Y-138370500D02*
X60956572Y-138513358D01*
X60956572Y-138513358D02*
X61099429Y-138584786D01*
X61099429Y-138584786D02*
X61313715Y-138584786D01*
X61313715Y-138584786D02*
X61456572Y-138513358D01*
X61456572Y-138513358D02*
X61528001Y-138441929D01*
X62028001Y-137584786D02*
X62599429Y-137584786D01*
X62242286Y-137084786D02*
X62242286Y-138370500D01*
X62242286Y-138370500D02*
X62313715Y-138513358D01*
X62313715Y-138513358D02*
X62456572Y-138584786D01*
X62456572Y-138584786D02*
X62599429Y-138584786D01*
X52741571Y-127280900D02*
X53884429Y-127280900D01*
X53313000Y-127852328D02*
X53313000Y-126709471D01*
X52741571Y-138710900D02*
X53884429Y-138710900D01*
X53313000Y-139282328D02*
X53313000Y-138139471D01*
X50836571Y-117120900D02*
X51979429Y-117120900D01*
X51408000Y-117692328D02*
X51408000Y-116549471D01*
X63690571Y-71988900D02*
X64833429Y-71988900D01*
X64262000Y-72560328D02*
X64262000Y-71417471D01*
X73850571Y-146410900D02*
X74993429Y-146410900D01*
X74422000Y-146982328D02*
X74422000Y-145839471D01*
X183070571Y-95864900D02*
X184213429Y-95864900D01*
X183642000Y-96436328D02*
X183642000Y-95293471D01*
X78776571Y-55525900D02*
X79919429Y-55525900D01*
X79348000Y-56097328D02*
X79348000Y-54954471D01*
X66334001Y-49167727D02*
X66405429Y-49096299D01*
X66405429Y-49096299D02*
X66548287Y-49024870D01*
X66548287Y-49024870D02*
X66905429Y-49024870D01*
X66905429Y-49024870D02*
X67048287Y-49096299D01*
X67048287Y-49096299D02*
X67119715Y-49167727D01*
X67119715Y-49167727D02*
X67191144Y-49310584D01*
X67191144Y-49310584D02*
X67191144Y-49453442D01*
X67191144Y-49453442D02*
X67119715Y-49667727D01*
X67119715Y-49667727D02*
X66262572Y-50524870D01*
X66262572Y-50524870D02*
X67191144Y-50524870D01*
X68476858Y-49524870D02*
X68476858Y-50524870D01*
X68119715Y-48953442D02*
X67762572Y-50024870D01*
X67762572Y-50024870D02*
X68691143Y-50024870D01*
X69548286Y-49024870D02*
X69691143Y-49024870D01*
X69691143Y-49024870D02*
X69834000Y-49096299D01*
X69834000Y-49096299D02*
X69905429Y-49167727D01*
X69905429Y-49167727D02*
X69976857Y-49310584D01*
X69976857Y-49310584D02*
X70048286Y-49596299D01*
X70048286Y-49596299D02*
X70048286Y-49953442D01*
X70048286Y-49953442D02*
X69976857Y-50239156D01*
X69976857Y-50239156D02*
X69905429Y-50382013D01*
X69905429Y-50382013D02*
X69834000Y-50453442D01*
X69834000Y-50453442D02*
X69691143Y-50524870D01*
X69691143Y-50524870D02*
X69548286Y-50524870D01*
X69548286Y-50524870D02*
X69405429Y-50453442D01*
X69405429Y-50453442D02*
X69334000Y-50382013D01*
X69334000Y-50382013D02*
X69262571Y-50239156D01*
X69262571Y-50239156D02*
X69191143Y-49953442D01*
X69191143Y-49953442D02*
X69191143Y-49596299D01*
X69191143Y-49596299D02*
X69262571Y-49310584D01*
X69262571Y-49310584D02*
X69334000Y-49167727D01*
X69334000Y-49167727D02*
X69405429Y-49096299D01*
X69405429Y-49096299D02*
X69548286Y-49024870D01*
X70476857Y-49024870D02*
X70976857Y-50524870D01*
X70976857Y-50524870D02*
X71476857Y-49024870D01*
X67584000Y-51439786D02*
X67869714Y-51439786D01*
X67869714Y-51439786D02*
X68012571Y-51511215D01*
X68012571Y-51511215D02*
X68155428Y-51654072D01*
X68155428Y-51654072D02*
X68226857Y-51939786D01*
X68226857Y-51939786D02*
X68226857Y-52439786D01*
X68226857Y-52439786D02*
X68155428Y-52725500D01*
X68155428Y-52725500D02*
X68012571Y-52868358D01*
X68012571Y-52868358D02*
X67869714Y-52939786D01*
X67869714Y-52939786D02*
X67584000Y-52939786D01*
X67584000Y-52939786D02*
X67441143Y-52868358D01*
X67441143Y-52868358D02*
X67298285Y-52725500D01*
X67298285Y-52725500D02*
X67226857Y-52439786D01*
X67226857Y-52439786D02*
X67226857Y-51939786D01*
X67226857Y-51939786D02*
X67298285Y-51654072D01*
X67298285Y-51654072D02*
X67441143Y-51511215D01*
X67441143Y-51511215D02*
X67584000Y-51439786D01*
X69512572Y-51939786D02*
X69512572Y-52939786D01*
X68869714Y-51939786D02*
X68869714Y-52725500D01*
X68869714Y-52725500D02*
X68941143Y-52868358D01*
X68941143Y-52868358D02*
X69084000Y-52939786D01*
X69084000Y-52939786D02*
X69298286Y-52939786D01*
X69298286Y-52939786D02*
X69441143Y-52868358D01*
X69441143Y-52868358D02*
X69512572Y-52796929D01*
X70012572Y-51939786D02*
X70584000Y-51939786D01*
X70226857Y-51439786D02*
X70226857Y-52725500D01*
X70226857Y-52725500D02*
X70298286Y-52868358D01*
X70298286Y-52868358D02*
X70441143Y-52939786D01*
X70441143Y-52939786D02*
X70584000Y-52939786D01*
X173562001Y-122876328D02*
X173276286Y-122876328D01*
X173276286Y-122876328D02*
X173133429Y-122947757D01*
X173133429Y-122947757D02*
X173062001Y-123019185D01*
X173062001Y-123019185D02*
X172919143Y-123233471D01*
X172919143Y-123233471D02*
X172847715Y-123519185D01*
X172847715Y-123519185D02*
X172847715Y-124090614D01*
X172847715Y-124090614D02*
X172919143Y-124233471D01*
X172919143Y-124233471D02*
X172990572Y-124304900D01*
X172990572Y-124304900D02*
X173133429Y-124376328D01*
X173133429Y-124376328D02*
X173419143Y-124376328D01*
X173419143Y-124376328D02*
X173562001Y-124304900D01*
X173562001Y-124304900D02*
X173633429Y-124233471D01*
X173633429Y-124233471D02*
X173704858Y-124090614D01*
X173704858Y-124090614D02*
X173704858Y-123733471D01*
X173704858Y-123733471D02*
X173633429Y-123590614D01*
X173633429Y-123590614D02*
X173562001Y-123519185D01*
X173562001Y-123519185D02*
X173419143Y-123447757D01*
X173419143Y-123447757D02*
X173133429Y-123447757D01*
X173133429Y-123447757D02*
X172990572Y-123519185D01*
X172990572Y-123519185D02*
X172919143Y-123590614D01*
X172919143Y-123590614D02*
X172847715Y-123733471D01*
X174419143Y-124304900D02*
X174419143Y-124376328D01*
X174419143Y-124376328D02*
X174347714Y-124519185D01*
X174347714Y-124519185D02*
X174276286Y-124590614D01*
X174919143Y-122876328D02*
X175847715Y-122876328D01*
X175847715Y-122876328D02*
X175347715Y-123447757D01*
X175347715Y-123447757D02*
X175562000Y-123447757D01*
X175562000Y-123447757D02*
X175704858Y-123519185D01*
X175704858Y-123519185D02*
X175776286Y-123590614D01*
X175776286Y-123590614D02*
X175847715Y-123733471D01*
X175847715Y-123733471D02*
X175847715Y-124090614D01*
X175847715Y-124090614D02*
X175776286Y-124233471D01*
X175776286Y-124233471D02*
X175704858Y-124304900D01*
X175704858Y-124304900D02*
X175562000Y-124376328D01*
X175562000Y-124376328D02*
X175133429Y-124376328D01*
X175133429Y-124376328D02*
X174990572Y-124304900D01*
X174990572Y-124304900D02*
X174919143Y-124233471D01*
X176276286Y-122876328D02*
X176776286Y-124376328D01*
X176776286Y-124376328D02*
X177276286Y-122876328D01*
X178847714Y-123947757D02*
X179562000Y-123947757D01*
X178704857Y-124376328D02*
X179204857Y-122876328D01*
X179204857Y-122876328D02*
X179704857Y-124376328D01*
X181061999Y-124233471D02*
X180990571Y-124304900D01*
X180990571Y-124304900D02*
X180776285Y-124376328D01*
X180776285Y-124376328D02*
X180633428Y-124376328D01*
X180633428Y-124376328D02*
X180419142Y-124304900D01*
X180419142Y-124304900D02*
X180276285Y-124162042D01*
X180276285Y-124162042D02*
X180204856Y-124019185D01*
X180204856Y-124019185D02*
X180133428Y-123733471D01*
X180133428Y-123733471D02*
X180133428Y-123519185D01*
X180133428Y-123519185D02*
X180204856Y-123233471D01*
X180204856Y-123233471D02*
X180276285Y-123090614D01*
X180276285Y-123090614D02*
X180419142Y-122947757D01*
X180419142Y-122947757D02*
X180633428Y-122876328D01*
X180633428Y-122876328D02*
X180776285Y-122876328D01*
X180776285Y-122876328D02*
X180990571Y-122947757D01*
X180990571Y-122947757D02*
X181061999Y-123019185D01*
X182847713Y-124376328D02*
X182847713Y-122876328D01*
X183561999Y-123376328D02*
X183561999Y-124376328D01*
X183561999Y-123519185D02*
X183633428Y-123447757D01*
X183633428Y-123447757D02*
X183776285Y-123376328D01*
X183776285Y-123376328D02*
X183990571Y-123376328D01*
X183990571Y-123376328D02*
X184133428Y-123447757D01*
X184133428Y-123447757D02*
X184204857Y-123590614D01*
X184204857Y-123590614D02*
X184204857Y-124376328D01*
X48658000Y-100816299D02*
X49372286Y-100816299D01*
X48515143Y-101244870D02*
X49015143Y-99744870D01*
X49015143Y-99744870D02*
X49515143Y-101244870D01*
X50658000Y-100244870D02*
X50658000Y-101244870D01*
X50015142Y-100244870D02*
X50015142Y-101030584D01*
X50015142Y-101030584D02*
X50086571Y-101173442D01*
X50086571Y-101173442D02*
X50229428Y-101244870D01*
X50229428Y-101244870D02*
X50443714Y-101244870D01*
X50443714Y-101244870D02*
X50586571Y-101173442D01*
X50586571Y-101173442D02*
X50658000Y-101102013D01*
X52015143Y-101244870D02*
X52015143Y-99744870D01*
X52015143Y-101173442D02*
X51872285Y-101244870D01*
X51872285Y-101244870D02*
X51586571Y-101244870D01*
X51586571Y-101244870D02*
X51443714Y-101173442D01*
X51443714Y-101173442D02*
X51372285Y-101102013D01*
X51372285Y-101102013D02*
X51300857Y-100959156D01*
X51300857Y-100959156D02*
X51300857Y-100530584D01*
X51300857Y-100530584D02*
X51372285Y-100387727D01*
X51372285Y-100387727D02*
X51443714Y-100316299D01*
X51443714Y-100316299D02*
X51586571Y-100244870D01*
X51586571Y-100244870D02*
X51872285Y-100244870D01*
X51872285Y-100244870D02*
X52015143Y-100316299D01*
X52729428Y-101244870D02*
X52729428Y-100244870D01*
X52729428Y-99744870D02*
X52658000Y-99816299D01*
X52658000Y-99816299D02*
X52729428Y-99887727D01*
X52729428Y-99887727D02*
X52800857Y-99816299D01*
X52800857Y-99816299D02*
X52729428Y-99744870D01*
X52729428Y-99744870D02*
X52729428Y-99887727D01*
X53658000Y-101244870D02*
X53515143Y-101173442D01*
X53515143Y-101173442D02*
X53443714Y-101102013D01*
X53443714Y-101102013D02*
X53372286Y-100959156D01*
X53372286Y-100959156D02*
X53372286Y-100530584D01*
X53372286Y-100530584D02*
X53443714Y-100387727D01*
X53443714Y-100387727D02*
X53515143Y-100316299D01*
X53515143Y-100316299D02*
X53658000Y-100244870D01*
X53658000Y-100244870D02*
X53872286Y-100244870D01*
X53872286Y-100244870D02*
X54015143Y-100316299D01*
X54015143Y-100316299D02*
X54086572Y-100387727D01*
X54086572Y-100387727D02*
X54158000Y-100530584D01*
X54158000Y-100530584D02*
X54158000Y-100959156D01*
X54158000Y-100959156D02*
X54086572Y-101102013D01*
X54086572Y-101102013D02*
X54015143Y-101173442D01*
X54015143Y-101173442D02*
X53872286Y-101244870D01*
X53872286Y-101244870D02*
X53658000Y-101244870D01*
X50729428Y-103659786D02*
X50729428Y-102159786D01*
X51443714Y-102659786D02*
X51443714Y-103659786D01*
X51443714Y-102802643D02*
X51515143Y-102731215D01*
X51515143Y-102731215D02*
X51658000Y-102659786D01*
X51658000Y-102659786D02*
X51872286Y-102659786D01*
X51872286Y-102659786D02*
X52015143Y-102731215D01*
X52015143Y-102731215D02*
X52086572Y-102874072D01*
X52086572Y-102874072D02*
X52086572Y-103659786D01*
X105604328Y-123725142D02*
X105604328Y-124010856D01*
X105604328Y-124010856D02*
X105675757Y-124153713D01*
X105675757Y-124153713D02*
X105747185Y-124225142D01*
X105747185Y-124225142D02*
X105961471Y-124367999D01*
X105961471Y-124367999D02*
X106247185Y-124439427D01*
X106247185Y-124439427D02*
X106818614Y-124439427D01*
X106818614Y-124439427D02*
X106961471Y-124367999D01*
X106961471Y-124367999D02*
X107032900Y-124296570D01*
X107032900Y-124296570D02*
X107104328Y-124153713D01*
X107104328Y-124153713D02*
X107104328Y-123867999D01*
X107104328Y-123867999D02*
X107032900Y-123725142D01*
X107032900Y-123725142D02*
X106961471Y-123653713D01*
X106961471Y-123653713D02*
X106818614Y-123582284D01*
X106818614Y-123582284D02*
X106461471Y-123582284D01*
X106461471Y-123582284D02*
X106318614Y-123653713D01*
X106318614Y-123653713D02*
X106247185Y-123725142D01*
X106247185Y-123725142D02*
X106175757Y-123867999D01*
X106175757Y-123867999D02*
X106175757Y-124153713D01*
X106175757Y-124153713D02*
X106247185Y-124296570D01*
X106247185Y-124296570D02*
X106318614Y-124367999D01*
X106318614Y-124367999D02*
X106461471Y-124439427D01*
X107032900Y-122867999D02*
X107104328Y-122867999D01*
X107104328Y-122867999D02*
X107247185Y-122939428D01*
X107247185Y-122939428D02*
X107318614Y-123010856D01*
X105604328Y-122367999D02*
X105604328Y-121439427D01*
X105604328Y-121439427D02*
X106175757Y-121939427D01*
X106175757Y-121939427D02*
X106175757Y-121725142D01*
X106175757Y-121725142D02*
X106247185Y-121582285D01*
X106247185Y-121582285D02*
X106318614Y-121510856D01*
X106318614Y-121510856D02*
X106461471Y-121439427D01*
X106461471Y-121439427D02*
X106818614Y-121439427D01*
X106818614Y-121439427D02*
X106961471Y-121510856D01*
X106961471Y-121510856D02*
X107032900Y-121582285D01*
X107032900Y-121582285D02*
X107104328Y-121725142D01*
X107104328Y-121725142D02*
X107104328Y-122153713D01*
X107104328Y-122153713D02*
X107032900Y-122296570D01*
X107032900Y-122296570D02*
X106961471Y-122367999D01*
X105604328Y-121010856D02*
X107104328Y-120510856D01*
X107104328Y-120510856D02*
X105604328Y-120010856D01*
X107104328Y-118368000D02*
X105604328Y-118368000D01*
X105604328Y-118368000D02*
X105604328Y-118010857D01*
X105604328Y-118010857D02*
X105675757Y-117796571D01*
X105675757Y-117796571D02*
X105818614Y-117653714D01*
X105818614Y-117653714D02*
X105961471Y-117582285D01*
X105961471Y-117582285D02*
X106247185Y-117510857D01*
X106247185Y-117510857D02*
X106461471Y-117510857D01*
X106461471Y-117510857D02*
X106747185Y-117582285D01*
X106747185Y-117582285D02*
X106890042Y-117653714D01*
X106890042Y-117653714D02*
X107032900Y-117796571D01*
X107032900Y-117796571D02*
X107104328Y-118010857D01*
X107104328Y-118010857D02*
X107104328Y-118368000D01*
X106961471Y-116010857D02*
X107032900Y-116082285D01*
X107032900Y-116082285D02*
X107104328Y-116296571D01*
X107104328Y-116296571D02*
X107104328Y-116439428D01*
X107104328Y-116439428D02*
X107032900Y-116653714D01*
X107032900Y-116653714D02*
X106890042Y-116796571D01*
X106890042Y-116796571D02*
X106747185Y-116868000D01*
X106747185Y-116868000D02*
X106461471Y-116939428D01*
X106461471Y-116939428D02*
X106247185Y-116939428D01*
X106247185Y-116939428D02*
X105961471Y-116868000D01*
X105961471Y-116868000D02*
X105818614Y-116796571D01*
X105818614Y-116796571D02*
X105675757Y-116653714D01*
X105675757Y-116653714D02*
X105604328Y-116439428D01*
X105604328Y-116439428D02*
X105604328Y-116296571D01*
X105604328Y-116296571D02*
X105675757Y-116082285D01*
X105675757Y-116082285D02*
X105747185Y-116010857D01*
X107104328Y-114225143D02*
X105604328Y-114225143D01*
X106104328Y-113510857D02*
X107104328Y-113510857D01*
X106247185Y-113510857D02*
X106175757Y-113439428D01*
X106175757Y-113439428D02*
X106104328Y-113296571D01*
X106104328Y-113296571D02*
X106104328Y-113082285D01*
X106104328Y-113082285D02*
X106175757Y-112939428D01*
X106175757Y-112939428D02*
X106318614Y-112868000D01*
X106318614Y-112868000D02*
X107104328Y-112868000D01*
X194632286Y-105666870D02*
X195489429Y-105666870D01*
X195060857Y-107166870D02*
X195060857Y-105666870D01*
X195989428Y-107166870D02*
X195989428Y-106166870D01*
X195989428Y-106452584D02*
X196060857Y-106309727D01*
X196060857Y-106309727D02*
X196132286Y-106238299D01*
X196132286Y-106238299D02*
X196275143Y-106166870D01*
X196275143Y-106166870D02*
X196418000Y-106166870D01*
X197560857Y-107166870D02*
X197560857Y-106381156D01*
X197560857Y-106381156D02*
X197489428Y-106238299D01*
X197489428Y-106238299D02*
X197346571Y-106166870D01*
X197346571Y-106166870D02*
X197060857Y-106166870D01*
X197060857Y-106166870D02*
X196917999Y-106238299D01*
X197560857Y-107095442D02*
X197417999Y-107166870D01*
X197417999Y-107166870D02*
X197060857Y-107166870D01*
X197060857Y-107166870D02*
X196917999Y-107095442D01*
X196917999Y-107095442D02*
X196846571Y-106952584D01*
X196846571Y-106952584D02*
X196846571Y-106809727D01*
X196846571Y-106809727D02*
X196917999Y-106666870D01*
X196917999Y-106666870D02*
X197060857Y-106595442D01*
X197060857Y-106595442D02*
X197417999Y-106595442D01*
X197417999Y-106595442D02*
X197560857Y-106524013D01*
X198275142Y-106166870D02*
X198275142Y-107166870D01*
X198275142Y-106309727D02*
X198346571Y-106238299D01*
X198346571Y-106238299D02*
X198489428Y-106166870D01*
X198489428Y-106166870D02*
X198703714Y-106166870D01*
X198703714Y-106166870D02*
X198846571Y-106238299D01*
X198846571Y-106238299D02*
X198918000Y-106381156D01*
X198918000Y-106381156D02*
X198918000Y-107166870D01*
X199560857Y-107095442D02*
X199703714Y-107166870D01*
X199703714Y-107166870D02*
X199989428Y-107166870D01*
X199989428Y-107166870D02*
X200132285Y-107095442D01*
X200132285Y-107095442D02*
X200203714Y-106952584D01*
X200203714Y-106952584D02*
X200203714Y-106881156D01*
X200203714Y-106881156D02*
X200132285Y-106738299D01*
X200132285Y-106738299D02*
X199989428Y-106666870D01*
X199989428Y-106666870D02*
X199775143Y-106666870D01*
X199775143Y-106666870D02*
X199632285Y-106595442D01*
X199632285Y-106595442D02*
X199560857Y-106452584D01*
X199560857Y-106452584D02*
X199560857Y-106381156D01*
X199560857Y-106381156D02*
X199632285Y-106238299D01*
X199632285Y-106238299D02*
X199775143Y-106166870D01*
X199775143Y-106166870D02*
X199989428Y-106166870D01*
X199989428Y-106166870D02*
X200132285Y-106238299D01*
X200632286Y-106166870D02*
X201203714Y-106166870D01*
X200846571Y-107166870D02*
X200846571Y-105881156D01*
X200846571Y-105881156D02*
X200918000Y-105738299D01*
X200918000Y-105738299D02*
X201060857Y-105666870D01*
X201060857Y-105666870D02*
X201203714Y-105666870D01*
X201918000Y-107166870D02*
X201775143Y-107095442D01*
X201775143Y-107095442D02*
X201703714Y-107024013D01*
X201703714Y-107024013D02*
X201632286Y-106881156D01*
X201632286Y-106881156D02*
X201632286Y-106452584D01*
X201632286Y-106452584D02*
X201703714Y-106309727D01*
X201703714Y-106309727D02*
X201775143Y-106238299D01*
X201775143Y-106238299D02*
X201918000Y-106166870D01*
X201918000Y-106166870D02*
X202132286Y-106166870D01*
X202132286Y-106166870D02*
X202275143Y-106238299D01*
X202275143Y-106238299D02*
X202346572Y-106309727D01*
X202346572Y-106309727D02*
X202418000Y-106452584D01*
X202418000Y-106452584D02*
X202418000Y-106881156D01*
X202418000Y-106881156D02*
X202346572Y-107024013D01*
X202346572Y-107024013D02*
X202275143Y-107095442D01*
X202275143Y-107095442D02*
X202132286Y-107166870D01*
X202132286Y-107166870D02*
X201918000Y-107166870D01*
X203060857Y-107166870D02*
X203060857Y-106166870D01*
X203060857Y-106452584D02*
X203132286Y-106309727D01*
X203132286Y-106309727D02*
X203203715Y-106238299D01*
X203203715Y-106238299D02*
X203346572Y-106166870D01*
X203346572Y-106166870D02*
X203489429Y-106166870D01*
X203989428Y-107166870D02*
X203989428Y-106166870D01*
X203989428Y-106309727D02*
X204060857Y-106238299D01*
X204060857Y-106238299D02*
X204203714Y-106166870D01*
X204203714Y-106166870D02*
X204418000Y-106166870D01*
X204418000Y-106166870D02*
X204560857Y-106238299D01*
X204560857Y-106238299D02*
X204632286Y-106381156D01*
X204632286Y-106381156D02*
X204632286Y-107166870D01*
X204632286Y-106381156D02*
X204703714Y-106238299D01*
X204703714Y-106238299D02*
X204846571Y-106166870D01*
X204846571Y-106166870D02*
X205060857Y-106166870D01*
X205060857Y-106166870D02*
X205203714Y-106238299D01*
X205203714Y-106238299D02*
X205275143Y-106381156D01*
X205275143Y-106381156D02*
X205275143Y-107166870D01*
X206560857Y-107095442D02*
X206418000Y-107166870D01*
X206418000Y-107166870D02*
X206132286Y-107166870D01*
X206132286Y-107166870D02*
X205989428Y-107095442D01*
X205989428Y-107095442D02*
X205918000Y-106952584D01*
X205918000Y-106952584D02*
X205918000Y-106381156D01*
X205918000Y-106381156D02*
X205989428Y-106238299D01*
X205989428Y-106238299D02*
X206132286Y-106166870D01*
X206132286Y-106166870D02*
X206418000Y-106166870D01*
X206418000Y-106166870D02*
X206560857Y-106238299D01*
X206560857Y-106238299D02*
X206632286Y-106381156D01*
X206632286Y-106381156D02*
X206632286Y-106524013D01*
X206632286Y-106524013D02*
X205918000Y-106666870D01*
X207275142Y-107166870D02*
X207275142Y-106166870D01*
X207275142Y-106452584D02*
X207346571Y-106309727D01*
X207346571Y-106309727D02*
X207418000Y-106238299D01*
X207418000Y-106238299D02*
X207560857Y-106166870D01*
X207560857Y-106166870D02*
X207703714Y-106166870D01*
X199918000Y-108081786D02*
X200203714Y-108081786D01*
X200203714Y-108081786D02*
X200346571Y-108153215D01*
X200346571Y-108153215D02*
X200489428Y-108296072D01*
X200489428Y-108296072D02*
X200560857Y-108581786D01*
X200560857Y-108581786D02*
X200560857Y-109081786D01*
X200560857Y-109081786D02*
X200489428Y-109367500D01*
X200489428Y-109367500D02*
X200346571Y-109510358D01*
X200346571Y-109510358D02*
X200203714Y-109581786D01*
X200203714Y-109581786D02*
X199918000Y-109581786D01*
X199918000Y-109581786D02*
X199775143Y-109510358D01*
X199775143Y-109510358D02*
X199632285Y-109367500D01*
X199632285Y-109367500D02*
X199560857Y-109081786D01*
X199560857Y-109081786D02*
X199560857Y-108581786D01*
X199560857Y-108581786D02*
X199632285Y-108296072D01*
X199632285Y-108296072D02*
X199775143Y-108153215D01*
X199775143Y-108153215D02*
X199918000Y-108081786D01*
X201846572Y-108581786D02*
X201846572Y-109581786D01*
X201203714Y-108581786D02*
X201203714Y-109367500D01*
X201203714Y-109367500D02*
X201275143Y-109510358D01*
X201275143Y-109510358D02*
X201418000Y-109581786D01*
X201418000Y-109581786D02*
X201632286Y-109581786D01*
X201632286Y-109581786D02*
X201775143Y-109510358D01*
X201775143Y-109510358D02*
X201846572Y-109438929D01*
X202346572Y-108581786D02*
X202918000Y-108581786D01*
X202560857Y-108081786D02*
X202560857Y-109367500D01*
X202560857Y-109367500D02*
X202632286Y-109510358D01*
X202632286Y-109510358D02*
X202775143Y-109581786D01*
X202775143Y-109581786D02*
X202918000Y-109581786D01*
X88182286Y-46580900D02*
X88396572Y-46652328D01*
X88396572Y-46652328D02*
X88753714Y-46652328D01*
X88753714Y-46652328D02*
X88896572Y-46580900D01*
X88896572Y-46580900D02*
X88968000Y-46509471D01*
X88968000Y-46509471D02*
X89039429Y-46366614D01*
X89039429Y-46366614D02*
X89039429Y-46223757D01*
X89039429Y-46223757D02*
X88968000Y-46080900D01*
X88968000Y-46080900D02*
X88896572Y-46009471D01*
X88896572Y-46009471D02*
X88753714Y-45938042D01*
X88753714Y-45938042D02*
X88468000Y-45866614D01*
X88468000Y-45866614D02*
X88325143Y-45795185D01*
X88325143Y-45795185D02*
X88253714Y-45723757D01*
X88253714Y-45723757D02*
X88182286Y-45580900D01*
X88182286Y-45580900D02*
X88182286Y-45438042D01*
X88182286Y-45438042D02*
X88253714Y-45295185D01*
X88253714Y-45295185D02*
X88325143Y-45223757D01*
X88325143Y-45223757D02*
X88468000Y-45152328D01*
X88468000Y-45152328D02*
X88825143Y-45152328D01*
X88825143Y-45152328D02*
X89039429Y-45223757D01*
X90325143Y-45652328D02*
X90325143Y-46652328D01*
X89682285Y-45652328D02*
X89682285Y-46438042D01*
X89682285Y-46438042D02*
X89753714Y-46580900D01*
X89753714Y-46580900D02*
X89896571Y-46652328D01*
X89896571Y-46652328D02*
X90110857Y-46652328D01*
X90110857Y-46652328D02*
X90253714Y-46580900D01*
X90253714Y-46580900D02*
X90325143Y-46509471D01*
X91039428Y-45652328D02*
X91039428Y-47152328D01*
X91039428Y-45723757D02*
X91182286Y-45652328D01*
X91182286Y-45652328D02*
X91468000Y-45652328D01*
X91468000Y-45652328D02*
X91610857Y-45723757D01*
X91610857Y-45723757D02*
X91682286Y-45795185D01*
X91682286Y-45795185D02*
X91753714Y-45938042D01*
X91753714Y-45938042D02*
X91753714Y-46366614D01*
X91753714Y-46366614D02*
X91682286Y-46509471D01*
X91682286Y-46509471D02*
X91610857Y-46580900D01*
X91610857Y-46580900D02*
X91468000Y-46652328D01*
X91468000Y-46652328D02*
X91182286Y-46652328D01*
X91182286Y-46652328D02*
X91039428Y-46580900D01*
X92396571Y-45652328D02*
X92396571Y-47152328D01*
X92396571Y-45723757D02*
X92539429Y-45652328D01*
X92539429Y-45652328D02*
X92825143Y-45652328D01*
X92825143Y-45652328D02*
X92968000Y-45723757D01*
X92968000Y-45723757D02*
X93039429Y-45795185D01*
X93039429Y-45795185D02*
X93110857Y-45938042D01*
X93110857Y-45938042D02*
X93110857Y-46366614D01*
X93110857Y-46366614D02*
X93039429Y-46509471D01*
X93039429Y-46509471D02*
X92968000Y-46580900D01*
X92968000Y-46580900D02*
X92825143Y-46652328D01*
X92825143Y-46652328D02*
X92539429Y-46652328D01*
X92539429Y-46652328D02*
X92396571Y-46580900D01*
X93968000Y-46652328D02*
X93825143Y-46580900D01*
X93825143Y-46580900D02*
X93753714Y-46438042D01*
X93753714Y-46438042D02*
X93753714Y-45152328D01*
X94396571Y-45652328D02*
X94753714Y-46652328D01*
X95110857Y-45652328D02*
X94753714Y-46652328D01*
X94753714Y-46652328D02*
X94610857Y-47009471D01*
X94610857Y-47009471D02*
X94539428Y-47080900D01*
X94539428Y-47080900D02*
X94396571Y-47152328D01*
X96825142Y-46652328D02*
X96825142Y-45152328D01*
X97539428Y-45652328D02*
X97539428Y-46652328D01*
X97539428Y-45795185D02*
X97610857Y-45723757D01*
X97610857Y-45723757D02*
X97753714Y-45652328D01*
X97753714Y-45652328D02*
X97968000Y-45652328D01*
X97968000Y-45652328D02*
X98110857Y-45723757D01*
X98110857Y-45723757D02*
X98182286Y-45866614D01*
X98182286Y-45866614D02*
X98182286Y-46652328D01*
X145482328Y-108211428D02*
X145482328Y-107354286D01*
X146982328Y-107782857D02*
X145482328Y-107782857D01*
X146982328Y-106640000D02*
X146910900Y-106782857D01*
X146910900Y-106782857D02*
X146839471Y-106854286D01*
X146839471Y-106854286D02*
X146696614Y-106925714D01*
X146696614Y-106925714D02*
X146268042Y-106925714D01*
X146268042Y-106925714D02*
X146125185Y-106854286D01*
X146125185Y-106854286D02*
X146053757Y-106782857D01*
X146053757Y-106782857D02*
X145982328Y-106640000D01*
X145982328Y-106640000D02*
X145982328Y-106425714D01*
X145982328Y-106425714D02*
X146053757Y-106282857D01*
X146053757Y-106282857D02*
X146125185Y-106211429D01*
X146125185Y-106211429D02*
X146268042Y-106140000D01*
X146268042Y-106140000D02*
X146696614Y-106140000D01*
X146696614Y-106140000D02*
X146839471Y-106211429D01*
X146839471Y-106211429D02*
X146910900Y-106282857D01*
X146910900Y-106282857D02*
X146982328Y-106425714D01*
X146982328Y-106425714D02*
X146982328Y-106640000D01*
X146196614Y-103854286D02*
X146268042Y-103640000D01*
X146268042Y-103640000D02*
X146339471Y-103568571D01*
X146339471Y-103568571D02*
X146482328Y-103497143D01*
X146482328Y-103497143D02*
X146696614Y-103497143D01*
X146696614Y-103497143D02*
X146839471Y-103568571D01*
X146839471Y-103568571D02*
X146910900Y-103640000D01*
X146910900Y-103640000D02*
X146982328Y-103782857D01*
X146982328Y-103782857D02*
X146982328Y-104354286D01*
X146982328Y-104354286D02*
X145482328Y-104354286D01*
X145482328Y-104354286D02*
X145482328Y-103854286D01*
X145482328Y-103854286D02*
X145553757Y-103711429D01*
X145553757Y-103711429D02*
X145625185Y-103640000D01*
X145625185Y-103640000D02*
X145768042Y-103568571D01*
X145768042Y-103568571D02*
X145910900Y-103568571D01*
X145910900Y-103568571D02*
X146053757Y-103640000D01*
X146053757Y-103640000D02*
X146125185Y-103711429D01*
X146125185Y-103711429D02*
X146196614Y-103854286D01*
X146196614Y-103854286D02*
X146196614Y-104354286D01*
X146982328Y-102854286D02*
X145982328Y-102854286D01*
X145482328Y-102854286D02*
X145553757Y-102925714D01*
X145553757Y-102925714D02*
X145625185Y-102854286D01*
X145625185Y-102854286D02*
X145553757Y-102782857D01*
X145553757Y-102782857D02*
X145482328Y-102854286D01*
X145482328Y-102854286D02*
X145625185Y-102854286D01*
X146982328Y-101497143D02*
X146196614Y-101497143D01*
X146196614Y-101497143D02*
X146053757Y-101568571D01*
X146053757Y-101568571D02*
X145982328Y-101711428D01*
X145982328Y-101711428D02*
X145982328Y-101997143D01*
X145982328Y-101997143D02*
X146053757Y-102140000D01*
X146910900Y-101497143D02*
X146982328Y-101640000D01*
X146982328Y-101640000D02*
X146982328Y-101997143D01*
X146982328Y-101997143D02*
X146910900Y-102140000D01*
X146910900Y-102140000D02*
X146768042Y-102211428D01*
X146768042Y-102211428D02*
X146625185Y-102211428D01*
X146625185Y-102211428D02*
X146482328Y-102140000D01*
X146482328Y-102140000D02*
X146410900Y-101997143D01*
X146410900Y-101997143D02*
X146410900Y-101640000D01*
X146410900Y-101640000D02*
X146339471Y-101497143D01*
X146910900Y-100854285D02*
X146982328Y-100711428D01*
X146982328Y-100711428D02*
X146982328Y-100425714D01*
X146982328Y-100425714D02*
X146910900Y-100282857D01*
X146910900Y-100282857D02*
X146768042Y-100211428D01*
X146768042Y-100211428D02*
X146696614Y-100211428D01*
X146696614Y-100211428D02*
X146553757Y-100282857D01*
X146553757Y-100282857D02*
X146482328Y-100425714D01*
X146482328Y-100425714D02*
X146482328Y-100640000D01*
X146482328Y-100640000D02*
X146410900Y-100782857D01*
X146410900Y-100782857D02*
X146268042Y-100854285D01*
X146268042Y-100854285D02*
X146196614Y-100854285D01*
X146196614Y-100854285D02*
X146053757Y-100782857D01*
X146053757Y-100782857D02*
X145982328Y-100640000D01*
X145982328Y-100640000D02*
X145982328Y-100425714D01*
X145982328Y-100425714D02*
X146053757Y-100282857D01*
D11*
X73807333Y-124505580D02*
X73759714Y-124553200D01*
X73759714Y-124553200D02*
X73616857Y-124600819D01*
X73616857Y-124600819D02*
X73521619Y-124600819D01*
X73521619Y-124600819D02*
X73378762Y-124553200D01*
X73378762Y-124553200D02*
X73283524Y-124457961D01*
X73283524Y-124457961D02*
X73235905Y-124362723D01*
X73235905Y-124362723D02*
X73188286Y-124172247D01*
X73188286Y-124172247D02*
X73188286Y-124029390D01*
X73188286Y-124029390D02*
X73235905Y-123838914D01*
X73235905Y-123838914D02*
X73283524Y-123743676D01*
X73283524Y-123743676D02*
X73378762Y-123648438D01*
X73378762Y-123648438D02*
X73521619Y-123600819D01*
X73521619Y-123600819D02*
X73616857Y-123600819D01*
X73616857Y-123600819D02*
X73759714Y-123648438D01*
X73759714Y-123648438D02*
X73807333Y-123696057D01*
X74664476Y-123600819D02*
X74474000Y-123600819D01*
X74474000Y-123600819D02*
X74378762Y-123648438D01*
X74378762Y-123648438D02*
X74331143Y-123696057D01*
X74331143Y-123696057D02*
X74235905Y-123838914D01*
X74235905Y-123838914D02*
X74188286Y-124029390D01*
X74188286Y-124029390D02*
X74188286Y-124410342D01*
X74188286Y-124410342D02*
X74235905Y-124505580D01*
X74235905Y-124505580D02*
X74283524Y-124553200D01*
X74283524Y-124553200D02*
X74378762Y-124600819D01*
X74378762Y-124600819D02*
X74569238Y-124600819D01*
X74569238Y-124600819D02*
X74664476Y-124553200D01*
X74664476Y-124553200D02*
X74712095Y-124505580D01*
X74712095Y-124505580D02*
X74759714Y-124410342D01*
X74759714Y-124410342D02*
X74759714Y-124172247D01*
X74759714Y-124172247D02*
X74712095Y-124077009D01*
X74712095Y-124077009D02*
X74664476Y-124029390D01*
X74664476Y-124029390D02*
X74569238Y-123981771D01*
X74569238Y-123981771D02*
X74378762Y-123981771D01*
X74378762Y-123981771D02*
X74283524Y-124029390D01*
X74283524Y-124029390D02*
X74235905Y-124077009D01*
X74235905Y-124077009D02*
X74188286Y-124172247D01*
X135074819Y-129198666D02*
X134598628Y-129531999D01*
X135074819Y-129770094D02*
X134074819Y-129770094D01*
X134074819Y-129770094D02*
X134074819Y-129389142D01*
X134074819Y-129389142D02*
X134122438Y-129293904D01*
X134122438Y-129293904D02*
X134170057Y-129246285D01*
X134170057Y-129246285D02*
X134265295Y-129198666D01*
X134265295Y-129198666D02*
X134408152Y-129198666D01*
X134408152Y-129198666D02*
X134503390Y-129246285D01*
X134503390Y-129246285D02*
X134551009Y-129293904D01*
X134551009Y-129293904D02*
X134598628Y-129389142D01*
X134598628Y-129389142D02*
X134598628Y-129770094D01*
X135074819Y-128246285D02*
X135074819Y-128817713D01*
X135074819Y-128531999D02*
X134074819Y-128531999D01*
X134074819Y-128531999D02*
X134217676Y-128627237D01*
X134217676Y-128627237D02*
X134312914Y-128722475D01*
X134312914Y-128722475D02*
X134360533Y-128817713D01*
X148960819Y-69508666D02*
X148484628Y-69841999D01*
X148960819Y-70080094D02*
X147960819Y-70080094D01*
X147960819Y-70080094D02*
X147960819Y-69699142D01*
X147960819Y-69699142D02*
X148008438Y-69603904D01*
X148008438Y-69603904D02*
X148056057Y-69556285D01*
X148056057Y-69556285D02*
X148151295Y-69508666D01*
X148151295Y-69508666D02*
X148294152Y-69508666D01*
X148294152Y-69508666D02*
X148389390Y-69556285D01*
X148389390Y-69556285D02*
X148437009Y-69603904D01*
X148437009Y-69603904D02*
X148484628Y-69699142D01*
X148484628Y-69699142D02*
X148484628Y-70080094D01*
X148056057Y-69127713D02*
X148008438Y-69080094D01*
X148008438Y-69080094D02*
X147960819Y-68984856D01*
X147960819Y-68984856D02*
X147960819Y-68746761D01*
X147960819Y-68746761D02*
X148008438Y-68651523D01*
X148008438Y-68651523D02*
X148056057Y-68603904D01*
X148056057Y-68603904D02*
X148151295Y-68556285D01*
X148151295Y-68556285D02*
X148246533Y-68556285D01*
X148246533Y-68556285D02*
X148389390Y-68603904D01*
X148389390Y-68603904D02*
X148960819Y-69175332D01*
X148960819Y-69175332D02*
X148960819Y-68556285D01*
X70685819Y-102655666D02*
X70209628Y-102988999D01*
X70685819Y-103227094D02*
X69685819Y-103227094D01*
X69685819Y-103227094D02*
X69685819Y-102846142D01*
X69685819Y-102846142D02*
X69733438Y-102750904D01*
X69733438Y-102750904D02*
X69781057Y-102703285D01*
X69781057Y-102703285D02*
X69876295Y-102655666D01*
X69876295Y-102655666D02*
X70019152Y-102655666D01*
X70019152Y-102655666D02*
X70114390Y-102703285D01*
X70114390Y-102703285D02*
X70162009Y-102750904D01*
X70162009Y-102750904D02*
X70209628Y-102846142D01*
X70209628Y-102846142D02*
X70209628Y-103227094D01*
X69685819Y-102322332D02*
X69685819Y-101703285D01*
X69685819Y-101703285D02*
X70066771Y-102036618D01*
X70066771Y-102036618D02*
X70066771Y-101893761D01*
X70066771Y-101893761D02*
X70114390Y-101798523D01*
X70114390Y-101798523D02*
X70162009Y-101750904D01*
X70162009Y-101750904D02*
X70257247Y-101703285D01*
X70257247Y-101703285D02*
X70495342Y-101703285D01*
X70495342Y-101703285D02*
X70590580Y-101750904D01*
X70590580Y-101750904D02*
X70638200Y-101798523D01*
X70638200Y-101798523D02*
X70685819Y-101893761D01*
X70685819Y-101893761D02*
X70685819Y-102179475D01*
X70685819Y-102179475D02*
X70638200Y-102274713D01*
X70638200Y-102274713D02*
X70590580Y-102322332D01*
X66748819Y-129198666D02*
X66272628Y-129531999D01*
X66748819Y-129770094D02*
X65748819Y-129770094D01*
X65748819Y-129770094D02*
X65748819Y-129389142D01*
X65748819Y-129389142D02*
X65796438Y-129293904D01*
X65796438Y-129293904D02*
X65844057Y-129246285D01*
X65844057Y-129246285D02*
X65939295Y-129198666D01*
X65939295Y-129198666D02*
X66082152Y-129198666D01*
X66082152Y-129198666D02*
X66177390Y-129246285D01*
X66177390Y-129246285D02*
X66225009Y-129293904D01*
X66225009Y-129293904D02*
X66272628Y-129389142D01*
X66272628Y-129389142D02*
X66272628Y-129770094D01*
X65748819Y-128341523D02*
X65748819Y-128531999D01*
X65748819Y-128531999D02*
X65796438Y-128627237D01*
X65796438Y-128627237D02*
X65844057Y-128674856D01*
X65844057Y-128674856D02*
X65986914Y-128770094D01*
X65986914Y-128770094D02*
X66177390Y-128817713D01*
X66177390Y-128817713D02*
X66558342Y-128817713D01*
X66558342Y-128817713D02*
X66653580Y-128770094D01*
X66653580Y-128770094D02*
X66701200Y-128722475D01*
X66701200Y-128722475D02*
X66748819Y-128627237D01*
X66748819Y-128627237D02*
X66748819Y-128436761D01*
X66748819Y-128436761D02*
X66701200Y-128341523D01*
X66701200Y-128341523D02*
X66653580Y-128293904D01*
X66653580Y-128293904D02*
X66558342Y-128246285D01*
X66558342Y-128246285D02*
X66320247Y-128246285D01*
X66320247Y-128246285D02*
X66225009Y-128293904D01*
X66225009Y-128293904D02*
X66177390Y-128341523D01*
X66177390Y-128341523D02*
X66129771Y-128436761D01*
X66129771Y-128436761D02*
X66129771Y-128627237D01*
X66129771Y-128627237D02*
X66177390Y-128722475D01*
X66177390Y-128722475D02*
X66225009Y-128770094D01*
X66225009Y-128770094D02*
X66320247Y-128817713D01*
X148960819Y-84494666D02*
X148484628Y-84827999D01*
X148960819Y-85066094D02*
X147960819Y-85066094D01*
X147960819Y-85066094D02*
X147960819Y-84685142D01*
X147960819Y-84685142D02*
X148008438Y-84589904D01*
X148008438Y-84589904D02*
X148056057Y-84542285D01*
X148056057Y-84542285D02*
X148151295Y-84494666D01*
X148151295Y-84494666D02*
X148294152Y-84494666D01*
X148294152Y-84494666D02*
X148389390Y-84542285D01*
X148389390Y-84542285D02*
X148437009Y-84589904D01*
X148437009Y-84589904D02*
X148484628Y-84685142D01*
X148484628Y-84685142D02*
X148484628Y-85066094D01*
X147960819Y-84161332D02*
X147960819Y-83494666D01*
X147960819Y-83494666D02*
X148960819Y-83923237D01*
X158780819Y-84494666D02*
X158304628Y-84827999D01*
X158780819Y-85066094D02*
X157780819Y-85066094D01*
X157780819Y-85066094D02*
X157780819Y-84685142D01*
X157780819Y-84685142D02*
X157828438Y-84589904D01*
X157828438Y-84589904D02*
X157876057Y-84542285D01*
X157876057Y-84542285D02*
X157971295Y-84494666D01*
X157971295Y-84494666D02*
X158114152Y-84494666D01*
X158114152Y-84494666D02*
X158209390Y-84542285D01*
X158209390Y-84542285D02*
X158257009Y-84589904D01*
X158257009Y-84589904D02*
X158304628Y-84685142D01*
X158304628Y-84685142D02*
X158304628Y-85066094D01*
X158209390Y-83923237D02*
X158161771Y-84018475D01*
X158161771Y-84018475D02*
X158114152Y-84066094D01*
X158114152Y-84066094D02*
X158018914Y-84113713D01*
X158018914Y-84113713D02*
X157971295Y-84113713D01*
X157971295Y-84113713D02*
X157876057Y-84066094D01*
X157876057Y-84066094D02*
X157828438Y-84018475D01*
X157828438Y-84018475D02*
X157780819Y-83923237D01*
X157780819Y-83923237D02*
X157780819Y-83732761D01*
X157780819Y-83732761D02*
X157828438Y-83637523D01*
X157828438Y-83637523D02*
X157876057Y-83589904D01*
X157876057Y-83589904D02*
X157971295Y-83542285D01*
X157971295Y-83542285D02*
X158018914Y-83542285D01*
X158018914Y-83542285D02*
X158114152Y-83589904D01*
X158114152Y-83589904D02*
X158161771Y-83637523D01*
X158161771Y-83637523D02*
X158209390Y-83732761D01*
X158209390Y-83732761D02*
X158209390Y-83923237D01*
X158209390Y-83923237D02*
X158257009Y-84018475D01*
X158257009Y-84018475D02*
X158304628Y-84066094D01*
X158304628Y-84066094D02*
X158399866Y-84113713D01*
X158399866Y-84113713D02*
X158590342Y-84113713D01*
X158590342Y-84113713D02*
X158685580Y-84066094D01*
X158685580Y-84066094D02*
X158733200Y-84018475D01*
X158733200Y-84018475D02*
X158780819Y-83923237D01*
X158780819Y-83923237D02*
X158780819Y-83732761D01*
X158780819Y-83732761D02*
X158733200Y-83637523D01*
X158733200Y-83637523D02*
X158685580Y-83589904D01*
X158685580Y-83589904D02*
X158590342Y-83542285D01*
X158590342Y-83542285D02*
X158399866Y-83542285D01*
X158399866Y-83542285D02*
X158304628Y-83589904D01*
X158304628Y-83589904D02*
X158257009Y-83637523D01*
X158257009Y-83637523D02*
X158209390Y-83732761D01*
X92040142Y-86222819D02*
X91706809Y-85746628D01*
X91468714Y-86222819D02*
X91468714Y-85222819D01*
X91468714Y-85222819D02*
X91849666Y-85222819D01*
X91849666Y-85222819D02*
X91944904Y-85270438D01*
X91944904Y-85270438D02*
X91992523Y-85318057D01*
X91992523Y-85318057D02*
X92040142Y-85413295D01*
X92040142Y-85413295D02*
X92040142Y-85556152D01*
X92040142Y-85556152D02*
X91992523Y-85651390D01*
X91992523Y-85651390D02*
X91944904Y-85699009D01*
X91944904Y-85699009D02*
X91849666Y-85746628D01*
X91849666Y-85746628D02*
X91468714Y-85746628D01*
X92992523Y-86222819D02*
X92421095Y-86222819D01*
X92706809Y-86222819D02*
X92706809Y-85222819D01*
X92706809Y-85222819D02*
X92611571Y-85365676D01*
X92611571Y-85365676D02*
X92516333Y-85460914D01*
X92516333Y-85460914D02*
X92421095Y-85508533D01*
X93944904Y-86222819D02*
X93373476Y-86222819D01*
X93659190Y-86222819D02*
X93659190Y-85222819D01*
X93659190Y-85222819D02*
X93563952Y-85365676D01*
X93563952Y-85365676D02*
X93468714Y-85460914D01*
X93468714Y-85460914D02*
X93373476Y-85508533D01*
X158823819Y-123197857D02*
X158347628Y-123531190D01*
X158823819Y-123769285D02*
X157823819Y-123769285D01*
X157823819Y-123769285D02*
X157823819Y-123388333D01*
X157823819Y-123388333D02*
X157871438Y-123293095D01*
X157871438Y-123293095D02*
X157919057Y-123245476D01*
X157919057Y-123245476D02*
X158014295Y-123197857D01*
X158014295Y-123197857D02*
X158157152Y-123197857D01*
X158157152Y-123197857D02*
X158252390Y-123245476D01*
X158252390Y-123245476D02*
X158300009Y-123293095D01*
X158300009Y-123293095D02*
X158347628Y-123388333D01*
X158347628Y-123388333D02*
X158347628Y-123769285D01*
X158823819Y-122245476D02*
X158823819Y-122816904D01*
X158823819Y-122531190D02*
X157823819Y-122531190D01*
X157823819Y-122531190D02*
X157966676Y-122626428D01*
X157966676Y-122626428D02*
X158061914Y-122721666D01*
X158061914Y-122721666D02*
X158109533Y-122816904D01*
X158157152Y-121388333D02*
X158823819Y-121388333D01*
X157776200Y-121626428D02*
X158490485Y-121864523D01*
X158490485Y-121864523D02*
X158490485Y-121245476D01*
X148917819Y-123197857D02*
X148441628Y-123531190D01*
X148917819Y-123769285D02*
X147917819Y-123769285D01*
X147917819Y-123769285D02*
X147917819Y-123388333D01*
X147917819Y-123388333D02*
X147965438Y-123293095D01*
X147965438Y-123293095D02*
X148013057Y-123245476D01*
X148013057Y-123245476D02*
X148108295Y-123197857D01*
X148108295Y-123197857D02*
X148251152Y-123197857D01*
X148251152Y-123197857D02*
X148346390Y-123245476D01*
X148346390Y-123245476D02*
X148394009Y-123293095D01*
X148394009Y-123293095D02*
X148441628Y-123388333D01*
X148441628Y-123388333D02*
X148441628Y-123769285D01*
X148917819Y-122245476D02*
X148917819Y-122816904D01*
X148917819Y-122531190D02*
X147917819Y-122531190D01*
X147917819Y-122531190D02*
X148060676Y-122626428D01*
X148060676Y-122626428D02*
X148155914Y-122721666D01*
X148155914Y-122721666D02*
X148203533Y-122816904D01*
X147917819Y-121912142D02*
X147917819Y-121245476D01*
X147917819Y-121245476D02*
X148917819Y-121674047D01*
X74368819Y-102623857D02*
X73892628Y-102957190D01*
X74368819Y-103195285D02*
X73368819Y-103195285D01*
X73368819Y-103195285D02*
X73368819Y-102814333D01*
X73368819Y-102814333D02*
X73416438Y-102719095D01*
X73416438Y-102719095D02*
X73464057Y-102671476D01*
X73464057Y-102671476D02*
X73559295Y-102623857D01*
X73559295Y-102623857D02*
X73702152Y-102623857D01*
X73702152Y-102623857D02*
X73797390Y-102671476D01*
X73797390Y-102671476D02*
X73845009Y-102719095D01*
X73845009Y-102719095D02*
X73892628Y-102814333D01*
X73892628Y-102814333D02*
X73892628Y-103195285D01*
X74368819Y-101671476D02*
X74368819Y-102242904D01*
X74368819Y-101957190D02*
X73368819Y-101957190D01*
X73368819Y-101957190D02*
X73511676Y-102052428D01*
X73511676Y-102052428D02*
X73606914Y-102147666D01*
X73606914Y-102147666D02*
X73654533Y-102242904D01*
X74368819Y-101195285D02*
X74368819Y-101004809D01*
X74368819Y-101004809D02*
X74321200Y-100909571D01*
X74321200Y-100909571D02*
X74273580Y-100861952D01*
X74273580Y-100861952D02*
X74130723Y-100766714D01*
X74130723Y-100766714D02*
X73940247Y-100719095D01*
X73940247Y-100719095D02*
X73559295Y-100719095D01*
X73559295Y-100719095D02*
X73464057Y-100766714D01*
X73464057Y-100766714D02*
X73416438Y-100814333D01*
X73416438Y-100814333D02*
X73368819Y-100909571D01*
X73368819Y-100909571D02*
X73368819Y-101100047D01*
X73368819Y-101100047D02*
X73416438Y-101195285D01*
X73416438Y-101195285D02*
X73464057Y-101242904D01*
X73464057Y-101242904D02*
X73559295Y-101290523D01*
X73559295Y-101290523D02*
X73797390Y-101290523D01*
X73797390Y-101290523D02*
X73892628Y-101242904D01*
X73892628Y-101242904D02*
X73940247Y-101195285D01*
X73940247Y-101195285D02*
X73987866Y-101100047D01*
X73987866Y-101100047D02*
X73987866Y-100909571D01*
X73987866Y-100909571D02*
X73940247Y-100814333D01*
X73940247Y-100814333D02*
X73892628Y-100766714D01*
X73892628Y-100766714D02*
X73797390Y-100719095D01*
X149044819Y-136532857D02*
X148568628Y-136866190D01*
X149044819Y-137104285D02*
X148044819Y-137104285D01*
X148044819Y-137104285D02*
X148044819Y-136723333D01*
X148044819Y-136723333D02*
X148092438Y-136628095D01*
X148092438Y-136628095D02*
X148140057Y-136580476D01*
X148140057Y-136580476D02*
X148235295Y-136532857D01*
X148235295Y-136532857D02*
X148378152Y-136532857D01*
X148378152Y-136532857D02*
X148473390Y-136580476D01*
X148473390Y-136580476D02*
X148521009Y-136628095D01*
X148521009Y-136628095D02*
X148568628Y-136723333D01*
X148568628Y-136723333D02*
X148568628Y-137104285D01*
X148140057Y-136151904D02*
X148092438Y-136104285D01*
X148092438Y-136104285D02*
X148044819Y-136009047D01*
X148044819Y-136009047D02*
X148044819Y-135770952D01*
X148044819Y-135770952D02*
X148092438Y-135675714D01*
X148092438Y-135675714D02*
X148140057Y-135628095D01*
X148140057Y-135628095D02*
X148235295Y-135580476D01*
X148235295Y-135580476D02*
X148330533Y-135580476D01*
X148330533Y-135580476D02*
X148473390Y-135628095D01*
X148473390Y-135628095D02*
X149044819Y-136199523D01*
X149044819Y-136199523D02*
X149044819Y-135580476D01*
X149044819Y-134628095D02*
X149044819Y-135199523D01*
X149044819Y-134913809D02*
X148044819Y-134913809D01*
X148044819Y-134913809D02*
X148187676Y-135009047D01*
X148187676Y-135009047D02*
X148282914Y-135104285D01*
X148282914Y-135104285D02*
X148330533Y-135199523D01*
X110513905Y-125316819D02*
X110513905Y-124316819D01*
X110513905Y-124316819D02*
X110894857Y-124316819D01*
X110894857Y-124316819D02*
X110990095Y-124364438D01*
X110990095Y-124364438D02*
X111037714Y-124412057D01*
X111037714Y-124412057D02*
X111085333Y-124507295D01*
X111085333Y-124507295D02*
X111085333Y-124650152D01*
X111085333Y-124650152D02*
X111037714Y-124745390D01*
X111037714Y-124745390D02*
X110990095Y-124793009D01*
X110990095Y-124793009D02*
X110894857Y-124840628D01*
X110894857Y-124840628D02*
X110513905Y-124840628D01*
X111942476Y-124316819D02*
X111752000Y-124316819D01*
X111752000Y-124316819D02*
X111656762Y-124364438D01*
X111656762Y-124364438D02*
X111609143Y-124412057D01*
X111609143Y-124412057D02*
X111513905Y-124554914D01*
X111513905Y-124554914D02*
X111466286Y-124745390D01*
X111466286Y-124745390D02*
X111466286Y-125126342D01*
X111466286Y-125126342D02*
X111513905Y-125221580D01*
X111513905Y-125221580D02*
X111561524Y-125269200D01*
X111561524Y-125269200D02*
X111656762Y-125316819D01*
X111656762Y-125316819D02*
X111847238Y-125316819D01*
X111847238Y-125316819D02*
X111942476Y-125269200D01*
X111942476Y-125269200D02*
X111990095Y-125221580D01*
X111990095Y-125221580D02*
X112037714Y-125126342D01*
X112037714Y-125126342D02*
X112037714Y-124888247D01*
X112037714Y-124888247D02*
X111990095Y-124793009D01*
X111990095Y-124793009D02*
X111942476Y-124745390D01*
X111942476Y-124745390D02*
X111847238Y-124697771D01*
X111847238Y-124697771D02*
X111656762Y-124697771D01*
X111656762Y-124697771D02*
X111561524Y-124745390D01*
X111561524Y-124745390D02*
X111513905Y-124793009D01*
X111513905Y-124793009D02*
X111466286Y-124888247D01*
X160065580Y-56220666D02*
X160113200Y-56268285D01*
X160113200Y-56268285D02*
X160160819Y-56411142D01*
X160160819Y-56411142D02*
X160160819Y-56506380D01*
X160160819Y-56506380D02*
X160113200Y-56649237D01*
X160113200Y-56649237D02*
X160017961Y-56744475D01*
X160017961Y-56744475D02*
X159922723Y-56792094D01*
X159922723Y-56792094D02*
X159732247Y-56839713D01*
X159732247Y-56839713D02*
X159589390Y-56839713D01*
X159589390Y-56839713D02*
X159398914Y-56792094D01*
X159398914Y-56792094D02*
X159303676Y-56744475D01*
X159303676Y-56744475D02*
X159208438Y-56649237D01*
X159208438Y-56649237D02*
X159160819Y-56506380D01*
X159160819Y-56506380D02*
X159160819Y-56411142D01*
X159160819Y-56411142D02*
X159208438Y-56268285D01*
X159208438Y-56268285D02*
X159256057Y-56220666D01*
X160160819Y-55268285D02*
X160160819Y-55839713D01*
X160160819Y-55553999D02*
X159160819Y-55553999D01*
X159160819Y-55553999D02*
X159303676Y-55649237D01*
X159303676Y-55649237D02*
X159398914Y-55744475D01*
X159398914Y-55744475D02*
X159446533Y-55839713D01*
X115349333Y-135277580D02*
X115301714Y-135325200D01*
X115301714Y-135325200D02*
X115158857Y-135372819D01*
X115158857Y-135372819D02*
X115063619Y-135372819D01*
X115063619Y-135372819D02*
X114920762Y-135325200D01*
X114920762Y-135325200D02*
X114825524Y-135229961D01*
X114825524Y-135229961D02*
X114777905Y-135134723D01*
X114777905Y-135134723D02*
X114730286Y-134944247D01*
X114730286Y-134944247D02*
X114730286Y-134801390D01*
X114730286Y-134801390D02*
X114777905Y-134610914D01*
X114777905Y-134610914D02*
X114825524Y-134515676D01*
X114825524Y-134515676D02*
X114920762Y-134420438D01*
X114920762Y-134420438D02*
X115063619Y-134372819D01*
X115063619Y-134372819D02*
X115158857Y-134372819D01*
X115158857Y-134372819D02*
X115301714Y-134420438D01*
X115301714Y-134420438D02*
X115349333Y-134468057D01*
X115682667Y-134372819D02*
X116301714Y-134372819D01*
X116301714Y-134372819D02*
X115968381Y-134753771D01*
X115968381Y-134753771D02*
X116111238Y-134753771D01*
X116111238Y-134753771D02*
X116206476Y-134801390D01*
X116206476Y-134801390D02*
X116254095Y-134849009D01*
X116254095Y-134849009D02*
X116301714Y-134944247D01*
X116301714Y-134944247D02*
X116301714Y-135182342D01*
X116301714Y-135182342D02*
X116254095Y-135277580D01*
X116254095Y-135277580D02*
X116206476Y-135325200D01*
X116206476Y-135325200D02*
X116111238Y-135372819D01*
X116111238Y-135372819D02*
X115825524Y-135372819D01*
X115825524Y-135372819D02*
X115730286Y-135325200D01*
X115730286Y-135325200D02*
X115682667Y-135277580D01*
X160074780Y-68178666D02*
X160122400Y-68226285D01*
X160122400Y-68226285D02*
X160170019Y-68369142D01*
X160170019Y-68369142D02*
X160170019Y-68464380D01*
X160170019Y-68464380D02*
X160122400Y-68607237D01*
X160122400Y-68607237D02*
X160027161Y-68702475D01*
X160027161Y-68702475D02*
X159931923Y-68750094D01*
X159931923Y-68750094D02*
X159741447Y-68797713D01*
X159741447Y-68797713D02*
X159598590Y-68797713D01*
X159598590Y-68797713D02*
X159408114Y-68750094D01*
X159408114Y-68750094D02*
X159312876Y-68702475D01*
X159312876Y-68702475D02*
X159217638Y-68607237D01*
X159217638Y-68607237D02*
X159170019Y-68464380D01*
X159170019Y-68464380D02*
X159170019Y-68369142D01*
X159170019Y-68369142D02*
X159217638Y-68226285D01*
X159217638Y-68226285D02*
X159265257Y-68178666D01*
X159170019Y-67273904D02*
X159170019Y-67750094D01*
X159170019Y-67750094D02*
X159646209Y-67797713D01*
X159646209Y-67797713D02*
X159598590Y-67750094D01*
X159598590Y-67750094D02*
X159550971Y-67654856D01*
X159550971Y-67654856D02*
X159550971Y-67416761D01*
X159550971Y-67416761D02*
X159598590Y-67321523D01*
X159598590Y-67321523D02*
X159646209Y-67273904D01*
X159646209Y-67273904D02*
X159741447Y-67226285D01*
X159741447Y-67226285D02*
X159979542Y-67226285D01*
X159979542Y-67226285D02*
X160074780Y-67273904D01*
X160074780Y-67273904D02*
X160122400Y-67321523D01*
X160122400Y-67321523D02*
X160170019Y-67416761D01*
X160170019Y-67416761D02*
X160170019Y-67654856D01*
X160170019Y-67654856D02*
X160122400Y-67750094D01*
X160122400Y-67750094D02*
X160074780Y-67797713D01*
X59287580Y-101512666D02*
X59335200Y-101560285D01*
X59335200Y-101560285D02*
X59382819Y-101703142D01*
X59382819Y-101703142D02*
X59382819Y-101798380D01*
X59382819Y-101798380D02*
X59335200Y-101941237D01*
X59335200Y-101941237D02*
X59239961Y-102036475D01*
X59239961Y-102036475D02*
X59144723Y-102084094D01*
X59144723Y-102084094D02*
X58954247Y-102131713D01*
X58954247Y-102131713D02*
X58811390Y-102131713D01*
X58811390Y-102131713D02*
X58620914Y-102084094D01*
X58620914Y-102084094D02*
X58525676Y-102036475D01*
X58525676Y-102036475D02*
X58430438Y-101941237D01*
X58430438Y-101941237D02*
X58382819Y-101798380D01*
X58382819Y-101798380D02*
X58382819Y-101703142D01*
X58382819Y-101703142D02*
X58430438Y-101560285D01*
X58430438Y-101560285D02*
X58478057Y-101512666D01*
X58382819Y-101179332D02*
X58382819Y-100512666D01*
X58382819Y-100512666D02*
X59382819Y-100941237D01*
X133129333Y-156105580D02*
X133081714Y-156153200D01*
X133081714Y-156153200D02*
X132938857Y-156200819D01*
X132938857Y-156200819D02*
X132843619Y-156200819D01*
X132843619Y-156200819D02*
X132700762Y-156153200D01*
X132700762Y-156153200D02*
X132605524Y-156057961D01*
X132605524Y-156057961D02*
X132557905Y-155962723D01*
X132557905Y-155962723D02*
X132510286Y-155772247D01*
X132510286Y-155772247D02*
X132510286Y-155629390D01*
X132510286Y-155629390D02*
X132557905Y-155438914D01*
X132557905Y-155438914D02*
X132605524Y-155343676D01*
X132605524Y-155343676D02*
X132700762Y-155248438D01*
X132700762Y-155248438D02*
X132843619Y-155200819D01*
X132843619Y-155200819D02*
X132938857Y-155200819D01*
X132938857Y-155200819D02*
X133081714Y-155248438D01*
X133081714Y-155248438D02*
X133129333Y-155296057D01*
X133700762Y-155629390D02*
X133605524Y-155581771D01*
X133605524Y-155581771D02*
X133557905Y-155534152D01*
X133557905Y-155534152D02*
X133510286Y-155438914D01*
X133510286Y-155438914D02*
X133510286Y-155391295D01*
X133510286Y-155391295D02*
X133557905Y-155296057D01*
X133557905Y-155296057D02*
X133605524Y-155248438D01*
X133605524Y-155248438D02*
X133700762Y-155200819D01*
X133700762Y-155200819D02*
X133891238Y-155200819D01*
X133891238Y-155200819D02*
X133986476Y-155248438D01*
X133986476Y-155248438D02*
X134034095Y-155296057D01*
X134034095Y-155296057D02*
X134081714Y-155391295D01*
X134081714Y-155391295D02*
X134081714Y-155438914D01*
X134081714Y-155438914D02*
X134034095Y-155534152D01*
X134034095Y-155534152D02*
X133986476Y-155581771D01*
X133986476Y-155581771D02*
X133891238Y-155629390D01*
X133891238Y-155629390D02*
X133700762Y-155629390D01*
X133700762Y-155629390D02*
X133605524Y-155677009D01*
X133605524Y-155677009D02*
X133557905Y-155724628D01*
X133557905Y-155724628D02*
X133510286Y-155819866D01*
X133510286Y-155819866D02*
X133510286Y-156010342D01*
X133510286Y-156010342D02*
X133557905Y-156105580D01*
X133557905Y-156105580D02*
X133605524Y-156153200D01*
X133605524Y-156153200D02*
X133700762Y-156200819D01*
X133700762Y-156200819D02*
X133891238Y-156200819D01*
X133891238Y-156200819D02*
X133986476Y-156153200D01*
X133986476Y-156153200D02*
X134034095Y-156105580D01*
X134034095Y-156105580D02*
X134081714Y-156010342D01*
X134081714Y-156010342D02*
X134081714Y-155819866D01*
X134081714Y-155819866D02*
X134034095Y-155724628D01*
X134034095Y-155724628D02*
X133986476Y-155677009D01*
X133986476Y-155677009D02*
X133891238Y-155629390D01*
X159719180Y-137622266D02*
X159766800Y-137669885D01*
X159766800Y-137669885D02*
X159814419Y-137812742D01*
X159814419Y-137812742D02*
X159814419Y-137907980D01*
X159814419Y-137907980D02*
X159766800Y-138050837D01*
X159766800Y-138050837D02*
X159671561Y-138146075D01*
X159671561Y-138146075D02*
X159576323Y-138193694D01*
X159576323Y-138193694D02*
X159385847Y-138241313D01*
X159385847Y-138241313D02*
X159242990Y-138241313D01*
X159242990Y-138241313D02*
X159052514Y-138193694D01*
X159052514Y-138193694D02*
X158957276Y-138146075D01*
X158957276Y-138146075D02*
X158862038Y-138050837D01*
X158862038Y-138050837D02*
X158814419Y-137907980D01*
X158814419Y-137907980D02*
X158814419Y-137812742D01*
X158814419Y-137812742D02*
X158862038Y-137669885D01*
X158862038Y-137669885D02*
X158909657Y-137622266D01*
X159814419Y-137146075D02*
X159814419Y-136955599D01*
X159814419Y-136955599D02*
X159766800Y-136860361D01*
X159766800Y-136860361D02*
X159719180Y-136812742D01*
X159719180Y-136812742D02*
X159576323Y-136717504D01*
X159576323Y-136717504D02*
X159385847Y-136669885D01*
X159385847Y-136669885D02*
X159004895Y-136669885D01*
X159004895Y-136669885D02*
X158909657Y-136717504D01*
X158909657Y-136717504D02*
X158862038Y-136765123D01*
X158862038Y-136765123D02*
X158814419Y-136860361D01*
X158814419Y-136860361D02*
X158814419Y-137050837D01*
X158814419Y-137050837D02*
X158862038Y-137146075D01*
X158862038Y-137146075D02*
X158909657Y-137193694D01*
X158909657Y-137193694D02*
X159004895Y-137241313D01*
X159004895Y-137241313D02*
X159242990Y-137241313D01*
X159242990Y-137241313D02*
X159338228Y-137193694D01*
X159338228Y-137193694D02*
X159385847Y-137146075D01*
X159385847Y-137146075D02*
X159433466Y-137050837D01*
X159433466Y-137050837D02*
X159433466Y-136860361D01*
X159433466Y-136860361D02*
X159385847Y-136765123D01*
X159385847Y-136765123D02*
X159338228Y-136717504D01*
X159338228Y-136717504D02*
X159242990Y-136669885D01*
X132713142Y-146326580D02*
X132665523Y-146374200D01*
X132665523Y-146374200D02*
X132522666Y-146421819D01*
X132522666Y-146421819D02*
X132427428Y-146421819D01*
X132427428Y-146421819D02*
X132284571Y-146374200D01*
X132284571Y-146374200D02*
X132189333Y-146278961D01*
X132189333Y-146278961D02*
X132141714Y-146183723D01*
X132141714Y-146183723D02*
X132094095Y-145993247D01*
X132094095Y-145993247D02*
X132094095Y-145850390D01*
X132094095Y-145850390D02*
X132141714Y-145659914D01*
X132141714Y-145659914D02*
X132189333Y-145564676D01*
X132189333Y-145564676D02*
X132284571Y-145469438D01*
X132284571Y-145469438D02*
X132427428Y-145421819D01*
X132427428Y-145421819D02*
X132522666Y-145421819D01*
X132522666Y-145421819D02*
X132665523Y-145469438D01*
X132665523Y-145469438D02*
X132713142Y-145517057D01*
X133665523Y-146421819D02*
X133094095Y-146421819D01*
X133379809Y-146421819D02*
X133379809Y-145421819D01*
X133379809Y-145421819D02*
X133284571Y-145564676D01*
X133284571Y-145564676D02*
X133189333Y-145659914D01*
X133189333Y-145659914D02*
X133094095Y-145707533D01*
X134617904Y-146421819D02*
X134046476Y-146421819D01*
X134332190Y-146421819D02*
X134332190Y-145421819D01*
X134332190Y-145421819D02*
X134236952Y-145564676D01*
X134236952Y-145564676D02*
X134141714Y-145659914D01*
X134141714Y-145659914D02*
X134046476Y-145707533D01*
X159811580Y-150188857D02*
X159859200Y-150236476D01*
X159859200Y-150236476D02*
X159906819Y-150379333D01*
X159906819Y-150379333D02*
X159906819Y-150474571D01*
X159906819Y-150474571D02*
X159859200Y-150617428D01*
X159859200Y-150617428D02*
X159763961Y-150712666D01*
X159763961Y-150712666D02*
X159668723Y-150760285D01*
X159668723Y-150760285D02*
X159478247Y-150807904D01*
X159478247Y-150807904D02*
X159335390Y-150807904D01*
X159335390Y-150807904D02*
X159144914Y-150760285D01*
X159144914Y-150760285D02*
X159049676Y-150712666D01*
X159049676Y-150712666D02*
X158954438Y-150617428D01*
X158954438Y-150617428D02*
X158906819Y-150474571D01*
X158906819Y-150474571D02*
X158906819Y-150379333D01*
X158906819Y-150379333D02*
X158954438Y-150236476D01*
X158954438Y-150236476D02*
X159002057Y-150188857D01*
X159906819Y-149236476D02*
X159906819Y-149807904D01*
X159906819Y-149522190D02*
X158906819Y-149522190D01*
X158906819Y-149522190D02*
X159049676Y-149617428D01*
X159049676Y-149617428D02*
X159144914Y-149712666D01*
X159144914Y-149712666D02*
X159192533Y-149807904D01*
X158906819Y-148903142D02*
X158906819Y-148284095D01*
X158906819Y-148284095D02*
X159287771Y-148617428D01*
X159287771Y-148617428D02*
X159287771Y-148474571D01*
X159287771Y-148474571D02*
X159335390Y-148379333D01*
X159335390Y-148379333D02*
X159383009Y-148331714D01*
X159383009Y-148331714D02*
X159478247Y-148284095D01*
X159478247Y-148284095D02*
X159716342Y-148284095D01*
X159716342Y-148284095D02*
X159811580Y-148331714D01*
X159811580Y-148331714D02*
X159859200Y-148379333D01*
X159859200Y-148379333D02*
X159906819Y-148474571D01*
X159906819Y-148474571D02*
X159906819Y-148760285D01*
X159906819Y-148760285D02*
X159859200Y-148855523D01*
X159859200Y-148855523D02*
X159811580Y-148903142D01*
X176971333Y-91926819D02*
X176638000Y-91450628D01*
X176399905Y-91926819D02*
X176399905Y-90926819D01*
X176399905Y-90926819D02*
X176780857Y-90926819D01*
X176780857Y-90926819D02*
X176876095Y-90974438D01*
X176876095Y-90974438D02*
X176923714Y-91022057D01*
X176923714Y-91022057D02*
X176971333Y-91117295D01*
X176971333Y-91117295D02*
X176971333Y-91260152D01*
X176971333Y-91260152D02*
X176923714Y-91355390D01*
X176923714Y-91355390D02*
X176876095Y-91403009D01*
X176876095Y-91403009D02*
X176780857Y-91450628D01*
X176780857Y-91450628D02*
X176399905Y-91450628D01*
X177876095Y-90926819D02*
X177399905Y-90926819D01*
X177399905Y-90926819D02*
X177352286Y-91403009D01*
X177352286Y-91403009D02*
X177399905Y-91355390D01*
X177399905Y-91355390D02*
X177495143Y-91307771D01*
X177495143Y-91307771D02*
X177733238Y-91307771D01*
X177733238Y-91307771D02*
X177828476Y-91355390D01*
X177828476Y-91355390D02*
X177876095Y-91403009D01*
X177876095Y-91403009D02*
X177923714Y-91498247D01*
X177923714Y-91498247D02*
X177923714Y-91736342D01*
X177923714Y-91736342D02*
X177876095Y-91831580D01*
X177876095Y-91831580D02*
X177828476Y-91879200D01*
X177828476Y-91879200D02*
X177733238Y-91926819D01*
X177733238Y-91926819D02*
X177495143Y-91926819D01*
X177495143Y-91926819D02*
X177399905Y-91879200D01*
X177399905Y-91879200D02*
X177352286Y-91831580D01*
X194478819Y-141739857D02*
X194002628Y-142073190D01*
X194478819Y-142311285D02*
X193478819Y-142311285D01*
X193478819Y-142311285D02*
X193478819Y-141930333D01*
X193478819Y-141930333D02*
X193526438Y-141835095D01*
X193526438Y-141835095D02*
X193574057Y-141787476D01*
X193574057Y-141787476D02*
X193669295Y-141739857D01*
X193669295Y-141739857D02*
X193812152Y-141739857D01*
X193812152Y-141739857D02*
X193907390Y-141787476D01*
X193907390Y-141787476D02*
X193955009Y-141835095D01*
X193955009Y-141835095D02*
X194002628Y-141930333D01*
X194002628Y-141930333D02*
X194002628Y-142311285D01*
X194478819Y-140787476D02*
X194478819Y-141358904D01*
X194478819Y-141073190D02*
X193478819Y-141073190D01*
X193478819Y-141073190D02*
X193621676Y-141168428D01*
X193621676Y-141168428D02*
X193716914Y-141263666D01*
X193716914Y-141263666D02*
X193764533Y-141358904D01*
X193478819Y-140454142D02*
X193478819Y-139835095D01*
X193478819Y-139835095D02*
X193859771Y-140168428D01*
X193859771Y-140168428D02*
X193859771Y-140025571D01*
X193859771Y-140025571D02*
X193907390Y-139930333D01*
X193907390Y-139930333D02*
X193955009Y-139882714D01*
X193955009Y-139882714D02*
X194050247Y-139835095D01*
X194050247Y-139835095D02*
X194288342Y-139835095D01*
X194288342Y-139835095D02*
X194383580Y-139882714D01*
X194383580Y-139882714D02*
X194431200Y-139930333D01*
X194431200Y-139930333D02*
X194478819Y-140025571D01*
X194478819Y-140025571D02*
X194478819Y-140311285D01*
X194478819Y-140311285D02*
X194431200Y-140406523D01*
X194431200Y-140406523D02*
X194383580Y-140454142D01*
X176495142Y-112483819D02*
X176161809Y-112007628D01*
X175923714Y-112483819D02*
X175923714Y-111483819D01*
X175923714Y-111483819D02*
X176304666Y-111483819D01*
X176304666Y-111483819D02*
X176399904Y-111531438D01*
X176399904Y-111531438D02*
X176447523Y-111579057D01*
X176447523Y-111579057D02*
X176495142Y-111674295D01*
X176495142Y-111674295D02*
X176495142Y-111817152D01*
X176495142Y-111817152D02*
X176447523Y-111912390D01*
X176447523Y-111912390D02*
X176399904Y-111960009D01*
X176399904Y-111960009D02*
X176304666Y-112007628D01*
X176304666Y-112007628D02*
X175923714Y-112007628D01*
X176876095Y-111579057D02*
X176923714Y-111531438D01*
X176923714Y-111531438D02*
X177018952Y-111483819D01*
X177018952Y-111483819D02*
X177257047Y-111483819D01*
X177257047Y-111483819D02*
X177352285Y-111531438D01*
X177352285Y-111531438D02*
X177399904Y-111579057D01*
X177399904Y-111579057D02*
X177447523Y-111674295D01*
X177447523Y-111674295D02*
X177447523Y-111769533D01*
X177447523Y-111769533D02*
X177399904Y-111912390D01*
X177399904Y-111912390D02*
X176828476Y-112483819D01*
X176828476Y-112483819D02*
X177447523Y-112483819D01*
X178066571Y-111483819D02*
X178161809Y-111483819D01*
X178161809Y-111483819D02*
X178257047Y-111531438D01*
X178257047Y-111531438D02*
X178304666Y-111579057D01*
X178304666Y-111579057D02*
X178352285Y-111674295D01*
X178352285Y-111674295D02*
X178399904Y-111864771D01*
X178399904Y-111864771D02*
X178399904Y-112102866D01*
X178399904Y-112102866D02*
X178352285Y-112293342D01*
X178352285Y-112293342D02*
X178304666Y-112388580D01*
X178304666Y-112388580D02*
X178257047Y-112436200D01*
X178257047Y-112436200D02*
X178161809Y-112483819D01*
X178161809Y-112483819D02*
X178066571Y-112483819D01*
X178066571Y-112483819D02*
X177971333Y-112436200D01*
X177971333Y-112436200D02*
X177923714Y-112388580D01*
X177923714Y-112388580D02*
X177876095Y-112293342D01*
X177876095Y-112293342D02*
X177828476Y-112102866D01*
X177828476Y-112102866D02*
X177828476Y-111864771D01*
X177828476Y-111864771D02*
X177876095Y-111674295D01*
X177876095Y-111674295D02*
X177923714Y-111579057D01*
X177923714Y-111579057D02*
X177971333Y-111531438D01*
X177971333Y-111531438D02*
X178066571Y-111483819D01*
X114670819Y-146184857D02*
X114194628Y-146518190D01*
X114670819Y-146756285D02*
X113670819Y-146756285D01*
X113670819Y-146756285D02*
X113670819Y-146375333D01*
X113670819Y-146375333D02*
X113718438Y-146280095D01*
X113718438Y-146280095D02*
X113766057Y-146232476D01*
X113766057Y-146232476D02*
X113861295Y-146184857D01*
X113861295Y-146184857D02*
X114004152Y-146184857D01*
X114004152Y-146184857D02*
X114099390Y-146232476D01*
X114099390Y-146232476D02*
X114147009Y-146280095D01*
X114147009Y-146280095D02*
X114194628Y-146375333D01*
X114194628Y-146375333D02*
X114194628Y-146756285D01*
X114670819Y-145232476D02*
X114670819Y-145803904D01*
X114670819Y-145518190D02*
X113670819Y-145518190D01*
X113670819Y-145518190D02*
X113813676Y-145613428D01*
X113813676Y-145613428D02*
X113908914Y-145708666D01*
X113908914Y-145708666D02*
X113956533Y-145803904D01*
X113670819Y-144375333D02*
X113670819Y-144565809D01*
X113670819Y-144565809D02*
X113718438Y-144661047D01*
X113718438Y-144661047D02*
X113766057Y-144708666D01*
X113766057Y-144708666D02*
X113908914Y-144803904D01*
X113908914Y-144803904D02*
X114099390Y-144851523D01*
X114099390Y-144851523D02*
X114480342Y-144851523D01*
X114480342Y-144851523D02*
X114575580Y-144803904D01*
X114575580Y-144803904D02*
X114623200Y-144756285D01*
X114623200Y-144756285D02*
X114670819Y-144661047D01*
X114670819Y-144661047D02*
X114670819Y-144470571D01*
X114670819Y-144470571D02*
X114623200Y-144375333D01*
X114623200Y-144375333D02*
X114575580Y-144327714D01*
X114575580Y-144327714D02*
X114480342Y-144280095D01*
X114480342Y-144280095D02*
X114242247Y-144280095D01*
X114242247Y-144280095D02*
X114147009Y-144327714D01*
X114147009Y-144327714D02*
X114099390Y-144375333D01*
X114099390Y-144375333D02*
X114051771Y-144470571D01*
X114051771Y-144470571D02*
X114051771Y-144661047D01*
X114051771Y-144661047D02*
X114099390Y-144756285D01*
X114099390Y-144756285D02*
X114147009Y-144803904D01*
X114147009Y-144803904D02*
X114242247Y-144851523D01*
X135074819Y-78366857D02*
X134598628Y-78700190D01*
X135074819Y-78938285D02*
X134074819Y-78938285D01*
X134074819Y-78938285D02*
X134074819Y-78557333D01*
X134074819Y-78557333D02*
X134122438Y-78462095D01*
X134122438Y-78462095D02*
X134170057Y-78414476D01*
X134170057Y-78414476D02*
X134265295Y-78366857D01*
X134265295Y-78366857D02*
X134408152Y-78366857D01*
X134408152Y-78366857D02*
X134503390Y-78414476D01*
X134503390Y-78414476D02*
X134551009Y-78462095D01*
X134551009Y-78462095D02*
X134598628Y-78557333D01*
X134598628Y-78557333D02*
X134598628Y-78938285D01*
X134170057Y-77985904D02*
X134122438Y-77938285D01*
X134122438Y-77938285D02*
X134074819Y-77843047D01*
X134074819Y-77843047D02*
X134074819Y-77604952D01*
X134074819Y-77604952D02*
X134122438Y-77509714D01*
X134122438Y-77509714D02*
X134170057Y-77462095D01*
X134170057Y-77462095D02*
X134265295Y-77414476D01*
X134265295Y-77414476D02*
X134360533Y-77414476D01*
X134360533Y-77414476D02*
X134503390Y-77462095D01*
X134503390Y-77462095D02*
X135074819Y-78033523D01*
X135074819Y-78033523D02*
X135074819Y-77414476D01*
X134170057Y-77033523D02*
X134122438Y-76985904D01*
X134122438Y-76985904D02*
X134074819Y-76890666D01*
X134074819Y-76890666D02*
X134074819Y-76652571D01*
X134074819Y-76652571D02*
X134122438Y-76557333D01*
X134122438Y-76557333D02*
X134170057Y-76509714D01*
X134170057Y-76509714D02*
X134265295Y-76462095D01*
X134265295Y-76462095D02*
X134360533Y-76462095D01*
X134360533Y-76462095D02*
X134503390Y-76509714D01*
X134503390Y-76509714D02*
X135074819Y-77081142D01*
X135074819Y-77081142D02*
X135074819Y-76462095D01*
X93698142Y-145710819D02*
X93364809Y-145234628D01*
X93126714Y-145710819D02*
X93126714Y-144710819D01*
X93126714Y-144710819D02*
X93507666Y-144710819D01*
X93507666Y-144710819D02*
X93602904Y-144758438D01*
X93602904Y-144758438D02*
X93650523Y-144806057D01*
X93650523Y-144806057D02*
X93698142Y-144901295D01*
X93698142Y-144901295D02*
X93698142Y-145044152D01*
X93698142Y-145044152D02*
X93650523Y-145139390D01*
X93650523Y-145139390D02*
X93602904Y-145187009D01*
X93602904Y-145187009D02*
X93507666Y-145234628D01*
X93507666Y-145234628D02*
X93126714Y-145234628D01*
X94079095Y-144806057D02*
X94126714Y-144758438D01*
X94126714Y-144758438D02*
X94221952Y-144710819D01*
X94221952Y-144710819D02*
X94460047Y-144710819D01*
X94460047Y-144710819D02*
X94555285Y-144758438D01*
X94555285Y-144758438D02*
X94602904Y-144806057D01*
X94602904Y-144806057D02*
X94650523Y-144901295D01*
X94650523Y-144901295D02*
X94650523Y-144996533D01*
X94650523Y-144996533D02*
X94602904Y-145139390D01*
X94602904Y-145139390D02*
X94031476Y-145710819D01*
X94031476Y-145710819D02*
X94650523Y-145710819D01*
X94983857Y-144710819D02*
X95602904Y-144710819D01*
X95602904Y-144710819D02*
X95269571Y-145091771D01*
X95269571Y-145091771D02*
X95412428Y-145091771D01*
X95412428Y-145091771D02*
X95507666Y-145139390D01*
X95507666Y-145139390D02*
X95555285Y-145187009D01*
X95555285Y-145187009D02*
X95602904Y-145282247D01*
X95602904Y-145282247D02*
X95602904Y-145520342D01*
X95602904Y-145520342D02*
X95555285Y-145615580D01*
X95555285Y-145615580D02*
X95507666Y-145663200D01*
X95507666Y-145663200D02*
X95412428Y-145710819D01*
X95412428Y-145710819D02*
X95126714Y-145710819D01*
X95126714Y-145710819D02*
X95031476Y-145663200D01*
X95031476Y-145663200D02*
X94983857Y-145615580D01*
X194478819Y-73841857D02*
X194002628Y-74175190D01*
X194478819Y-74413285D02*
X193478819Y-74413285D01*
X193478819Y-74413285D02*
X193478819Y-74032333D01*
X193478819Y-74032333D02*
X193526438Y-73937095D01*
X193526438Y-73937095D02*
X193574057Y-73889476D01*
X193574057Y-73889476D02*
X193669295Y-73841857D01*
X193669295Y-73841857D02*
X193812152Y-73841857D01*
X193812152Y-73841857D02*
X193907390Y-73889476D01*
X193907390Y-73889476D02*
X193955009Y-73937095D01*
X193955009Y-73937095D02*
X194002628Y-74032333D01*
X194002628Y-74032333D02*
X194002628Y-74413285D01*
X194478819Y-72889476D02*
X194478819Y-73460904D01*
X194478819Y-73175190D02*
X193478819Y-73175190D01*
X193478819Y-73175190D02*
X193621676Y-73270428D01*
X193621676Y-73270428D02*
X193716914Y-73365666D01*
X193716914Y-73365666D02*
X193764533Y-73460904D01*
X193478819Y-72270428D02*
X193478819Y-72175190D01*
X193478819Y-72175190D02*
X193526438Y-72079952D01*
X193526438Y-72079952D02*
X193574057Y-72032333D01*
X193574057Y-72032333D02*
X193669295Y-71984714D01*
X193669295Y-71984714D02*
X193859771Y-71937095D01*
X193859771Y-71937095D02*
X194097866Y-71937095D01*
X194097866Y-71937095D02*
X194288342Y-71984714D01*
X194288342Y-71984714D02*
X194383580Y-72032333D01*
X194383580Y-72032333D02*
X194431200Y-72079952D01*
X194431200Y-72079952D02*
X194478819Y-72175190D01*
X194478819Y-72175190D02*
X194478819Y-72270428D01*
X194478819Y-72270428D02*
X194431200Y-72365666D01*
X194431200Y-72365666D02*
X194383580Y-72413285D01*
X194383580Y-72413285D02*
X194288342Y-72460904D01*
X194288342Y-72460904D02*
X194097866Y-72508523D01*
X194097866Y-72508523D02*
X193859771Y-72508523D01*
X193859771Y-72508523D02*
X193669295Y-72460904D01*
X193669295Y-72460904D02*
X193574057Y-72413285D01*
X193574057Y-72413285D02*
X193526438Y-72365666D01*
X193526438Y-72365666D02*
X193478819Y-72270428D01*
X55445819Y-110275666D02*
X54969628Y-110608999D01*
X55445819Y-110847094D02*
X54445819Y-110847094D01*
X54445819Y-110847094D02*
X54445819Y-110466142D01*
X54445819Y-110466142D02*
X54493438Y-110370904D01*
X54493438Y-110370904D02*
X54541057Y-110323285D01*
X54541057Y-110323285D02*
X54636295Y-110275666D01*
X54636295Y-110275666D02*
X54779152Y-110275666D01*
X54779152Y-110275666D02*
X54874390Y-110323285D01*
X54874390Y-110323285D02*
X54922009Y-110370904D01*
X54922009Y-110370904D02*
X54969628Y-110466142D01*
X54969628Y-110466142D02*
X54969628Y-110847094D01*
X55445819Y-109799475D02*
X55445819Y-109608999D01*
X55445819Y-109608999D02*
X55398200Y-109513761D01*
X55398200Y-109513761D02*
X55350580Y-109466142D01*
X55350580Y-109466142D02*
X55207723Y-109370904D01*
X55207723Y-109370904D02*
X55017247Y-109323285D01*
X55017247Y-109323285D02*
X54636295Y-109323285D01*
X54636295Y-109323285D02*
X54541057Y-109370904D01*
X54541057Y-109370904D02*
X54493438Y-109418523D01*
X54493438Y-109418523D02*
X54445819Y-109513761D01*
X54445819Y-109513761D02*
X54445819Y-109704237D01*
X54445819Y-109704237D02*
X54493438Y-109799475D01*
X54493438Y-109799475D02*
X54541057Y-109847094D01*
X54541057Y-109847094D02*
X54636295Y-109894713D01*
X54636295Y-109894713D02*
X54874390Y-109894713D01*
X54874390Y-109894713D02*
X54969628Y-109847094D01*
X54969628Y-109847094D02*
X55017247Y-109799475D01*
X55017247Y-109799475D02*
X55064866Y-109704237D01*
X55064866Y-109704237D02*
X55064866Y-109513761D01*
X55064866Y-109513761D02*
X55017247Y-109418523D01*
X55017247Y-109418523D02*
X54969628Y-109370904D01*
X54969628Y-109370904D02*
X54874390Y-109323285D01*
X59559905Y-81988819D02*
X59559905Y-80988819D01*
X59559905Y-80988819D02*
X59798000Y-80988819D01*
X59798000Y-80988819D02*
X59940857Y-81036438D01*
X59940857Y-81036438D02*
X60036095Y-81131676D01*
X60036095Y-81131676D02*
X60083714Y-81226914D01*
X60083714Y-81226914D02*
X60131333Y-81417390D01*
X60131333Y-81417390D02*
X60131333Y-81560247D01*
X60131333Y-81560247D02*
X60083714Y-81750723D01*
X60083714Y-81750723D02*
X60036095Y-81845961D01*
X60036095Y-81845961D02*
X59940857Y-81941200D01*
X59940857Y-81941200D02*
X59798000Y-81988819D01*
X59798000Y-81988819D02*
X59559905Y-81988819D01*
X61083714Y-81988819D02*
X60512286Y-81988819D01*
X60798000Y-81988819D02*
X60798000Y-80988819D01*
X60798000Y-80988819D02*
X60702762Y-81131676D01*
X60702762Y-81131676D02*
X60607524Y-81226914D01*
X60607524Y-81226914D02*
X60512286Y-81274533D01*
X65116095Y-81468819D02*
X65116095Y-80468819D01*
X65687523Y-81468819D02*
X65258952Y-80897390D01*
X65687523Y-80468819D02*
X65116095Y-81040247D01*
X59864666Y-75436819D02*
X59864666Y-76151104D01*
X59864666Y-76151104D02*
X59817047Y-76293961D01*
X59817047Y-76293961D02*
X59721809Y-76389200D01*
X59721809Y-76389200D02*
X59578952Y-76436819D01*
X59578952Y-76436819D02*
X59483714Y-76436819D01*
X60293238Y-75532057D02*
X60340857Y-75484438D01*
X60340857Y-75484438D02*
X60436095Y-75436819D01*
X60436095Y-75436819D02*
X60674190Y-75436819D01*
X60674190Y-75436819D02*
X60769428Y-75484438D01*
X60769428Y-75484438D02*
X60817047Y-75532057D01*
X60817047Y-75532057D02*
X60864666Y-75627295D01*
X60864666Y-75627295D02*
X60864666Y-75722533D01*
X60864666Y-75722533D02*
X60817047Y-75865390D01*
X60817047Y-75865390D02*
X60245619Y-76436819D01*
X60245619Y-76436819D02*
X60864666Y-76436819D01*
X118710142Y-86052819D02*
X118376809Y-85576628D01*
X118138714Y-86052819D02*
X118138714Y-85052819D01*
X118138714Y-85052819D02*
X118519666Y-85052819D01*
X118519666Y-85052819D02*
X118614904Y-85100438D01*
X118614904Y-85100438D02*
X118662523Y-85148057D01*
X118662523Y-85148057D02*
X118710142Y-85243295D01*
X118710142Y-85243295D02*
X118710142Y-85386152D01*
X118710142Y-85386152D02*
X118662523Y-85481390D01*
X118662523Y-85481390D02*
X118614904Y-85529009D01*
X118614904Y-85529009D02*
X118519666Y-85576628D01*
X118519666Y-85576628D02*
X118138714Y-85576628D01*
X119662523Y-86052819D02*
X119091095Y-86052819D01*
X119376809Y-86052819D02*
X119376809Y-85052819D01*
X119376809Y-85052819D02*
X119281571Y-85195676D01*
X119281571Y-85195676D02*
X119186333Y-85290914D01*
X119186333Y-85290914D02*
X119091095Y-85338533D01*
X120043476Y-85148057D02*
X120091095Y-85100438D01*
X120091095Y-85100438D02*
X120186333Y-85052819D01*
X120186333Y-85052819D02*
X120424428Y-85052819D01*
X120424428Y-85052819D02*
X120519666Y-85100438D01*
X120519666Y-85100438D02*
X120567285Y-85148057D01*
X120567285Y-85148057D02*
X120614904Y-85243295D01*
X120614904Y-85243295D02*
X120614904Y-85338533D01*
X120614904Y-85338533D02*
X120567285Y-85481390D01*
X120567285Y-85481390D02*
X119995857Y-86052819D01*
X119995857Y-86052819D02*
X120614904Y-86052819D01*
X200834666Y-91814819D02*
X200834666Y-92529104D01*
X200834666Y-92529104D02*
X200787047Y-92671961D01*
X200787047Y-92671961D02*
X200691809Y-92767200D01*
X200691809Y-92767200D02*
X200548952Y-92814819D01*
X200548952Y-92814819D02*
X200453714Y-92814819D01*
X201739428Y-92148152D02*
X201739428Y-92814819D01*
X201501333Y-91767200D02*
X201263238Y-92481485D01*
X201263238Y-92481485D02*
X201882285Y-92481485D01*
X48062819Y-110362333D02*
X48777104Y-110362333D01*
X48777104Y-110362333D02*
X48919961Y-110409952D01*
X48919961Y-110409952D02*
X49015200Y-110505190D01*
X49015200Y-110505190D02*
X49062819Y-110648047D01*
X49062819Y-110648047D02*
X49062819Y-110743285D01*
X48062819Y-109981380D02*
X48062819Y-109362333D01*
X48062819Y-109362333D02*
X48443771Y-109695666D01*
X48443771Y-109695666D02*
X48443771Y-109552809D01*
X48443771Y-109552809D02*
X48491390Y-109457571D01*
X48491390Y-109457571D02*
X48539009Y-109409952D01*
X48539009Y-109409952D02*
X48634247Y-109362333D01*
X48634247Y-109362333D02*
X48872342Y-109362333D01*
X48872342Y-109362333D02*
X48967580Y-109409952D01*
X48967580Y-109409952D02*
X49015200Y-109457571D01*
X49015200Y-109457571D02*
X49062819Y-109552809D01*
X49062819Y-109552809D02*
X49062819Y-109838523D01*
X49062819Y-109838523D02*
X49015200Y-109933761D01*
X49015200Y-109933761D02*
X48967580Y-109981380D01*
X56887819Y-131952333D02*
X57602104Y-131952333D01*
X57602104Y-131952333D02*
X57744961Y-131999952D01*
X57744961Y-131999952D02*
X57840200Y-132095190D01*
X57840200Y-132095190D02*
X57887819Y-132238047D01*
X57887819Y-132238047D02*
X57887819Y-132333285D01*
X56887819Y-131047571D02*
X56887819Y-131238047D01*
X56887819Y-131238047D02*
X56935438Y-131333285D01*
X56935438Y-131333285D02*
X56983057Y-131380904D01*
X56983057Y-131380904D02*
X57125914Y-131476142D01*
X57125914Y-131476142D02*
X57316390Y-131523761D01*
X57316390Y-131523761D02*
X57697342Y-131523761D01*
X57697342Y-131523761D02*
X57792580Y-131476142D01*
X57792580Y-131476142D02*
X57840200Y-131428523D01*
X57840200Y-131428523D02*
X57887819Y-131333285D01*
X57887819Y-131333285D02*
X57887819Y-131142809D01*
X57887819Y-131142809D02*
X57840200Y-131047571D01*
X57840200Y-131047571D02*
X57792580Y-130999952D01*
X57792580Y-130999952D02*
X57697342Y-130952333D01*
X57697342Y-130952333D02*
X57459247Y-130952333D01*
X57459247Y-130952333D02*
X57364009Y-130999952D01*
X57364009Y-130999952D02*
X57316390Y-131047571D01*
X57316390Y-131047571D02*
X57268771Y-131142809D01*
X57268771Y-131142809D02*
X57268771Y-131333285D01*
X57268771Y-131333285D02*
X57316390Y-131428523D01*
X57316390Y-131428523D02*
X57364009Y-131476142D01*
X57364009Y-131476142D02*
X57459247Y-131523761D01*
X153278666Y-94350819D02*
X153278666Y-95065104D01*
X153278666Y-95065104D02*
X153231047Y-95207961D01*
X153231047Y-95207961D02*
X153135809Y-95303200D01*
X153135809Y-95303200D02*
X152992952Y-95350819D01*
X152992952Y-95350819D02*
X152897714Y-95350819D01*
X153659619Y-94350819D02*
X154326285Y-94350819D01*
X154326285Y-94350819D02*
X153897714Y-95350819D01*
X99006819Y-126880857D02*
X98530628Y-127214190D01*
X99006819Y-127452285D02*
X98006819Y-127452285D01*
X98006819Y-127452285D02*
X98006819Y-127071333D01*
X98006819Y-127071333D02*
X98054438Y-126976095D01*
X98054438Y-126976095D02*
X98102057Y-126928476D01*
X98102057Y-126928476D02*
X98197295Y-126880857D01*
X98197295Y-126880857D02*
X98340152Y-126880857D01*
X98340152Y-126880857D02*
X98435390Y-126928476D01*
X98435390Y-126928476D02*
X98483009Y-126976095D01*
X98483009Y-126976095D02*
X98530628Y-127071333D01*
X98530628Y-127071333D02*
X98530628Y-127452285D01*
X99006819Y-125928476D02*
X99006819Y-126499904D01*
X99006819Y-126214190D02*
X98006819Y-126214190D01*
X98006819Y-126214190D02*
X98149676Y-126309428D01*
X98149676Y-126309428D02*
X98244914Y-126404666D01*
X98244914Y-126404666D02*
X98292533Y-126499904D01*
X98006819Y-125023714D02*
X98006819Y-125499904D01*
X98006819Y-125499904D02*
X98483009Y-125547523D01*
X98483009Y-125547523D02*
X98435390Y-125499904D01*
X98435390Y-125499904D02*
X98387771Y-125404666D01*
X98387771Y-125404666D02*
X98387771Y-125166571D01*
X98387771Y-125166571D02*
X98435390Y-125071333D01*
X98435390Y-125071333D02*
X98483009Y-125023714D01*
X98483009Y-125023714D02*
X98578247Y-124976095D01*
X98578247Y-124976095D02*
X98816342Y-124976095D01*
X98816342Y-124976095D02*
X98911580Y-125023714D01*
X98911580Y-125023714D02*
X98959200Y-125071333D01*
X98959200Y-125071333D02*
X99006819Y-125166571D01*
X99006819Y-125166571D02*
X99006819Y-125404666D01*
X99006819Y-125404666D02*
X98959200Y-125499904D01*
X98959200Y-125499904D02*
X98911580Y-125547523D01*
X56887819Y-143382333D02*
X57602104Y-143382333D01*
X57602104Y-143382333D02*
X57744961Y-143429952D01*
X57744961Y-143429952D02*
X57840200Y-143525190D01*
X57840200Y-143525190D02*
X57887819Y-143668047D01*
X57887819Y-143668047D02*
X57887819Y-143763285D01*
X57316390Y-142763285D02*
X57268771Y-142858523D01*
X57268771Y-142858523D02*
X57221152Y-142906142D01*
X57221152Y-142906142D02*
X57125914Y-142953761D01*
X57125914Y-142953761D02*
X57078295Y-142953761D01*
X57078295Y-142953761D02*
X56983057Y-142906142D01*
X56983057Y-142906142D02*
X56935438Y-142858523D01*
X56935438Y-142858523D02*
X56887819Y-142763285D01*
X56887819Y-142763285D02*
X56887819Y-142572809D01*
X56887819Y-142572809D02*
X56935438Y-142477571D01*
X56935438Y-142477571D02*
X56983057Y-142429952D01*
X56983057Y-142429952D02*
X57078295Y-142382333D01*
X57078295Y-142382333D02*
X57125914Y-142382333D01*
X57125914Y-142382333D02*
X57221152Y-142429952D01*
X57221152Y-142429952D02*
X57268771Y-142477571D01*
X57268771Y-142477571D02*
X57316390Y-142572809D01*
X57316390Y-142572809D02*
X57316390Y-142763285D01*
X57316390Y-142763285D02*
X57364009Y-142858523D01*
X57364009Y-142858523D02*
X57411628Y-142906142D01*
X57411628Y-142906142D02*
X57506866Y-142953761D01*
X57506866Y-142953761D02*
X57697342Y-142953761D01*
X57697342Y-142953761D02*
X57792580Y-142906142D01*
X57792580Y-142906142D02*
X57840200Y-142858523D01*
X57840200Y-142858523D02*
X57887819Y-142763285D01*
X57887819Y-142763285D02*
X57887819Y-142572809D01*
X57887819Y-142572809D02*
X57840200Y-142477571D01*
X57840200Y-142477571D02*
X57792580Y-142429952D01*
X57792580Y-142429952D02*
X57697342Y-142382333D01*
X57697342Y-142382333D02*
X57506866Y-142382333D01*
X57506866Y-142382333D02*
X57411628Y-142429952D01*
X57411628Y-142429952D02*
X57364009Y-142477571D01*
X57364009Y-142477571D02*
X57316390Y-142572809D01*
X84895142Y-145333580D02*
X84847523Y-145381200D01*
X84847523Y-145381200D02*
X84704666Y-145428819D01*
X84704666Y-145428819D02*
X84609428Y-145428819D01*
X84609428Y-145428819D02*
X84466571Y-145381200D01*
X84466571Y-145381200D02*
X84371333Y-145285961D01*
X84371333Y-145285961D02*
X84323714Y-145190723D01*
X84323714Y-145190723D02*
X84276095Y-145000247D01*
X84276095Y-145000247D02*
X84276095Y-144857390D01*
X84276095Y-144857390D02*
X84323714Y-144666914D01*
X84323714Y-144666914D02*
X84371333Y-144571676D01*
X84371333Y-144571676D02*
X84466571Y-144476438D01*
X84466571Y-144476438D02*
X84609428Y-144428819D01*
X84609428Y-144428819D02*
X84704666Y-144428819D01*
X84704666Y-144428819D02*
X84847523Y-144476438D01*
X84847523Y-144476438D02*
X84895142Y-144524057D01*
X85847523Y-145428819D02*
X85276095Y-145428819D01*
X85561809Y-145428819D02*
X85561809Y-144428819D01*
X85561809Y-144428819D02*
X85466571Y-144571676D01*
X85466571Y-144571676D02*
X85371333Y-144666914D01*
X85371333Y-144666914D02*
X85276095Y-144714533D01*
X86228476Y-144524057D02*
X86276095Y-144476438D01*
X86276095Y-144476438D02*
X86371333Y-144428819D01*
X86371333Y-144428819D02*
X86609428Y-144428819D01*
X86609428Y-144428819D02*
X86704666Y-144476438D01*
X86704666Y-144476438D02*
X86752285Y-144524057D01*
X86752285Y-144524057D02*
X86799904Y-144619295D01*
X86799904Y-144619295D02*
X86799904Y-144714533D01*
X86799904Y-144714533D02*
X86752285Y-144857390D01*
X86752285Y-144857390D02*
X86180857Y-145428819D01*
X86180857Y-145428819D02*
X86799904Y-145428819D01*
X114670819Y-59602666D02*
X114194628Y-59935999D01*
X114670819Y-60174094D02*
X113670819Y-60174094D01*
X113670819Y-60174094D02*
X113670819Y-59793142D01*
X113670819Y-59793142D02*
X113718438Y-59697904D01*
X113718438Y-59697904D02*
X113766057Y-59650285D01*
X113766057Y-59650285D02*
X113861295Y-59602666D01*
X113861295Y-59602666D02*
X114004152Y-59602666D01*
X114004152Y-59602666D02*
X114099390Y-59650285D01*
X114099390Y-59650285D02*
X114147009Y-59697904D01*
X114147009Y-59697904D02*
X114194628Y-59793142D01*
X114194628Y-59793142D02*
X114194628Y-60174094D01*
X114004152Y-58745523D02*
X114670819Y-58745523D01*
X113623200Y-58983618D02*
X114337485Y-59221713D01*
X114337485Y-59221713D02*
X114337485Y-58602666D01*
X115000142Y-82873580D02*
X114952523Y-82921200D01*
X114952523Y-82921200D02*
X114809666Y-82968819D01*
X114809666Y-82968819D02*
X114714428Y-82968819D01*
X114714428Y-82968819D02*
X114571571Y-82921200D01*
X114571571Y-82921200D02*
X114476333Y-82825961D01*
X114476333Y-82825961D02*
X114428714Y-82730723D01*
X114428714Y-82730723D02*
X114381095Y-82540247D01*
X114381095Y-82540247D02*
X114381095Y-82397390D01*
X114381095Y-82397390D02*
X114428714Y-82206914D01*
X114428714Y-82206914D02*
X114476333Y-82111676D01*
X114476333Y-82111676D02*
X114571571Y-82016438D01*
X114571571Y-82016438D02*
X114714428Y-81968819D01*
X114714428Y-81968819D02*
X114809666Y-81968819D01*
X114809666Y-81968819D02*
X114952523Y-82016438D01*
X114952523Y-82016438D02*
X115000142Y-82064057D01*
X115952523Y-82968819D02*
X115381095Y-82968819D01*
X115666809Y-82968819D02*
X115666809Y-81968819D01*
X115666809Y-81968819D02*
X115571571Y-82111676D01*
X115571571Y-82111676D02*
X115476333Y-82206914D01*
X115476333Y-82206914D02*
X115381095Y-82254533D01*
X116571571Y-81968819D02*
X116666809Y-81968819D01*
X116666809Y-81968819D02*
X116762047Y-82016438D01*
X116762047Y-82016438D02*
X116809666Y-82064057D01*
X116809666Y-82064057D02*
X116857285Y-82159295D01*
X116857285Y-82159295D02*
X116904904Y-82349771D01*
X116904904Y-82349771D02*
X116904904Y-82587866D01*
X116904904Y-82587866D02*
X116857285Y-82778342D01*
X116857285Y-82778342D02*
X116809666Y-82873580D01*
X116809666Y-82873580D02*
X116762047Y-82921200D01*
X116762047Y-82921200D02*
X116666809Y-82968819D01*
X116666809Y-82968819D02*
X116571571Y-82968819D01*
X116571571Y-82968819D02*
X116476333Y-82921200D01*
X116476333Y-82921200D02*
X116428714Y-82873580D01*
X116428714Y-82873580D02*
X116381095Y-82778342D01*
X116381095Y-82778342D02*
X116333476Y-82587866D01*
X116333476Y-82587866D02*
X116333476Y-82349771D01*
X116333476Y-82349771D02*
X116381095Y-82159295D01*
X116381095Y-82159295D02*
X116428714Y-82064057D01*
X116428714Y-82064057D02*
X116476333Y-82016438D01*
X116476333Y-82016438D02*
X116571571Y-81968819D01*
X92884666Y-47312819D02*
X92884666Y-48027104D01*
X92884666Y-48027104D02*
X92837047Y-48169961D01*
X92837047Y-48169961D02*
X92741809Y-48265200D01*
X92741809Y-48265200D02*
X92598952Y-48312819D01*
X92598952Y-48312819D02*
X92503714Y-48312819D01*
X93884666Y-48312819D02*
X93313238Y-48312819D01*
X93598952Y-48312819D02*
X93598952Y-47312819D01*
X93598952Y-47312819D02*
X93503714Y-47455676D01*
X93503714Y-47455676D02*
X93408476Y-47550914D01*
X93408476Y-47550914D02*
X93313238Y-47598533D01*
X133002333Y-69538580D02*
X132954714Y-69586200D01*
X132954714Y-69586200D02*
X132811857Y-69633819D01*
X132811857Y-69633819D02*
X132716619Y-69633819D01*
X132716619Y-69633819D02*
X132573762Y-69586200D01*
X132573762Y-69586200D02*
X132478524Y-69490961D01*
X132478524Y-69490961D02*
X132430905Y-69395723D01*
X132430905Y-69395723D02*
X132383286Y-69205247D01*
X132383286Y-69205247D02*
X132383286Y-69062390D01*
X132383286Y-69062390D02*
X132430905Y-68871914D01*
X132430905Y-68871914D02*
X132478524Y-68776676D01*
X132478524Y-68776676D02*
X132573762Y-68681438D01*
X132573762Y-68681438D02*
X132716619Y-68633819D01*
X132716619Y-68633819D02*
X132811857Y-68633819D01*
X132811857Y-68633819D02*
X132954714Y-68681438D01*
X132954714Y-68681438D02*
X133002333Y-68729057D01*
X133859476Y-68967152D02*
X133859476Y-69633819D01*
X133621381Y-68586200D02*
X133383286Y-69300485D01*
X133383286Y-69300485D02*
X134002333Y-69300485D01*
X133002333Y-59585580D02*
X132954714Y-59633200D01*
X132954714Y-59633200D02*
X132811857Y-59680819D01*
X132811857Y-59680819D02*
X132716619Y-59680819D01*
X132716619Y-59680819D02*
X132573762Y-59633200D01*
X132573762Y-59633200D02*
X132478524Y-59537961D01*
X132478524Y-59537961D02*
X132430905Y-59442723D01*
X132430905Y-59442723D02*
X132383286Y-59252247D01*
X132383286Y-59252247D02*
X132383286Y-59109390D01*
X132383286Y-59109390D02*
X132430905Y-58918914D01*
X132430905Y-58918914D02*
X132478524Y-58823676D01*
X132478524Y-58823676D02*
X132573762Y-58728438D01*
X132573762Y-58728438D02*
X132716619Y-58680819D01*
X132716619Y-58680819D02*
X132811857Y-58680819D01*
X132811857Y-58680819D02*
X132954714Y-58728438D01*
X132954714Y-58728438D02*
X133002333Y-58776057D01*
X133383286Y-58776057D02*
X133430905Y-58728438D01*
X133430905Y-58728438D02*
X133526143Y-58680819D01*
X133526143Y-58680819D02*
X133764238Y-58680819D01*
X133764238Y-58680819D02*
X133859476Y-58728438D01*
X133859476Y-58728438D02*
X133907095Y-58776057D01*
X133907095Y-58776057D02*
X133954714Y-58871295D01*
X133954714Y-58871295D02*
X133954714Y-58966533D01*
X133954714Y-58966533D02*
X133907095Y-59109390D01*
X133907095Y-59109390D02*
X133335667Y-59680819D01*
X133335667Y-59680819D02*
X133954714Y-59680819D01*
X185514819Y-43156094D02*
X184514819Y-43156094D01*
X184514819Y-43156094D02*
X184514819Y-42775142D01*
X184514819Y-42775142D02*
X184562438Y-42679904D01*
X184562438Y-42679904D02*
X184610057Y-42632285D01*
X184610057Y-42632285D02*
X184705295Y-42584666D01*
X184705295Y-42584666D02*
X184848152Y-42584666D01*
X184848152Y-42584666D02*
X184943390Y-42632285D01*
X184943390Y-42632285D02*
X184991009Y-42679904D01*
X184991009Y-42679904D02*
X185038628Y-42775142D01*
X185038628Y-42775142D02*
X185038628Y-43156094D01*
X185514819Y-41632285D02*
X185514819Y-42203713D01*
X185514819Y-41917999D02*
X184514819Y-41917999D01*
X184514819Y-41917999D02*
X184657676Y-42013237D01*
X184657676Y-42013237D02*
X184752914Y-42108475D01*
X184752914Y-42108475D02*
X184800533Y-42203713D01*
X185462819Y-128754094D02*
X184462819Y-128754094D01*
X184462819Y-128754094D02*
X184462819Y-128373142D01*
X184462819Y-128373142D02*
X184510438Y-128277904D01*
X184510438Y-128277904D02*
X184558057Y-128230285D01*
X184558057Y-128230285D02*
X184653295Y-128182666D01*
X184653295Y-128182666D02*
X184796152Y-128182666D01*
X184796152Y-128182666D02*
X184891390Y-128230285D01*
X184891390Y-128230285D02*
X184939009Y-128277904D01*
X184939009Y-128277904D02*
X184986628Y-128373142D01*
X184986628Y-128373142D02*
X184986628Y-128754094D01*
X184558057Y-127801713D02*
X184510438Y-127754094D01*
X184510438Y-127754094D02*
X184462819Y-127658856D01*
X184462819Y-127658856D02*
X184462819Y-127420761D01*
X184462819Y-127420761D02*
X184510438Y-127325523D01*
X184510438Y-127325523D02*
X184558057Y-127277904D01*
X184558057Y-127277904D02*
X184653295Y-127230285D01*
X184653295Y-127230285D02*
X184748533Y-127230285D01*
X184748533Y-127230285D02*
X184891390Y-127277904D01*
X184891390Y-127277904D02*
X185462819Y-127849332D01*
X185462819Y-127849332D02*
X185462819Y-127230285D01*
X99768819Y-78286857D02*
X99292628Y-78620190D01*
X99768819Y-78858285D02*
X98768819Y-78858285D01*
X98768819Y-78858285D02*
X98768819Y-78477333D01*
X98768819Y-78477333D02*
X98816438Y-78382095D01*
X98816438Y-78382095D02*
X98864057Y-78334476D01*
X98864057Y-78334476D02*
X98959295Y-78286857D01*
X98959295Y-78286857D02*
X99102152Y-78286857D01*
X99102152Y-78286857D02*
X99197390Y-78334476D01*
X99197390Y-78334476D02*
X99245009Y-78382095D01*
X99245009Y-78382095D02*
X99292628Y-78477333D01*
X99292628Y-78477333D02*
X99292628Y-78858285D01*
X99768819Y-77334476D02*
X99768819Y-77905904D01*
X99768819Y-77620190D02*
X98768819Y-77620190D01*
X98768819Y-77620190D02*
X98911676Y-77715428D01*
X98911676Y-77715428D02*
X99006914Y-77810666D01*
X99006914Y-77810666D02*
X99054533Y-77905904D01*
X99197390Y-76763047D02*
X99149771Y-76858285D01*
X99149771Y-76858285D02*
X99102152Y-76905904D01*
X99102152Y-76905904D02*
X99006914Y-76953523D01*
X99006914Y-76953523D02*
X98959295Y-76953523D01*
X98959295Y-76953523D02*
X98864057Y-76905904D01*
X98864057Y-76905904D02*
X98816438Y-76858285D01*
X98816438Y-76858285D02*
X98768819Y-76763047D01*
X98768819Y-76763047D02*
X98768819Y-76572571D01*
X98768819Y-76572571D02*
X98816438Y-76477333D01*
X98816438Y-76477333D02*
X98864057Y-76429714D01*
X98864057Y-76429714D02*
X98959295Y-76382095D01*
X98959295Y-76382095D02*
X99006914Y-76382095D01*
X99006914Y-76382095D02*
X99102152Y-76429714D01*
X99102152Y-76429714D02*
X99149771Y-76477333D01*
X99149771Y-76477333D02*
X99197390Y-76572571D01*
X99197390Y-76572571D02*
X99197390Y-76763047D01*
X99197390Y-76763047D02*
X99245009Y-76858285D01*
X99245009Y-76858285D02*
X99292628Y-76905904D01*
X99292628Y-76905904D02*
X99387866Y-76953523D01*
X99387866Y-76953523D02*
X99578342Y-76953523D01*
X99578342Y-76953523D02*
X99673580Y-76905904D01*
X99673580Y-76905904D02*
X99721200Y-76858285D01*
X99721200Y-76858285D02*
X99768819Y-76763047D01*
X99768819Y-76763047D02*
X99768819Y-76572571D01*
X99768819Y-76572571D02*
X99721200Y-76477333D01*
X99721200Y-76477333D02*
X99673580Y-76429714D01*
X99673580Y-76429714D02*
X99578342Y-76382095D01*
X99578342Y-76382095D02*
X99387866Y-76382095D01*
X99387866Y-76382095D02*
X99292628Y-76429714D01*
X99292628Y-76429714D02*
X99245009Y-76477333D01*
X99245009Y-76477333D02*
X99197390Y-76572571D01*
X74532819Y-56689523D02*
X75247104Y-56689523D01*
X75247104Y-56689523D02*
X75389961Y-56737142D01*
X75389961Y-56737142D02*
X75485200Y-56832380D01*
X75485200Y-56832380D02*
X75532819Y-56975237D01*
X75532819Y-56975237D02*
X75532819Y-57070475D01*
X75532819Y-55689523D02*
X75532819Y-56260951D01*
X75532819Y-55975237D02*
X74532819Y-55975237D01*
X74532819Y-55975237D02*
X74675676Y-56070475D01*
X74675676Y-56070475D02*
X74770914Y-56165713D01*
X74770914Y-56165713D02*
X74818533Y-56260951D01*
X74532819Y-55070475D02*
X74532819Y-54975237D01*
X74532819Y-54975237D02*
X74580438Y-54879999D01*
X74580438Y-54879999D02*
X74628057Y-54832380D01*
X74628057Y-54832380D02*
X74723295Y-54784761D01*
X74723295Y-54784761D02*
X74913771Y-54737142D01*
X74913771Y-54737142D02*
X75151866Y-54737142D01*
X75151866Y-54737142D02*
X75342342Y-54784761D01*
X75342342Y-54784761D02*
X75437580Y-54832380D01*
X75437580Y-54832380D02*
X75485200Y-54879999D01*
X75485200Y-54879999D02*
X75532819Y-54975237D01*
X75532819Y-54975237D02*
X75532819Y-55070475D01*
X75532819Y-55070475D02*
X75485200Y-55165713D01*
X75485200Y-55165713D02*
X75437580Y-55213332D01*
X75437580Y-55213332D02*
X75342342Y-55260951D01*
X75342342Y-55260951D02*
X75151866Y-55308570D01*
X75151866Y-55308570D02*
X74913771Y-55308570D01*
X74913771Y-55308570D02*
X74723295Y-55260951D01*
X74723295Y-55260951D02*
X74628057Y-55213332D01*
X74628057Y-55213332D02*
X74580438Y-55165713D01*
X74580438Y-55165713D02*
X74532819Y-55070475D01*
X77326819Y-151209333D02*
X78041104Y-151209333D01*
X78041104Y-151209333D02*
X78183961Y-151256952D01*
X78183961Y-151256952D02*
X78279200Y-151352190D01*
X78279200Y-151352190D02*
X78326819Y-151495047D01*
X78326819Y-151495047D02*
X78326819Y-151590285D01*
X77326819Y-150256952D02*
X77326819Y-150733142D01*
X77326819Y-150733142D02*
X77803009Y-150780761D01*
X77803009Y-150780761D02*
X77755390Y-150733142D01*
X77755390Y-150733142D02*
X77707771Y-150637904D01*
X77707771Y-150637904D02*
X77707771Y-150399809D01*
X77707771Y-150399809D02*
X77755390Y-150304571D01*
X77755390Y-150304571D02*
X77803009Y-150256952D01*
X77803009Y-150256952D02*
X77898247Y-150209333D01*
X77898247Y-150209333D02*
X78136342Y-150209333D01*
X78136342Y-150209333D02*
X78231580Y-150256952D01*
X78231580Y-150256952D02*
X78279200Y-150304571D01*
X78279200Y-150304571D02*
X78326819Y-150399809D01*
X78326819Y-150399809D02*
X78326819Y-150637904D01*
X78326819Y-150637904D02*
X78279200Y-150733142D01*
X78279200Y-150733142D02*
X78231580Y-150780761D01*
X187626666Y-91850819D02*
X187626666Y-92565104D01*
X187626666Y-92565104D02*
X187579047Y-92707961D01*
X187579047Y-92707961D02*
X187483809Y-92803200D01*
X187483809Y-92803200D02*
X187340952Y-92850819D01*
X187340952Y-92850819D02*
X187245714Y-92850819D01*
X188150476Y-92850819D02*
X188340952Y-92850819D01*
X188340952Y-92850819D02*
X188436190Y-92803200D01*
X188436190Y-92803200D02*
X188483809Y-92755580D01*
X188483809Y-92755580D02*
X188579047Y-92612723D01*
X188579047Y-92612723D02*
X188626666Y-92422247D01*
X188626666Y-92422247D02*
X188626666Y-92041295D01*
X188626666Y-92041295D02*
X188579047Y-91946057D01*
X188579047Y-91946057D02*
X188531428Y-91898438D01*
X188531428Y-91898438D02*
X188436190Y-91850819D01*
X188436190Y-91850819D02*
X188245714Y-91850819D01*
X188245714Y-91850819D02*
X188150476Y-91898438D01*
X188150476Y-91898438D02*
X188102857Y-91946057D01*
X188102857Y-91946057D02*
X188055238Y-92041295D01*
X188055238Y-92041295D02*
X188055238Y-92279390D01*
X188055238Y-92279390D02*
X188102857Y-92374628D01*
X188102857Y-92374628D02*
X188150476Y-92422247D01*
X188150476Y-92422247D02*
X188245714Y-92469866D01*
X188245714Y-92469866D02*
X188436190Y-92469866D01*
X188436190Y-92469866D02*
X188531428Y-92422247D01*
X188531428Y-92422247D02*
X188579047Y-92374628D01*
X188579047Y-92374628D02*
X188626666Y-92279390D01*
X149992580Y-77310857D02*
X150040200Y-77358476D01*
X150040200Y-77358476D02*
X150087819Y-77501333D01*
X150087819Y-77501333D02*
X150087819Y-77596571D01*
X150087819Y-77596571D02*
X150040200Y-77739428D01*
X150040200Y-77739428D02*
X149944961Y-77834666D01*
X149944961Y-77834666D02*
X149849723Y-77882285D01*
X149849723Y-77882285D02*
X149659247Y-77929904D01*
X149659247Y-77929904D02*
X149516390Y-77929904D01*
X149516390Y-77929904D02*
X149325914Y-77882285D01*
X149325914Y-77882285D02*
X149230676Y-77834666D01*
X149230676Y-77834666D02*
X149135438Y-77739428D01*
X149135438Y-77739428D02*
X149087819Y-77596571D01*
X149087819Y-77596571D02*
X149087819Y-77501333D01*
X149087819Y-77501333D02*
X149135438Y-77358476D01*
X149135438Y-77358476D02*
X149183057Y-77310857D01*
X150087819Y-76358476D02*
X150087819Y-76929904D01*
X150087819Y-76644190D02*
X149087819Y-76644190D01*
X149087819Y-76644190D02*
X149230676Y-76739428D01*
X149230676Y-76739428D02*
X149325914Y-76834666D01*
X149325914Y-76834666D02*
X149373533Y-76929904D01*
X149421152Y-75501333D02*
X150087819Y-75501333D01*
X149040200Y-75739428D02*
X149754485Y-75977523D01*
X149754485Y-75977523D02*
X149754485Y-75358476D01*
X137492580Y-131158857D02*
X137540200Y-131206476D01*
X137540200Y-131206476D02*
X137587819Y-131349333D01*
X137587819Y-131349333D02*
X137587819Y-131444571D01*
X137587819Y-131444571D02*
X137540200Y-131587428D01*
X137540200Y-131587428D02*
X137444961Y-131682666D01*
X137444961Y-131682666D02*
X137349723Y-131730285D01*
X137349723Y-131730285D02*
X137159247Y-131777904D01*
X137159247Y-131777904D02*
X137016390Y-131777904D01*
X137016390Y-131777904D02*
X136825914Y-131730285D01*
X136825914Y-131730285D02*
X136730676Y-131682666D01*
X136730676Y-131682666D02*
X136635438Y-131587428D01*
X136635438Y-131587428D02*
X136587819Y-131444571D01*
X136587819Y-131444571D02*
X136587819Y-131349333D01*
X136587819Y-131349333D02*
X136635438Y-131206476D01*
X136635438Y-131206476D02*
X136683057Y-131158857D01*
X137587819Y-130206476D02*
X137587819Y-130777904D01*
X137587819Y-130492190D02*
X136587819Y-130492190D01*
X136587819Y-130492190D02*
X136730676Y-130587428D01*
X136730676Y-130587428D02*
X136825914Y-130682666D01*
X136825914Y-130682666D02*
X136873533Y-130777904D01*
X136587819Y-129301714D02*
X136587819Y-129777904D01*
X136587819Y-129777904D02*
X137064009Y-129825523D01*
X137064009Y-129825523D02*
X137016390Y-129777904D01*
X137016390Y-129777904D02*
X136968771Y-129682666D01*
X136968771Y-129682666D02*
X136968771Y-129444571D01*
X136968771Y-129444571D02*
X137016390Y-129349333D01*
X137016390Y-129349333D02*
X137064009Y-129301714D01*
X137064009Y-129301714D02*
X137159247Y-129254095D01*
X137159247Y-129254095D02*
X137397342Y-129254095D01*
X137397342Y-129254095D02*
X137492580Y-129301714D01*
X137492580Y-129301714D02*
X137540200Y-129349333D01*
X137540200Y-129349333D02*
X137587819Y-129444571D01*
X137587819Y-129444571D02*
X137587819Y-129682666D01*
X137587819Y-129682666D02*
X137540200Y-129777904D01*
X137540200Y-129777904D02*
X137492580Y-129825523D01*
X176456095Y-102558819D02*
X176456095Y-101558819D01*
X176456095Y-102035009D02*
X177027523Y-102035009D01*
X177027523Y-102558819D02*
X177027523Y-101558819D01*
X177932285Y-101558819D02*
X177741809Y-101558819D01*
X177741809Y-101558819D02*
X177646571Y-101606438D01*
X177646571Y-101606438D02*
X177598952Y-101654057D01*
X177598952Y-101654057D02*
X177503714Y-101796914D01*
X177503714Y-101796914D02*
X177456095Y-101987390D01*
X177456095Y-101987390D02*
X177456095Y-102368342D01*
X177456095Y-102368342D02*
X177503714Y-102463580D01*
X177503714Y-102463580D02*
X177551333Y-102511200D01*
X177551333Y-102511200D02*
X177646571Y-102558819D01*
X177646571Y-102558819D02*
X177837047Y-102558819D01*
X177837047Y-102558819D02*
X177932285Y-102511200D01*
X177932285Y-102511200D02*
X177979904Y-102463580D01*
X177979904Y-102463580D02*
X178027523Y-102368342D01*
X178027523Y-102368342D02*
X178027523Y-102130247D01*
X178027523Y-102130247D02*
X177979904Y-102035009D01*
X177979904Y-102035009D02*
X177932285Y-101987390D01*
X177932285Y-101987390D02*
X177837047Y-101939771D01*
X177837047Y-101939771D02*
X177646571Y-101939771D01*
X177646571Y-101939771D02*
X177551333Y-101987390D01*
X177551333Y-101987390D02*
X177503714Y-102035009D01*
X177503714Y-102035009D02*
X177456095Y-102130247D01*
X53495319Y-87259594D02*
X52495319Y-87259594D01*
X53495319Y-86688166D02*
X52923890Y-87116737D01*
X52495319Y-86688166D02*
X53066747Y-87259594D01*
X52590557Y-86307213D02*
X52542938Y-86259594D01*
X52542938Y-86259594D02*
X52495319Y-86164356D01*
X52495319Y-86164356D02*
X52495319Y-85926261D01*
X52495319Y-85926261D02*
X52542938Y-85831023D01*
X52542938Y-85831023D02*
X52590557Y-85783404D01*
X52590557Y-85783404D02*
X52685795Y-85735785D01*
X52685795Y-85735785D02*
X52781033Y-85735785D01*
X52781033Y-85735785D02*
X52923890Y-85783404D01*
X52923890Y-85783404D02*
X53495319Y-86354832D01*
X53495319Y-86354832D02*
X53495319Y-85735785D01*
X110456095Y-102558819D02*
X110456095Y-101558819D01*
X110456095Y-102035009D02*
X111027523Y-102035009D01*
X111027523Y-102558819D02*
X111027523Y-101558819D01*
X111979904Y-101558819D02*
X111503714Y-101558819D01*
X111503714Y-101558819D02*
X111456095Y-102035009D01*
X111456095Y-102035009D02*
X111503714Y-101987390D01*
X111503714Y-101987390D02*
X111598952Y-101939771D01*
X111598952Y-101939771D02*
X111837047Y-101939771D01*
X111837047Y-101939771D02*
X111932285Y-101987390D01*
X111932285Y-101987390D02*
X111979904Y-102035009D01*
X111979904Y-102035009D02*
X112027523Y-102130247D01*
X112027523Y-102130247D02*
X112027523Y-102368342D01*
X112027523Y-102368342D02*
X111979904Y-102463580D01*
X111979904Y-102463580D02*
X111932285Y-102511200D01*
X111932285Y-102511200D02*
X111837047Y-102558819D01*
X111837047Y-102558819D02*
X111598952Y-102558819D01*
X111598952Y-102558819D02*
X111503714Y-102511200D01*
X111503714Y-102511200D02*
X111456095Y-102463580D01*
D12*
X68354000Y-123016000D02*
X68354000Y-117776000D01*
X79594000Y-117776000D02*
X68354000Y-117776000D01*
X79594000Y-123016000D02*
X68354000Y-123016000D01*
X79594000Y-123016000D02*
X79594000Y-117776000D01*
X130937000Y-125762000D02*
X130937000Y-132302000D01*
X130937000Y-132302000D02*
X133677000Y-132302000D01*
X132307000Y-124992000D02*
X132307000Y-125762000D01*
X132307000Y-133072000D02*
X132307000Y-132302000D01*
X133677000Y-125762000D02*
X130937000Y-125762000D01*
X133677000Y-132302000D02*
X133677000Y-125762000D01*
X149506000Y-66072000D02*
X149506000Y-72612000D01*
X149506000Y-72612000D02*
X152246000Y-72612000D01*
X150876000Y-65302000D02*
X150876000Y-66072000D01*
X150876000Y-73382000D02*
X150876000Y-72612000D01*
X152246000Y-66072000D02*
X149506000Y-66072000D01*
X152246000Y-72612000D02*
X152246000Y-66072000D01*
X68988000Y-106712000D02*
X68988000Y-113252000D01*
X68988000Y-113252000D02*
X71728000Y-113252000D01*
X70358000Y-105942000D02*
X70358000Y-106712000D01*
X70358000Y-114022000D02*
X70358000Y-113252000D01*
X71728000Y-106712000D02*
X68988000Y-106712000D01*
X71728000Y-113252000D02*
X71728000Y-106712000D01*
X62384000Y-125762000D02*
X62384000Y-132302000D01*
X62384000Y-132302000D02*
X65124000Y-132302000D01*
X63754000Y-124992000D02*
X63754000Y-125762000D01*
X63754000Y-133072000D02*
X63754000Y-132302000D01*
X65124000Y-125762000D02*
X62384000Y-125762000D01*
X65124000Y-132302000D02*
X65124000Y-125762000D01*
X149506000Y-81058000D02*
X149506000Y-87598000D01*
X149506000Y-87598000D02*
X152246000Y-87598000D01*
X150876000Y-80288000D02*
X150876000Y-81058000D01*
X150876000Y-88368000D02*
X150876000Y-87598000D01*
X152246000Y-81058000D02*
X149506000Y-81058000D01*
X152246000Y-87598000D02*
X152246000Y-81058000D01*
X154586000Y-81058000D02*
X154586000Y-87598000D01*
X154586000Y-87598000D02*
X157326000Y-87598000D01*
X155956000Y-80288000D02*
X155956000Y-81058000D01*
X155956000Y-88368000D02*
X155956000Y-87598000D01*
X157326000Y-81058000D02*
X154586000Y-81058000D01*
X157326000Y-87598000D02*
X157326000Y-81058000D01*
X86103000Y-88138000D02*
X89413000Y-88138000D01*
X89413000Y-86768000D02*
X89413000Y-89508000D01*
X89413000Y-89508000D02*
X95953000Y-89508000D01*
X95953000Y-86768000D02*
X89413000Y-86768000D01*
X95953000Y-89508000D02*
X95953000Y-86768000D01*
X99263000Y-88138000D02*
X95953000Y-88138000D01*
X154332000Y-119666000D02*
X154332000Y-126206000D01*
X154332000Y-126206000D02*
X157072000Y-126206000D01*
X155702000Y-118896000D02*
X155702000Y-119666000D01*
X155702000Y-126976000D02*
X155702000Y-126206000D01*
X157072000Y-119666000D02*
X154332000Y-119666000D01*
X157072000Y-126206000D02*
X157072000Y-119666000D01*
X149506000Y-119666000D02*
X149506000Y-126206000D01*
X149506000Y-126206000D02*
X152246000Y-126206000D01*
X150876000Y-118896000D02*
X150876000Y-119666000D01*
X150876000Y-126976000D02*
X150876000Y-126206000D01*
X152246000Y-119666000D02*
X149506000Y-119666000D01*
X152246000Y-126206000D02*
X152246000Y-119666000D01*
X72544000Y-106712000D02*
X72544000Y-113252000D01*
X72544000Y-113252000D02*
X75284000Y-113252000D01*
X73914000Y-105942000D02*
X73914000Y-106712000D01*
X73914000Y-114022000D02*
X73914000Y-113252000D01*
X75284000Y-106712000D02*
X72544000Y-106712000D01*
X75284000Y-113252000D02*
X75284000Y-106712000D01*
X149506000Y-132747000D02*
X149506000Y-139287000D01*
X149506000Y-139287000D02*
X152246000Y-139287000D01*
X150876000Y-131977000D02*
X150876000Y-132747000D01*
X150876000Y-140057000D02*
X150876000Y-139287000D01*
X152246000Y-132747000D02*
X149506000Y-132747000D01*
X152246000Y-139287000D02*
X152246000Y-132747000D01*
X108442000Y-113952000D02*
X109442000Y-113952000D01*
X108442000Y-123772000D02*
X108442000Y-113952000D01*
X109442000Y-112552000D02*
X111252000Y-112552000D01*
X109442000Y-113952000D02*
X109442000Y-112552000D01*
X111252000Y-123772000D02*
X108442000Y-123772000D01*
X111252000Y-123772000D02*
X114062000Y-123772000D01*
X111452000Y-124012000D02*
X114302000Y-124012000D01*
X113062000Y-112552000D02*
X111252000Y-112552000D01*
X113062000Y-113952000D02*
X113062000Y-112552000D01*
X114062000Y-113952000D02*
X113062000Y-113952000D01*
X114062000Y-123772000D02*
X114062000Y-113952000D01*
X114302000Y-124012000D02*
X114302000Y-121162000D01*
X153336000Y-50434000D02*
X153336000Y-61674000D01*
X158576000Y-50434000D02*
X153336000Y-50434000D01*
X158576000Y-50434000D02*
X158576000Y-61674000D01*
X158576000Y-61674000D02*
X153336000Y-61674000D01*
X104056000Y-130048000D02*
X105896000Y-130048000D01*
X105896000Y-126178000D02*
X105896000Y-133918000D01*
X105896000Y-133918000D02*
X125136000Y-133918000D01*
X125136000Y-126178000D02*
X105896000Y-126178000D01*
X125136000Y-133918000D02*
X125136000Y-126178000D01*
X126976000Y-130048000D02*
X125136000Y-130048000D01*
X153336000Y-62392000D02*
X158576000Y-62392000D01*
X153336000Y-73632000D02*
X153336000Y-62392000D01*
X153336000Y-73632000D02*
X158576000Y-73632000D01*
X158576000Y-73632000D02*
X158576000Y-62392000D01*
X59884000Y-98638000D02*
X59884000Y-117878000D01*
X59884000Y-117878000D02*
X67624000Y-117878000D01*
X63754000Y-96798000D02*
X63754000Y-98638000D01*
X63754000Y-119718000D02*
X63754000Y-117878000D01*
X67624000Y-98638000D02*
X59884000Y-98638000D01*
X67624000Y-117878000D02*
X67624000Y-98638000D01*
X121836000Y-150876000D02*
X123676000Y-150876000D01*
X123676000Y-147006000D02*
X123676000Y-154746000D01*
X123676000Y-154746000D02*
X142916000Y-154746000D01*
X142916000Y-147006000D02*
X123676000Y-147006000D01*
X142916000Y-154746000D02*
X142916000Y-147006000D01*
X144756000Y-150876000D02*
X142916000Y-150876000D01*
X153082000Y-131854000D02*
X158322000Y-131854000D01*
X153082000Y-143094000D02*
X153082000Y-131854000D01*
X153082000Y-143094000D02*
X158322000Y-143094000D01*
X158322000Y-143094000D02*
X158322000Y-131854000D01*
X121896000Y-141097000D02*
X123736000Y-141097000D01*
X123736000Y-137227000D02*
X123736000Y-144967000D01*
X123736000Y-144967000D02*
X142976000Y-144967000D01*
X142976000Y-137227000D02*
X123736000Y-137227000D01*
X142976000Y-144967000D02*
X142976000Y-137227000D01*
X144816000Y-141097000D02*
X142976000Y-141097000D01*
X153082000Y-143926000D02*
X153082000Y-155166000D01*
X158322000Y-143926000D02*
X153082000Y-143926000D01*
X158322000Y-143926000D02*
X158322000Y-155166000D01*
X158322000Y-155166000D02*
X153082000Y-155166000D01*
X165878000Y-85852000D02*
X167018000Y-85852000D01*
X167018000Y-81232000D02*
X167018000Y-90472000D01*
X167018000Y-90472000D02*
X187258000Y-90472000D01*
X187258000Y-81232000D02*
X167018000Y-81232000D01*
X187258000Y-90472000D02*
X187258000Y-81232000D01*
X188398000Y-85852000D02*
X187258000Y-85852000D01*
X195024000Y-130977000D02*
X195024000Y-151217000D01*
X195024000Y-151217000D02*
X204264000Y-151217000D01*
X199644000Y-129837000D02*
X199644000Y-130977000D01*
X199644000Y-152357000D02*
X199644000Y-151217000D01*
X204264000Y-130977000D02*
X195024000Y-130977000D01*
X204264000Y-151217000D02*
X204264000Y-130977000D01*
X165878000Y-117649000D02*
X167018000Y-117649000D01*
X167018000Y-113029000D02*
X167018000Y-122269000D01*
X167018000Y-122269000D02*
X187258000Y-122269000D01*
X187258000Y-113029000D02*
X167018000Y-113029000D01*
X187258000Y-122269000D02*
X187258000Y-113029000D01*
X188398000Y-117649000D02*
X187258000Y-117649000D01*
X115216000Y-142272000D02*
X115216000Y-148812000D01*
X115216000Y-148812000D02*
X117956000Y-148812000D01*
X116586000Y-141502000D02*
X116586000Y-142272000D01*
X116586000Y-149582000D02*
X116586000Y-148812000D01*
X117956000Y-142272000D02*
X115216000Y-142272000D01*
X117956000Y-148812000D02*
X117956000Y-142272000D01*
X130937000Y-74374000D02*
X130937000Y-80914000D01*
X130937000Y-80914000D02*
X133677000Y-80914000D01*
X132307000Y-73604000D02*
X132307000Y-74374000D01*
X132307000Y-81684000D02*
X132307000Y-80914000D01*
X133677000Y-74374000D02*
X130937000Y-74374000D01*
X133677000Y-80914000D02*
X133677000Y-74374000D01*
X83081000Y-150876000D02*
X84221000Y-150876000D01*
X84221000Y-146256000D02*
X84221000Y-155496000D01*
X84221000Y-155496000D02*
X104461000Y-155496000D01*
X104461000Y-146256000D02*
X84221000Y-146256000D01*
X104461000Y-155496000D02*
X104461000Y-146256000D01*
X105601000Y-150876000D02*
X104461000Y-150876000D01*
X195024000Y-63079000D02*
X195024000Y-83319000D01*
X195024000Y-83319000D02*
X204264000Y-83319000D01*
X199644000Y-61939000D02*
X199644000Y-63079000D01*
X199644000Y-84459000D02*
X199644000Y-83319000D01*
X204264000Y-63079000D02*
X195024000Y-63079000D01*
X204264000Y-83319000D02*
X204264000Y-63079000D01*
X56034000Y-106966000D02*
X56034000Y-113506000D01*
X56034000Y-113506000D02*
X58774000Y-113506000D01*
X57404000Y-106196000D02*
X57404000Y-106966000D01*
X57404000Y-114276000D02*
X57404000Y-113506000D01*
X58774000Y-106966000D02*
X56034000Y-106966000D01*
X58774000Y-113506000D02*
X58774000Y-106966000D01*
X56558000Y-78914000D02*
X57578000Y-78914000D01*
X57578000Y-77444000D02*
X57578000Y-80384000D01*
X57578000Y-80384000D02*
X63018000Y-80384000D01*
X61998000Y-80384000D02*
X61998000Y-77444000D01*
X62118000Y-80384000D02*
X62118000Y-77444000D01*
X62238000Y-80384000D02*
X62238000Y-77444000D01*
X63018000Y-77444000D02*
X57578000Y-77444000D01*
X63018000Y-80384000D02*
X63018000Y-77444000D01*
X64038000Y-78914000D02*
X63018000Y-78914000D01*
X57548000Y-68872000D02*
X57548000Y-74892000D01*
X57548000Y-74892000D02*
X62848000Y-74892000D01*
X58128000Y-74292000D02*
X58128000Y-74892000D01*
X58928000Y-69872000D02*
X58928000Y-68872000D01*
X59178000Y-68872000D02*
X59178000Y-69872000D01*
X59178000Y-70402000D02*
X58928000Y-69872000D01*
X59728000Y-74292000D02*
X58128000Y-74292000D01*
X59728000Y-74892000D02*
X59728000Y-74292000D01*
X60668000Y-74292000D02*
X60668000Y-74892000D01*
X61218000Y-68872000D02*
X61218000Y-69872000D01*
X61218000Y-70402000D02*
X59178000Y-70402000D01*
X61468000Y-68872000D02*
X61468000Y-69872000D01*
X61468000Y-69872000D02*
X58928000Y-69872000D01*
X61468000Y-69872000D02*
X61218000Y-70402000D01*
X62268000Y-74292000D02*
X60668000Y-74292000D01*
X62268000Y-74892000D02*
X62268000Y-74292000D01*
X62848000Y-68872000D02*
X57548000Y-68872000D01*
X62848000Y-74892000D02*
X62848000Y-68872000D01*
X63138000Y-73862000D02*
X63138000Y-69862000D01*
X112773000Y-88138000D02*
X116083000Y-88138000D01*
X116083000Y-86768000D02*
X116083000Y-89508000D01*
X116083000Y-89508000D02*
X122623000Y-89508000D01*
X122623000Y-86768000D02*
X116083000Y-86768000D01*
X122623000Y-89508000D02*
X122623000Y-86768000D01*
X125933000Y-88138000D02*
X122623000Y-88138000D01*
X196018000Y-93210000D02*
X196018000Y-96060000D01*
X196258000Y-93450000D02*
X196258000Y-103270000D01*
X196258000Y-103270000D02*
X199358000Y-103270000D01*
X198868000Y-93210000D02*
X196018000Y-93210000D01*
X199358000Y-103270000D02*
X199358000Y-104670000D01*
X199358000Y-104670000D02*
X201168000Y-104670000D01*
X201168000Y-93450000D02*
X196258000Y-93450000D01*
X201168000Y-93450000D02*
X206078000Y-93450000D01*
X202978000Y-103270000D02*
X202978000Y-104670000D01*
X202978000Y-104670000D02*
X201168000Y-104670000D01*
X206078000Y-93450000D02*
X206078000Y-103270000D01*
X206078000Y-103270000D02*
X202978000Y-103270000D01*
X49698000Y-104919000D02*
X49698000Y-115139000D01*
X49698000Y-115139000D02*
X53718000Y-115139000D01*
X50198000Y-105419000D02*
X51408000Y-105419000D01*
X50198000Y-114639000D02*
X50198000Y-105419000D01*
X51408000Y-105419000D02*
X51408000Y-104919000D01*
X51408000Y-114639000D02*
X50198000Y-114639000D01*
X51408000Y-115139000D02*
X51408000Y-114639000D01*
X51518000Y-115439000D02*
X54018000Y-115439000D01*
X52218000Y-104919000D02*
X52218000Y-105919000D01*
X52218000Y-105919000D02*
X53718000Y-105919000D01*
X52218000Y-114139000D02*
X53718000Y-114139000D01*
X52218000Y-115139000D02*
X52218000Y-114139000D01*
X53718000Y-104919000D02*
X49698000Y-104919000D01*
X53718000Y-115139000D02*
X53718000Y-104919000D01*
X54018000Y-115439000D02*
X54018000Y-112939000D01*
X50323000Y-128969000D02*
X50323000Y-134269000D01*
X50323000Y-130349000D02*
X51323000Y-130349000D01*
X50323000Y-130599000D02*
X51323000Y-130599000D01*
X50323000Y-132639000D02*
X51323000Y-132639000D01*
X50323000Y-134269000D02*
X56343000Y-134269000D01*
X51323000Y-130349000D02*
X51323000Y-132889000D01*
X51323000Y-130349000D02*
X51853000Y-130599000D01*
X51323000Y-132889000D02*
X50323000Y-132889000D01*
X51853000Y-130599000D02*
X51853000Y-132639000D01*
X51853000Y-132639000D02*
X51323000Y-132889000D01*
X55313000Y-128679000D02*
X51313000Y-128679000D01*
X55743000Y-129549000D02*
X55743000Y-131149000D01*
X55743000Y-131149000D02*
X56343000Y-131149000D01*
X55743000Y-132089000D02*
X55743000Y-133689000D01*
X55743000Y-133689000D02*
X56343000Y-133689000D01*
X56343000Y-128969000D02*
X50323000Y-128969000D01*
X56343000Y-129549000D02*
X55743000Y-129549000D01*
X56343000Y-132089000D02*
X55743000Y-132089000D01*
X56343000Y-134269000D02*
X56343000Y-128969000D01*
X147662000Y-100496000D02*
X147662000Y-101496000D01*
X147662000Y-101496000D02*
X148662000Y-100996000D01*
X148662000Y-100996000D02*
X147662000Y-100496000D01*
X149052000Y-95786000D02*
X158172000Y-95786000D01*
X149052000Y-102756000D02*
X150362000Y-102756000D01*
X149052000Y-113826000D02*
X149052000Y-95786000D01*
X150362000Y-97086000D02*
X156862000Y-97086000D01*
X150362000Y-102756000D02*
X150362000Y-97086000D01*
X150362000Y-106856000D02*
X149052000Y-106856000D01*
X150362000Y-106856000D02*
X150362000Y-106856000D01*
X150362000Y-112526000D02*
X150362000Y-106856000D01*
X156862000Y-97086000D02*
X156862000Y-112526000D01*
X156862000Y-112526000D02*
X150362000Y-112526000D01*
X158172000Y-95786000D02*
X158172000Y-113826000D01*
X158172000Y-113826000D02*
X149052000Y-113826000D01*
X94642000Y-122968000D02*
X94642000Y-129508000D01*
X94642000Y-129508000D02*
X97382000Y-129508000D01*
X96012000Y-122198000D02*
X96012000Y-122968000D01*
X96012000Y-130278000D02*
X96012000Y-129508000D01*
X97382000Y-122968000D02*
X94642000Y-122968000D01*
X97382000Y-129508000D02*
X97382000Y-122968000D01*
X50323000Y-140399000D02*
X50323000Y-145699000D01*
X50323000Y-141779000D02*
X51323000Y-141779000D01*
X50323000Y-142029000D02*
X51323000Y-142029000D01*
X50323000Y-144069000D02*
X51323000Y-144069000D01*
X50323000Y-145699000D02*
X56343000Y-145699000D01*
X51323000Y-141779000D02*
X51323000Y-144319000D01*
X51323000Y-141779000D02*
X51853000Y-142029000D01*
X51323000Y-144319000D02*
X50323000Y-144319000D01*
X51853000Y-142029000D02*
X51853000Y-144069000D01*
X51853000Y-144069000D02*
X51323000Y-144319000D01*
X55313000Y-140109000D02*
X51313000Y-140109000D01*
X55743000Y-140979000D02*
X55743000Y-142579000D01*
X55743000Y-142579000D02*
X56343000Y-142579000D01*
X55743000Y-143519000D02*
X55743000Y-145119000D01*
X55743000Y-145119000D02*
X56343000Y-145119000D01*
X56343000Y-140399000D02*
X50323000Y-140399000D01*
X56343000Y-140979000D02*
X55743000Y-140979000D01*
X56343000Y-143519000D02*
X55743000Y-143519000D01*
X56343000Y-145699000D02*
X56343000Y-140399000D01*
X79918000Y-143844000D02*
X79918000Y-138604000D01*
X91158000Y-138604000D02*
X79918000Y-138604000D01*
X91158000Y-143844000D02*
X79918000Y-143844000D01*
X91158000Y-143844000D02*
X91158000Y-138604000D01*
X115216000Y-56166000D02*
X115216000Y-62706000D01*
X115216000Y-62706000D02*
X117956000Y-62706000D01*
X116586000Y-55396000D02*
X116586000Y-56166000D01*
X116586000Y-63476000D02*
X116586000Y-62706000D01*
X117956000Y-56166000D02*
X115216000Y-56166000D01*
X117956000Y-62706000D02*
X117956000Y-56166000D01*
X104183000Y-77644000D02*
X106023000Y-77644000D01*
X106023000Y-73774000D02*
X106023000Y-81514000D01*
X106023000Y-81514000D02*
X125263000Y-81514000D01*
X125263000Y-73774000D02*
X106023000Y-73774000D01*
X125263000Y-81514000D02*
X125263000Y-73774000D01*
X127103000Y-77644000D02*
X125263000Y-77644000D01*
X85968000Y-48708000D02*
X85968000Y-51558000D01*
X86208000Y-48948000D02*
X86208000Y-58768000D01*
X86208000Y-58768000D02*
X91408000Y-58768000D01*
X88818000Y-48708000D02*
X85968000Y-48708000D01*
X91408000Y-58768000D02*
X91408000Y-60168000D01*
X91408000Y-60168000D02*
X93218000Y-60168000D01*
X93218000Y-48948000D02*
X86208000Y-48948000D01*
X93218000Y-48948000D02*
X100228000Y-48948000D01*
X95028000Y-58768000D02*
X95028000Y-60168000D01*
X95028000Y-60168000D02*
X93218000Y-60168000D01*
X100228000Y-48948000D02*
X100228000Y-58768000D01*
X100228000Y-58768000D02*
X95028000Y-58768000D01*
X121709000Y-64309000D02*
X123549000Y-64309000D01*
X123549000Y-60439000D02*
X123549000Y-68179000D01*
X123549000Y-68179000D02*
X142789000Y-68179000D01*
X142789000Y-60439000D02*
X123549000Y-60439000D01*
X142789000Y-68179000D02*
X142789000Y-60439000D01*
X144629000Y-64309000D02*
X142789000Y-64309000D01*
X121709000Y-54356000D02*
X123549000Y-54356000D01*
X123549000Y-50486000D02*
X123549000Y-58226000D01*
X123549000Y-58226000D02*
X142789000Y-58226000D01*
X142789000Y-50486000D02*
X123549000Y-50486000D01*
X142789000Y-58226000D02*
X142789000Y-50486000D01*
X144629000Y-54356000D02*
X142789000Y-54356000D01*
X172750000Y-40608000D02*
X172750000Y-42418000D01*
X172750000Y-44228000D02*
X172750000Y-42418000D01*
X174150000Y-39608000D02*
X174150000Y-40608000D01*
X174150000Y-40608000D02*
X172750000Y-40608000D01*
X174150000Y-44228000D02*
X172750000Y-44228000D01*
X174150000Y-45228000D02*
X174150000Y-44228000D01*
X183970000Y-39608000D02*
X174150000Y-39608000D01*
X183970000Y-42418000D02*
X183970000Y-39608000D01*
X183970000Y-42418000D02*
X183970000Y-45228000D01*
X183970000Y-45228000D02*
X174150000Y-45228000D01*
X184210000Y-39368000D02*
X181360000Y-39368000D01*
X184210000Y-42218000D02*
X184210000Y-39368000D01*
X172698000Y-126206000D02*
X172698000Y-128016000D01*
X172698000Y-129826000D02*
X172698000Y-128016000D01*
X174098000Y-125206000D02*
X174098000Y-126206000D01*
X174098000Y-126206000D02*
X172698000Y-126206000D01*
X174098000Y-129826000D02*
X172698000Y-129826000D01*
X174098000Y-130826000D02*
X174098000Y-129826000D01*
X183918000Y-125206000D02*
X174098000Y-125206000D01*
X183918000Y-128016000D02*
X183918000Y-125206000D01*
X183918000Y-128016000D02*
X183918000Y-130826000D01*
X183918000Y-130826000D02*
X174098000Y-130826000D01*
X184158000Y-124966000D02*
X181308000Y-124966000D01*
X184158000Y-127816000D02*
X184158000Y-124966000D01*
X95404000Y-74374000D02*
X95404000Y-80914000D01*
X95404000Y-80914000D02*
X98144000Y-80914000D01*
X96774000Y-73604000D02*
X96774000Y-74374000D01*
X96774000Y-81684000D02*
X96774000Y-80914000D01*
X98144000Y-74374000D02*
X95404000Y-74374000D01*
X98144000Y-80914000D02*
X98144000Y-74374000D01*
X62768000Y-55086000D02*
X62768000Y-56896000D01*
X62768000Y-58706000D02*
X62768000Y-56896000D01*
X64168000Y-54086000D02*
X64168000Y-55086000D01*
X64168000Y-55086000D02*
X62768000Y-55086000D01*
X64168000Y-58706000D02*
X62768000Y-58706000D01*
X64168000Y-59706000D02*
X64168000Y-58706000D01*
X73988000Y-54086000D02*
X64168000Y-54086000D01*
X73988000Y-56896000D02*
X73988000Y-54086000D01*
X73988000Y-56896000D02*
X73988000Y-59706000D01*
X73988000Y-59706000D02*
X64168000Y-59706000D01*
X74228000Y-53846000D02*
X71378000Y-53846000D01*
X74228000Y-56696000D02*
X74228000Y-53846000D01*
X65562000Y-149066000D02*
X65562000Y-150876000D01*
X65562000Y-152686000D02*
X65562000Y-150876000D01*
X66962000Y-148066000D02*
X66962000Y-149066000D01*
X66962000Y-149066000D02*
X65562000Y-149066000D01*
X66962000Y-152686000D02*
X65562000Y-152686000D01*
X66962000Y-153686000D02*
X66962000Y-152686000D01*
X76782000Y-148066000D02*
X66962000Y-148066000D01*
X76782000Y-150876000D02*
X76782000Y-148066000D01*
X76782000Y-150876000D02*
X76782000Y-153686000D01*
X76782000Y-153686000D02*
X66962000Y-153686000D01*
X77022000Y-147826000D02*
X74172000Y-147826000D01*
X77022000Y-150676000D02*
X77022000Y-147826000D01*
X184910000Y-93246000D02*
X184910000Y-96096000D01*
X185150000Y-93486000D02*
X185150000Y-103306000D01*
X185150000Y-103306000D02*
X186150000Y-103306000D01*
X186150000Y-103306000D02*
X186150000Y-104706000D01*
X186150000Y-104706000D02*
X187960000Y-104706000D01*
X187760000Y-93246000D02*
X184910000Y-93246000D01*
X187960000Y-93486000D02*
X185150000Y-93486000D01*
X187960000Y-93486000D02*
X190770000Y-93486000D01*
X189770000Y-103306000D02*
X189770000Y-104706000D01*
X189770000Y-104706000D02*
X187960000Y-104706000D01*
X190770000Y-93486000D02*
X190770000Y-103306000D01*
X190770000Y-103306000D02*
X189770000Y-103306000D01*
X142142000Y-77949000D02*
X138465000Y-77949000D01*
X142142000Y-77989000D02*
X138476000Y-77989000D01*
X142142000Y-78029000D02*
X138486000Y-78029000D01*
X142142000Y-78069000D02*
X138498000Y-78069000D01*
X142142000Y-78109000D02*
X138509000Y-78109000D01*
X142142000Y-78149000D02*
X138521000Y-78149000D01*
X142142000Y-78189000D02*
X138533000Y-78189000D01*
X142142000Y-78229000D02*
X138546000Y-78229000D01*
X142142000Y-78269000D02*
X138559000Y-78269000D01*
X142142000Y-78309000D02*
X138572000Y-78309000D01*
X142142000Y-78349000D02*
X138586000Y-78349000D01*
X142142000Y-78389000D02*
X138600000Y-78389000D01*
X142142000Y-78429000D02*
X138615000Y-78429000D01*
X142142000Y-78469000D02*
X138629000Y-78469000D01*
X142142000Y-78509000D02*
X138645000Y-78509000D01*
X142142000Y-78549000D02*
X138660000Y-78549000D01*
X142142000Y-78589000D02*
X138676000Y-78589000D01*
X142142000Y-78629000D02*
X138693000Y-78629000D01*
X142142000Y-78669000D02*
X138709000Y-78669000D01*
X142142000Y-78709000D02*
X138726000Y-78709000D01*
X142142000Y-78749000D02*
X138744000Y-78749000D01*
X142142000Y-78789000D02*
X138762000Y-78789000D01*
X142142000Y-78829000D02*
X138780000Y-78829000D01*
X142142000Y-78869000D02*
X138799000Y-78869000D01*
X142142000Y-78909000D02*
X138819000Y-78909000D01*
X142142000Y-78949000D02*
X138838000Y-78949000D01*
X142142000Y-78989000D02*
X138858000Y-78989000D01*
X142142000Y-79029000D02*
X138879000Y-79029000D01*
X142142000Y-79069000D02*
X138900000Y-79069000D01*
X142142000Y-79109000D02*
X138921000Y-79109000D01*
X142142000Y-79149000D02*
X138943000Y-79149000D01*
X142142000Y-79189000D02*
X138966000Y-79189000D01*
X142142000Y-79229000D02*
X138988000Y-79229000D01*
X142142000Y-79269000D02*
X139012000Y-79269000D01*
X142142000Y-79309000D02*
X139036000Y-79309000D01*
X142142000Y-79349000D02*
X139060000Y-79349000D01*
X142142000Y-79389000D02*
X139085000Y-79389000D01*
X142142000Y-79429000D02*
X139110000Y-79429000D01*
X142142000Y-79469000D02*
X139136000Y-79469000D01*
X142142000Y-79509000D02*
X139162000Y-79509000D01*
X142142000Y-79549000D02*
X139189000Y-79549000D01*
X142142000Y-79589000D02*
X139217000Y-79589000D01*
X142142000Y-79629000D02*
X139245000Y-79629000D01*
X142142000Y-79669000D02*
X139273000Y-79669000D01*
X142142000Y-79709000D02*
X139303000Y-79709000D01*
X142142000Y-79749000D02*
X139333000Y-79749000D01*
X142142000Y-79789000D02*
X139363000Y-79789000D01*
X142142000Y-79829000D02*
X139394000Y-79829000D01*
X142142000Y-79869000D02*
X139426000Y-79869000D01*
X142142000Y-79909000D02*
X139458000Y-79909000D01*
X142142000Y-79949000D02*
X139491000Y-79949000D01*
X142142000Y-79989000D02*
X139525000Y-79989000D01*
X142142000Y-80029000D02*
X139559000Y-80029000D01*
X142142000Y-80069000D02*
X139594000Y-80069000D01*
X142142000Y-80109000D02*
X139630000Y-80109000D01*
X142142000Y-80149000D02*
X139667000Y-80149000D01*
X142142000Y-80189000D02*
X139704000Y-80189000D01*
X142142000Y-80229000D02*
X139743000Y-80229000D01*
X142142000Y-80269000D02*
X139782000Y-80269000D01*
X142142000Y-80309000D02*
X139822000Y-80309000D01*
X142142000Y-80349000D02*
X139863000Y-80349000D01*
X142142000Y-80389000D02*
X139905000Y-80389000D01*
X143982000Y-81749000D02*
X142784000Y-81749000D01*
X144245000Y-81709000D02*
X142521000Y-81709000D01*
X144445000Y-81669000D02*
X142321000Y-81669000D01*
X144613000Y-81629000D02*
X142153000Y-81629000D01*
X144761000Y-81589000D02*
X142005000Y-81589000D01*
X144893000Y-81549000D02*
X141873000Y-81549000D01*
X145013000Y-81509000D02*
X141753000Y-81509000D01*
X145125000Y-81469000D02*
X141641000Y-81469000D01*
X145229000Y-81429000D02*
X141537000Y-81429000D01*
X145327000Y-81389000D02*
X141439000Y-81389000D01*
X145420000Y-81349000D02*
X141346000Y-81349000D01*
X145508000Y-81309000D02*
X141258000Y-81309000D01*
X145592000Y-81269000D02*
X141174000Y-81269000D01*
X145672000Y-81229000D02*
X141094000Y-81229000D01*
X145748000Y-81189000D02*
X141018000Y-81189000D01*
X145822000Y-81149000D02*
X140944000Y-81149000D01*
X145893000Y-81109000D02*
X140873000Y-81109000D01*
X145962000Y-81069000D02*
X140804000Y-81069000D01*
X146028000Y-81029000D02*
X140738000Y-81029000D01*
X146092000Y-80989000D02*
X140674000Y-80989000D01*
X146153000Y-80949000D02*
X140613000Y-80949000D01*
X146213000Y-80909000D02*
X140553000Y-80909000D01*
X146258000Y-71188354D02*
X146258000Y-72188354D01*
X146272000Y-80869000D02*
X140494000Y-80869000D01*
X146328000Y-80829000D02*
X140438000Y-80829000D01*
X146383000Y-80789000D02*
X140383000Y-80789000D01*
X146437000Y-80749000D02*
X140329000Y-80749000D01*
X146489000Y-80709000D02*
X140277000Y-80709000D01*
X146539000Y-80669000D02*
X140227000Y-80669000D01*
X146589000Y-80629000D02*
X140177000Y-80629000D01*
X146637000Y-80589000D02*
X140129000Y-80589000D01*
X146684000Y-80549000D02*
X140082000Y-80549000D01*
X146730000Y-80509000D02*
X140036000Y-80509000D01*
X146758000Y-71688354D02*
X145758000Y-71688354D01*
X146775000Y-80469000D02*
X139991000Y-80469000D01*
X146819000Y-80429000D02*
X139947000Y-80429000D01*
X146861000Y-80389000D02*
X144624000Y-80389000D01*
X146903000Y-80349000D02*
X144624000Y-80349000D01*
X146944000Y-80309000D02*
X144624000Y-80309000D01*
X146984000Y-80269000D02*
X144624000Y-80269000D01*
X147023000Y-80229000D02*
X144624000Y-80229000D01*
X147062000Y-80189000D02*
X144624000Y-80189000D01*
X147099000Y-80149000D02*
X144624000Y-80149000D01*
X147136000Y-80109000D02*
X144624000Y-80109000D01*
X147172000Y-80069000D02*
X144624000Y-80069000D01*
X147207000Y-80029000D02*
X144624000Y-80029000D01*
X147241000Y-79989000D02*
X144624000Y-79989000D01*
X147275000Y-79949000D02*
X144624000Y-79949000D01*
X147308000Y-79909000D02*
X144624000Y-79909000D01*
X147340000Y-79869000D02*
X144624000Y-79869000D01*
X147372000Y-79829000D02*
X144624000Y-79829000D01*
X147403000Y-79789000D02*
X144624000Y-79789000D01*
X147433000Y-79749000D02*
X144624000Y-79749000D01*
X147463000Y-79709000D02*
X144624000Y-79709000D01*
X147493000Y-79669000D02*
X144624000Y-79669000D01*
X147521000Y-79629000D02*
X144624000Y-79629000D01*
X147549000Y-79589000D02*
X144624000Y-79589000D01*
X147577000Y-79549000D02*
X144624000Y-79549000D01*
X147604000Y-79509000D02*
X144624000Y-79509000D01*
X147630000Y-79469000D02*
X144624000Y-79469000D01*
X147656000Y-79429000D02*
X144624000Y-79429000D01*
X147681000Y-79389000D02*
X144624000Y-79389000D01*
X147706000Y-79349000D02*
X144624000Y-79349000D01*
X147730000Y-79309000D02*
X144624000Y-79309000D01*
X147754000Y-79269000D02*
X144624000Y-79269000D01*
X147778000Y-79229000D02*
X144624000Y-79229000D01*
X147800000Y-79189000D02*
X144624000Y-79189000D01*
X147823000Y-79149000D02*
X144624000Y-79149000D01*
X147845000Y-79109000D02*
X144624000Y-79109000D01*
X147866000Y-79069000D02*
X144624000Y-79069000D01*
X147887000Y-79029000D02*
X144624000Y-79029000D01*
X147908000Y-78989000D02*
X144624000Y-78989000D01*
X147928000Y-78949000D02*
X144624000Y-78949000D01*
X147947000Y-78909000D02*
X144624000Y-78909000D01*
X147967000Y-78869000D02*
X144624000Y-78869000D01*
X147986000Y-78829000D02*
X144624000Y-78829000D01*
X148004000Y-78789000D02*
X144624000Y-78789000D01*
X148022000Y-78749000D02*
X144624000Y-78749000D01*
X148040000Y-78709000D02*
X144624000Y-78709000D01*
X148057000Y-78669000D02*
X144624000Y-78669000D01*
X148073000Y-78629000D02*
X144624000Y-78629000D01*
X148090000Y-78589000D02*
X144624000Y-78589000D01*
X148106000Y-78549000D02*
X144624000Y-78549000D01*
X148121000Y-78509000D02*
X144624000Y-78509000D01*
X148137000Y-78469000D02*
X144624000Y-78469000D01*
X148151000Y-78429000D02*
X144624000Y-78429000D01*
X148166000Y-78389000D02*
X144624000Y-78389000D01*
X148180000Y-78349000D02*
X144624000Y-78349000D01*
X148194000Y-78309000D02*
X144624000Y-78309000D01*
X148207000Y-78269000D02*
X144624000Y-78269000D01*
X148220000Y-78229000D02*
X144624000Y-78229000D01*
X148233000Y-78189000D02*
X144624000Y-78189000D01*
X148245000Y-78149000D02*
X144624000Y-78149000D01*
X148257000Y-78109000D02*
X144624000Y-78109000D01*
X148268000Y-78069000D02*
X144624000Y-78069000D01*
X148280000Y-78029000D02*
X144624000Y-78029000D01*
X148290000Y-77989000D02*
X144624000Y-77989000D01*
X148301000Y-77949000D02*
X144624000Y-77949000D01*
X148311000Y-77909000D02*
X138455000Y-77909000D01*
X148321000Y-77869000D02*
X138445000Y-77869000D01*
X148330000Y-77829000D02*
X138436000Y-77829000D01*
X148339000Y-77789000D02*
X138427000Y-77789000D01*
X148348000Y-77749000D02*
X138418000Y-77749000D01*
X148357000Y-77709000D02*
X138409000Y-77709000D01*
X148365000Y-77669000D02*
X138401000Y-77669000D01*
X148373000Y-77629000D02*
X138393000Y-77629000D01*
X148380000Y-77589000D02*
X138386000Y-77589000D01*
X148387000Y-77549000D02*
X138379000Y-77549000D01*
X148394000Y-77509000D02*
X138372000Y-77509000D01*
X148401000Y-77469000D02*
X138365000Y-77469000D01*
X148407000Y-77429000D02*
X138359000Y-77429000D01*
X148413000Y-77389000D02*
X138353000Y-77389000D01*
X148418000Y-77348000D02*
X138348000Y-77348000D01*
X148423000Y-77308000D02*
X138343000Y-77308000D01*
X148428000Y-77268000D02*
X138338000Y-77268000D01*
X148433000Y-77228000D02*
X138333000Y-77228000D01*
X148437000Y-77188000D02*
X138329000Y-77188000D01*
X148441000Y-77148000D02*
X138325000Y-77148000D01*
X148445000Y-77108000D02*
X138321000Y-77108000D01*
X148448000Y-77068000D02*
X138318000Y-77068000D01*
X148451000Y-77028000D02*
X138315000Y-77028000D01*
X148453000Y-76988000D02*
X138313000Y-76988000D01*
X148456000Y-76948000D02*
X138310000Y-76948000D01*
X148458000Y-76908000D02*
X138308000Y-76908000D01*
X148460000Y-76868000D02*
X138306000Y-76868000D01*
X148461000Y-76828000D02*
X138305000Y-76828000D01*
X148462000Y-76788000D02*
X138304000Y-76788000D01*
X148463000Y-76668000D02*
X138303000Y-76668000D01*
X148463000Y-76708000D02*
X138303000Y-76708000D01*
X148463000Y-76748000D02*
X138303000Y-76748000D01*
X148503000Y-76668000D02*
G75*
G02*
X138263000Y-76668000I-5120000J0D01*
G01*
X138263000Y-76668000D02*
G75*
G02*
X148503000Y-76668000I5120000J0D01*
G01*
X138303000Y-130436000D02*
X148463000Y-130436000D01*
X138303000Y-130476000D02*
X148463000Y-130476000D01*
X138303000Y-130516000D02*
X148463000Y-130516000D01*
X138304000Y-130396000D02*
X148462000Y-130396000D01*
X138305000Y-130356000D02*
X148461000Y-130356000D01*
X138306000Y-130316000D02*
X148460000Y-130316000D01*
X138308000Y-130276000D02*
X148458000Y-130276000D01*
X138310000Y-130236000D02*
X148456000Y-130236000D01*
X138313000Y-130196000D02*
X148453000Y-130196000D01*
X138315000Y-130156000D02*
X148451000Y-130156000D01*
X138318000Y-130116000D02*
X148448000Y-130116000D01*
X138321000Y-130076000D02*
X148445000Y-130076000D01*
X138325000Y-130036000D02*
X148441000Y-130036000D01*
X138329000Y-129996000D02*
X148437000Y-129996000D01*
X138333000Y-129956000D02*
X148433000Y-129956000D01*
X138338000Y-129916000D02*
X148428000Y-129916000D01*
X138343000Y-129876000D02*
X148423000Y-129876000D01*
X138348000Y-129836000D02*
X148418000Y-129836000D01*
X138353000Y-129795000D02*
X148413000Y-129795000D01*
X138359000Y-129755000D02*
X148407000Y-129755000D01*
X138365000Y-129715000D02*
X148401000Y-129715000D01*
X138372000Y-129675000D02*
X148394000Y-129675000D01*
X138379000Y-129635000D02*
X148387000Y-129635000D01*
X138386000Y-129595000D02*
X148380000Y-129595000D01*
X138393000Y-129555000D02*
X148373000Y-129555000D01*
X138401000Y-129515000D02*
X148365000Y-129515000D01*
X138409000Y-129475000D02*
X148357000Y-129475000D01*
X138418000Y-129435000D02*
X148348000Y-129435000D01*
X138427000Y-129395000D02*
X148339000Y-129395000D01*
X138436000Y-129355000D02*
X148330000Y-129355000D01*
X138445000Y-129315000D02*
X148321000Y-129315000D01*
X138455000Y-129275000D02*
X148311000Y-129275000D01*
X138465000Y-129235000D02*
X142142000Y-129235000D01*
X138476000Y-129195000D02*
X142142000Y-129195000D01*
X138486000Y-129155000D02*
X142142000Y-129155000D01*
X138498000Y-129115000D02*
X142142000Y-129115000D01*
X138509000Y-129075000D02*
X142142000Y-129075000D01*
X138521000Y-129035000D02*
X142142000Y-129035000D01*
X138533000Y-128995000D02*
X142142000Y-128995000D01*
X138546000Y-128955000D02*
X142142000Y-128955000D01*
X138559000Y-128915000D02*
X142142000Y-128915000D01*
X138572000Y-128875000D02*
X142142000Y-128875000D01*
X138586000Y-128835000D02*
X142142000Y-128835000D01*
X138600000Y-128795000D02*
X142142000Y-128795000D01*
X138615000Y-128755000D02*
X142142000Y-128755000D01*
X138629000Y-128715000D02*
X142142000Y-128715000D01*
X138645000Y-128675000D02*
X142142000Y-128675000D01*
X138660000Y-128635000D02*
X142142000Y-128635000D01*
X138676000Y-128595000D02*
X142142000Y-128595000D01*
X138693000Y-128555000D02*
X142142000Y-128555000D01*
X138709000Y-128515000D02*
X142142000Y-128515000D01*
X138726000Y-128475000D02*
X142142000Y-128475000D01*
X138744000Y-128435000D02*
X142142000Y-128435000D01*
X138762000Y-128395000D02*
X142142000Y-128395000D01*
X138780000Y-128355000D02*
X142142000Y-128355000D01*
X138799000Y-128315000D02*
X142142000Y-128315000D01*
X138819000Y-128275000D02*
X142142000Y-128275000D01*
X138838000Y-128235000D02*
X142142000Y-128235000D01*
X138858000Y-128195000D02*
X142142000Y-128195000D01*
X138879000Y-128155000D02*
X142142000Y-128155000D01*
X138900000Y-128115000D02*
X142142000Y-128115000D01*
X138921000Y-128075000D02*
X142142000Y-128075000D01*
X138943000Y-128035000D02*
X142142000Y-128035000D01*
X138966000Y-127995000D02*
X142142000Y-127995000D01*
X138988000Y-127955000D02*
X142142000Y-127955000D01*
X139012000Y-127915000D02*
X142142000Y-127915000D01*
X139036000Y-127875000D02*
X142142000Y-127875000D01*
X139060000Y-127835000D02*
X142142000Y-127835000D01*
X139085000Y-127795000D02*
X142142000Y-127795000D01*
X139110000Y-127755000D02*
X142142000Y-127755000D01*
X139136000Y-127715000D02*
X142142000Y-127715000D01*
X139162000Y-127675000D02*
X142142000Y-127675000D01*
X139189000Y-127635000D02*
X142142000Y-127635000D01*
X139217000Y-127595000D02*
X142142000Y-127595000D01*
X139245000Y-127555000D02*
X142142000Y-127555000D01*
X139273000Y-127515000D02*
X142142000Y-127515000D01*
X139303000Y-127475000D02*
X142142000Y-127475000D01*
X139333000Y-127435000D02*
X142142000Y-127435000D01*
X139363000Y-127395000D02*
X142142000Y-127395000D01*
X139394000Y-127355000D02*
X142142000Y-127355000D01*
X139426000Y-127315000D02*
X142142000Y-127315000D01*
X139458000Y-127275000D02*
X142142000Y-127275000D01*
X139491000Y-127235000D02*
X142142000Y-127235000D01*
X139525000Y-127195000D02*
X142142000Y-127195000D01*
X139559000Y-127155000D02*
X142142000Y-127155000D01*
X139594000Y-127115000D02*
X142142000Y-127115000D01*
X139630000Y-127075000D02*
X142142000Y-127075000D01*
X139667000Y-127035000D02*
X142142000Y-127035000D01*
X139704000Y-126995000D02*
X142142000Y-126995000D01*
X139743000Y-126955000D02*
X142142000Y-126955000D01*
X139782000Y-126915000D02*
X142142000Y-126915000D01*
X139822000Y-126875000D02*
X142142000Y-126875000D01*
X139863000Y-126835000D02*
X142142000Y-126835000D01*
X139905000Y-126795000D02*
X142142000Y-126795000D01*
X139947000Y-126755000D02*
X146819000Y-126755000D01*
X139991000Y-126715000D02*
X146775000Y-126715000D01*
X140008000Y-135495646D02*
X141008000Y-135495646D01*
X140036000Y-126675000D02*
X146730000Y-126675000D01*
X140082000Y-126635000D02*
X146684000Y-126635000D01*
X140129000Y-126595000D02*
X146637000Y-126595000D01*
X140177000Y-126555000D02*
X146589000Y-126555000D01*
X140227000Y-126515000D02*
X146539000Y-126515000D01*
X140277000Y-126475000D02*
X146489000Y-126475000D01*
X140329000Y-126435000D02*
X146437000Y-126435000D01*
X140383000Y-126395000D02*
X146383000Y-126395000D01*
X140438000Y-126355000D02*
X146328000Y-126355000D01*
X140494000Y-126315000D02*
X146272000Y-126315000D01*
X140508000Y-135995646D02*
X140508000Y-134995646D01*
X140553000Y-126275000D02*
X146213000Y-126275000D01*
X140613000Y-126235000D02*
X146153000Y-126235000D01*
X140674000Y-126195000D02*
X146092000Y-126195000D01*
X140738000Y-126155000D02*
X146028000Y-126155000D01*
X140804000Y-126115000D02*
X145962000Y-126115000D01*
X140873000Y-126075000D02*
X145893000Y-126075000D01*
X140944000Y-126035000D02*
X145822000Y-126035000D01*
X141018000Y-125995000D02*
X145748000Y-125995000D01*
X141094000Y-125955000D02*
X145672000Y-125955000D01*
X141174000Y-125915000D02*
X145592000Y-125915000D01*
X141258000Y-125875000D02*
X145508000Y-125875000D01*
X141346000Y-125835000D02*
X145420000Y-125835000D01*
X141439000Y-125795000D02*
X145327000Y-125795000D01*
X141537000Y-125755000D02*
X145229000Y-125755000D01*
X141641000Y-125715000D02*
X145125000Y-125715000D01*
X141753000Y-125675000D02*
X145013000Y-125675000D01*
X141873000Y-125635000D02*
X144893000Y-125635000D01*
X142005000Y-125595000D02*
X144761000Y-125595000D01*
X142153000Y-125555000D02*
X144613000Y-125555000D01*
X142321000Y-125515000D02*
X144445000Y-125515000D01*
X142521000Y-125475000D02*
X144245000Y-125475000D01*
X142784000Y-125435000D02*
X143982000Y-125435000D01*
X144624000Y-126795000D02*
X146861000Y-126795000D01*
X144624000Y-126835000D02*
X146903000Y-126835000D01*
X144624000Y-126875000D02*
X146944000Y-126875000D01*
X144624000Y-126915000D02*
X146984000Y-126915000D01*
X144624000Y-126955000D02*
X147023000Y-126955000D01*
X144624000Y-126995000D02*
X147062000Y-126995000D01*
X144624000Y-127035000D02*
X147099000Y-127035000D01*
X144624000Y-127075000D02*
X147136000Y-127075000D01*
X144624000Y-127115000D02*
X147172000Y-127115000D01*
X144624000Y-127155000D02*
X147207000Y-127155000D01*
X144624000Y-127195000D02*
X147241000Y-127195000D01*
X144624000Y-127235000D02*
X147275000Y-127235000D01*
X144624000Y-127275000D02*
X147308000Y-127275000D01*
X144624000Y-127315000D02*
X147340000Y-127315000D01*
X144624000Y-127355000D02*
X147372000Y-127355000D01*
X144624000Y-127395000D02*
X147403000Y-127395000D01*
X144624000Y-127435000D02*
X147433000Y-127435000D01*
X144624000Y-127475000D02*
X147463000Y-127475000D01*
X144624000Y-127515000D02*
X147493000Y-127515000D01*
X144624000Y-127555000D02*
X147521000Y-127555000D01*
X144624000Y-127595000D02*
X147549000Y-127595000D01*
X144624000Y-127635000D02*
X147577000Y-127635000D01*
X144624000Y-127675000D02*
X147604000Y-127675000D01*
X144624000Y-127715000D02*
X147630000Y-127715000D01*
X144624000Y-127755000D02*
X147656000Y-127755000D01*
X144624000Y-127795000D02*
X147681000Y-127795000D01*
X144624000Y-127835000D02*
X147706000Y-127835000D01*
X144624000Y-127875000D02*
X147730000Y-127875000D01*
X144624000Y-127915000D02*
X147754000Y-127915000D01*
X144624000Y-127955000D02*
X147778000Y-127955000D01*
X144624000Y-127995000D02*
X147800000Y-127995000D01*
X144624000Y-128035000D02*
X147823000Y-128035000D01*
X144624000Y-128075000D02*
X147845000Y-128075000D01*
X144624000Y-128115000D02*
X147866000Y-128115000D01*
X144624000Y-128155000D02*
X147887000Y-128155000D01*
X144624000Y-128195000D02*
X147908000Y-128195000D01*
X144624000Y-128235000D02*
X147928000Y-128235000D01*
X144624000Y-128275000D02*
X147947000Y-128275000D01*
X144624000Y-128315000D02*
X147967000Y-128315000D01*
X144624000Y-128355000D02*
X147986000Y-128355000D01*
X144624000Y-128395000D02*
X148004000Y-128395000D01*
X144624000Y-128435000D02*
X148022000Y-128435000D01*
X144624000Y-128475000D02*
X148040000Y-128475000D01*
X144624000Y-128515000D02*
X148057000Y-128515000D01*
X144624000Y-128555000D02*
X148073000Y-128555000D01*
X144624000Y-128595000D02*
X148090000Y-128595000D01*
X144624000Y-128635000D02*
X148106000Y-128635000D01*
X144624000Y-128675000D02*
X148121000Y-128675000D01*
X144624000Y-128715000D02*
X148137000Y-128715000D01*
X144624000Y-128755000D02*
X148151000Y-128755000D01*
X144624000Y-128795000D02*
X148166000Y-128795000D01*
X144624000Y-128835000D02*
X148180000Y-128835000D01*
X144624000Y-128875000D02*
X148194000Y-128875000D01*
X144624000Y-128915000D02*
X148207000Y-128915000D01*
X144624000Y-128955000D02*
X148220000Y-128955000D01*
X144624000Y-128995000D02*
X148233000Y-128995000D01*
X144624000Y-129035000D02*
X148245000Y-129035000D01*
X144624000Y-129075000D02*
X148257000Y-129075000D01*
X144624000Y-129115000D02*
X148268000Y-129115000D01*
X144624000Y-129155000D02*
X148280000Y-129155000D01*
X144624000Y-129195000D02*
X148290000Y-129195000D01*
X144624000Y-129235000D02*
X148301000Y-129235000D01*
X148503000Y-130516000D02*
G75*
G02*
X138263000Y-130516000I-5120000J0D01*
G01*
X138263000Y-130516000D02*
G75*
G02*
X148503000Y-130516000I5120000J0D01*
G01*
X53740500Y-90621500D02*
X53740500Y-88421500D01*
X53940500Y-82621500D02*
X66640500Y-82621500D01*
X53940500Y-90421500D02*
X53940500Y-82621500D01*
X55840500Y-90621500D02*
X53740500Y-90621500D01*
X58923500Y-85059500D02*
X59558500Y-85059500D01*
X58923500Y-88259500D02*
X59558500Y-88259500D01*
X59050500Y-85694500D02*
X59050500Y-87599500D01*
X59050500Y-85694500D02*
X60066500Y-85694500D01*
X59050500Y-86075500D02*
X60066500Y-86710500D01*
X59050500Y-87599500D02*
X60066500Y-87599500D01*
X59558500Y-85059500D02*
X59558500Y-85694500D01*
X59558500Y-88259500D02*
X59558500Y-87599500D01*
X60066500Y-87599500D02*
X60066500Y-85694500D01*
X66640500Y-82621500D02*
X66640500Y-90421500D01*
X66640500Y-90421500D02*
X53940500Y-90421500D01*
%LPC*%
D13*
X77724000Y-120396000D03*
X70224000Y-120396000D03*
D14*
X132307000Y-134112000D03*
D15*
X132307000Y-123952000D03*
D14*
X150876000Y-74422000D03*
D15*
X150876000Y-64262000D03*
D14*
X70358000Y-104902000D03*
D15*
X70358000Y-115062000D03*
D14*
X63754000Y-134112000D03*
D15*
X63754000Y-123952000D03*
D14*
X150876000Y-89408000D03*
D15*
X150876000Y-79248000D03*
D14*
X155956000Y-79248000D03*
D15*
X155956000Y-89408000D03*
D14*
X85063000Y-88138000D03*
D15*
X100303000Y-88138000D03*
D14*
X155702000Y-128016000D03*
D15*
X155702000Y-117856000D03*
D14*
X150876000Y-128016000D03*
D15*
X150876000Y-117856000D03*
D14*
X73914000Y-104902000D03*
D15*
X73914000Y-115062000D03*
D14*
X150876000Y-141097000D03*
D15*
X150876000Y-130937000D03*
D16*
X111252000Y-121412000D03*
D17*
X111252000Y-115912000D03*
D13*
X155956000Y-52304000D03*
X155956000Y-59804000D03*
D14*
X128016000Y-130048000D03*
D15*
X103016000Y-130048000D03*
D13*
X155956000Y-71762000D03*
X155956000Y-64262000D03*
D14*
X63754000Y-95758000D03*
D15*
X63754000Y-120758000D03*
D14*
X145796000Y-150876000D03*
D15*
X120796000Y-150876000D03*
D13*
X155702000Y-141224000D03*
X155702000Y-133724000D03*
D14*
X145856000Y-141097000D03*
D15*
X120856000Y-141097000D03*
D13*
X155702000Y-145796000D03*
X155702000Y-153296000D03*
D18*
X189838000Y-85852000D03*
D19*
X164438000Y-85852000D03*
D18*
X199644000Y-153797000D03*
D19*
X199644000Y-128397000D03*
D18*
X164438000Y-117649000D03*
D19*
X189838000Y-117649000D03*
D14*
X116586000Y-150622000D03*
D15*
X116586000Y-140462000D03*
D14*
X132307000Y-82724000D03*
D15*
X132307000Y-72564000D03*
D18*
X81641000Y-150876000D03*
D19*
X107041000Y-150876000D03*
D18*
X199644000Y-85899000D03*
D19*
X199644000Y-60499000D03*
D14*
X57404000Y-105156000D03*
D15*
X57404000Y-115316000D03*
D20*
X65378000Y-78914000D03*
D21*
X55218000Y-78914000D03*
D22*
X61468000Y-71862000D03*
D23*
X58928000Y-71862000D03*
D14*
X126973000Y-88138000D03*
D15*
X111733000Y-88138000D03*
D24*
X199068000Y-95810000D03*
D17*
X203268000Y-95810000D03*
X199068000Y-101310000D03*
X203268000Y-101310000D03*
D25*
X51408000Y-112529000D03*
D26*
X51408000Y-110029000D03*
X51408000Y-107529000D03*
D27*
X53313000Y-130349000D03*
D28*
X53313000Y-132889000D03*
D29*
X152342000Y-100996000D03*
D30*
X154882000Y-100996000D03*
X152342000Y-103536000D03*
X154882000Y-103536000D03*
X152342000Y-106076000D03*
X154882000Y-106076000D03*
X152342000Y-108616000D03*
X154882000Y-108616000D03*
D14*
X96012000Y-131318000D03*
D15*
X96012000Y-121158000D03*
D27*
X53313000Y-141779000D03*
D28*
X53313000Y-144319000D03*
D13*
X89288000Y-141224000D03*
X81788000Y-141224000D03*
D14*
X116586000Y-64516000D03*
D15*
X116586000Y-54356000D03*
D14*
X128143000Y-77644000D03*
D15*
X103143000Y-77644000D03*
D24*
X89018000Y-51308000D03*
D17*
X93218000Y-51308000D03*
X97418000Y-51308000D03*
X89018000Y-56808000D03*
X93218000Y-56808000D03*
X97418000Y-56808000D03*
D14*
X145669000Y-64309000D03*
D15*
X120669000Y-64309000D03*
D14*
X145669000Y-54356000D03*
D15*
X120669000Y-54356000D03*
D31*
X181610000Y-42418000D03*
D32*
X176110000Y-42418000D03*
D31*
X181558000Y-128016000D03*
D32*
X176058000Y-128016000D03*
D14*
X96774000Y-82724000D03*
D15*
X96774000Y-72564000D03*
D31*
X71628000Y-56896000D03*
D32*
X66128000Y-56896000D03*
D31*
X74422000Y-150876000D03*
D32*
X68922000Y-150876000D03*
D24*
X187960000Y-95846000D03*
D17*
X187960000Y-101346000D03*
D33*
X143383000Y-74168000D03*
D13*
X143383000Y-79168000D03*
D33*
X143383000Y-133016000D03*
D13*
X143383000Y-128016000D03*
D34*
X57800000Y-46294000D03*
X177218000Y-106304000D03*
D33*
X55240500Y-89021500D03*
D13*
X57780500Y-89021500D03*
X65400500Y-89021500D03*
X65400500Y-83941500D03*
X57780500Y-83941500D03*
X55240500Y-83941500D03*
D34*
X202800000Y-166304000D03*
X202800000Y-46294000D03*
X57800000Y-166304000D03*
X111218000Y-106304000D03*
D35*
X177218000Y-63804000D03*
D36*
X186587165Y-54434835D03*
D37*
X190468000Y-63804000D03*
X186587165Y-73173165D03*
X177218000Y-77054000D03*
X167848835Y-73173165D03*
X163968000Y-63804000D03*
X167848835Y-54434835D03*
X177218000Y-50554000D03*
D35*
X177218000Y-148804000D03*
D36*
X186587165Y-139434835D03*
D37*
X190468000Y-148804000D03*
X186587165Y-158173165D03*
X177218000Y-162054000D03*
X167848835Y-158173165D03*
X163968000Y-148804000D03*
X167848835Y-139434835D03*
X177218000Y-135554000D03*
D38*
X125753683Y-115204146D03*
X121756625Y-109703947D03*
X121762127Y-102887170D03*
X125762583Y-97397396D03*
X132218000Y-95304000D03*
X138685666Y-97406287D03*
X142675670Y-102892675D03*
X142702880Y-109630753D03*
X138694565Y-115195238D03*
D39*
X81678000Y-133264000D03*
X84218000Y-130724000D03*
X86758000Y-133264000D03*
D38*
X96682317Y-97403854D03*
X100679375Y-102904053D03*
X100673873Y-109720830D03*
X96673417Y-115210604D03*
X90218000Y-117304000D03*
X83750334Y-115201713D03*
X79760330Y-109715325D03*
X79733120Y-102977247D03*
X83741435Y-97412762D03*
D39*
X86758000Y-79344000D03*
X84218000Y-81884000D03*
X81678000Y-79344000D03*
%LPD*%
M02*
