%TF.GenerationSoftware,KiCad,Pcbnew,8.0.8*%
%TF.CreationDate,2025-02-12T00:11:01+01:00*%
%TF.ProjectId,Endstufe,456e6473-7475-4666-952e-6b696361645f,rev?*%
%TF.SameCoordinates,Original*%
%TF.FileFunction,Soldermask,Top*%
%TF.FilePolarity,Negative*%
%FSLAX46Y46*%
G04 Gerber Fmt 4.6, Leading zero omitted, Abs format (unit mm)*
G04 Created by KiCad (PCBNEW 8.0.8) date 2025-02-12 00:11:01*
%MOMM*%
%LPD*%
G01*
G04 APERTURE LIST*
G04 Aperture macros list*
%AMRoundRect*
0 Rectangle with rounded corners*
0 $1 Rounding radius*
0 $2 $3 $4 $5 $6 $7 $8 $9 X,Y pos of 4 corners*
0 Add a 4 corners polygon primitive as box body*
4,1,4,$2,$3,$4,$5,$6,$7,$8,$9,$2,$3,0*
0 Add four circle primitives for the rounded corners*
1,1,$1+$1,$2,$3*
1,1,$1+$1,$4,$5*
1,1,$1+$1,$6,$7*
1,1,$1+$1,$8,$9*
0 Add four rect primitives between the rounded corners*
20,1,$1+$1,$2,$3,$4,$5,0*
20,1,$1+$1,$4,$5,$6,$7,0*
20,1,$1+$1,$6,$7,$8,$9,0*
20,1,$1+$1,$8,$9,$2,$3,0*%
%AMOutline5P*
0 Free polygon, 5 corners , with rotation*
0 The origin of the aperture is its center*
0 number of corners: always 5*
0 $1 to $10 corner X, Y*
0 $11 Rotation angle, in degrees counterclockwise*
0 create outline with 5 corners*
4,1,5,$1,$2,$3,$4,$5,$6,$7,$8,$9,$10,$1,$2,$11*%
%AMOutline6P*
0 Free polygon, 6 corners , with rotation*
0 The origin of the aperture is its center*
0 number of corners: always 6*
0 $1 to $12 corner X, Y*
0 $13 Rotation angle, in degrees counterclockwise*
0 create outline with 6 corners*
4,1,6,$1,$2,$3,$4,$5,$6,$7,$8,$9,$10,$11,$12,$1,$2,$13*%
%AMOutline7P*
0 Free polygon, 7 corners , with rotation*
0 The origin of the aperture is its center*
0 number of corners: always 7*
0 $1 to $14 corner X, Y*
0 $15 Rotation angle, in degrees counterclockwise*
0 create outline with 7 corners*
4,1,7,$1,$2,$3,$4,$5,$6,$7,$8,$9,$10,$11,$12,$13,$14,$1,$2,$15*%
%AMOutline8P*
0 Free polygon, 8 corners , with rotation*
0 The origin of the aperture is its center*
0 number of corners: always 8*
0 $1 to $16 corner X, Y*
0 $17 Rotation angle, in degrees counterclockwise*
0 create outline with 8 corners*
4,1,8,$1,$2,$3,$4,$5,$6,$7,$8,$9,$10,$11,$12,$13,$14,$15,$16,$1,$2,$17*%
G04 Aperture macros list end*
%ADD10C,2.000000*%
%ADD11C,1.600000*%
%ADD12O,1.600000X1.600000*%
%ADD13RoundRect,0.250001X1.099999X1.399999X-1.099999X1.399999X-1.099999X-1.399999X1.099999X-1.399999X0*%
%ADD14O,2.700000X3.300000*%
%ADD15C,2.400000*%
%ADD16O,2.400000X2.400000*%
%ADD17R,2.200000X2.200000*%
%ADD18O,2.200000X2.200000*%
%ADD19RoundRect,0.250000X0.620000X0.845000X-0.620000X0.845000X-0.620000X-0.845000X0.620000X-0.845000X0*%
%ADD20O,1.740000X2.190000*%
%ADD21RoundRect,0.250001X-1.099999X-1.399999X1.099999X-1.399999X1.099999X1.399999X-1.099999X1.399999X0*%
%ADD22RoundRect,0.250000X0.725000X-0.600000X0.725000X0.600000X-0.725000X0.600000X-0.725000X-0.600000X0*%
%ADD23O,1.950000X1.700000*%
%ADD24RoundRect,0.250000X-0.845000X0.620000X-0.845000X-0.620000X0.845000X-0.620000X0.845000X0.620000X0*%
%ADD25O,2.190000X1.740000*%
%ADD26RoundRect,0.250000X-0.600000X-0.600000X0.600000X-0.600000X0.600000X0.600000X-0.600000X0.600000X0*%
%ADD27C,1.700000*%
%ADD28RoundRect,0.250001X-1.399999X1.099999X-1.399999X-1.099999X1.399999X-1.099999X1.399999X1.099999X0*%
%ADD29O,3.300000X2.700000*%
%ADD30R,2.000000X2.000000*%
%ADD31C,3.200000*%
%ADD32C,6.000000*%
%ADD33Outline5P,-2.300000X2.300000X1.380000X2.300000X2.300000X1.380000X2.300000X-2.300000X-2.300000X-2.300000X0.000000*%
%ADD34C,4.600000*%
%ADD35C,4.000000*%
%ADD36C,1.440000*%
G04 APERTURE END LIST*
D10*
X77724000Y-120396000D03*
X70224000Y-120396000D03*
D11*
X132307000Y-134112000D03*
D12*
X132307000Y-123952000D03*
D11*
X150876000Y-74422000D03*
D12*
X150876000Y-64262000D03*
D11*
X70358000Y-104902000D03*
D12*
X70358000Y-115062000D03*
D11*
X63754000Y-134112000D03*
D12*
X63754000Y-123952000D03*
D11*
X150876000Y-89408000D03*
D12*
X150876000Y-79248000D03*
D11*
X155956000Y-79248000D03*
D12*
X155956000Y-89408000D03*
D11*
X85063000Y-88138000D03*
D12*
X100303000Y-88138000D03*
D11*
X155702000Y-128016000D03*
D12*
X155702000Y-117856000D03*
D11*
X150876000Y-128016000D03*
D12*
X150876000Y-117856000D03*
D11*
X73914000Y-104902000D03*
D12*
X73914000Y-115062000D03*
D11*
X150876000Y-141097000D03*
D12*
X150876000Y-130937000D03*
D13*
X111252000Y-121412000D03*
D14*
X111252000Y-115912000D03*
D10*
X155956000Y-52304000D03*
X155956000Y-59804000D03*
D11*
X128016000Y-130048000D03*
D12*
X103016000Y-130048000D03*
D10*
X155956000Y-71762000D03*
X155956000Y-64262000D03*
D11*
X63754000Y-95758000D03*
D12*
X63754000Y-120758000D03*
D11*
X145796000Y-150876000D03*
D12*
X120796000Y-150876000D03*
D10*
X155702000Y-141224000D03*
X155702000Y-133724000D03*
D11*
X145856000Y-141097000D03*
D12*
X120856000Y-141097000D03*
D10*
X155702000Y-145796000D03*
X155702000Y-153296000D03*
D15*
X189838000Y-85852000D03*
D16*
X164438000Y-85852000D03*
D15*
X199644000Y-153797000D03*
D16*
X199644000Y-128397000D03*
D15*
X164438000Y-117649000D03*
D16*
X189838000Y-117649000D03*
D11*
X116586000Y-150622000D03*
D12*
X116586000Y-140462000D03*
D11*
X132307000Y-82724000D03*
D12*
X132307000Y-72564000D03*
D15*
X81641000Y-150876000D03*
D16*
X107041000Y-150876000D03*
D15*
X199644000Y-85899000D03*
D16*
X199644000Y-60499000D03*
D11*
X57404000Y-105156000D03*
D12*
X57404000Y-115316000D03*
D17*
X65378000Y-78914000D03*
D18*
X55218000Y-78914000D03*
D19*
X61468000Y-71862000D03*
D20*
X58928000Y-71862000D03*
D11*
X126973000Y-88138000D03*
D12*
X111733000Y-88138000D03*
D21*
X199068000Y-95810000D03*
D14*
X203268000Y-95810000D03*
X199068000Y-101310000D03*
X203268000Y-101310000D03*
D22*
X51408000Y-112529000D03*
D23*
X51408000Y-110029000D03*
X51408000Y-107529000D03*
D24*
X53313000Y-130349000D03*
D25*
X53313000Y-132889000D03*
D26*
X152342000Y-100996000D03*
D27*
X154882000Y-100996000D03*
X152342000Y-103536000D03*
X154882000Y-103536000D03*
X152342000Y-106076000D03*
X154882000Y-106076000D03*
X152342000Y-108616000D03*
X154882000Y-108616000D03*
D11*
X96012000Y-131318000D03*
D12*
X96012000Y-121158000D03*
D24*
X53313000Y-141779000D03*
D25*
X53313000Y-144319000D03*
D10*
X89288000Y-141224000D03*
X81788000Y-141224000D03*
D11*
X116586000Y-64516000D03*
D12*
X116586000Y-54356000D03*
D11*
X128143000Y-77644000D03*
D12*
X103143000Y-77644000D03*
D21*
X89018000Y-51308000D03*
D14*
X93218000Y-51308000D03*
X97418000Y-51308000D03*
X89018000Y-56808000D03*
X93218000Y-56808000D03*
X97418000Y-56808000D03*
D11*
X145669000Y-64309000D03*
D12*
X120669000Y-64309000D03*
D11*
X145669000Y-54356000D03*
D12*
X120669000Y-54356000D03*
D28*
X181610000Y-42418000D03*
D29*
X176110000Y-42418000D03*
D28*
X181558000Y-128016000D03*
D29*
X176058000Y-128016000D03*
D11*
X96774000Y-82724000D03*
D12*
X96774000Y-72564000D03*
D28*
X71628000Y-56896000D03*
D29*
X66128000Y-56896000D03*
D28*
X74422000Y-150876000D03*
D29*
X68922000Y-150876000D03*
D21*
X187960000Y-95846000D03*
D14*
X187960000Y-101346000D03*
D30*
X143383000Y-74168000D03*
D10*
X143383000Y-79168000D03*
D30*
X143383000Y-133016000D03*
D10*
X143383000Y-128016000D03*
D31*
X57800000Y-46294000D03*
X177218000Y-106304000D03*
D30*
X55240500Y-89021500D03*
D10*
X57780500Y-89021500D03*
X65400500Y-89021500D03*
X65400500Y-83941500D03*
X57780500Y-83941500D03*
X55240500Y-83941500D03*
D31*
X202800000Y-166304000D03*
X202800000Y-46294000D03*
X57800000Y-166304000D03*
X111218000Y-106304000D03*
D32*
X177218000Y-63804000D03*
D33*
X186587165Y-54434835D03*
D34*
X190468000Y-63804000D03*
X186587165Y-73173165D03*
X177218000Y-77054000D03*
X167848835Y-73173165D03*
X163968000Y-63804000D03*
X167848835Y-54434835D03*
X177218000Y-50554000D03*
D32*
X177218000Y-148804000D03*
D33*
X186587165Y-139434835D03*
D34*
X190468000Y-148804000D03*
X186587165Y-158173165D03*
X177218000Y-162054000D03*
X167848835Y-158173165D03*
X163968000Y-148804000D03*
X167848835Y-139434835D03*
X177218000Y-135554000D03*
D35*
X125753683Y-115204146D03*
X121756625Y-109703947D03*
X121762127Y-102887170D03*
X125762583Y-97397396D03*
X132218000Y-95304000D03*
X138685666Y-97406287D03*
X142675670Y-102892675D03*
X142702880Y-109630753D03*
X138694565Y-115195238D03*
D36*
X81678000Y-133264000D03*
X84218000Y-130724000D03*
X86758000Y-133264000D03*
D35*
X96682317Y-97403854D03*
X100679375Y-102904053D03*
X100673873Y-109720830D03*
X96673417Y-115210604D03*
X90218000Y-117304000D03*
X83750334Y-115201713D03*
X79760330Y-109715325D03*
X79733120Y-102977247D03*
X83741435Y-97412762D03*
D36*
X86758000Y-79344000D03*
X84218000Y-81884000D03*
X81678000Y-79344000D03*
M02*
