%TF.GenerationSoftware,KiCad,Pcbnew,8.0.8*%
%TF.CreationDate,2025-01-24T23:50:33+01:00*%
%TF.ProjectId,Bias,42696173-2e6b-4696-9361-645f70636258,rev?*%
%TF.SameCoordinates,Original*%
%TF.FileFunction,Copper,L2,Bot*%
%TF.FilePolarity,Positive*%
%FSLAX46Y46*%
G04 Gerber Fmt 4.6, Leading zero omitted, Abs format (unit mm)*
G04 Created by KiCad (PCBNEW 8.0.8) date 2025-01-24 23:50:34*
%MOMM*%
%LPD*%
G01*
G04 APERTURE LIST*
G04 Aperture macros list*
%AMRoundRect*
0 Rectangle with rounded corners*
0 $1 Rounding radius*
0 $2 $3 $4 $5 $6 $7 $8 $9 X,Y pos of 4 corners*
0 Add a 4 corners polygon primitive as box body*
4,1,4,$2,$3,$4,$5,$6,$7,$8,$9,$2,$3,0*
0 Add four circle primitives for the rounded corners*
1,1,$1+$1,$2,$3*
1,1,$1+$1,$4,$5*
1,1,$1+$1,$6,$7*
1,1,$1+$1,$8,$9*
0 Add four rect primitives between the rounded corners*
20,1,$1+$1,$2,$3,$4,$5,0*
20,1,$1+$1,$4,$5,$6,$7,0*
20,1,$1+$1,$6,$7,$8,$9,0*
20,1,$1+$1,$8,$9,$2,$3,0*%
G04 Aperture macros list end*
%ADD10C,0.300000*%
%TA.AperFunction,NonConductor*%
%ADD11C,0.300000*%
%TD*%
%TA.AperFunction,ComponentPad*%
%ADD12R,1.600000X1.600000*%
%TD*%
%TA.AperFunction,ComponentPad*%
%ADD13O,1.600000X1.600000*%
%TD*%
%TA.AperFunction,ComponentPad*%
%ADD14C,1.600000*%
%TD*%
%TA.AperFunction,ComponentPad*%
%ADD15R,1.800000X1.800000*%
%TD*%
%TA.AperFunction,ComponentPad*%
%ADD16C,1.800000*%
%TD*%
%TA.AperFunction,ComponentPad*%
%ADD17R,2.200000X2.200000*%
%TD*%
%TA.AperFunction,ComponentPad*%
%ADD18O,2.200000X2.200000*%
%TD*%
%TA.AperFunction,ComponentPad*%
%ADD19C,2.340000*%
%TD*%
%TA.AperFunction,ComponentPad*%
%ADD20RoundRect,0.250000X-0.600000X0.600000X-0.600000X-0.600000X0.600000X-0.600000X0.600000X0.600000X0*%
%TD*%
%TA.AperFunction,ComponentPad*%
%ADD21C,1.700000*%
%TD*%
%TA.AperFunction,ViaPad*%
%ADD22C,0.600000*%
%TD*%
%TA.AperFunction,Conductor*%
%ADD23C,0.500000*%
%TD*%
%TA.AperFunction,Conductor*%
%ADD24C,1.000000*%
%TD*%
G04 APERTURE END LIST*
D10*
D11*
X218166000Y-100054870D02*
X218166000Y-98554870D01*
X218166000Y-98554870D02*
X217808857Y-98554870D01*
X217808857Y-98554870D02*
X217594571Y-98626299D01*
X217594571Y-98626299D02*
X217451714Y-98769156D01*
X217451714Y-98769156D02*
X217380285Y-98912013D01*
X217380285Y-98912013D02*
X217308857Y-99197727D01*
X217308857Y-99197727D02*
X217308857Y-99412013D01*
X217308857Y-99412013D02*
X217380285Y-99697727D01*
X217380285Y-99697727D02*
X217451714Y-99840584D01*
X217451714Y-99840584D02*
X217594571Y-99983442D01*
X217594571Y-99983442D02*
X217808857Y-100054870D01*
X217808857Y-100054870D02*
X218166000Y-100054870D01*
X216808857Y-98554870D02*
X216451714Y-100054870D01*
X216451714Y-100054870D02*
X216166000Y-98983442D01*
X216166000Y-98983442D02*
X215880285Y-100054870D01*
X215880285Y-100054870D02*
X215523143Y-98554870D01*
X217558856Y-102469786D02*
X218415999Y-102469786D01*
X217987428Y-102469786D02*
X217987428Y-100969786D01*
X217987428Y-100969786D02*
X218130285Y-101184072D01*
X218130285Y-101184072D02*
X218273142Y-101326929D01*
X218273142Y-101326929D02*
X218415999Y-101398358D01*
X216916000Y-102326929D02*
X216844571Y-102398358D01*
X216844571Y-102398358D02*
X216916000Y-102469786D01*
X216916000Y-102469786D02*
X216987428Y-102398358D01*
X216987428Y-102398358D02*
X216916000Y-102326929D01*
X216916000Y-102326929D02*
X216916000Y-102469786D01*
X215915999Y-100969786D02*
X215773142Y-100969786D01*
X215773142Y-100969786D02*
X215630285Y-101041215D01*
X215630285Y-101041215D02*
X215558857Y-101112643D01*
X215558857Y-101112643D02*
X215487428Y-101255500D01*
X215487428Y-101255500D02*
X215415999Y-101541215D01*
X215415999Y-101541215D02*
X215415999Y-101898358D01*
X215415999Y-101898358D02*
X215487428Y-102184072D01*
X215487428Y-102184072D02*
X215558857Y-102326929D01*
X215558857Y-102326929D02*
X215630285Y-102398358D01*
X215630285Y-102398358D02*
X215773142Y-102469786D01*
X215773142Y-102469786D02*
X215915999Y-102469786D01*
X215915999Y-102469786D02*
X216058857Y-102398358D01*
X216058857Y-102398358D02*
X216130285Y-102326929D01*
X216130285Y-102326929D02*
X216201714Y-102184072D01*
X216201714Y-102184072D02*
X216273142Y-101898358D01*
X216273142Y-101898358D02*
X216273142Y-101541215D01*
X216273142Y-101541215D02*
X216201714Y-101255500D01*
X216201714Y-101255500D02*
X216130285Y-101112643D01*
X216130285Y-101112643D02*
X216058857Y-101041215D01*
X216058857Y-101041215D02*
X215915999Y-100969786D01*
D12*
X195072000Y-91440000D03*
D13*
X195072000Y-93980000D03*
X195072000Y-96520000D03*
X195072000Y-99060000D03*
X195072000Y-101600000D03*
X195072000Y-104140000D03*
X195072000Y-106680000D03*
X202692000Y-106680000D03*
X202692000Y-104140000D03*
X202692000Y-101600000D03*
X202692000Y-99060000D03*
X202692000Y-96520000D03*
X202692000Y-93980000D03*
X202692000Y-91440000D03*
D14*
X191516000Y-96520000D03*
X191516000Y-91520000D03*
X191516000Y-99060000D03*
X191516000Y-104060000D03*
X206248000Y-101600000D03*
X211248000Y-101600000D03*
D12*
X186944000Y-93980000D03*
D13*
X176784000Y-93980000D03*
D15*
X154470000Y-68072000D03*
D16*
X151930000Y-68072000D03*
D12*
X178054000Y-75692000D03*
D13*
X178054000Y-85852000D03*
D15*
X161920000Y-68072000D03*
D16*
X164460000Y-68072000D03*
D12*
X186944000Y-90932000D03*
D13*
X176784000Y-90932000D03*
D15*
X208506000Y-68072000D03*
D16*
X205966000Y-68072000D03*
D12*
X206248000Y-93980000D03*
D13*
X216408000Y-93980000D03*
D12*
X209550000Y-75692000D03*
D13*
X209550000Y-85852000D03*
D12*
X206248000Y-90932000D03*
D13*
X216408000Y-90932000D03*
D17*
X144145000Y-75692000D03*
D18*
X144145000Y-85852000D03*
D14*
X185674000Y-75692000D03*
D13*
X185674000Y-85852000D03*
D14*
X186944000Y-99060000D03*
D13*
X176784000Y-99060000D03*
D14*
X174498000Y-75692000D03*
D13*
X174498000Y-85852000D03*
D14*
X212852000Y-75692000D03*
D13*
X212852000Y-85852000D03*
D14*
X216408000Y-75692000D03*
D13*
X216408000Y-85852000D03*
D14*
X186944000Y-102870000D03*
D13*
X176784000Y-102870000D03*
D14*
X206248000Y-75692000D03*
D13*
X206248000Y-85852000D03*
D14*
X147955000Y-85852000D03*
D13*
X147955000Y-75692000D03*
D14*
X151765000Y-75692000D03*
D13*
X151765000Y-85852000D03*
D14*
X151765000Y-91948000D03*
D13*
X151765000Y-102108000D03*
D14*
X148209000Y-102108000D03*
D13*
X148209000Y-91948000D03*
D14*
X206248000Y-98806000D03*
X211248000Y-98806000D03*
X206248000Y-104394000D03*
X211248000Y-104394000D03*
D15*
X174470000Y-68072000D03*
D16*
X171930000Y-68072000D03*
D14*
X182118000Y-75704700D03*
D13*
X182118000Y-85864700D03*
D15*
X195956000Y-68072000D03*
D16*
X198496000Y-68072000D03*
D15*
X188506000Y-68072000D03*
D16*
X185966000Y-68072000D03*
D14*
X155321000Y-85852000D03*
D13*
X155321000Y-75692000D03*
D14*
X189230000Y-85852000D03*
D13*
X189230000Y-75692000D03*
D19*
X194655000Y-85072000D03*
X197155000Y-75072000D03*
X199655000Y-85072000D03*
X160655000Y-85072000D03*
X163155000Y-75072000D03*
X165655000Y-85072000D03*
D20*
X160655000Y-95885000D03*
D21*
X160655000Y-98425000D03*
X163195000Y-95885000D03*
X163195000Y-98425000D03*
X165735000Y-95885000D03*
X165735000Y-98425000D03*
X168275000Y-95885000D03*
X168275000Y-98425000D03*
D22*
X181610000Y-98552000D03*
X205994000Y-63754000D03*
X199898000Y-102870000D03*
X198628000Y-92456000D03*
X169926000Y-91440000D03*
X156464000Y-104394000D03*
X163195000Y-87122000D03*
X151638000Y-82042000D03*
X164973000Y-108966000D03*
X201168000Y-74422000D03*
X181610000Y-108966000D03*
X217932000Y-96774000D03*
X167640000Y-87122000D03*
X161290000Y-90424000D03*
X197104000Y-85852000D03*
X201168000Y-79756000D03*
X142494000Y-100330000D03*
X141986000Y-64008000D03*
X165100000Y-104394000D03*
X179832000Y-72644000D03*
X182118000Y-78232000D03*
X149860000Y-110744000D03*
X141986000Y-110490000D03*
X201676000Y-71120000D03*
X216916000Y-80772000D03*
X181610000Y-106426000D03*
X191770000Y-86868000D03*
X149987000Y-104394000D03*
X155448000Y-87630000D03*
X198628000Y-106680000D03*
X174498000Y-105156000D03*
X159004000Y-74422000D03*
X174498000Y-100584000D03*
X183896000Y-86868000D03*
X161798000Y-63754000D03*
X209042000Y-110490000D03*
X151765000Y-97282000D03*
X215138000Y-88138000D03*
X155956000Y-90932000D03*
X198628000Y-97282000D03*
X185928000Y-63754000D03*
X193802000Y-80518000D03*
X172212000Y-88392000D03*
X217932000Y-64008000D03*
X166878000Y-79756000D03*
X180848000Y-68072000D03*
X181610000Y-102743000D03*
X209804000Y-81026000D03*
X157988000Y-97282000D03*
X195834000Y-63754000D03*
X174498000Y-95250000D03*
X171958000Y-63754000D03*
X146304000Y-71882000D03*
X217932000Y-110490000D03*
X187452000Y-72136000D03*
X151892000Y-63754000D03*
X208280000Y-88138000D03*
X142494000Y-91186000D03*
X166878000Y-90170000D03*
X170180000Y-99822000D03*
X181610000Y-92456000D03*
X190754000Y-107188000D03*
D23*
X211074000Y-68707000D02*
X216408000Y-74041000D01*
X206883000Y-65024000D02*
X207010000Y-65024000D01*
X185966000Y-66256000D02*
X185966000Y-68072000D01*
X152781000Y-65024000D02*
X151930000Y-65875000D01*
X172720000Y-96520000D02*
X170815000Y-98425000D01*
X195072000Y-96520000D02*
X191516000Y-96520000D01*
X173228000Y-65024000D02*
X187198000Y-65024000D01*
X216408000Y-74041000D02*
X216408000Y-75692000D01*
X207010000Y-65024000D02*
X209423000Y-65024000D01*
X151930000Y-65875000D02*
X151930000Y-68072000D01*
X205966000Y-68072000D02*
X205966000Y-66068000D01*
X191516000Y-96520000D02*
X172720000Y-96520000D01*
X187198000Y-65024000D02*
X185966000Y-66256000D01*
X205966000Y-66068000D02*
X207010000Y-65024000D01*
X173228000Y-65024000D02*
X171930000Y-66322000D01*
X187198000Y-65024000D02*
X206883000Y-65024000D01*
X171930000Y-66322000D02*
X171930000Y-68072000D01*
X211074000Y-66675000D02*
X211074000Y-68707000D01*
X170815000Y-98425000D02*
X168275000Y-98425000D01*
X209423000Y-65024000D02*
X211074000Y-66675000D01*
X173228000Y-65024000D02*
X152781000Y-65024000D01*
X191516000Y-99060000D02*
X195072000Y-99060000D01*
X186944000Y-99060000D02*
X191516000Y-99060000D01*
X202692000Y-101600000D02*
X206248000Y-101600000D01*
X202692000Y-104140000D02*
X202692000Y-101600000D01*
X185674000Y-74549000D02*
X185674000Y-75692000D01*
X177038000Y-68072000D02*
X174470000Y-68072000D01*
X181991000Y-70866000D02*
X185674000Y-74549000D01*
X179832000Y-70866000D02*
X181991000Y-70866000D01*
X177038000Y-68072000D02*
X179832000Y-70866000D01*
X186944000Y-93980000D02*
X195072000Y-93980000D01*
X178054000Y-85852000D02*
X182105300Y-85852000D01*
X156463500Y-68072000D02*
X156460500Y-68075000D01*
X156460500Y-68075000D02*
X156457500Y-68072000D01*
X156457500Y-68072000D02*
X154470000Y-68072000D01*
X156463500Y-68072000D02*
X159511500Y-71120000D01*
X170688000Y-75692000D02*
X174498000Y-75692000D01*
X166116000Y-71120000D02*
X170688000Y-75692000D01*
X159511500Y-71120000D02*
X166116000Y-71120000D01*
X166497000Y-68072000D02*
X171450000Y-73025000D01*
X178054000Y-74422000D02*
X178054000Y-75692000D01*
X166497000Y-68072000D02*
X164460000Y-68072000D01*
X176657000Y-73025000D02*
X178054000Y-74422000D01*
X171450000Y-73025000D02*
X176657000Y-73025000D01*
X194310000Y-88392000D02*
X195072000Y-89154000D01*
X174498000Y-85852000D02*
X174498000Y-87503000D01*
X195072000Y-89154000D02*
X195072000Y-91440000D01*
X175387000Y-88392000D02*
X187706000Y-88392000D01*
X186944000Y-89154000D02*
X187706000Y-88392000D01*
X186944000Y-90932000D02*
X186944000Y-89154000D01*
X187706000Y-88392000D02*
X194310000Y-88392000D01*
X174498000Y-87503000D02*
X175387000Y-88392000D01*
X212852000Y-73914000D02*
X208506000Y-69568000D01*
X208506000Y-69568000D02*
X208506000Y-68072000D01*
X212852000Y-75692000D02*
X212852000Y-73914000D01*
X216408000Y-85852000D02*
X216408000Y-84328000D01*
X210566000Y-83312000D02*
X209550000Y-84328000D01*
X215392000Y-83312000D02*
X210566000Y-83312000D01*
X216408000Y-93980000D02*
X216408000Y-90932000D01*
X216408000Y-90932000D02*
X216408000Y-85852000D01*
X209550000Y-84328000D02*
X209550000Y-85852000D01*
X216408000Y-84328000D02*
X215392000Y-83312000D01*
X209550000Y-93980000D02*
X206248000Y-93980000D01*
X212852000Y-90678000D02*
X209550000Y-93980000D01*
X202692000Y-93980000D02*
X206248000Y-93980000D01*
X212852000Y-85852000D02*
X212852000Y-90678000D01*
X199678962Y-71154962D02*
X193070861Y-71154962D01*
X204216000Y-75692000D02*
X199678962Y-71154962D01*
X206248000Y-75692000D02*
X204216000Y-75692000D01*
X193070861Y-71154962D02*
X189987899Y-68072000D01*
X189987899Y-68072000D02*
X188506000Y-68072000D01*
X200884000Y-68072000D02*
X198496000Y-68072000D01*
X208338150Y-73184212D02*
X205996212Y-73184212D01*
X205996212Y-73184212D02*
X200884000Y-68072000D01*
X209550000Y-75692000D02*
X209550000Y-74396062D01*
X209550000Y-74396062D02*
X208338150Y-73184212D01*
X170561000Y-101854000D02*
X173355000Y-99060000D01*
X160655000Y-100330000D02*
X162179000Y-101854000D01*
X173355000Y-99060000D02*
X176784000Y-99060000D01*
X160655000Y-98425000D02*
X160655000Y-100330000D01*
X162179000Y-101854000D02*
X170561000Y-101854000D01*
D24*
X158242000Y-79985000D02*
X163155000Y-75072000D01*
X158242000Y-90678000D02*
X158242000Y-79985000D01*
X160655000Y-95885000D02*
X160655000Y-93091000D01*
X160655000Y-93091000D02*
X158242000Y-90678000D01*
X165655000Y-89615000D02*
X165655000Y-85072000D01*
X163195000Y-92075000D02*
X163195000Y-95885000D01*
X165655000Y-89615000D02*
X163195000Y-92075000D01*
X170180000Y-88900000D02*
X170180000Y-84836000D01*
X170180000Y-84836000D02*
X175260000Y-79756000D01*
X175260000Y-79756000D02*
X192471000Y-79756000D01*
X165735000Y-95885000D02*
X165735000Y-93345000D01*
X165735000Y-93345000D02*
X170180000Y-88900000D01*
X192471000Y-79756000D02*
X197155000Y-75072000D01*
D23*
X157099000Y-107569000D02*
X154940000Y-105410000D01*
X151765000Y-93345000D02*
X151765000Y-91948000D01*
X189992000Y-101600000D02*
X188976000Y-102616000D01*
X187452000Y-107569000D02*
X157099000Y-107569000D01*
X188976000Y-102616000D02*
X188976000Y-106045000D01*
X201248784Y-99060000D02*
X202692000Y-99060000D01*
X195072000Y-101600000D02*
X198708784Y-101600000D01*
X151765000Y-85852000D02*
X151765000Y-91948000D01*
X202692000Y-99060000D02*
X205994000Y-99060000D01*
X154940000Y-96520000D02*
X151765000Y-93345000D01*
X195072000Y-101600000D02*
X189992000Y-101600000D01*
X188976000Y-106045000D02*
X187452000Y-107569000D01*
X198708784Y-101600000D02*
X201248784Y-99060000D01*
X154940000Y-105410000D02*
X154940000Y-96520000D01*
X154522667Y-110490000D02*
X191008000Y-110490000D01*
X202692000Y-106680000D02*
X203962000Y-106680000D01*
X151765000Y-107732333D02*
X151765000Y-102108000D01*
X192532000Y-108966000D02*
X191008000Y-110490000D01*
X192532000Y-106680000D02*
X192532000Y-108966000D01*
X203962000Y-106680000D02*
X206248000Y-104394000D01*
X201262242Y-106680000D02*
X198722242Y-104140000D01*
X195072000Y-104140000D02*
X192532000Y-106680000D01*
X154522667Y-110490000D02*
X151765000Y-107732333D01*
X198722242Y-104140000D02*
X195072000Y-104140000D01*
X148209000Y-102108000D02*
X151765000Y-102108000D01*
X202692000Y-106680000D02*
X201262242Y-106680000D01*
X204946355Y-90932000D02*
X204438355Y-91440000D01*
X206248000Y-90932000D02*
X204946355Y-90932000D01*
X206248000Y-85852000D02*
X206248000Y-90932000D01*
X204438355Y-91440000D02*
X202692000Y-91440000D01*
X151765000Y-75692000D02*
X147955000Y-75692000D01*
X144145000Y-75692000D02*
X147955000Y-75692000D01*
D24*
X189484000Y-85852000D02*
X190881000Y-84455000D01*
X190881000Y-84455000D02*
X194945000Y-84455000D01*
%TA.AperFunction,Conductor*%
G36*
X201626824Y-99858806D02*
G01*
X201682117Y-99900198D01*
X201682260Y-99900079D01*
X201682770Y-99900686D01*
X201683660Y-99901353D01*
X201685744Y-99904231D01*
X201685799Y-99904296D01*
X201685802Y-99904300D01*
X201847700Y-100066198D01*
X202035251Y-100197523D01*
X202070359Y-100213894D01*
X202074457Y-100215805D01*
X202127742Y-100262722D01*
X202147203Y-100330999D01*
X202126661Y-100398959D01*
X202074457Y-100444195D01*
X202035250Y-100462477D01*
X201847703Y-100593799D01*
X201847697Y-100593804D01*
X201685804Y-100755697D01*
X201685799Y-100755703D01*
X201554477Y-100943250D01*
X201457717Y-101150753D01*
X201457715Y-101150759D01*
X201418859Y-101295772D01*
X201398457Y-101371913D01*
X201378502Y-101600000D01*
X201398457Y-101828087D01*
X201412344Y-101879913D01*
X201457715Y-102049240D01*
X201457717Y-102049246D01*
X201554477Y-102256749D01*
X201685008Y-102443167D01*
X201685802Y-102444300D01*
X201847700Y-102606198D01*
X201879770Y-102628653D01*
X201924099Y-102684110D01*
X201933500Y-102731867D01*
X201933500Y-103008132D01*
X201913498Y-103076253D01*
X201879772Y-103111344D01*
X201847706Y-103133797D01*
X201847697Y-103133804D01*
X201685804Y-103295697D01*
X201685799Y-103295703D01*
X201554477Y-103483250D01*
X201457717Y-103690753D01*
X201457715Y-103690759D01*
X201408028Y-103876195D01*
X201398457Y-103911913D01*
X201378502Y-104140000D01*
X201398457Y-104368087D01*
X201415781Y-104432741D01*
X201457715Y-104589240D01*
X201457717Y-104589246D01*
X201554477Y-104796749D01*
X201639729Y-104918502D01*
X201685802Y-104984300D01*
X201847700Y-105146198D01*
X202035251Y-105277523D01*
X202070181Y-105293811D01*
X202074457Y-105295805D01*
X202127742Y-105342722D01*
X202147203Y-105410999D01*
X202126661Y-105478959D01*
X202074457Y-105524195D01*
X202035250Y-105542477D01*
X201847703Y-105673799D01*
X201847697Y-105673804D01*
X201685792Y-105835709D01*
X201685112Y-105836520D01*
X201684724Y-105836777D01*
X201681912Y-105839590D01*
X201681345Y-105839023D01*
X201625991Y-105875829D01*
X201555003Y-105876935D01*
X201499519Y-105844596D01*
X199205761Y-103550838D01*
X199205757Y-103550834D01*
X199081526Y-103467826D01*
X198943489Y-103410649D01*
X198870218Y-103396074D01*
X198870217Y-103396073D01*
X198796953Y-103381500D01*
X198796948Y-103381500D01*
X196203868Y-103381500D01*
X196135747Y-103361498D01*
X196100656Y-103327772D01*
X196078202Y-103295706D01*
X196078200Y-103295703D01*
X196078198Y-103295700D01*
X195916300Y-103133802D01*
X195888298Y-103114195D01*
X195736825Y-103008132D01*
X195728749Y-103002477D01*
X195689543Y-102984195D01*
X195636258Y-102937279D01*
X195616796Y-102869002D01*
X195637337Y-102801042D01*
X195689543Y-102755805D01*
X195691997Y-102754660D01*
X195728749Y-102737523D01*
X195916300Y-102606198D01*
X196078198Y-102444300D01*
X196094686Y-102420753D01*
X196100656Y-102412228D01*
X196156113Y-102367900D01*
X196203868Y-102358500D01*
X198783485Y-102358500D01*
X198783489Y-102358500D01*
X198783490Y-102358500D01*
X198856760Y-102343925D01*
X198930031Y-102329351D01*
X199068068Y-102272174D01*
X199192299Y-102189166D01*
X201493699Y-99887765D01*
X201556009Y-99853742D01*
X201626824Y-99858806D01*
G37*
%TD.AperFunction*%
%TA.AperFunction,Conductor*%
G36*
X162122021Y-96737442D02*
G01*
X162158483Y-96764857D01*
X162245691Y-96859588D01*
X162271760Y-96887906D01*
X162449424Y-97026189D01*
X162483205Y-97044470D01*
X162533596Y-97094482D01*
X162548949Y-97163799D01*
X162524389Y-97230412D01*
X162483208Y-97266097D01*
X162449700Y-97284230D01*
X162429310Y-97300099D01*
X162429310Y-97300101D01*
X163070051Y-97940842D01*
X163002007Y-97959075D01*
X162887993Y-98024901D01*
X162794901Y-98117993D01*
X162729075Y-98232007D01*
X162710841Y-98300052D01*
X162071921Y-97661132D01*
X162071920Y-97661132D01*
X162030780Y-97724102D01*
X161976776Y-97770190D01*
X161906428Y-97779765D01*
X161842071Y-97749787D01*
X161819822Y-97724111D01*
X161730722Y-97587732D01*
X161578240Y-97422094D01*
X161578238Y-97422093D01*
X161578236Y-97422090D01*
X161543436Y-97395004D01*
X161501966Y-97337379D01*
X161498233Y-97266480D01*
X161533423Y-97204819D01*
X161571763Y-97181669D01*
X161571086Y-97180217D01*
X161577728Y-97177118D01*
X161577738Y-97177115D01*
X161728652Y-97084030D01*
X161854030Y-96958652D01*
X161947115Y-96807738D01*
X161947118Y-96807728D01*
X161950217Y-96801086D01*
X161952126Y-96801976D01*
X161986581Y-96752200D01*
X162052135Y-96724936D01*
X162122021Y-96737442D01*
G37*
%TD.AperFunction*%
%TA.AperFunction,Conductor*%
G36*
X164548225Y-96560669D02*
G01*
X164570480Y-96586353D01*
X164603607Y-96637058D01*
X164659275Y-96722265D01*
X164659279Y-96722270D01*
X164811762Y-96887908D01*
X164852994Y-96920000D01*
X164989424Y-97026189D01*
X165022153Y-97043901D01*
X165022680Y-97044186D01*
X165073071Y-97094200D01*
X165088423Y-97163516D01*
X165063862Y-97230129D01*
X165022680Y-97265813D01*
X164989426Y-97283810D01*
X164989424Y-97283811D01*
X164811762Y-97422091D01*
X164659279Y-97587729D01*
X164570183Y-97724102D01*
X164516179Y-97770190D01*
X164445831Y-97779765D01*
X164381474Y-97749788D01*
X164359218Y-97724102D01*
X164318076Y-97661132D01*
X163679157Y-98300051D01*
X163660925Y-98232007D01*
X163595099Y-98117993D01*
X163502007Y-98024901D01*
X163387993Y-97959075D01*
X163319947Y-97940841D01*
X163960689Y-97300100D01*
X163960688Y-97300099D01*
X163940306Y-97284235D01*
X163940294Y-97284227D01*
X163906792Y-97266097D01*
X163856402Y-97216084D01*
X163841050Y-97146767D01*
X163865611Y-97080154D01*
X163906790Y-97044472D01*
X163940576Y-97026189D01*
X164118240Y-96887906D01*
X164270722Y-96722268D01*
X164359518Y-96586354D01*
X164413520Y-96540268D01*
X164483868Y-96530692D01*
X164548225Y-96560669D01*
G37*
%TD.AperFunction*%
%TA.AperFunction,Conductor*%
G36*
X167809075Y-96077993D02*
G01*
X167874901Y-96192007D01*
X167967993Y-96285099D01*
X168082007Y-96350925D01*
X168150051Y-96369157D01*
X167509310Y-97009898D01*
X167529694Y-97025763D01*
X167529700Y-97025768D01*
X167563206Y-97043900D01*
X167613597Y-97093913D01*
X167628949Y-97163230D01*
X167604389Y-97229843D01*
X167563209Y-97265526D01*
X167529430Y-97283806D01*
X167529424Y-97283811D01*
X167351762Y-97422091D01*
X167199279Y-97587729D01*
X167110483Y-97723643D01*
X167056479Y-97769731D01*
X166986131Y-97779306D01*
X166921774Y-97749329D01*
X166899517Y-97723643D01*
X166810720Y-97587729D01*
X166658237Y-97422091D01*
X166542781Y-97332228D01*
X166480576Y-97283811D01*
X166447319Y-97265813D01*
X166396929Y-97215802D01*
X166381576Y-97146485D01*
X166406136Y-97079872D01*
X166447320Y-97044186D01*
X166447847Y-97043901D01*
X166480576Y-97026189D01*
X166658240Y-96887906D01*
X166810722Y-96722268D01*
X166899816Y-96585898D01*
X166953819Y-96539810D01*
X167024167Y-96530235D01*
X167088524Y-96560212D01*
X167110782Y-96585898D01*
X167151922Y-96648866D01*
X167790841Y-96009946D01*
X167809075Y-96077993D01*
G37*
%TD.AperFunction*%
%TA.AperFunction,Conductor*%
G36*
X219479931Y-62504002D02*
G01*
X219500905Y-62520905D01*
X219927095Y-62947095D01*
X219961121Y-63009407D01*
X219964000Y-63036190D01*
X219964000Y-111715810D01*
X219943998Y-111783931D01*
X219927095Y-111804905D01*
X219500905Y-112231095D01*
X219438593Y-112265121D01*
X219411810Y-112268000D01*
X140760190Y-112268000D01*
X140692069Y-112247998D01*
X140671095Y-112231095D01*
X140244905Y-111804905D01*
X140210879Y-111742593D01*
X140208000Y-111715810D01*
X140208000Y-107135613D01*
X143208700Y-107135613D01*
X143208700Y-107397866D01*
X143242928Y-107657860D01*
X143242930Y-107657867D01*
X143310804Y-107911179D01*
X143411162Y-108153464D01*
X143411163Y-108153465D01*
X143411168Y-108153475D01*
X143542283Y-108380573D01*
X143542287Y-108380579D01*
X143701927Y-108588625D01*
X143701946Y-108588646D01*
X143887353Y-108774053D01*
X143887363Y-108774062D01*
X143887369Y-108774068D01*
X144095423Y-108933714D01*
X144322536Y-109064838D01*
X144564821Y-109165196D01*
X144818133Y-109233070D01*
X144818137Y-109233070D01*
X144818139Y-109233071D01*
X144885148Y-109241892D01*
X145078136Y-109267300D01*
X145078143Y-109267300D01*
X145340377Y-109267300D01*
X145340384Y-109267300D01*
X145575362Y-109236364D01*
X145600380Y-109233071D01*
X145600380Y-109233070D01*
X145600387Y-109233070D01*
X145853699Y-109165196D01*
X146095984Y-109064838D01*
X146323097Y-108933714D01*
X146531151Y-108774068D01*
X146716588Y-108588631D01*
X146876234Y-108380577D01*
X147007358Y-108153464D01*
X147107716Y-107911179D01*
X147175590Y-107657867D01*
X147209820Y-107397864D01*
X147209820Y-107135616D01*
X147175590Y-106875613D01*
X147107716Y-106622301D01*
X147007358Y-106380016D01*
X146973121Y-106320716D01*
X146876236Y-106152906D01*
X146876232Y-106152900D01*
X146716592Y-105944854D01*
X146716590Y-105944852D01*
X146716588Y-105944849D01*
X146716582Y-105944843D01*
X146716573Y-105944833D01*
X146531166Y-105759426D01*
X146531145Y-105759407D01*
X146323099Y-105599767D01*
X146323093Y-105599763D01*
X146095995Y-105468648D01*
X146095990Y-105468645D01*
X146095984Y-105468642D01*
X145853699Y-105368284D01*
X145600387Y-105300410D01*
X145600380Y-105300408D01*
X145340386Y-105266180D01*
X145340384Y-105266180D01*
X145078136Y-105266180D01*
X145078133Y-105266180D01*
X144818139Y-105300408D01*
X144564821Y-105368284D01*
X144322534Y-105468643D01*
X144322524Y-105468648D01*
X144095426Y-105599763D01*
X144095420Y-105599767D01*
X143887374Y-105759407D01*
X143887353Y-105759426D01*
X143701946Y-105944833D01*
X143701927Y-105944854D01*
X143542287Y-106152900D01*
X143542283Y-106152906D01*
X143411168Y-106380004D01*
X143411163Y-106380014D01*
X143411162Y-106380016D01*
X143317850Y-106605290D01*
X143310804Y-106622301D01*
X143242928Y-106875619D01*
X143208700Y-107135613D01*
X140208000Y-107135613D01*
X140208000Y-102108000D01*
X146895502Y-102108000D01*
X146915457Y-102336087D01*
X146938145Y-102420759D01*
X146974715Y-102557240D01*
X146974717Y-102557246D01*
X147071477Y-102764749D01*
X147193460Y-102938959D01*
X147202802Y-102952300D01*
X147364700Y-103114198D01*
X147552251Y-103245523D01*
X147759757Y-103342284D01*
X147980913Y-103401543D01*
X148209000Y-103421498D01*
X148437087Y-103401543D01*
X148658243Y-103342284D01*
X148865749Y-103245523D01*
X149053300Y-103114198D01*
X149215198Y-102952300D01*
X149230686Y-102930181D01*
X149237656Y-102920228D01*
X149293113Y-102875900D01*
X149340868Y-102866500D01*
X150633132Y-102866500D01*
X150701253Y-102886502D01*
X150736344Y-102920228D01*
X150755371Y-102947400D01*
X150758802Y-102952300D01*
X150920700Y-103114198D01*
X150952770Y-103136653D01*
X150997099Y-103192110D01*
X151006500Y-103239867D01*
X151006500Y-107807044D01*
X151008585Y-107817523D01*
X151021074Y-107880309D01*
X151035649Y-107953580D01*
X151092826Y-108091617D01*
X151175834Y-108215848D01*
X154039152Y-111079166D01*
X154163382Y-111162174D01*
X154301420Y-111219351D01*
X154301421Y-111219351D01*
X154301425Y-111219353D01*
X154362310Y-111231462D01*
X154374687Y-111233924D01*
X154374689Y-111233925D01*
X154399002Y-111238761D01*
X154447961Y-111248500D01*
X154447962Y-111248500D01*
X154447966Y-111248500D01*
X191082701Y-111248500D01*
X191082705Y-111248500D01*
X191082706Y-111248500D01*
X191155976Y-111233925D01*
X191229247Y-111219351D01*
X191367284Y-111162174D01*
X191491515Y-111079166D01*
X193121165Y-109449516D01*
X193204173Y-109325285D01*
X193204174Y-109325284D01*
X193261351Y-109187246D01*
X193290500Y-109040706D01*
X193290500Y-107046371D01*
X193310502Y-106978250D01*
X193327400Y-106957280D01*
X193555063Y-106729617D01*
X193617373Y-106695594D01*
X193688188Y-106700658D01*
X193745024Y-106743205D01*
X193769676Y-106807732D01*
X193775616Y-106875619D01*
X193778457Y-106908087D01*
X193826870Y-107088766D01*
X193837715Y-107129240D01*
X193837717Y-107129246D01*
X193934477Y-107336749D01*
X194019729Y-107458502D01*
X194065802Y-107524300D01*
X194227700Y-107686198D01*
X194415251Y-107817523D01*
X194622757Y-107914284D01*
X194843913Y-107973543D01*
X195072000Y-107993498D01*
X195300087Y-107973543D01*
X195521243Y-107914284D01*
X195728749Y-107817523D01*
X195916300Y-107686198D01*
X196078198Y-107524300D01*
X196209523Y-107336749D01*
X196306284Y-107129243D01*
X196365543Y-106908087D01*
X196385498Y-106680000D01*
X196365543Y-106451913D01*
X196306284Y-106230757D01*
X196209523Y-106023251D01*
X196078198Y-105835700D01*
X195916300Y-105673802D01*
X195728749Y-105542477D01*
X195689543Y-105524195D01*
X195636258Y-105477279D01*
X195616796Y-105409002D01*
X195637337Y-105341042D01*
X195689543Y-105295805D01*
X195693819Y-105293811D01*
X195728749Y-105277523D01*
X195916300Y-105146198D01*
X196078198Y-104984300D01*
X196089618Y-104967990D01*
X196100656Y-104952228D01*
X196156113Y-104907900D01*
X196203868Y-104898500D01*
X198355871Y-104898500D01*
X198423992Y-104918502D01*
X198444966Y-104935405D01*
X200673076Y-107163515D01*
X200673077Y-107163516D01*
X200778726Y-107269165D01*
X200902958Y-107352174D01*
X200953355Y-107373049D01*
X201040995Y-107409351D01*
X201114264Y-107423924D01*
X201114265Y-107423925D01*
X201128840Y-107426824D01*
X201187536Y-107438500D01*
X201187537Y-107438500D01*
X201336947Y-107438500D01*
X201560132Y-107438500D01*
X201628253Y-107458502D01*
X201663344Y-107492228D01*
X201685797Y-107524293D01*
X201685802Y-107524300D01*
X201847700Y-107686198D01*
X202035251Y-107817523D01*
X202242757Y-107914284D01*
X202463913Y-107973543D01*
X202692000Y-107993498D01*
X202920087Y-107973543D01*
X203141243Y-107914284D01*
X203348749Y-107817523D01*
X203536300Y-107686198D01*
X203698198Y-107524300D01*
X203709618Y-107507990D01*
X203720656Y-107492228D01*
X203776113Y-107447900D01*
X203823868Y-107438500D01*
X204036701Y-107438500D01*
X204036705Y-107438500D01*
X204036706Y-107438500D01*
X204109976Y-107423925D01*
X204183247Y-107409351D01*
X204321284Y-107352174D01*
X204445515Y-107269166D01*
X204579068Y-107135613D01*
X213208560Y-107135613D01*
X213208560Y-107397866D01*
X213242788Y-107657860D01*
X213242790Y-107657867D01*
X213310664Y-107911179D01*
X213411022Y-108153464D01*
X213411023Y-108153465D01*
X213411028Y-108153475D01*
X213542143Y-108380573D01*
X213542147Y-108380579D01*
X213701787Y-108588625D01*
X213701806Y-108588646D01*
X213887213Y-108774053D01*
X213887223Y-108774062D01*
X213887229Y-108774068D01*
X214095283Y-108933714D01*
X214322396Y-109064838D01*
X214564681Y-109165196D01*
X214817993Y-109233070D01*
X214817997Y-109233070D01*
X214817999Y-109233071D01*
X214885008Y-109241892D01*
X215077996Y-109267300D01*
X215078003Y-109267300D01*
X215340237Y-109267300D01*
X215340244Y-109267300D01*
X215575222Y-109236364D01*
X215600240Y-109233071D01*
X215600240Y-109233070D01*
X215600247Y-109233070D01*
X215853559Y-109165196D01*
X216095844Y-109064838D01*
X216322957Y-108933714D01*
X216531011Y-108774068D01*
X216716448Y-108588631D01*
X216876094Y-108380577D01*
X217007218Y-108153464D01*
X217107576Y-107911179D01*
X217175450Y-107657867D01*
X217209680Y-107397864D01*
X217209680Y-107135616D01*
X217175450Y-106875613D01*
X217107576Y-106622301D01*
X217007218Y-106380016D01*
X216972981Y-106320716D01*
X216876096Y-106152906D01*
X216876092Y-106152900D01*
X216716452Y-105944854D01*
X216716450Y-105944852D01*
X216716448Y-105944849D01*
X216716442Y-105944843D01*
X216716433Y-105944833D01*
X216531026Y-105759426D01*
X216531005Y-105759407D01*
X216322959Y-105599767D01*
X216322953Y-105599763D01*
X216095855Y-105468648D01*
X216095850Y-105468645D01*
X216095844Y-105468642D01*
X215853559Y-105368284D01*
X215600247Y-105300410D01*
X215600240Y-105300408D01*
X215340246Y-105266180D01*
X215340244Y-105266180D01*
X215077996Y-105266180D01*
X215077993Y-105266180D01*
X214817999Y-105300408D01*
X214564681Y-105368284D01*
X214322394Y-105468643D01*
X214322384Y-105468648D01*
X214095286Y-105599763D01*
X214095280Y-105599767D01*
X213887234Y-105759407D01*
X213887213Y-105759426D01*
X213701806Y-105944833D01*
X213701787Y-105944854D01*
X213542147Y-106152900D01*
X213542143Y-106152906D01*
X213411028Y-106380004D01*
X213411023Y-106380014D01*
X213411022Y-106380016D01*
X213317710Y-106605290D01*
X213310664Y-106622301D01*
X213242788Y-106875619D01*
X213208560Y-107135613D01*
X204579068Y-107135613D01*
X205985012Y-105729667D01*
X206047321Y-105695645D01*
X206085081Y-105693244D01*
X206248000Y-105707498D01*
X206476087Y-105687543D01*
X206697243Y-105628284D01*
X206904749Y-105531523D01*
X207092300Y-105400198D01*
X207254198Y-105238300D01*
X207385523Y-105050749D01*
X207482284Y-104843243D01*
X207541543Y-104622087D01*
X207561498Y-104394000D01*
X207541543Y-104165913D01*
X207482284Y-103944757D01*
X207385523Y-103737251D01*
X207254198Y-103549700D01*
X207092300Y-103387802D01*
X207012762Y-103332109D01*
X206904749Y-103256477D01*
X206697246Y-103159717D01*
X206697240Y-103159715D01*
X206661863Y-103150235D01*
X206544192Y-103118705D01*
X206483571Y-103081755D01*
X206452550Y-103017895D01*
X206460978Y-102947400D01*
X206506181Y-102892653D01*
X206544190Y-102875294D01*
X206697243Y-102834284D01*
X206904749Y-102737523D01*
X207092300Y-102606198D01*
X207254198Y-102444300D01*
X207385523Y-102256749D01*
X207482284Y-102049243D01*
X207541543Y-101828087D01*
X207561498Y-101600000D01*
X207541543Y-101371913D01*
X207482284Y-101150757D01*
X207385523Y-100943251D01*
X207254198Y-100755700D01*
X207092300Y-100593802D01*
X207031532Y-100551252D01*
X206904749Y-100462477D01*
X206697246Y-100365717D01*
X206697240Y-100365715D01*
X206651809Y-100353542D01*
X206544192Y-100324705D01*
X206483571Y-100287755D01*
X206452550Y-100223895D01*
X206460978Y-100153400D01*
X206506181Y-100098653D01*
X206544190Y-100081294D01*
X206697243Y-100040284D01*
X206904749Y-99943523D01*
X207092300Y-99812198D01*
X207254198Y-99650300D01*
X207385523Y-99462749D01*
X207482284Y-99255243D01*
X207541543Y-99034087D01*
X207561498Y-98806000D01*
X209935004Y-98806000D01*
X209954951Y-99034002D01*
X210014186Y-99255068D01*
X210014188Y-99255073D01*
X210110913Y-99462501D01*
X210160899Y-99533888D01*
X210848000Y-98846788D01*
X210848000Y-98858661D01*
X210875259Y-98960394D01*
X210927920Y-99051606D01*
X211002394Y-99126080D01*
X211093606Y-99178741D01*
X211195339Y-99206000D01*
X211207210Y-99206000D01*
X210520110Y-99893098D01*
X210520110Y-99893100D01*
X210591498Y-99943086D01*
X210798926Y-100039811D01*
X210798931Y-100039813D01*
X210953734Y-100081293D01*
X211014357Y-100118245D01*
X211045378Y-100182106D01*
X211036950Y-100252600D01*
X210991747Y-100307347D01*
X210953734Y-100324707D01*
X210798931Y-100366186D01*
X210798926Y-100366188D01*
X210591500Y-100462913D01*
X210520109Y-100512900D01*
X211207209Y-101200000D01*
X211195339Y-101200000D01*
X211093606Y-101227259D01*
X211002394Y-101279920D01*
X210927920Y-101354394D01*
X210875259Y-101445606D01*
X210848000Y-101547339D01*
X210848000Y-101559209D01*
X210160900Y-100872109D01*
X210110913Y-100943500D01*
X210014188Y-101150926D01*
X210014186Y-101150931D01*
X209954951Y-101371997D01*
X209935004Y-101600000D01*
X209954951Y-101828002D01*
X210014186Y-102049068D01*
X210014188Y-102049073D01*
X210110913Y-102256501D01*
X210160899Y-102327888D01*
X210848000Y-101640788D01*
X210848000Y-101652661D01*
X210875259Y-101754394D01*
X210927920Y-101845606D01*
X211002394Y-101920080D01*
X211093606Y-101972741D01*
X211195339Y-102000000D01*
X211207210Y-102000000D01*
X210520110Y-102687098D01*
X210520110Y-102687100D01*
X210591498Y-102737086D01*
X210798926Y-102833811D01*
X210798931Y-102833813D01*
X210953734Y-102875293D01*
X211014357Y-102912245D01*
X211045378Y-102976106D01*
X211036950Y-103046600D01*
X210991747Y-103101347D01*
X210953734Y-103118707D01*
X210798931Y-103160186D01*
X210798926Y-103160188D01*
X210591500Y-103256913D01*
X210520109Y-103306900D01*
X211207209Y-103994000D01*
X211195339Y-103994000D01*
X211093606Y-104021259D01*
X211002394Y-104073920D01*
X210927920Y-104148394D01*
X210875259Y-104239606D01*
X210848000Y-104341339D01*
X210848000Y-104353209D01*
X210160900Y-103666109D01*
X210110913Y-103737500D01*
X210014188Y-103944926D01*
X210014186Y-103944931D01*
X209954951Y-104165997D01*
X209935004Y-104394000D01*
X209954951Y-104622002D01*
X210014186Y-104843068D01*
X210014188Y-104843073D01*
X210110913Y-105050501D01*
X210160899Y-105121888D01*
X210848000Y-104434788D01*
X210848000Y-104446661D01*
X210875259Y-104548394D01*
X210927920Y-104639606D01*
X211002394Y-104714080D01*
X211093606Y-104766741D01*
X211195339Y-104794000D01*
X211207210Y-104794000D01*
X210520110Y-105481098D01*
X210520110Y-105481100D01*
X210591498Y-105531086D01*
X210798926Y-105627811D01*
X210798931Y-105627813D01*
X211019999Y-105687048D01*
X211019995Y-105687048D01*
X211248000Y-105706995D01*
X211476002Y-105687048D01*
X211697068Y-105627813D01*
X211697073Y-105627811D01*
X211904497Y-105531088D01*
X211975888Y-105481099D01*
X211975888Y-105481097D01*
X211288791Y-104794000D01*
X211300661Y-104794000D01*
X211402394Y-104766741D01*
X211493606Y-104714080D01*
X211568080Y-104639606D01*
X211620741Y-104548394D01*
X211648000Y-104446661D01*
X211648000Y-104434791D01*
X212335097Y-105121888D01*
X212335099Y-105121888D01*
X212385088Y-105050497D01*
X212481811Y-104843073D01*
X212481813Y-104843068D01*
X212541048Y-104622002D01*
X212560995Y-104394000D01*
X212541048Y-104165997D01*
X212481813Y-103944931D01*
X212481811Y-103944926D01*
X212385086Y-103737498D01*
X212335100Y-103666110D01*
X212335098Y-103666110D01*
X211648000Y-104353208D01*
X211648000Y-104341339D01*
X211620741Y-104239606D01*
X211568080Y-104148394D01*
X211493606Y-104073920D01*
X211402394Y-104021259D01*
X211300661Y-103994000D01*
X211288790Y-103994000D01*
X211975888Y-103306899D01*
X211975888Y-103306898D01*
X211904501Y-103256913D01*
X211697073Y-103160188D01*
X211697068Y-103160186D01*
X211603113Y-103135011D01*
X214749795Y-103135011D01*
X219081224Y-103135011D01*
X219081224Y-97888601D01*
X214749795Y-97888601D01*
X214749795Y-103135011D01*
X211603113Y-103135011D01*
X211542265Y-103118707D01*
X211481642Y-103081755D01*
X211450621Y-103017895D01*
X211459049Y-102947400D01*
X211504252Y-102892653D01*
X211542265Y-102875293D01*
X211697068Y-102833813D01*
X211697073Y-102833811D01*
X211904497Y-102737088D01*
X211975888Y-102687099D01*
X211975888Y-102687097D01*
X211288791Y-102000000D01*
X211300661Y-102000000D01*
X211402394Y-101972741D01*
X211493606Y-101920080D01*
X211568080Y-101845606D01*
X211620741Y-101754394D01*
X211648000Y-101652661D01*
X211648000Y-101640791D01*
X212335097Y-102327888D01*
X212335099Y-102327888D01*
X212385088Y-102256497D01*
X212481811Y-102049073D01*
X212481813Y-102049068D01*
X212541048Y-101828002D01*
X212560995Y-101600000D01*
X212541048Y-101371997D01*
X212481813Y-101150931D01*
X212481811Y-101150926D01*
X212385086Y-100943498D01*
X212335100Y-100872110D01*
X212335098Y-100872110D01*
X211648000Y-101559208D01*
X211648000Y-101547339D01*
X211620741Y-101445606D01*
X211568080Y-101354394D01*
X211493606Y-101279920D01*
X211402394Y-101227259D01*
X211300661Y-101200000D01*
X211288790Y-101200000D01*
X211975888Y-100512899D01*
X211975888Y-100512898D01*
X211904501Y-100462913D01*
X211697073Y-100366188D01*
X211697068Y-100366186D01*
X211542265Y-100324707D01*
X211481642Y-100287755D01*
X211450621Y-100223895D01*
X211459049Y-100153400D01*
X211504252Y-100098653D01*
X211542265Y-100081293D01*
X211697068Y-100039813D01*
X211697073Y-100039811D01*
X211904497Y-99943088D01*
X211975888Y-99893099D01*
X211975888Y-99893097D01*
X211288791Y-99206000D01*
X211300661Y-99206000D01*
X211402394Y-99178741D01*
X211493606Y-99126080D01*
X211568080Y-99051606D01*
X211620741Y-98960394D01*
X211648000Y-98858661D01*
X211648000Y-98846791D01*
X212335097Y-99533888D01*
X212335099Y-99533888D01*
X212385088Y-99462497D01*
X212481811Y-99255073D01*
X212481813Y-99255068D01*
X212541048Y-99034002D01*
X212560995Y-98806000D01*
X212541048Y-98577997D01*
X212481813Y-98356931D01*
X212481811Y-98356926D01*
X212385086Y-98149498D01*
X212335100Y-98078110D01*
X212335098Y-98078110D01*
X211648000Y-98765208D01*
X211648000Y-98753339D01*
X211620741Y-98651606D01*
X211568080Y-98560394D01*
X211493606Y-98485920D01*
X211402394Y-98433259D01*
X211300661Y-98406000D01*
X211288790Y-98406000D01*
X211975888Y-97718899D01*
X211975888Y-97718898D01*
X211904501Y-97668913D01*
X211697073Y-97572188D01*
X211697068Y-97572186D01*
X211476000Y-97512951D01*
X211476004Y-97512951D01*
X211248000Y-97493004D01*
X211019997Y-97512951D01*
X210798931Y-97572186D01*
X210798926Y-97572188D01*
X210591500Y-97668913D01*
X210520109Y-97718900D01*
X211207209Y-98406000D01*
X211195339Y-98406000D01*
X211093606Y-98433259D01*
X211002394Y-98485920D01*
X210927920Y-98560394D01*
X210875259Y-98651606D01*
X210848000Y-98753339D01*
X210848000Y-98765209D01*
X210160900Y-98078109D01*
X210110913Y-98149500D01*
X210014188Y-98356926D01*
X210014186Y-98356931D01*
X209954951Y-98577997D01*
X209935004Y-98806000D01*
X207561498Y-98806000D01*
X207541543Y-98577913D01*
X207482284Y-98356757D01*
X207385523Y-98149251D01*
X207254198Y-97961700D01*
X207092300Y-97799802D01*
X207079335Y-97790724D01*
X206904749Y-97668477D01*
X206697246Y-97571717D01*
X206697240Y-97571715D01*
X206527376Y-97526200D01*
X206476087Y-97512457D01*
X206248000Y-97492502D01*
X206019913Y-97512457D01*
X205798759Y-97571715D01*
X205798753Y-97571717D01*
X205591250Y-97668477D01*
X205403703Y-97799799D01*
X205403697Y-97799804D01*
X205241804Y-97961697D01*
X205241799Y-97961703D01*
X205110477Y-98149250D01*
X205073407Y-98228749D01*
X205026490Y-98282035D01*
X204959212Y-98301500D01*
X203823868Y-98301500D01*
X203755747Y-98281498D01*
X203720656Y-98247772D01*
X203698202Y-98215706D01*
X203698200Y-98215703D01*
X203698198Y-98215700D01*
X203536300Y-98053802D01*
X203348749Y-97922477D01*
X203308951Y-97903919D01*
X203255666Y-97857002D01*
X203236205Y-97788725D01*
X203256747Y-97720765D01*
X203308951Y-97675529D01*
X203348498Y-97657087D01*
X203535974Y-97525815D01*
X203535980Y-97525810D01*
X203697810Y-97363980D01*
X203697815Y-97363974D01*
X203829087Y-97176498D01*
X203925811Y-96969073D01*
X203925813Y-96969068D01*
X203978082Y-96774000D01*
X203003686Y-96774000D01*
X203012080Y-96765606D01*
X203064741Y-96674394D01*
X203092000Y-96572661D01*
X203092000Y-96467339D01*
X203064741Y-96365606D01*
X203012080Y-96274394D01*
X203003686Y-96266000D01*
X203978082Y-96266000D01*
X203925813Y-96070931D01*
X203925811Y-96070926D01*
X203829087Y-95863501D01*
X203697815Y-95676025D01*
X203697810Y-95676019D01*
X203535980Y-95514189D01*
X203535974Y-95514184D01*
X203348497Y-95382911D01*
X203308949Y-95364469D01*
X203255665Y-95317551D01*
X203236205Y-95249273D01*
X203256748Y-95181314D01*
X203308950Y-95136081D01*
X203348749Y-95117523D01*
X203536300Y-94986198D01*
X203698198Y-94824300D01*
X203709618Y-94807990D01*
X203720656Y-94792228D01*
X203776113Y-94747900D01*
X203823868Y-94738500D01*
X204816629Y-94738500D01*
X204884750Y-94758502D01*
X204931243Y-94812158D01*
X204941907Y-94851032D01*
X204946009Y-94889196D01*
X204946011Y-94889204D01*
X204997110Y-95026202D01*
X204997112Y-95026207D01*
X205084738Y-95143261D01*
X205201792Y-95230887D01*
X205201794Y-95230888D01*
X205201796Y-95230889D01*
X205256447Y-95251273D01*
X205338795Y-95281988D01*
X205338803Y-95281990D01*
X205399350Y-95288499D01*
X205399355Y-95288499D01*
X205399362Y-95288500D01*
X205399368Y-95288500D01*
X207096632Y-95288500D01*
X207096638Y-95288500D01*
X207096645Y-95288499D01*
X207096649Y-95288499D01*
X207157196Y-95281990D01*
X207157199Y-95281989D01*
X207157201Y-95281989D01*
X207294204Y-95230889D01*
X207300125Y-95226457D01*
X207411261Y-95143261D01*
X207498887Y-95026207D01*
X207498887Y-95026206D01*
X207498889Y-95026204D01*
X207549989Y-94889201D01*
X207549990Y-94889196D01*
X207554093Y-94851032D01*
X207581262Y-94785439D01*
X207639580Y-94744948D01*
X207679371Y-94738500D01*
X209624701Y-94738500D01*
X209624705Y-94738500D01*
X209624706Y-94738500D01*
X209697976Y-94723925D01*
X209771247Y-94709351D01*
X209909284Y-94652174D01*
X210033515Y-94569166D01*
X213441165Y-91161516D01*
X213499365Y-91074413D01*
X213524174Y-91037284D01*
X213581351Y-90899246D01*
X213610500Y-90752706D01*
X213610500Y-86983867D01*
X213630502Y-86915746D01*
X213664228Y-86880654D01*
X213696300Y-86858198D01*
X213858198Y-86696300D01*
X213989523Y-86508749D01*
X214086284Y-86301243D01*
X214145543Y-86080087D01*
X214165498Y-85852000D01*
X214145543Y-85623913D01*
X214086284Y-85402757D01*
X213989523Y-85195251D01*
X213858198Y-85007700D01*
X213696300Y-84845802D01*
X213508749Y-84714477D01*
X213328481Y-84630417D01*
X213301246Y-84617717D01*
X213301240Y-84617715D01*
X213207771Y-84592670D01*
X213080087Y-84558457D01*
X212852000Y-84538502D01*
X212623913Y-84558457D01*
X212402759Y-84617715D01*
X212402753Y-84617717D01*
X212195250Y-84714477D01*
X212007703Y-84845799D01*
X212007697Y-84845804D01*
X211845804Y-85007697D01*
X211845799Y-85007703D01*
X211714477Y-85195250D01*
X211617717Y-85402753D01*
X211617715Y-85402759D01*
X211614314Y-85415453D01*
X211558457Y-85623913D01*
X211538502Y-85852000D01*
X211558457Y-86080087D01*
X211587830Y-86189708D01*
X211617715Y-86301240D01*
X211617717Y-86301246D01*
X211714477Y-86508749D01*
X211799729Y-86630502D01*
X211845802Y-86696300D01*
X212007700Y-86858198D01*
X212039770Y-86880653D01*
X212084099Y-86936110D01*
X212093500Y-86983867D01*
X212093500Y-90311629D01*
X212073498Y-90379750D01*
X212056595Y-90400724D01*
X209272724Y-93184595D01*
X209210412Y-93218621D01*
X209183629Y-93221500D01*
X207679371Y-93221500D01*
X207611250Y-93201498D01*
X207564757Y-93147842D01*
X207554093Y-93108968D01*
X207549990Y-93070803D01*
X207549988Y-93070795D01*
X207513811Y-92973804D01*
X207498889Y-92933796D01*
X207498888Y-92933794D01*
X207498887Y-92933792D01*
X207411261Y-92816738D01*
X207294207Y-92729112D01*
X207294202Y-92729110D01*
X207157204Y-92678011D01*
X207157196Y-92678009D01*
X207096649Y-92671500D01*
X207096638Y-92671500D01*
X205399362Y-92671500D01*
X205399350Y-92671500D01*
X205338803Y-92678009D01*
X205338795Y-92678011D01*
X205201797Y-92729110D01*
X205201792Y-92729112D01*
X205084738Y-92816738D01*
X204997112Y-92933792D01*
X204997110Y-92933797D01*
X204946011Y-93070795D01*
X204946009Y-93070803D01*
X204941907Y-93108968D01*
X204914738Y-93174561D01*
X204856420Y-93215052D01*
X204816629Y-93221500D01*
X203823868Y-93221500D01*
X203755747Y-93201498D01*
X203720656Y-93167772D01*
X203698202Y-93135706D01*
X203698200Y-93135703D01*
X203698198Y-93135700D01*
X203536300Y-92973802D01*
X203536291Y-92973796D01*
X203352936Y-92845409D01*
X203348749Y-92842477D01*
X203309543Y-92824195D01*
X203256258Y-92777279D01*
X203236796Y-92709002D01*
X203257337Y-92641042D01*
X203309543Y-92595805D01*
X203311997Y-92594660D01*
X203348749Y-92577523D01*
X203536300Y-92446198D01*
X203698198Y-92284300D01*
X203709618Y-92267990D01*
X203720656Y-92252228D01*
X203776113Y-92207900D01*
X203823868Y-92198500D01*
X204513061Y-92198500D01*
X204591542Y-92182889D01*
X204659602Y-92169351D01*
X204797639Y-92112174D01*
X204898156Y-92045011D01*
X204965906Y-92023797D01*
X205034373Y-92042580D01*
X205069022Y-92074267D01*
X205084737Y-92095260D01*
X205201792Y-92182887D01*
X205201794Y-92182888D01*
X205201796Y-92182889D01*
X205253034Y-92202000D01*
X205338795Y-92233988D01*
X205338803Y-92233990D01*
X205399350Y-92240499D01*
X205399355Y-92240499D01*
X205399362Y-92240500D01*
X205399368Y-92240500D01*
X207096632Y-92240500D01*
X207096638Y-92240500D01*
X207096645Y-92240499D01*
X207096649Y-92240499D01*
X207157196Y-92233990D01*
X207157199Y-92233989D01*
X207157201Y-92233989D01*
X207294204Y-92182889D01*
X207302738Y-92176501D01*
X207411261Y-92095261D01*
X207498887Y-91978207D01*
X207498887Y-91978206D01*
X207498889Y-91978204D01*
X207549989Y-91841201D01*
X207556480Y-91780830D01*
X207556499Y-91780649D01*
X207556500Y-91780632D01*
X207556500Y-90083367D01*
X207556499Y-90083350D01*
X207549990Y-90022803D01*
X207549988Y-90022795D01*
X207513811Y-89925804D01*
X207498889Y-89885796D01*
X207498888Y-89885794D01*
X207498887Y-89885792D01*
X207411261Y-89768738D01*
X207294207Y-89681112D01*
X207294202Y-89681110D01*
X207157204Y-89630011D01*
X207157196Y-89630009D01*
X207119032Y-89625907D01*
X207053439Y-89598738D01*
X207012948Y-89540420D01*
X207006500Y-89500629D01*
X207006500Y-86983867D01*
X207026502Y-86915746D01*
X207060228Y-86880654D01*
X207092300Y-86858198D01*
X207254198Y-86696300D01*
X207385523Y-86508749D01*
X207482284Y-86301243D01*
X207541543Y-86080087D01*
X207561498Y-85852000D01*
X208236502Y-85852000D01*
X208256457Y-86080087D01*
X208285830Y-86189708D01*
X208315715Y-86301240D01*
X208315717Y-86301246D01*
X208412477Y-86508749D01*
X208497729Y-86630502D01*
X208543802Y-86696300D01*
X208705700Y-86858198D01*
X208893251Y-86989523D01*
X209100757Y-87086284D01*
X209321913Y-87145543D01*
X209550000Y-87165498D01*
X209778087Y-87145543D01*
X209999243Y-87086284D01*
X210206749Y-86989523D01*
X210394300Y-86858198D01*
X210556198Y-86696300D01*
X210687523Y-86508749D01*
X210784284Y-86301243D01*
X210843543Y-86080087D01*
X210863498Y-85852000D01*
X210843543Y-85623913D01*
X210784284Y-85402757D01*
X210687523Y-85195251D01*
X210556198Y-85007700D01*
X210394300Y-84845802D01*
X210394293Y-84845797D01*
X210362228Y-84823344D01*
X210317900Y-84767887D01*
X210308500Y-84720132D01*
X210308500Y-84694371D01*
X210328502Y-84626250D01*
X210345405Y-84605276D01*
X210843276Y-84107405D01*
X210905588Y-84073379D01*
X210932371Y-84070500D01*
X215025629Y-84070500D01*
X215093750Y-84090502D01*
X215114724Y-84107405D01*
X215612595Y-84605276D01*
X215646621Y-84667588D01*
X215649500Y-84694371D01*
X215649500Y-84720132D01*
X215629498Y-84788253D01*
X215595772Y-84823344D01*
X215563706Y-84845797D01*
X215563697Y-84845804D01*
X215401804Y-85007697D01*
X215401799Y-85007703D01*
X215270477Y-85195250D01*
X215173717Y-85402753D01*
X215173715Y-85402759D01*
X215170314Y-85415453D01*
X215114457Y-85623913D01*
X215094502Y-85852000D01*
X215114457Y-86080087D01*
X215143830Y-86189708D01*
X215173715Y-86301240D01*
X215173717Y-86301246D01*
X215270477Y-86508749D01*
X215355729Y-86630502D01*
X215401802Y-86696300D01*
X215563700Y-86858198D01*
X215595770Y-86880653D01*
X215640099Y-86936110D01*
X215649500Y-86983867D01*
X215649500Y-89800132D01*
X215629498Y-89868253D01*
X215595772Y-89903344D01*
X215563706Y-89925797D01*
X215563697Y-89925804D01*
X215401804Y-90087697D01*
X215401799Y-90087703D01*
X215270477Y-90275250D01*
X215173717Y-90482753D01*
X215173715Y-90482759D01*
X215143453Y-90595700D01*
X215114457Y-90703913D01*
X215094502Y-90932000D01*
X215114457Y-91160087D01*
X215114840Y-91161516D01*
X215173715Y-91381240D01*
X215173717Y-91381246D01*
X215270477Y-91588749D01*
X215326029Y-91668086D01*
X215401802Y-91776300D01*
X215563700Y-91938198D01*
X215595770Y-91960653D01*
X215640099Y-92016110D01*
X215649500Y-92063867D01*
X215649500Y-92848132D01*
X215629498Y-92916253D01*
X215595772Y-92951344D01*
X215563706Y-92973797D01*
X215563697Y-92973804D01*
X215401804Y-93135697D01*
X215401799Y-93135703D01*
X215270477Y-93323250D01*
X215173717Y-93530753D01*
X215173715Y-93530759D01*
X215114457Y-93751913D01*
X215094502Y-93980000D01*
X215114457Y-94208086D01*
X215173715Y-94429240D01*
X215173717Y-94429246D01*
X215270477Y-94636749D01*
X215356848Y-94760100D01*
X215401802Y-94824300D01*
X215563700Y-94986198D01*
X215751251Y-95117523D01*
X215958757Y-95214284D01*
X216179913Y-95273543D01*
X216408000Y-95293498D01*
X216636087Y-95273543D01*
X216857243Y-95214284D01*
X217064749Y-95117523D01*
X217252300Y-94986198D01*
X217414198Y-94824300D01*
X217545523Y-94636749D01*
X217642284Y-94429243D01*
X217701543Y-94208087D01*
X217721498Y-93980000D01*
X217701543Y-93751913D01*
X217642284Y-93530757D01*
X217545523Y-93323251D01*
X217414198Y-93135700D01*
X217252300Y-92973802D01*
X217252293Y-92973797D01*
X217220228Y-92951344D01*
X217175900Y-92895887D01*
X217166500Y-92848132D01*
X217166500Y-92063867D01*
X217186502Y-91995746D01*
X217220228Y-91960654D01*
X217252300Y-91938198D01*
X217414198Y-91776300D01*
X217545523Y-91588749D01*
X217642284Y-91381243D01*
X217701543Y-91160087D01*
X217721498Y-90932000D01*
X217701543Y-90703913D01*
X217642284Y-90482757D01*
X217545523Y-90275251D01*
X217414198Y-90087700D01*
X217252300Y-89925802D01*
X217252293Y-89925797D01*
X217220228Y-89903344D01*
X217175900Y-89847887D01*
X217166500Y-89800132D01*
X217166500Y-86983867D01*
X217186502Y-86915746D01*
X217220228Y-86880654D01*
X217252300Y-86858198D01*
X217414198Y-86696300D01*
X217545523Y-86508749D01*
X217642284Y-86301243D01*
X217701543Y-86080087D01*
X217721498Y-85852000D01*
X217701543Y-85623913D01*
X217642284Y-85402757D01*
X217545523Y-85195251D01*
X217414198Y-85007700D01*
X217252300Y-84845802D01*
X217252293Y-84845797D01*
X217220228Y-84823344D01*
X217175900Y-84767887D01*
X217166500Y-84720132D01*
X217166500Y-84253293D01*
X217166499Y-84253290D01*
X217154530Y-84193119D01*
X217137351Y-84106754D01*
X217126750Y-84081162D01*
X217080174Y-83968716D01*
X216997166Y-83844485D01*
X215875515Y-82722834D01*
X215751284Y-82639826D01*
X215613247Y-82582649D01*
X215539976Y-82568074D01*
X215539975Y-82568073D01*
X215466711Y-82553500D01*
X215466706Y-82553500D01*
X210491294Y-82553500D01*
X210491288Y-82553500D01*
X210418024Y-82568073D01*
X210418024Y-82568074D01*
X210344753Y-82582649D01*
X210344751Y-82582649D01*
X210344750Y-82582650D01*
X210206714Y-82639827D01*
X210082486Y-82722833D01*
X210082480Y-82722838D01*
X208960838Y-83844480D01*
X208960833Y-83844486D01*
X208877827Y-83968714D01*
X208831251Y-84081160D01*
X208831250Y-84081162D01*
X208820650Y-84106750D01*
X208820649Y-84106754D01*
X208791500Y-84253290D01*
X208791500Y-84720132D01*
X208771498Y-84788253D01*
X208737772Y-84823344D01*
X208705706Y-84845797D01*
X208705697Y-84845804D01*
X208543804Y-85007697D01*
X208543799Y-85007703D01*
X208412477Y-85195250D01*
X208315717Y-85402753D01*
X208315715Y-85402759D01*
X208312314Y-85415453D01*
X208256457Y-85623913D01*
X208236502Y-85852000D01*
X207561498Y-85852000D01*
X207541543Y-85623913D01*
X207482284Y-85402757D01*
X207385523Y-85195251D01*
X207254198Y-85007700D01*
X207092300Y-84845802D01*
X206904749Y-84714477D01*
X206724481Y-84630417D01*
X206697246Y-84617717D01*
X206697240Y-84617715D01*
X206603771Y-84592670D01*
X206476087Y-84558457D01*
X206248000Y-84538502D01*
X206019913Y-84558457D01*
X205798759Y-84617715D01*
X205798753Y-84617717D01*
X205591250Y-84714477D01*
X205403703Y-84845799D01*
X205403697Y-84845804D01*
X205241804Y-85007697D01*
X205241799Y-85007703D01*
X205110477Y-85195250D01*
X205013717Y-85402753D01*
X205013715Y-85402759D01*
X205010314Y-85415453D01*
X204954457Y-85623913D01*
X204934502Y-85852000D01*
X204954457Y-86080087D01*
X204983830Y-86189708D01*
X205013715Y-86301240D01*
X205013717Y-86301246D01*
X205110477Y-86508749D01*
X205195729Y-86630502D01*
X205241802Y-86696300D01*
X205403700Y-86858198D01*
X205435770Y-86880653D01*
X205480099Y-86936110D01*
X205489500Y-86983867D01*
X205489500Y-89500629D01*
X205469498Y-89568750D01*
X205415842Y-89615243D01*
X205376968Y-89625907D01*
X205338803Y-89630009D01*
X205338795Y-89630011D01*
X205201797Y-89681110D01*
X205201792Y-89681112D01*
X205084738Y-89768738D01*
X204997112Y-89885792D01*
X204997110Y-89885797D01*
X204946011Y-90022795D01*
X204946009Y-90022803D01*
X204940976Y-90069628D01*
X204913807Y-90135221D01*
X204855489Y-90175712D01*
X204840280Y-90179739D01*
X204798379Y-90188073D01*
X204798379Y-90188074D01*
X204761743Y-90195361D01*
X204725107Y-90202649D01*
X204725103Y-90202650D01*
X204667956Y-90226321D01*
X204667957Y-90226322D01*
X204587070Y-90259826D01*
X204576752Y-90266721D01*
X204576744Y-90266725D01*
X204509542Y-90311629D01*
X204462839Y-90342835D01*
X204462837Y-90342836D01*
X204462834Y-90342839D01*
X204161079Y-90644595D01*
X204098767Y-90678621D01*
X204071984Y-90681500D01*
X203823868Y-90681500D01*
X203755747Y-90661498D01*
X203720656Y-90627772D01*
X203698202Y-90595706D01*
X203698200Y-90595703D01*
X203698198Y-90595700D01*
X203536300Y-90433802D01*
X203535010Y-90432899D01*
X203348749Y-90302477D01*
X203141246Y-90205717D01*
X203141240Y-90205715D01*
X203021012Y-90173500D01*
X202920087Y-90146457D01*
X202692000Y-90126502D01*
X202463913Y-90146457D01*
X202242759Y-90205715D01*
X202242753Y-90205717D01*
X202035250Y-90302477D01*
X201847703Y-90433799D01*
X201847697Y-90433804D01*
X201685804Y-90595697D01*
X201685799Y-90595703D01*
X201554477Y-90783250D01*
X201457717Y-90990753D01*
X201457715Y-90990759D01*
X201413518Y-91155704D01*
X201398457Y-91211913D01*
X201378502Y-91440000D01*
X201398457Y-91668087D01*
X201407650Y-91702394D01*
X201457715Y-91889240D01*
X201457717Y-91889246D01*
X201554477Y-92096749D01*
X201674444Y-92268080D01*
X201685802Y-92284300D01*
X201847700Y-92446198D01*
X202035251Y-92577523D01*
X202070359Y-92593894D01*
X202074457Y-92595805D01*
X202127742Y-92642722D01*
X202147203Y-92710999D01*
X202126661Y-92778959D01*
X202074457Y-92824195D01*
X202035250Y-92842477D01*
X201847703Y-92973799D01*
X201847697Y-92973804D01*
X201685804Y-93135697D01*
X201685799Y-93135703D01*
X201554477Y-93323250D01*
X201457717Y-93530753D01*
X201457715Y-93530759D01*
X201398457Y-93751913D01*
X201378502Y-93980000D01*
X201398457Y-94208086D01*
X201457715Y-94429240D01*
X201457717Y-94429246D01*
X201554477Y-94636749D01*
X201640848Y-94760100D01*
X201685802Y-94824300D01*
X201847700Y-94986198D01*
X202035251Y-95117523D01*
X202063250Y-95130579D01*
X202075047Y-95136080D01*
X202128332Y-95182996D01*
X202147794Y-95251273D01*
X202127253Y-95319233D01*
X202075051Y-95364468D01*
X202035504Y-95382910D01*
X201848025Y-95514184D01*
X201848019Y-95514189D01*
X201686189Y-95676019D01*
X201686184Y-95676025D01*
X201554912Y-95863501D01*
X201458188Y-96070926D01*
X201458186Y-96070931D01*
X201405917Y-96266000D01*
X202380314Y-96266000D01*
X202371920Y-96274394D01*
X202319259Y-96365606D01*
X202292000Y-96467339D01*
X202292000Y-96572661D01*
X202319259Y-96674394D01*
X202371920Y-96765606D01*
X202380314Y-96774000D01*
X201405918Y-96774000D01*
X201458186Y-96969068D01*
X201458188Y-96969073D01*
X201554912Y-97176498D01*
X201686184Y-97363974D01*
X201686189Y-97363980D01*
X201848019Y-97525810D01*
X201848025Y-97525815D01*
X202035503Y-97657089D01*
X202075049Y-97675530D01*
X202128334Y-97722447D01*
X202147794Y-97790724D01*
X202127252Y-97858684D01*
X202075049Y-97903918D01*
X202035252Y-97922475D01*
X201847703Y-98053799D01*
X201847697Y-98053804D01*
X201685804Y-98215697D01*
X201685797Y-98215706D01*
X201663344Y-98247772D01*
X201607887Y-98292100D01*
X201560132Y-98301500D01*
X201174072Y-98301500D01*
X201100808Y-98316073D01*
X201100808Y-98316074D01*
X201064172Y-98323361D01*
X201027536Y-98330649D01*
X201027532Y-98330650D01*
X200980106Y-98350294D01*
X200980107Y-98350295D01*
X200889500Y-98387825D01*
X200879181Y-98394721D01*
X200879173Y-98394725D01*
X200801254Y-98446790D01*
X200765268Y-98470835D01*
X200765266Y-98470836D01*
X200765263Y-98470839D01*
X198431508Y-100804595D01*
X198369196Y-100838621D01*
X198342413Y-100841500D01*
X196203868Y-100841500D01*
X196135747Y-100821498D01*
X196100656Y-100787772D01*
X196078202Y-100755706D01*
X196078200Y-100755703D01*
X196078198Y-100755700D01*
X195916300Y-100593802D01*
X195728749Y-100462477D01*
X195689543Y-100444195D01*
X195636258Y-100397279D01*
X195616796Y-100329002D01*
X195637337Y-100261042D01*
X195689543Y-100215805D01*
X195691997Y-100214660D01*
X195728749Y-100197523D01*
X195916300Y-100066198D01*
X196078198Y-99904300D01*
X196209523Y-99716749D01*
X196306284Y-99509243D01*
X196365543Y-99288087D01*
X196385498Y-99060000D01*
X196365543Y-98831913D01*
X196306284Y-98610757D01*
X196209523Y-98403251D01*
X196078198Y-98215700D01*
X195916300Y-98053802D01*
X195728749Y-97922477D01*
X195689543Y-97904195D01*
X195636258Y-97857279D01*
X195616796Y-97789002D01*
X195637337Y-97721042D01*
X195689543Y-97675805D01*
X195691997Y-97674660D01*
X195728749Y-97657523D01*
X195916300Y-97526198D01*
X196078198Y-97364300D01*
X196209523Y-97176749D01*
X196306284Y-96969243D01*
X196365543Y-96748087D01*
X196385498Y-96520000D01*
X196365543Y-96291913D01*
X196306284Y-96070757D01*
X196209523Y-95863251D01*
X196078198Y-95675700D01*
X195916300Y-95513802D01*
X195728749Y-95382477D01*
X195690130Y-95364469D01*
X195689543Y-95364195D01*
X195636258Y-95317279D01*
X195616796Y-95249002D01*
X195637337Y-95181042D01*
X195689543Y-95135805D01*
X195700750Y-95130579D01*
X195728749Y-95117523D01*
X195916300Y-94986198D01*
X196078198Y-94824300D01*
X196209523Y-94636749D01*
X196306284Y-94429243D01*
X196365543Y-94208087D01*
X196385498Y-93980000D01*
X196365543Y-93751913D01*
X196306284Y-93530757D01*
X196209523Y-93323251D01*
X196078198Y-93135700D01*
X195916300Y-92973802D01*
X195916293Y-92973797D01*
X195916292Y-92973796D01*
X195912995Y-92971487D01*
X195868669Y-92916028D01*
X195861363Y-92845409D01*
X195893396Y-92782049D01*
X195954599Y-92746067D01*
X195971801Y-92742999D01*
X195981201Y-92741989D01*
X196118204Y-92690889D01*
X196124125Y-92686457D01*
X196235261Y-92603261D01*
X196322887Y-92486207D01*
X196322887Y-92486206D01*
X196322889Y-92486204D01*
X196373989Y-92349201D01*
X196374119Y-92348000D01*
X196380499Y-92288649D01*
X196380500Y-92288632D01*
X196380500Y-90591367D01*
X196380499Y-90591350D01*
X196373990Y-90530803D01*
X196373988Y-90530795D01*
X196337811Y-90433804D01*
X196322889Y-90393796D01*
X196322888Y-90393794D01*
X196322887Y-90393792D01*
X196235261Y-90276738D01*
X196118207Y-90189112D01*
X196118202Y-90189110D01*
X195981204Y-90138011D01*
X195981196Y-90138009D01*
X195943032Y-90133907D01*
X195877439Y-90106738D01*
X195836948Y-90048420D01*
X195830500Y-90008629D01*
X195830500Y-89079293D01*
X195830499Y-89079290D01*
X195814594Y-88999331D01*
X195801351Y-88932754D01*
X195744174Y-88794716D01*
X195661166Y-88670485D01*
X194793515Y-87802834D01*
X194669284Y-87719826D01*
X194531247Y-87662649D01*
X194457976Y-87648074D01*
X194457975Y-87648073D01*
X194384711Y-87633500D01*
X194384706Y-87633500D01*
X187780706Y-87633500D01*
X175753371Y-87633500D01*
X175685250Y-87613498D01*
X175664276Y-87596595D01*
X175293405Y-87225724D01*
X175259379Y-87163412D01*
X175256500Y-87136629D01*
X175256500Y-86983867D01*
X175276502Y-86915746D01*
X175310228Y-86880654D01*
X175342300Y-86858198D01*
X175504198Y-86696300D01*
X175635523Y-86508749D01*
X175732284Y-86301243D01*
X175791543Y-86080087D01*
X175811498Y-85852000D01*
X176740502Y-85852000D01*
X176760457Y-86080087D01*
X176789830Y-86189708D01*
X176819715Y-86301240D01*
X176819717Y-86301246D01*
X176916477Y-86508749D01*
X177001729Y-86630502D01*
X177047802Y-86696300D01*
X177209700Y-86858198D01*
X177397251Y-86989523D01*
X177604757Y-87086284D01*
X177825913Y-87145543D01*
X178054000Y-87165498D01*
X178282087Y-87145543D01*
X178503243Y-87086284D01*
X178710749Y-86989523D01*
X178898300Y-86858198D01*
X179060198Y-86696300D01*
X179071618Y-86679990D01*
X179082656Y-86664228D01*
X179138113Y-86619900D01*
X179185868Y-86610500D01*
X180977240Y-86610500D01*
X181045361Y-86630502D01*
X181080453Y-86664230D01*
X181111798Y-86708995D01*
X181111800Y-86708998D01*
X181111801Y-86708999D01*
X181111802Y-86709000D01*
X181273700Y-86870898D01*
X181461251Y-87002223D01*
X181668757Y-87098984D01*
X181889913Y-87158243D01*
X182118000Y-87178198D01*
X182346087Y-87158243D01*
X182567243Y-87098984D01*
X182774749Y-87002223D01*
X182962300Y-86870898D01*
X183124198Y-86709000D01*
X183255523Y-86521449D01*
X183352284Y-86313943D01*
X183411543Y-86092787D01*
X183431498Y-85864700D01*
X183430387Y-85852000D01*
X184360502Y-85852000D01*
X184380457Y-86080087D01*
X184409830Y-86189708D01*
X184439715Y-86301240D01*
X184439717Y-86301246D01*
X184536477Y-86508749D01*
X184621729Y-86630502D01*
X184667802Y-86696300D01*
X184829700Y-86858198D01*
X185017251Y-86989523D01*
X185224757Y-87086284D01*
X185445913Y-87145543D01*
X185674000Y-87165498D01*
X185902087Y-87145543D01*
X186123243Y-87086284D01*
X186330749Y-86989523D01*
X186518300Y-86858198D01*
X186680198Y-86696300D01*
X186811523Y-86508749D01*
X186908284Y-86301243D01*
X186967543Y-86080087D01*
X186987498Y-85852000D01*
X187916502Y-85852000D01*
X187936457Y-86080087D01*
X187965830Y-86189708D01*
X187995715Y-86301240D01*
X187995717Y-86301246D01*
X188092477Y-86508749D01*
X188177729Y-86630502D01*
X188223802Y-86696300D01*
X188385700Y-86858198D01*
X188573251Y-86989523D01*
X188780757Y-87086284D01*
X189001913Y-87145543D01*
X189230000Y-87165498D01*
X189458087Y-87145543D01*
X189679243Y-87086284D01*
X189886749Y-86989523D01*
X190074300Y-86858198D01*
X190236198Y-86696300D01*
X190367523Y-86508749D01*
X190457773Y-86315204D01*
X190482869Y-86279363D01*
X191261830Y-85500404D01*
X191324142Y-85466379D01*
X191350925Y-85463500D01*
X192922209Y-85463500D01*
X192990330Y-85483502D01*
X193036823Y-85537158D01*
X193045050Y-85561461D01*
X193046572Y-85568131D01*
X193138479Y-85802309D01*
X193138481Y-85802313D01*
X193264266Y-86020180D01*
X193421125Y-86216876D01*
X193557134Y-86343072D01*
X193605538Y-86387984D01*
X193605544Y-86387988D01*
X193813387Y-86529694D01*
X193813394Y-86529698D01*
X193813397Y-86529700D01*
X194040055Y-86638853D01*
X194040058Y-86638853D01*
X194040063Y-86638856D01*
X194280440Y-86713002D01*
X194280442Y-86713002D01*
X194280451Y-86713005D01*
X194529214Y-86750500D01*
X194529218Y-86750500D01*
X194780782Y-86750500D01*
X194780786Y-86750500D01*
X195029549Y-86713005D01*
X195029559Y-86713002D01*
X195269936Y-86638856D01*
X195269938Y-86638854D01*
X195269945Y-86638853D01*
X195496604Y-86529700D01*
X195704462Y-86387984D01*
X195888878Y-86216872D01*
X196045731Y-86020184D01*
X196171517Y-85802316D01*
X196263427Y-85568134D01*
X196319407Y-85322869D01*
X196338207Y-85072000D01*
X197971793Y-85072000D01*
X197990593Y-85322869D01*
X197990594Y-85322873D01*
X198046571Y-85568129D01*
X198138479Y-85802309D01*
X198138481Y-85802313D01*
X198264266Y-86020180D01*
X198421125Y-86216876D01*
X198557134Y-86343072D01*
X198605538Y-86387984D01*
X198605544Y-86387988D01*
X198813387Y-86529694D01*
X198813394Y-86529698D01*
X198813397Y-86529700D01*
X199040055Y-86638853D01*
X199040058Y-86638853D01*
X199040063Y-86638856D01*
X199280440Y-86713002D01*
X199280442Y-86713002D01*
X199280451Y-86713005D01*
X199529214Y-86750500D01*
X199529218Y-86750500D01*
X199780782Y-86750500D01*
X199780786Y-86750500D01*
X200029549Y-86713005D01*
X200029559Y-86713002D01*
X200269936Y-86638856D01*
X200269938Y-86638854D01*
X200269945Y-86638853D01*
X200496604Y-86529700D01*
X200704462Y-86387984D01*
X200888878Y-86216872D01*
X201045731Y-86020184D01*
X201171517Y-85802316D01*
X201263427Y-85568134D01*
X201319407Y-85322869D01*
X201338207Y-85072000D01*
X201319407Y-84821131D01*
X201263427Y-84575866D01*
X201178037Y-84358296D01*
X201171520Y-84341690D01*
X201171518Y-84341686D01*
X201045733Y-84123819D01*
X201032643Y-84107405D01*
X200888878Y-83927128D01*
X200888877Y-83927127D01*
X200888874Y-83927123D01*
X200704467Y-83756021D01*
X200704461Y-83756015D01*
X200580713Y-83671645D01*
X200496606Y-83614301D01*
X200269949Y-83505148D01*
X200269936Y-83505143D01*
X200029559Y-83430997D01*
X200029551Y-83430995D01*
X200029549Y-83430995D01*
X199780786Y-83393500D01*
X199529214Y-83393500D01*
X199280451Y-83430995D01*
X199280449Y-83430995D01*
X199280440Y-83430997D01*
X199040063Y-83505143D01*
X199040051Y-83505148D01*
X198813394Y-83614301D01*
X198813387Y-83614305D01*
X198605544Y-83756011D01*
X198605532Y-83756021D01*
X198421125Y-83927123D01*
X198264266Y-84123819D01*
X198138481Y-84341686D01*
X198138479Y-84341690D01*
X198046571Y-84575870D01*
X197998674Y-84785724D01*
X197990593Y-84821131D01*
X197971793Y-85072000D01*
X196338207Y-85072000D01*
X196319407Y-84821131D01*
X196263427Y-84575866D01*
X196178037Y-84358296D01*
X196171520Y-84341690D01*
X196171518Y-84341686D01*
X196045733Y-84123819D01*
X196032643Y-84107405D01*
X195888878Y-83927128D01*
X195888877Y-83927127D01*
X195888874Y-83927123D01*
X195704467Y-83756021D01*
X195704462Y-83756016D01*
X195704455Y-83756011D01*
X195704452Y-83756008D01*
X195612989Y-83693649D01*
X195594873Y-83678639D01*
X195587883Y-83671649D01*
X195587881Y-83671647D01*
X195422704Y-83561279D01*
X195239169Y-83485256D01*
X195165050Y-83470512D01*
X195150605Y-83467639D01*
X195138049Y-83464462D01*
X195029559Y-83430997D01*
X195029551Y-83430995D01*
X195029549Y-83430995D01*
X194780786Y-83393500D01*
X194529214Y-83393500D01*
X194280451Y-83430995D01*
X194280450Y-83430995D01*
X194280445Y-83430996D01*
X194254987Y-83438849D01*
X194248332Y-83440902D01*
X194211194Y-83446500D01*
X190781668Y-83446500D01*
X190586830Y-83485256D01*
X190586825Y-83485258D01*
X190403296Y-83561279D01*
X190238123Y-83671644D01*
X190238121Y-83671645D01*
X189401444Y-84508320D01*
X189339132Y-84542345D01*
X189301370Y-84544745D01*
X189230002Y-84538502D01*
X189230001Y-84538502D01*
X189230000Y-84538502D01*
X189001913Y-84558457D01*
X188780759Y-84617715D01*
X188780753Y-84617717D01*
X188573250Y-84714477D01*
X188385703Y-84845799D01*
X188385697Y-84845804D01*
X188223804Y-85007697D01*
X188223799Y-85007703D01*
X188092477Y-85195250D01*
X187995717Y-85402753D01*
X187995715Y-85402759D01*
X187992314Y-85415453D01*
X187936457Y-85623913D01*
X187916502Y-85852000D01*
X186987498Y-85852000D01*
X186967543Y-85623913D01*
X186908284Y-85402757D01*
X186811523Y-85195251D01*
X186680198Y-85007700D01*
X186518300Y-84845802D01*
X186330749Y-84714477D01*
X186150481Y-84630417D01*
X186123246Y-84617717D01*
X186123240Y-84617715D01*
X186029771Y-84592670D01*
X185902087Y-84558457D01*
X185674000Y-84538502D01*
X185445913Y-84558457D01*
X185224759Y-84617715D01*
X185224753Y-84617717D01*
X185017250Y-84714477D01*
X184829703Y-84845799D01*
X184829697Y-84845804D01*
X184667804Y-85007697D01*
X184667799Y-85007703D01*
X184536477Y-85195250D01*
X184439717Y-85402753D01*
X184439715Y-85402759D01*
X184436314Y-85415453D01*
X184380457Y-85623913D01*
X184360502Y-85852000D01*
X183430387Y-85852000D01*
X183411543Y-85636613D01*
X183352284Y-85415457D01*
X183255523Y-85207951D01*
X183124198Y-85020400D01*
X182962300Y-84858502D01*
X182944165Y-84845804D01*
X182774749Y-84727177D01*
X182567246Y-84630417D01*
X182567240Y-84630415D01*
X182473420Y-84605276D01*
X182346087Y-84571157D01*
X182118000Y-84551202D01*
X181889913Y-84571157D01*
X181668759Y-84630415D01*
X181668753Y-84630417D01*
X181461250Y-84727177D01*
X181273703Y-84858499D01*
X181273697Y-84858504D01*
X181111804Y-85020397D01*
X181111799Y-85020403D01*
X181098238Y-85039771D01*
X181042781Y-85084099D01*
X180995025Y-85093500D01*
X179185868Y-85093500D01*
X179117747Y-85073498D01*
X179082656Y-85039772D01*
X179060202Y-85007706D01*
X179060200Y-85007703D01*
X179060198Y-85007700D01*
X178898300Y-84845802D01*
X178710749Y-84714477D01*
X178530481Y-84630417D01*
X178503246Y-84617717D01*
X178503240Y-84617715D01*
X178409771Y-84592670D01*
X178282087Y-84558457D01*
X178054000Y-84538502D01*
X177825913Y-84558457D01*
X177604759Y-84617715D01*
X177604753Y-84617717D01*
X177397250Y-84714477D01*
X177209703Y-84845799D01*
X177209697Y-84845804D01*
X177047804Y-85007697D01*
X177047799Y-85007703D01*
X176916477Y-85195250D01*
X176819717Y-85402753D01*
X176819715Y-85402759D01*
X176816314Y-85415453D01*
X176760457Y-85623913D01*
X176740502Y-85852000D01*
X175811498Y-85852000D01*
X175791543Y-85623913D01*
X175732284Y-85402757D01*
X175635523Y-85195251D01*
X175504198Y-85007700D01*
X175342300Y-84845802D01*
X175154749Y-84714477D01*
X174974481Y-84630417D01*
X174947246Y-84617717D01*
X174947240Y-84617715D01*
X174853771Y-84592670D01*
X174726087Y-84558457D01*
X174498000Y-84538502D01*
X174269913Y-84558457D01*
X174048759Y-84617715D01*
X174048753Y-84617717D01*
X173841250Y-84714477D01*
X173653703Y-84845799D01*
X173653697Y-84845804D01*
X173491804Y-85007697D01*
X173491799Y-85007703D01*
X173360477Y-85195250D01*
X173263717Y-85402753D01*
X173263715Y-85402759D01*
X173260314Y-85415453D01*
X173204457Y-85623913D01*
X173184502Y-85852000D01*
X173204457Y-86080087D01*
X173233830Y-86189708D01*
X173263715Y-86301240D01*
X173263717Y-86301246D01*
X173360477Y-86508749D01*
X173445729Y-86630502D01*
X173491802Y-86696300D01*
X173653700Y-86858198D01*
X173685770Y-86880653D01*
X173730099Y-86936110D01*
X173739500Y-86983867D01*
X173739500Y-87577707D01*
X173767770Y-87719826D01*
X173768649Y-87724247D01*
X173825826Y-87862284D01*
X173908834Y-87986515D01*
X174903485Y-88981166D01*
X175027716Y-89064174D01*
X175165753Y-89121351D01*
X175239022Y-89135924D01*
X175239023Y-89135925D01*
X175253598Y-89138824D01*
X175312294Y-89150500D01*
X175312295Y-89150500D01*
X175461705Y-89150500D01*
X186059500Y-89150500D01*
X186127621Y-89170502D01*
X186174114Y-89224158D01*
X186185500Y-89276500D01*
X186185500Y-89500629D01*
X186165498Y-89568750D01*
X186111842Y-89615243D01*
X186072968Y-89625907D01*
X186034803Y-89630009D01*
X186034795Y-89630011D01*
X185897797Y-89681110D01*
X185897792Y-89681112D01*
X185780738Y-89768738D01*
X185693112Y-89885792D01*
X185693110Y-89885797D01*
X185642011Y-90022795D01*
X185642009Y-90022803D01*
X185635500Y-90083350D01*
X185635500Y-91780649D01*
X185642009Y-91841196D01*
X185642011Y-91841204D01*
X185693110Y-91978202D01*
X185693112Y-91978207D01*
X185780738Y-92095261D01*
X185897792Y-92182887D01*
X185897794Y-92182888D01*
X185897796Y-92182889D01*
X185949034Y-92202000D01*
X186034795Y-92233988D01*
X186034803Y-92233990D01*
X186095350Y-92240499D01*
X186095355Y-92240499D01*
X186095362Y-92240500D01*
X186095368Y-92240500D01*
X187792632Y-92240500D01*
X187792638Y-92240500D01*
X187792645Y-92240499D01*
X187792649Y-92240499D01*
X187853196Y-92233990D01*
X187853199Y-92233989D01*
X187853201Y-92233989D01*
X187990204Y-92182889D01*
X187998738Y-92176501D01*
X188107261Y-92095261D01*
X188194887Y-91978207D01*
X188194887Y-91978206D01*
X188194889Y-91978204D01*
X188245989Y-91841201D01*
X188252480Y-91780830D01*
X188252499Y-91780649D01*
X188252500Y-91780632D01*
X188252500Y-91520000D01*
X190203004Y-91520000D01*
X190222951Y-91748002D01*
X190282186Y-91969068D01*
X190282188Y-91969073D01*
X190378913Y-92176501D01*
X190428899Y-92247888D01*
X191116000Y-91560788D01*
X191116000Y-91572661D01*
X191143259Y-91674394D01*
X191195920Y-91765606D01*
X191270394Y-91840080D01*
X191361606Y-91892741D01*
X191463339Y-91920000D01*
X191475210Y-91920000D01*
X190788110Y-92607098D01*
X190788110Y-92607100D01*
X190859498Y-92657086D01*
X191066926Y-92753811D01*
X191066931Y-92753813D01*
X191287999Y-92813048D01*
X191287995Y-92813048D01*
X191516000Y-92832995D01*
X191744002Y-92813048D01*
X191965068Y-92753813D01*
X191965073Y-92753811D01*
X192172497Y-92657088D01*
X192243888Y-92607099D01*
X192243888Y-92607097D01*
X191556791Y-91920000D01*
X191568661Y-91920000D01*
X191670394Y-91892741D01*
X191761606Y-91840080D01*
X191836080Y-91765606D01*
X191888741Y-91674394D01*
X191916000Y-91572661D01*
X191916000Y-91560791D01*
X192603097Y-92247888D01*
X192603099Y-92247888D01*
X192653088Y-92176497D01*
X192749811Y-91969073D01*
X192749813Y-91969068D01*
X192809048Y-91748002D01*
X192828995Y-91520000D01*
X192809048Y-91291997D01*
X192749813Y-91070931D01*
X192749811Y-91070926D01*
X192653086Y-90863498D01*
X192603100Y-90792110D01*
X192603098Y-90792110D01*
X191916000Y-91479208D01*
X191916000Y-91467339D01*
X191888741Y-91365606D01*
X191836080Y-91274394D01*
X191761606Y-91199920D01*
X191670394Y-91147259D01*
X191568661Y-91120000D01*
X191556790Y-91120000D01*
X192243888Y-90432899D01*
X192243888Y-90432898D01*
X192172501Y-90382913D01*
X191965073Y-90286188D01*
X191965068Y-90286186D01*
X191744000Y-90226951D01*
X191744004Y-90226951D01*
X191516000Y-90207004D01*
X191287997Y-90226951D01*
X191066931Y-90286186D01*
X191066926Y-90286188D01*
X190859500Y-90382913D01*
X190788109Y-90432900D01*
X191475209Y-91120000D01*
X191463339Y-91120000D01*
X191361606Y-91147259D01*
X191270394Y-91199920D01*
X191195920Y-91274394D01*
X191143259Y-91365606D01*
X191116000Y-91467339D01*
X191116000Y-91479209D01*
X190428900Y-90792109D01*
X190378913Y-90863500D01*
X190282188Y-91070926D01*
X190282186Y-91070931D01*
X190222951Y-91291997D01*
X190203004Y-91520000D01*
X188252500Y-91520000D01*
X188252500Y-90083367D01*
X188252499Y-90083350D01*
X188245990Y-90022803D01*
X188245988Y-90022795D01*
X188209811Y-89925804D01*
X188194889Y-89885796D01*
X188194888Y-89885794D01*
X188194887Y-89885792D01*
X188107261Y-89768738D01*
X187990207Y-89681112D01*
X187990202Y-89681110D01*
X187853204Y-89630011D01*
X187853196Y-89630009D01*
X187832856Y-89627823D01*
X187767263Y-89600653D01*
X187726773Y-89542335D01*
X187724239Y-89471384D01*
X187757227Y-89413453D01*
X187983278Y-89187402D01*
X188045588Y-89153379D01*
X188072371Y-89150500D01*
X193943629Y-89150500D01*
X194011750Y-89170502D01*
X194032724Y-89187405D01*
X194276595Y-89431276D01*
X194310621Y-89493588D01*
X194313500Y-89520371D01*
X194313500Y-90008629D01*
X194293498Y-90076750D01*
X194239842Y-90123243D01*
X194200968Y-90133907D01*
X194162803Y-90138009D01*
X194162795Y-90138011D01*
X194025797Y-90189110D01*
X194025792Y-90189112D01*
X193908738Y-90276738D01*
X193821112Y-90393792D01*
X193821110Y-90393797D01*
X193770011Y-90530795D01*
X193770009Y-90530803D01*
X193763500Y-90591350D01*
X193763500Y-92288649D01*
X193770009Y-92349196D01*
X193770011Y-92349204D01*
X193821110Y-92486202D01*
X193821112Y-92486207D01*
X193908738Y-92603261D01*
X194025792Y-92690887D01*
X194025794Y-92690888D01*
X194025796Y-92690889D01*
X194162799Y-92741989D01*
X194172191Y-92742998D01*
X194237784Y-92770163D01*
X194278279Y-92828479D01*
X194280817Y-92899430D01*
X194244593Y-92960490D01*
X194231010Y-92971483D01*
X194227708Y-92973795D01*
X194227697Y-92973804D01*
X194065804Y-93135697D01*
X194065797Y-93135706D01*
X194043344Y-93167772D01*
X193987887Y-93212100D01*
X193940132Y-93221500D01*
X188375371Y-93221500D01*
X188307250Y-93201498D01*
X188260757Y-93147842D01*
X188250093Y-93108968D01*
X188245990Y-93070803D01*
X188245988Y-93070795D01*
X188209811Y-92973804D01*
X188194889Y-92933796D01*
X188194888Y-92933794D01*
X188194887Y-92933792D01*
X188107261Y-92816738D01*
X187990207Y-92729112D01*
X187990202Y-92729110D01*
X187853204Y-92678011D01*
X187853196Y-92678009D01*
X187792649Y-92671500D01*
X187792638Y-92671500D01*
X186095362Y-92671500D01*
X186095350Y-92671500D01*
X186034803Y-92678009D01*
X186034795Y-92678011D01*
X185897797Y-92729110D01*
X185897792Y-92729112D01*
X185780738Y-92816738D01*
X185693112Y-92933792D01*
X185693110Y-92933797D01*
X185642011Y-93070795D01*
X185642009Y-93070803D01*
X185635500Y-93131350D01*
X185635500Y-94828649D01*
X185642009Y-94889196D01*
X185642011Y-94889204D01*
X185693110Y-95026202D01*
X185693112Y-95026207D01*
X185780738Y-95143261D01*
X185897792Y-95230887D01*
X185897794Y-95230888D01*
X185897796Y-95230889D01*
X185952447Y-95251273D01*
X186034795Y-95281988D01*
X186034803Y-95281990D01*
X186095350Y-95288499D01*
X186095355Y-95288499D01*
X186095362Y-95288500D01*
X186095368Y-95288500D01*
X187792632Y-95288500D01*
X187792638Y-95288500D01*
X187792645Y-95288499D01*
X187792649Y-95288499D01*
X187853196Y-95281990D01*
X187853199Y-95281989D01*
X187853201Y-95281989D01*
X187990204Y-95230889D01*
X187996125Y-95226457D01*
X188107261Y-95143261D01*
X188194887Y-95026207D01*
X188194887Y-95026206D01*
X188194889Y-95026204D01*
X188245989Y-94889201D01*
X188245990Y-94889196D01*
X188250093Y-94851032D01*
X188277262Y-94785439D01*
X188335580Y-94744948D01*
X188375371Y-94738500D01*
X193940132Y-94738500D01*
X194008253Y-94758502D01*
X194043344Y-94792228D01*
X194057300Y-94812158D01*
X194065802Y-94824300D01*
X194227700Y-94986198D01*
X194415251Y-95117523D01*
X194422991Y-95121132D01*
X194454457Y-95135805D01*
X194507742Y-95182722D01*
X194527203Y-95250999D01*
X194506661Y-95318959D01*
X194454457Y-95364195D01*
X194415250Y-95382477D01*
X194227703Y-95513799D01*
X194227697Y-95513804D01*
X194065804Y-95675697D01*
X194065797Y-95675706D01*
X194043344Y-95707772D01*
X193987887Y-95752100D01*
X193940132Y-95761500D01*
X192647868Y-95761500D01*
X192579747Y-95741498D01*
X192544656Y-95707772D01*
X192526414Y-95681721D01*
X192522198Y-95675700D01*
X192360300Y-95513802D01*
X192172749Y-95382477D01*
X192172747Y-95382476D01*
X191965246Y-95285717D01*
X191965240Y-95285715D01*
X191828225Y-95249002D01*
X191744087Y-95226457D01*
X191516000Y-95206502D01*
X191287913Y-95226457D01*
X191066759Y-95285715D01*
X191066753Y-95285717D01*
X190859250Y-95382477D01*
X190671703Y-95513799D01*
X190671697Y-95513804D01*
X190509804Y-95675697D01*
X190509797Y-95675706D01*
X190487344Y-95707772D01*
X190431887Y-95752100D01*
X190384132Y-95761500D01*
X172645288Y-95761500D01*
X172572024Y-95776073D01*
X172572024Y-95776074D01*
X172498753Y-95790649D01*
X172498751Y-95790649D01*
X172498750Y-95790650D01*
X172360714Y-95847827D01*
X172236486Y-95930833D01*
X172236480Y-95930838D01*
X170537724Y-97629595D01*
X170475412Y-97663621D01*
X170448629Y-97666500D01*
X169470372Y-97666500D01*
X169402251Y-97646498D01*
X169364890Y-97609417D01*
X169350723Y-97587734D01*
X169350722Y-97587732D01*
X169198240Y-97422094D01*
X169198239Y-97422093D01*
X169198237Y-97422091D01*
X169082781Y-97332228D01*
X169020576Y-97283811D01*
X168986792Y-97265528D01*
X168936402Y-97215516D01*
X168921050Y-97146199D01*
X168945610Y-97079586D01*
X168986793Y-97043901D01*
X169020299Y-97025768D01*
X169020302Y-97025766D01*
X169040689Y-97009898D01*
X168399948Y-96369157D01*
X168467993Y-96350925D01*
X168582007Y-96285099D01*
X168675099Y-96192007D01*
X168740925Y-96077993D01*
X168759157Y-96009948D01*
X169398076Y-96648867D01*
X169398077Y-96648866D01*
X169473419Y-96533551D01*
X169563820Y-96327456D01*
X169563823Y-96327449D01*
X169619067Y-96109292D01*
X169637653Y-95885000D01*
X169619067Y-95660707D01*
X169563823Y-95442550D01*
X169563820Y-95442543D01*
X169473422Y-95236456D01*
X169473417Y-95236448D01*
X169398076Y-95121132D01*
X168759157Y-95760051D01*
X168740925Y-95692007D01*
X168675099Y-95577993D01*
X168582007Y-95484901D01*
X168467993Y-95419075D01*
X168399947Y-95400841D01*
X169040689Y-94760100D01*
X169040688Y-94760099D01*
X169020306Y-94744235D01*
X169020299Y-94744230D01*
X168822371Y-94637118D01*
X168822369Y-94637116D01*
X168609516Y-94564044D01*
X168609509Y-94564042D01*
X168387523Y-94527000D01*
X168162477Y-94527000D01*
X167940490Y-94564042D01*
X167940483Y-94564044D01*
X167727630Y-94637116D01*
X167727628Y-94637118D01*
X167529700Y-94744230D01*
X167509310Y-94760099D01*
X167509310Y-94760101D01*
X168150051Y-95400842D01*
X168082007Y-95419075D01*
X167967993Y-95484901D01*
X167874901Y-95577993D01*
X167809075Y-95692007D01*
X167790841Y-95760052D01*
X167151921Y-95121132D01*
X167151920Y-95121132D01*
X167110780Y-95184102D01*
X167056776Y-95230190D01*
X166986428Y-95239765D01*
X166922071Y-95209787D01*
X166899822Y-95184111D01*
X166810722Y-95047732D01*
X166810718Y-95047727D01*
X166810717Y-95047726D01*
X166810714Y-95047722D01*
X166776799Y-95010880D01*
X166745378Y-94947215D01*
X166743500Y-94925543D01*
X166743500Y-93980000D01*
X175470502Y-93980000D01*
X175490457Y-94208086D01*
X175549715Y-94429240D01*
X175549717Y-94429246D01*
X175646477Y-94636749D01*
X175732848Y-94760100D01*
X175777802Y-94824300D01*
X175939700Y-94986198D01*
X176127251Y-95117523D01*
X176334757Y-95214284D01*
X176555913Y-95273543D01*
X176784000Y-95293498D01*
X177012087Y-95273543D01*
X177233243Y-95214284D01*
X177440749Y-95117523D01*
X177628300Y-94986198D01*
X177790198Y-94824300D01*
X177921523Y-94636749D01*
X178018284Y-94429243D01*
X178077543Y-94208087D01*
X178097498Y-93980000D01*
X178077543Y-93751913D01*
X178018284Y-93530757D01*
X177921523Y-93323251D01*
X177790198Y-93135700D01*
X177628300Y-92973802D01*
X177628291Y-92973796D01*
X177440749Y-92842477D01*
X177233246Y-92745717D01*
X177233240Y-92745715D01*
X177096225Y-92709002D01*
X177012087Y-92686457D01*
X176784000Y-92666502D01*
X176555913Y-92686457D01*
X176334759Y-92745715D01*
X176334753Y-92745717D01*
X176127250Y-92842477D01*
X175939703Y-92973799D01*
X175939697Y-92973804D01*
X175777804Y-93135697D01*
X175777799Y-93135703D01*
X175646477Y-93323250D01*
X175549717Y-93530753D01*
X175549715Y-93530759D01*
X175490457Y-93751913D01*
X175470502Y-93980000D01*
X166743500Y-93980000D01*
X166743500Y-93814924D01*
X166763502Y-93746803D01*
X166780405Y-93725829D01*
X168838148Y-91668086D01*
X169574234Y-90932000D01*
X175470502Y-90932000D01*
X175490457Y-91160087D01*
X175490840Y-91161516D01*
X175549715Y-91381240D01*
X175549717Y-91381246D01*
X175646477Y-91588749D01*
X175702029Y-91668086D01*
X175777802Y-91776300D01*
X175939700Y-91938198D01*
X176127251Y-92069523D01*
X176334757Y-92166284D01*
X176555913Y-92225543D01*
X176784000Y-92245498D01*
X177012087Y-92225543D01*
X177233243Y-92166284D01*
X177440749Y-92069523D01*
X177628300Y-91938198D01*
X177790198Y-91776300D01*
X177921523Y-91588749D01*
X178018284Y-91381243D01*
X178077543Y-91160087D01*
X178097498Y-90932000D01*
X178077543Y-90703913D01*
X178018284Y-90482757D01*
X177921523Y-90275251D01*
X177790198Y-90087700D01*
X177628300Y-89925802D01*
X177440749Y-89794477D01*
X177233246Y-89697717D01*
X177233240Y-89697715D01*
X177139771Y-89672670D01*
X177012087Y-89638457D01*
X176784000Y-89618502D01*
X176555913Y-89638457D01*
X176334759Y-89697715D01*
X176334753Y-89697717D01*
X176127250Y-89794477D01*
X175939703Y-89925799D01*
X175939697Y-89925804D01*
X175777804Y-90087697D01*
X175777799Y-90087703D01*
X175646477Y-90275250D01*
X175549717Y-90482753D01*
X175549715Y-90482759D01*
X175519453Y-90595700D01*
X175490457Y-90703913D01*
X175470502Y-90932000D01*
X169574234Y-90932000D01*
X170963353Y-89542881D01*
X171073721Y-89377704D01*
X171149744Y-89194169D01*
X171188500Y-88999329D01*
X171188500Y-88800671D01*
X171188500Y-85305924D01*
X171208502Y-85237803D01*
X171225405Y-85216829D01*
X175640829Y-80801405D01*
X175703141Y-80767379D01*
X175729924Y-80764500D01*
X192570328Y-80764500D01*
X192570329Y-80764500D01*
X192765169Y-80725744D01*
X192948704Y-80649721D01*
X193113881Y-80539353D01*
X193254353Y-80398881D01*
X193728743Y-79924491D01*
X195054500Y-79924491D01*
X195054500Y-80219508D01*
X195093005Y-80511985D01*
X195093006Y-80511991D01*
X195093007Y-80511993D01*
X195169361Y-80796952D01*
X195282257Y-81069507D01*
X195282258Y-81069508D01*
X195282263Y-81069519D01*
X195429759Y-81324990D01*
X195429764Y-81324997D01*
X195609346Y-81559033D01*
X195609365Y-81559054D01*
X195817945Y-81767634D01*
X195817966Y-81767653D01*
X196052002Y-81947235D01*
X196052009Y-81947240D01*
X196307480Y-82094736D01*
X196307484Y-82094737D01*
X196307493Y-82094743D01*
X196580048Y-82207639D01*
X196865007Y-82283993D01*
X196865013Y-82283993D01*
X196865014Y-82283994D01*
X196898574Y-82288412D01*
X197157494Y-82322500D01*
X197157501Y-82322500D01*
X197452499Y-82322500D01*
X197452506Y-82322500D01*
X197744993Y-82283993D01*
X198029952Y-82207639D01*
X198302507Y-82094743D01*
X198557994Y-81947238D01*
X198792042Y-81767646D01*
X199000646Y-81559042D01*
X199180238Y-81324994D01*
X199327743Y-81069507D01*
X199440639Y-80796952D01*
X199516993Y-80511993D01*
X199555500Y-80219506D01*
X199555500Y-79924494D01*
X199516993Y-79632007D01*
X199440639Y-79347048D01*
X199327743Y-79074493D01*
X199327737Y-79074484D01*
X199327736Y-79074480D01*
X199180240Y-78819009D01*
X199180235Y-78819002D01*
X199000653Y-78584966D01*
X199000634Y-78584945D01*
X198792054Y-78376365D01*
X198792033Y-78376346D01*
X198557997Y-78196764D01*
X198557990Y-78196759D01*
X198302519Y-78049263D01*
X198302511Y-78049259D01*
X198302507Y-78049257D01*
X198029952Y-77936361D01*
X197744993Y-77860007D01*
X197744991Y-77860006D01*
X197744985Y-77860005D01*
X197452508Y-77821500D01*
X197452506Y-77821500D01*
X197157494Y-77821500D01*
X197157491Y-77821500D01*
X196865014Y-77860005D01*
X196580048Y-77936361D01*
X196307491Y-78049258D01*
X196307480Y-78049263D01*
X196052009Y-78196759D01*
X196052002Y-78196764D01*
X195817966Y-78376346D01*
X195817945Y-78376365D01*
X195609365Y-78584945D01*
X195609346Y-78584966D01*
X195429764Y-78819002D01*
X195429759Y-78819009D01*
X195282263Y-79074480D01*
X195282258Y-79074491D01*
X195169361Y-79347048D01*
X195093005Y-79632014D01*
X195054500Y-79924491D01*
X193728743Y-79924491D01*
X196874324Y-76778908D01*
X196936634Y-76744885D01*
X196982195Y-76743413D01*
X197016852Y-76748636D01*
X197029213Y-76750500D01*
X197029214Y-76750500D01*
X197280782Y-76750500D01*
X197280786Y-76750500D01*
X197529549Y-76713005D01*
X197529559Y-76713002D01*
X197769936Y-76638856D01*
X197769938Y-76638854D01*
X197769945Y-76638853D01*
X197996604Y-76529700D01*
X198204462Y-76387984D01*
X198388878Y-76216872D01*
X198545731Y-76020184D01*
X198671517Y-75802316D01*
X198763427Y-75568134D01*
X198819407Y-75322869D01*
X198838207Y-75072000D01*
X198819407Y-74821131D01*
X198763427Y-74575866D01*
X198708559Y-74436065D01*
X198671520Y-74341690D01*
X198671518Y-74341686D01*
X198663474Y-74327754D01*
X198545731Y-74123816D01*
X198388878Y-73927128D01*
X198388877Y-73927127D01*
X198388874Y-73927123D01*
X198223173Y-73773377D01*
X198204462Y-73756016D01*
X198202021Y-73754352D01*
X198111665Y-73692748D01*
X197996606Y-73614301D01*
X197996319Y-73614163D01*
X197987933Y-73610124D01*
X197769949Y-73505148D01*
X197769936Y-73505143D01*
X197529559Y-73430997D01*
X197529551Y-73430995D01*
X197529549Y-73430995D01*
X197280786Y-73393500D01*
X197029214Y-73393500D01*
X196780451Y-73430995D01*
X196780449Y-73430995D01*
X196780440Y-73430997D01*
X196540063Y-73505143D01*
X196540051Y-73505148D01*
X196313394Y-73614301D01*
X196313387Y-73614305D01*
X196105544Y-73756011D01*
X196105532Y-73756021D01*
X195921125Y-73927123D01*
X195833679Y-74036778D01*
X195781463Y-74102256D01*
X195764270Y-74123815D01*
X195764269Y-74123816D01*
X195638481Y-74341686D01*
X195638479Y-74341690D01*
X195546571Y-74575870D01*
X195500980Y-74775622D01*
X195490593Y-74821131D01*
X195484938Y-74896595D01*
X195471793Y-75072000D01*
X195485387Y-75253420D01*
X195470531Y-75322845D01*
X195448834Y-75351930D01*
X192090171Y-78710595D01*
X192027859Y-78744620D01*
X192001076Y-78747500D01*
X175160668Y-78747500D01*
X174965830Y-78786256D01*
X174965824Y-78786258D01*
X174912075Y-78808522D01*
X174782296Y-78862278D01*
X174617119Y-78972646D01*
X174617113Y-78972651D01*
X169537119Y-84052647D01*
X169396649Y-84193116D01*
X169396644Y-84193123D01*
X169286279Y-84358296D01*
X169210258Y-84541825D01*
X169210256Y-84541830D01*
X169171500Y-84736668D01*
X169171500Y-88430076D01*
X169151498Y-88498197D01*
X169134595Y-88519171D01*
X164951649Y-92702116D01*
X164951644Y-92702123D01*
X164841279Y-92867296D01*
X164765258Y-93050825D01*
X164765256Y-93050830D01*
X164726500Y-93245668D01*
X164726500Y-94925543D01*
X164706498Y-94993664D01*
X164693201Y-95010880D01*
X164659285Y-95047722D01*
X164659279Y-95047729D01*
X164570483Y-95183643D01*
X164516479Y-95229731D01*
X164446131Y-95239306D01*
X164381774Y-95209329D01*
X164359517Y-95183643D01*
X164270720Y-95047729D01*
X164270714Y-95047722D01*
X164236799Y-95010880D01*
X164205378Y-94947215D01*
X164203500Y-94925543D01*
X164203500Y-92544924D01*
X164223502Y-92476803D01*
X164240405Y-92455829D01*
X165330628Y-91365606D01*
X166438353Y-90257881D01*
X166548721Y-90092704D01*
X166624744Y-89909169D01*
X166629393Y-89885796D01*
X166663500Y-89714329D01*
X166663500Y-86480964D01*
X166683502Y-86412843D01*
X166703799Y-86388599D01*
X166744932Y-86350434D01*
X166782897Y-86315207D01*
X166888874Y-86216876D01*
X166888874Y-86216874D01*
X166888878Y-86216872D01*
X167045731Y-86020184D01*
X167171517Y-85802316D01*
X167263427Y-85568134D01*
X167319407Y-85322869D01*
X167338207Y-85072000D01*
X167319407Y-84821131D01*
X167263427Y-84575866D01*
X167178037Y-84358296D01*
X167171520Y-84341690D01*
X167171518Y-84341686D01*
X167045733Y-84123819D01*
X167032643Y-84107405D01*
X166888878Y-83927128D01*
X166888877Y-83927127D01*
X166888874Y-83927123D01*
X166704467Y-83756021D01*
X166704461Y-83756015D01*
X166580713Y-83671645D01*
X166496606Y-83614301D01*
X166269949Y-83505148D01*
X166269936Y-83505143D01*
X166029559Y-83430997D01*
X166029551Y-83430995D01*
X166029549Y-83430995D01*
X165780786Y-83393500D01*
X165529214Y-83393500D01*
X165280451Y-83430995D01*
X165280449Y-83430995D01*
X165280440Y-83430997D01*
X165040063Y-83505143D01*
X165040051Y-83505148D01*
X164813394Y-83614301D01*
X164813387Y-83614305D01*
X164605544Y-83756011D01*
X164605532Y-83756021D01*
X164421125Y-83927123D01*
X164264266Y-84123819D01*
X164138481Y-84341686D01*
X164138479Y-84341690D01*
X164046571Y-84575870D01*
X163998674Y-84785724D01*
X163990593Y-84821131D01*
X163971793Y-85072000D01*
X163990593Y-85322869D01*
X163990594Y-85322873D01*
X164046571Y-85568129D01*
X164138479Y-85802309D01*
X164138481Y-85802313D01*
X164264266Y-86020180D01*
X164421125Y-86216876D01*
X164606201Y-86388599D01*
X164642533Y-86449595D01*
X164646500Y-86480964D01*
X164646500Y-89145076D01*
X164626498Y-89213197D01*
X164609595Y-89234171D01*
X162411649Y-91432116D01*
X162411644Y-91432123D01*
X162301279Y-91597296D01*
X162225258Y-91780825D01*
X162225256Y-91780830D01*
X162186500Y-91975668D01*
X162186500Y-94907276D01*
X162166498Y-94975397D01*
X162112842Y-95021890D01*
X162042568Y-95031994D01*
X161977988Y-95002500D01*
X161951896Y-94967934D01*
X161950967Y-94968508D01*
X161947115Y-94962264D01*
X161947115Y-94962262D01*
X161854030Y-94811348D01*
X161854029Y-94811347D01*
X161854024Y-94811341D01*
X161728652Y-94685969D01*
X161728650Y-94685968D01*
X161723351Y-94682699D01*
X161675874Y-94629913D01*
X161663500Y-94575460D01*
X161663500Y-92991672D01*
X161663499Y-92991668D01*
X161663441Y-92991376D01*
X161624744Y-92796831D01*
X161548721Y-92613296D01*
X161438353Y-92448119D01*
X161297881Y-92307647D01*
X159287405Y-90297171D01*
X159253379Y-90234859D01*
X159250500Y-90208076D01*
X159250500Y-86347353D01*
X159270502Y-86279232D01*
X159324158Y-86232739D01*
X159394432Y-86222635D01*
X159459012Y-86252129D01*
X159462201Y-86254988D01*
X159538322Y-86325617D01*
X159605538Y-86387984D01*
X159605544Y-86387988D01*
X159813387Y-86529694D01*
X159813394Y-86529698D01*
X159813397Y-86529700D01*
X160040055Y-86638853D01*
X160040058Y-86638853D01*
X160040063Y-86638856D01*
X160280440Y-86713002D01*
X160280442Y-86713002D01*
X160280451Y-86713005D01*
X160529214Y-86750500D01*
X160529218Y-86750500D01*
X160780782Y-86750500D01*
X160780786Y-86750500D01*
X161029549Y-86713005D01*
X161029559Y-86713002D01*
X161269936Y-86638856D01*
X161269938Y-86638854D01*
X161269945Y-86638853D01*
X161496604Y-86529700D01*
X161704462Y-86387984D01*
X161888878Y-86216872D01*
X162045731Y-86020184D01*
X162171517Y-85802316D01*
X162263427Y-85568134D01*
X162319407Y-85322869D01*
X162338207Y-85072000D01*
X162319407Y-84821131D01*
X162263427Y-84575866D01*
X162178037Y-84358296D01*
X162171520Y-84341690D01*
X162171518Y-84341686D01*
X162045733Y-84123819D01*
X162032643Y-84107405D01*
X161888878Y-83927128D01*
X161888877Y-83927127D01*
X161888874Y-83927123D01*
X161704467Y-83756021D01*
X161704461Y-83756015D01*
X161580713Y-83671645D01*
X161496606Y-83614301D01*
X161269949Y-83505148D01*
X161269936Y-83505143D01*
X161029559Y-83430997D01*
X161029551Y-83430995D01*
X161029549Y-83430995D01*
X160780786Y-83393500D01*
X160529214Y-83393500D01*
X160280451Y-83430995D01*
X160280449Y-83430995D01*
X160280440Y-83430997D01*
X160040063Y-83505143D01*
X160040051Y-83505148D01*
X159813394Y-83614301D01*
X159813387Y-83614305D01*
X159605544Y-83756011D01*
X159605532Y-83756021D01*
X159462201Y-83889011D01*
X159398660Y-83920682D01*
X159328083Y-83912972D01*
X159272878Y-83868330D01*
X159250573Y-83800928D01*
X159250500Y-83796646D01*
X159250500Y-80454923D01*
X159270502Y-80386802D01*
X159287400Y-80365833D01*
X159728742Y-79924491D01*
X161054500Y-79924491D01*
X161054500Y-80219508D01*
X161093005Y-80511985D01*
X161093006Y-80511991D01*
X161093007Y-80511993D01*
X161169361Y-80796952D01*
X161282257Y-81069507D01*
X161282258Y-81069508D01*
X161282263Y-81069519D01*
X161429759Y-81324990D01*
X161429764Y-81324997D01*
X161609346Y-81559033D01*
X161609365Y-81559054D01*
X161817945Y-81767634D01*
X161817966Y-81767653D01*
X162052002Y-81947235D01*
X162052009Y-81947240D01*
X162307480Y-82094736D01*
X162307484Y-82094737D01*
X162307493Y-82094743D01*
X162580048Y-82207639D01*
X162865007Y-82283993D01*
X162865013Y-82283993D01*
X162865014Y-82283994D01*
X162898574Y-82288412D01*
X163157494Y-82322500D01*
X163157501Y-82322500D01*
X163452499Y-82322500D01*
X163452506Y-82322500D01*
X163744993Y-82283993D01*
X164029952Y-82207639D01*
X164302507Y-82094743D01*
X164557994Y-81947238D01*
X164792042Y-81767646D01*
X165000646Y-81559042D01*
X165180238Y-81324994D01*
X165327743Y-81069507D01*
X165440639Y-80796952D01*
X165516993Y-80511993D01*
X165555500Y-80219506D01*
X165555500Y-79924494D01*
X165516993Y-79632007D01*
X165440639Y-79347048D01*
X165327743Y-79074493D01*
X165327737Y-79074484D01*
X165327736Y-79074480D01*
X165180240Y-78819009D01*
X165180235Y-78819002D01*
X165000653Y-78584966D01*
X165000634Y-78584945D01*
X164792054Y-78376365D01*
X164792033Y-78376346D01*
X164557997Y-78196764D01*
X164557990Y-78196759D01*
X164302519Y-78049263D01*
X164302511Y-78049259D01*
X164302507Y-78049257D01*
X164029952Y-77936361D01*
X163744993Y-77860007D01*
X163744991Y-77860006D01*
X163744985Y-77860005D01*
X163452508Y-77821500D01*
X163452506Y-77821500D01*
X163157494Y-77821500D01*
X163157491Y-77821500D01*
X162865014Y-77860005D01*
X162580048Y-77936361D01*
X162307491Y-78049258D01*
X162307480Y-78049263D01*
X162052009Y-78196759D01*
X162052002Y-78196764D01*
X161817966Y-78376346D01*
X161817945Y-78376365D01*
X161609365Y-78584945D01*
X161609346Y-78584966D01*
X161429764Y-78819002D01*
X161429759Y-78819009D01*
X161282263Y-79074480D01*
X161282258Y-79074491D01*
X161169361Y-79347048D01*
X161093005Y-79632014D01*
X161054500Y-79924491D01*
X159728742Y-79924491D01*
X162874324Y-76778908D01*
X162936634Y-76744884D01*
X162982195Y-76743413D01*
X163016852Y-76748636D01*
X163029213Y-76750500D01*
X163029214Y-76750500D01*
X163280782Y-76750500D01*
X163280786Y-76750500D01*
X163529549Y-76713005D01*
X163529559Y-76713002D01*
X163769936Y-76638856D01*
X163769938Y-76638854D01*
X163769945Y-76638853D01*
X163996604Y-76529700D01*
X164204462Y-76387984D01*
X164388878Y-76216872D01*
X164545731Y-76020184D01*
X164671517Y-75802316D01*
X164763427Y-75568134D01*
X164819407Y-75322869D01*
X164838207Y-75072000D01*
X164819407Y-74821131D01*
X164763427Y-74575866D01*
X164708559Y-74436065D01*
X164671520Y-74341690D01*
X164671518Y-74341686D01*
X164663474Y-74327754D01*
X164545731Y-74123816D01*
X164388878Y-73927128D01*
X164388877Y-73927127D01*
X164388874Y-73927123D01*
X164223173Y-73773377D01*
X164204462Y-73756016D01*
X164202021Y-73754352D01*
X164111665Y-73692748D01*
X163996606Y-73614301D01*
X163996319Y-73614163D01*
X163987933Y-73610124D01*
X163769949Y-73505148D01*
X163769936Y-73505143D01*
X163529559Y-73430997D01*
X163529551Y-73430995D01*
X163529549Y-73430995D01*
X163280786Y-73393500D01*
X163029214Y-73393500D01*
X162780451Y-73430995D01*
X162780449Y-73430995D01*
X162780440Y-73430997D01*
X162540063Y-73505143D01*
X162540051Y-73505148D01*
X162313394Y-73614301D01*
X162313387Y-73614305D01*
X162105544Y-73756011D01*
X162105532Y-73756021D01*
X161921125Y-73927123D01*
X161833679Y-74036778D01*
X161781463Y-74102256D01*
X161764270Y-74123815D01*
X161764269Y-74123816D01*
X161638481Y-74341686D01*
X161638479Y-74341690D01*
X161546571Y-74575870D01*
X161500980Y-74775622D01*
X161490593Y-74821131D01*
X161484938Y-74896595D01*
X161471793Y-75072000D01*
X161485387Y-75253420D01*
X161470531Y-75322845D01*
X161448834Y-75351930D01*
X157599119Y-79201647D01*
X157458649Y-79342116D01*
X157458644Y-79342123D01*
X157348279Y-79507296D01*
X157272258Y-79690825D01*
X157272256Y-79690830D01*
X157233500Y-79885668D01*
X157233500Y-90777331D01*
X157234678Y-90783251D01*
X157272256Y-90972169D01*
X157314607Y-91074413D01*
X157348279Y-91155704D01*
X157458647Y-91320881D01*
X157458649Y-91320883D01*
X159609595Y-93471829D01*
X159643621Y-93534141D01*
X159646500Y-93560924D01*
X159646500Y-94575460D01*
X159626498Y-94643581D01*
X159586649Y-94682699D01*
X159581349Y-94685968D01*
X159581347Y-94685969D01*
X159455975Y-94811341D01*
X159455970Y-94811347D01*
X159362885Y-94962262D01*
X159307113Y-95130572D01*
X159307112Y-95130579D01*
X159296500Y-95234446D01*
X159296500Y-96535544D01*
X159307112Y-96639425D01*
X159362885Y-96807738D01*
X159455970Y-96958652D01*
X159455975Y-96958658D01*
X159581341Y-97084024D01*
X159581347Y-97084029D01*
X159581348Y-97084030D01*
X159732262Y-97177115D01*
X159732268Y-97177117D01*
X159738914Y-97180217D01*
X159737943Y-97182299D01*
X159787167Y-97216372D01*
X159814430Y-97281925D01*
X159801924Y-97351811D01*
X159766564Y-97395003D01*
X159731764Y-97422089D01*
X159579279Y-97587729D01*
X159579275Y-97587734D01*
X159456141Y-97776206D01*
X159365703Y-97982386D01*
X159365702Y-97982387D01*
X159310437Y-98200624D01*
X159310436Y-98200630D01*
X159310436Y-98200632D01*
X159291844Y-98425000D01*
X159307836Y-98617993D01*
X159310437Y-98649375D01*
X159365702Y-98867612D01*
X159365703Y-98867613D01*
X159365704Y-98867616D01*
X159446409Y-99051606D01*
X159456141Y-99073793D01*
X159579275Y-99262265D01*
X159579279Y-99262270D01*
X159603045Y-99288086D01*
X159731760Y-99427906D01*
X159847892Y-99518296D01*
X159889362Y-99575919D01*
X159896500Y-99617726D01*
X159896500Y-100404707D01*
X159908078Y-100462913D01*
X159925649Y-100551247D01*
X159982826Y-100689284D01*
X160065834Y-100813515D01*
X161589834Y-102337515D01*
X161589835Y-102337516D01*
X161695484Y-102443165D01*
X161819716Y-102526174D01*
X161900576Y-102559667D01*
X161957753Y-102583351D01*
X162031022Y-102597924D01*
X162031023Y-102597925D01*
X162045598Y-102600824D01*
X162104294Y-102612500D01*
X162104295Y-102612500D01*
X162104299Y-102612500D01*
X170635701Y-102612500D01*
X170635705Y-102612500D01*
X170635706Y-102612500D01*
X170708976Y-102597925D01*
X170782247Y-102583351D01*
X170920284Y-102526174D01*
X171044515Y-102443166D01*
X173632276Y-99855405D01*
X173694588Y-99821379D01*
X173721371Y-99818500D01*
X175652132Y-99818500D01*
X175720253Y-99838502D01*
X175755344Y-99872228D01*
X175774846Y-99900079D01*
X175777802Y-99904300D01*
X175939700Y-100066198D01*
X176127251Y-100197523D01*
X176334757Y-100294284D01*
X176555913Y-100353543D01*
X176784000Y-100373498D01*
X177012087Y-100353543D01*
X177233243Y-100294284D01*
X177440749Y-100197523D01*
X177628300Y-100066198D01*
X177790198Y-99904300D01*
X177921523Y-99716749D01*
X178018284Y-99509243D01*
X178077543Y-99288087D01*
X178097498Y-99060000D01*
X178077543Y-98831913D01*
X178018284Y-98610757D01*
X177921523Y-98403251D01*
X177790198Y-98215700D01*
X177628300Y-98053802D01*
X177440749Y-97922477D01*
X177400949Y-97903918D01*
X177233246Y-97825717D01*
X177233240Y-97825715D01*
X177096225Y-97789002D01*
X177012087Y-97766457D01*
X176784000Y-97746502D01*
X176555913Y-97766457D01*
X176334759Y-97825715D01*
X176334753Y-97825717D01*
X176127250Y-97922477D01*
X175939703Y-98053799D01*
X175939697Y-98053804D01*
X175777804Y-98215697D01*
X175777797Y-98215706D01*
X175755344Y-98247772D01*
X175699887Y-98292100D01*
X175652132Y-98301500D01*
X173280290Y-98301500D01*
X173158780Y-98325671D01*
X173158779Y-98325670D01*
X173133760Y-98330647D01*
X173133748Y-98330651D01*
X172995716Y-98387826D01*
X172871486Y-98470833D01*
X172871480Y-98470838D01*
X170283724Y-101058595D01*
X170221412Y-101092621D01*
X170194629Y-101095500D01*
X162545371Y-101095500D01*
X162477250Y-101075498D01*
X162456276Y-101058595D01*
X161450405Y-100052724D01*
X161416379Y-99990412D01*
X161413500Y-99963629D01*
X161413500Y-99617726D01*
X161433502Y-99549605D01*
X161462106Y-99518297D01*
X161578240Y-99427906D01*
X161730722Y-99262268D01*
X161744890Y-99240583D01*
X161791706Y-99168925D01*
X161819816Y-99125898D01*
X161873819Y-99079810D01*
X161944167Y-99070235D01*
X162008524Y-99100212D01*
X162030782Y-99125898D01*
X162071922Y-99188866D01*
X162710841Y-98549946D01*
X162729075Y-98617993D01*
X162794901Y-98732007D01*
X162887993Y-98825099D01*
X163002007Y-98890925D01*
X163070051Y-98909157D01*
X162429310Y-99549898D01*
X162449694Y-99565763D01*
X162449696Y-99565765D01*
X162647632Y-99672883D01*
X162860483Y-99745955D01*
X162860490Y-99745957D01*
X163082477Y-99783000D01*
X163307523Y-99783000D01*
X163529509Y-99745957D01*
X163529516Y-99745955D01*
X163742369Y-99672883D01*
X163742371Y-99672882D01*
X163940298Y-99565768D01*
X163940302Y-99565766D01*
X163960689Y-99549898D01*
X163319948Y-98909157D01*
X163387993Y-98890925D01*
X163502007Y-98825099D01*
X163595099Y-98732007D01*
X163660925Y-98617993D01*
X163679157Y-98549948D01*
X164318076Y-99188867D01*
X164318077Y-99188866D01*
X164359218Y-99125898D01*
X164413222Y-99079810D01*
X164483570Y-99070235D01*
X164547927Y-99100213D01*
X164570183Y-99125898D01*
X164659279Y-99262270D01*
X164811762Y-99427908D01*
X164856202Y-99462497D01*
X164989424Y-99566189D01*
X165187426Y-99673342D01*
X165187427Y-99673342D01*
X165187428Y-99673343D01*
X165299227Y-99711723D01*
X165400365Y-99746444D01*
X165622431Y-99783500D01*
X165622435Y-99783500D01*
X165847565Y-99783500D01*
X165847569Y-99783500D01*
X166069635Y-99746444D01*
X166282574Y-99673342D01*
X166480576Y-99566189D01*
X166658240Y-99427906D01*
X166810722Y-99262268D01*
X166899518Y-99126354D01*
X166953520Y-99080268D01*
X167023868Y-99070692D01*
X167088225Y-99100669D01*
X167110480Y-99126353D01*
X167138294Y-99168925D01*
X167199275Y-99262265D01*
X167199279Y-99262270D01*
X167351762Y-99427908D01*
X167396202Y-99462497D01*
X167529424Y-99566189D01*
X167727426Y-99673342D01*
X167727427Y-99673342D01*
X167727428Y-99673343D01*
X167839227Y-99711723D01*
X167940365Y-99746444D01*
X168162431Y-99783500D01*
X168162435Y-99783500D01*
X168387565Y-99783500D01*
X168387569Y-99783500D01*
X168609635Y-99746444D01*
X168822574Y-99673342D01*
X169020576Y-99566189D01*
X169198240Y-99427906D01*
X169350722Y-99262268D01*
X169364890Y-99240583D01*
X169418895Y-99194495D01*
X169470372Y-99183500D01*
X170889701Y-99183500D01*
X170889705Y-99183500D01*
X170889706Y-99183500D01*
X170962976Y-99168925D01*
X171036247Y-99154351D01*
X171174284Y-99097174D01*
X171298515Y-99014166D01*
X172997276Y-97315405D01*
X173059588Y-97281379D01*
X173086371Y-97278500D01*
X190384132Y-97278500D01*
X190452253Y-97298502D01*
X190487344Y-97332228D01*
X190501057Y-97351811D01*
X190509802Y-97364300D01*
X190671700Y-97526198D01*
X190859251Y-97657523D01*
X190882742Y-97668477D01*
X190898457Y-97675805D01*
X190951742Y-97722722D01*
X190971203Y-97790999D01*
X190950661Y-97858959D01*
X190898457Y-97904195D01*
X190859250Y-97922477D01*
X190671703Y-98053799D01*
X190671697Y-98053804D01*
X190509804Y-98215697D01*
X190509797Y-98215706D01*
X190487344Y-98247772D01*
X190431887Y-98292100D01*
X190384132Y-98301500D01*
X188075868Y-98301500D01*
X188007747Y-98281498D01*
X187972656Y-98247772D01*
X187950202Y-98215706D01*
X187950200Y-98215703D01*
X187950198Y-98215700D01*
X187788300Y-98053802D01*
X187600749Y-97922477D01*
X187560949Y-97903918D01*
X187393246Y-97825717D01*
X187393240Y-97825715D01*
X187256225Y-97789002D01*
X187172087Y-97766457D01*
X186944000Y-97746502D01*
X186715913Y-97766457D01*
X186494759Y-97825715D01*
X186494753Y-97825717D01*
X186287250Y-97922477D01*
X186099703Y-98053799D01*
X186099697Y-98053804D01*
X185937804Y-98215697D01*
X185937799Y-98215703D01*
X185806477Y-98403250D01*
X185709717Y-98610753D01*
X185709716Y-98610757D01*
X185650457Y-98831913D01*
X185630502Y-99060000D01*
X185640890Y-99178741D01*
X185650457Y-99288086D01*
X185709715Y-99509240D01*
X185709717Y-99509246D01*
X185806477Y-99716749D01*
X185937753Y-99904231D01*
X185937802Y-99904300D01*
X186099700Y-100066198D01*
X186287251Y-100197523D01*
X186494757Y-100294284D01*
X186715913Y-100353543D01*
X186944000Y-100373498D01*
X187172087Y-100353543D01*
X187393243Y-100294284D01*
X187600749Y-100197523D01*
X187788300Y-100066198D01*
X187950198Y-99904300D01*
X187961775Y-99887767D01*
X187972656Y-99872228D01*
X188028113Y-99827900D01*
X188075868Y-99818500D01*
X190384132Y-99818500D01*
X190452253Y-99838502D01*
X190487344Y-99872228D01*
X190506846Y-99900079D01*
X190509802Y-99904300D01*
X190671700Y-100066198D01*
X190859251Y-100197523D01*
X191066757Y-100294284D01*
X191287913Y-100353543D01*
X191516000Y-100373498D01*
X191744087Y-100353543D01*
X191965243Y-100294284D01*
X192172749Y-100197523D01*
X192360300Y-100066198D01*
X192522198Y-99904300D01*
X192533775Y-99887767D01*
X192544656Y-99872228D01*
X192600113Y-99827900D01*
X192647868Y-99818500D01*
X193940132Y-99818500D01*
X194008253Y-99838502D01*
X194043344Y-99872228D01*
X194062846Y-99900079D01*
X194065802Y-99904300D01*
X194227700Y-100066198D01*
X194415251Y-100197523D01*
X194450359Y-100213894D01*
X194454457Y-100215805D01*
X194507742Y-100262722D01*
X194527203Y-100330999D01*
X194506661Y-100398959D01*
X194454457Y-100444195D01*
X194415250Y-100462477D01*
X194227703Y-100593799D01*
X194227697Y-100593804D01*
X194065804Y-100755697D01*
X194065797Y-100755706D01*
X194043344Y-100787772D01*
X193987887Y-100832100D01*
X193940132Y-100841500D01*
X189917288Y-100841500D01*
X189844024Y-100856073D01*
X189844024Y-100856074D01*
X189770753Y-100870649D01*
X189770751Y-100870649D01*
X189770750Y-100870650D01*
X189632714Y-100927827D01*
X189508486Y-101010833D01*
X189508480Y-101010838D01*
X188386838Y-102132480D01*
X188386833Y-102132486D01*
X188309193Y-102248683D01*
X188254716Y-102294211D01*
X188184273Y-102303059D01*
X188120229Y-102272417D01*
X188090232Y-102231928D01*
X188081523Y-102213251D01*
X187950200Y-102025703D01*
X187950195Y-102025697D01*
X187788302Y-101863804D01*
X187788296Y-101863799D01*
X187600749Y-101732477D01*
X187393246Y-101635717D01*
X187393240Y-101635715D01*
X187299771Y-101610670D01*
X187172087Y-101576457D01*
X186944000Y-101556502D01*
X186715913Y-101576457D01*
X186494759Y-101635715D01*
X186494753Y-101635717D01*
X186287250Y-101732477D01*
X186099703Y-101863799D01*
X186099697Y-101863804D01*
X185937804Y-102025697D01*
X185937799Y-102025703D01*
X185806477Y-102213250D01*
X185709717Y-102420753D01*
X185709715Y-102420759D01*
X185703407Y-102444302D01*
X185650457Y-102641913D01*
X185630502Y-102870000D01*
X185650457Y-103098087D01*
X185667097Y-103160188D01*
X185709715Y-103319240D01*
X185709717Y-103319246D01*
X185806477Y-103526749D01*
X185937795Y-103714291D01*
X185937802Y-103714300D01*
X186099700Y-103876198D01*
X186287251Y-104007523D01*
X186494757Y-104104284D01*
X186715913Y-104163543D01*
X186944000Y-104183498D01*
X187172087Y-104163543D01*
X187393243Y-104104284D01*
X187600749Y-104007523D01*
X187788300Y-103876198D01*
X187950198Y-103714300D01*
X187983942Y-103666109D01*
X187988287Y-103659904D01*
X188043744Y-103615575D01*
X188114363Y-103608266D01*
X188177723Y-103640296D01*
X188213709Y-103701497D01*
X188217500Y-103732174D01*
X188217500Y-105678629D01*
X188197498Y-105746750D01*
X188180595Y-105767724D01*
X187174724Y-106773595D01*
X187112412Y-106807621D01*
X187085629Y-106810500D01*
X157465371Y-106810500D01*
X157397250Y-106790498D01*
X157376276Y-106773595D01*
X155735405Y-105132724D01*
X155701379Y-105070412D01*
X155698500Y-105043629D01*
X155698500Y-102870000D01*
X175470502Y-102870000D01*
X175490457Y-103098087D01*
X175507097Y-103160188D01*
X175549715Y-103319240D01*
X175549717Y-103319246D01*
X175646477Y-103526749D01*
X175777795Y-103714291D01*
X175777802Y-103714300D01*
X175939700Y-103876198D01*
X176127251Y-104007523D01*
X176334757Y-104104284D01*
X176555913Y-104163543D01*
X176784000Y-104183498D01*
X177012087Y-104163543D01*
X177233243Y-104104284D01*
X177440749Y-104007523D01*
X177628300Y-103876198D01*
X177790198Y-103714300D01*
X177921523Y-103526749D01*
X178018284Y-103319243D01*
X178077543Y-103098087D01*
X178097498Y-102870000D01*
X178077543Y-102641913D01*
X178018284Y-102420757D01*
X177921523Y-102213251D01*
X177790198Y-102025700D01*
X177628300Y-101863802D01*
X177602313Y-101845606D01*
X177440749Y-101732477D01*
X177233246Y-101635717D01*
X177233240Y-101635715D01*
X177139771Y-101610670D01*
X177012087Y-101576457D01*
X176784000Y-101556502D01*
X176555913Y-101576457D01*
X176334759Y-101635715D01*
X176334753Y-101635717D01*
X176127250Y-101732477D01*
X175939703Y-101863799D01*
X175939697Y-101863804D01*
X175777804Y-102025697D01*
X175777799Y-102025703D01*
X175646477Y-102213250D01*
X175549717Y-102420753D01*
X175549715Y-102420759D01*
X175543407Y-102444302D01*
X175490457Y-102641913D01*
X175470502Y-102870000D01*
X155698500Y-102870000D01*
X155698500Y-96445293D01*
X155698499Y-96445290D01*
X155686506Y-96385000D01*
X155669351Y-96298754D01*
X155666518Y-96291913D01*
X155666514Y-96291903D01*
X155666514Y-96291902D01*
X155628413Y-96199920D01*
X155612174Y-96160715D01*
X155529166Y-96036485D01*
X152617184Y-93124503D01*
X152583158Y-93062191D01*
X152588223Y-92991376D01*
X152617180Y-92946317D01*
X152771198Y-92792300D01*
X152902523Y-92604749D01*
X152999284Y-92397243D01*
X153058543Y-92176087D01*
X153078498Y-91948000D01*
X153058543Y-91719913D01*
X152999284Y-91498757D01*
X152902523Y-91291251D01*
X152771198Y-91103700D01*
X152609300Y-90941802D01*
X152609293Y-90941797D01*
X152577228Y-90919344D01*
X152532900Y-90863887D01*
X152523500Y-90816132D01*
X152523500Y-86983867D01*
X152543502Y-86915746D01*
X152577228Y-86880654D01*
X152609300Y-86858198D01*
X152771198Y-86696300D01*
X152902523Y-86508749D01*
X152999284Y-86301243D01*
X153058543Y-86080087D01*
X153078498Y-85852000D01*
X154007502Y-85852000D01*
X154027457Y-86080087D01*
X154056830Y-86189708D01*
X154086715Y-86301240D01*
X154086717Y-86301246D01*
X154183477Y-86508749D01*
X154268729Y-86630502D01*
X154314802Y-86696300D01*
X154476700Y-86858198D01*
X154664251Y-86989523D01*
X154871757Y-87086284D01*
X155092913Y-87145543D01*
X155321000Y-87165498D01*
X155549087Y-87145543D01*
X155770243Y-87086284D01*
X155977749Y-86989523D01*
X156165300Y-86858198D01*
X156327198Y-86696300D01*
X156458523Y-86508749D01*
X156555284Y-86301243D01*
X156614543Y-86080087D01*
X156634498Y-85852000D01*
X156614543Y-85623913D01*
X156555284Y-85402757D01*
X156458523Y-85195251D01*
X156327198Y-85007700D01*
X156165300Y-84845802D01*
X155977749Y-84714477D01*
X155797481Y-84630417D01*
X155770246Y-84617717D01*
X155770240Y-84617715D01*
X155676771Y-84592670D01*
X155549087Y-84558457D01*
X155321000Y-84538502D01*
X155092913Y-84558457D01*
X154871759Y-84617715D01*
X154871753Y-84617717D01*
X154664250Y-84714477D01*
X154476703Y-84845799D01*
X154476697Y-84845804D01*
X154314804Y-85007697D01*
X154314799Y-85007703D01*
X154183477Y-85195250D01*
X154086717Y-85402753D01*
X154086715Y-85402759D01*
X154083314Y-85415453D01*
X154027457Y-85623913D01*
X154007502Y-85852000D01*
X153078498Y-85852000D01*
X153058543Y-85623913D01*
X152999284Y-85402757D01*
X152902523Y-85195251D01*
X152771198Y-85007700D01*
X152609300Y-84845802D01*
X152421749Y-84714477D01*
X152241481Y-84630417D01*
X152214246Y-84617717D01*
X152214240Y-84617715D01*
X152120771Y-84592670D01*
X151993087Y-84558457D01*
X151765000Y-84538502D01*
X151536913Y-84558457D01*
X151315759Y-84617715D01*
X151315753Y-84617717D01*
X151108250Y-84714477D01*
X150920703Y-84845799D01*
X150920697Y-84845804D01*
X150758804Y-85007697D01*
X150758799Y-85007703D01*
X150627477Y-85195250D01*
X150530717Y-85402753D01*
X150530715Y-85402759D01*
X150527314Y-85415453D01*
X150471457Y-85623913D01*
X150451502Y-85852000D01*
X150471457Y-86080087D01*
X150500830Y-86189708D01*
X150530715Y-86301240D01*
X150530717Y-86301246D01*
X150627477Y-86508749D01*
X150712729Y-86630502D01*
X150758802Y-86696300D01*
X150920700Y-86858198D01*
X150952770Y-86880653D01*
X150997099Y-86936110D01*
X151006500Y-86983867D01*
X151006500Y-90816132D01*
X150986498Y-90884253D01*
X150952772Y-90919344D01*
X150920706Y-90941797D01*
X150920697Y-90941804D01*
X150758804Y-91103697D01*
X150758799Y-91103703D01*
X150627477Y-91291250D01*
X150530717Y-91498753D01*
X150530715Y-91498759D01*
X150485344Y-91668086D01*
X150471457Y-91719913D01*
X150451502Y-91948000D01*
X150471457Y-92176087D01*
X150490056Y-92245498D01*
X150530715Y-92397240D01*
X150530717Y-92397246D01*
X150627477Y-92604749D01*
X150749460Y-92778959D01*
X150758802Y-92792300D01*
X150920700Y-92954198D01*
X150952770Y-92976653D01*
X150997099Y-93032110D01*
X151006500Y-93079867D01*
X151006500Y-93270295D01*
X151006500Y-93419705D01*
X151035649Y-93566247D01*
X151092826Y-93704284D01*
X151175834Y-93828515D01*
X151175838Y-93828519D01*
X154144595Y-96797276D01*
X154178621Y-96859588D01*
X154181500Y-96886371D01*
X154181500Y-105484707D01*
X154204386Y-105599763D01*
X154210649Y-105631247D01*
X154267826Y-105769284D01*
X154350834Y-105893515D01*
X156615485Y-108158166D01*
X156739715Y-108241174D01*
X156877753Y-108298351D01*
X156877754Y-108298351D01*
X156877758Y-108298353D01*
X156938643Y-108310462D01*
X156951020Y-108312924D01*
X156951022Y-108312925D01*
X156975335Y-108317761D01*
X157024294Y-108327500D01*
X157024295Y-108327500D01*
X157024299Y-108327500D01*
X187526701Y-108327500D01*
X187526705Y-108327500D01*
X187526706Y-108327500D01*
X187599976Y-108312925D01*
X187673247Y-108298351D01*
X187811284Y-108241174D01*
X187935515Y-108158166D01*
X189565165Y-106528516D01*
X189648173Y-106404285D01*
X189648174Y-106404284D01*
X189705351Y-106266246D01*
X189706987Y-106258022D01*
X189708652Y-106249657D01*
X189734499Y-106119710D01*
X189734500Y-106119703D01*
X189734500Y-104060000D01*
X190203004Y-104060000D01*
X190222951Y-104288002D01*
X190282186Y-104509068D01*
X190282188Y-104509073D01*
X190378913Y-104716501D01*
X190428899Y-104787888D01*
X191116000Y-104100788D01*
X191116000Y-104112661D01*
X191143259Y-104214394D01*
X191195920Y-104305606D01*
X191270394Y-104380080D01*
X191361606Y-104432741D01*
X191463339Y-104460000D01*
X191475210Y-104460000D01*
X190788110Y-105147098D01*
X190788110Y-105147100D01*
X190859498Y-105197086D01*
X191066926Y-105293811D01*
X191066931Y-105293813D01*
X191287999Y-105353048D01*
X191287995Y-105353048D01*
X191516000Y-105372995D01*
X191744002Y-105353048D01*
X191965068Y-105293813D01*
X191965073Y-105293811D01*
X192172497Y-105197088D01*
X192243888Y-105147099D01*
X192243888Y-105147097D01*
X191556791Y-104460000D01*
X191568661Y-104460000D01*
X191670394Y-104432741D01*
X191761606Y-104380080D01*
X191836080Y-104305606D01*
X191888741Y-104214394D01*
X191916000Y-104112661D01*
X191916000Y-104100791D01*
X192603097Y-104787888D01*
X192603099Y-104787888D01*
X192653088Y-104716497D01*
X192749811Y-104509073D01*
X192749813Y-104509068D01*
X192809048Y-104288002D01*
X192828995Y-104060000D01*
X192809048Y-103831997D01*
X192749813Y-103610931D01*
X192749811Y-103610926D01*
X192653086Y-103403498D01*
X192603100Y-103332110D01*
X192603098Y-103332110D01*
X191916000Y-104019208D01*
X191916000Y-104007339D01*
X191888741Y-103905606D01*
X191836080Y-103814394D01*
X191761606Y-103739920D01*
X191670394Y-103687259D01*
X191568661Y-103660000D01*
X191556790Y-103660000D01*
X192243888Y-102972899D01*
X192243888Y-102972898D01*
X192172501Y-102922913D01*
X191965073Y-102826188D01*
X191965068Y-102826186D01*
X191744000Y-102766951D01*
X191744004Y-102766951D01*
X191516000Y-102747004D01*
X191287997Y-102766951D01*
X191066931Y-102826186D01*
X191066926Y-102826188D01*
X190859500Y-102922913D01*
X190788109Y-102972900D01*
X191475209Y-103660000D01*
X191463339Y-103660000D01*
X191361606Y-103687259D01*
X191270394Y-103739920D01*
X191195920Y-103814394D01*
X191143259Y-103905606D01*
X191116000Y-104007339D01*
X191116000Y-104019209D01*
X190428900Y-103332109D01*
X190378913Y-103403500D01*
X190282188Y-103610926D01*
X190282186Y-103610931D01*
X190222951Y-103831997D01*
X190203004Y-104060000D01*
X189734500Y-104060000D01*
X189734500Y-102982371D01*
X189754502Y-102914250D01*
X189771405Y-102893276D01*
X190269276Y-102395405D01*
X190331588Y-102361379D01*
X190358371Y-102358500D01*
X193940132Y-102358500D01*
X194008253Y-102378502D01*
X194043344Y-102412228D01*
X194049318Y-102420759D01*
X194065802Y-102444300D01*
X194227700Y-102606198D01*
X194415251Y-102737523D01*
X194450359Y-102753894D01*
X194454457Y-102755805D01*
X194507742Y-102802722D01*
X194527203Y-102870999D01*
X194506661Y-102938959D01*
X194454457Y-102984195D01*
X194415250Y-103002477D01*
X194227703Y-103133799D01*
X194227697Y-103133804D01*
X194065804Y-103295697D01*
X194065799Y-103295703D01*
X193934477Y-103483250D01*
X193837717Y-103690753D01*
X193837715Y-103690759D01*
X193778457Y-103911913D01*
X193758502Y-104140000D01*
X193772754Y-104302913D01*
X193758764Y-104372518D01*
X193736328Y-104402989D01*
X191942840Y-106196477D01*
X191942835Y-106196483D01*
X191859826Y-106320715D01*
X191805485Y-106451908D01*
X191805485Y-106451909D01*
X191802649Y-106458755D01*
X191802648Y-106458757D01*
X191773500Y-106605290D01*
X191773500Y-108599629D01*
X191753498Y-108667750D01*
X191736595Y-108688724D01*
X190730724Y-109694595D01*
X190668412Y-109728621D01*
X190641629Y-109731500D01*
X154889038Y-109731500D01*
X154820917Y-109711498D01*
X154799943Y-109694595D01*
X152560405Y-107455057D01*
X152526379Y-107392745D01*
X152523500Y-107365962D01*
X152523500Y-103239867D01*
X152543502Y-103171746D01*
X152577228Y-103136654D01*
X152609300Y-103114198D01*
X152771198Y-102952300D01*
X152902523Y-102764749D01*
X152999284Y-102557243D01*
X153058543Y-102336087D01*
X153078498Y-102108000D01*
X153058543Y-101879913D01*
X152999284Y-101658757D01*
X152902523Y-101451251D01*
X152771198Y-101263700D01*
X152609300Y-101101802D01*
X152421749Y-100970477D01*
X152363892Y-100943498D01*
X152214246Y-100873717D01*
X152214240Y-100873715D01*
X152094012Y-100841500D01*
X151993087Y-100814457D01*
X151765000Y-100794502D01*
X151536913Y-100814457D01*
X151315759Y-100873715D01*
X151315753Y-100873717D01*
X151108250Y-100970477D01*
X150920703Y-101101799D01*
X150920697Y-101101804D01*
X150758804Y-101263697D01*
X150758797Y-101263706D01*
X150736344Y-101295772D01*
X150680887Y-101340100D01*
X150633132Y-101349500D01*
X149340868Y-101349500D01*
X149272747Y-101329498D01*
X149237656Y-101295772D01*
X149215202Y-101263706D01*
X149215200Y-101263703D01*
X149215198Y-101263700D01*
X149053300Y-101101802D01*
X148865749Y-100970477D01*
X148807892Y-100943498D01*
X148658246Y-100873717D01*
X148658240Y-100873715D01*
X148538012Y-100841500D01*
X148437087Y-100814457D01*
X148209000Y-100794502D01*
X147980913Y-100814457D01*
X147759759Y-100873715D01*
X147759753Y-100873717D01*
X147552250Y-100970477D01*
X147364703Y-101101799D01*
X147364697Y-101101804D01*
X147202804Y-101263697D01*
X147202799Y-101263703D01*
X147071477Y-101451250D01*
X146974717Y-101658753D01*
X146974715Y-101658759D01*
X146949090Y-101754394D01*
X146915457Y-101879913D01*
X146895502Y-102108000D01*
X140208000Y-102108000D01*
X140208000Y-91694000D01*
X146922917Y-91694000D01*
X147897314Y-91694000D01*
X147888920Y-91702394D01*
X147836259Y-91793606D01*
X147809000Y-91895339D01*
X147809000Y-92000661D01*
X147836259Y-92102394D01*
X147888920Y-92193606D01*
X147897314Y-92202000D01*
X146922918Y-92202000D01*
X146975186Y-92397068D01*
X146975188Y-92397073D01*
X147071912Y-92604498D01*
X147203184Y-92791974D01*
X147203189Y-92791980D01*
X147365019Y-92953810D01*
X147365025Y-92953815D01*
X147552501Y-93085087D01*
X147759926Y-93181811D01*
X147759931Y-93181813D01*
X147955000Y-93234081D01*
X147955000Y-92259686D01*
X147963394Y-92268080D01*
X148054606Y-92320741D01*
X148156339Y-92348000D01*
X148261661Y-92348000D01*
X148363394Y-92320741D01*
X148454606Y-92268080D01*
X148463000Y-92259686D01*
X148463000Y-93234081D01*
X148658068Y-93181813D01*
X148658073Y-93181811D01*
X148865498Y-93085087D01*
X149052974Y-92953815D01*
X149052980Y-92953810D01*
X149214810Y-92791980D01*
X149214815Y-92791974D01*
X149346087Y-92604498D01*
X149442811Y-92397073D01*
X149442813Y-92397068D01*
X149495082Y-92202000D01*
X148520686Y-92202000D01*
X148529080Y-92193606D01*
X148581741Y-92102394D01*
X148609000Y-92000661D01*
X148609000Y-91895339D01*
X148581741Y-91793606D01*
X148529080Y-91702394D01*
X148520686Y-91694000D01*
X149495082Y-91694000D01*
X149442813Y-91498931D01*
X149442811Y-91498926D01*
X149346087Y-91291501D01*
X149214815Y-91104025D01*
X149214810Y-91104019D01*
X149052980Y-90942189D01*
X149052974Y-90942184D01*
X148865498Y-90810912D01*
X148658073Y-90714188D01*
X148658071Y-90714187D01*
X148463000Y-90661917D01*
X148463000Y-91636314D01*
X148454606Y-91627920D01*
X148363394Y-91575259D01*
X148261661Y-91548000D01*
X148156339Y-91548000D01*
X148054606Y-91575259D01*
X147963394Y-91627920D01*
X147955000Y-91636314D01*
X147955000Y-90661917D01*
X147954999Y-90661917D01*
X147759928Y-90714187D01*
X147759926Y-90714188D01*
X147552501Y-90810912D01*
X147365025Y-90942184D01*
X147365019Y-90942189D01*
X147203189Y-91104019D01*
X147203184Y-91104025D01*
X147071912Y-91291501D01*
X146975188Y-91498926D01*
X146975186Y-91498931D01*
X146922917Y-91694000D01*
X140208000Y-91694000D01*
X140208000Y-85598000D01*
X142552289Y-85598000D01*
X143656562Y-85598000D01*
X143632482Y-85639708D01*
X143595000Y-85779591D01*
X143595000Y-85924409D01*
X143632482Y-86064292D01*
X143656562Y-86106000D01*
X142552289Y-86106000D01*
X142610971Y-86350434D01*
X142707830Y-86584272D01*
X142840077Y-86800079D01*
X143004457Y-86992542D01*
X143196920Y-87156922D01*
X143412727Y-87289169D01*
X143646565Y-87386028D01*
X143891000Y-87444710D01*
X143891000Y-86340438D01*
X143932708Y-86364518D01*
X144072591Y-86402000D01*
X144217409Y-86402000D01*
X144357292Y-86364518D01*
X144399000Y-86340438D01*
X144399000Y-87444709D01*
X144643434Y-87386028D01*
X144877272Y-87289169D01*
X145093079Y-87156922D01*
X145285542Y-86992542D01*
X145449922Y-86800079D01*
X145582169Y-86584272D01*
X145679028Y-86350434D01*
X145737711Y-86106000D01*
X144633438Y-86106000D01*
X144657518Y-86064292D01*
X144695000Y-85924409D01*
X144695000Y-85852000D01*
X146641502Y-85852000D01*
X146661457Y-86080087D01*
X146690830Y-86189708D01*
X146720715Y-86301240D01*
X146720717Y-86301246D01*
X146817477Y-86508749D01*
X146902729Y-86630502D01*
X146948802Y-86696300D01*
X147110700Y-86858198D01*
X147298251Y-86989523D01*
X147505757Y-87086284D01*
X147726913Y-87145543D01*
X147955000Y-87165498D01*
X148183087Y-87145543D01*
X148404243Y-87086284D01*
X148611749Y-86989523D01*
X148799300Y-86858198D01*
X148961198Y-86696300D01*
X149092523Y-86508749D01*
X149189284Y-86301243D01*
X149248543Y-86080087D01*
X149268498Y-85852000D01*
X149248543Y-85623913D01*
X149189284Y-85402757D01*
X149092523Y-85195251D01*
X148961198Y-85007700D01*
X148799300Y-84845802D01*
X148611749Y-84714477D01*
X148431481Y-84630417D01*
X148404246Y-84617717D01*
X148404240Y-84617715D01*
X148310771Y-84592670D01*
X148183087Y-84558457D01*
X147955000Y-84538502D01*
X147726913Y-84558457D01*
X147505759Y-84617715D01*
X147505753Y-84617717D01*
X147298250Y-84714477D01*
X147110703Y-84845799D01*
X147110697Y-84845804D01*
X146948804Y-85007697D01*
X146948799Y-85007703D01*
X146817477Y-85195250D01*
X146720717Y-85402753D01*
X146720715Y-85402759D01*
X146717314Y-85415453D01*
X146661457Y-85623913D01*
X146641502Y-85852000D01*
X144695000Y-85852000D01*
X144695000Y-85779591D01*
X144657518Y-85639708D01*
X144633438Y-85598000D01*
X145737711Y-85598000D01*
X145679028Y-85353565D01*
X145582169Y-85119727D01*
X145449922Y-84903920D01*
X145285542Y-84711457D01*
X145093079Y-84547077D01*
X144877272Y-84414830D01*
X144643434Y-84317971D01*
X144399000Y-84259288D01*
X144399000Y-85363561D01*
X144357292Y-85339482D01*
X144217409Y-85302000D01*
X144072591Y-85302000D01*
X143932708Y-85339482D01*
X143891000Y-85363561D01*
X143891000Y-84259288D01*
X143646565Y-84317971D01*
X143412727Y-84414830D01*
X143196920Y-84547077D01*
X143004457Y-84711457D01*
X142840077Y-84903920D01*
X142707830Y-85119727D01*
X142610971Y-85353565D01*
X142552289Y-85598000D01*
X140208000Y-85598000D01*
X140208000Y-74543350D01*
X142536500Y-74543350D01*
X142536500Y-76840649D01*
X142543009Y-76901196D01*
X142543011Y-76901204D01*
X142594110Y-77038202D01*
X142594112Y-77038207D01*
X142681738Y-77155261D01*
X142798792Y-77242887D01*
X142798794Y-77242888D01*
X142798796Y-77242889D01*
X142857875Y-77264924D01*
X142935795Y-77293988D01*
X142935803Y-77293990D01*
X142996350Y-77300499D01*
X142996355Y-77300499D01*
X142996362Y-77300500D01*
X142996368Y-77300500D01*
X145293632Y-77300500D01*
X145293638Y-77300500D01*
X145293645Y-77300499D01*
X145293649Y-77300499D01*
X145354196Y-77293990D01*
X145354199Y-77293989D01*
X145354201Y-77293989D01*
X145491204Y-77242889D01*
X145608261Y-77155261D01*
X145695889Y-77038204D01*
X145746989Y-76901201D01*
X145753500Y-76840638D01*
X145753500Y-76576500D01*
X145773502Y-76508379D01*
X145827158Y-76461886D01*
X145879500Y-76450500D01*
X146823132Y-76450500D01*
X146891253Y-76470502D01*
X146926344Y-76504228D01*
X146948574Y-76535974D01*
X146948802Y-76536300D01*
X147110700Y-76698198D01*
X147298251Y-76829523D01*
X147505757Y-76926284D01*
X147726913Y-76985543D01*
X147955000Y-77005498D01*
X148183087Y-76985543D01*
X148404243Y-76926284D01*
X148611749Y-76829523D01*
X148799300Y-76698198D01*
X148961198Y-76536300D01*
X148980749Y-76508379D01*
X148983656Y-76504228D01*
X149039113Y-76459900D01*
X149086868Y-76450500D01*
X150633132Y-76450500D01*
X150701253Y-76470502D01*
X150736344Y-76504228D01*
X150758574Y-76535974D01*
X150758802Y-76536300D01*
X150920700Y-76698198D01*
X151108251Y-76829523D01*
X151315757Y-76926284D01*
X151536913Y-76985543D01*
X151765000Y-77005498D01*
X151993087Y-76985543D01*
X152214243Y-76926284D01*
X152421749Y-76829523D01*
X152609300Y-76698198D01*
X152771198Y-76536300D01*
X152902523Y-76348749D01*
X152999284Y-76141243D01*
X153058543Y-75920087D01*
X153078498Y-75692000D01*
X153058543Y-75463913D01*
X153051600Y-75438000D01*
X154034917Y-75438000D01*
X155009314Y-75438000D01*
X155000920Y-75446394D01*
X154948259Y-75537606D01*
X154921000Y-75639339D01*
X154921000Y-75744661D01*
X154948259Y-75846394D01*
X155000920Y-75937606D01*
X155009314Y-75946000D01*
X154034918Y-75946000D01*
X154087186Y-76141068D01*
X154087188Y-76141073D01*
X154183912Y-76348498D01*
X154315184Y-76535974D01*
X154315189Y-76535980D01*
X154477019Y-76697810D01*
X154477025Y-76697815D01*
X154664501Y-76829087D01*
X154871926Y-76925811D01*
X154871931Y-76925813D01*
X155067000Y-76978081D01*
X155067000Y-76003686D01*
X155075394Y-76012080D01*
X155166606Y-76064741D01*
X155268339Y-76092000D01*
X155373661Y-76092000D01*
X155475394Y-76064741D01*
X155566606Y-76012080D01*
X155575000Y-76003686D01*
X155575000Y-76978081D01*
X155770068Y-76925813D01*
X155770073Y-76925811D01*
X155977498Y-76829087D01*
X156164974Y-76697815D01*
X156164980Y-76697810D01*
X156326810Y-76535980D01*
X156326815Y-76535974D01*
X156458087Y-76348498D01*
X156554811Y-76141073D01*
X156554813Y-76141068D01*
X156607082Y-75946000D01*
X155632686Y-75946000D01*
X155641080Y-75937606D01*
X155693741Y-75846394D01*
X155721000Y-75744661D01*
X155721000Y-75639339D01*
X155693741Y-75537606D01*
X155641080Y-75446394D01*
X155632686Y-75438000D01*
X156607082Y-75438000D01*
X156554813Y-75242931D01*
X156554811Y-75242926D01*
X156458087Y-75035501D01*
X156326815Y-74848025D01*
X156326810Y-74848019D01*
X156164980Y-74686189D01*
X156164974Y-74686184D01*
X155977498Y-74554912D01*
X155770073Y-74458188D01*
X155770071Y-74458187D01*
X155575000Y-74405917D01*
X155575000Y-75380314D01*
X155566606Y-75371920D01*
X155475394Y-75319259D01*
X155373661Y-75292000D01*
X155268339Y-75292000D01*
X155166606Y-75319259D01*
X155075394Y-75371920D01*
X155067000Y-75380314D01*
X155067000Y-74405917D01*
X155066999Y-74405917D01*
X154871928Y-74458187D01*
X154871926Y-74458188D01*
X154664501Y-74554912D01*
X154477025Y-74686184D01*
X154477019Y-74686189D01*
X154315189Y-74848019D01*
X154315184Y-74848025D01*
X154183912Y-75035501D01*
X154087188Y-75242926D01*
X154087186Y-75242931D01*
X154034917Y-75438000D01*
X153051600Y-75438000D01*
X152999284Y-75242757D01*
X152902523Y-75035251D01*
X152771198Y-74847700D01*
X152609300Y-74685802D01*
X152547451Y-74642495D01*
X152421749Y-74554477D01*
X152214246Y-74457717D01*
X152214240Y-74457715D01*
X152120771Y-74432670D01*
X151993087Y-74398457D01*
X151765000Y-74378502D01*
X151536913Y-74398457D01*
X151315759Y-74457715D01*
X151315753Y-74457717D01*
X151108250Y-74554477D01*
X150920703Y-74685799D01*
X150920697Y-74685804D01*
X150758804Y-74847697D01*
X150758797Y-74847706D01*
X150736344Y-74879772D01*
X150680887Y-74924100D01*
X150633132Y-74933500D01*
X149086868Y-74933500D01*
X149018747Y-74913498D01*
X148983656Y-74879772D01*
X148965414Y-74853721D01*
X148961198Y-74847700D01*
X148799300Y-74685802D01*
X148737451Y-74642495D01*
X148611749Y-74554477D01*
X148404246Y-74457717D01*
X148404240Y-74457715D01*
X148310771Y-74432670D01*
X148183087Y-74398457D01*
X147955000Y-74378502D01*
X147726913Y-74398457D01*
X147505759Y-74457715D01*
X147505753Y-74457717D01*
X147298250Y-74554477D01*
X147110703Y-74685799D01*
X147110697Y-74685804D01*
X146948804Y-74847697D01*
X146948797Y-74847706D01*
X146926344Y-74879772D01*
X146870887Y-74924100D01*
X146823132Y-74933500D01*
X145879500Y-74933500D01*
X145811379Y-74913498D01*
X145764886Y-74859842D01*
X145753500Y-74807500D01*
X145753500Y-74543367D01*
X145753499Y-74543350D01*
X145746990Y-74482803D01*
X145746988Y-74482795D01*
X145712825Y-74391202D01*
X145695889Y-74345796D01*
X145695888Y-74345794D01*
X145695887Y-74345792D01*
X145608261Y-74228738D01*
X145491207Y-74141112D01*
X145491202Y-74141110D01*
X145354204Y-74090011D01*
X145354196Y-74090009D01*
X145293649Y-74083500D01*
X145293638Y-74083500D01*
X142996362Y-74083500D01*
X142996350Y-74083500D01*
X142935803Y-74090009D01*
X142935795Y-74090011D01*
X142798797Y-74141110D01*
X142798792Y-74141112D01*
X142681738Y-74228738D01*
X142594112Y-74345792D01*
X142594110Y-74345797D01*
X142543011Y-74482795D01*
X142543009Y-74482803D01*
X142536500Y-74543350D01*
X140208000Y-74543350D01*
X140208000Y-67135693D01*
X143208700Y-67135693D01*
X143208700Y-67397946D01*
X143242928Y-67657940D01*
X143242930Y-67657947D01*
X143310804Y-67911259D01*
X143411162Y-68153544D01*
X143411163Y-68153545D01*
X143411168Y-68153555D01*
X143542283Y-68380653D01*
X143542287Y-68380659D01*
X143701927Y-68588705D01*
X143701946Y-68588726D01*
X143887353Y-68774133D01*
X143887363Y-68774142D01*
X143887369Y-68774148D01*
X143887372Y-68774150D01*
X143887374Y-68774152D01*
X144095420Y-68933792D01*
X144095426Y-68933796D01*
X144245841Y-69020638D01*
X144322536Y-69064918D01*
X144564821Y-69165276D01*
X144818133Y-69233150D01*
X144818137Y-69233150D01*
X144818139Y-69233151D01*
X144885148Y-69241972D01*
X145078136Y-69267380D01*
X145078143Y-69267380D01*
X145340377Y-69267380D01*
X145340384Y-69267380D01*
X145575362Y-69236444D01*
X145600380Y-69233151D01*
X145600380Y-69233150D01*
X145600387Y-69233150D01*
X145853699Y-69165276D01*
X146095984Y-69064918D01*
X146323097Y-68933794D01*
X146531151Y-68774148D01*
X146716588Y-68588711D01*
X146876234Y-68380657D01*
X147007358Y-68153544D01*
X147041135Y-68072000D01*
X150516673Y-68072000D01*
X150535950Y-68304633D01*
X150593249Y-68530903D01*
X150593252Y-68530910D01*
X150687015Y-68744668D01*
X150814685Y-68940083D01*
X150972774Y-69111813D01*
X150972778Y-69111817D01*
X151028437Y-69155138D01*
X151156983Y-69255190D01*
X151362273Y-69366287D01*
X151583049Y-69442080D01*
X151813288Y-69480500D01*
X151813292Y-69480500D01*
X152046708Y-69480500D01*
X152046712Y-69480500D01*
X152276951Y-69442080D01*
X152497727Y-69366287D01*
X152703017Y-69255190D01*
X152887220Y-69111818D01*
X152887225Y-69111813D01*
X152891054Y-69108289D01*
X152892431Y-69109785D01*
X152945780Y-69077690D01*
X153016745Y-69079790D01*
X153075310Y-69119924D01*
X153095741Y-69155549D01*
X153119111Y-69218204D01*
X153119112Y-69218207D01*
X153206738Y-69335261D01*
X153323792Y-69422887D01*
X153323794Y-69422888D01*
X153323796Y-69422889D01*
X153375243Y-69442078D01*
X153460795Y-69473988D01*
X153460803Y-69473990D01*
X153521350Y-69480499D01*
X153521355Y-69480499D01*
X153521362Y-69480500D01*
X153521368Y-69480500D01*
X155418632Y-69480500D01*
X155418638Y-69480500D01*
X155418645Y-69480499D01*
X155418649Y-69480499D01*
X155479196Y-69473990D01*
X155479199Y-69473989D01*
X155479201Y-69473989D01*
X155616204Y-69422889D01*
X155616799Y-69422444D01*
X155733261Y-69335261D01*
X155820887Y-69218207D01*
X155820887Y-69218206D01*
X155820889Y-69218204D01*
X155871989Y-69081201D01*
X155872367Y-69077690D01*
X155878499Y-69020649D01*
X155878500Y-69020632D01*
X155878500Y-68956500D01*
X155898502Y-68888379D01*
X155952158Y-68841886D01*
X156004500Y-68830500D01*
X156097129Y-68830500D01*
X156165250Y-68850502D01*
X156186224Y-68867405D01*
X159027985Y-71709166D01*
X159152216Y-71792174D01*
X159290253Y-71849351D01*
X159363522Y-71863924D01*
X159363523Y-71863925D01*
X159378098Y-71866824D01*
X159436794Y-71878500D01*
X159436795Y-71878500D01*
X159586205Y-71878500D01*
X165749629Y-71878500D01*
X165817750Y-71898502D01*
X165838724Y-71915405D01*
X170098834Y-76175515D01*
X170098835Y-76175516D01*
X170204484Y-76281165D01*
X170305255Y-76348498D01*
X170328716Y-76364174D01*
X170328718Y-76364175D01*
X170386197Y-76387983D01*
X170386198Y-76387984D01*
X170386199Y-76387984D01*
X170466753Y-76421351D01*
X170540022Y-76435924D01*
X170540023Y-76435925D01*
X170554598Y-76438824D01*
X170613294Y-76450500D01*
X170613295Y-76450500D01*
X170762705Y-76450500D01*
X173366132Y-76450500D01*
X173434253Y-76470502D01*
X173469344Y-76504228D01*
X173491574Y-76535974D01*
X173491802Y-76536300D01*
X173653700Y-76698198D01*
X173841251Y-76829523D01*
X174048757Y-76926284D01*
X174269913Y-76985543D01*
X174498000Y-77005498D01*
X174726087Y-76985543D01*
X174947243Y-76926284D01*
X175154749Y-76829523D01*
X175342300Y-76698198D01*
X175504198Y-76536300D01*
X175635523Y-76348749D01*
X175732284Y-76141243D01*
X175791543Y-75920087D01*
X175811498Y-75692000D01*
X175791543Y-75463913D01*
X175732284Y-75242757D01*
X175635523Y-75035251D01*
X175504198Y-74847700D01*
X175342300Y-74685802D01*
X175280451Y-74642495D01*
X175154749Y-74554477D01*
X174947246Y-74457717D01*
X174947240Y-74457715D01*
X174853771Y-74432670D01*
X174726087Y-74398457D01*
X174498000Y-74378502D01*
X174269913Y-74398457D01*
X174048759Y-74457715D01*
X174048753Y-74457717D01*
X173841250Y-74554477D01*
X173653703Y-74685799D01*
X173653697Y-74685804D01*
X173491804Y-74847697D01*
X173491797Y-74847706D01*
X173469344Y-74879772D01*
X173413887Y-74924100D01*
X173366132Y-74933500D01*
X171054371Y-74933500D01*
X170986250Y-74913498D01*
X170965276Y-74896595D01*
X166599519Y-70530838D01*
X166599515Y-70530834D01*
X166475284Y-70447826D01*
X166337247Y-70390649D01*
X166263976Y-70376074D01*
X166263975Y-70376073D01*
X166190711Y-70361500D01*
X166190706Y-70361500D01*
X159877871Y-70361500D01*
X159809750Y-70341498D01*
X159788776Y-70324595D01*
X157057076Y-67592895D01*
X157057067Y-67592885D01*
X157052666Y-67588484D01*
X156947016Y-67482834D01*
X156822785Y-67399826D01*
X156684747Y-67342649D01*
X156538207Y-67313500D01*
X156538205Y-67313500D01*
X156532206Y-67313500D01*
X156004500Y-67313500D01*
X155936379Y-67293498D01*
X155889886Y-67239842D01*
X155878500Y-67187500D01*
X155878500Y-67123402D01*
X160512000Y-67123402D01*
X160512000Y-67818000D01*
X161547032Y-67818000D01*
X161500667Y-67898306D01*
X161470000Y-68012756D01*
X161470000Y-68131244D01*
X161500667Y-68245694D01*
X161547032Y-68326000D01*
X160512000Y-68326000D01*
X160512000Y-69020597D01*
X160518505Y-69081093D01*
X160569555Y-69217964D01*
X160569555Y-69217965D01*
X160657095Y-69334904D01*
X160774034Y-69422444D01*
X160910906Y-69473494D01*
X160971402Y-69479999D01*
X160971415Y-69480000D01*
X161666000Y-69480000D01*
X161666000Y-68444968D01*
X161746306Y-68491333D01*
X161860756Y-68522000D01*
X161979244Y-68522000D01*
X162093694Y-68491333D01*
X162174000Y-68444968D01*
X162174000Y-69480000D01*
X162868585Y-69480000D01*
X162868597Y-69479999D01*
X162929093Y-69473494D01*
X163065964Y-69422444D01*
X163065965Y-69422444D01*
X163182904Y-69334904D01*
X163270444Y-69217965D01*
X163293877Y-69155138D01*
X163336423Y-69098302D01*
X163402943Y-69073491D01*
X163472318Y-69088582D01*
X163498356Y-69108929D01*
X163498946Y-69108289D01*
X163502778Y-69111817D01*
X163558437Y-69155138D01*
X163686983Y-69255190D01*
X163892273Y-69366287D01*
X164113049Y-69442080D01*
X164343288Y-69480500D01*
X164343292Y-69480500D01*
X164576708Y-69480500D01*
X164576712Y-69480500D01*
X164806951Y-69442080D01*
X165027727Y-69366287D01*
X165233017Y-69255190D01*
X165417220Y-69111818D01*
X165429663Y-69098302D01*
X165575314Y-68940083D01*
X165609613Y-68887585D01*
X165663616Y-68841496D01*
X165715096Y-68830500D01*
X166130629Y-68830500D01*
X166198750Y-68850502D01*
X166219724Y-68867405D01*
X170860834Y-73508515D01*
X170860835Y-73508516D01*
X170966484Y-73614165D01*
X171090716Y-73697174D01*
X171228754Y-73754351D01*
X171375294Y-73783500D01*
X171375295Y-73783500D01*
X171524705Y-73783500D01*
X176290629Y-73783500D01*
X176358750Y-73803502D01*
X176379724Y-73820405D01*
X176900762Y-74341443D01*
X176934788Y-74403755D01*
X176929723Y-74474570D01*
X176895299Y-74520556D01*
X176897110Y-74522367D01*
X176890740Y-74528736D01*
X176803112Y-74645792D01*
X176803110Y-74645797D01*
X176752011Y-74782795D01*
X176752009Y-74782803D01*
X176745500Y-74843350D01*
X176745500Y-76540649D01*
X176752009Y-76601196D01*
X176752011Y-76601204D01*
X176803110Y-76738202D01*
X176803112Y-76738207D01*
X176890738Y-76855261D01*
X177007792Y-76942887D01*
X177007794Y-76942888D01*
X177007796Y-76942889D01*
X177066875Y-76964924D01*
X177144795Y-76993988D01*
X177144803Y-76993990D01*
X177205350Y-77000499D01*
X177205355Y-77000499D01*
X177205362Y-77000500D01*
X177205368Y-77000500D01*
X178902632Y-77000500D01*
X178902638Y-77000500D01*
X178902645Y-77000499D01*
X178902649Y-77000499D01*
X178963196Y-76993990D01*
X178963199Y-76993989D01*
X178963201Y-76993989D01*
X179100204Y-76942889D01*
X179105421Y-76938984D01*
X179217261Y-76855261D01*
X179304887Y-76738207D01*
X179304887Y-76738206D01*
X179304889Y-76738204D01*
X179355989Y-76601201D01*
X179361602Y-76548996D01*
X179362499Y-76540649D01*
X179362500Y-76540632D01*
X179362500Y-75704700D01*
X180804502Y-75704700D01*
X180824457Y-75932787D01*
X180845704Y-76012080D01*
X180883715Y-76153940D01*
X180883717Y-76153946D01*
X180980477Y-76361449D01*
X181105954Y-76540649D01*
X181111802Y-76549000D01*
X181273700Y-76710898D01*
X181461251Y-76842223D01*
X181668757Y-76938984D01*
X181889913Y-76998243D01*
X182118000Y-77018198D01*
X182346087Y-76998243D01*
X182567243Y-76938984D01*
X182774749Y-76842223D01*
X182962300Y-76710898D01*
X183124198Y-76549000D01*
X183255523Y-76361449D01*
X183352284Y-76153943D01*
X183411543Y-75932787D01*
X183431498Y-75704700D01*
X183411543Y-75476613D01*
X183352284Y-75255457D01*
X183255523Y-75047951D01*
X183124198Y-74860400D01*
X182962300Y-74698502D01*
X182944715Y-74686189D01*
X182774749Y-74567177D01*
X182567246Y-74470417D01*
X182567240Y-74470415D01*
X182439044Y-74436065D01*
X182346087Y-74411157D01*
X182118000Y-74391202D01*
X181889913Y-74411157D01*
X181668759Y-74470415D01*
X181668753Y-74470417D01*
X181461250Y-74567177D01*
X181273703Y-74698499D01*
X181273697Y-74698504D01*
X181111804Y-74860397D01*
X181111799Y-74860403D01*
X180980477Y-75047950D01*
X180883717Y-75255453D01*
X180883715Y-75255459D01*
X180834803Y-75438000D01*
X180824457Y-75476613D01*
X180804502Y-75704700D01*
X179362500Y-75704700D01*
X179362500Y-74843367D01*
X179362499Y-74843350D01*
X179355990Y-74782803D01*
X179355988Y-74782795D01*
X179324548Y-74698504D01*
X179304889Y-74645796D01*
X179304888Y-74645794D01*
X179304887Y-74645792D01*
X179217261Y-74528738D01*
X179100207Y-74441112D01*
X179100202Y-74441110D01*
X178963204Y-74390011D01*
X178963196Y-74390009D01*
X178909938Y-74384284D01*
X178844346Y-74357115D01*
X178803855Y-74298797D01*
X178799828Y-74283588D01*
X178793860Y-74253588D01*
X178783351Y-74200754D01*
X178778211Y-74188346D01*
X178751482Y-74123816D01*
X178726174Y-74062716D01*
X178643165Y-73938484D01*
X178537516Y-73832835D01*
X177140515Y-72435834D01*
X177016284Y-72352826D01*
X176878247Y-72295649D01*
X176804976Y-72281074D01*
X176804975Y-72281073D01*
X176731711Y-72266500D01*
X176731706Y-72266500D01*
X171816371Y-72266500D01*
X171748250Y-72246498D01*
X171727276Y-72229595D01*
X166980519Y-67482838D01*
X166980515Y-67482834D01*
X166856284Y-67399826D01*
X166718247Y-67342649D01*
X166642007Y-67327484D01*
X166642005Y-67327483D01*
X166571709Y-67313500D01*
X166571706Y-67313500D01*
X165715096Y-67313500D01*
X165646975Y-67293498D01*
X165609613Y-67256415D01*
X165575314Y-67203916D01*
X165417225Y-67032186D01*
X165417221Y-67032182D01*
X165325118Y-66960496D01*
X165233017Y-66888810D01*
X165027727Y-66777713D01*
X165027724Y-66777712D01*
X165027723Y-66777711D01*
X164806955Y-66701921D01*
X164806948Y-66701919D01*
X164708411Y-66685476D01*
X164576712Y-66663500D01*
X164343288Y-66663500D01*
X164228066Y-66682727D01*
X164113051Y-66701919D01*
X164113044Y-66701921D01*
X163892276Y-66777711D01*
X163892273Y-66777713D01*
X163686985Y-66888809D01*
X163686983Y-66888810D01*
X163502778Y-67032182D01*
X163498946Y-67035711D01*
X163497688Y-67034345D01*
X163443763Y-67066742D01*
X163372799Y-67064598D01*
X163314260Y-67024428D01*
X163293877Y-66988861D01*
X163270444Y-66926034D01*
X163182904Y-66809095D01*
X163065965Y-66721555D01*
X162929093Y-66670505D01*
X162868597Y-66664000D01*
X162174000Y-66664000D01*
X162174000Y-67699031D01*
X162093694Y-67652667D01*
X161979244Y-67622000D01*
X161860756Y-67622000D01*
X161746306Y-67652667D01*
X161666000Y-67699031D01*
X161666000Y-66664000D01*
X160971402Y-66664000D01*
X160910906Y-66670505D01*
X160774035Y-66721555D01*
X160774034Y-66721555D01*
X160657095Y-66809095D01*
X160569555Y-66926034D01*
X160569555Y-66926035D01*
X160518505Y-67062906D01*
X160512000Y-67123402D01*
X155878500Y-67123402D01*
X155878500Y-67123367D01*
X155878498Y-67123339D01*
X155871990Y-67062803D01*
X155871988Y-67062795D01*
X155842924Y-66984875D01*
X155820889Y-66925796D01*
X155820887Y-66925793D01*
X155820887Y-66925792D01*
X155733261Y-66808738D01*
X155616207Y-66721112D01*
X155616202Y-66721110D01*
X155479204Y-66670011D01*
X155479196Y-66670009D01*
X155418649Y-66663500D01*
X155418638Y-66663500D01*
X153521362Y-66663500D01*
X153521350Y-66663500D01*
X153460803Y-66670009D01*
X153460795Y-66670011D01*
X153323797Y-66721110D01*
X153323792Y-66721112D01*
X153206738Y-66808738D01*
X153119112Y-66925792D01*
X153119112Y-66925793D01*
X153095741Y-66988451D01*
X153053193Y-67045286D01*
X152986672Y-67070095D01*
X152917298Y-67055002D01*
X152891705Y-67035002D01*
X152891054Y-67035711D01*
X152887214Y-67032176D01*
X152737109Y-66915343D01*
X152695638Y-66857718D01*
X152688500Y-66815912D01*
X152688500Y-66241371D01*
X152708502Y-66173250D01*
X152725405Y-66152276D01*
X153058276Y-65819405D01*
X153120588Y-65785379D01*
X153147371Y-65782500D01*
X171143935Y-65782500D01*
X171212056Y-65802502D01*
X171258549Y-65856158D01*
X171268653Y-65926432D01*
X171258822Y-65956428D01*
X171260195Y-65956997D01*
X171202517Y-66096244D01*
X171202516Y-66096247D01*
X171200649Y-66100752D01*
X171171500Y-66247290D01*
X171171500Y-66815912D01*
X171151498Y-66884033D01*
X171122891Y-66915343D01*
X170972785Y-67032176D01*
X170972774Y-67032186D01*
X170814685Y-67203916D01*
X170687015Y-67399331D01*
X170593252Y-67613089D01*
X170593249Y-67613096D01*
X170535950Y-67839366D01*
X170535949Y-67839372D01*
X170535949Y-67839374D01*
X170521582Y-68012756D01*
X170516673Y-68072000D01*
X170535950Y-68304633D01*
X170593249Y-68530903D01*
X170593252Y-68530910D01*
X170687015Y-68744668D01*
X170814685Y-68940083D01*
X170972774Y-69111813D01*
X170972778Y-69111817D01*
X171028437Y-69155138D01*
X171156983Y-69255190D01*
X171362273Y-69366287D01*
X171583049Y-69442080D01*
X171813288Y-69480500D01*
X171813292Y-69480500D01*
X172046708Y-69480500D01*
X172046712Y-69480500D01*
X172276951Y-69442080D01*
X172497727Y-69366287D01*
X172703017Y-69255190D01*
X172887220Y-69111818D01*
X172887225Y-69111813D01*
X172891054Y-69108289D01*
X172892431Y-69109785D01*
X172945780Y-69077690D01*
X173016745Y-69079790D01*
X173075310Y-69119924D01*
X173095741Y-69155549D01*
X173119111Y-69218204D01*
X173119112Y-69218207D01*
X173206738Y-69335261D01*
X173323792Y-69422887D01*
X173323794Y-69422888D01*
X173323796Y-69422889D01*
X173375243Y-69442078D01*
X173460795Y-69473988D01*
X173460803Y-69473990D01*
X173521350Y-69480499D01*
X173521355Y-69480499D01*
X173521362Y-69480500D01*
X173521368Y-69480500D01*
X175418632Y-69480500D01*
X175418638Y-69480500D01*
X175418645Y-69480499D01*
X175418649Y-69480499D01*
X175479196Y-69473990D01*
X175479199Y-69473989D01*
X175479201Y-69473989D01*
X175616204Y-69422889D01*
X175616799Y-69422444D01*
X175733261Y-69335261D01*
X175820887Y-69218207D01*
X175820887Y-69218206D01*
X175820889Y-69218204D01*
X175871989Y-69081201D01*
X175872367Y-69077690D01*
X175878499Y-69020649D01*
X175878500Y-69020632D01*
X175878500Y-68956500D01*
X175898502Y-68888379D01*
X175952158Y-68841886D01*
X176004500Y-68830500D01*
X176671629Y-68830500D01*
X176739750Y-68850502D01*
X176760724Y-68867405D01*
X179348485Y-71455166D01*
X179472716Y-71538174D01*
X179610754Y-71595351D01*
X179757294Y-71624500D01*
X179757295Y-71624500D01*
X179906705Y-71624500D01*
X181624629Y-71624500D01*
X181692750Y-71644502D01*
X181713724Y-71661405D01*
X184694814Y-74642495D01*
X184728840Y-74704807D01*
X184723775Y-74775622D01*
X184694817Y-74820683D01*
X184667802Y-74847699D01*
X184667801Y-74847699D01*
X184536477Y-75035250D01*
X184439717Y-75242753D01*
X184439715Y-75242759D01*
X184387400Y-75438000D01*
X184380457Y-75463913D01*
X184360502Y-75692000D01*
X184380457Y-75920087D01*
X184405107Y-76012080D01*
X184439715Y-76141240D01*
X184439717Y-76141246D01*
X184536477Y-76348749D01*
X184663180Y-76529700D01*
X184667802Y-76536300D01*
X184829700Y-76698198D01*
X185017251Y-76829523D01*
X185224757Y-76926284D01*
X185445913Y-76985543D01*
X185674000Y-77005498D01*
X185902087Y-76985543D01*
X186123243Y-76926284D01*
X186330749Y-76829523D01*
X186518300Y-76698198D01*
X186680198Y-76536300D01*
X186811523Y-76348749D01*
X186908284Y-76141243D01*
X186967543Y-75920087D01*
X186987498Y-75692000D01*
X186967543Y-75463913D01*
X186960600Y-75438000D01*
X187943917Y-75438000D01*
X188918314Y-75438000D01*
X188909920Y-75446394D01*
X188857259Y-75537606D01*
X188830000Y-75639339D01*
X188830000Y-75744661D01*
X188857259Y-75846394D01*
X188909920Y-75937606D01*
X188918314Y-75946000D01*
X187943918Y-75946000D01*
X187996186Y-76141068D01*
X187996188Y-76141073D01*
X188092912Y-76348498D01*
X188224184Y-76535974D01*
X188224189Y-76535980D01*
X188386019Y-76697810D01*
X188386025Y-76697815D01*
X188573501Y-76829087D01*
X188780926Y-76925811D01*
X188780931Y-76925813D01*
X188976000Y-76978081D01*
X188976000Y-76003686D01*
X188984394Y-76012080D01*
X189075606Y-76064741D01*
X189177339Y-76092000D01*
X189282661Y-76092000D01*
X189384394Y-76064741D01*
X189475606Y-76012080D01*
X189484000Y-76003686D01*
X189484000Y-76978081D01*
X189679068Y-76925813D01*
X189679073Y-76925811D01*
X189886498Y-76829087D01*
X190073974Y-76697815D01*
X190073980Y-76697810D01*
X190235810Y-76535980D01*
X190235815Y-76535974D01*
X190367087Y-76348498D01*
X190463811Y-76141073D01*
X190463813Y-76141068D01*
X190516082Y-75946000D01*
X189541686Y-75946000D01*
X189550080Y-75937606D01*
X189602741Y-75846394D01*
X189630000Y-75744661D01*
X189630000Y-75639339D01*
X189602741Y-75537606D01*
X189550080Y-75446394D01*
X189541686Y-75438000D01*
X190516082Y-75438000D01*
X190463813Y-75242931D01*
X190463811Y-75242926D01*
X190367087Y-75035501D01*
X190235815Y-74848025D01*
X190235810Y-74848019D01*
X190073980Y-74686189D01*
X190073974Y-74686184D01*
X189886498Y-74554912D01*
X189679073Y-74458188D01*
X189679071Y-74458187D01*
X189484000Y-74405917D01*
X189484000Y-75380314D01*
X189475606Y-75371920D01*
X189384394Y-75319259D01*
X189282661Y-75292000D01*
X189177339Y-75292000D01*
X189075606Y-75319259D01*
X188984394Y-75371920D01*
X188976000Y-75380314D01*
X188976000Y-74405917D01*
X188975999Y-74405917D01*
X188780928Y-74458187D01*
X188780926Y-74458188D01*
X188573501Y-74554912D01*
X188386025Y-74686184D01*
X188386019Y-74686189D01*
X188224189Y-74848019D01*
X188224184Y-74848025D01*
X188092912Y-75035501D01*
X187996188Y-75242926D01*
X187996186Y-75242931D01*
X187943917Y-75438000D01*
X186960600Y-75438000D01*
X186908284Y-75242757D01*
X186811523Y-75035251D01*
X186680198Y-74847700D01*
X186518300Y-74685802D01*
X186518293Y-74685797D01*
X186486228Y-74663344D01*
X186441900Y-74607887D01*
X186432500Y-74560132D01*
X186432500Y-74474293D01*
X186432499Y-74474290D01*
X186431729Y-74470417D01*
X186403351Y-74327754D01*
X186346174Y-74189716D01*
X186287735Y-74102256D01*
X186279553Y-74090011D01*
X186263168Y-74065488D01*
X186263162Y-74065480D01*
X182474519Y-70276838D01*
X182474515Y-70276834D01*
X182350284Y-70193826D01*
X182212247Y-70136649D01*
X182138976Y-70122074D01*
X182138975Y-70122073D01*
X182065711Y-70107500D01*
X182065706Y-70107500D01*
X180198371Y-70107500D01*
X180130250Y-70087498D01*
X180109276Y-70070595D01*
X177521519Y-67482838D01*
X177521515Y-67482834D01*
X177397284Y-67399826D01*
X177259247Y-67342649D01*
X177183007Y-67327484D01*
X177183005Y-67327483D01*
X177112709Y-67313500D01*
X177112706Y-67313500D01*
X176004500Y-67313500D01*
X175936379Y-67293498D01*
X175889886Y-67239842D01*
X175878500Y-67187500D01*
X175878500Y-67123367D01*
X175878498Y-67123339D01*
X175871990Y-67062803D01*
X175871988Y-67062795D01*
X175842924Y-66984875D01*
X175820889Y-66925796D01*
X175820887Y-66925793D01*
X175820887Y-66925792D01*
X175733261Y-66808738D01*
X175616207Y-66721112D01*
X175616202Y-66721110D01*
X175479204Y-66670011D01*
X175479196Y-66670009D01*
X175418649Y-66663500D01*
X175418638Y-66663500D01*
X173521362Y-66663500D01*
X173521350Y-66663500D01*
X173460803Y-66670009D01*
X173460795Y-66670011D01*
X173323797Y-66721110D01*
X173323792Y-66721112D01*
X173206738Y-66808738D01*
X173119112Y-66925792D01*
X173119112Y-66925793D01*
X173095741Y-66988451D01*
X173053193Y-67045286D01*
X172986672Y-67070095D01*
X172917298Y-67055002D01*
X172891705Y-67035002D01*
X172891054Y-67035711D01*
X172887214Y-67032176D01*
X172737109Y-66915343D01*
X172695638Y-66857718D01*
X172688500Y-66815912D01*
X172688500Y-66688371D01*
X172708502Y-66620250D01*
X172725405Y-66599276D01*
X173505276Y-65819405D01*
X173567588Y-65785379D01*
X173594371Y-65782500D01*
X185152564Y-65782500D01*
X185220685Y-65802502D01*
X185267178Y-65856158D01*
X185277282Y-65926432D01*
X185268972Y-65956719D01*
X185236652Y-66034742D01*
X185236649Y-66034752D01*
X185207500Y-66181290D01*
X185207500Y-66815912D01*
X185187498Y-66884033D01*
X185158891Y-66915343D01*
X185008785Y-67032176D01*
X185008774Y-67032186D01*
X184850685Y-67203916D01*
X184723015Y-67399331D01*
X184629252Y-67613089D01*
X184629249Y-67613096D01*
X184571950Y-67839366D01*
X184571949Y-67839372D01*
X184571949Y-67839374D01*
X184557582Y-68012756D01*
X184552673Y-68072000D01*
X184571950Y-68304633D01*
X184629249Y-68530903D01*
X184629252Y-68530910D01*
X184723015Y-68744668D01*
X184850685Y-68940083D01*
X185008774Y-69111813D01*
X185008778Y-69111817D01*
X185064437Y-69155138D01*
X185192983Y-69255190D01*
X185398273Y-69366287D01*
X185619049Y-69442080D01*
X185849288Y-69480500D01*
X185849292Y-69480500D01*
X186082708Y-69480500D01*
X186082712Y-69480500D01*
X186312951Y-69442080D01*
X186533727Y-69366287D01*
X186739017Y-69255190D01*
X186923220Y-69111818D01*
X186923225Y-69111813D01*
X186927054Y-69108289D01*
X186928431Y-69109785D01*
X186981780Y-69077690D01*
X187052745Y-69079790D01*
X187111310Y-69119924D01*
X187131741Y-69155549D01*
X187155111Y-69218204D01*
X187155112Y-69218207D01*
X187242738Y-69335261D01*
X187359792Y-69422887D01*
X187359794Y-69422888D01*
X187359796Y-69422889D01*
X187411243Y-69442078D01*
X187496795Y-69473988D01*
X187496803Y-69473990D01*
X187557350Y-69480499D01*
X187557355Y-69480499D01*
X187557362Y-69480500D01*
X187557368Y-69480500D01*
X189454632Y-69480500D01*
X189454638Y-69480500D01*
X189454645Y-69480499D01*
X189454649Y-69480499D01*
X189515196Y-69473990D01*
X189515199Y-69473989D01*
X189515201Y-69473989D01*
X189652204Y-69422889D01*
X189652799Y-69422444D01*
X189769261Y-69335261D01*
X189820077Y-69267379D01*
X189856889Y-69218204D01*
X189856889Y-69218202D01*
X189857310Y-69217641D01*
X189914145Y-69175094D01*
X189984961Y-69170029D01*
X190047270Y-69204052D01*
X192587346Y-71744128D01*
X192711577Y-71827136D01*
X192849615Y-71884313D01*
X192996155Y-71913462D01*
X192996156Y-71913462D01*
X193145566Y-71913462D01*
X199312591Y-71913462D01*
X199380712Y-71933464D01*
X199401686Y-71950367D01*
X203732477Y-76281159D01*
X203732481Y-76281162D01*
X203732485Y-76281166D01*
X203833631Y-76348749D01*
X203856716Y-76364174D01*
X203994754Y-76421351D01*
X204141294Y-76450500D01*
X204141295Y-76450500D01*
X204290705Y-76450500D01*
X205116132Y-76450500D01*
X205184253Y-76470502D01*
X205219344Y-76504228D01*
X205241574Y-76535974D01*
X205241802Y-76536300D01*
X205403700Y-76698198D01*
X205591251Y-76829523D01*
X205798757Y-76926284D01*
X206019913Y-76985543D01*
X206248000Y-77005498D01*
X206476087Y-76985543D01*
X206697243Y-76926284D01*
X206904749Y-76829523D01*
X207092300Y-76698198D01*
X207254198Y-76536300D01*
X207385523Y-76348749D01*
X207482284Y-76141243D01*
X207541543Y-75920087D01*
X207561498Y-75692000D01*
X207541543Y-75463913D01*
X207482284Y-75242757D01*
X207385523Y-75035251D01*
X207254198Y-74847700D01*
X207092300Y-74685802D01*
X207030451Y-74642495D01*
X206904749Y-74554477D01*
X206697246Y-74457717D01*
X206697240Y-74457715D01*
X206603771Y-74432670D01*
X206476087Y-74398457D01*
X206248000Y-74378502D01*
X206019913Y-74398457D01*
X205798759Y-74457715D01*
X205798753Y-74457717D01*
X205591250Y-74554477D01*
X205403703Y-74685799D01*
X205403697Y-74685804D01*
X205241804Y-74847697D01*
X205241797Y-74847706D01*
X205219344Y-74879772D01*
X205163887Y-74924100D01*
X205116132Y-74933500D01*
X204582371Y-74933500D01*
X204514250Y-74913498D01*
X204493276Y-74896595D01*
X200162481Y-70565800D01*
X200162477Y-70565796D01*
X200038246Y-70482788D01*
X199900209Y-70425611D01*
X199826938Y-70411036D01*
X199826937Y-70411035D01*
X199753673Y-70396462D01*
X199753668Y-70396462D01*
X193437232Y-70396462D01*
X193369111Y-70376460D01*
X193348137Y-70359557D01*
X190471418Y-67482838D01*
X190471414Y-67482834D01*
X190347183Y-67399826D01*
X190209146Y-67342649D01*
X190132906Y-67327484D01*
X190132904Y-67327483D01*
X190062608Y-67313500D01*
X190062605Y-67313500D01*
X190040500Y-67313500D01*
X189972379Y-67293498D01*
X189925886Y-67239842D01*
X189914500Y-67187500D01*
X189914500Y-67123402D01*
X194548000Y-67123402D01*
X194548000Y-67818000D01*
X195583032Y-67818000D01*
X195536667Y-67898306D01*
X195506000Y-68012756D01*
X195506000Y-68131244D01*
X195536667Y-68245694D01*
X195583032Y-68326000D01*
X194548000Y-68326000D01*
X194548000Y-69020597D01*
X194554505Y-69081093D01*
X194605555Y-69217964D01*
X194605555Y-69217965D01*
X194693095Y-69334904D01*
X194810034Y-69422444D01*
X194946906Y-69473494D01*
X195007402Y-69479999D01*
X195007415Y-69480000D01*
X195702000Y-69480000D01*
X195702000Y-68444968D01*
X195782306Y-68491333D01*
X195896756Y-68522000D01*
X196015244Y-68522000D01*
X196129694Y-68491333D01*
X196210000Y-68444968D01*
X196210000Y-69480000D01*
X196904585Y-69480000D01*
X196904597Y-69479999D01*
X196965093Y-69473494D01*
X197101964Y-69422444D01*
X197101965Y-69422444D01*
X197218904Y-69334904D01*
X197306444Y-69217965D01*
X197329877Y-69155138D01*
X197372423Y-69098302D01*
X197438943Y-69073491D01*
X197508318Y-69088582D01*
X197534356Y-69108929D01*
X197534946Y-69108289D01*
X197538778Y-69111817D01*
X197594437Y-69155138D01*
X197722983Y-69255190D01*
X197928273Y-69366287D01*
X198149049Y-69442080D01*
X198379288Y-69480500D01*
X198379292Y-69480500D01*
X198612708Y-69480500D01*
X198612712Y-69480500D01*
X198842951Y-69442080D01*
X199063727Y-69366287D01*
X199269017Y-69255190D01*
X199453220Y-69111818D01*
X199465663Y-69098302D01*
X199611314Y-68940083D01*
X199645613Y-68887585D01*
X199699616Y-68841496D01*
X199751096Y-68830500D01*
X200517629Y-68830500D01*
X200585750Y-68850502D01*
X200606724Y-68867405D01*
X205407046Y-73667727D01*
X205407047Y-73667728D01*
X205512696Y-73773377D01*
X205636928Y-73856386D01*
X205774966Y-73913563D01*
X205921506Y-73942712D01*
X205921507Y-73942712D01*
X206070917Y-73942712D01*
X207971779Y-73942712D01*
X208039900Y-73962714D01*
X208060874Y-73979617D01*
X208411595Y-74330338D01*
X208445621Y-74392650D01*
X208440556Y-74463465D01*
X208398013Y-74520298D01*
X208386739Y-74528737D01*
X208299112Y-74645792D01*
X208299110Y-74645797D01*
X208248011Y-74782795D01*
X208248009Y-74782803D01*
X208241500Y-74843350D01*
X208241500Y-76540649D01*
X208248009Y-76601196D01*
X208248011Y-76601204D01*
X208299110Y-76738202D01*
X208299112Y-76738207D01*
X208386738Y-76855261D01*
X208503792Y-76942887D01*
X208503794Y-76942888D01*
X208503796Y-76942889D01*
X208562875Y-76964924D01*
X208640795Y-76993988D01*
X208640803Y-76993990D01*
X208701350Y-77000499D01*
X208701355Y-77000499D01*
X208701362Y-77000500D01*
X208701368Y-77000500D01*
X210398632Y-77000500D01*
X210398638Y-77000500D01*
X210398645Y-77000499D01*
X210398649Y-77000499D01*
X210459196Y-76993990D01*
X210459199Y-76993989D01*
X210459201Y-76993989D01*
X210596204Y-76942889D01*
X210601421Y-76938984D01*
X210713261Y-76855261D01*
X210800887Y-76738207D01*
X210800887Y-76738206D01*
X210800889Y-76738204D01*
X210851989Y-76601201D01*
X210857602Y-76548996D01*
X210858499Y-76540649D01*
X210858500Y-76540632D01*
X210858500Y-74843367D01*
X210858499Y-74843350D01*
X210851990Y-74782803D01*
X210851988Y-74782795D01*
X210820548Y-74698504D01*
X210800889Y-74645796D01*
X210800888Y-74645794D01*
X210800887Y-74645792D01*
X210713261Y-74528738D01*
X210596207Y-74441112D01*
X210596202Y-74441110D01*
X210459204Y-74390011D01*
X210459196Y-74390009D01*
X210411211Y-74384851D01*
X210345618Y-74357682D01*
X210305127Y-74299364D01*
X210301100Y-74284155D01*
X210290077Y-74228739D01*
X210279351Y-74174816D01*
X210222174Y-74036778D01*
X210175078Y-73966294D01*
X210139845Y-73913563D01*
X210139165Y-73912545D01*
X210139162Y-73912542D01*
X208821669Y-72595050D01*
X208821665Y-72595046D01*
X208697434Y-72512038D01*
X208559397Y-72454861D01*
X208463742Y-72435834D01*
X208438299Y-72430773D01*
X208412857Y-72425712D01*
X208412856Y-72425712D01*
X206362583Y-72425712D01*
X206294462Y-72405710D01*
X206273488Y-72388807D01*
X201367519Y-67482838D01*
X201367515Y-67482834D01*
X201243284Y-67399826D01*
X201105247Y-67342649D01*
X201029007Y-67327484D01*
X201029005Y-67327483D01*
X200958709Y-67313500D01*
X200958706Y-67313500D01*
X199751096Y-67313500D01*
X199682975Y-67293498D01*
X199645613Y-67256415D01*
X199611314Y-67203916D01*
X199453225Y-67032186D01*
X199453221Y-67032182D01*
X199361118Y-66960496D01*
X199269017Y-66888810D01*
X199063727Y-66777713D01*
X199063724Y-66777712D01*
X199063723Y-66777711D01*
X198842955Y-66701921D01*
X198842948Y-66701919D01*
X198744411Y-66685476D01*
X198612712Y-66663500D01*
X198379288Y-66663500D01*
X198264066Y-66682727D01*
X198149051Y-66701919D01*
X198149044Y-66701921D01*
X197928276Y-66777711D01*
X197928273Y-66777713D01*
X197722985Y-66888809D01*
X197722983Y-66888810D01*
X197538778Y-67032182D01*
X197534946Y-67035711D01*
X197533688Y-67034345D01*
X197479763Y-67066742D01*
X197408799Y-67064598D01*
X197350260Y-67024428D01*
X197329877Y-66988861D01*
X197306444Y-66926034D01*
X197218904Y-66809095D01*
X197101965Y-66721555D01*
X196965093Y-66670505D01*
X196904597Y-66664000D01*
X196210000Y-66664000D01*
X196210000Y-67699031D01*
X196129694Y-67652667D01*
X196015244Y-67622000D01*
X195896756Y-67622000D01*
X195782306Y-67652667D01*
X195702000Y-67699031D01*
X195702000Y-66664000D01*
X195007402Y-66664000D01*
X194946906Y-66670505D01*
X194810035Y-66721555D01*
X194810034Y-66721555D01*
X194693095Y-66809095D01*
X194605555Y-66926034D01*
X194605555Y-66926035D01*
X194554505Y-67062906D01*
X194548000Y-67123402D01*
X189914500Y-67123402D01*
X189914500Y-67123367D01*
X189914498Y-67123339D01*
X189907990Y-67062803D01*
X189907988Y-67062795D01*
X189878924Y-66984875D01*
X189856889Y-66925796D01*
X189856887Y-66925793D01*
X189856887Y-66925792D01*
X189769261Y-66808738D01*
X189652207Y-66721112D01*
X189652202Y-66721110D01*
X189515204Y-66670011D01*
X189515196Y-66670009D01*
X189454649Y-66663500D01*
X189454638Y-66663500D01*
X187557362Y-66663500D01*
X187557350Y-66663500D01*
X187496803Y-66670009D01*
X187496795Y-66670011D01*
X187359797Y-66721110D01*
X187359792Y-66721112D01*
X187242738Y-66808738D01*
X187155112Y-66925792D01*
X187155112Y-66925793D01*
X187131741Y-66988451D01*
X187089193Y-67045286D01*
X187022672Y-67070095D01*
X186953298Y-67055002D01*
X186927705Y-67035002D01*
X186927054Y-67035711D01*
X186923214Y-67032176D01*
X186773109Y-66915343D01*
X186731638Y-66857718D01*
X186724500Y-66815912D01*
X186724500Y-66622371D01*
X186744502Y-66554250D01*
X186761405Y-66533276D01*
X187475276Y-65819405D01*
X187537588Y-65785379D01*
X187564371Y-65782500D01*
X205095898Y-65782500D01*
X205164019Y-65802502D01*
X205210512Y-65856158D01*
X205220616Y-65926432D01*
X205219477Y-65933082D01*
X205207500Y-65993290D01*
X205207500Y-66815912D01*
X205187498Y-66884033D01*
X205158891Y-66915343D01*
X205008785Y-67032176D01*
X205008774Y-67032186D01*
X204850685Y-67203916D01*
X204723015Y-67399331D01*
X204629252Y-67613089D01*
X204629249Y-67613096D01*
X204571950Y-67839366D01*
X204571949Y-67839372D01*
X204571949Y-67839374D01*
X204557582Y-68012756D01*
X204552673Y-68072000D01*
X204571950Y-68304633D01*
X204629249Y-68530903D01*
X204629252Y-68530910D01*
X204723015Y-68744668D01*
X204850685Y-68940083D01*
X205008774Y-69111813D01*
X205008778Y-69111817D01*
X205064437Y-69155138D01*
X205192983Y-69255190D01*
X205398273Y-69366287D01*
X205619049Y-69442080D01*
X205849288Y-69480500D01*
X205849292Y-69480500D01*
X206082708Y-69480500D01*
X206082712Y-69480500D01*
X206312951Y-69442080D01*
X206533727Y-69366287D01*
X206739017Y-69255190D01*
X206923220Y-69111818D01*
X206923225Y-69111813D01*
X206927054Y-69108289D01*
X206928431Y-69109785D01*
X206981780Y-69077690D01*
X207052745Y-69079790D01*
X207111310Y-69119924D01*
X207131741Y-69155549D01*
X207155111Y-69218204D01*
X207155112Y-69218207D01*
X207242738Y-69335261D01*
X207359792Y-69422887D01*
X207359794Y-69422888D01*
X207359796Y-69422889D01*
X207411243Y-69442078D01*
X207496795Y-69473988D01*
X207496803Y-69473990D01*
X207557350Y-69480499D01*
X207557355Y-69480499D01*
X207557362Y-69480500D01*
X207621500Y-69480500D01*
X207689621Y-69500502D01*
X207736114Y-69554158D01*
X207747500Y-69606500D01*
X207747500Y-69642705D01*
X207776649Y-69789247D01*
X207833826Y-69927284D01*
X207916834Y-70051515D01*
X207916838Y-70051519D01*
X212056595Y-74191276D01*
X212090621Y-74253588D01*
X212093500Y-74280371D01*
X212093500Y-74560132D01*
X212073498Y-74628253D01*
X212039772Y-74663344D01*
X212007706Y-74685797D01*
X212007697Y-74685804D01*
X211845804Y-74847697D01*
X211845799Y-74847703D01*
X211714477Y-75035250D01*
X211617717Y-75242753D01*
X211617715Y-75242759D01*
X211565400Y-75438000D01*
X211558457Y-75463913D01*
X211538502Y-75692000D01*
X211558457Y-75920087D01*
X211583107Y-76012080D01*
X211617715Y-76141240D01*
X211617717Y-76141246D01*
X211714477Y-76348749D01*
X211841180Y-76529700D01*
X211845802Y-76536300D01*
X212007700Y-76698198D01*
X212195251Y-76829523D01*
X212402757Y-76926284D01*
X212623913Y-76985543D01*
X212852000Y-77005498D01*
X213080087Y-76985543D01*
X213301243Y-76926284D01*
X213508749Y-76829523D01*
X213696300Y-76698198D01*
X213858198Y-76536300D01*
X213989523Y-76348749D01*
X214086284Y-76141243D01*
X214145543Y-75920087D01*
X214165498Y-75692000D01*
X214145543Y-75463913D01*
X214086284Y-75242757D01*
X213989523Y-75035251D01*
X213858198Y-74847700D01*
X213696300Y-74685802D01*
X213696293Y-74685797D01*
X213664228Y-74663344D01*
X213619900Y-74607887D01*
X213610500Y-74560132D01*
X213610500Y-73839295D01*
X213610499Y-73839288D01*
X213593604Y-73754352D01*
X213593604Y-73754350D01*
X213581351Y-73692753D01*
X213548798Y-73614165D01*
X213524174Y-73554716D01*
X213455431Y-73451835D01*
X213441166Y-73430485D01*
X213441164Y-73430483D01*
X213441162Y-73430480D01*
X213441160Y-73430478D01*
X209629806Y-69619125D01*
X209595780Y-69556813D01*
X209600845Y-69485998D01*
X209643392Y-69429162D01*
X209646447Y-69427198D01*
X209652202Y-69422889D01*
X209652204Y-69422889D01*
X209769261Y-69335261D01*
X209856889Y-69218204D01*
X209907989Y-69081201D01*
X209908367Y-69077690D01*
X209914499Y-69020649D01*
X209914500Y-69020632D01*
X209914500Y-67123367D01*
X209914498Y-67123339D01*
X209907990Y-67062803D01*
X209907988Y-67062795D01*
X209878924Y-66984875D01*
X209856889Y-66925796D01*
X209856887Y-66925793D01*
X209856887Y-66925792D01*
X209769261Y-66808738D01*
X209652207Y-66721112D01*
X209652202Y-66721110D01*
X209515204Y-66670011D01*
X209515196Y-66670009D01*
X209454649Y-66663500D01*
X209454638Y-66663500D01*
X207557362Y-66663500D01*
X207557350Y-66663500D01*
X207496803Y-66670009D01*
X207496795Y-66670011D01*
X207359797Y-66721110D01*
X207359792Y-66721112D01*
X207242738Y-66808738D01*
X207155112Y-66925792D01*
X207155112Y-66925793D01*
X207131741Y-66988451D01*
X207089193Y-67045286D01*
X207022672Y-67070095D01*
X206953298Y-67055002D01*
X206927705Y-67035002D01*
X206927054Y-67035711D01*
X206923214Y-67032176D01*
X206773109Y-66915343D01*
X206731638Y-66857718D01*
X206724500Y-66815912D01*
X206724500Y-66434371D01*
X206744502Y-66366250D01*
X206761405Y-66345276D01*
X207287276Y-65819405D01*
X207349588Y-65785379D01*
X207376371Y-65782500D01*
X209056629Y-65782500D01*
X209124750Y-65802502D01*
X209145724Y-65819405D01*
X210278595Y-66952276D01*
X210312621Y-67014588D01*
X210315500Y-67041371D01*
X210315500Y-68781706D01*
X210321029Y-68809500D01*
X210344649Y-68928247D01*
X210401826Y-69066284D01*
X210484834Y-69190515D01*
X210484838Y-69190519D01*
X215612595Y-74318276D01*
X215646621Y-74380588D01*
X215649500Y-74407371D01*
X215649500Y-74560132D01*
X215629498Y-74628253D01*
X215595772Y-74663344D01*
X215563706Y-74685797D01*
X215563697Y-74685804D01*
X215401804Y-74847697D01*
X215401799Y-74847703D01*
X215270477Y-75035250D01*
X215173717Y-75242753D01*
X215173715Y-75242759D01*
X215121400Y-75438000D01*
X215114457Y-75463913D01*
X215094502Y-75692000D01*
X215114457Y-75920087D01*
X215139107Y-76012080D01*
X215173715Y-76141240D01*
X215173717Y-76141246D01*
X215270477Y-76348749D01*
X215397180Y-76529700D01*
X215401802Y-76536300D01*
X215563700Y-76698198D01*
X215751251Y-76829523D01*
X215958757Y-76926284D01*
X216179913Y-76985543D01*
X216408000Y-77005498D01*
X216636087Y-76985543D01*
X216857243Y-76926284D01*
X217064749Y-76829523D01*
X217252300Y-76698198D01*
X217414198Y-76536300D01*
X217545523Y-76348749D01*
X217642284Y-76141243D01*
X217701543Y-75920087D01*
X217721498Y-75692000D01*
X217701543Y-75463913D01*
X217642284Y-75242757D01*
X217545523Y-75035251D01*
X217414198Y-74847700D01*
X217252300Y-74685802D01*
X217252293Y-74685797D01*
X217220228Y-74663344D01*
X217175900Y-74607887D01*
X217166500Y-74560132D01*
X217166500Y-73966294D01*
X217151925Y-73893024D01*
X217137351Y-73819753D01*
X217097642Y-73723888D01*
X217080174Y-73681716D01*
X216997165Y-73557484D01*
X216891516Y-73451835D01*
X211869405Y-68429724D01*
X211835379Y-68367412D01*
X211832500Y-68340629D01*
X211832500Y-67135693D01*
X213208560Y-67135693D01*
X213208560Y-67397946D01*
X213242788Y-67657940D01*
X213242790Y-67657947D01*
X213310664Y-67911259D01*
X213411022Y-68153544D01*
X213411023Y-68153545D01*
X213411028Y-68153555D01*
X213542143Y-68380653D01*
X213542147Y-68380659D01*
X213701787Y-68588705D01*
X213701806Y-68588726D01*
X213887213Y-68774133D01*
X213887223Y-68774142D01*
X213887229Y-68774148D01*
X213887232Y-68774150D01*
X213887234Y-68774152D01*
X214095280Y-68933792D01*
X214095286Y-68933796D01*
X214245701Y-69020638D01*
X214322396Y-69064918D01*
X214564681Y-69165276D01*
X214817993Y-69233150D01*
X214817997Y-69233150D01*
X214817999Y-69233151D01*
X214885008Y-69241972D01*
X215077996Y-69267380D01*
X215078003Y-69267380D01*
X215340237Y-69267380D01*
X215340244Y-69267380D01*
X215575222Y-69236444D01*
X215600240Y-69233151D01*
X215600240Y-69233150D01*
X215600247Y-69233150D01*
X215853559Y-69165276D01*
X216095844Y-69064918D01*
X216322957Y-68933794D01*
X216531011Y-68774148D01*
X216716448Y-68588711D01*
X216876094Y-68380657D01*
X217007218Y-68153544D01*
X217107576Y-67911259D01*
X217175450Y-67657947D01*
X217209680Y-67397944D01*
X217209680Y-67135696D01*
X217176548Y-66884033D01*
X217175451Y-66875699D01*
X217175450Y-66875697D01*
X217175450Y-66875693D01*
X217107576Y-66622381D01*
X217007218Y-66380096D01*
X216896993Y-66189181D01*
X216876096Y-66152986D01*
X216876092Y-66152980D01*
X216716452Y-65944934D01*
X216716450Y-65944932D01*
X216716448Y-65944929D01*
X216716442Y-65944923D01*
X216716433Y-65944913D01*
X216531026Y-65759506D01*
X216531005Y-65759487D01*
X216322959Y-65599847D01*
X216322953Y-65599843D01*
X216095855Y-65468728D01*
X216095850Y-65468725D01*
X216095844Y-65468722D01*
X215853559Y-65368364D01*
X215600247Y-65300490D01*
X215600240Y-65300488D01*
X215340246Y-65266260D01*
X215340244Y-65266260D01*
X215077996Y-65266260D01*
X215077993Y-65266260D01*
X214817999Y-65300488D01*
X214564681Y-65368364D01*
X214322394Y-65468723D01*
X214322384Y-65468728D01*
X214095286Y-65599843D01*
X214095280Y-65599847D01*
X213887234Y-65759487D01*
X213887213Y-65759506D01*
X213701806Y-65944913D01*
X213701787Y-65944934D01*
X213542147Y-66152980D01*
X213542143Y-66152986D01*
X213411028Y-66380084D01*
X213411023Y-66380094D01*
X213411022Y-66380096D01*
X213380512Y-66453753D01*
X213310664Y-66622381D01*
X213242788Y-66875699D01*
X213208560Y-67135693D01*
X211832500Y-67135693D01*
X211832500Y-66600293D01*
X211832499Y-66600290D01*
X211803351Y-66453754D01*
X211746174Y-66315716D01*
X211663165Y-66191484D01*
X211557516Y-66085835D01*
X209906515Y-64434834D01*
X209782284Y-64351826D01*
X209644247Y-64294649D01*
X209570976Y-64280074D01*
X209570975Y-64280073D01*
X209497711Y-64265500D01*
X209497706Y-64265500D01*
X207084706Y-64265500D01*
X206957706Y-64265500D01*
X187272706Y-64265500D01*
X173302706Y-64265500D01*
X152706294Y-64265500D01*
X152706290Y-64265500D01*
X152559753Y-64294649D01*
X152559750Y-64294650D01*
X152421716Y-64351826D01*
X152297486Y-64434833D01*
X152297485Y-64434834D01*
X151340836Y-65391482D01*
X151340835Y-65391484D01*
X151263307Y-65507513D01*
X151263307Y-65507514D01*
X151257825Y-65515717D01*
X151200650Y-65653750D01*
X151200649Y-65653753D01*
X151171500Y-65800290D01*
X151171500Y-66815912D01*
X151151498Y-66884033D01*
X151122891Y-66915343D01*
X150972785Y-67032176D01*
X150972774Y-67032186D01*
X150814685Y-67203916D01*
X150687015Y-67399331D01*
X150593252Y-67613089D01*
X150593249Y-67613096D01*
X150535950Y-67839366D01*
X150535949Y-67839372D01*
X150535949Y-67839374D01*
X150521582Y-68012756D01*
X150516673Y-68072000D01*
X147041135Y-68072000D01*
X147107716Y-67911259D01*
X147175590Y-67657947D01*
X147209820Y-67397944D01*
X147209820Y-67135696D01*
X147176688Y-66884033D01*
X147175591Y-66875699D01*
X147175590Y-66875697D01*
X147175590Y-66875693D01*
X147107716Y-66622381D01*
X147007358Y-66380096D01*
X146897133Y-66189181D01*
X146876236Y-66152986D01*
X146876232Y-66152980D01*
X146716592Y-65944934D01*
X146716590Y-65944932D01*
X146716588Y-65944929D01*
X146716582Y-65944923D01*
X146716573Y-65944913D01*
X146531166Y-65759506D01*
X146531145Y-65759487D01*
X146323099Y-65599847D01*
X146323093Y-65599843D01*
X146095995Y-65468728D01*
X146095990Y-65468725D01*
X146095984Y-65468722D01*
X145853699Y-65368364D01*
X145600387Y-65300490D01*
X145600380Y-65300488D01*
X145340386Y-65266260D01*
X145340384Y-65266260D01*
X145078136Y-65266260D01*
X145078133Y-65266260D01*
X144818139Y-65300488D01*
X144564821Y-65368364D01*
X144322534Y-65468723D01*
X144322524Y-65468728D01*
X144095426Y-65599843D01*
X144095420Y-65599847D01*
X143887374Y-65759487D01*
X143887353Y-65759506D01*
X143701946Y-65944913D01*
X143701927Y-65944934D01*
X143542287Y-66152980D01*
X143542283Y-66152986D01*
X143411168Y-66380084D01*
X143411163Y-66380094D01*
X143411162Y-66380096D01*
X143380652Y-66453753D01*
X143310804Y-66622381D01*
X143242928Y-66875699D01*
X143208700Y-67135693D01*
X140208000Y-67135693D01*
X140208000Y-63036190D01*
X140228002Y-62968069D01*
X140244905Y-62947095D01*
X140671095Y-62520905D01*
X140733407Y-62486879D01*
X140760190Y-62484000D01*
X219411810Y-62484000D01*
X219479931Y-62504002D01*
G37*
%TD.AperFunction*%
M02*
