%TF.GenerationSoftware,KiCad,Pcbnew,8.0.8*%
%TF.CreationDate,2025-01-24T23:50:34+01:00*%
%TF.ProjectId,Bias,42696173-2e6b-4696-9361-645f70636258,rev?*%
%TF.SameCoordinates,Original*%
%TF.FileFunction,Legend,Bot*%
%TF.FilePolarity,Positive*%
%FSLAX46Y46*%
G04 Gerber Fmt 4.6, Leading zero omitted, Abs format (unit mm)*
G04 Created by KiCad (PCBNEW 8.0.8) date 2025-01-24 23:50:34*
%MOMM*%
%LPD*%
G01*
G04 APERTURE LIST*
G04 Aperture macros list*
%AMRoundRect*
0 Rectangle with rounded corners*
0 $1 Rounding radius*
0 $2 $3 $4 $5 $6 $7 $8 $9 X,Y pos of 4 corners*
0 Add a 4 corners polygon primitive as box body*
4,1,4,$2,$3,$4,$5,$6,$7,$8,$9,$2,$3,0*
0 Add four circle primitives for the rounded corners*
1,1,$1+$1,$2,$3*
1,1,$1+$1,$4,$5*
1,1,$1+$1,$6,$7*
1,1,$1+$1,$8,$9*
0 Add four rect primitives between the rounded corners*
20,1,$1+$1,$2,$3,$4,$5,0*
20,1,$1+$1,$4,$5,$6,$7,0*
20,1,$1+$1,$6,$7,$8,$9,0*
20,1,$1+$1,$8,$9,$2,$3,0*%
G04 Aperture macros list end*
%ADD10C,0.300000*%
%ADD11C,0.150000*%
%ADD12C,0.120000*%
%ADD13R,1.600000X1.600000*%
%ADD14O,1.600000X1.600000*%
%ADD15C,3.500120*%
%ADD16C,1.600000*%
%ADD17R,1.800000X1.800000*%
%ADD18C,1.800000*%
%ADD19R,2.200000X2.200000*%
%ADD20O,2.200000X2.200000*%
%ADD21C,4.000000*%
%ADD22C,2.340000*%
%ADD23RoundRect,0.250000X-0.600000X0.600000X-0.600000X-0.600000X0.600000X-0.600000X0.600000X0.600000X0*%
%ADD24C,1.700000*%
G04 APERTURE END LIST*
D10*
X166500713Y-90927757D02*
X165786428Y-90927757D01*
X166643570Y-91356328D02*
X166143570Y-89856328D01*
X166143570Y-89856328D02*
X165643570Y-91356328D01*
X165143571Y-91356328D02*
X165143571Y-90356328D01*
X165143571Y-90499185D02*
X165072142Y-90427757D01*
X165072142Y-90427757D02*
X164929285Y-90356328D01*
X164929285Y-90356328D02*
X164714999Y-90356328D01*
X164714999Y-90356328D02*
X164572142Y-90427757D01*
X164572142Y-90427757D02*
X164500714Y-90570614D01*
X164500714Y-90570614D02*
X164500714Y-91356328D01*
X164500714Y-90570614D02*
X164429285Y-90427757D01*
X164429285Y-90427757D02*
X164286428Y-90356328D01*
X164286428Y-90356328D02*
X164072142Y-90356328D01*
X164072142Y-90356328D02*
X163929285Y-90427757D01*
X163929285Y-90427757D02*
X163857856Y-90570614D01*
X163857856Y-90570614D02*
X163857856Y-91356328D01*
X163143571Y-90356328D02*
X163143571Y-91856328D01*
X163143571Y-90427757D02*
X163000714Y-90356328D01*
X163000714Y-90356328D02*
X162714999Y-90356328D01*
X162714999Y-90356328D02*
X162572142Y-90427757D01*
X162572142Y-90427757D02*
X162500714Y-90499185D01*
X162500714Y-90499185D02*
X162429285Y-90642042D01*
X162429285Y-90642042D02*
X162429285Y-91070614D01*
X162429285Y-91070614D02*
X162500714Y-91213471D01*
X162500714Y-91213471D02*
X162572142Y-91284900D01*
X162572142Y-91284900D02*
X162714999Y-91356328D01*
X162714999Y-91356328D02*
X163000714Y-91356328D01*
X163000714Y-91356328D02*
X163143571Y-91284900D01*
X173421143Y-106150870D02*
X173421143Y-104650870D01*
X173421143Y-104650870D02*
X173064000Y-104650870D01*
X173064000Y-104650870D02*
X172849714Y-104722299D01*
X172849714Y-104722299D02*
X172706857Y-104865156D01*
X172706857Y-104865156D02*
X172635428Y-105008013D01*
X172635428Y-105008013D02*
X172564000Y-105293727D01*
X172564000Y-105293727D02*
X172564000Y-105508013D01*
X172564000Y-105508013D02*
X172635428Y-105793727D01*
X172635428Y-105793727D02*
X172706857Y-105936584D01*
X172706857Y-105936584D02*
X172849714Y-106079442D01*
X172849714Y-106079442D02*
X173064000Y-106150870D01*
X173064000Y-106150870D02*
X173421143Y-106150870D01*
X171706857Y-106150870D02*
X171849714Y-106079442D01*
X171849714Y-106079442D02*
X171921143Y-106008013D01*
X171921143Y-106008013D02*
X171992571Y-105865156D01*
X171992571Y-105865156D02*
X171992571Y-105436584D01*
X171992571Y-105436584D02*
X171921143Y-105293727D01*
X171921143Y-105293727D02*
X171849714Y-105222299D01*
X171849714Y-105222299D02*
X171706857Y-105150870D01*
X171706857Y-105150870D02*
X171492571Y-105150870D01*
X171492571Y-105150870D02*
X171349714Y-105222299D01*
X171349714Y-105222299D02*
X171278286Y-105293727D01*
X171278286Y-105293727D02*
X171206857Y-105436584D01*
X171206857Y-105436584D02*
X171206857Y-105865156D01*
X171206857Y-105865156D02*
X171278286Y-106008013D01*
X171278286Y-106008013D02*
X171349714Y-106079442D01*
X171349714Y-106079442D02*
X171492571Y-106150870D01*
X171492571Y-106150870D02*
X171706857Y-106150870D01*
X169421143Y-105150870D02*
X169421143Y-106150870D01*
X169421143Y-105293727D02*
X169349714Y-105222299D01*
X169349714Y-105222299D02*
X169206857Y-105150870D01*
X169206857Y-105150870D02*
X168992571Y-105150870D01*
X168992571Y-105150870D02*
X168849714Y-105222299D01*
X168849714Y-105222299D02*
X168778286Y-105365156D01*
X168778286Y-105365156D02*
X168778286Y-106150870D01*
X167849714Y-106150870D02*
X167992571Y-106079442D01*
X167992571Y-106079442D02*
X168064000Y-106008013D01*
X168064000Y-106008013D02*
X168135428Y-105865156D01*
X168135428Y-105865156D02*
X168135428Y-105436584D01*
X168135428Y-105436584D02*
X168064000Y-105293727D01*
X168064000Y-105293727D02*
X167992571Y-105222299D01*
X167992571Y-105222299D02*
X167849714Y-105150870D01*
X167849714Y-105150870D02*
X167635428Y-105150870D01*
X167635428Y-105150870D02*
X167492571Y-105222299D01*
X167492571Y-105222299D02*
X167421143Y-105293727D01*
X167421143Y-105293727D02*
X167349714Y-105436584D01*
X167349714Y-105436584D02*
X167349714Y-105865156D01*
X167349714Y-105865156D02*
X167421143Y-106008013D01*
X167421143Y-106008013D02*
X167492571Y-106079442D01*
X167492571Y-106079442D02*
X167635428Y-106150870D01*
X167635428Y-106150870D02*
X167849714Y-106150870D01*
X166921142Y-105150870D02*
X166349714Y-105150870D01*
X166706857Y-104650870D02*
X166706857Y-105936584D01*
X166706857Y-105936584D02*
X166635428Y-106079442D01*
X166635428Y-106079442D02*
X166492571Y-106150870D01*
X166492571Y-106150870D02*
X166349714Y-106150870D01*
X164064000Y-106150870D02*
X164064000Y-104650870D01*
X164064000Y-106079442D02*
X164206857Y-106150870D01*
X164206857Y-106150870D02*
X164492571Y-106150870D01*
X164492571Y-106150870D02*
X164635428Y-106079442D01*
X164635428Y-106079442D02*
X164706857Y-106008013D01*
X164706857Y-106008013D02*
X164778285Y-105865156D01*
X164778285Y-105865156D02*
X164778285Y-105436584D01*
X164778285Y-105436584D02*
X164706857Y-105293727D01*
X164706857Y-105293727D02*
X164635428Y-105222299D01*
X164635428Y-105222299D02*
X164492571Y-105150870D01*
X164492571Y-105150870D02*
X164206857Y-105150870D01*
X164206857Y-105150870D02*
X164064000Y-105222299D01*
X163349714Y-106150870D02*
X163349714Y-105150870D01*
X163349714Y-104650870D02*
X163421142Y-104722299D01*
X163421142Y-104722299D02*
X163349714Y-104793727D01*
X163349714Y-104793727D02*
X163278285Y-104722299D01*
X163278285Y-104722299D02*
X163349714Y-104650870D01*
X163349714Y-104650870D02*
X163349714Y-104793727D01*
X162706856Y-106079442D02*
X162563999Y-106150870D01*
X162563999Y-106150870D02*
X162278285Y-106150870D01*
X162278285Y-106150870D02*
X162135428Y-106079442D01*
X162135428Y-106079442D02*
X162063999Y-105936584D01*
X162063999Y-105936584D02*
X162063999Y-105865156D01*
X162063999Y-105865156D02*
X162135428Y-105722299D01*
X162135428Y-105722299D02*
X162278285Y-105650870D01*
X162278285Y-105650870D02*
X162492571Y-105650870D01*
X162492571Y-105650870D02*
X162635428Y-105579442D01*
X162635428Y-105579442D02*
X162706856Y-105436584D01*
X162706856Y-105436584D02*
X162706856Y-105365156D01*
X162706856Y-105365156D02*
X162635428Y-105222299D01*
X162635428Y-105222299D02*
X162492571Y-105150870D01*
X162492571Y-105150870D02*
X162278285Y-105150870D01*
X162278285Y-105150870D02*
X162135428Y-105222299D01*
X160778285Y-106079442D02*
X160921142Y-106150870D01*
X160921142Y-106150870D02*
X161206856Y-106150870D01*
X161206856Y-106150870D02*
X161349713Y-106079442D01*
X161349713Y-106079442D02*
X161421142Y-106008013D01*
X161421142Y-106008013D02*
X161492570Y-105865156D01*
X161492570Y-105865156D02*
X161492570Y-105436584D01*
X161492570Y-105436584D02*
X161421142Y-105293727D01*
X161421142Y-105293727D02*
X161349713Y-105222299D01*
X161349713Y-105222299D02*
X161206856Y-105150870D01*
X161206856Y-105150870D02*
X160921142Y-105150870D01*
X160921142Y-105150870D02*
X160778285Y-105222299D01*
X159921142Y-106150870D02*
X160063999Y-106079442D01*
X160063999Y-106079442D02*
X160135428Y-106008013D01*
X160135428Y-106008013D02*
X160206856Y-105865156D01*
X160206856Y-105865156D02*
X160206856Y-105436584D01*
X160206856Y-105436584D02*
X160135428Y-105293727D01*
X160135428Y-105293727D02*
X160063999Y-105222299D01*
X160063999Y-105222299D02*
X159921142Y-105150870D01*
X159921142Y-105150870D02*
X159706856Y-105150870D01*
X159706856Y-105150870D02*
X159563999Y-105222299D01*
X159563999Y-105222299D02*
X159492571Y-105293727D01*
X159492571Y-105293727D02*
X159421142Y-105436584D01*
X159421142Y-105436584D02*
X159421142Y-105865156D01*
X159421142Y-105865156D02*
X159492571Y-106008013D01*
X159492571Y-106008013D02*
X159563999Y-106079442D01*
X159563999Y-106079442D02*
X159706856Y-106150870D01*
X159706856Y-106150870D02*
X159921142Y-106150870D01*
X158778285Y-105150870D02*
X158778285Y-106150870D01*
X158778285Y-105293727D02*
X158706856Y-105222299D01*
X158706856Y-105222299D02*
X158563999Y-105150870D01*
X158563999Y-105150870D02*
X158349713Y-105150870D01*
X158349713Y-105150870D02*
X158206856Y-105222299D01*
X158206856Y-105222299D02*
X158135428Y-105365156D01*
X158135428Y-105365156D02*
X158135428Y-106150870D01*
X157421142Y-105150870D02*
X157421142Y-106150870D01*
X157421142Y-105293727D02*
X157349713Y-105222299D01*
X157349713Y-105222299D02*
X157206856Y-105150870D01*
X157206856Y-105150870D02*
X156992570Y-105150870D01*
X156992570Y-105150870D02*
X156849713Y-105222299D01*
X156849713Y-105222299D02*
X156778285Y-105365156D01*
X156778285Y-105365156D02*
X156778285Y-106150870D01*
X155492570Y-106079442D02*
X155635427Y-106150870D01*
X155635427Y-106150870D02*
X155921142Y-106150870D01*
X155921142Y-106150870D02*
X156063999Y-106079442D01*
X156063999Y-106079442D02*
X156135427Y-105936584D01*
X156135427Y-105936584D02*
X156135427Y-105365156D01*
X156135427Y-105365156D02*
X156063999Y-105222299D01*
X156063999Y-105222299D02*
X155921142Y-105150870D01*
X155921142Y-105150870D02*
X155635427Y-105150870D01*
X155635427Y-105150870D02*
X155492570Y-105222299D01*
X155492570Y-105222299D02*
X155421142Y-105365156D01*
X155421142Y-105365156D02*
X155421142Y-105508013D01*
X155421142Y-105508013D02*
X156135427Y-105650870D01*
X154135428Y-106079442D02*
X154278285Y-106150870D01*
X154278285Y-106150870D02*
X154563999Y-106150870D01*
X154563999Y-106150870D02*
X154706856Y-106079442D01*
X154706856Y-106079442D02*
X154778285Y-106008013D01*
X154778285Y-106008013D02*
X154849713Y-105865156D01*
X154849713Y-105865156D02*
X154849713Y-105436584D01*
X154849713Y-105436584D02*
X154778285Y-105293727D01*
X154778285Y-105293727D02*
X154706856Y-105222299D01*
X154706856Y-105222299D02*
X154563999Y-105150870D01*
X154563999Y-105150870D02*
X154278285Y-105150870D01*
X154278285Y-105150870D02*
X154135428Y-105222299D01*
X153706856Y-105150870D02*
X153135428Y-105150870D01*
X153492571Y-104650870D02*
X153492571Y-105936584D01*
X153492571Y-105936584D02*
X153421142Y-106079442D01*
X153421142Y-106079442D02*
X153278285Y-106150870D01*
X153278285Y-106150870D02*
X153135428Y-106150870D01*
X170956857Y-107565786D02*
X170671143Y-108565786D01*
X170671143Y-108565786D02*
X170385428Y-107851500D01*
X170385428Y-107851500D02*
X170099714Y-108565786D01*
X170099714Y-108565786D02*
X169814000Y-107565786D01*
X169242571Y-108565786D02*
X169242571Y-107065786D01*
X168599714Y-108565786D02*
X168599714Y-107780072D01*
X168599714Y-107780072D02*
X168671142Y-107637215D01*
X168671142Y-107637215D02*
X168813999Y-107565786D01*
X168813999Y-107565786D02*
X169028285Y-107565786D01*
X169028285Y-107565786D02*
X169171142Y-107637215D01*
X169171142Y-107637215D02*
X169242571Y-107708643D01*
X167885428Y-108565786D02*
X167885428Y-107565786D01*
X167885428Y-107065786D02*
X167956856Y-107137215D01*
X167956856Y-107137215D02*
X167885428Y-107208643D01*
X167885428Y-107208643D02*
X167813999Y-107137215D01*
X167813999Y-107137215D02*
X167885428Y-107065786D01*
X167885428Y-107065786D02*
X167885428Y-107208643D01*
X166956856Y-108565786D02*
X167099713Y-108494358D01*
X167099713Y-108494358D02*
X167171142Y-108351500D01*
X167171142Y-108351500D02*
X167171142Y-107065786D01*
X165813999Y-108494358D02*
X165956856Y-108565786D01*
X165956856Y-108565786D02*
X166242571Y-108565786D01*
X166242571Y-108565786D02*
X166385428Y-108494358D01*
X166385428Y-108494358D02*
X166456856Y-108351500D01*
X166456856Y-108351500D02*
X166456856Y-107780072D01*
X166456856Y-107780072D02*
X166385428Y-107637215D01*
X166385428Y-107637215D02*
X166242571Y-107565786D01*
X166242571Y-107565786D02*
X165956856Y-107565786D01*
X165956856Y-107565786D02*
X165813999Y-107637215D01*
X165813999Y-107637215D02*
X165742571Y-107780072D01*
X165742571Y-107780072D02*
X165742571Y-107922929D01*
X165742571Y-107922929D02*
X166456856Y-108065786D01*
X163956857Y-107565786D02*
X163956857Y-109065786D01*
X163956857Y-107637215D02*
X163814000Y-107565786D01*
X163814000Y-107565786D02*
X163528285Y-107565786D01*
X163528285Y-107565786D02*
X163385428Y-107637215D01*
X163385428Y-107637215D02*
X163314000Y-107708643D01*
X163314000Y-107708643D02*
X163242571Y-107851500D01*
X163242571Y-107851500D02*
X163242571Y-108280072D01*
X163242571Y-108280072D02*
X163314000Y-108422929D01*
X163314000Y-108422929D02*
X163385428Y-108494358D01*
X163385428Y-108494358D02*
X163528285Y-108565786D01*
X163528285Y-108565786D02*
X163814000Y-108565786D01*
X163814000Y-108565786D02*
X163956857Y-108494358D01*
X162385428Y-108565786D02*
X162528285Y-108494358D01*
X162528285Y-108494358D02*
X162599714Y-108422929D01*
X162599714Y-108422929D02*
X162671142Y-108280072D01*
X162671142Y-108280072D02*
X162671142Y-107851500D01*
X162671142Y-107851500D02*
X162599714Y-107708643D01*
X162599714Y-107708643D02*
X162528285Y-107637215D01*
X162528285Y-107637215D02*
X162385428Y-107565786D01*
X162385428Y-107565786D02*
X162171142Y-107565786D01*
X162171142Y-107565786D02*
X162028285Y-107637215D01*
X162028285Y-107637215D02*
X161956857Y-107708643D01*
X161956857Y-107708643D02*
X161885428Y-107851500D01*
X161885428Y-107851500D02*
X161885428Y-108280072D01*
X161885428Y-108280072D02*
X161956857Y-108422929D01*
X161956857Y-108422929D02*
X162028285Y-108494358D01*
X162028285Y-108494358D02*
X162171142Y-108565786D01*
X162171142Y-108565786D02*
X162385428Y-108565786D01*
X161385428Y-107565786D02*
X161099714Y-108565786D01*
X161099714Y-108565786D02*
X160813999Y-107851500D01*
X160813999Y-107851500D02*
X160528285Y-108565786D01*
X160528285Y-108565786D02*
X160242571Y-107565786D01*
X159099713Y-108494358D02*
X159242570Y-108565786D01*
X159242570Y-108565786D02*
X159528285Y-108565786D01*
X159528285Y-108565786D02*
X159671142Y-108494358D01*
X159671142Y-108494358D02*
X159742570Y-108351500D01*
X159742570Y-108351500D02*
X159742570Y-107780072D01*
X159742570Y-107780072D02*
X159671142Y-107637215D01*
X159671142Y-107637215D02*
X159528285Y-107565786D01*
X159528285Y-107565786D02*
X159242570Y-107565786D01*
X159242570Y-107565786D02*
X159099713Y-107637215D01*
X159099713Y-107637215D02*
X159028285Y-107780072D01*
X159028285Y-107780072D02*
X159028285Y-107922929D01*
X159028285Y-107922929D02*
X159742570Y-108065786D01*
X158385428Y-108565786D02*
X158385428Y-107565786D01*
X158385428Y-107851500D02*
X158313999Y-107708643D01*
X158313999Y-107708643D02*
X158242571Y-107637215D01*
X158242571Y-107637215D02*
X158099713Y-107565786D01*
X158099713Y-107565786D02*
X157956856Y-107565786D01*
X156885428Y-108494358D02*
X157028285Y-108565786D01*
X157028285Y-108565786D02*
X157314000Y-108565786D01*
X157314000Y-108565786D02*
X157456857Y-108494358D01*
X157456857Y-108494358D02*
X157528285Y-108351500D01*
X157528285Y-108351500D02*
X157528285Y-107780072D01*
X157528285Y-107780072D02*
X157456857Y-107637215D01*
X157456857Y-107637215D02*
X157314000Y-107565786D01*
X157314000Y-107565786D02*
X157028285Y-107565786D01*
X157028285Y-107565786D02*
X156885428Y-107637215D01*
X156885428Y-107637215D02*
X156814000Y-107780072D01*
X156814000Y-107780072D02*
X156814000Y-107922929D01*
X156814000Y-107922929D02*
X157528285Y-108065786D01*
X155528286Y-108565786D02*
X155528286Y-107065786D01*
X155528286Y-108494358D02*
X155671143Y-108565786D01*
X155671143Y-108565786D02*
X155956857Y-108565786D01*
X155956857Y-108565786D02*
X156099714Y-108494358D01*
X156099714Y-108494358D02*
X156171143Y-108422929D01*
X156171143Y-108422929D02*
X156242571Y-108280072D01*
X156242571Y-108280072D02*
X156242571Y-107851500D01*
X156242571Y-107851500D02*
X156171143Y-107708643D01*
X156171143Y-107708643D02*
X156099714Y-107637215D01*
X156099714Y-107637215D02*
X155956857Y-107565786D01*
X155956857Y-107565786D02*
X155671143Y-107565786D01*
X155671143Y-107565786D02*
X155528286Y-107637215D01*
X154814000Y-108422929D02*
X154742571Y-108494358D01*
X154742571Y-108494358D02*
X154814000Y-108565786D01*
X154814000Y-108565786D02*
X154885428Y-108494358D01*
X154885428Y-108494358D02*
X154814000Y-108422929D01*
X154814000Y-108422929D02*
X154814000Y-108565786D01*
X154814000Y-107994358D02*
X154885428Y-107137215D01*
X154885428Y-107137215D02*
X154814000Y-107065786D01*
X154814000Y-107065786D02*
X154742571Y-107137215D01*
X154742571Y-107137215D02*
X154814000Y-107994358D01*
X154814000Y-107994358D02*
X154814000Y-107065786D01*
D11*
X204159819Y-79476761D02*
X203683628Y-79143428D01*
X204159819Y-78905333D02*
X203159819Y-78905333D01*
X203159819Y-78905333D02*
X203159819Y-79286285D01*
X203159819Y-79286285D02*
X203207438Y-79381523D01*
X203207438Y-79381523D02*
X203255057Y-79429142D01*
X203255057Y-79429142D02*
X203350295Y-79476761D01*
X203350295Y-79476761D02*
X203493152Y-79476761D01*
X203493152Y-79476761D02*
X203588390Y-79429142D01*
X203588390Y-79429142D02*
X203636009Y-79381523D01*
X203636009Y-79381523D02*
X203683628Y-79286285D01*
X203683628Y-79286285D02*
X203683628Y-78905333D01*
X203159819Y-79762476D02*
X204159819Y-80095809D01*
X204159819Y-80095809D02*
X203159819Y-80429142D01*
X203159819Y-80667238D02*
X203159819Y-81286285D01*
X203159819Y-81286285D02*
X203540771Y-80952952D01*
X203540771Y-80952952D02*
X203540771Y-81095809D01*
X203540771Y-81095809D02*
X203588390Y-81191047D01*
X203588390Y-81191047D02*
X203636009Y-81238666D01*
X203636009Y-81238666D02*
X203731247Y-81286285D01*
X203731247Y-81286285D02*
X203969342Y-81286285D01*
X203969342Y-81286285D02*
X204064580Y-81238666D01*
X204064580Y-81238666D02*
X204112200Y-81191047D01*
X204112200Y-81191047D02*
X204159819Y-81095809D01*
X204159819Y-81095809D02*
X204159819Y-80810095D01*
X204159819Y-80810095D02*
X204112200Y-80714857D01*
X204112200Y-80714857D02*
X204064580Y-80667238D01*
X170159819Y-79476761D02*
X169683628Y-79143428D01*
X170159819Y-78905333D02*
X169159819Y-78905333D01*
X169159819Y-78905333D02*
X169159819Y-79286285D01*
X169159819Y-79286285D02*
X169207438Y-79381523D01*
X169207438Y-79381523D02*
X169255057Y-79429142D01*
X169255057Y-79429142D02*
X169350295Y-79476761D01*
X169350295Y-79476761D02*
X169493152Y-79476761D01*
X169493152Y-79476761D02*
X169588390Y-79429142D01*
X169588390Y-79429142D02*
X169636009Y-79381523D01*
X169636009Y-79381523D02*
X169683628Y-79286285D01*
X169683628Y-79286285D02*
X169683628Y-78905333D01*
X169159819Y-79762476D02*
X170159819Y-80095809D01*
X170159819Y-80095809D02*
X169159819Y-80429142D01*
X170159819Y-81286285D02*
X170159819Y-80714857D01*
X170159819Y-81000571D02*
X169159819Y-81000571D01*
X169159819Y-81000571D02*
X169302676Y-80905333D01*
X169302676Y-80905333D02*
X169397914Y-80810095D01*
X169397914Y-80810095D02*
X169445533Y-80714857D01*
X154009819Y-96821666D02*
X154724104Y-96821666D01*
X154724104Y-96821666D02*
X154866961Y-96774047D01*
X154866961Y-96774047D02*
X154962200Y-96678809D01*
X154962200Y-96678809D02*
X155009819Y-96535952D01*
X155009819Y-96535952D02*
X155009819Y-96440714D01*
X155009819Y-97821666D02*
X155009819Y-97250238D01*
X155009819Y-97535952D02*
X154009819Y-97535952D01*
X154009819Y-97535952D02*
X154152676Y-97440714D01*
X154152676Y-97440714D02*
X154247914Y-97345476D01*
X154247914Y-97345476D02*
X154295533Y-97250238D01*
D12*
X192035000Y-80072000D02*
G75*
G02*
X195764201Y-75032274I5270000J0D01*
G01*
X193644000Y-83863000D02*
G75*
G02*
X192035642Y-79979970I3661000J3791000D01*
G01*
X198311000Y-85246000D02*
G75*
G02*
X196030119Y-85186390I-1006000J5174000D01*
G01*
X198579000Y-74958000D02*
G75*
G02*
X200693474Y-84108621I-1274000J-5114000D01*
G01*
X158035000Y-80072000D02*
G75*
G02*
X161764201Y-75032274I5270000J0D01*
G01*
X159644000Y-83863000D02*
G75*
G02*
X158035642Y-79979970I3661000J3791000D01*
G01*
X164311000Y-85246000D02*
G75*
G02*
X162030119Y-85186390I-1006000J5174000D01*
G01*
X164579000Y-74958000D02*
G75*
G02*
X166693474Y-84108621I-1274000J-5114000D01*
G01*
X155445000Y-92595000D02*
X173485000Y-92595000D01*
X155445000Y-101715000D02*
X155445000Y-92595000D01*
X156745000Y-93905000D02*
X162415000Y-93905000D01*
X156745000Y-100405000D02*
X156745000Y-93905000D01*
X160155000Y-91205000D02*
X160655000Y-92205000D01*
X160655000Y-92205000D02*
X161155000Y-91205000D01*
X161155000Y-91205000D02*
X160155000Y-91205000D01*
X162415000Y-93905000D02*
X162415000Y-92595000D01*
X166515000Y-92595000D02*
X166515000Y-93905000D01*
X166515000Y-93905000D02*
X166515000Y-93905000D01*
X166515000Y-93905000D02*
X172185000Y-93905000D01*
X172185000Y-93905000D02*
X172185000Y-100405000D01*
X172185000Y-100405000D02*
X156745000Y-100405000D01*
X173485000Y-92595000D02*
X173485000Y-101715000D01*
X173485000Y-101715000D02*
X155445000Y-101715000D01*
%LPC*%
D13*
X195072000Y-91440000D03*
D14*
X195072000Y-93980000D03*
X195072000Y-96520000D03*
X195072000Y-99060000D03*
X195072000Y-101600000D03*
X195072000Y-104140000D03*
X195072000Y-106680000D03*
X202692000Y-106680000D03*
X202692000Y-104140000D03*
X202692000Y-101600000D03*
X202692000Y-99060000D03*
X202692000Y-96520000D03*
X202692000Y-93980000D03*
X202692000Y-91440000D03*
D15*
X145209260Y-67266820D03*
X145209260Y-107266740D03*
X215209120Y-67266820D03*
X215209120Y-107266740D03*
D16*
X191516000Y-96520000D03*
X191516000Y-91520000D03*
X191516000Y-99060000D03*
X191516000Y-104060000D03*
X206248000Y-101600000D03*
X211248000Y-101600000D03*
D13*
X186944000Y-93980000D03*
D14*
X176784000Y-93980000D03*
D17*
X154470000Y-68072000D03*
D18*
X151930000Y-68072000D03*
D13*
X178054000Y-75692000D03*
D14*
X178054000Y-85852000D03*
D17*
X161920000Y-68072000D03*
D18*
X164460000Y-68072000D03*
D13*
X186944000Y-90932000D03*
D14*
X176784000Y-90932000D03*
D17*
X208506000Y-68072000D03*
D18*
X205966000Y-68072000D03*
D13*
X206248000Y-93980000D03*
D14*
X216408000Y-93980000D03*
D13*
X209550000Y-75692000D03*
D14*
X209550000Y-85852000D03*
D13*
X206248000Y-90932000D03*
D14*
X216408000Y-90932000D03*
D19*
X144145000Y-75692000D03*
D20*
X144145000Y-85852000D03*
D16*
X185674000Y-75692000D03*
D14*
X185674000Y-85852000D03*
D16*
X186944000Y-99060000D03*
D14*
X176784000Y-99060000D03*
D16*
X174498000Y-75692000D03*
D14*
X174498000Y-85852000D03*
D16*
X212852000Y-75692000D03*
D14*
X212852000Y-85852000D03*
D16*
X216408000Y-75692000D03*
D14*
X216408000Y-85852000D03*
D16*
X186944000Y-102870000D03*
D14*
X176784000Y-102870000D03*
D16*
X206248000Y-75692000D03*
D14*
X206248000Y-85852000D03*
D16*
X147955000Y-85852000D03*
D14*
X147955000Y-75692000D03*
D16*
X151765000Y-75692000D03*
D14*
X151765000Y-85852000D03*
D16*
X151765000Y-91948000D03*
D14*
X151765000Y-102108000D03*
D16*
X148209000Y-102108000D03*
D14*
X148209000Y-91948000D03*
D16*
X206248000Y-98806000D03*
X211248000Y-98806000D03*
X206248000Y-104394000D03*
X211248000Y-104394000D03*
D17*
X174470000Y-68072000D03*
D18*
X171930000Y-68072000D03*
D16*
X182118000Y-75704700D03*
D14*
X182118000Y-85864700D03*
D17*
X195956000Y-68072000D03*
D18*
X198496000Y-68072000D03*
D17*
X188506000Y-68072000D03*
D18*
X185966000Y-68072000D03*
D16*
X155321000Y-85852000D03*
D14*
X155321000Y-75692000D03*
D16*
X189230000Y-85852000D03*
D14*
X189230000Y-75692000D03*
D21*
X197305000Y-80072000D03*
D22*
X194655000Y-85072000D03*
X197155000Y-75072000D03*
X199655000Y-85072000D03*
D21*
X163305000Y-80072000D03*
D22*
X160655000Y-85072000D03*
X163155000Y-75072000D03*
X165655000Y-85072000D03*
D23*
X160655000Y-95885000D03*
D24*
X160655000Y-98425000D03*
X163195000Y-95885000D03*
X163195000Y-98425000D03*
X165735000Y-95885000D03*
X165735000Y-98425000D03*
X168275000Y-95885000D03*
X168275000Y-98425000D03*
%LPD*%
M02*
