%TF.GenerationSoftware,KiCad,Pcbnew,8.0.8*%
%TF.CreationDate,2025-01-24T23:50:33+01:00*%
%TF.ProjectId,Bias,42696173-2e6b-4696-9361-645f70636258,rev?*%
%TF.SameCoordinates,Original*%
%TF.FileFunction,Copper,L1,Top*%
%TF.FilePolarity,Positive*%
%FSLAX46Y46*%
G04 Gerber Fmt 4.6, Leading zero omitted, Abs format (unit mm)*
G04 Created by KiCad (PCBNEW 8.0.8) date 2025-01-24 23:50:33*
%MOMM*%
%LPD*%
G01*
G04 APERTURE LIST*
G04 Aperture macros list*
%AMRoundRect*
0 Rectangle with rounded corners*
0 $1 Rounding radius*
0 $2 $3 $4 $5 $6 $7 $8 $9 X,Y pos of 4 corners*
0 Add a 4 corners polygon primitive as box body*
4,1,4,$2,$3,$4,$5,$6,$7,$8,$9,$2,$3,0*
0 Add four circle primitives for the rounded corners*
1,1,$1+$1,$2,$3*
1,1,$1+$1,$4,$5*
1,1,$1+$1,$6,$7*
1,1,$1+$1,$8,$9*
0 Add four rect primitives between the rounded corners*
20,1,$1+$1,$2,$3,$4,$5,0*
20,1,$1+$1,$4,$5,$6,$7,0*
20,1,$1+$1,$6,$7,$8,$9,0*
20,1,$1+$1,$8,$9,$2,$3,0*%
G04 Aperture macros list end*
%TA.AperFunction,ComponentPad*%
%ADD10R,1.600000X1.600000*%
%TD*%
%TA.AperFunction,ComponentPad*%
%ADD11O,1.600000X1.600000*%
%TD*%
%TA.AperFunction,ComponentPad*%
%ADD12C,1.600000*%
%TD*%
%TA.AperFunction,ComponentPad*%
%ADD13R,1.800000X1.800000*%
%TD*%
%TA.AperFunction,ComponentPad*%
%ADD14C,1.800000*%
%TD*%
%TA.AperFunction,ComponentPad*%
%ADD15R,2.200000X2.200000*%
%TD*%
%TA.AperFunction,ComponentPad*%
%ADD16O,2.200000X2.200000*%
%TD*%
%TA.AperFunction,ComponentPad*%
%ADD17C,2.340000*%
%TD*%
%TA.AperFunction,ComponentPad*%
%ADD18RoundRect,0.250000X-0.600000X0.600000X-0.600000X-0.600000X0.600000X-0.600000X0.600000X0.600000X0*%
%TD*%
%TA.AperFunction,ComponentPad*%
%ADD19C,1.700000*%
%TD*%
%TA.AperFunction,ViaPad*%
%ADD20C,0.600000*%
%TD*%
%TA.AperFunction,Conductor*%
%ADD21C,0.500000*%
%TD*%
%TA.AperFunction,Conductor*%
%ADD22C,1.000000*%
%TD*%
G04 APERTURE END LIST*
D10*
X195072000Y-91440000D03*
D11*
X195072000Y-93980000D03*
X195072000Y-96520000D03*
X195072000Y-99060000D03*
X195072000Y-101600000D03*
X195072000Y-104140000D03*
X195072000Y-106680000D03*
X202692000Y-106680000D03*
X202692000Y-104140000D03*
X202692000Y-101600000D03*
X202692000Y-99060000D03*
X202692000Y-96520000D03*
X202692000Y-93980000D03*
X202692000Y-91440000D03*
D12*
X191516000Y-96520000D03*
X191516000Y-91520000D03*
X191516000Y-99060000D03*
X191516000Y-104060000D03*
X206248000Y-101600000D03*
X211248000Y-101600000D03*
D10*
X186944000Y-93980000D03*
D11*
X176784000Y-93980000D03*
D13*
X154470000Y-68072000D03*
D14*
X151930000Y-68072000D03*
D10*
X178054000Y-75692000D03*
D11*
X178054000Y-85852000D03*
D13*
X161920000Y-68072000D03*
D14*
X164460000Y-68072000D03*
D10*
X186944000Y-90932000D03*
D11*
X176784000Y-90932000D03*
D13*
X208506000Y-68072000D03*
D14*
X205966000Y-68072000D03*
D10*
X206248000Y-93980000D03*
D11*
X216408000Y-93980000D03*
D10*
X209550000Y-75692000D03*
D11*
X209550000Y-85852000D03*
D10*
X206248000Y-90932000D03*
D11*
X216408000Y-90932000D03*
D15*
X144145000Y-75692000D03*
D16*
X144145000Y-85852000D03*
D12*
X185674000Y-75692000D03*
D11*
X185674000Y-85852000D03*
D12*
X186944000Y-99060000D03*
D11*
X176784000Y-99060000D03*
D12*
X174498000Y-75692000D03*
D11*
X174498000Y-85852000D03*
D12*
X212852000Y-75692000D03*
D11*
X212852000Y-85852000D03*
D12*
X216408000Y-75692000D03*
D11*
X216408000Y-85852000D03*
D12*
X186944000Y-102870000D03*
D11*
X176784000Y-102870000D03*
D12*
X206248000Y-75692000D03*
D11*
X206248000Y-85852000D03*
D12*
X147955000Y-85852000D03*
D11*
X147955000Y-75692000D03*
D12*
X151765000Y-75692000D03*
D11*
X151765000Y-85852000D03*
D12*
X151765000Y-91948000D03*
D11*
X151765000Y-102108000D03*
D12*
X148209000Y-102108000D03*
D11*
X148209000Y-91948000D03*
D12*
X206248000Y-98806000D03*
X211248000Y-98806000D03*
X206248000Y-104394000D03*
X211248000Y-104394000D03*
D13*
X174470000Y-68072000D03*
D14*
X171930000Y-68072000D03*
D12*
X182118000Y-75704700D03*
D11*
X182118000Y-85864700D03*
D13*
X195956000Y-68072000D03*
D14*
X198496000Y-68072000D03*
D13*
X188506000Y-68072000D03*
D14*
X185966000Y-68072000D03*
D12*
X155321000Y-85852000D03*
D11*
X155321000Y-75692000D03*
D12*
X189230000Y-85852000D03*
D11*
X189230000Y-75692000D03*
D17*
X194655000Y-85072000D03*
X197155000Y-75072000D03*
X199655000Y-85072000D03*
X160655000Y-85072000D03*
X163155000Y-75072000D03*
X165655000Y-85072000D03*
D18*
X160655000Y-95885000D03*
D19*
X160655000Y-98425000D03*
X163195000Y-95885000D03*
X163195000Y-98425000D03*
X165735000Y-95885000D03*
X165735000Y-98425000D03*
X168275000Y-95885000D03*
X168275000Y-98425000D03*
D20*
X181610000Y-98552000D03*
X205994000Y-63754000D03*
X199898000Y-102870000D03*
X198628000Y-92456000D03*
X169926000Y-91440000D03*
X156464000Y-104394000D03*
X163195000Y-87122000D03*
X151638000Y-82042000D03*
X164973000Y-108966000D03*
X201168000Y-74422000D03*
X181610000Y-108966000D03*
X217932000Y-96774000D03*
X167640000Y-87122000D03*
X161290000Y-90424000D03*
X197104000Y-85852000D03*
X201168000Y-79756000D03*
X142494000Y-100330000D03*
X141986000Y-64008000D03*
X165100000Y-104394000D03*
X179832000Y-72644000D03*
X182118000Y-78232000D03*
X149860000Y-110744000D03*
X141986000Y-110490000D03*
X201676000Y-71120000D03*
X216916000Y-80772000D03*
X181610000Y-106426000D03*
X191770000Y-86868000D03*
X149987000Y-104394000D03*
X155448000Y-87630000D03*
X198628000Y-106680000D03*
X174498000Y-105156000D03*
X159004000Y-74422000D03*
X174498000Y-100584000D03*
X183896000Y-86868000D03*
X161798000Y-63754000D03*
X209042000Y-110490000D03*
X151765000Y-97282000D03*
X215138000Y-88138000D03*
X155956000Y-90932000D03*
X198628000Y-97282000D03*
X185928000Y-63754000D03*
X193802000Y-80518000D03*
X172212000Y-88392000D03*
X217932000Y-64008000D03*
X166878000Y-79756000D03*
X180848000Y-68072000D03*
X181610000Y-102743000D03*
X209804000Y-81026000D03*
X157988000Y-97282000D03*
X195834000Y-63754000D03*
X174498000Y-95250000D03*
X171958000Y-63754000D03*
X146304000Y-71882000D03*
X217932000Y-110490000D03*
X187452000Y-72136000D03*
X151892000Y-63754000D03*
X208280000Y-88138000D03*
X142494000Y-91186000D03*
X166878000Y-90170000D03*
X170180000Y-99822000D03*
X181610000Y-92456000D03*
X190754000Y-107188000D03*
D21*
X172212000Y-97028000D02*
X170815000Y-98425000D01*
X147955000Y-80264000D02*
X149860000Y-78359000D01*
X172212000Y-91440000D02*
X172212000Y-97028000D01*
X147955000Y-85852000D02*
X151003000Y-88900000D01*
X170815000Y-98425000D02*
X168275000Y-98425000D01*
X182118000Y-71920000D02*
X185966000Y-68072000D01*
X169672000Y-88900000D02*
X172212000Y-91440000D01*
X149860000Y-78359000D02*
X149860000Y-70142000D01*
X149860000Y-70142000D02*
X151930000Y-68072000D01*
X147955000Y-85852000D02*
X147955000Y-80264000D01*
X151003000Y-88900000D02*
X169672000Y-88900000D01*
X182118000Y-75704700D02*
X182118000Y-71920000D01*
X197231000Y-105791000D02*
X197231000Y-99822000D01*
X196469000Y-99060000D02*
X195072000Y-99060000D01*
X196342000Y-106680000D02*
X197231000Y-105791000D01*
X197231000Y-99822000D02*
X196469000Y-99060000D01*
X195072000Y-106680000D02*
X196342000Y-106680000D01*
X186944000Y-102870000D02*
X186944000Y-106426000D01*
X199009000Y-109220000D02*
X200533000Y-107696000D01*
X200533000Y-107696000D02*
X200533000Y-105156000D01*
X201549000Y-104140000D02*
X202692000Y-104140000D01*
X200533000Y-105156000D02*
X201549000Y-104140000D01*
X189738000Y-109220000D02*
X199009000Y-109220000D01*
X186944000Y-106426000D02*
X189738000Y-109220000D01*
X185166000Y-93980000D02*
X186944000Y-93980000D01*
X184404000Y-93218000D02*
X185166000Y-93980000D01*
X185674000Y-87630000D02*
X184404000Y-88900000D01*
X184404000Y-88900000D02*
X184404000Y-93218000D01*
X185674000Y-85852000D02*
X185674000Y-87630000D01*
X178054000Y-87630000D02*
X176784000Y-88900000D01*
X176784000Y-88900000D02*
X176784000Y-90932000D01*
X178054000Y-85852000D02*
X178054000Y-87630000D01*
X176784000Y-90932000D02*
X176784000Y-93980000D01*
D22*
X165655000Y-85072000D02*
X167923000Y-82804000D01*
X167923000Y-82804000D02*
X196147913Y-82804000D01*
X198415913Y-85072000D02*
X199655000Y-85072000D01*
X196147913Y-82804000D02*
X198415913Y-85072000D01*
D21*
X165735000Y-98425000D02*
X165735000Y-101536500D01*
X165735000Y-101536500D02*
X167068500Y-102870000D01*
X167068500Y-102870000D02*
X176784000Y-102870000D01*
D22*
X156101000Y-85072000D02*
X155321000Y-85852000D01*
X160655000Y-85072000D02*
X156101000Y-85072000D01*
%TA.AperFunction,Conductor*%
G36*
X162122021Y-96737442D02*
G01*
X162158483Y-96764857D01*
X162271759Y-96887905D01*
X162271760Y-96887906D01*
X162449424Y-97026189D01*
X162483205Y-97044470D01*
X162533596Y-97094482D01*
X162548949Y-97163799D01*
X162524389Y-97230412D01*
X162483208Y-97266097D01*
X162449700Y-97284230D01*
X162429310Y-97300099D01*
X162429310Y-97300101D01*
X163070051Y-97940842D01*
X163002007Y-97959075D01*
X162887993Y-98024901D01*
X162794901Y-98117993D01*
X162729075Y-98232007D01*
X162710841Y-98300052D01*
X162071921Y-97661132D01*
X162071920Y-97661132D01*
X162030780Y-97724102D01*
X161976776Y-97770190D01*
X161906428Y-97779765D01*
X161842071Y-97749787D01*
X161819822Y-97724111D01*
X161730722Y-97587732D01*
X161578240Y-97422094D01*
X161578238Y-97422093D01*
X161578236Y-97422090D01*
X161543436Y-97395004D01*
X161501966Y-97337379D01*
X161498233Y-97266480D01*
X161533423Y-97204819D01*
X161571763Y-97181669D01*
X161571086Y-97180217D01*
X161577728Y-97177118D01*
X161577738Y-97177115D01*
X161728652Y-97084030D01*
X161854030Y-96958652D01*
X161947115Y-96807738D01*
X161947118Y-96807728D01*
X161950217Y-96801086D01*
X161952126Y-96801976D01*
X161986581Y-96752200D01*
X162052135Y-96724936D01*
X162122021Y-96737442D01*
G37*
%TD.AperFunction*%
%TA.AperFunction,Conductor*%
G36*
X164548225Y-96560669D02*
G01*
X164570480Y-96586353D01*
X164603607Y-96637058D01*
X164659275Y-96722265D01*
X164659279Y-96722270D01*
X164811762Y-96887908D01*
X164852994Y-96920000D01*
X164989424Y-97026189D01*
X165022153Y-97043901D01*
X165022680Y-97044186D01*
X165073071Y-97094200D01*
X165088423Y-97163516D01*
X165063862Y-97230129D01*
X165022680Y-97265813D01*
X164989426Y-97283810D01*
X164989424Y-97283811D01*
X164811762Y-97422091D01*
X164659279Y-97587729D01*
X164570183Y-97724102D01*
X164516179Y-97770190D01*
X164445831Y-97779765D01*
X164381474Y-97749788D01*
X164359218Y-97724102D01*
X164318076Y-97661132D01*
X163679157Y-98300051D01*
X163660925Y-98232007D01*
X163595099Y-98117993D01*
X163502007Y-98024901D01*
X163387993Y-97959075D01*
X163319947Y-97940841D01*
X163960689Y-97300100D01*
X163960688Y-97300099D01*
X163940306Y-97284235D01*
X163940294Y-97284227D01*
X163906792Y-97266097D01*
X163856402Y-97216084D01*
X163841050Y-97146767D01*
X163865611Y-97080154D01*
X163906790Y-97044472D01*
X163940576Y-97026189D01*
X164118240Y-96887906D01*
X164270722Y-96722268D01*
X164359518Y-96586354D01*
X164413520Y-96540268D01*
X164483868Y-96530692D01*
X164548225Y-96560669D01*
G37*
%TD.AperFunction*%
%TA.AperFunction,Conductor*%
G36*
X167809075Y-96077993D02*
G01*
X167874901Y-96192007D01*
X167967993Y-96285099D01*
X168082007Y-96350925D01*
X168150051Y-96369157D01*
X167509310Y-97009898D01*
X167529694Y-97025763D01*
X167529700Y-97025768D01*
X167563206Y-97043900D01*
X167613597Y-97093913D01*
X167628949Y-97163230D01*
X167604389Y-97229843D01*
X167563209Y-97265526D01*
X167529430Y-97283806D01*
X167529424Y-97283811D01*
X167351762Y-97422091D01*
X167199279Y-97587729D01*
X167110483Y-97723643D01*
X167056479Y-97769731D01*
X166986131Y-97779306D01*
X166921774Y-97749329D01*
X166899517Y-97723643D01*
X166810720Y-97587729D01*
X166658237Y-97422091D01*
X166549399Y-97337379D01*
X166480576Y-97283811D01*
X166447319Y-97265813D01*
X166396929Y-97215802D01*
X166381576Y-97146485D01*
X166406136Y-97079872D01*
X166447320Y-97044186D01*
X166447847Y-97043901D01*
X166480576Y-97026189D01*
X166658240Y-96887906D01*
X166810722Y-96722268D01*
X166899816Y-96585898D01*
X166953819Y-96539810D01*
X167024167Y-96530235D01*
X167088524Y-96560212D01*
X167110782Y-96585898D01*
X167151922Y-96648866D01*
X167790841Y-96009946D01*
X167809075Y-96077993D01*
G37*
%TD.AperFunction*%
%TA.AperFunction,Conductor*%
G36*
X219479931Y-62504002D02*
G01*
X219500905Y-62520905D01*
X219927095Y-62947095D01*
X219961121Y-63009407D01*
X219964000Y-63036190D01*
X219964000Y-111715810D01*
X219943998Y-111783931D01*
X219927095Y-111804905D01*
X219500905Y-112231095D01*
X219438593Y-112265121D01*
X219411810Y-112268000D01*
X140760190Y-112268000D01*
X140692069Y-112247998D01*
X140671095Y-112231095D01*
X140244905Y-111804905D01*
X140210879Y-111742593D01*
X140208000Y-111715810D01*
X140208000Y-107135613D01*
X143208700Y-107135613D01*
X143208700Y-107397866D01*
X143242928Y-107657860D01*
X143242930Y-107657867D01*
X143310804Y-107911179D01*
X143411162Y-108153464D01*
X143411163Y-108153465D01*
X143411168Y-108153475D01*
X143542283Y-108380573D01*
X143542287Y-108380579D01*
X143701927Y-108588625D01*
X143701946Y-108588646D01*
X143887353Y-108774053D01*
X143887363Y-108774062D01*
X143887369Y-108774068D01*
X144095423Y-108933714D01*
X144322536Y-109064838D01*
X144564821Y-109165196D01*
X144818133Y-109233070D01*
X144818137Y-109233070D01*
X144818139Y-109233071D01*
X144885148Y-109241892D01*
X145078136Y-109267300D01*
X145078143Y-109267300D01*
X145340377Y-109267300D01*
X145340384Y-109267300D01*
X145575362Y-109236364D01*
X145600380Y-109233071D01*
X145600380Y-109233070D01*
X145600387Y-109233070D01*
X145853699Y-109165196D01*
X146095984Y-109064838D01*
X146323097Y-108933714D01*
X146531151Y-108774068D01*
X146716588Y-108588631D01*
X146876234Y-108380577D01*
X147007358Y-108153464D01*
X147107716Y-107911179D01*
X147175590Y-107657867D01*
X147209820Y-107397864D01*
X147209820Y-107135616D01*
X147175590Y-106875613D01*
X147107716Y-106622301D01*
X147007358Y-106380016D01*
X146876234Y-106152903D01*
X146874224Y-106150284D01*
X146716592Y-105944854D01*
X146716590Y-105944852D01*
X146716588Y-105944849D01*
X146716582Y-105944843D01*
X146716573Y-105944833D01*
X146531166Y-105759426D01*
X146531145Y-105759407D01*
X146323099Y-105599767D01*
X146323093Y-105599763D01*
X146095995Y-105468648D01*
X146095990Y-105468645D01*
X146095984Y-105468642D01*
X145853699Y-105368284D01*
X145600387Y-105300410D01*
X145600380Y-105300408D01*
X145340386Y-105266180D01*
X145340384Y-105266180D01*
X145078136Y-105266180D01*
X145078133Y-105266180D01*
X144818139Y-105300408D01*
X144621683Y-105353048D01*
X144564821Y-105368284D01*
X144357282Y-105454250D01*
X144322534Y-105468643D01*
X144322524Y-105468648D01*
X144095426Y-105599763D01*
X144095420Y-105599767D01*
X143887374Y-105759407D01*
X143887353Y-105759426D01*
X143701946Y-105944833D01*
X143701927Y-105944854D01*
X143542287Y-106152900D01*
X143542283Y-106152906D01*
X143411168Y-106380004D01*
X143411163Y-106380014D01*
X143310804Y-106622301D01*
X143242928Y-106875619D01*
X143208700Y-107135613D01*
X140208000Y-107135613D01*
X140208000Y-102108000D01*
X146895502Y-102108000D01*
X146915457Y-102336087D01*
X146938145Y-102420759D01*
X146974715Y-102557240D01*
X146974717Y-102557246D01*
X147071477Y-102764749D01*
X147193460Y-102938959D01*
X147202802Y-102952300D01*
X147364700Y-103114198D01*
X147552251Y-103245523D01*
X147759757Y-103342284D01*
X147980913Y-103401543D01*
X148209000Y-103421498D01*
X148437087Y-103401543D01*
X148658243Y-103342284D01*
X148865749Y-103245523D01*
X149053300Y-103114198D01*
X149215198Y-102952300D01*
X149346523Y-102764749D01*
X149443284Y-102557243D01*
X149502543Y-102336087D01*
X149522498Y-102108000D01*
X150451502Y-102108000D01*
X150471457Y-102336087D01*
X150494145Y-102420759D01*
X150530715Y-102557240D01*
X150530717Y-102557246D01*
X150627477Y-102764749D01*
X150749460Y-102938959D01*
X150758802Y-102952300D01*
X150920700Y-103114198D01*
X151108251Y-103245523D01*
X151315757Y-103342284D01*
X151536913Y-103401543D01*
X151765000Y-103421498D01*
X151993087Y-103401543D01*
X152214243Y-103342284D01*
X152421749Y-103245523D01*
X152609300Y-103114198D01*
X152771198Y-102952300D01*
X152902523Y-102764749D01*
X152999284Y-102557243D01*
X153058543Y-102336087D01*
X153078498Y-102108000D01*
X153058543Y-101879913D01*
X152999284Y-101658757D01*
X152902523Y-101451251D01*
X152771198Y-101263700D01*
X152609300Y-101101802D01*
X152554706Y-101063575D01*
X152421749Y-100970477D01*
X152214246Y-100873717D01*
X152214240Y-100873715D01*
X152120771Y-100848670D01*
X151993087Y-100814457D01*
X151765000Y-100794502D01*
X151536913Y-100814457D01*
X151315759Y-100873715D01*
X151315753Y-100873717D01*
X151108250Y-100970477D01*
X150920703Y-101101799D01*
X150920697Y-101101804D01*
X150758804Y-101263697D01*
X150758799Y-101263703D01*
X150627477Y-101451250D01*
X150530717Y-101658753D01*
X150530715Y-101658759D01*
X150504191Y-101757749D01*
X150471457Y-101879913D01*
X150451502Y-102108000D01*
X149522498Y-102108000D01*
X149502543Y-101879913D01*
X149443284Y-101658757D01*
X149346523Y-101451251D01*
X149215198Y-101263700D01*
X149053300Y-101101802D01*
X148998706Y-101063575D01*
X148865749Y-100970477D01*
X148658246Y-100873717D01*
X148658240Y-100873715D01*
X148564771Y-100848670D01*
X148437087Y-100814457D01*
X148209000Y-100794502D01*
X147980913Y-100814457D01*
X147759759Y-100873715D01*
X147759753Y-100873717D01*
X147552250Y-100970477D01*
X147364703Y-101101799D01*
X147364697Y-101101804D01*
X147202804Y-101263697D01*
X147202799Y-101263703D01*
X147071477Y-101451250D01*
X146974717Y-101658753D01*
X146974715Y-101658759D01*
X146948191Y-101757749D01*
X146915457Y-101879913D01*
X146895502Y-102108000D01*
X140208000Y-102108000D01*
X140208000Y-91694000D01*
X146922917Y-91694000D01*
X147897314Y-91694000D01*
X147888920Y-91702394D01*
X147836259Y-91793606D01*
X147809000Y-91895339D01*
X147809000Y-92000661D01*
X147836259Y-92102394D01*
X147888920Y-92193606D01*
X147897314Y-92202000D01*
X146922918Y-92202000D01*
X146975186Y-92397068D01*
X146975188Y-92397073D01*
X147071912Y-92604498D01*
X147203184Y-92791974D01*
X147203189Y-92791980D01*
X147365019Y-92953810D01*
X147365025Y-92953815D01*
X147552501Y-93085087D01*
X147759926Y-93181811D01*
X147759931Y-93181813D01*
X147955000Y-93234081D01*
X147955000Y-92259686D01*
X147963394Y-92268080D01*
X148054606Y-92320741D01*
X148156339Y-92348000D01*
X148261661Y-92348000D01*
X148363394Y-92320741D01*
X148454606Y-92268080D01*
X148463000Y-92259686D01*
X148463000Y-93234081D01*
X148658068Y-93181813D01*
X148658073Y-93181811D01*
X148865498Y-93085087D01*
X149052974Y-92953815D01*
X149052980Y-92953810D01*
X149214810Y-92791980D01*
X149214815Y-92791974D01*
X149346087Y-92604498D01*
X149442811Y-92397073D01*
X149442813Y-92397068D01*
X149495082Y-92202000D01*
X148520686Y-92202000D01*
X148529080Y-92193606D01*
X148581741Y-92102394D01*
X148609000Y-92000661D01*
X148609000Y-91948000D01*
X150451502Y-91948000D01*
X150471457Y-92176087D01*
X150490056Y-92245498D01*
X150530715Y-92397240D01*
X150530717Y-92397246D01*
X150627477Y-92604749D01*
X150749460Y-92778959D01*
X150758802Y-92792300D01*
X150920700Y-92954198D01*
X151108251Y-93085523D01*
X151315757Y-93182284D01*
X151536913Y-93241543D01*
X151765000Y-93261498D01*
X151993087Y-93241543D01*
X152214243Y-93182284D01*
X152421749Y-93085523D01*
X152609300Y-92954198D01*
X152771198Y-92792300D01*
X152902523Y-92604749D01*
X152999284Y-92397243D01*
X153058543Y-92176087D01*
X153078498Y-91948000D01*
X153058543Y-91719913D01*
X152999284Y-91498757D01*
X152902523Y-91291251D01*
X152771198Y-91103700D01*
X152609300Y-90941802D01*
X152595301Y-90932000D01*
X152421749Y-90810477D01*
X152214246Y-90713717D01*
X152214240Y-90713715D01*
X152120771Y-90688670D01*
X151993087Y-90654457D01*
X151765000Y-90634502D01*
X151536913Y-90654457D01*
X151315759Y-90713715D01*
X151315753Y-90713717D01*
X151108250Y-90810477D01*
X150920703Y-90941799D01*
X150920697Y-90941804D01*
X150758804Y-91103697D01*
X150758799Y-91103703D01*
X150627477Y-91291250D01*
X150530717Y-91498753D01*
X150530715Y-91498759D01*
X150485344Y-91668086D01*
X150471457Y-91719913D01*
X150451502Y-91948000D01*
X148609000Y-91948000D01*
X148609000Y-91895339D01*
X148581741Y-91793606D01*
X148529080Y-91702394D01*
X148520686Y-91694000D01*
X149495082Y-91694000D01*
X149442813Y-91498931D01*
X149442811Y-91498926D01*
X149346087Y-91291501D01*
X149214815Y-91104025D01*
X149214810Y-91104019D01*
X149052980Y-90942189D01*
X149052974Y-90942184D01*
X148865498Y-90810912D01*
X148658073Y-90714188D01*
X148658071Y-90714187D01*
X148463000Y-90661917D01*
X148463000Y-91636314D01*
X148454606Y-91627920D01*
X148363394Y-91575259D01*
X148261661Y-91548000D01*
X148156339Y-91548000D01*
X148054606Y-91575259D01*
X147963394Y-91627920D01*
X147955000Y-91636314D01*
X147955000Y-90661917D01*
X147954999Y-90661917D01*
X147759928Y-90714187D01*
X147759926Y-90714188D01*
X147552501Y-90810912D01*
X147365025Y-90942184D01*
X147365019Y-90942189D01*
X147203189Y-91104019D01*
X147203184Y-91104025D01*
X147071912Y-91291501D01*
X146975188Y-91498926D01*
X146975186Y-91498931D01*
X146922917Y-91694000D01*
X140208000Y-91694000D01*
X140208000Y-85598000D01*
X142552289Y-85598000D01*
X143656562Y-85598000D01*
X143632482Y-85639708D01*
X143595000Y-85779591D01*
X143595000Y-85924409D01*
X143632482Y-86064292D01*
X143656562Y-86106000D01*
X142552289Y-86106000D01*
X142610971Y-86350434D01*
X142707830Y-86584272D01*
X142840077Y-86800079D01*
X143004457Y-86992542D01*
X143196920Y-87156922D01*
X143412727Y-87289169D01*
X143646565Y-87386028D01*
X143891000Y-87444710D01*
X143891000Y-86340438D01*
X143932708Y-86364518D01*
X144072591Y-86402000D01*
X144217409Y-86402000D01*
X144357292Y-86364518D01*
X144399000Y-86340438D01*
X144399000Y-87444709D01*
X144643434Y-87386028D01*
X144877272Y-87289169D01*
X145093079Y-87156922D01*
X145285542Y-86992542D01*
X145449922Y-86800079D01*
X145582169Y-86584272D01*
X145679028Y-86350434D01*
X145737711Y-86106000D01*
X144633438Y-86106000D01*
X144657518Y-86064292D01*
X144695000Y-85924409D01*
X144695000Y-85779591D01*
X144657518Y-85639708D01*
X144633438Y-85598000D01*
X145737711Y-85598000D01*
X145679028Y-85353565D01*
X145582169Y-85119727D01*
X145449922Y-84903920D01*
X145285542Y-84711457D01*
X145093079Y-84547077D01*
X144877272Y-84414830D01*
X144643434Y-84317971D01*
X144399000Y-84259288D01*
X144399000Y-85363561D01*
X144357292Y-85339482D01*
X144217409Y-85302000D01*
X144072591Y-85302000D01*
X143932708Y-85339482D01*
X143891000Y-85363561D01*
X143891000Y-84259288D01*
X143646565Y-84317971D01*
X143412727Y-84414830D01*
X143196920Y-84547077D01*
X143004457Y-84711457D01*
X142840077Y-84903920D01*
X142707830Y-85119727D01*
X142610971Y-85353565D01*
X142552289Y-85598000D01*
X140208000Y-85598000D01*
X140208000Y-74543350D01*
X142536500Y-74543350D01*
X142536500Y-76840649D01*
X142543009Y-76901196D01*
X142543011Y-76901204D01*
X142594110Y-77038202D01*
X142594112Y-77038207D01*
X142681738Y-77155261D01*
X142798792Y-77242887D01*
X142798794Y-77242888D01*
X142798796Y-77242889D01*
X142857875Y-77264924D01*
X142935795Y-77293988D01*
X142935803Y-77293990D01*
X142996350Y-77300499D01*
X142996355Y-77300499D01*
X142996362Y-77300500D01*
X142996368Y-77300500D01*
X145293632Y-77300500D01*
X145293638Y-77300500D01*
X145293645Y-77300499D01*
X145293649Y-77300499D01*
X145354196Y-77293990D01*
X145354199Y-77293989D01*
X145354201Y-77293989D01*
X145491204Y-77242889D01*
X145608261Y-77155261D01*
X145695889Y-77038204D01*
X145746989Y-76901201D01*
X145753500Y-76840638D01*
X145753500Y-75692000D01*
X146641502Y-75692000D01*
X146661457Y-75920087D01*
X146686107Y-76012080D01*
X146720715Y-76141240D01*
X146720717Y-76141246D01*
X146817477Y-76348749D01*
X146944180Y-76529700D01*
X146948802Y-76536300D01*
X147110700Y-76698198D01*
X147298251Y-76829523D01*
X147505757Y-76926284D01*
X147726913Y-76985543D01*
X147955000Y-77005498D01*
X148183087Y-76985543D01*
X148404243Y-76926284D01*
X148611749Y-76829523D01*
X148799300Y-76698198D01*
X148886405Y-76611093D01*
X148948717Y-76577067D01*
X149019532Y-76582132D01*
X149076368Y-76624679D01*
X149101179Y-76691199D01*
X149101500Y-76700188D01*
X149101500Y-77992629D01*
X149081498Y-78060750D01*
X149064595Y-78081724D01*
X147365837Y-79780481D01*
X147365832Y-79780488D01*
X147282826Y-79904715D01*
X147225650Y-80042750D01*
X147225649Y-80042753D01*
X147196500Y-80189290D01*
X147196500Y-84720132D01*
X147176498Y-84788253D01*
X147142772Y-84823344D01*
X147110706Y-84845797D01*
X147110697Y-84845804D01*
X146948804Y-85007697D01*
X146948799Y-85007703D01*
X146817477Y-85195250D01*
X146720717Y-85402753D01*
X146720715Y-85402759D01*
X146717314Y-85415453D01*
X146661457Y-85623913D01*
X146641502Y-85852000D01*
X146661457Y-86080087D01*
X146670809Y-86114989D01*
X146720715Y-86301240D01*
X146720717Y-86301246D01*
X146767699Y-86402000D01*
X146817477Y-86508749D01*
X146948802Y-86696300D01*
X147110700Y-86858198D01*
X147298251Y-86989523D01*
X147505757Y-87086284D01*
X147726913Y-87145543D01*
X147955000Y-87165498D01*
X148086286Y-87154011D01*
X148117912Y-87151245D01*
X148187517Y-87165233D01*
X148217989Y-87187670D01*
X150519485Y-89489166D01*
X150643716Y-89572174D01*
X150781753Y-89629351D01*
X150827532Y-89638457D01*
X150928294Y-89658500D01*
X150928295Y-89658500D01*
X151077705Y-89658500D01*
X169305629Y-89658500D01*
X169373750Y-89678502D01*
X169394724Y-89695405D01*
X171416595Y-91717276D01*
X171450621Y-91779588D01*
X171453500Y-91806371D01*
X171453500Y-96661629D01*
X171433498Y-96729750D01*
X171416595Y-96750724D01*
X170537724Y-97629595D01*
X170475412Y-97663621D01*
X170448629Y-97666500D01*
X169470372Y-97666500D01*
X169402251Y-97646498D01*
X169364890Y-97609417D01*
X169350723Y-97587734D01*
X169350722Y-97587732D01*
X169198240Y-97422094D01*
X169198239Y-97422093D01*
X169198237Y-97422091D01*
X169089399Y-97337379D01*
X169020576Y-97283811D01*
X168986792Y-97265528D01*
X168936402Y-97215516D01*
X168921050Y-97146199D01*
X168945610Y-97079586D01*
X168986793Y-97043901D01*
X169020299Y-97025768D01*
X169020302Y-97025766D01*
X169040689Y-97009898D01*
X168399948Y-96369157D01*
X168467993Y-96350925D01*
X168582007Y-96285099D01*
X168675099Y-96192007D01*
X168740925Y-96077993D01*
X168759157Y-96009948D01*
X169398076Y-96648867D01*
X169398077Y-96648866D01*
X169473419Y-96533551D01*
X169563820Y-96327456D01*
X169563823Y-96327449D01*
X169619067Y-96109292D01*
X169637653Y-95885000D01*
X169619067Y-95660707D01*
X169563823Y-95442550D01*
X169563820Y-95442543D01*
X169473422Y-95236456D01*
X169473417Y-95236448D01*
X169398076Y-95121132D01*
X168759157Y-95760051D01*
X168740925Y-95692007D01*
X168675099Y-95577993D01*
X168582007Y-95484901D01*
X168467993Y-95419075D01*
X168399947Y-95400841D01*
X169040689Y-94760100D01*
X169040688Y-94760099D01*
X169020306Y-94744235D01*
X169020299Y-94744230D01*
X168822371Y-94637118D01*
X168822369Y-94637116D01*
X168609516Y-94564044D01*
X168609509Y-94564042D01*
X168387523Y-94527000D01*
X168162477Y-94527000D01*
X167940490Y-94564042D01*
X167940483Y-94564044D01*
X167727630Y-94637116D01*
X167727628Y-94637118D01*
X167529700Y-94744230D01*
X167509310Y-94760099D01*
X167509310Y-94760101D01*
X168150051Y-95400842D01*
X168082007Y-95419075D01*
X167967993Y-95484901D01*
X167874901Y-95577993D01*
X167809075Y-95692007D01*
X167790841Y-95760052D01*
X167151921Y-95121132D01*
X167151920Y-95121132D01*
X167110780Y-95184102D01*
X167056776Y-95230190D01*
X166986428Y-95239765D01*
X166922071Y-95209787D01*
X166899822Y-95184111D01*
X166810722Y-95047732D01*
X166658240Y-94882094D01*
X166658239Y-94882093D01*
X166658237Y-94882091D01*
X166568387Y-94812158D01*
X166480576Y-94743811D01*
X166282574Y-94636658D01*
X166282572Y-94636657D01*
X166282571Y-94636656D01*
X166069639Y-94563557D01*
X166069630Y-94563555D01*
X166025476Y-94556187D01*
X165847569Y-94526500D01*
X165622431Y-94526500D01*
X165474211Y-94551233D01*
X165400369Y-94563555D01*
X165400360Y-94563557D01*
X165187428Y-94636656D01*
X165187426Y-94636658D01*
X164989426Y-94743810D01*
X164989424Y-94743811D01*
X164811762Y-94882091D01*
X164659279Y-95047729D01*
X164570483Y-95183643D01*
X164516479Y-95229731D01*
X164446131Y-95239306D01*
X164381774Y-95209329D01*
X164359517Y-95183643D01*
X164270720Y-95047729D01*
X164124785Y-94889204D01*
X164118240Y-94882094D01*
X164118239Y-94882093D01*
X164118237Y-94882091D01*
X164028387Y-94812158D01*
X163940576Y-94743811D01*
X163742574Y-94636658D01*
X163742572Y-94636657D01*
X163742571Y-94636656D01*
X163529639Y-94563557D01*
X163529630Y-94563555D01*
X163485476Y-94556187D01*
X163307569Y-94526500D01*
X163082431Y-94526500D01*
X162934211Y-94551233D01*
X162860369Y-94563555D01*
X162860360Y-94563557D01*
X162647428Y-94636656D01*
X162647426Y-94636658D01*
X162449426Y-94743810D01*
X162449424Y-94743811D01*
X162271759Y-94882094D01*
X162158483Y-95005143D01*
X162097630Y-95041714D01*
X162026666Y-95039579D01*
X161968121Y-94999417D01*
X161951144Y-94968481D01*
X161950217Y-94968914D01*
X161947116Y-94962266D01*
X161947115Y-94962262D01*
X161854030Y-94811348D01*
X161854029Y-94811347D01*
X161854024Y-94811341D01*
X161728658Y-94685975D01*
X161728652Y-94685970D01*
X161673857Y-94652172D01*
X161577738Y-94592885D01*
X161489224Y-94563555D01*
X161409427Y-94537113D01*
X161409420Y-94537112D01*
X161305553Y-94526500D01*
X160004455Y-94526500D01*
X159900574Y-94537112D01*
X159732261Y-94592885D01*
X159581347Y-94685970D01*
X159581341Y-94685975D01*
X159455975Y-94811341D01*
X159455970Y-94811347D01*
X159362885Y-94962262D01*
X159307113Y-95130572D01*
X159307112Y-95130579D01*
X159296500Y-95234446D01*
X159296500Y-96535544D01*
X159307112Y-96639425D01*
X159362885Y-96807738D01*
X159455970Y-96958652D01*
X159455975Y-96958658D01*
X159581341Y-97084024D01*
X159581347Y-97084029D01*
X159581348Y-97084030D01*
X159732262Y-97177115D01*
X159732268Y-97177117D01*
X159738914Y-97180217D01*
X159737943Y-97182299D01*
X159787167Y-97216372D01*
X159814430Y-97281925D01*
X159801924Y-97351811D01*
X159766564Y-97395003D01*
X159731764Y-97422089D01*
X159579279Y-97587729D01*
X159579275Y-97587734D01*
X159456141Y-97776206D01*
X159365703Y-97982386D01*
X159365702Y-97982387D01*
X159310437Y-98200624D01*
X159310436Y-98200630D01*
X159310436Y-98200632D01*
X159291844Y-98425000D01*
X159307836Y-98617993D01*
X159310437Y-98649375D01*
X159365702Y-98867612D01*
X159365703Y-98867613D01*
X159365704Y-98867616D01*
X159446409Y-99051606D01*
X159456141Y-99073793D01*
X159579275Y-99262265D01*
X159579279Y-99262270D01*
X159731762Y-99427908D01*
X159776202Y-99462497D01*
X159909424Y-99566189D01*
X160107426Y-99673342D01*
X160107427Y-99673342D01*
X160107428Y-99673343D01*
X160219227Y-99711723D01*
X160320365Y-99746444D01*
X160542431Y-99783500D01*
X160542435Y-99783500D01*
X160767565Y-99783500D01*
X160767569Y-99783500D01*
X160989635Y-99746444D01*
X161202574Y-99673342D01*
X161400576Y-99566189D01*
X161578240Y-99427906D01*
X161730722Y-99262268D01*
X161744890Y-99240583D01*
X161791706Y-99168925D01*
X161819816Y-99125898D01*
X161873819Y-99079810D01*
X161944167Y-99070235D01*
X162008524Y-99100212D01*
X162030782Y-99125898D01*
X162071922Y-99188866D01*
X162710841Y-98549946D01*
X162729075Y-98617993D01*
X162794901Y-98732007D01*
X162887993Y-98825099D01*
X163002007Y-98890925D01*
X163070051Y-98909157D01*
X162429310Y-99549898D01*
X162449694Y-99565763D01*
X162449696Y-99565765D01*
X162647632Y-99672883D01*
X162860483Y-99745955D01*
X162860490Y-99745957D01*
X163082477Y-99783000D01*
X163307523Y-99783000D01*
X163529509Y-99745957D01*
X163529516Y-99745955D01*
X163742369Y-99672883D01*
X163742371Y-99672882D01*
X163940298Y-99565768D01*
X163940302Y-99565766D01*
X163960689Y-99549898D01*
X163319948Y-98909157D01*
X163387993Y-98890925D01*
X163502007Y-98825099D01*
X163595099Y-98732007D01*
X163660925Y-98617993D01*
X163679157Y-98549948D01*
X164318076Y-99188867D01*
X164318077Y-99188866D01*
X164359218Y-99125898D01*
X164413222Y-99079810D01*
X164483570Y-99070235D01*
X164547927Y-99100213D01*
X164570183Y-99125898D01*
X164659279Y-99262270D01*
X164683045Y-99288086D01*
X164811760Y-99427906D01*
X164927892Y-99518296D01*
X164969362Y-99575919D01*
X164976500Y-99617726D01*
X164976500Y-101611211D01*
X164988645Y-101672264D01*
X164991074Y-101684476D01*
X165005649Y-101757747D01*
X165062826Y-101895784D01*
X165145834Y-102020015D01*
X166479335Y-103353516D01*
X166584984Y-103459165D01*
X166709216Y-103542174D01*
X166847254Y-103599351D01*
X166993794Y-103628500D01*
X166993795Y-103628500D01*
X167143205Y-103628500D01*
X175652132Y-103628500D01*
X175720253Y-103648502D01*
X175755344Y-103682228D01*
X175761318Y-103690759D01*
X175777802Y-103714300D01*
X175939700Y-103876198D01*
X176127251Y-104007523D01*
X176334757Y-104104284D01*
X176555913Y-104163543D01*
X176784000Y-104183498D01*
X177012087Y-104163543D01*
X177233243Y-104104284D01*
X177440749Y-104007523D01*
X177628300Y-103876198D01*
X177790198Y-103714300D01*
X177921523Y-103526749D01*
X178018284Y-103319243D01*
X178077543Y-103098087D01*
X178097498Y-102870000D01*
X185630502Y-102870000D01*
X185650457Y-103098087D01*
X185667097Y-103160188D01*
X185709715Y-103319240D01*
X185709717Y-103319246D01*
X185806477Y-103526749D01*
X185918867Y-103687259D01*
X185937802Y-103714300D01*
X186099700Y-103876198D01*
X186131770Y-103898653D01*
X186176099Y-103954110D01*
X186185500Y-104001867D01*
X186185500Y-106351295D01*
X186185500Y-106500705D01*
X186214649Y-106647247D01*
X186271826Y-106785284D01*
X186354834Y-106909515D01*
X189148834Y-109703515D01*
X189148835Y-109703516D01*
X189254484Y-109809165D01*
X189378716Y-109892174D01*
X189516754Y-109949351D01*
X189663294Y-109978500D01*
X199083701Y-109978500D01*
X199083705Y-109978500D01*
X199083706Y-109978500D01*
X199156976Y-109963925D01*
X199230247Y-109949351D01*
X199368284Y-109892174D01*
X199492515Y-109809166D01*
X201122165Y-108179516D01*
X201205173Y-108055285D01*
X201205174Y-108055284D01*
X201262351Y-107917246D01*
X201291500Y-107770706D01*
X201291500Y-107341142D01*
X201311502Y-107273021D01*
X201365158Y-107226528D01*
X201435432Y-107216424D01*
X201500012Y-107245918D01*
X201531695Y-107287893D01*
X201554475Y-107336747D01*
X201615518Y-107423925D01*
X201685802Y-107524300D01*
X201847700Y-107686198D01*
X202035251Y-107817523D01*
X202242757Y-107914284D01*
X202463913Y-107973543D01*
X202692000Y-107993498D01*
X202920087Y-107973543D01*
X203141243Y-107914284D01*
X203348749Y-107817523D01*
X203536300Y-107686198D01*
X203698198Y-107524300D01*
X203829523Y-107336749D01*
X203923314Y-107135613D01*
X213208560Y-107135613D01*
X213208560Y-107397866D01*
X213242788Y-107657860D01*
X213242790Y-107657867D01*
X213310664Y-107911179D01*
X213411022Y-108153464D01*
X213411023Y-108153465D01*
X213411028Y-108153475D01*
X213542143Y-108380573D01*
X213542147Y-108380579D01*
X213701787Y-108588625D01*
X213701806Y-108588646D01*
X213887213Y-108774053D01*
X213887223Y-108774062D01*
X213887229Y-108774068D01*
X214095283Y-108933714D01*
X214322396Y-109064838D01*
X214564681Y-109165196D01*
X214817993Y-109233070D01*
X214817997Y-109233070D01*
X214817999Y-109233071D01*
X214885008Y-109241892D01*
X215077996Y-109267300D01*
X215078003Y-109267300D01*
X215340237Y-109267300D01*
X215340244Y-109267300D01*
X215575222Y-109236364D01*
X215600240Y-109233071D01*
X215600240Y-109233070D01*
X215600247Y-109233070D01*
X215853559Y-109165196D01*
X216095844Y-109064838D01*
X216322957Y-108933714D01*
X216531011Y-108774068D01*
X216716448Y-108588631D01*
X216876094Y-108380577D01*
X217007218Y-108153464D01*
X217107576Y-107911179D01*
X217175450Y-107657867D01*
X217209680Y-107397864D01*
X217209680Y-107135616D01*
X217175450Y-106875613D01*
X217107576Y-106622301D01*
X217007218Y-106380016D01*
X216876094Y-106152903D01*
X216874084Y-106150284D01*
X216716452Y-105944854D01*
X216716450Y-105944852D01*
X216716448Y-105944849D01*
X216716442Y-105944843D01*
X216716433Y-105944833D01*
X216531026Y-105759426D01*
X216531005Y-105759407D01*
X216322959Y-105599767D01*
X216322953Y-105599763D01*
X216095855Y-105468648D01*
X216095850Y-105468645D01*
X216095844Y-105468642D01*
X215853559Y-105368284D01*
X215600247Y-105300410D01*
X215600240Y-105300408D01*
X215340246Y-105266180D01*
X215340244Y-105266180D01*
X215077996Y-105266180D01*
X215077993Y-105266180D01*
X214817999Y-105300408D01*
X214621543Y-105353048D01*
X214564681Y-105368284D01*
X214357142Y-105454250D01*
X214322394Y-105468643D01*
X214322384Y-105468648D01*
X214095286Y-105599763D01*
X214095280Y-105599767D01*
X213887234Y-105759407D01*
X213887213Y-105759426D01*
X213701806Y-105944833D01*
X213701787Y-105944854D01*
X213542147Y-106152900D01*
X213542143Y-106152906D01*
X213411028Y-106380004D01*
X213411023Y-106380014D01*
X213310664Y-106622301D01*
X213242788Y-106875619D01*
X213208560Y-107135613D01*
X203923314Y-107135613D01*
X203926284Y-107129243D01*
X203985543Y-106908087D01*
X204005498Y-106680000D01*
X203985543Y-106451913D01*
X203926284Y-106230757D01*
X203829523Y-106023251D01*
X203698198Y-105835700D01*
X203536300Y-105673802D01*
X203348749Y-105542477D01*
X203309543Y-105524195D01*
X203256258Y-105477279D01*
X203236796Y-105409002D01*
X203257337Y-105341042D01*
X203309543Y-105295805D01*
X203313819Y-105293811D01*
X203348749Y-105277523D01*
X203536300Y-105146198D01*
X203698198Y-104984300D01*
X203829523Y-104796749D01*
X203926284Y-104589243D01*
X203985543Y-104368087D01*
X204005498Y-104140000D01*
X203985543Y-103911913D01*
X203926284Y-103690757D01*
X203829523Y-103483251D01*
X203698198Y-103295700D01*
X203536300Y-103133802D01*
X203508298Y-103114195D01*
X203370768Y-103017895D01*
X203348749Y-103002477D01*
X203309543Y-102984195D01*
X203256258Y-102937279D01*
X203236796Y-102869002D01*
X203257337Y-102801042D01*
X203309543Y-102755805D01*
X203311997Y-102754660D01*
X203348749Y-102737523D01*
X203536300Y-102606198D01*
X203698198Y-102444300D01*
X203829523Y-102256749D01*
X203926284Y-102049243D01*
X203985543Y-101828087D01*
X204005498Y-101600000D01*
X203985543Y-101371913D01*
X203926284Y-101150757D01*
X203829523Y-100943251D01*
X203698198Y-100755700D01*
X203536300Y-100593802D01*
X203348749Y-100462477D01*
X203309543Y-100444195D01*
X203256258Y-100397279D01*
X203236796Y-100329002D01*
X203257337Y-100261042D01*
X203309543Y-100215805D01*
X203311997Y-100214660D01*
X203348749Y-100197523D01*
X203536300Y-100066198D01*
X203698198Y-99904300D01*
X203829523Y-99716749D01*
X203926284Y-99509243D01*
X203985543Y-99288087D01*
X204005498Y-99060000D01*
X203985543Y-98831913D01*
X203978600Y-98806000D01*
X204934502Y-98806000D01*
X204954457Y-99034087D01*
X204965096Y-99073791D01*
X205013715Y-99255240D01*
X205013717Y-99255246D01*
X205110477Y-99462749D01*
X205207106Y-99600750D01*
X205241802Y-99650300D01*
X205403700Y-99812198D01*
X205591251Y-99943523D01*
X205798757Y-100040284D01*
X205951806Y-100081293D01*
X206012428Y-100118245D01*
X206043449Y-100182105D01*
X206035021Y-100252600D01*
X205989818Y-100307347D01*
X205951807Y-100324706D01*
X205882462Y-100343286D01*
X205798759Y-100365715D01*
X205798753Y-100365717D01*
X205591250Y-100462477D01*
X205403703Y-100593799D01*
X205403697Y-100593804D01*
X205241804Y-100755697D01*
X205241799Y-100755703D01*
X205110477Y-100943250D01*
X205013717Y-101150753D01*
X205013715Y-101150759D01*
X204959151Y-101354394D01*
X204954457Y-101371913D01*
X204934502Y-101600000D01*
X204954457Y-101828087D01*
X204972597Y-101895785D01*
X205013715Y-102049240D01*
X205013717Y-102049246D01*
X205110477Y-102256749D01*
X205166029Y-102336086D01*
X205241802Y-102444300D01*
X205403700Y-102606198D01*
X205591251Y-102737523D01*
X205798757Y-102834284D01*
X205951806Y-102875293D01*
X206012428Y-102912245D01*
X206043449Y-102976105D01*
X206035021Y-103046600D01*
X205989818Y-103101347D01*
X205951807Y-103118706D01*
X205895480Y-103133799D01*
X205798759Y-103159715D01*
X205798753Y-103159717D01*
X205591250Y-103256477D01*
X205403703Y-103387799D01*
X205403697Y-103387804D01*
X205241804Y-103549697D01*
X205241799Y-103549703D01*
X205110477Y-103737250D01*
X205013717Y-103944753D01*
X205013715Y-103944759D01*
X204968726Y-104112661D01*
X204954457Y-104165913D01*
X204934502Y-104394000D01*
X204954457Y-104622087D01*
X204968674Y-104675146D01*
X205013715Y-104843240D01*
X205013717Y-104843246D01*
X205110477Y-105050749D01*
X205212943Y-105197086D01*
X205241802Y-105238300D01*
X205403700Y-105400198D01*
X205591251Y-105531523D01*
X205798757Y-105628284D01*
X206019913Y-105687543D01*
X206248000Y-105707498D01*
X206476087Y-105687543D01*
X206697243Y-105628284D01*
X206904749Y-105531523D01*
X207092300Y-105400198D01*
X207254198Y-105238300D01*
X207385523Y-105050749D01*
X207482284Y-104843243D01*
X207541543Y-104622087D01*
X207561498Y-104394000D01*
X207541543Y-104165913D01*
X207482284Y-103944757D01*
X207385523Y-103737251D01*
X207254198Y-103549700D01*
X207092300Y-103387802D01*
X207069875Y-103372100D01*
X206904749Y-103256477D01*
X206697246Y-103159717D01*
X206697240Y-103159715D01*
X206661863Y-103150235D01*
X206544192Y-103118705D01*
X206483571Y-103081755D01*
X206452550Y-103017895D01*
X206460978Y-102947400D01*
X206506181Y-102892653D01*
X206544190Y-102875294D01*
X206697243Y-102834284D01*
X206904749Y-102737523D01*
X207092300Y-102606198D01*
X207254198Y-102444300D01*
X207385523Y-102256749D01*
X207482284Y-102049243D01*
X207541543Y-101828087D01*
X207561498Y-101600000D01*
X207541543Y-101371913D01*
X207482284Y-101150757D01*
X207385523Y-100943251D01*
X207254198Y-100755700D01*
X207092300Y-100593802D01*
X206976757Y-100512898D01*
X206904749Y-100462477D01*
X206697246Y-100365717D01*
X206697240Y-100365715D01*
X206651809Y-100353542D01*
X206544192Y-100324705D01*
X206483571Y-100287755D01*
X206452550Y-100223895D01*
X206460978Y-100153400D01*
X206506181Y-100098653D01*
X206544190Y-100081294D01*
X206697243Y-100040284D01*
X206904749Y-99943523D01*
X207092300Y-99812198D01*
X207254198Y-99650300D01*
X207385523Y-99462749D01*
X207482284Y-99255243D01*
X207541543Y-99034087D01*
X207561498Y-98806000D01*
X209935004Y-98806000D01*
X209954951Y-99034002D01*
X210014186Y-99255068D01*
X210014188Y-99255073D01*
X210110913Y-99462501D01*
X210160899Y-99533888D01*
X210848000Y-98846788D01*
X210848000Y-98858661D01*
X210875259Y-98960394D01*
X210927920Y-99051606D01*
X211002394Y-99126080D01*
X211093606Y-99178741D01*
X211195339Y-99206000D01*
X211207210Y-99206000D01*
X210520110Y-99893098D01*
X210520110Y-99893100D01*
X210591498Y-99943086D01*
X210798926Y-100039811D01*
X210798931Y-100039813D01*
X210953734Y-100081293D01*
X211014357Y-100118245D01*
X211045378Y-100182106D01*
X211036950Y-100252600D01*
X210991747Y-100307347D01*
X210953734Y-100324707D01*
X210798931Y-100366186D01*
X210798926Y-100366188D01*
X210591500Y-100462913D01*
X210520109Y-100512900D01*
X211207209Y-101200000D01*
X211195339Y-101200000D01*
X211093606Y-101227259D01*
X211002394Y-101279920D01*
X210927920Y-101354394D01*
X210875259Y-101445606D01*
X210848000Y-101547339D01*
X210848000Y-101559209D01*
X210160900Y-100872109D01*
X210110913Y-100943500D01*
X210014188Y-101150926D01*
X210014186Y-101150931D01*
X209954951Y-101371997D01*
X209935004Y-101600000D01*
X209954951Y-101828002D01*
X210014186Y-102049068D01*
X210014188Y-102049073D01*
X210110913Y-102256501D01*
X210160899Y-102327888D01*
X210848000Y-101640788D01*
X210848000Y-101652661D01*
X210875259Y-101754394D01*
X210927920Y-101845606D01*
X211002394Y-101920080D01*
X211093606Y-101972741D01*
X211195339Y-102000000D01*
X211207210Y-102000000D01*
X210520110Y-102687098D01*
X210520110Y-102687100D01*
X210591498Y-102737086D01*
X210798926Y-102833811D01*
X210798931Y-102833813D01*
X210953734Y-102875293D01*
X211014357Y-102912245D01*
X211045378Y-102976106D01*
X211036950Y-103046600D01*
X210991747Y-103101347D01*
X210953734Y-103118707D01*
X210798931Y-103160186D01*
X210798926Y-103160188D01*
X210591500Y-103256913D01*
X210520109Y-103306900D01*
X211207209Y-103994000D01*
X211195339Y-103994000D01*
X211093606Y-104021259D01*
X211002394Y-104073920D01*
X210927920Y-104148394D01*
X210875259Y-104239606D01*
X210848000Y-104341339D01*
X210848000Y-104353209D01*
X210160900Y-103666109D01*
X210110913Y-103737500D01*
X210014188Y-103944926D01*
X210014186Y-103944931D01*
X209954951Y-104165997D01*
X209935004Y-104394000D01*
X209954951Y-104622002D01*
X210014186Y-104843068D01*
X210014188Y-104843073D01*
X210110913Y-105050501D01*
X210160899Y-105121888D01*
X210848000Y-104434788D01*
X210848000Y-104446661D01*
X210875259Y-104548394D01*
X210927920Y-104639606D01*
X211002394Y-104714080D01*
X211093606Y-104766741D01*
X211195339Y-104794000D01*
X211207210Y-104794000D01*
X210520110Y-105481098D01*
X210520110Y-105481100D01*
X210591498Y-105531086D01*
X210798926Y-105627811D01*
X210798931Y-105627813D01*
X211019999Y-105687048D01*
X211019995Y-105687048D01*
X211248000Y-105706995D01*
X211476002Y-105687048D01*
X211697068Y-105627813D01*
X211697073Y-105627811D01*
X211904497Y-105531088D01*
X211975888Y-105481099D01*
X211975888Y-105481097D01*
X211288791Y-104794000D01*
X211300661Y-104794000D01*
X211402394Y-104766741D01*
X211493606Y-104714080D01*
X211568080Y-104639606D01*
X211620741Y-104548394D01*
X211648000Y-104446661D01*
X211648000Y-104434791D01*
X212335097Y-105121888D01*
X212335099Y-105121888D01*
X212385088Y-105050497D01*
X212481811Y-104843073D01*
X212481813Y-104843068D01*
X212541048Y-104622002D01*
X212560995Y-104394000D01*
X212541048Y-104165997D01*
X212481813Y-103944931D01*
X212481811Y-103944926D01*
X212385086Y-103737498D01*
X212335100Y-103666110D01*
X212335098Y-103666110D01*
X211648000Y-104353208D01*
X211648000Y-104341339D01*
X211620741Y-104239606D01*
X211568080Y-104148394D01*
X211493606Y-104073920D01*
X211402394Y-104021259D01*
X211300661Y-103994000D01*
X211288790Y-103994000D01*
X211975888Y-103306899D01*
X211975888Y-103306898D01*
X211904501Y-103256913D01*
X211697073Y-103160188D01*
X211697068Y-103160186D01*
X211542265Y-103118707D01*
X211481642Y-103081755D01*
X211450621Y-103017895D01*
X211459049Y-102947400D01*
X211504252Y-102892653D01*
X211542265Y-102875293D01*
X211697068Y-102833813D01*
X211697073Y-102833811D01*
X211904497Y-102737088D01*
X211975888Y-102687099D01*
X211975888Y-102687097D01*
X211288791Y-102000000D01*
X211300661Y-102000000D01*
X211402394Y-101972741D01*
X211493606Y-101920080D01*
X211568080Y-101845606D01*
X211620741Y-101754394D01*
X211648000Y-101652661D01*
X211648000Y-101640791D01*
X212335097Y-102327888D01*
X212335099Y-102327888D01*
X212385088Y-102256497D01*
X212481811Y-102049073D01*
X212481813Y-102049068D01*
X212541048Y-101828002D01*
X212560995Y-101600000D01*
X212541048Y-101371997D01*
X212481813Y-101150931D01*
X212481811Y-101150926D01*
X212385086Y-100943498D01*
X212335100Y-100872110D01*
X212335098Y-100872110D01*
X211648000Y-101559208D01*
X211648000Y-101547339D01*
X211620741Y-101445606D01*
X211568080Y-101354394D01*
X211493606Y-101279920D01*
X211402394Y-101227259D01*
X211300661Y-101200000D01*
X211288790Y-101200000D01*
X211975888Y-100512899D01*
X211975888Y-100512898D01*
X211904501Y-100462913D01*
X211697073Y-100366188D01*
X211697068Y-100366186D01*
X211542265Y-100324707D01*
X211481642Y-100287755D01*
X211450621Y-100223895D01*
X211459049Y-100153400D01*
X211504252Y-100098653D01*
X211542265Y-100081293D01*
X211697068Y-100039813D01*
X211697073Y-100039811D01*
X211904497Y-99943088D01*
X211975888Y-99893099D01*
X211975888Y-99893097D01*
X211288791Y-99206000D01*
X211300661Y-99206000D01*
X211402394Y-99178741D01*
X211493606Y-99126080D01*
X211568080Y-99051606D01*
X211620741Y-98960394D01*
X211648000Y-98858661D01*
X211648000Y-98846791D01*
X212335097Y-99533888D01*
X212335099Y-99533888D01*
X212385088Y-99462497D01*
X212481811Y-99255073D01*
X212481813Y-99255068D01*
X212541048Y-99034002D01*
X212560995Y-98806000D01*
X212541048Y-98577997D01*
X212481813Y-98356931D01*
X212481811Y-98356926D01*
X212385086Y-98149498D01*
X212335100Y-98078110D01*
X212335098Y-98078110D01*
X211648000Y-98765208D01*
X211648000Y-98753339D01*
X211620741Y-98651606D01*
X211568080Y-98560394D01*
X211493606Y-98485920D01*
X211402394Y-98433259D01*
X211300661Y-98406000D01*
X211288790Y-98406000D01*
X211975888Y-97718899D01*
X211975888Y-97718898D01*
X211904501Y-97668913D01*
X211697073Y-97572188D01*
X211697068Y-97572186D01*
X211476000Y-97512951D01*
X211476004Y-97512951D01*
X211248000Y-97493004D01*
X211019997Y-97512951D01*
X210798931Y-97572186D01*
X210798926Y-97572188D01*
X210591500Y-97668913D01*
X210520109Y-97718900D01*
X211207209Y-98406000D01*
X211195339Y-98406000D01*
X211093606Y-98433259D01*
X211002394Y-98485920D01*
X210927920Y-98560394D01*
X210875259Y-98651606D01*
X210848000Y-98753339D01*
X210848000Y-98765209D01*
X210160900Y-98078109D01*
X210110913Y-98149500D01*
X210014188Y-98356926D01*
X210014186Y-98356931D01*
X209954951Y-98577997D01*
X209935004Y-98806000D01*
X207561498Y-98806000D01*
X207541543Y-98577913D01*
X207482284Y-98356757D01*
X207385523Y-98149251D01*
X207254198Y-97961700D01*
X207092300Y-97799802D01*
X207079335Y-97790724D01*
X206904749Y-97668477D01*
X206697246Y-97571717D01*
X206697240Y-97571715D01*
X206527376Y-97526200D01*
X206476087Y-97512457D01*
X206248000Y-97492502D01*
X206019913Y-97512457D01*
X205798759Y-97571715D01*
X205798753Y-97571717D01*
X205591250Y-97668477D01*
X205403703Y-97799799D01*
X205403697Y-97799804D01*
X205241804Y-97961697D01*
X205241799Y-97961703D01*
X205110477Y-98149250D01*
X205013717Y-98356753D01*
X205013715Y-98356759D01*
X204977792Y-98490826D01*
X204954457Y-98577913D01*
X204934502Y-98806000D01*
X203978600Y-98806000D01*
X203926284Y-98610757D01*
X203829523Y-98403251D01*
X203698198Y-98215700D01*
X203536300Y-98053802D01*
X203348749Y-97922477D01*
X203308951Y-97903919D01*
X203255666Y-97857002D01*
X203236205Y-97788725D01*
X203256747Y-97720765D01*
X203308951Y-97675529D01*
X203348498Y-97657087D01*
X203535974Y-97525815D01*
X203535980Y-97525810D01*
X203697810Y-97363980D01*
X203697815Y-97363974D01*
X203829087Y-97176498D01*
X203925811Y-96969073D01*
X203925813Y-96969068D01*
X203978082Y-96774000D01*
X203003686Y-96774000D01*
X203012080Y-96765606D01*
X203064741Y-96674394D01*
X203092000Y-96572661D01*
X203092000Y-96467339D01*
X203064741Y-96365606D01*
X203012080Y-96274394D01*
X203003686Y-96266000D01*
X203978082Y-96266000D01*
X203925813Y-96070931D01*
X203925811Y-96070926D01*
X203829087Y-95863501D01*
X203697815Y-95676025D01*
X203697810Y-95676019D01*
X203535980Y-95514189D01*
X203535974Y-95514184D01*
X203348497Y-95382911D01*
X203308949Y-95364469D01*
X203255665Y-95317551D01*
X203236205Y-95249273D01*
X203256748Y-95181314D01*
X203308950Y-95136081D01*
X203348749Y-95117523D01*
X203536300Y-94986198D01*
X203698198Y-94824300D01*
X203829523Y-94636749D01*
X203926284Y-94429243D01*
X203985543Y-94208087D01*
X204005498Y-93980000D01*
X203985543Y-93751913D01*
X203926284Y-93530757D01*
X203829523Y-93323251D01*
X203698198Y-93135700D01*
X203693848Y-93131350D01*
X204939500Y-93131350D01*
X204939500Y-94828649D01*
X204946009Y-94889196D01*
X204946011Y-94889204D01*
X204997110Y-95026202D01*
X204997112Y-95026207D01*
X205084738Y-95143261D01*
X205201792Y-95230887D01*
X205201794Y-95230888D01*
X205201796Y-95230889D01*
X205256447Y-95251273D01*
X205338795Y-95281988D01*
X205338803Y-95281990D01*
X205399350Y-95288499D01*
X205399355Y-95288499D01*
X205399362Y-95288500D01*
X205399368Y-95288500D01*
X207096632Y-95288500D01*
X207096638Y-95288500D01*
X207096645Y-95288499D01*
X207096649Y-95288499D01*
X207157196Y-95281990D01*
X207157199Y-95281989D01*
X207157201Y-95281989D01*
X207294204Y-95230889D01*
X207300125Y-95226457D01*
X207411261Y-95143261D01*
X207498887Y-95026207D01*
X207498887Y-95026206D01*
X207498889Y-95026204D01*
X207549989Y-94889201D01*
X207550754Y-94882091D01*
X207556499Y-94828649D01*
X207556500Y-94828632D01*
X207556500Y-93980000D01*
X215094502Y-93980000D01*
X215114457Y-94208086D01*
X215173715Y-94429240D01*
X215173717Y-94429246D01*
X215270477Y-94636749D01*
X215356848Y-94760100D01*
X215401802Y-94824300D01*
X215563700Y-94986198D01*
X215751251Y-95117523D01*
X215958757Y-95214284D01*
X216179913Y-95273543D01*
X216408000Y-95293498D01*
X216636087Y-95273543D01*
X216857243Y-95214284D01*
X217064749Y-95117523D01*
X217252300Y-94986198D01*
X217414198Y-94824300D01*
X217545523Y-94636749D01*
X217642284Y-94429243D01*
X217701543Y-94208087D01*
X217721498Y-93980000D01*
X217701543Y-93751913D01*
X217642284Y-93530757D01*
X217545523Y-93323251D01*
X217414198Y-93135700D01*
X217252300Y-92973802D01*
X217252291Y-92973796D01*
X217064749Y-92842477D01*
X216857246Y-92745717D01*
X216857240Y-92745715D01*
X216720225Y-92709002D01*
X216636087Y-92686457D01*
X216408000Y-92666502D01*
X216179913Y-92686457D01*
X215958759Y-92745715D01*
X215958753Y-92745717D01*
X215751250Y-92842477D01*
X215563703Y-92973799D01*
X215563697Y-92973804D01*
X215401804Y-93135697D01*
X215401799Y-93135703D01*
X215270477Y-93323250D01*
X215173717Y-93530753D01*
X215173715Y-93530759D01*
X215114457Y-93751913D01*
X215094502Y-93980000D01*
X207556500Y-93980000D01*
X207556500Y-93131367D01*
X207556499Y-93131350D01*
X207549990Y-93070803D01*
X207549988Y-93070795D01*
X207513811Y-92973804D01*
X207498889Y-92933796D01*
X207498888Y-92933794D01*
X207498887Y-92933792D01*
X207411261Y-92816738D01*
X207294207Y-92729112D01*
X207294202Y-92729110D01*
X207157204Y-92678011D01*
X207157196Y-92678009D01*
X207096649Y-92671500D01*
X207096638Y-92671500D01*
X205399362Y-92671500D01*
X205399350Y-92671500D01*
X205338803Y-92678009D01*
X205338795Y-92678011D01*
X205201797Y-92729110D01*
X205201792Y-92729112D01*
X205084738Y-92816738D01*
X204997112Y-92933792D01*
X204997110Y-92933797D01*
X204946011Y-93070795D01*
X204946009Y-93070803D01*
X204939500Y-93131350D01*
X203693848Y-93131350D01*
X203536300Y-92973802D01*
X203536291Y-92973796D01*
X203352936Y-92845409D01*
X203348749Y-92842477D01*
X203309543Y-92824195D01*
X203256258Y-92777279D01*
X203236796Y-92709002D01*
X203257337Y-92641042D01*
X203309543Y-92595805D01*
X203311997Y-92594660D01*
X203348749Y-92577523D01*
X203536300Y-92446198D01*
X203698198Y-92284300D01*
X203829523Y-92096749D01*
X203926284Y-91889243D01*
X203985543Y-91668087D01*
X204005498Y-91440000D01*
X203985543Y-91211913D01*
X203926284Y-90990757D01*
X203829523Y-90783251D01*
X203698198Y-90595700D01*
X203536300Y-90433802D01*
X203535010Y-90432899D01*
X203348749Y-90302477D01*
X203141246Y-90205717D01*
X203141240Y-90205715D01*
X203047771Y-90180670D01*
X202920087Y-90146457D01*
X202692000Y-90126502D01*
X202463913Y-90146457D01*
X202242759Y-90205715D01*
X202242753Y-90205717D01*
X202035250Y-90302477D01*
X201847703Y-90433799D01*
X201847697Y-90433804D01*
X201685804Y-90595697D01*
X201685799Y-90595703D01*
X201554477Y-90783250D01*
X201457717Y-90990753D01*
X201457715Y-90990759D01*
X201423085Y-91120000D01*
X201398457Y-91211913D01*
X201378502Y-91440000D01*
X201398457Y-91668087D01*
X201407650Y-91702394D01*
X201457715Y-91889240D01*
X201457717Y-91889246D01*
X201554477Y-92096749D01*
X201674444Y-92268080D01*
X201685802Y-92284300D01*
X201847700Y-92446198D01*
X202035251Y-92577523D01*
X202070359Y-92593894D01*
X202074457Y-92595805D01*
X202127742Y-92642722D01*
X202147203Y-92710999D01*
X202126661Y-92778959D01*
X202074457Y-92824195D01*
X202035250Y-92842477D01*
X201847703Y-92973799D01*
X201847697Y-92973804D01*
X201685804Y-93135697D01*
X201685799Y-93135703D01*
X201554477Y-93323250D01*
X201457717Y-93530753D01*
X201457715Y-93530759D01*
X201398457Y-93751913D01*
X201378502Y-93980000D01*
X201398457Y-94208086D01*
X201457715Y-94429240D01*
X201457717Y-94429246D01*
X201554477Y-94636749D01*
X201640848Y-94760100D01*
X201685802Y-94824300D01*
X201847700Y-94986198D01*
X202035251Y-95117523D01*
X202063250Y-95130579D01*
X202075047Y-95136080D01*
X202128332Y-95182996D01*
X202147794Y-95251273D01*
X202127253Y-95319233D01*
X202075051Y-95364468D01*
X202035504Y-95382910D01*
X201848025Y-95514184D01*
X201848019Y-95514189D01*
X201686189Y-95676019D01*
X201686184Y-95676025D01*
X201554912Y-95863501D01*
X201458188Y-96070926D01*
X201458186Y-96070931D01*
X201405917Y-96266000D01*
X202380314Y-96266000D01*
X202371920Y-96274394D01*
X202319259Y-96365606D01*
X202292000Y-96467339D01*
X202292000Y-96572661D01*
X202319259Y-96674394D01*
X202371920Y-96765606D01*
X202380314Y-96774000D01*
X201405918Y-96774000D01*
X201458186Y-96969068D01*
X201458188Y-96969073D01*
X201554912Y-97176498D01*
X201686184Y-97363974D01*
X201686189Y-97363980D01*
X201848019Y-97525810D01*
X201848025Y-97525815D01*
X202035503Y-97657089D01*
X202075049Y-97675530D01*
X202128334Y-97722447D01*
X202147794Y-97790724D01*
X202127252Y-97858684D01*
X202075049Y-97903918D01*
X202035252Y-97922475D01*
X201847703Y-98053799D01*
X201847697Y-98053804D01*
X201685804Y-98215697D01*
X201685799Y-98215703D01*
X201554477Y-98403250D01*
X201457717Y-98610753D01*
X201457716Y-98610757D01*
X201398457Y-98831913D01*
X201378502Y-99060000D01*
X201388890Y-99178741D01*
X201398457Y-99288086D01*
X201457715Y-99509240D01*
X201457717Y-99509246D01*
X201554477Y-99716749D01*
X201677959Y-99893100D01*
X201685802Y-99904300D01*
X201847700Y-100066198D01*
X202035251Y-100197523D01*
X202070359Y-100213894D01*
X202074457Y-100215805D01*
X202127742Y-100262722D01*
X202147203Y-100330999D01*
X202126661Y-100398959D01*
X202074457Y-100444195D01*
X202035250Y-100462477D01*
X201847703Y-100593799D01*
X201847697Y-100593804D01*
X201685804Y-100755697D01*
X201685799Y-100755703D01*
X201554477Y-100943250D01*
X201457717Y-101150753D01*
X201457715Y-101150759D01*
X201403151Y-101354394D01*
X201398457Y-101371913D01*
X201378502Y-101600000D01*
X201398457Y-101828087D01*
X201416597Y-101895785D01*
X201457715Y-102049240D01*
X201457717Y-102049246D01*
X201554477Y-102256749D01*
X201610029Y-102336086D01*
X201685802Y-102444300D01*
X201847700Y-102606198D01*
X202035251Y-102737523D01*
X202070359Y-102753894D01*
X202074457Y-102755805D01*
X202127742Y-102802722D01*
X202147203Y-102870999D01*
X202126661Y-102938959D01*
X202074457Y-102984195D01*
X202035250Y-103002477D01*
X201847703Y-103133799D01*
X201847697Y-103133804D01*
X201685804Y-103295697D01*
X201685797Y-103295706D01*
X201663344Y-103327772D01*
X201607887Y-103372100D01*
X201560132Y-103381500D01*
X201474288Y-103381500D01*
X201401024Y-103396073D01*
X201401024Y-103396074D01*
X201327753Y-103410649D01*
X201327751Y-103410649D01*
X201327750Y-103410650D01*
X201301561Y-103421498D01*
X201210626Y-103459165D01*
X201189714Y-103467827D01*
X201065486Y-103550833D01*
X201065480Y-103550838D01*
X199943838Y-104672480D01*
X199943833Y-104672486D01*
X199862641Y-104794000D01*
X199860826Y-104796716D01*
X199858993Y-104801142D01*
X199803650Y-104934750D01*
X199789074Y-105008025D01*
X199774500Y-105081288D01*
X199774500Y-107329629D01*
X199754498Y-107397750D01*
X199737595Y-107418724D01*
X198731724Y-108424595D01*
X198669412Y-108458621D01*
X198642629Y-108461500D01*
X190104371Y-108461500D01*
X190036250Y-108441498D01*
X190015276Y-108424595D01*
X187739405Y-106148724D01*
X187705379Y-106086412D01*
X187702500Y-106059629D01*
X187702500Y-104060000D01*
X190203004Y-104060000D01*
X190222951Y-104288002D01*
X190282186Y-104509068D01*
X190282188Y-104509073D01*
X190378913Y-104716501D01*
X190428899Y-104787888D01*
X191116000Y-104100788D01*
X191116000Y-104112661D01*
X191143259Y-104214394D01*
X191195920Y-104305606D01*
X191270394Y-104380080D01*
X191361606Y-104432741D01*
X191463339Y-104460000D01*
X191475210Y-104460000D01*
X190788110Y-105147098D01*
X190788110Y-105147100D01*
X190859498Y-105197086D01*
X191066926Y-105293811D01*
X191066931Y-105293813D01*
X191287999Y-105353048D01*
X191287995Y-105353048D01*
X191516000Y-105372995D01*
X191744002Y-105353048D01*
X191965068Y-105293813D01*
X191965073Y-105293811D01*
X192172497Y-105197088D01*
X192243888Y-105147099D01*
X192243888Y-105147097D01*
X191556791Y-104460000D01*
X191568661Y-104460000D01*
X191670394Y-104432741D01*
X191761606Y-104380080D01*
X191836080Y-104305606D01*
X191888741Y-104214394D01*
X191916000Y-104112661D01*
X191916000Y-104100791D01*
X192603097Y-104787888D01*
X192603099Y-104787888D01*
X192653088Y-104716497D01*
X192749811Y-104509073D01*
X192749813Y-104509068D01*
X192809048Y-104288002D01*
X192828995Y-104060000D01*
X192809048Y-103831997D01*
X192749813Y-103610931D01*
X192749811Y-103610926D01*
X192653086Y-103403498D01*
X192603100Y-103332110D01*
X192603098Y-103332110D01*
X191916000Y-104019208D01*
X191916000Y-104007339D01*
X191888741Y-103905606D01*
X191836080Y-103814394D01*
X191761606Y-103739920D01*
X191670394Y-103687259D01*
X191568661Y-103660000D01*
X191556790Y-103660000D01*
X192243888Y-102972899D01*
X192243888Y-102972898D01*
X192172501Y-102922913D01*
X191965073Y-102826188D01*
X191965068Y-102826186D01*
X191744000Y-102766951D01*
X191744004Y-102766951D01*
X191516000Y-102747004D01*
X191287997Y-102766951D01*
X191066931Y-102826186D01*
X191066926Y-102826188D01*
X190859500Y-102922913D01*
X190788109Y-102972900D01*
X191475209Y-103660000D01*
X191463339Y-103660000D01*
X191361606Y-103687259D01*
X191270394Y-103739920D01*
X191195920Y-103814394D01*
X191143259Y-103905606D01*
X191116000Y-104007339D01*
X191116000Y-104019209D01*
X190428900Y-103332109D01*
X190378913Y-103403500D01*
X190282188Y-103610926D01*
X190282186Y-103610931D01*
X190222951Y-103831997D01*
X190203004Y-104060000D01*
X187702500Y-104060000D01*
X187702500Y-104001867D01*
X187722502Y-103933746D01*
X187756228Y-103898654D01*
X187788300Y-103876198D01*
X187950198Y-103714300D01*
X188081523Y-103526749D01*
X188178284Y-103319243D01*
X188237543Y-103098087D01*
X188257498Y-102870000D01*
X188237543Y-102641913D01*
X188178284Y-102420757D01*
X188081523Y-102213251D01*
X187950198Y-102025700D01*
X187788300Y-101863802D01*
X187762313Y-101845606D01*
X187600749Y-101732477D01*
X187393246Y-101635717D01*
X187393240Y-101635715D01*
X187299771Y-101610670D01*
X187172087Y-101576457D01*
X186944000Y-101556502D01*
X186715913Y-101576457D01*
X186494759Y-101635715D01*
X186494753Y-101635717D01*
X186287250Y-101732477D01*
X186099703Y-101863799D01*
X186099697Y-101863804D01*
X185937804Y-102025697D01*
X185937799Y-102025703D01*
X185806477Y-102213250D01*
X185709717Y-102420753D01*
X185709715Y-102420759D01*
X185703407Y-102444302D01*
X185650457Y-102641913D01*
X185630502Y-102870000D01*
X178097498Y-102870000D01*
X178077543Y-102641913D01*
X178018284Y-102420757D01*
X177921523Y-102213251D01*
X177790198Y-102025700D01*
X177628300Y-101863802D01*
X177602313Y-101845606D01*
X177440749Y-101732477D01*
X177233246Y-101635717D01*
X177233240Y-101635715D01*
X177139771Y-101610670D01*
X177012087Y-101576457D01*
X176784000Y-101556502D01*
X176555913Y-101576457D01*
X176334759Y-101635715D01*
X176334753Y-101635717D01*
X176127250Y-101732477D01*
X175939703Y-101863799D01*
X175939697Y-101863804D01*
X175777804Y-102025697D01*
X175777797Y-102025706D01*
X175755344Y-102057772D01*
X175699887Y-102102100D01*
X175652132Y-102111500D01*
X167434871Y-102111500D01*
X167366750Y-102091498D01*
X167345776Y-102074595D01*
X166530405Y-101259224D01*
X166496379Y-101196912D01*
X166493500Y-101170129D01*
X166493500Y-99617726D01*
X166513502Y-99549605D01*
X166542106Y-99518297D01*
X166658240Y-99427906D01*
X166810722Y-99262268D01*
X166899518Y-99126354D01*
X166953520Y-99080268D01*
X167023868Y-99070692D01*
X167088225Y-99100669D01*
X167110480Y-99126353D01*
X167138294Y-99168925D01*
X167199275Y-99262265D01*
X167199279Y-99262270D01*
X167351762Y-99427908D01*
X167396202Y-99462497D01*
X167529424Y-99566189D01*
X167727426Y-99673342D01*
X167727427Y-99673342D01*
X167727428Y-99673343D01*
X167839227Y-99711723D01*
X167940365Y-99746444D01*
X168162431Y-99783500D01*
X168162435Y-99783500D01*
X168387565Y-99783500D01*
X168387569Y-99783500D01*
X168609635Y-99746444D01*
X168822574Y-99673342D01*
X169020576Y-99566189D01*
X169198240Y-99427906D01*
X169350722Y-99262268D01*
X169364890Y-99240583D01*
X169418895Y-99194495D01*
X169470372Y-99183500D01*
X170889701Y-99183500D01*
X170889705Y-99183500D01*
X170889706Y-99183500D01*
X170962976Y-99168925D01*
X171036247Y-99154351D01*
X171174284Y-99097174D01*
X171229919Y-99060000D01*
X175470502Y-99060000D01*
X175480890Y-99178741D01*
X175490457Y-99288086D01*
X175549715Y-99509240D01*
X175549717Y-99509246D01*
X175646477Y-99716749D01*
X175769959Y-99893100D01*
X175777802Y-99904300D01*
X175939700Y-100066198D01*
X176127251Y-100197523D01*
X176334757Y-100294284D01*
X176555913Y-100353543D01*
X176784000Y-100373498D01*
X177012087Y-100353543D01*
X177233243Y-100294284D01*
X177440749Y-100197523D01*
X177628300Y-100066198D01*
X177790198Y-99904300D01*
X177921523Y-99716749D01*
X178018284Y-99509243D01*
X178077543Y-99288087D01*
X178097498Y-99060000D01*
X185630502Y-99060000D01*
X185640890Y-99178741D01*
X185650457Y-99288086D01*
X185709715Y-99509240D01*
X185709717Y-99509246D01*
X185806477Y-99716749D01*
X185929959Y-99893100D01*
X185937802Y-99904300D01*
X186099700Y-100066198D01*
X186287251Y-100197523D01*
X186494757Y-100294284D01*
X186715913Y-100353543D01*
X186944000Y-100373498D01*
X187172087Y-100353543D01*
X187393243Y-100294284D01*
X187600749Y-100197523D01*
X187788300Y-100066198D01*
X187950198Y-99904300D01*
X188081523Y-99716749D01*
X188178284Y-99509243D01*
X188237543Y-99288087D01*
X188257498Y-99060000D01*
X188237543Y-98831913D01*
X188178284Y-98610757D01*
X188081523Y-98403251D01*
X187950198Y-98215700D01*
X187788300Y-98053802D01*
X187600749Y-97922477D01*
X187560949Y-97903918D01*
X187393246Y-97825717D01*
X187393240Y-97825715D01*
X187256225Y-97789002D01*
X187172087Y-97766457D01*
X186944000Y-97746502D01*
X186715913Y-97766457D01*
X186494759Y-97825715D01*
X186494753Y-97825717D01*
X186287250Y-97922477D01*
X186099703Y-98053799D01*
X186099697Y-98053804D01*
X185937804Y-98215697D01*
X185937799Y-98215703D01*
X185806477Y-98403250D01*
X185709717Y-98610753D01*
X185709716Y-98610757D01*
X185650457Y-98831913D01*
X185630502Y-99060000D01*
X178097498Y-99060000D01*
X178077543Y-98831913D01*
X178018284Y-98610757D01*
X177921523Y-98403251D01*
X177790198Y-98215700D01*
X177628300Y-98053802D01*
X177440749Y-97922477D01*
X177400949Y-97903918D01*
X177233246Y-97825717D01*
X177233240Y-97825715D01*
X177096225Y-97789002D01*
X177012087Y-97766457D01*
X176784000Y-97746502D01*
X176555913Y-97766457D01*
X176334759Y-97825715D01*
X176334753Y-97825717D01*
X176127250Y-97922477D01*
X175939703Y-98053799D01*
X175939697Y-98053804D01*
X175777804Y-98215697D01*
X175777799Y-98215703D01*
X175646477Y-98403250D01*
X175549717Y-98610753D01*
X175549716Y-98610757D01*
X175490457Y-98831913D01*
X175470502Y-99060000D01*
X171229919Y-99060000D01*
X171298515Y-99014166D01*
X172801165Y-97511516D01*
X172860915Y-97422094D01*
X172884174Y-97387284D01*
X172941351Y-97249246D01*
X172970500Y-97102706D01*
X172970500Y-96520000D01*
X190202502Y-96520000D01*
X190222457Y-96748087D01*
X190236658Y-96801086D01*
X190281715Y-96969240D01*
X190281717Y-96969246D01*
X190378477Y-97176749D01*
X190490951Y-97337379D01*
X190509802Y-97364300D01*
X190671700Y-97526198D01*
X190859251Y-97657523D01*
X190882742Y-97668477D01*
X190898457Y-97675805D01*
X190951742Y-97722722D01*
X190971203Y-97790999D01*
X190950661Y-97858959D01*
X190898457Y-97904195D01*
X190859250Y-97922477D01*
X190671703Y-98053799D01*
X190671697Y-98053804D01*
X190509804Y-98215697D01*
X190509799Y-98215703D01*
X190378477Y-98403250D01*
X190281717Y-98610753D01*
X190281716Y-98610757D01*
X190222457Y-98831913D01*
X190202502Y-99060000D01*
X190212890Y-99178741D01*
X190222457Y-99288086D01*
X190281715Y-99509240D01*
X190281717Y-99509246D01*
X190378477Y-99716749D01*
X190501959Y-99893100D01*
X190509802Y-99904300D01*
X190671700Y-100066198D01*
X190859251Y-100197523D01*
X191066757Y-100294284D01*
X191287913Y-100353543D01*
X191516000Y-100373498D01*
X191744087Y-100353543D01*
X191965243Y-100294284D01*
X192172749Y-100197523D01*
X192360300Y-100066198D01*
X192522198Y-99904300D01*
X192653523Y-99716749D01*
X192750284Y-99509243D01*
X192809543Y-99288087D01*
X192829498Y-99060000D01*
X192809543Y-98831913D01*
X192750284Y-98610757D01*
X192653523Y-98403251D01*
X192522198Y-98215700D01*
X192360300Y-98053802D01*
X192172749Y-97922477D01*
X192133543Y-97904195D01*
X192080258Y-97857279D01*
X192060796Y-97789002D01*
X192081337Y-97721042D01*
X192133543Y-97675805D01*
X192135997Y-97674660D01*
X192172749Y-97657523D01*
X192360300Y-97526198D01*
X192522198Y-97364300D01*
X192653523Y-97176749D01*
X192750284Y-96969243D01*
X192809543Y-96748087D01*
X192829498Y-96520000D01*
X192809543Y-96291913D01*
X192750284Y-96070757D01*
X192653523Y-95863251D01*
X192522198Y-95675700D01*
X192360300Y-95513802D01*
X192172749Y-95382477D01*
X192172747Y-95382476D01*
X191965246Y-95285717D01*
X191965240Y-95285715D01*
X191828225Y-95249002D01*
X191744087Y-95226457D01*
X191516000Y-95206502D01*
X191287913Y-95226457D01*
X191066759Y-95285715D01*
X191066753Y-95285717D01*
X190859250Y-95382477D01*
X190671703Y-95513799D01*
X190671697Y-95513804D01*
X190509804Y-95675697D01*
X190509799Y-95675703D01*
X190378477Y-95863250D01*
X190281717Y-96070753D01*
X190281715Y-96070759D01*
X190235239Y-96244210D01*
X190222457Y-96291913D01*
X190202502Y-96520000D01*
X172970500Y-96520000D01*
X172970500Y-91365294D01*
X172941351Y-91218754D01*
X172938517Y-91211913D01*
X172933549Y-91199920D01*
X172914217Y-91153246D01*
X172900446Y-91120000D01*
X172884174Y-91080716D01*
X172801165Y-90956484D01*
X172776681Y-90932000D01*
X175470502Y-90932000D01*
X175490457Y-91160087D01*
X175501130Y-91199920D01*
X175549715Y-91381240D01*
X175549717Y-91381246D01*
X175646477Y-91588749D01*
X175702029Y-91668086D01*
X175777802Y-91776300D01*
X175939700Y-91938198D01*
X175971770Y-91960653D01*
X176016099Y-92016110D01*
X176025500Y-92063867D01*
X176025500Y-92848132D01*
X176005498Y-92916253D01*
X175971772Y-92951344D01*
X175939706Y-92973797D01*
X175939697Y-92973804D01*
X175777804Y-93135697D01*
X175777799Y-93135703D01*
X175646477Y-93323250D01*
X175549717Y-93530753D01*
X175549715Y-93530759D01*
X175490457Y-93751913D01*
X175470502Y-93980000D01*
X175490457Y-94208086D01*
X175549715Y-94429240D01*
X175549717Y-94429246D01*
X175646477Y-94636749D01*
X175732848Y-94760100D01*
X175777802Y-94824300D01*
X175939700Y-94986198D01*
X176127251Y-95117523D01*
X176334757Y-95214284D01*
X176555913Y-95273543D01*
X176784000Y-95293498D01*
X177012087Y-95273543D01*
X177233243Y-95214284D01*
X177440749Y-95117523D01*
X177628300Y-94986198D01*
X177790198Y-94824300D01*
X177921523Y-94636749D01*
X178018284Y-94429243D01*
X178077543Y-94208087D01*
X178097498Y-93980000D01*
X178077543Y-93751913D01*
X178018284Y-93530757D01*
X177921523Y-93323251D01*
X177790198Y-93135700D01*
X177628300Y-92973802D01*
X177628293Y-92973797D01*
X177596228Y-92951344D01*
X177551900Y-92895887D01*
X177542500Y-92848132D01*
X177542500Y-92063867D01*
X177562502Y-91995746D01*
X177596228Y-91960654D01*
X177628300Y-91938198D01*
X177790198Y-91776300D01*
X177921523Y-91588749D01*
X178018284Y-91381243D01*
X178077543Y-91160087D01*
X178097498Y-90932000D01*
X178077543Y-90703913D01*
X178018284Y-90482757D01*
X177921523Y-90275251D01*
X177790198Y-90087700D01*
X177628300Y-89925802D01*
X177628293Y-89925797D01*
X177596228Y-89903344D01*
X177551900Y-89847887D01*
X177542500Y-89800132D01*
X177542500Y-89266371D01*
X177562502Y-89198250D01*
X177579405Y-89177276D01*
X177931391Y-88825290D01*
X183645500Y-88825290D01*
X183645500Y-93292707D01*
X183651576Y-93323251D01*
X183674649Y-93439247D01*
X183731826Y-93577284D01*
X183814834Y-93701515D01*
X184682485Y-94569166D01*
X184783494Y-94636657D01*
X184783495Y-94636659D01*
X184806713Y-94652172D01*
X184806716Y-94652174D01*
X184944754Y-94709351D01*
X185091294Y-94738500D01*
X185091295Y-94738500D01*
X185240705Y-94738500D01*
X185512629Y-94738500D01*
X185580750Y-94758502D01*
X185627243Y-94812158D01*
X185637907Y-94851032D01*
X185642009Y-94889196D01*
X185642011Y-94889204D01*
X185693110Y-95026202D01*
X185693112Y-95026207D01*
X185780738Y-95143261D01*
X185897792Y-95230887D01*
X185897794Y-95230888D01*
X185897796Y-95230889D01*
X185952447Y-95251273D01*
X186034795Y-95281988D01*
X186034803Y-95281990D01*
X186095350Y-95288499D01*
X186095355Y-95288499D01*
X186095362Y-95288500D01*
X186095368Y-95288500D01*
X187792632Y-95288500D01*
X187792638Y-95288500D01*
X187792645Y-95288499D01*
X187792649Y-95288499D01*
X187853196Y-95281990D01*
X187853199Y-95281989D01*
X187853201Y-95281989D01*
X187990204Y-95230889D01*
X187996125Y-95226457D01*
X188107261Y-95143261D01*
X188194887Y-95026207D01*
X188194887Y-95026206D01*
X188194889Y-95026204D01*
X188245989Y-94889201D01*
X188246754Y-94882091D01*
X188252499Y-94828649D01*
X188252500Y-94828632D01*
X188252500Y-93980000D01*
X193758502Y-93980000D01*
X193778457Y-94208086D01*
X193837715Y-94429240D01*
X193837717Y-94429246D01*
X193934477Y-94636749D01*
X194020848Y-94760100D01*
X194065802Y-94824300D01*
X194227700Y-94986198D01*
X194415251Y-95117523D01*
X194422991Y-95121132D01*
X194454457Y-95135805D01*
X194507742Y-95182722D01*
X194527203Y-95250999D01*
X194506661Y-95318959D01*
X194454457Y-95364195D01*
X194415250Y-95382477D01*
X194227703Y-95513799D01*
X194227697Y-95513804D01*
X194065804Y-95675697D01*
X194065799Y-95675703D01*
X193934477Y-95863250D01*
X193837717Y-96070753D01*
X193837715Y-96070759D01*
X193791239Y-96244210D01*
X193778457Y-96291913D01*
X193758502Y-96520000D01*
X193778457Y-96748087D01*
X193792658Y-96801086D01*
X193837715Y-96969240D01*
X193837717Y-96969246D01*
X193934477Y-97176749D01*
X194046951Y-97337379D01*
X194065802Y-97364300D01*
X194227700Y-97526198D01*
X194415251Y-97657523D01*
X194438742Y-97668477D01*
X194454457Y-97675805D01*
X194507742Y-97722722D01*
X194527203Y-97790999D01*
X194506661Y-97858959D01*
X194454457Y-97904195D01*
X194415250Y-97922477D01*
X194227703Y-98053799D01*
X194227697Y-98053804D01*
X194065804Y-98215697D01*
X194065799Y-98215703D01*
X193934477Y-98403250D01*
X193837717Y-98610753D01*
X193837716Y-98610757D01*
X193778457Y-98831913D01*
X193758502Y-99060000D01*
X193768890Y-99178741D01*
X193778457Y-99288086D01*
X193837715Y-99509240D01*
X193837717Y-99509246D01*
X193934477Y-99716749D01*
X194057959Y-99893100D01*
X194065802Y-99904300D01*
X194227700Y-100066198D01*
X194415251Y-100197523D01*
X194450359Y-100213894D01*
X194454457Y-100215805D01*
X194507742Y-100262722D01*
X194527203Y-100330999D01*
X194506661Y-100398959D01*
X194454457Y-100444195D01*
X194415250Y-100462477D01*
X194227703Y-100593799D01*
X194227697Y-100593804D01*
X194065804Y-100755697D01*
X194065799Y-100755703D01*
X193934477Y-100943250D01*
X193837717Y-101150753D01*
X193837715Y-101150759D01*
X193783151Y-101354394D01*
X193778457Y-101371913D01*
X193758502Y-101600000D01*
X193778457Y-101828087D01*
X193796597Y-101895785D01*
X193837715Y-102049240D01*
X193837717Y-102049246D01*
X193934477Y-102256749D01*
X193990029Y-102336086D01*
X194065802Y-102444300D01*
X194227700Y-102606198D01*
X194415251Y-102737523D01*
X194450359Y-102753894D01*
X194454457Y-102755805D01*
X194507742Y-102802722D01*
X194527203Y-102870999D01*
X194506661Y-102938959D01*
X194454457Y-102984195D01*
X194415250Y-103002477D01*
X194227703Y-103133799D01*
X194227697Y-103133804D01*
X194065804Y-103295697D01*
X194065799Y-103295703D01*
X193934477Y-103483250D01*
X193837717Y-103690753D01*
X193837715Y-103690759D01*
X193788028Y-103876195D01*
X193778457Y-103911913D01*
X193758502Y-104140000D01*
X193778457Y-104368087D01*
X193795781Y-104432741D01*
X193837715Y-104589240D01*
X193837717Y-104589246D01*
X193934477Y-104796749D01*
X194031106Y-104934750D01*
X194065802Y-104984300D01*
X194227700Y-105146198D01*
X194415251Y-105277523D01*
X194450181Y-105293811D01*
X194454457Y-105295805D01*
X194507742Y-105342722D01*
X194527203Y-105410999D01*
X194506661Y-105478959D01*
X194454457Y-105524195D01*
X194415250Y-105542477D01*
X194227703Y-105673799D01*
X194227697Y-105673804D01*
X194065804Y-105835697D01*
X194065799Y-105835703D01*
X193934477Y-106023250D01*
X193837717Y-106230753D01*
X193837715Y-106230759D01*
X193778457Y-106451913D01*
X193758502Y-106680000D01*
X193778457Y-106908086D01*
X193837715Y-107129240D01*
X193837717Y-107129246D01*
X193934477Y-107336749D01*
X193985311Y-107409348D01*
X194065802Y-107524300D01*
X194227700Y-107686198D01*
X194415251Y-107817523D01*
X194622757Y-107914284D01*
X194843913Y-107973543D01*
X195072000Y-107993498D01*
X195300087Y-107973543D01*
X195521243Y-107914284D01*
X195728749Y-107817523D01*
X195916300Y-107686198D01*
X196078198Y-107524300D01*
X196089618Y-107507990D01*
X196100656Y-107492228D01*
X196156113Y-107447900D01*
X196203868Y-107438500D01*
X196416701Y-107438500D01*
X196416705Y-107438500D01*
X196416706Y-107438500D01*
X196489976Y-107423925D01*
X196563247Y-107409351D01*
X196701284Y-107352174D01*
X196825515Y-107269166D01*
X197820166Y-106274515D01*
X197903174Y-106150284D01*
X197960351Y-106012247D01*
X197985592Y-105885351D01*
X197989500Y-105865706D01*
X197989500Y-99747294D01*
X197960351Y-99600754D01*
X197903174Y-99462716D01*
X197820165Y-99338484D01*
X197714516Y-99232835D01*
X196952515Y-98470834D01*
X196828284Y-98387826D01*
X196690247Y-98330649D01*
X196616976Y-98316074D01*
X196616975Y-98316073D01*
X196543711Y-98301500D01*
X196543706Y-98301500D01*
X196203868Y-98301500D01*
X196135747Y-98281498D01*
X196100656Y-98247772D01*
X196078202Y-98215706D01*
X196078200Y-98215703D01*
X196078198Y-98215700D01*
X195916300Y-98053802D01*
X195728749Y-97922477D01*
X195689543Y-97904195D01*
X195636258Y-97857279D01*
X195616796Y-97789002D01*
X195637337Y-97721042D01*
X195689543Y-97675805D01*
X195691997Y-97674660D01*
X195728749Y-97657523D01*
X195916300Y-97526198D01*
X196078198Y-97364300D01*
X196209523Y-97176749D01*
X196306284Y-96969243D01*
X196365543Y-96748087D01*
X196385498Y-96520000D01*
X196365543Y-96291913D01*
X196306284Y-96070757D01*
X196209523Y-95863251D01*
X196078198Y-95675700D01*
X195916300Y-95513802D01*
X195728749Y-95382477D01*
X195690130Y-95364469D01*
X195689543Y-95364195D01*
X195636258Y-95317279D01*
X195616796Y-95249002D01*
X195637337Y-95181042D01*
X195689543Y-95135805D01*
X195700750Y-95130579D01*
X195728749Y-95117523D01*
X195916300Y-94986198D01*
X196078198Y-94824300D01*
X196209523Y-94636749D01*
X196306284Y-94429243D01*
X196365543Y-94208087D01*
X196385498Y-93980000D01*
X196365543Y-93751913D01*
X196306284Y-93530757D01*
X196209523Y-93323251D01*
X196078198Y-93135700D01*
X195916300Y-92973802D01*
X195916293Y-92973797D01*
X195916292Y-92973796D01*
X195912995Y-92971487D01*
X195868669Y-92916028D01*
X195861363Y-92845409D01*
X195893396Y-92782049D01*
X195954599Y-92746067D01*
X195971801Y-92742999D01*
X195981201Y-92741989D01*
X196118204Y-92690889D01*
X196124125Y-92686457D01*
X196235261Y-92603261D01*
X196322887Y-92486207D01*
X196322887Y-92486206D01*
X196322889Y-92486204D01*
X196373989Y-92349201D01*
X196374119Y-92348000D01*
X196380499Y-92288649D01*
X196380500Y-92288632D01*
X196380500Y-90591367D01*
X196380499Y-90591350D01*
X196373990Y-90530803D01*
X196373988Y-90530795D01*
X196337811Y-90433804D01*
X196322889Y-90393796D01*
X196322888Y-90393794D01*
X196322887Y-90393792D01*
X196235261Y-90276738D01*
X196118207Y-90189112D01*
X196118202Y-90189110D01*
X195981204Y-90138011D01*
X195981196Y-90138009D01*
X195920649Y-90131500D01*
X195920638Y-90131500D01*
X194223362Y-90131500D01*
X194223350Y-90131500D01*
X194162803Y-90138009D01*
X194162795Y-90138011D01*
X194025797Y-90189110D01*
X194025792Y-90189112D01*
X193908738Y-90276738D01*
X193821112Y-90393792D01*
X193821110Y-90393797D01*
X193770011Y-90530795D01*
X193770009Y-90530803D01*
X193763500Y-90591350D01*
X193763500Y-92288649D01*
X193770009Y-92349196D01*
X193770011Y-92349204D01*
X193821110Y-92486202D01*
X193821112Y-92486207D01*
X193908738Y-92603261D01*
X194025792Y-92690887D01*
X194025794Y-92690888D01*
X194025796Y-92690889D01*
X194162799Y-92741989D01*
X194172191Y-92742998D01*
X194237784Y-92770163D01*
X194278279Y-92828479D01*
X194280817Y-92899430D01*
X194244593Y-92960490D01*
X194231010Y-92971483D01*
X194227708Y-92973795D01*
X194227697Y-92973804D01*
X194065804Y-93135697D01*
X194065799Y-93135703D01*
X193934477Y-93323250D01*
X193837717Y-93530753D01*
X193837715Y-93530759D01*
X193778457Y-93751913D01*
X193758502Y-93980000D01*
X188252500Y-93980000D01*
X188252500Y-93131367D01*
X188252499Y-93131350D01*
X188245990Y-93070803D01*
X188245988Y-93070795D01*
X188209811Y-92973804D01*
X188194889Y-92933796D01*
X188194888Y-92933794D01*
X188194887Y-92933792D01*
X188107261Y-92816738D01*
X187990207Y-92729112D01*
X187990202Y-92729110D01*
X187853204Y-92678011D01*
X187853196Y-92678009D01*
X187792649Y-92671500D01*
X187792638Y-92671500D01*
X186095362Y-92671500D01*
X186095350Y-92671500D01*
X186034803Y-92678009D01*
X186034795Y-92678011D01*
X185897797Y-92729110D01*
X185897792Y-92729112D01*
X185780738Y-92816738D01*
X185693112Y-92933792D01*
X185693110Y-92933797D01*
X185642011Y-93070795D01*
X185642010Y-93070802D01*
X185639823Y-93091144D01*
X185612653Y-93156736D01*
X185554335Y-93197226D01*
X185483383Y-93199760D01*
X185425450Y-93166769D01*
X185199405Y-92940724D01*
X185165379Y-92878412D01*
X185162500Y-92851629D01*
X185162500Y-90083350D01*
X185635500Y-90083350D01*
X185635500Y-91780649D01*
X185642009Y-91841196D01*
X185642011Y-91841204D01*
X185693110Y-91978202D01*
X185693112Y-91978207D01*
X185780738Y-92095261D01*
X185897792Y-92182887D01*
X185897794Y-92182888D01*
X185897796Y-92182889D01*
X185949034Y-92202000D01*
X186034795Y-92233988D01*
X186034803Y-92233990D01*
X186095350Y-92240499D01*
X186095355Y-92240499D01*
X186095362Y-92240500D01*
X186095368Y-92240500D01*
X187792632Y-92240500D01*
X187792638Y-92240500D01*
X187792645Y-92240499D01*
X187792649Y-92240499D01*
X187853196Y-92233990D01*
X187853199Y-92233989D01*
X187853201Y-92233989D01*
X187990204Y-92182889D01*
X187998738Y-92176501D01*
X188107261Y-92095261D01*
X188194887Y-91978207D01*
X188194887Y-91978206D01*
X188194889Y-91978204D01*
X188245989Y-91841201D01*
X188249734Y-91806371D01*
X188252499Y-91780649D01*
X188252500Y-91780632D01*
X188252500Y-91520000D01*
X190203004Y-91520000D01*
X190222951Y-91748002D01*
X190282186Y-91969068D01*
X190282188Y-91969073D01*
X190378913Y-92176501D01*
X190428899Y-92247888D01*
X191116000Y-91560788D01*
X191116000Y-91572661D01*
X191143259Y-91674394D01*
X191195920Y-91765606D01*
X191270394Y-91840080D01*
X191361606Y-91892741D01*
X191463339Y-91920000D01*
X191475210Y-91920000D01*
X190788110Y-92607098D01*
X190788110Y-92607100D01*
X190859498Y-92657086D01*
X191066926Y-92753811D01*
X191066931Y-92753813D01*
X191287999Y-92813048D01*
X191287995Y-92813048D01*
X191516000Y-92832995D01*
X191744002Y-92813048D01*
X191965068Y-92753813D01*
X191965073Y-92753811D01*
X192172497Y-92657088D01*
X192243888Y-92607099D01*
X192243888Y-92607097D01*
X191556791Y-91920000D01*
X191568661Y-91920000D01*
X191670394Y-91892741D01*
X191761606Y-91840080D01*
X191836080Y-91765606D01*
X191888741Y-91674394D01*
X191916000Y-91572661D01*
X191916000Y-91560791D01*
X192603097Y-92247888D01*
X192603099Y-92247888D01*
X192653088Y-92176497D01*
X192749811Y-91969073D01*
X192749813Y-91969068D01*
X192809048Y-91748002D01*
X192828995Y-91520000D01*
X192809048Y-91291997D01*
X192749813Y-91070931D01*
X192749811Y-91070926D01*
X192653086Y-90863498D01*
X192603100Y-90792110D01*
X192603098Y-90792110D01*
X191916000Y-91479208D01*
X191916000Y-91467339D01*
X191888741Y-91365606D01*
X191836080Y-91274394D01*
X191761606Y-91199920D01*
X191670394Y-91147259D01*
X191568661Y-91120000D01*
X191556790Y-91120000D01*
X192243888Y-90432899D01*
X192243888Y-90432898D01*
X192172501Y-90382913D01*
X191965073Y-90286188D01*
X191965068Y-90286186D01*
X191744000Y-90226951D01*
X191744004Y-90226951D01*
X191516000Y-90207004D01*
X191287997Y-90226951D01*
X191066931Y-90286186D01*
X191066926Y-90286188D01*
X190859500Y-90382913D01*
X190788109Y-90432900D01*
X191475209Y-91120000D01*
X191463339Y-91120000D01*
X191361606Y-91147259D01*
X191270394Y-91199920D01*
X191195920Y-91274394D01*
X191143259Y-91365606D01*
X191116000Y-91467339D01*
X191116000Y-91479209D01*
X190428900Y-90792109D01*
X190378913Y-90863500D01*
X190282188Y-91070926D01*
X190282186Y-91070931D01*
X190222951Y-91291997D01*
X190203004Y-91520000D01*
X188252500Y-91520000D01*
X188252500Y-90083367D01*
X188252499Y-90083350D01*
X204939500Y-90083350D01*
X204939500Y-91780649D01*
X204946009Y-91841196D01*
X204946011Y-91841204D01*
X204997110Y-91978202D01*
X204997112Y-91978207D01*
X205084738Y-92095261D01*
X205201792Y-92182887D01*
X205201794Y-92182888D01*
X205201796Y-92182889D01*
X205253034Y-92202000D01*
X205338795Y-92233988D01*
X205338803Y-92233990D01*
X205399350Y-92240499D01*
X205399355Y-92240499D01*
X205399362Y-92240500D01*
X205399368Y-92240500D01*
X207096632Y-92240500D01*
X207096638Y-92240500D01*
X207096645Y-92240499D01*
X207096649Y-92240499D01*
X207157196Y-92233990D01*
X207157199Y-92233989D01*
X207157201Y-92233989D01*
X207294204Y-92182889D01*
X207302738Y-92176501D01*
X207411261Y-92095261D01*
X207498887Y-91978207D01*
X207498887Y-91978206D01*
X207498889Y-91978204D01*
X207549989Y-91841201D01*
X207553734Y-91806371D01*
X207556499Y-91780649D01*
X207556500Y-91780632D01*
X207556500Y-90932000D01*
X215094502Y-90932000D01*
X215114457Y-91160087D01*
X215125130Y-91199920D01*
X215173715Y-91381240D01*
X215173717Y-91381246D01*
X215270477Y-91588749D01*
X215326029Y-91668086D01*
X215401802Y-91776300D01*
X215563700Y-91938198D01*
X215751251Y-92069523D01*
X215958757Y-92166284D01*
X216179913Y-92225543D01*
X216408000Y-92245498D01*
X216636087Y-92225543D01*
X216857243Y-92166284D01*
X217064749Y-92069523D01*
X217252300Y-91938198D01*
X217414198Y-91776300D01*
X217545523Y-91588749D01*
X217642284Y-91381243D01*
X217701543Y-91160087D01*
X217721498Y-90932000D01*
X217701543Y-90703913D01*
X217642284Y-90482757D01*
X217545523Y-90275251D01*
X217414198Y-90087700D01*
X217252300Y-89925802D01*
X217064749Y-89794477D01*
X216857246Y-89697717D01*
X216857240Y-89697715D01*
X216710884Y-89658499D01*
X216636087Y-89638457D01*
X216408000Y-89618502D01*
X216179913Y-89638457D01*
X215958759Y-89697715D01*
X215958753Y-89697717D01*
X215751250Y-89794477D01*
X215563703Y-89925799D01*
X215563697Y-89925804D01*
X215401804Y-90087697D01*
X215401799Y-90087703D01*
X215270477Y-90275250D01*
X215173717Y-90482753D01*
X215173715Y-90482759D01*
X215143453Y-90595700D01*
X215114457Y-90703913D01*
X215094502Y-90932000D01*
X207556500Y-90932000D01*
X207556500Y-90083367D01*
X207556499Y-90083350D01*
X207549990Y-90022803D01*
X207549988Y-90022795D01*
X207513811Y-89925804D01*
X207498889Y-89885796D01*
X207498888Y-89885794D01*
X207498887Y-89885792D01*
X207411261Y-89768738D01*
X207294207Y-89681112D01*
X207294202Y-89681110D01*
X207157204Y-89630011D01*
X207157196Y-89630009D01*
X207096649Y-89623500D01*
X207096638Y-89623500D01*
X205399362Y-89623500D01*
X205399350Y-89623500D01*
X205338803Y-89630009D01*
X205338795Y-89630011D01*
X205201797Y-89681110D01*
X205201792Y-89681112D01*
X205084738Y-89768738D01*
X204997112Y-89885792D01*
X204997110Y-89885797D01*
X204946011Y-90022795D01*
X204946009Y-90022803D01*
X204939500Y-90083350D01*
X188252499Y-90083350D01*
X188245990Y-90022803D01*
X188245988Y-90022795D01*
X188209811Y-89925804D01*
X188194889Y-89885796D01*
X188194888Y-89885794D01*
X188194887Y-89885792D01*
X188107261Y-89768738D01*
X187990207Y-89681112D01*
X187990202Y-89681110D01*
X187853204Y-89630011D01*
X187853196Y-89630009D01*
X187792649Y-89623500D01*
X187792638Y-89623500D01*
X186095362Y-89623500D01*
X186095350Y-89623500D01*
X186034803Y-89630009D01*
X186034795Y-89630011D01*
X185897797Y-89681110D01*
X185897792Y-89681112D01*
X185780738Y-89768738D01*
X185693112Y-89885792D01*
X185693110Y-89885797D01*
X185642011Y-90022795D01*
X185642009Y-90022803D01*
X185635500Y-90083350D01*
X185162500Y-90083350D01*
X185162500Y-89266371D01*
X185182502Y-89198250D01*
X185199405Y-89177276D01*
X185697931Y-88678750D01*
X186263165Y-88113516D01*
X186346173Y-87989285D01*
X186346174Y-87989284D01*
X186403351Y-87851246D01*
X186432500Y-87704706D01*
X186432500Y-86983867D01*
X186452502Y-86915746D01*
X186486228Y-86880654D01*
X186518300Y-86858198D01*
X186680198Y-86696300D01*
X186811523Y-86508749D01*
X186908284Y-86301243D01*
X186967543Y-86080087D01*
X186987498Y-85852000D01*
X187916502Y-85852000D01*
X187936457Y-86080087D01*
X187945809Y-86114989D01*
X187995715Y-86301240D01*
X187995717Y-86301246D01*
X188042699Y-86402000D01*
X188092477Y-86508749D01*
X188223802Y-86696300D01*
X188385700Y-86858198D01*
X188573251Y-86989523D01*
X188780757Y-87086284D01*
X189001913Y-87145543D01*
X189230000Y-87165498D01*
X189458087Y-87145543D01*
X189679243Y-87086284D01*
X189886749Y-86989523D01*
X190074300Y-86858198D01*
X190236198Y-86696300D01*
X190367523Y-86508749D01*
X190464284Y-86301243D01*
X190523543Y-86080087D01*
X190543498Y-85852000D01*
X190523543Y-85623913D01*
X190464284Y-85402757D01*
X190367523Y-85195251D01*
X190236198Y-85007700D01*
X190074300Y-84845802D01*
X189886749Y-84714477D01*
X189864455Y-84704081D01*
X189679246Y-84617717D01*
X189679240Y-84617715D01*
X189523371Y-84575950D01*
X189458087Y-84558457D01*
X189230000Y-84538502D01*
X189001913Y-84558457D01*
X188780759Y-84617715D01*
X188780753Y-84617717D01*
X188573250Y-84714477D01*
X188385703Y-84845799D01*
X188385697Y-84845804D01*
X188223804Y-85007697D01*
X188223799Y-85007703D01*
X188092477Y-85195250D01*
X187995717Y-85402753D01*
X187995715Y-85402759D01*
X187992314Y-85415453D01*
X187936457Y-85623913D01*
X187916502Y-85852000D01*
X186987498Y-85852000D01*
X186967543Y-85623913D01*
X186908284Y-85402757D01*
X186811523Y-85195251D01*
X186680198Y-85007700D01*
X186518300Y-84845802D01*
X186330749Y-84714477D01*
X186308455Y-84704081D01*
X186123246Y-84617717D01*
X186123240Y-84617715D01*
X185967371Y-84575950D01*
X185902087Y-84558457D01*
X185674000Y-84538502D01*
X185445913Y-84558457D01*
X185224759Y-84617715D01*
X185224753Y-84617717D01*
X185017250Y-84714477D01*
X184829703Y-84845799D01*
X184829697Y-84845804D01*
X184667804Y-85007697D01*
X184667799Y-85007703D01*
X184536477Y-85195250D01*
X184439717Y-85402753D01*
X184439715Y-85402759D01*
X184436314Y-85415453D01*
X184380457Y-85623913D01*
X184360502Y-85852000D01*
X184380457Y-86080087D01*
X184389809Y-86114989D01*
X184439715Y-86301240D01*
X184439717Y-86301246D01*
X184486699Y-86402000D01*
X184536477Y-86508749D01*
X184667802Y-86696300D01*
X184829700Y-86858198D01*
X184861770Y-86880653D01*
X184906099Y-86936110D01*
X184915500Y-86983867D01*
X184915500Y-87263629D01*
X184895498Y-87331750D01*
X184878595Y-87352724D01*
X183814837Y-88416481D01*
X183814832Y-88416488D01*
X183731826Y-88540715D01*
X183674650Y-88678750D01*
X183674649Y-88678753D01*
X183645500Y-88825290D01*
X177931391Y-88825290D01*
X178077931Y-88678750D01*
X178643165Y-88113516D01*
X178726173Y-87989285D01*
X178726174Y-87989284D01*
X178783351Y-87851246D01*
X178812500Y-87704706D01*
X178812500Y-86983867D01*
X178832502Y-86915746D01*
X178866228Y-86880654D01*
X178898300Y-86858198D01*
X179060198Y-86696300D01*
X179191523Y-86508749D01*
X179288284Y-86301243D01*
X179347543Y-86080087D01*
X179366387Y-85864700D01*
X180804502Y-85864700D01*
X180824457Y-86092787D01*
X180833876Y-86127940D01*
X180883715Y-86313940D01*
X180883717Y-86313946D01*
X180980477Y-86521449D01*
X181102906Y-86696296D01*
X181111802Y-86709000D01*
X181273700Y-86870898D01*
X181461251Y-87002223D01*
X181668757Y-87098984D01*
X181889913Y-87158243D01*
X182118000Y-87178198D01*
X182346087Y-87158243D01*
X182567243Y-87098984D01*
X182774749Y-87002223D01*
X182962300Y-86870898D01*
X183124198Y-86709000D01*
X183255523Y-86521449D01*
X183352284Y-86313943D01*
X183411543Y-86092787D01*
X183431498Y-85864700D01*
X183411543Y-85636613D01*
X183352284Y-85415457D01*
X183255523Y-85207951D01*
X183124198Y-85020400D01*
X182962300Y-84858502D01*
X182944165Y-84845804D01*
X182774749Y-84727177D01*
X182567246Y-84630417D01*
X182567240Y-84630415D01*
X182405019Y-84586948D01*
X182346087Y-84571157D01*
X182118000Y-84551202D01*
X181889913Y-84571157D01*
X181668759Y-84630415D01*
X181668753Y-84630417D01*
X181461250Y-84727177D01*
X181273703Y-84858499D01*
X181273697Y-84858504D01*
X181111804Y-85020397D01*
X181111799Y-85020403D01*
X180980477Y-85207950D01*
X180883717Y-85415453D01*
X180883716Y-85415457D01*
X180824457Y-85636613D01*
X180804502Y-85864700D01*
X179366387Y-85864700D01*
X179367498Y-85852000D01*
X179347543Y-85623913D01*
X179288284Y-85402757D01*
X179191523Y-85195251D01*
X179060198Y-85007700D01*
X178898300Y-84845802D01*
X178710749Y-84714477D01*
X178688455Y-84704081D01*
X178503246Y-84617717D01*
X178503240Y-84617715D01*
X178347371Y-84575950D01*
X178282087Y-84558457D01*
X178054000Y-84538502D01*
X177825913Y-84558457D01*
X177604759Y-84617715D01*
X177604753Y-84617717D01*
X177397250Y-84714477D01*
X177209703Y-84845799D01*
X177209697Y-84845804D01*
X177047804Y-85007697D01*
X177047799Y-85007703D01*
X176916477Y-85195250D01*
X176819717Y-85402753D01*
X176819715Y-85402759D01*
X176816314Y-85415453D01*
X176760457Y-85623913D01*
X176740502Y-85852000D01*
X176760457Y-86080087D01*
X176769809Y-86114989D01*
X176819715Y-86301240D01*
X176819717Y-86301246D01*
X176866699Y-86402000D01*
X176916477Y-86508749D01*
X177047802Y-86696300D01*
X177209700Y-86858198D01*
X177241770Y-86880653D01*
X177286099Y-86936110D01*
X177295500Y-86983867D01*
X177295500Y-87263629D01*
X177275498Y-87331750D01*
X177258595Y-87352724D01*
X176194837Y-88416481D01*
X176194832Y-88416488D01*
X176111826Y-88540715D01*
X176054650Y-88678750D01*
X176054649Y-88678753D01*
X176025500Y-88825290D01*
X176025500Y-89800132D01*
X176005498Y-89868253D01*
X175971772Y-89903344D01*
X175939706Y-89925797D01*
X175939697Y-89925804D01*
X175777804Y-90087697D01*
X175777799Y-90087703D01*
X175646477Y-90275250D01*
X175549717Y-90482753D01*
X175549715Y-90482759D01*
X175519453Y-90595700D01*
X175490457Y-90703913D01*
X175470502Y-90932000D01*
X172776681Y-90932000D01*
X172695516Y-90850835D01*
X170155515Y-88310834D01*
X170031284Y-88227826D01*
X169893247Y-88170649D01*
X169819976Y-88156074D01*
X169819975Y-88156073D01*
X169746711Y-88141500D01*
X169746706Y-88141500D01*
X151369371Y-88141500D01*
X151301250Y-88121498D01*
X151280276Y-88104595D01*
X149290670Y-86114989D01*
X149256644Y-86052677D01*
X149254245Y-86014912D01*
X149257011Y-85983286D01*
X149268498Y-85852000D01*
X150451502Y-85852000D01*
X150471457Y-86080087D01*
X150480809Y-86114989D01*
X150530715Y-86301240D01*
X150530717Y-86301246D01*
X150577699Y-86402000D01*
X150627477Y-86508749D01*
X150758802Y-86696300D01*
X150920700Y-86858198D01*
X151108251Y-86989523D01*
X151315757Y-87086284D01*
X151536913Y-87145543D01*
X151765000Y-87165498D01*
X151993087Y-87145543D01*
X152214243Y-87086284D01*
X152421749Y-86989523D01*
X152609300Y-86858198D01*
X152771198Y-86696300D01*
X152902523Y-86508749D01*
X152999284Y-86301243D01*
X153058543Y-86080087D01*
X153078498Y-85852000D01*
X154007502Y-85852000D01*
X154027457Y-86080087D01*
X154036809Y-86114989D01*
X154086715Y-86301240D01*
X154086717Y-86301246D01*
X154133699Y-86402000D01*
X154183477Y-86508749D01*
X154314802Y-86696300D01*
X154476700Y-86858198D01*
X154664251Y-86989523D01*
X154871757Y-87086284D01*
X155092913Y-87145543D01*
X155321000Y-87165498D01*
X155549087Y-87145543D01*
X155770243Y-87086284D01*
X155977749Y-86989523D01*
X156165300Y-86858198D01*
X156327198Y-86696300D01*
X156458523Y-86508749D01*
X156555284Y-86301243D01*
X156589408Y-86173887D01*
X156626360Y-86113266D01*
X156690220Y-86082245D01*
X156711115Y-86080500D01*
X159251690Y-86080500D01*
X159319811Y-86100502D01*
X159350200Y-86127940D01*
X159421120Y-86216870D01*
X159421123Y-86216874D01*
X159552494Y-86338767D01*
X159605538Y-86387984D01*
X159605544Y-86387988D01*
X159813387Y-86529694D01*
X159813394Y-86529698D01*
X159813397Y-86529700D01*
X160040055Y-86638853D01*
X160040058Y-86638853D01*
X160040063Y-86638856D01*
X160280440Y-86713002D01*
X160280442Y-86713002D01*
X160280451Y-86713005D01*
X160529214Y-86750500D01*
X160529218Y-86750500D01*
X160780782Y-86750500D01*
X160780786Y-86750500D01*
X161029549Y-86713005D01*
X161029559Y-86713002D01*
X161269936Y-86638856D01*
X161269938Y-86638854D01*
X161269945Y-86638853D01*
X161496604Y-86529700D01*
X161704462Y-86387984D01*
X161888878Y-86216872D01*
X162045731Y-86020184D01*
X162171517Y-85802316D01*
X162263427Y-85568134D01*
X162319407Y-85322869D01*
X162338207Y-85072000D01*
X163971793Y-85072000D01*
X163990593Y-85322869D01*
X163990594Y-85322873D01*
X164046571Y-85568129D01*
X164138479Y-85802309D01*
X164138481Y-85802313D01*
X164264266Y-86020180D01*
X164264268Y-86020183D01*
X164264269Y-86020184D01*
X164290181Y-86052677D01*
X164421125Y-86216876D01*
X164557134Y-86343072D01*
X164605538Y-86387984D01*
X164605544Y-86387988D01*
X164813387Y-86529694D01*
X164813394Y-86529698D01*
X164813397Y-86529700D01*
X165040055Y-86638853D01*
X165040058Y-86638853D01*
X165040063Y-86638856D01*
X165280440Y-86713002D01*
X165280442Y-86713002D01*
X165280451Y-86713005D01*
X165529214Y-86750500D01*
X165529218Y-86750500D01*
X165780782Y-86750500D01*
X165780786Y-86750500D01*
X166029549Y-86713005D01*
X166029559Y-86713002D01*
X166269936Y-86638856D01*
X166269938Y-86638854D01*
X166269945Y-86638853D01*
X166496604Y-86529700D01*
X166704462Y-86387984D01*
X166888878Y-86216872D01*
X167045731Y-86020184D01*
X167142832Y-85852000D01*
X173184502Y-85852000D01*
X173204457Y-86080087D01*
X173213809Y-86114989D01*
X173263715Y-86301240D01*
X173263717Y-86301246D01*
X173310699Y-86402000D01*
X173360477Y-86508749D01*
X173491802Y-86696300D01*
X173653700Y-86858198D01*
X173841251Y-86989523D01*
X174048757Y-87086284D01*
X174269913Y-87145543D01*
X174498000Y-87165498D01*
X174726087Y-87145543D01*
X174947243Y-87086284D01*
X175154749Y-86989523D01*
X175342300Y-86858198D01*
X175504198Y-86696300D01*
X175635523Y-86508749D01*
X175732284Y-86301243D01*
X175791543Y-86080087D01*
X175811498Y-85852000D01*
X175791543Y-85623913D01*
X175732284Y-85402757D01*
X175635523Y-85195251D01*
X175504198Y-85007700D01*
X175342300Y-84845802D01*
X175154749Y-84714477D01*
X175132455Y-84704081D01*
X174947246Y-84617717D01*
X174947240Y-84617715D01*
X174791371Y-84575950D01*
X174726087Y-84558457D01*
X174498000Y-84538502D01*
X174269913Y-84558457D01*
X174048759Y-84617715D01*
X174048753Y-84617717D01*
X173841250Y-84714477D01*
X173653703Y-84845799D01*
X173653697Y-84845804D01*
X173491804Y-85007697D01*
X173491799Y-85007703D01*
X173360477Y-85195250D01*
X173263717Y-85402753D01*
X173263715Y-85402759D01*
X173260314Y-85415453D01*
X173204457Y-85623913D01*
X173184502Y-85852000D01*
X167142832Y-85852000D01*
X167171517Y-85802316D01*
X167263427Y-85568134D01*
X167319407Y-85322869D01*
X167338207Y-85072000D01*
X167324611Y-84890577D01*
X167339467Y-84821154D01*
X167361158Y-84792075D01*
X168303831Y-83849402D01*
X168366141Y-83815379D01*
X168392924Y-83812500D01*
X193250893Y-83812500D01*
X193319014Y-83832502D01*
X193365507Y-83886158D01*
X193375611Y-83956432D01*
X193349404Y-84017059D01*
X193264271Y-84123812D01*
X193264269Y-84123816D01*
X193138481Y-84341686D01*
X193138479Y-84341690D01*
X193046571Y-84575870D01*
X192990594Y-84821126D01*
X192990593Y-84821131D01*
X192971793Y-85072000D01*
X192990593Y-85322869D01*
X192990594Y-85322873D01*
X193046571Y-85568129D01*
X193138479Y-85802309D01*
X193138481Y-85802313D01*
X193264266Y-86020180D01*
X193264268Y-86020183D01*
X193264269Y-86020184D01*
X193290181Y-86052677D01*
X193421125Y-86216876D01*
X193557134Y-86343072D01*
X193605538Y-86387984D01*
X193605544Y-86387988D01*
X193813387Y-86529694D01*
X193813394Y-86529698D01*
X193813397Y-86529700D01*
X194040055Y-86638853D01*
X194040058Y-86638853D01*
X194040063Y-86638856D01*
X194280440Y-86713002D01*
X194280442Y-86713002D01*
X194280451Y-86713005D01*
X194529214Y-86750500D01*
X194529218Y-86750500D01*
X194780782Y-86750500D01*
X194780786Y-86750500D01*
X195029549Y-86713005D01*
X195029559Y-86713002D01*
X195269936Y-86638856D01*
X195269938Y-86638854D01*
X195269945Y-86638853D01*
X195496604Y-86529700D01*
X195704462Y-86387984D01*
X195888878Y-86216872D01*
X196045731Y-86020184D01*
X196171517Y-85802316D01*
X196263427Y-85568134D01*
X196319407Y-85322869D01*
X196338207Y-85072000D01*
X196319407Y-84821131D01*
X196292691Y-84704080D01*
X196297033Y-84633217D01*
X196338998Y-84575950D01*
X196405262Y-84550462D01*
X196474786Y-84564845D01*
X196504627Y-84586948D01*
X197632560Y-85714881D01*
X197773032Y-85855353D01*
X197938209Y-85965721D01*
X198121744Y-86041744D01*
X198266376Y-86070512D01*
X198329285Y-86103419D01*
X198340304Y-86115531D01*
X198421120Y-86216870D01*
X198421123Y-86216874D01*
X198552494Y-86338767D01*
X198605538Y-86387984D01*
X198605544Y-86387988D01*
X198813387Y-86529694D01*
X198813394Y-86529698D01*
X198813397Y-86529700D01*
X199040055Y-86638853D01*
X199040058Y-86638853D01*
X199040063Y-86638856D01*
X199280440Y-86713002D01*
X199280442Y-86713002D01*
X199280451Y-86713005D01*
X199529214Y-86750500D01*
X199529218Y-86750500D01*
X199780782Y-86750500D01*
X199780786Y-86750500D01*
X200029549Y-86713005D01*
X200029559Y-86713002D01*
X200269936Y-86638856D01*
X200269938Y-86638854D01*
X200269945Y-86638853D01*
X200496604Y-86529700D01*
X200704462Y-86387984D01*
X200888878Y-86216872D01*
X201045731Y-86020184D01*
X201142832Y-85852000D01*
X204934502Y-85852000D01*
X204954457Y-86080087D01*
X204963809Y-86114989D01*
X205013715Y-86301240D01*
X205013717Y-86301246D01*
X205060699Y-86402000D01*
X205110477Y-86508749D01*
X205241802Y-86696300D01*
X205403700Y-86858198D01*
X205591251Y-86989523D01*
X205798757Y-87086284D01*
X206019913Y-87145543D01*
X206248000Y-87165498D01*
X206476087Y-87145543D01*
X206697243Y-87086284D01*
X206904749Y-86989523D01*
X207092300Y-86858198D01*
X207254198Y-86696300D01*
X207385523Y-86508749D01*
X207482284Y-86301243D01*
X207541543Y-86080087D01*
X207561498Y-85852000D01*
X208236502Y-85852000D01*
X208256457Y-86080087D01*
X208265809Y-86114989D01*
X208315715Y-86301240D01*
X208315717Y-86301246D01*
X208362699Y-86402000D01*
X208412477Y-86508749D01*
X208543802Y-86696300D01*
X208705700Y-86858198D01*
X208893251Y-86989523D01*
X209100757Y-87086284D01*
X209321913Y-87145543D01*
X209550000Y-87165498D01*
X209778087Y-87145543D01*
X209999243Y-87086284D01*
X210206749Y-86989523D01*
X210394300Y-86858198D01*
X210556198Y-86696300D01*
X210687523Y-86508749D01*
X210784284Y-86301243D01*
X210843543Y-86080087D01*
X210863498Y-85852000D01*
X211538502Y-85852000D01*
X211558457Y-86080087D01*
X211567809Y-86114989D01*
X211617715Y-86301240D01*
X211617717Y-86301246D01*
X211664699Y-86402000D01*
X211714477Y-86508749D01*
X211845802Y-86696300D01*
X212007700Y-86858198D01*
X212195251Y-86989523D01*
X212402757Y-87086284D01*
X212623913Y-87145543D01*
X212852000Y-87165498D01*
X213080087Y-87145543D01*
X213301243Y-87086284D01*
X213508749Y-86989523D01*
X213696300Y-86858198D01*
X213858198Y-86696300D01*
X213989523Y-86508749D01*
X214086284Y-86301243D01*
X214145543Y-86080087D01*
X214165498Y-85852000D01*
X215094502Y-85852000D01*
X215114457Y-86080087D01*
X215123809Y-86114989D01*
X215173715Y-86301240D01*
X215173717Y-86301246D01*
X215220699Y-86402000D01*
X215270477Y-86508749D01*
X215401802Y-86696300D01*
X215563700Y-86858198D01*
X215751251Y-86989523D01*
X215958757Y-87086284D01*
X216179913Y-87145543D01*
X216408000Y-87165498D01*
X216636087Y-87145543D01*
X216857243Y-87086284D01*
X217064749Y-86989523D01*
X217252300Y-86858198D01*
X217414198Y-86696300D01*
X217545523Y-86508749D01*
X217642284Y-86301243D01*
X217701543Y-86080087D01*
X217721498Y-85852000D01*
X217701543Y-85623913D01*
X217642284Y-85402757D01*
X217545523Y-85195251D01*
X217414198Y-85007700D01*
X217252300Y-84845802D01*
X217064749Y-84714477D01*
X217042455Y-84704081D01*
X216857246Y-84617717D01*
X216857240Y-84617715D01*
X216701371Y-84575950D01*
X216636087Y-84558457D01*
X216408000Y-84538502D01*
X216179913Y-84558457D01*
X215958759Y-84617715D01*
X215958753Y-84617717D01*
X215751250Y-84714477D01*
X215563703Y-84845799D01*
X215563697Y-84845804D01*
X215401804Y-85007697D01*
X215401799Y-85007703D01*
X215270477Y-85195250D01*
X215173717Y-85402753D01*
X215173715Y-85402759D01*
X215170314Y-85415453D01*
X215114457Y-85623913D01*
X215094502Y-85852000D01*
X214165498Y-85852000D01*
X214145543Y-85623913D01*
X214086284Y-85402757D01*
X213989523Y-85195251D01*
X213858198Y-85007700D01*
X213696300Y-84845802D01*
X213508749Y-84714477D01*
X213486455Y-84704081D01*
X213301246Y-84617717D01*
X213301240Y-84617715D01*
X213145371Y-84575950D01*
X213080087Y-84558457D01*
X212852000Y-84538502D01*
X212623913Y-84558457D01*
X212402759Y-84617715D01*
X212402753Y-84617717D01*
X212195250Y-84714477D01*
X212007703Y-84845799D01*
X212007697Y-84845804D01*
X211845804Y-85007697D01*
X211845799Y-85007703D01*
X211714477Y-85195250D01*
X211617717Y-85402753D01*
X211617715Y-85402759D01*
X211614314Y-85415453D01*
X211558457Y-85623913D01*
X211538502Y-85852000D01*
X210863498Y-85852000D01*
X210843543Y-85623913D01*
X210784284Y-85402757D01*
X210687523Y-85195251D01*
X210556198Y-85007700D01*
X210394300Y-84845802D01*
X210206749Y-84714477D01*
X210184455Y-84704081D01*
X209999246Y-84617717D01*
X209999240Y-84617715D01*
X209843371Y-84575950D01*
X209778087Y-84558457D01*
X209550000Y-84538502D01*
X209321913Y-84558457D01*
X209100759Y-84617715D01*
X209100753Y-84617717D01*
X208893250Y-84714477D01*
X208705703Y-84845799D01*
X208705697Y-84845804D01*
X208543804Y-85007697D01*
X208543799Y-85007703D01*
X208412477Y-85195250D01*
X208315717Y-85402753D01*
X208315715Y-85402759D01*
X208312314Y-85415453D01*
X208256457Y-85623913D01*
X208236502Y-85852000D01*
X207561498Y-85852000D01*
X207541543Y-85623913D01*
X207482284Y-85402757D01*
X207385523Y-85195251D01*
X207254198Y-85007700D01*
X207092300Y-84845802D01*
X206904749Y-84714477D01*
X206882455Y-84704081D01*
X206697246Y-84617717D01*
X206697240Y-84617715D01*
X206541371Y-84575950D01*
X206476087Y-84558457D01*
X206248000Y-84538502D01*
X206019913Y-84558457D01*
X205798759Y-84617715D01*
X205798753Y-84617717D01*
X205591250Y-84714477D01*
X205403703Y-84845799D01*
X205403697Y-84845804D01*
X205241804Y-85007697D01*
X205241799Y-85007703D01*
X205110477Y-85195250D01*
X205013717Y-85402753D01*
X205013715Y-85402759D01*
X205010314Y-85415453D01*
X204954457Y-85623913D01*
X204934502Y-85852000D01*
X201142832Y-85852000D01*
X201171517Y-85802316D01*
X201263427Y-85568134D01*
X201319407Y-85322869D01*
X201338207Y-85072000D01*
X201319407Y-84821131D01*
X201263427Y-84575866D01*
X201200225Y-84414830D01*
X201171520Y-84341690D01*
X201171518Y-84341686D01*
X201140895Y-84288646D01*
X201045731Y-84123816D01*
X200888878Y-83927128D01*
X200888877Y-83927127D01*
X200888874Y-83927123D01*
X200704467Y-83756021D01*
X200704461Y-83756015D01*
X200635176Y-83708777D01*
X200496606Y-83614301D01*
X200269949Y-83505148D01*
X200269936Y-83505143D01*
X200029559Y-83430997D01*
X200029551Y-83430995D01*
X200029549Y-83430995D01*
X199780786Y-83393500D01*
X199529214Y-83393500D01*
X199280451Y-83430995D01*
X199280449Y-83430995D01*
X199280440Y-83430997D01*
X199040063Y-83505143D01*
X199040051Y-83505148D01*
X198813394Y-83614301D01*
X198813387Y-83614305D01*
X198644595Y-83729386D01*
X198577043Y-83751233D01*
X198508404Y-83733091D01*
X198484522Y-83714375D01*
X197307742Y-82537595D01*
X197273716Y-82475283D01*
X197278781Y-82404468D01*
X197321328Y-82347632D01*
X197387848Y-82322821D01*
X197396837Y-82322500D01*
X197452499Y-82322500D01*
X197452506Y-82322500D01*
X197744993Y-82283993D01*
X198029952Y-82207639D01*
X198302507Y-82094743D01*
X198557994Y-81947238D01*
X198792042Y-81767646D01*
X199000646Y-81559042D01*
X199180238Y-81324994D01*
X199327743Y-81069507D01*
X199440639Y-80796952D01*
X199516993Y-80511993D01*
X199555500Y-80219506D01*
X199555500Y-79924494D01*
X199516993Y-79632007D01*
X199440639Y-79347048D01*
X199327743Y-79074493D01*
X199327737Y-79074484D01*
X199327736Y-79074480D01*
X199180240Y-78819009D01*
X199180235Y-78819002D01*
X199000653Y-78584966D01*
X199000634Y-78584945D01*
X198792054Y-78376365D01*
X198792033Y-78376346D01*
X198557997Y-78196764D01*
X198557990Y-78196759D01*
X198302519Y-78049263D01*
X198302511Y-78049259D01*
X198302507Y-78049257D01*
X198029952Y-77936361D01*
X197744993Y-77860007D01*
X197744991Y-77860006D01*
X197744985Y-77860005D01*
X197452508Y-77821500D01*
X197452506Y-77821500D01*
X197157494Y-77821500D01*
X197157491Y-77821500D01*
X196865014Y-77860005D01*
X196865007Y-77860007D01*
X196580048Y-77936361D01*
X196318208Y-78044819D01*
X196307491Y-78049258D01*
X196307480Y-78049263D01*
X196052009Y-78196759D01*
X196052002Y-78196764D01*
X195817966Y-78376346D01*
X195817945Y-78376365D01*
X195609365Y-78584945D01*
X195609346Y-78584966D01*
X195429764Y-78819002D01*
X195429759Y-78819009D01*
X195282263Y-79074480D01*
X195282258Y-79074491D01*
X195169361Y-79347048D01*
X195093005Y-79632014D01*
X195054500Y-79924491D01*
X195054500Y-80219508D01*
X195093005Y-80511985D01*
X195093006Y-80511991D01*
X195093007Y-80511993D01*
X195169361Y-80796952D01*
X195282257Y-81069507D01*
X195282258Y-81069508D01*
X195282263Y-81069519D01*
X195429759Y-81324990D01*
X195429764Y-81324997D01*
X195609346Y-81559033D01*
X195609365Y-81559054D01*
X195630716Y-81580405D01*
X195664742Y-81642717D01*
X195659677Y-81713532D01*
X195617130Y-81770368D01*
X195550610Y-81795179D01*
X195541621Y-81795500D01*
X167823668Y-81795500D01*
X167628830Y-81834256D01*
X167628825Y-81834258D01*
X167445296Y-81910279D01*
X167280123Y-82020644D01*
X167280121Y-82020645D01*
X165935676Y-83365089D01*
X165873364Y-83399114D01*
X165827805Y-83400586D01*
X165789458Y-83394807D01*
X165780786Y-83393500D01*
X165529214Y-83393500D01*
X165280451Y-83430995D01*
X165280449Y-83430995D01*
X165280440Y-83430997D01*
X165040063Y-83505143D01*
X165040051Y-83505148D01*
X164813394Y-83614301D01*
X164813387Y-83614305D01*
X164605544Y-83756011D01*
X164605532Y-83756021D01*
X164421125Y-83927123D01*
X164317674Y-84056848D01*
X164281463Y-84102256D01*
X164264270Y-84123815D01*
X164264269Y-84123816D01*
X164138481Y-84341686D01*
X164138479Y-84341690D01*
X164046571Y-84575870D01*
X163990594Y-84821126D01*
X163990593Y-84821131D01*
X163971793Y-85072000D01*
X162338207Y-85072000D01*
X162319407Y-84821131D01*
X162263427Y-84575866D01*
X162200225Y-84414830D01*
X162171520Y-84341690D01*
X162171518Y-84341686D01*
X162140895Y-84288646D01*
X162045731Y-84123816D01*
X161888878Y-83927128D01*
X161888877Y-83927127D01*
X161888874Y-83927123D01*
X161704467Y-83756021D01*
X161704461Y-83756015D01*
X161635176Y-83708777D01*
X161496606Y-83614301D01*
X161269949Y-83505148D01*
X161269936Y-83505143D01*
X161029559Y-83430997D01*
X161029551Y-83430995D01*
X161029549Y-83430995D01*
X160780786Y-83393500D01*
X160529214Y-83393500D01*
X160280451Y-83430995D01*
X160280449Y-83430995D01*
X160280440Y-83430997D01*
X160040063Y-83505143D01*
X160040051Y-83505148D01*
X159813394Y-83614301D01*
X159813387Y-83614305D01*
X159605544Y-83756011D01*
X159605532Y-83756021D01*
X159421123Y-83927125D01*
X159421120Y-83927129D01*
X159350200Y-84016060D01*
X159292089Y-84056848D01*
X159251690Y-84063500D01*
X156001668Y-84063500D01*
X155886026Y-84086503D01*
X155806831Y-84102256D01*
X155806829Y-84102256D01*
X155806823Y-84102258D01*
X155754782Y-84123815D01*
X155754781Y-84123816D01*
X155623296Y-84178278D01*
X155458117Y-84288647D01*
X155229881Y-84516883D01*
X155167569Y-84550908D01*
X155151768Y-84553307D01*
X155092922Y-84558455D01*
X155092916Y-84558456D01*
X154871759Y-84617715D01*
X154871753Y-84617717D01*
X154664250Y-84714477D01*
X154476703Y-84845799D01*
X154476697Y-84845804D01*
X154314804Y-85007697D01*
X154314799Y-85007703D01*
X154183477Y-85195250D01*
X154086717Y-85402753D01*
X154086715Y-85402759D01*
X154083314Y-85415453D01*
X154027457Y-85623913D01*
X154007502Y-85852000D01*
X153078498Y-85852000D01*
X153058543Y-85623913D01*
X152999284Y-85402757D01*
X152902523Y-85195251D01*
X152771198Y-85007700D01*
X152609300Y-84845802D01*
X152421749Y-84714477D01*
X152399455Y-84704081D01*
X152214246Y-84617717D01*
X152214240Y-84617715D01*
X152058371Y-84575950D01*
X151993087Y-84558457D01*
X151765000Y-84538502D01*
X151536913Y-84558457D01*
X151315759Y-84617715D01*
X151315753Y-84617717D01*
X151108250Y-84714477D01*
X150920703Y-84845799D01*
X150920697Y-84845804D01*
X150758804Y-85007697D01*
X150758799Y-85007703D01*
X150627477Y-85195250D01*
X150530717Y-85402753D01*
X150530715Y-85402759D01*
X150527314Y-85415453D01*
X150471457Y-85623913D01*
X150451502Y-85852000D01*
X149268498Y-85852000D01*
X149248543Y-85623913D01*
X149189284Y-85402757D01*
X149092523Y-85195251D01*
X148961198Y-85007700D01*
X148799300Y-84845802D01*
X148780933Y-84832941D01*
X148767228Y-84823344D01*
X148722900Y-84767887D01*
X148713500Y-84720132D01*
X148713500Y-80630371D01*
X148733502Y-80562250D01*
X148750405Y-80541276D01*
X149367190Y-79924491D01*
X161054500Y-79924491D01*
X161054500Y-80219508D01*
X161093005Y-80511985D01*
X161093006Y-80511991D01*
X161093007Y-80511993D01*
X161169361Y-80796952D01*
X161282257Y-81069507D01*
X161282258Y-81069508D01*
X161282263Y-81069519D01*
X161429759Y-81324990D01*
X161429764Y-81324997D01*
X161609346Y-81559033D01*
X161609365Y-81559054D01*
X161817945Y-81767634D01*
X161817966Y-81767653D01*
X162052002Y-81947235D01*
X162052009Y-81947240D01*
X162307480Y-82094736D01*
X162307484Y-82094737D01*
X162307493Y-82094743D01*
X162580048Y-82207639D01*
X162865007Y-82283993D01*
X162865013Y-82283993D01*
X162865014Y-82283994D01*
X162898574Y-82288412D01*
X163157494Y-82322500D01*
X163157501Y-82322500D01*
X163452499Y-82322500D01*
X163452506Y-82322500D01*
X163744993Y-82283993D01*
X164029952Y-82207639D01*
X164302507Y-82094743D01*
X164557994Y-81947238D01*
X164792042Y-81767646D01*
X165000646Y-81559042D01*
X165180238Y-81324994D01*
X165327743Y-81069507D01*
X165440639Y-80796952D01*
X165516993Y-80511993D01*
X165555500Y-80219506D01*
X165555500Y-79924494D01*
X165516993Y-79632007D01*
X165440639Y-79347048D01*
X165327743Y-79074493D01*
X165327737Y-79074484D01*
X165327736Y-79074480D01*
X165180240Y-78819009D01*
X165180235Y-78819002D01*
X165000653Y-78584966D01*
X165000634Y-78584945D01*
X164792054Y-78376365D01*
X164792033Y-78376346D01*
X164557997Y-78196764D01*
X164557990Y-78196759D01*
X164302519Y-78049263D01*
X164302511Y-78049259D01*
X164302507Y-78049257D01*
X164029952Y-77936361D01*
X163744993Y-77860007D01*
X163744991Y-77860006D01*
X163744985Y-77860005D01*
X163452508Y-77821500D01*
X163452506Y-77821500D01*
X163157494Y-77821500D01*
X163157491Y-77821500D01*
X162865014Y-77860005D01*
X162865007Y-77860007D01*
X162580048Y-77936361D01*
X162318208Y-78044819D01*
X162307491Y-78049258D01*
X162307480Y-78049263D01*
X162052009Y-78196759D01*
X162052002Y-78196764D01*
X161817966Y-78376346D01*
X161817945Y-78376365D01*
X161609365Y-78584945D01*
X161609346Y-78584966D01*
X161429764Y-78819002D01*
X161429759Y-78819009D01*
X161282263Y-79074480D01*
X161282258Y-79074491D01*
X161169361Y-79347048D01*
X161093005Y-79632014D01*
X161054500Y-79924491D01*
X149367190Y-79924491D01*
X149511200Y-79780481D01*
X150449166Y-78842515D01*
X150532174Y-78718284D01*
X150589351Y-78580247D01*
X150618500Y-78433705D01*
X150618500Y-78284295D01*
X150618500Y-76700188D01*
X150638502Y-76632067D01*
X150692158Y-76585574D01*
X150762432Y-76575470D01*
X150827012Y-76604964D01*
X150833595Y-76611093D01*
X150920700Y-76698198D01*
X151108251Y-76829523D01*
X151315757Y-76926284D01*
X151536913Y-76985543D01*
X151765000Y-77005498D01*
X151993087Y-76985543D01*
X152214243Y-76926284D01*
X152421749Y-76829523D01*
X152609300Y-76698198D01*
X152771198Y-76536300D01*
X152902523Y-76348749D01*
X152999284Y-76141243D01*
X153058543Y-75920087D01*
X153078498Y-75692000D01*
X153058543Y-75463913D01*
X153051600Y-75438000D01*
X154034917Y-75438000D01*
X155009314Y-75438000D01*
X155000920Y-75446394D01*
X154948259Y-75537606D01*
X154921000Y-75639339D01*
X154921000Y-75744661D01*
X154948259Y-75846394D01*
X155000920Y-75937606D01*
X155009314Y-75946000D01*
X154034918Y-75946000D01*
X154087186Y-76141068D01*
X154087188Y-76141073D01*
X154183912Y-76348498D01*
X154315184Y-76535974D01*
X154315189Y-76535980D01*
X154477019Y-76697810D01*
X154477025Y-76697815D01*
X154664501Y-76829087D01*
X154871926Y-76925811D01*
X154871931Y-76925813D01*
X155067000Y-76978081D01*
X155067000Y-76003686D01*
X155075394Y-76012080D01*
X155166606Y-76064741D01*
X155268339Y-76092000D01*
X155373661Y-76092000D01*
X155475394Y-76064741D01*
X155566606Y-76012080D01*
X155575000Y-76003686D01*
X155575000Y-76978081D01*
X155770068Y-76925813D01*
X155770073Y-76925811D01*
X155977498Y-76829087D01*
X156164974Y-76697815D01*
X156164980Y-76697810D01*
X156326810Y-76535980D01*
X156326815Y-76535974D01*
X156458087Y-76348498D01*
X156554811Y-76141073D01*
X156554813Y-76141068D01*
X156607082Y-75946000D01*
X155632686Y-75946000D01*
X155641080Y-75937606D01*
X155693741Y-75846394D01*
X155721000Y-75744661D01*
X155721000Y-75639339D01*
X155693741Y-75537606D01*
X155641080Y-75446394D01*
X155632686Y-75438000D01*
X156607082Y-75438000D01*
X156554813Y-75242931D01*
X156554811Y-75242926D01*
X156475107Y-75072000D01*
X161471793Y-75072000D01*
X161490593Y-75322869D01*
X161490594Y-75322873D01*
X161546571Y-75568129D01*
X161638479Y-75802309D01*
X161638481Y-75802313D01*
X161764266Y-76020180D01*
X161921125Y-76216876D01*
X162057134Y-76343072D01*
X162105538Y-76387984D01*
X162105544Y-76387988D01*
X162313387Y-76529694D01*
X162313394Y-76529698D01*
X162313397Y-76529700D01*
X162540055Y-76638853D01*
X162540058Y-76638853D01*
X162540063Y-76638856D01*
X162780440Y-76713002D01*
X162780442Y-76713002D01*
X162780451Y-76713005D01*
X163029214Y-76750500D01*
X163029218Y-76750500D01*
X163280782Y-76750500D01*
X163280786Y-76750500D01*
X163529549Y-76713005D01*
X163529559Y-76713002D01*
X163769936Y-76638856D01*
X163769938Y-76638854D01*
X163769945Y-76638853D01*
X163996604Y-76529700D01*
X164204462Y-76387984D01*
X164388878Y-76216872D01*
X164545731Y-76020184D01*
X164671517Y-75802316D01*
X164714813Y-75692000D01*
X173184502Y-75692000D01*
X173204457Y-75920087D01*
X173229107Y-76012080D01*
X173263715Y-76141240D01*
X173263717Y-76141246D01*
X173360477Y-76348749D01*
X173487180Y-76529700D01*
X173491802Y-76536300D01*
X173653700Y-76698198D01*
X173841251Y-76829523D01*
X174048757Y-76926284D01*
X174269913Y-76985543D01*
X174498000Y-77005498D01*
X174726087Y-76985543D01*
X174947243Y-76926284D01*
X175154749Y-76829523D01*
X175342300Y-76698198D01*
X175504198Y-76536300D01*
X175635523Y-76348749D01*
X175732284Y-76141243D01*
X175791543Y-75920087D01*
X175811498Y-75692000D01*
X175791543Y-75463913D01*
X175732284Y-75242757D01*
X175635523Y-75035251D01*
X175504198Y-74847700D01*
X175499848Y-74843350D01*
X176745500Y-74843350D01*
X176745500Y-76540649D01*
X176752009Y-76601196D01*
X176752011Y-76601204D01*
X176803110Y-76738202D01*
X176803112Y-76738207D01*
X176890738Y-76855261D01*
X177007792Y-76942887D01*
X177007794Y-76942888D01*
X177007796Y-76942889D01*
X177066875Y-76964924D01*
X177144795Y-76993988D01*
X177144803Y-76993990D01*
X177205350Y-77000499D01*
X177205355Y-77000499D01*
X177205362Y-77000500D01*
X177205368Y-77000500D01*
X178902632Y-77000500D01*
X178902638Y-77000500D01*
X178902645Y-77000499D01*
X178902649Y-77000499D01*
X178963196Y-76993990D01*
X178963199Y-76993989D01*
X178963201Y-76993989D01*
X179100204Y-76942889D01*
X179105421Y-76938984D01*
X179217261Y-76855261D01*
X179304887Y-76738207D01*
X179304887Y-76738206D01*
X179304889Y-76738204D01*
X179352299Y-76611093D01*
X179355988Y-76601204D01*
X179355990Y-76601196D01*
X179362499Y-76540649D01*
X179362500Y-76540632D01*
X179362500Y-75704700D01*
X180804502Y-75704700D01*
X180824457Y-75932787D01*
X180845704Y-76012080D01*
X180883715Y-76153940D01*
X180883717Y-76153946D01*
X180980477Y-76361449D01*
X181105954Y-76540649D01*
X181111802Y-76549000D01*
X181273700Y-76710898D01*
X181461251Y-76842223D01*
X181668757Y-76938984D01*
X181889913Y-76998243D01*
X182118000Y-77018198D01*
X182346087Y-76998243D01*
X182567243Y-76938984D01*
X182774749Y-76842223D01*
X182962300Y-76710898D01*
X183124198Y-76549000D01*
X183255523Y-76361449D01*
X183352284Y-76153943D01*
X183411543Y-75932787D01*
X183431498Y-75704700D01*
X183430387Y-75692000D01*
X184360502Y-75692000D01*
X184380457Y-75920087D01*
X184405107Y-76012080D01*
X184439715Y-76141240D01*
X184439717Y-76141246D01*
X184536477Y-76348749D01*
X184663180Y-76529700D01*
X184667802Y-76536300D01*
X184829700Y-76698198D01*
X185017251Y-76829523D01*
X185224757Y-76926284D01*
X185445913Y-76985543D01*
X185674000Y-77005498D01*
X185902087Y-76985543D01*
X186123243Y-76926284D01*
X186330749Y-76829523D01*
X186518300Y-76698198D01*
X186680198Y-76536300D01*
X186811523Y-76348749D01*
X186908284Y-76141243D01*
X186967543Y-75920087D01*
X186987498Y-75692000D01*
X186967543Y-75463913D01*
X186960600Y-75438000D01*
X187943917Y-75438000D01*
X188918314Y-75438000D01*
X188909920Y-75446394D01*
X188857259Y-75537606D01*
X188830000Y-75639339D01*
X188830000Y-75744661D01*
X188857259Y-75846394D01*
X188909920Y-75937606D01*
X188918314Y-75946000D01*
X187943918Y-75946000D01*
X187996186Y-76141068D01*
X187996188Y-76141073D01*
X188092912Y-76348498D01*
X188224184Y-76535974D01*
X188224189Y-76535980D01*
X188386019Y-76697810D01*
X188386025Y-76697815D01*
X188573501Y-76829087D01*
X188780926Y-76925811D01*
X188780931Y-76925813D01*
X188976000Y-76978081D01*
X188976000Y-76003686D01*
X188984394Y-76012080D01*
X189075606Y-76064741D01*
X189177339Y-76092000D01*
X189282661Y-76092000D01*
X189384394Y-76064741D01*
X189475606Y-76012080D01*
X189484000Y-76003686D01*
X189484000Y-76978081D01*
X189679068Y-76925813D01*
X189679073Y-76925811D01*
X189886498Y-76829087D01*
X190073974Y-76697815D01*
X190073980Y-76697810D01*
X190235810Y-76535980D01*
X190235815Y-76535974D01*
X190367087Y-76348498D01*
X190463811Y-76141073D01*
X190463813Y-76141068D01*
X190516082Y-75946000D01*
X189541686Y-75946000D01*
X189550080Y-75937606D01*
X189602741Y-75846394D01*
X189630000Y-75744661D01*
X189630000Y-75639339D01*
X189602741Y-75537606D01*
X189550080Y-75446394D01*
X189541686Y-75438000D01*
X190516082Y-75438000D01*
X190463813Y-75242931D01*
X190463811Y-75242926D01*
X190384107Y-75072000D01*
X195471793Y-75072000D01*
X195490593Y-75322869D01*
X195490594Y-75322873D01*
X195546571Y-75568129D01*
X195638479Y-75802309D01*
X195638481Y-75802313D01*
X195764266Y-76020180D01*
X195921125Y-76216876D01*
X196057134Y-76343072D01*
X196105538Y-76387984D01*
X196105544Y-76387988D01*
X196313387Y-76529694D01*
X196313394Y-76529698D01*
X196313397Y-76529700D01*
X196540055Y-76638853D01*
X196540058Y-76638853D01*
X196540063Y-76638856D01*
X196780440Y-76713002D01*
X196780442Y-76713002D01*
X196780451Y-76713005D01*
X197029214Y-76750500D01*
X197029218Y-76750500D01*
X197280782Y-76750500D01*
X197280786Y-76750500D01*
X197529549Y-76713005D01*
X197529559Y-76713002D01*
X197769936Y-76638856D01*
X197769938Y-76638854D01*
X197769945Y-76638853D01*
X197996604Y-76529700D01*
X198204462Y-76387984D01*
X198388878Y-76216872D01*
X198545731Y-76020184D01*
X198671517Y-75802316D01*
X198714813Y-75692000D01*
X204934502Y-75692000D01*
X204954457Y-75920087D01*
X204979107Y-76012080D01*
X205013715Y-76141240D01*
X205013717Y-76141246D01*
X205110477Y-76348749D01*
X205237180Y-76529700D01*
X205241802Y-76536300D01*
X205403700Y-76698198D01*
X205591251Y-76829523D01*
X205798757Y-76926284D01*
X206019913Y-76985543D01*
X206248000Y-77005498D01*
X206476087Y-76985543D01*
X206697243Y-76926284D01*
X206904749Y-76829523D01*
X207092300Y-76698198D01*
X207254198Y-76536300D01*
X207385523Y-76348749D01*
X207482284Y-76141243D01*
X207541543Y-75920087D01*
X207561498Y-75692000D01*
X207541543Y-75463913D01*
X207482284Y-75242757D01*
X207385523Y-75035251D01*
X207254198Y-74847700D01*
X207249848Y-74843350D01*
X208241500Y-74843350D01*
X208241500Y-76540649D01*
X208248009Y-76601196D01*
X208248011Y-76601204D01*
X208299110Y-76738202D01*
X208299112Y-76738207D01*
X208386738Y-76855261D01*
X208503792Y-76942887D01*
X208503794Y-76942888D01*
X208503796Y-76942889D01*
X208562875Y-76964924D01*
X208640795Y-76993988D01*
X208640803Y-76993990D01*
X208701350Y-77000499D01*
X208701355Y-77000499D01*
X208701362Y-77000500D01*
X208701368Y-77000500D01*
X210398632Y-77000500D01*
X210398638Y-77000500D01*
X210398645Y-77000499D01*
X210398649Y-77000499D01*
X210459196Y-76993990D01*
X210459199Y-76993989D01*
X210459201Y-76993989D01*
X210596204Y-76942889D01*
X210601421Y-76938984D01*
X210713261Y-76855261D01*
X210800887Y-76738207D01*
X210800887Y-76738206D01*
X210800889Y-76738204D01*
X210848299Y-76611093D01*
X210851988Y-76601204D01*
X210851990Y-76601196D01*
X210858499Y-76540649D01*
X210858500Y-76540632D01*
X210858500Y-75692000D01*
X211538502Y-75692000D01*
X211558457Y-75920087D01*
X211583107Y-76012080D01*
X211617715Y-76141240D01*
X211617717Y-76141246D01*
X211714477Y-76348749D01*
X211841180Y-76529700D01*
X211845802Y-76536300D01*
X212007700Y-76698198D01*
X212195251Y-76829523D01*
X212402757Y-76926284D01*
X212623913Y-76985543D01*
X212852000Y-77005498D01*
X213080087Y-76985543D01*
X213301243Y-76926284D01*
X213508749Y-76829523D01*
X213696300Y-76698198D01*
X213858198Y-76536300D01*
X213989523Y-76348749D01*
X214086284Y-76141243D01*
X214145543Y-75920087D01*
X214165498Y-75692000D01*
X215094502Y-75692000D01*
X215114457Y-75920087D01*
X215139107Y-76012080D01*
X215173715Y-76141240D01*
X215173717Y-76141246D01*
X215270477Y-76348749D01*
X215397180Y-76529700D01*
X215401802Y-76536300D01*
X215563700Y-76698198D01*
X215751251Y-76829523D01*
X215958757Y-76926284D01*
X216179913Y-76985543D01*
X216408000Y-77005498D01*
X216636087Y-76985543D01*
X216857243Y-76926284D01*
X217064749Y-76829523D01*
X217252300Y-76698198D01*
X217414198Y-76536300D01*
X217545523Y-76348749D01*
X217642284Y-76141243D01*
X217701543Y-75920087D01*
X217721498Y-75692000D01*
X217701543Y-75463913D01*
X217642284Y-75242757D01*
X217545523Y-75035251D01*
X217414198Y-74847700D01*
X217252300Y-74685802D01*
X217184637Y-74638424D01*
X217064749Y-74554477D01*
X216857246Y-74457717D01*
X216857240Y-74457715D01*
X216763771Y-74432670D01*
X216636087Y-74398457D01*
X216408000Y-74378502D01*
X216179913Y-74398457D01*
X215958759Y-74457715D01*
X215958753Y-74457717D01*
X215751250Y-74554477D01*
X215563703Y-74685799D01*
X215563697Y-74685804D01*
X215401804Y-74847697D01*
X215401799Y-74847703D01*
X215270477Y-75035250D01*
X215173717Y-75242753D01*
X215173715Y-75242759D01*
X215121400Y-75438000D01*
X215114457Y-75463913D01*
X215094502Y-75692000D01*
X214165498Y-75692000D01*
X214145543Y-75463913D01*
X214086284Y-75242757D01*
X213989523Y-75035251D01*
X213858198Y-74847700D01*
X213696300Y-74685802D01*
X213628637Y-74638424D01*
X213508749Y-74554477D01*
X213301246Y-74457717D01*
X213301240Y-74457715D01*
X213207771Y-74432670D01*
X213080087Y-74398457D01*
X212852000Y-74378502D01*
X212623913Y-74398457D01*
X212402759Y-74457715D01*
X212402753Y-74457717D01*
X212195250Y-74554477D01*
X212007703Y-74685799D01*
X212007697Y-74685804D01*
X211845804Y-74847697D01*
X211845799Y-74847703D01*
X211714477Y-75035250D01*
X211617717Y-75242753D01*
X211617715Y-75242759D01*
X211565400Y-75438000D01*
X211558457Y-75463913D01*
X211538502Y-75692000D01*
X210858500Y-75692000D01*
X210858500Y-74843367D01*
X210858499Y-74843350D01*
X210851990Y-74782803D01*
X210851988Y-74782795D01*
X210820548Y-74698504D01*
X210800889Y-74645796D01*
X210800888Y-74645794D01*
X210800887Y-74645792D01*
X210713261Y-74528738D01*
X210596207Y-74441112D01*
X210596202Y-74441110D01*
X210459204Y-74390011D01*
X210459196Y-74390009D01*
X210398649Y-74383500D01*
X210398638Y-74383500D01*
X208701362Y-74383500D01*
X208701350Y-74383500D01*
X208640803Y-74390009D01*
X208640795Y-74390011D01*
X208503797Y-74441110D01*
X208503792Y-74441112D01*
X208386738Y-74528738D01*
X208299112Y-74645792D01*
X208299110Y-74645797D01*
X208248011Y-74782795D01*
X208248009Y-74782803D01*
X208241500Y-74843350D01*
X207249848Y-74843350D01*
X207092300Y-74685802D01*
X207024637Y-74638424D01*
X206904749Y-74554477D01*
X206697246Y-74457717D01*
X206697240Y-74457715D01*
X206603771Y-74432670D01*
X206476087Y-74398457D01*
X206248000Y-74378502D01*
X206019913Y-74398457D01*
X205798759Y-74457715D01*
X205798753Y-74457717D01*
X205591250Y-74554477D01*
X205403703Y-74685799D01*
X205403697Y-74685804D01*
X205241804Y-74847697D01*
X205241799Y-74847703D01*
X205110477Y-75035250D01*
X205013717Y-75242753D01*
X205013715Y-75242759D01*
X204961400Y-75438000D01*
X204954457Y-75463913D01*
X204934502Y-75692000D01*
X198714813Y-75692000D01*
X198763427Y-75568134D01*
X198819407Y-75322869D01*
X198838207Y-75072000D01*
X198819407Y-74821131D01*
X198763427Y-74575866D01*
X198690484Y-74390011D01*
X198671520Y-74341690D01*
X198671518Y-74341686D01*
X198545733Y-74123819D01*
X198388874Y-73927123D01*
X198204467Y-73756021D01*
X198204461Y-73756015D01*
X198135176Y-73708777D01*
X197996606Y-73614301D01*
X197769949Y-73505148D01*
X197769936Y-73505143D01*
X197529559Y-73430997D01*
X197529551Y-73430995D01*
X197529549Y-73430995D01*
X197280786Y-73393500D01*
X197029214Y-73393500D01*
X196780451Y-73430995D01*
X196780449Y-73430995D01*
X196780440Y-73430997D01*
X196540063Y-73505143D01*
X196540051Y-73505148D01*
X196313394Y-73614301D01*
X196313387Y-73614305D01*
X196105544Y-73756011D01*
X196105532Y-73756021D01*
X195921125Y-73927123D01*
X195764266Y-74123819D01*
X195638481Y-74341686D01*
X195638479Y-74341690D01*
X195546571Y-74575870D01*
X195493469Y-74808530D01*
X195490593Y-74821131D01*
X195471793Y-75072000D01*
X190384107Y-75072000D01*
X190367087Y-75035501D01*
X190235815Y-74848025D01*
X190235810Y-74848019D01*
X190073980Y-74686189D01*
X190073974Y-74686184D01*
X189886498Y-74554912D01*
X189679073Y-74458188D01*
X189679071Y-74458187D01*
X189484000Y-74405917D01*
X189484000Y-75380314D01*
X189475606Y-75371920D01*
X189384394Y-75319259D01*
X189282661Y-75292000D01*
X189177339Y-75292000D01*
X189075606Y-75319259D01*
X188984394Y-75371920D01*
X188976000Y-75380314D01*
X188976000Y-74405917D01*
X188975999Y-74405917D01*
X188780928Y-74458187D01*
X188780926Y-74458188D01*
X188573501Y-74554912D01*
X188386025Y-74686184D01*
X188386019Y-74686189D01*
X188224189Y-74848019D01*
X188224184Y-74848025D01*
X188092912Y-75035501D01*
X187996188Y-75242926D01*
X187996186Y-75242931D01*
X187943917Y-75438000D01*
X186960600Y-75438000D01*
X186908284Y-75242757D01*
X186811523Y-75035251D01*
X186680198Y-74847700D01*
X186518300Y-74685802D01*
X186450637Y-74638424D01*
X186330749Y-74554477D01*
X186123246Y-74457717D01*
X186123240Y-74457715D01*
X186029771Y-74432670D01*
X185902087Y-74398457D01*
X185674000Y-74378502D01*
X185445913Y-74398457D01*
X185224759Y-74457715D01*
X185224753Y-74457717D01*
X185017250Y-74554477D01*
X184829703Y-74685799D01*
X184829697Y-74685804D01*
X184667804Y-74847697D01*
X184667799Y-74847703D01*
X184536477Y-75035250D01*
X184439717Y-75242753D01*
X184439715Y-75242759D01*
X184387400Y-75438000D01*
X184380457Y-75463913D01*
X184360502Y-75692000D01*
X183430387Y-75692000D01*
X183411543Y-75476613D01*
X183352284Y-75255457D01*
X183255523Y-75047951D01*
X183124198Y-74860400D01*
X182962300Y-74698502D01*
X182962293Y-74698497D01*
X182930228Y-74676044D01*
X182885900Y-74620587D01*
X182876500Y-74572832D01*
X182876500Y-72286370D01*
X182896502Y-72218249D01*
X182913400Y-72197280D01*
X185615654Y-69495025D01*
X185677964Y-69461001D01*
X185725486Y-69459841D01*
X185849286Y-69480500D01*
X185849288Y-69480500D01*
X186082708Y-69480500D01*
X186082712Y-69480500D01*
X186312951Y-69442080D01*
X186533727Y-69366287D01*
X186739017Y-69255190D01*
X186923220Y-69111818D01*
X186923225Y-69111813D01*
X186927054Y-69108289D01*
X186928431Y-69109785D01*
X186981780Y-69077690D01*
X187052745Y-69079790D01*
X187111310Y-69119924D01*
X187131741Y-69155549D01*
X187155111Y-69218204D01*
X187155112Y-69218207D01*
X187242738Y-69335261D01*
X187359792Y-69422887D01*
X187359794Y-69422888D01*
X187359796Y-69422889D01*
X187411243Y-69442078D01*
X187496795Y-69473988D01*
X187496803Y-69473990D01*
X187557350Y-69480499D01*
X187557355Y-69480499D01*
X187557362Y-69480500D01*
X187557368Y-69480500D01*
X189454632Y-69480500D01*
X189454638Y-69480500D01*
X189454645Y-69480499D01*
X189454649Y-69480499D01*
X189515196Y-69473990D01*
X189515199Y-69473989D01*
X189515201Y-69473989D01*
X189652204Y-69422889D01*
X189652799Y-69422444D01*
X189769261Y-69335261D01*
X189856887Y-69218207D01*
X189856887Y-69218206D01*
X189856889Y-69218204D01*
X189907989Y-69081201D01*
X189908367Y-69077690D01*
X189914499Y-69020649D01*
X189914500Y-69020632D01*
X189914500Y-67123402D01*
X194548000Y-67123402D01*
X194548000Y-67818000D01*
X195583032Y-67818000D01*
X195536667Y-67898306D01*
X195506000Y-68012756D01*
X195506000Y-68131244D01*
X195536667Y-68245694D01*
X195583032Y-68326000D01*
X194548000Y-68326000D01*
X194548000Y-69020597D01*
X194554505Y-69081093D01*
X194605555Y-69217964D01*
X194605555Y-69217965D01*
X194693095Y-69334904D01*
X194810034Y-69422444D01*
X194946906Y-69473494D01*
X195007402Y-69479999D01*
X195007415Y-69480000D01*
X195702000Y-69480000D01*
X195702000Y-68444968D01*
X195782306Y-68491333D01*
X195896756Y-68522000D01*
X196015244Y-68522000D01*
X196129694Y-68491333D01*
X196210000Y-68444968D01*
X196210000Y-69480000D01*
X196904585Y-69480000D01*
X196904597Y-69479999D01*
X196965093Y-69473494D01*
X197101964Y-69422444D01*
X197101965Y-69422444D01*
X197218904Y-69334904D01*
X197306444Y-69217965D01*
X197329877Y-69155138D01*
X197372423Y-69098302D01*
X197438943Y-69073491D01*
X197508318Y-69088582D01*
X197534356Y-69108929D01*
X197534946Y-69108289D01*
X197538778Y-69111817D01*
X197594437Y-69155138D01*
X197722983Y-69255190D01*
X197928273Y-69366287D01*
X198149049Y-69442080D01*
X198379288Y-69480500D01*
X198379292Y-69480500D01*
X198612708Y-69480500D01*
X198612712Y-69480500D01*
X198842951Y-69442080D01*
X199063727Y-69366287D01*
X199269017Y-69255190D01*
X199453220Y-69111818D01*
X199465663Y-69098302D01*
X199611314Y-68940083D01*
X199627500Y-68915308D01*
X199738984Y-68744669D01*
X199832749Y-68530907D01*
X199890051Y-68304626D01*
X199909327Y-68072000D01*
X204552673Y-68072000D01*
X204571950Y-68304633D01*
X204629249Y-68530903D01*
X204629252Y-68530910D01*
X204723015Y-68744668D01*
X204850685Y-68940083D01*
X205008774Y-69111813D01*
X205008778Y-69111817D01*
X205064437Y-69155138D01*
X205192983Y-69255190D01*
X205398273Y-69366287D01*
X205619049Y-69442080D01*
X205849288Y-69480500D01*
X205849292Y-69480500D01*
X206082708Y-69480500D01*
X206082712Y-69480500D01*
X206312951Y-69442080D01*
X206533727Y-69366287D01*
X206739017Y-69255190D01*
X206923220Y-69111818D01*
X206923225Y-69111813D01*
X206927054Y-69108289D01*
X206928431Y-69109785D01*
X206981780Y-69077690D01*
X207052745Y-69079790D01*
X207111310Y-69119924D01*
X207131741Y-69155549D01*
X207155111Y-69218204D01*
X207155112Y-69218207D01*
X207242738Y-69335261D01*
X207359792Y-69422887D01*
X207359794Y-69422888D01*
X207359796Y-69422889D01*
X207411243Y-69442078D01*
X207496795Y-69473988D01*
X207496803Y-69473990D01*
X207557350Y-69480499D01*
X207557355Y-69480499D01*
X207557362Y-69480500D01*
X207557368Y-69480500D01*
X209454632Y-69480500D01*
X209454638Y-69480500D01*
X209454645Y-69480499D01*
X209454649Y-69480499D01*
X209515196Y-69473990D01*
X209515199Y-69473989D01*
X209515201Y-69473989D01*
X209652204Y-69422889D01*
X209652799Y-69422444D01*
X209769261Y-69335261D01*
X209856887Y-69218207D01*
X209856887Y-69218206D01*
X209856889Y-69218204D01*
X209907989Y-69081201D01*
X209908367Y-69077690D01*
X209914499Y-69020649D01*
X209914500Y-69020632D01*
X209914500Y-67135693D01*
X213208560Y-67135693D01*
X213208560Y-67397946D01*
X213242788Y-67657940D01*
X213242790Y-67657947D01*
X213310664Y-67911259D01*
X213411022Y-68153544D01*
X213411023Y-68153545D01*
X213411028Y-68153555D01*
X213542143Y-68380653D01*
X213542147Y-68380659D01*
X213701787Y-68588705D01*
X213701806Y-68588726D01*
X213887213Y-68774133D01*
X213887223Y-68774142D01*
X213887229Y-68774148D01*
X213887232Y-68774150D01*
X213887234Y-68774152D01*
X214095280Y-68933792D01*
X214095286Y-68933796D01*
X214245701Y-69020638D01*
X214322396Y-69064918D01*
X214564681Y-69165276D01*
X214817993Y-69233150D01*
X214817997Y-69233150D01*
X214817999Y-69233151D01*
X214885008Y-69241972D01*
X215077996Y-69267380D01*
X215078003Y-69267380D01*
X215340237Y-69267380D01*
X215340244Y-69267380D01*
X215575222Y-69236444D01*
X215600240Y-69233151D01*
X215600240Y-69233150D01*
X215600247Y-69233150D01*
X215853559Y-69165276D01*
X216095844Y-69064918D01*
X216322957Y-68933794D01*
X216531011Y-68774148D01*
X216716448Y-68588711D01*
X216876094Y-68380657D01*
X217007218Y-68153544D01*
X217107576Y-67911259D01*
X217175450Y-67657947D01*
X217209680Y-67397944D01*
X217209680Y-67135696D01*
X217175450Y-66875693D01*
X217107576Y-66622381D01*
X217007218Y-66380096D01*
X216876094Y-66152983D01*
X216716448Y-65944929D01*
X216716442Y-65944923D01*
X216716433Y-65944913D01*
X216531026Y-65759506D01*
X216531005Y-65759487D01*
X216322959Y-65599847D01*
X216322953Y-65599843D01*
X216095855Y-65468728D01*
X216095850Y-65468725D01*
X216095844Y-65468722D01*
X215853559Y-65368364D01*
X215600247Y-65300490D01*
X215600240Y-65300488D01*
X215340246Y-65266260D01*
X215340244Y-65266260D01*
X215077996Y-65266260D01*
X215077993Y-65266260D01*
X214817999Y-65300488D01*
X214564681Y-65368364D01*
X214322394Y-65468723D01*
X214322384Y-65468728D01*
X214095286Y-65599843D01*
X214095280Y-65599847D01*
X213887234Y-65759487D01*
X213887213Y-65759506D01*
X213701806Y-65944913D01*
X213701787Y-65944934D01*
X213542147Y-66152980D01*
X213542143Y-66152986D01*
X213411028Y-66380084D01*
X213411023Y-66380094D01*
X213310664Y-66622381D01*
X213242788Y-66875699D01*
X213208560Y-67135693D01*
X209914500Y-67135693D01*
X209914500Y-67123367D01*
X209914498Y-67123339D01*
X209907990Y-67062803D01*
X209907988Y-67062795D01*
X209856978Y-66926035D01*
X209856889Y-66925796D01*
X209856887Y-66925793D01*
X209856887Y-66925792D01*
X209769261Y-66808738D01*
X209652207Y-66721112D01*
X209652202Y-66721110D01*
X209515204Y-66670011D01*
X209515196Y-66670009D01*
X209454649Y-66663500D01*
X209454638Y-66663500D01*
X207557362Y-66663500D01*
X207557350Y-66663500D01*
X207496803Y-66670009D01*
X207496795Y-66670011D01*
X207359797Y-66721110D01*
X207359792Y-66721112D01*
X207242738Y-66808738D01*
X207155112Y-66925792D01*
X207155112Y-66925793D01*
X207131741Y-66988451D01*
X207089193Y-67045286D01*
X207022672Y-67070095D01*
X206953298Y-67055002D01*
X206927705Y-67035002D01*
X206927054Y-67035711D01*
X206923221Y-67032182D01*
X206786842Y-66926034D01*
X206739017Y-66888810D01*
X206533727Y-66777713D01*
X206533724Y-66777712D01*
X206533723Y-66777711D01*
X206312955Y-66701921D01*
X206312948Y-66701919D01*
X206214411Y-66685476D01*
X206082712Y-66663500D01*
X205849288Y-66663500D01*
X205734066Y-66682727D01*
X205619051Y-66701919D01*
X205619044Y-66701921D01*
X205398276Y-66777711D01*
X205398273Y-66777713D01*
X205192985Y-66888809D01*
X205192983Y-66888810D01*
X205008778Y-67032182D01*
X205008774Y-67032186D01*
X204850685Y-67203916D01*
X204723015Y-67399331D01*
X204629252Y-67613089D01*
X204629249Y-67613096D01*
X204571950Y-67839366D01*
X204571949Y-67839372D01*
X204571949Y-67839374D01*
X204557582Y-68012756D01*
X204552673Y-68072000D01*
X199909327Y-68072000D01*
X199890051Y-67839374D01*
X199844106Y-67657940D01*
X199832750Y-67613096D01*
X199832747Y-67613089D01*
X199738984Y-67399331D01*
X199611314Y-67203916D01*
X199453225Y-67032186D01*
X199453221Y-67032182D01*
X199316842Y-66926034D01*
X199269017Y-66888810D01*
X199063727Y-66777713D01*
X199063724Y-66777712D01*
X199063723Y-66777711D01*
X198842955Y-66701921D01*
X198842948Y-66701919D01*
X198744411Y-66685476D01*
X198612712Y-66663500D01*
X198379288Y-66663500D01*
X198264066Y-66682727D01*
X198149051Y-66701919D01*
X198149044Y-66701921D01*
X197928276Y-66777711D01*
X197928273Y-66777713D01*
X197722985Y-66888809D01*
X197722983Y-66888810D01*
X197538778Y-67032182D01*
X197534946Y-67035711D01*
X197533688Y-67034345D01*
X197479763Y-67066742D01*
X197408799Y-67064598D01*
X197350260Y-67024428D01*
X197329877Y-66988861D01*
X197306444Y-66926034D01*
X197218904Y-66809095D01*
X197101965Y-66721555D01*
X196965093Y-66670505D01*
X196904597Y-66664000D01*
X196210000Y-66664000D01*
X196210000Y-67699031D01*
X196129694Y-67652667D01*
X196015244Y-67622000D01*
X195896756Y-67622000D01*
X195782306Y-67652667D01*
X195702000Y-67699031D01*
X195702000Y-66664000D01*
X195007402Y-66664000D01*
X194946906Y-66670505D01*
X194810035Y-66721555D01*
X194810034Y-66721555D01*
X194693095Y-66809095D01*
X194605555Y-66926034D01*
X194605555Y-66926035D01*
X194554505Y-67062906D01*
X194548000Y-67123402D01*
X189914500Y-67123402D01*
X189914500Y-67123367D01*
X189914498Y-67123339D01*
X189907990Y-67062803D01*
X189907988Y-67062795D01*
X189856978Y-66926035D01*
X189856889Y-66925796D01*
X189856887Y-66925793D01*
X189856887Y-66925792D01*
X189769261Y-66808738D01*
X189652207Y-66721112D01*
X189652202Y-66721110D01*
X189515204Y-66670011D01*
X189515196Y-66670009D01*
X189454649Y-66663500D01*
X189454638Y-66663500D01*
X187557362Y-66663500D01*
X187557350Y-66663500D01*
X187496803Y-66670009D01*
X187496795Y-66670011D01*
X187359797Y-66721110D01*
X187359792Y-66721112D01*
X187242738Y-66808738D01*
X187155112Y-66925792D01*
X187155112Y-66925793D01*
X187131741Y-66988451D01*
X187089193Y-67045286D01*
X187022672Y-67070095D01*
X186953298Y-67055002D01*
X186927705Y-67035002D01*
X186927054Y-67035711D01*
X186923221Y-67032182D01*
X186786842Y-66926034D01*
X186739017Y-66888810D01*
X186533727Y-66777713D01*
X186533724Y-66777712D01*
X186533723Y-66777711D01*
X186312955Y-66701921D01*
X186312948Y-66701919D01*
X186214411Y-66685476D01*
X186082712Y-66663500D01*
X185849288Y-66663500D01*
X185734066Y-66682727D01*
X185619051Y-66701919D01*
X185619044Y-66701921D01*
X185398276Y-66777711D01*
X185398273Y-66777713D01*
X185192985Y-66888809D01*
X185192983Y-66888810D01*
X185008778Y-67032182D01*
X185008774Y-67032186D01*
X184850685Y-67203916D01*
X184723015Y-67399331D01*
X184629252Y-67613089D01*
X184629249Y-67613096D01*
X184571950Y-67839366D01*
X184571949Y-67839372D01*
X184571949Y-67839374D01*
X184552673Y-68072000D01*
X184571949Y-68304626D01*
X184571949Y-68304628D01*
X184571950Y-68304632D01*
X184572307Y-68306042D01*
X184572284Y-68306638D01*
X184572807Y-68309770D01*
X184572162Y-68309877D01*
X184569636Y-68376988D01*
X184539256Y-68426061D01*
X181634484Y-71330835D01*
X181528837Y-71436481D01*
X181528832Y-71436488D01*
X181445826Y-71560715D01*
X181388650Y-71698750D01*
X181388649Y-71698753D01*
X181359500Y-71845290D01*
X181359500Y-74572832D01*
X181339498Y-74640953D01*
X181305772Y-74676044D01*
X181273706Y-74698497D01*
X181273697Y-74698504D01*
X181111804Y-74860397D01*
X181111799Y-74860403D01*
X180980477Y-75047950D01*
X180883717Y-75255453D01*
X180883715Y-75255459D01*
X180834803Y-75438000D01*
X180824457Y-75476613D01*
X180804502Y-75704700D01*
X179362500Y-75704700D01*
X179362500Y-74843367D01*
X179362499Y-74843350D01*
X179355990Y-74782803D01*
X179355988Y-74782795D01*
X179324548Y-74698504D01*
X179304889Y-74645796D01*
X179304888Y-74645794D01*
X179304887Y-74645792D01*
X179217261Y-74528738D01*
X179100207Y-74441112D01*
X179100202Y-74441110D01*
X178963204Y-74390011D01*
X178963196Y-74390009D01*
X178902649Y-74383500D01*
X178902638Y-74383500D01*
X177205362Y-74383500D01*
X177205350Y-74383500D01*
X177144803Y-74390009D01*
X177144795Y-74390011D01*
X177007797Y-74441110D01*
X177007792Y-74441112D01*
X176890738Y-74528738D01*
X176803112Y-74645792D01*
X176803110Y-74645797D01*
X176752011Y-74782795D01*
X176752009Y-74782803D01*
X176745500Y-74843350D01*
X175499848Y-74843350D01*
X175342300Y-74685802D01*
X175274637Y-74638424D01*
X175154749Y-74554477D01*
X174947246Y-74457717D01*
X174947240Y-74457715D01*
X174853771Y-74432670D01*
X174726087Y-74398457D01*
X174498000Y-74378502D01*
X174269913Y-74398457D01*
X174048759Y-74457715D01*
X174048753Y-74457717D01*
X173841250Y-74554477D01*
X173653703Y-74685799D01*
X173653697Y-74685804D01*
X173491804Y-74847697D01*
X173491799Y-74847703D01*
X173360477Y-75035250D01*
X173263717Y-75242753D01*
X173263715Y-75242759D01*
X173211400Y-75438000D01*
X173204457Y-75463913D01*
X173184502Y-75692000D01*
X164714813Y-75692000D01*
X164763427Y-75568134D01*
X164819407Y-75322869D01*
X164838207Y-75072000D01*
X164819407Y-74821131D01*
X164763427Y-74575866D01*
X164690484Y-74390011D01*
X164671520Y-74341690D01*
X164671518Y-74341686D01*
X164545733Y-74123819D01*
X164388874Y-73927123D01*
X164204467Y-73756021D01*
X164204461Y-73756015D01*
X164135176Y-73708777D01*
X163996606Y-73614301D01*
X163769949Y-73505148D01*
X163769936Y-73505143D01*
X163529559Y-73430997D01*
X163529551Y-73430995D01*
X163529549Y-73430995D01*
X163280786Y-73393500D01*
X163029214Y-73393500D01*
X162780451Y-73430995D01*
X162780449Y-73430995D01*
X162780440Y-73430997D01*
X162540063Y-73505143D01*
X162540051Y-73505148D01*
X162313394Y-73614301D01*
X162313387Y-73614305D01*
X162105544Y-73756011D01*
X162105532Y-73756021D01*
X161921125Y-73927123D01*
X161764266Y-74123819D01*
X161638481Y-74341686D01*
X161638479Y-74341690D01*
X161546571Y-74575870D01*
X161493469Y-74808530D01*
X161490593Y-74821131D01*
X161471793Y-75072000D01*
X156475107Y-75072000D01*
X156458087Y-75035501D01*
X156326815Y-74848025D01*
X156326810Y-74848019D01*
X156164980Y-74686189D01*
X156164974Y-74686184D01*
X155977498Y-74554912D01*
X155770073Y-74458188D01*
X155770071Y-74458187D01*
X155575000Y-74405917D01*
X155575000Y-75380314D01*
X155566606Y-75371920D01*
X155475394Y-75319259D01*
X155373661Y-75292000D01*
X155268339Y-75292000D01*
X155166606Y-75319259D01*
X155075394Y-75371920D01*
X155067000Y-75380314D01*
X155067000Y-74405917D01*
X155066999Y-74405917D01*
X154871928Y-74458187D01*
X154871926Y-74458188D01*
X154664501Y-74554912D01*
X154477025Y-74686184D01*
X154477019Y-74686189D01*
X154315189Y-74848019D01*
X154315184Y-74848025D01*
X154183912Y-75035501D01*
X154087188Y-75242926D01*
X154087186Y-75242931D01*
X154034917Y-75438000D01*
X153051600Y-75438000D01*
X152999284Y-75242757D01*
X152902523Y-75035251D01*
X152771198Y-74847700D01*
X152609300Y-74685802D01*
X152541637Y-74638424D01*
X152421749Y-74554477D01*
X152214246Y-74457717D01*
X152214240Y-74457715D01*
X152120771Y-74432670D01*
X151993087Y-74398457D01*
X151765000Y-74378502D01*
X151536913Y-74398457D01*
X151315759Y-74457715D01*
X151315753Y-74457717D01*
X151108250Y-74554477D01*
X150920703Y-74685799D01*
X150920697Y-74685804D01*
X150833595Y-74772907D01*
X150771283Y-74806933D01*
X150700468Y-74801868D01*
X150643632Y-74759321D01*
X150618821Y-74692801D01*
X150618500Y-74683812D01*
X150618500Y-70508370D01*
X150638502Y-70440249D01*
X150655395Y-70419285D01*
X151579655Y-69495024D01*
X151641964Y-69461002D01*
X151689486Y-69459841D01*
X151813286Y-69480500D01*
X151813288Y-69480500D01*
X152046708Y-69480500D01*
X152046712Y-69480500D01*
X152276951Y-69442080D01*
X152497727Y-69366287D01*
X152703017Y-69255190D01*
X152887220Y-69111818D01*
X152887225Y-69111813D01*
X152891054Y-69108289D01*
X152892431Y-69109785D01*
X152945780Y-69077690D01*
X153016745Y-69079790D01*
X153075310Y-69119924D01*
X153095741Y-69155549D01*
X153119111Y-69218204D01*
X153119112Y-69218207D01*
X153206738Y-69335261D01*
X153323792Y-69422887D01*
X153323794Y-69422888D01*
X153323796Y-69422889D01*
X153375243Y-69442078D01*
X153460795Y-69473988D01*
X153460803Y-69473990D01*
X153521350Y-69480499D01*
X153521355Y-69480499D01*
X153521362Y-69480500D01*
X153521368Y-69480500D01*
X155418632Y-69480500D01*
X155418638Y-69480500D01*
X155418645Y-69480499D01*
X155418649Y-69480499D01*
X155479196Y-69473990D01*
X155479199Y-69473989D01*
X155479201Y-69473989D01*
X155616204Y-69422889D01*
X155616799Y-69422444D01*
X155733261Y-69335261D01*
X155820887Y-69218207D01*
X155820887Y-69218206D01*
X155820889Y-69218204D01*
X155871989Y-69081201D01*
X155872367Y-69077690D01*
X155878499Y-69020649D01*
X155878500Y-69020632D01*
X155878500Y-67123402D01*
X160512000Y-67123402D01*
X160512000Y-67818000D01*
X161547032Y-67818000D01*
X161500667Y-67898306D01*
X161470000Y-68012756D01*
X161470000Y-68131244D01*
X161500667Y-68245694D01*
X161547032Y-68326000D01*
X160512000Y-68326000D01*
X160512000Y-69020597D01*
X160518505Y-69081093D01*
X160569555Y-69217964D01*
X160569555Y-69217965D01*
X160657095Y-69334904D01*
X160774034Y-69422444D01*
X160910906Y-69473494D01*
X160971402Y-69479999D01*
X160971415Y-69480000D01*
X161666000Y-69480000D01*
X161666000Y-68444968D01*
X161746306Y-68491333D01*
X161860756Y-68522000D01*
X161979244Y-68522000D01*
X162093694Y-68491333D01*
X162174000Y-68444968D01*
X162174000Y-69480000D01*
X162868585Y-69480000D01*
X162868597Y-69479999D01*
X162929093Y-69473494D01*
X163065964Y-69422444D01*
X163065965Y-69422444D01*
X163182904Y-69334904D01*
X163270444Y-69217965D01*
X163293877Y-69155138D01*
X163336423Y-69098302D01*
X163402943Y-69073491D01*
X163472318Y-69088582D01*
X163498356Y-69108929D01*
X163498946Y-69108289D01*
X163502778Y-69111817D01*
X163558437Y-69155138D01*
X163686983Y-69255190D01*
X163892273Y-69366287D01*
X164113049Y-69442080D01*
X164343288Y-69480500D01*
X164343292Y-69480500D01*
X164576708Y-69480500D01*
X164576712Y-69480500D01*
X164806951Y-69442080D01*
X165027727Y-69366287D01*
X165233017Y-69255190D01*
X165417220Y-69111818D01*
X165429663Y-69098302D01*
X165575314Y-68940083D01*
X165591500Y-68915308D01*
X165702984Y-68744669D01*
X165796749Y-68530907D01*
X165854051Y-68304626D01*
X165873327Y-68072000D01*
X170516673Y-68072000D01*
X170535950Y-68304633D01*
X170593249Y-68530903D01*
X170593252Y-68530910D01*
X170687015Y-68744668D01*
X170814685Y-68940083D01*
X170972774Y-69111813D01*
X170972778Y-69111817D01*
X171028437Y-69155138D01*
X171156983Y-69255190D01*
X171362273Y-69366287D01*
X171583049Y-69442080D01*
X171813288Y-69480500D01*
X171813292Y-69480500D01*
X172046708Y-69480500D01*
X172046712Y-69480500D01*
X172276951Y-69442080D01*
X172497727Y-69366287D01*
X172703017Y-69255190D01*
X172887220Y-69111818D01*
X172887225Y-69111813D01*
X172891054Y-69108289D01*
X172892431Y-69109785D01*
X172945780Y-69077690D01*
X173016745Y-69079790D01*
X173075310Y-69119924D01*
X173095741Y-69155549D01*
X173119111Y-69218204D01*
X173119112Y-69218207D01*
X173206738Y-69335261D01*
X173323792Y-69422887D01*
X173323794Y-69422888D01*
X173323796Y-69422889D01*
X173375243Y-69442078D01*
X173460795Y-69473988D01*
X173460803Y-69473990D01*
X173521350Y-69480499D01*
X173521355Y-69480499D01*
X173521362Y-69480500D01*
X173521368Y-69480500D01*
X175418632Y-69480500D01*
X175418638Y-69480500D01*
X175418645Y-69480499D01*
X175418649Y-69480499D01*
X175479196Y-69473990D01*
X175479199Y-69473989D01*
X175479201Y-69473989D01*
X175616204Y-69422889D01*
X175616799Y-69422444D01*
X175733261Y-69335261D01*
X175820887Y-69218207D01*
X175820887Y-69218206D01*
X175820889Y-69218204D01*
X175871989Y-69081201D01*
X175872367Y-69077690D01*
X175878499Y-69020649D01*
X175878500Y-69020632D01*
X175878500Y-67123367D01*
X175878498Y-67123339D01*
X175871990Y-67062803D01*
X175871988Y-67062795D01*
X175820978Y-66926035D01*
X175820889Y-66925796D01*
X175820887Y-66925793D01*
X175820887Y-66925792D01*
X175733261Y-66808738D01*
X175616207Y-66721112D01*
X175616202Y-66721110D01*
X175479204Y-66670011D01*
X175479196Y-66670009D01*
X175418649Y-66663500D01*
X175418638Y-66663500D01*
X173521362Y-66663500D01*
X173521350Y-66663500D01*
X173460803Y-66670009D01*
X173460795Y-66670011D01*
X173323797Y-66721110D01*
X173323792Y-66721112D01*
X173206738Y-66808738D01*
X173119112Y-66925792D01*
X173119112Y-66925793D01*
X173095741Y-66988451D01*
X173053193Y-67045286D01*
X172986672Y-67070095D01*
X172917298Y-67055002D01*
X172891705Y-67035002D01*
X172891054Y-67035711D01*
X172887221Y-67032182D01*
X172750842Y-66926034D01*
X172703017Y-66888810D01*
X172497727Y-66777713D01*
X172497724Y-66777712D01*
X172497723Y-66777711D01*
X172276955Y-66701921D01*
X172276948Y-66701919D01*
X172178411Y-66685476D01*
X172046712Y-66663500D01*
X171813288Y-66663500D01*
X171698066Y-66682727D01*
X171583051Y-66701919D01*
X171583044Y-66701921D01*
X171362276Y-66777711D01*
X171362273Y-66777713D01*
X171156985Y-66888809D01*
X171156983Y-66888810D01*
X170972778Y-67032182D01*
X170972774Y-67032186D01*
X170814685Y-67203916D01*
X170687015Y-67399331D01*
X170593252Y-67613089D01*
X170593249Y-67613096D01*
X170535950Y-67839366D01*
X170535949Y-67839372D01*
X170535949Y-67839374D01*
X170521582Y-68012756D01*
X170516673Y-68072000D01*
X165873327Y-68072000D01*
X165854051Y-67839374D01*
X165808106Y-67657940D01*
X165796750Y-67613096D01*
X165796747Y-67613089D01*
X165702984Y-67399331D01*
X165575314Y-67203916D01*
X165417225Y-67032186D01*
X165417221Y-67032182D01*
X165280842Y-66926034D01*
X165233017Y-66888810D01*
X165027727Y-66777713D01*
X165027724Y-66777712D01*
X165027723Y-66777711D01*
X164806955Y-66701921D01*
X164806948Y-66701919D01*
X164708411Y-66685476D01*
X164576712Y-66663500D01*
X164343288Y-66663500D01*
X164228066Y-66682727D01*
X164113051Y-66701919D01*
X164113044Y-66701921D01*
X163892276Y-66777711D01*
X163892273Y-66777713D01*
X163686985Y-66888809D01*
X163686983Y-66888810D01*
X163502778Y-67032182D01*
X163498946Y-67035711D01*
X163497688Y-67034345D01*
X163443763Y-67066742D01*
X163372799Y-67064598D01*
X163314260Y-67024428D01*
X163293877Y-66988861D01*
X163270444Y-66926034D01*
X163182904Y-66809095D01*
X163065965Y-66721555D01*
X162929093Y-66670505D01*
X162868597Y-66664000D01*
X162174000Y-66664000D01*
X162174000Y-67699031D01*
X162093694Y-67652667D01*
X161979244Y-67622000D01*
X161860756Y-67622000D01*
X161746306Y-67652667D01*
X161666000Y-67699031D01*
X161666000Y-66664000D01*
X160971402Y-66664000D01*
X160910906Y-66670505D01*
X160774035Y-66721555D01*
X160774034Y-66721555D01*
X160657095Y-66809095D01*
X160569555Y-66926034D01*
X160569555Y-66926035D01*
X160518505Y-67062906D01*
X160512000Y-67123402D01*
X155878500Y-67123402D01*
X155878500Y-67123367D01*
X155878498Y-67123339D01*
X155871990Y-67062803D01*
X155871988Y-67062795D01*
X155820978Y-66926035D01*
X155820889Y-66925796D01*
X155820887Y-66925793D01*
X155820887Y-66925792D01*
X155733261Y-66808738D01*
X155616207Y-66721112D01*
X155616202Y-66721110D01*
X155479204Y-66670011D01*
X155479196Y-66670009D01*
X155418649Y-66663500D01*
X155418638Y-66663500D01*
X153521362Y-66663500D01*
X153521350Y-66663500D01*
X153460803Y-66670009D01*
X153460795Y-66670011D01*
X153323797Y-66721110D01*
X153323792Y-66721112D01*
X153206738Y-66808738D01*
X153119112Y-66925792D01*
X153119112Y-66925793D01*
X153095741Y-66988451D01*
X153053193Y-67045286D01*
X152986672Y-67070095D01*
X152917298Y-67055002D01*
X152891705Y-67035002D01*
X152891054Y-67035711D01*
X152887221Y-67032182D01*
X152750842Y-66926034D01*
X152703017Y-66888810D01*
X152497727Y-66777713D01*
X152497724Y-66777712D01*
X152497723Y-66777711D01*
X152276955Y-66701921D01*
X152276948Y-66701919D01*
X152178411Y-66685476D01*
X152046712Y-66663500D01*
X151813288Y-66663500D01*
X151698066Y-66682727D01*
X151583051Y-66701919D01*
X151583044Y-66701921D01*
X151362276Y-66777711D01*
X151362273Y-66777713D01*
X151156985Y-66888809D01*
X151156983Y-66888810D01*
X150972778Y-67032182D01*
X150972774Y-67032186D01*
X150814685Y-67203916D01*
X150687015Y-67399331D01*
X150593252Y-67613089D01*
X150593249Y-67613096D01*
X150535950Y-67839366D01*
X150535949Y-67839372D01*
X150535949Y-67839374D01*
X150516673Y-68072000D01*
X150535949Y-68304626D01*
X150535949Y-68304628D01*
X150535950Y-68304632D01*
X150536307Y-68306042D01*
X150536284Y-68306638D01*
X150536807Y-68309770D01*
X150536162Y-68309877D01*
X150533636Y-68376988D01*
X150503256Y-68426061D01*
X149376484Y-69552835D01*
X149270837Y-69658481D01*
X149270832Y-69658488D01*
X149187826Y-69782715D01*
X149130650Y-69920750D01*
X149130649Y-69920753D01*
X149101500Y-70067290D01*
X149101500Y-74683812D01*
X149081498Y-74751933D01*
X149027842Y-74798426D01*
X148957568Y-74808530D01*
X148892988Y-74779036D01*
X148886405Y-74772907D01*
X148799302Y-74685804D01*
X148799296Y-74685799D01*
X148611749Y-74554477D01*
X148404246Y-74457717D01*
X148404240Y-74457715D01*
X148310771Y-74432670D01*
X148183087Y-74398457D01*
X147955000Y-74378502D01*
X147726913Y-74398457D01*
X147505759Y-74457715D01*
X147505753Y-74457717D01*
X147298250Y-74554477D01*
X147110703Y-74685799D01*
X147110697Y-74685804D01*
X146948804Y-74847697D01*
X146948799Y-74847703D01*
X146817477Y-75035250D01*
X146720717Y-75242753D01*
X146720715Y-75242759D01*
X146668400Y-75438000D01*
X146661457Y-75463913D01*
X146641502Y-75692000D01*
X145753500Y-75692000D01*
X145753500Y-74543362D01*
X145751928Y-74528738D01*
X145746990Y-74482803D01*
X145746988Y-74482795D01*
X145715531Y-74398457D01*
X145695889Y-74345796D01*
X145695888Y-74345794D01*
X145695887Y-74345792D01*
X145608261Y-74228738D01*
X145491207Y-74141112D01*
X145491202Y-74141110D01*
X145354204Y-74090011D01*
X145354196Y-74090009D01*
X145293649Y-74083500D01*
X145293638Y-74083500D01*
X142996362Y-74083500D01*
X142996350Y-74083500D01*
X142935803Y-74090009D01*
X142935795Y-74090011D01*
X142798797Y-74141110D01*
X142798792Y-74141112D01*
X142681738Y-74228738D01*
X142594112Y-74345792D01*
X142594110Y-74345797D01*
X142543011Y-74482795D01*
X142543009Y-74482803D01*
X142536500Y-74543350D01*
X140208000Y-74543350D01*
X140208000Y-67135693D01*
X143208700Y-67135693D01*
X143208700Y-67397946D01*
X143242928Y-67657940D01*
X143242930Y-67657947D01*
X143310804Y-67911259D01*
X143411162Y-68153544D01*
X143411163Y-68153545D01*
X143411168Y-68153555D01*
X143542283Y-68380653D01*
X143542287Y-68380659D01*
X143701927Y-68588705D01*
X143701946Y-68588726D01*
X143887353Y-68774133D01*
X143887363Y-68774142D01*
X143887369Y-68774148D01*
X143887372Y-68774150D01*
X143887374Y-68774152D01*
X144095420Y-68933792D01*
X144095426Y-68933796D01*
X144245841Y-69020638D01*
X144322536Y-69064918D01*
X144564821Y-69165276D01*
X144818133Y-69233150D01*
X144818137Y-69233150D01*
X144818139Y-69233151D01*
X144885148Y-69241972D01*
X145078136Y-69267380D01*
X145078143Y-69267380D01*
X145340377Y-69267380D01*
X145340384Y-69267380D01*
X145575362Y-69236444D01*
X145600380Y-69233151D01*
X145600380Y-69233150D01*
X145600387Y-69233150D01*
X145853699Y-69165276D01*
X146095984Y-69064918D01*
X146323097Y-68933794D01*
X146531151Y-68774148D01*
X146716588Y-68588711D01*
X146876234Y-68380657D01*
X147007358Y-68153544D01*
X147107716Y-67911259D01*
X147175590Y-67657947D01*
X147209820Y-67397944D01*
X147209820Y-67135696D01*
X147175590Y-66875693D01*
X147107716Y-66622381D01*
X147007358Y-66380096D01*
X146876234Y-66152983D01*
X146716588Y-65944929D01*
X146716582Y-65944923D01*
X146716573Y-65944913D01*
X146531166Y-65759506D01*
X146531145Y-65759487D01*
X146323099Y-65599847D01*
X146323093Y-65599843D01*
X146095995Y-65468728D01*
X146095990Y-65468725D01*
X146095984Y-65468722D01*
X145853699Y-65368364D01*
X145600387Y-65300490D01*
X145600380Y-65300488D01*
X145340386Y-65266260D01*
X145340384Y-65266260D01*
X145078136Y-65266260D01*
X145078133Y-65266260D01*
X144818139Y-65300488D01*
X144564821Y-65368364D01*
X144322534Y-65468723D01*
X144322524Y-65468728D01*
X144095426Y-65599843D01*
X144095420Y-65599847D01*
X143887374Y-65759487D01*
X143887353Y-65759506D01*
X143701946Y-65944913D01*
X143701927Y-65944934D01*
X143542287Y-66152980D01*
X143542283Y-66152986D01*
X143411168Y-66380084D01*
X143411163Y-66380094D01*
X143310804Y-66622381D01*
X143242928Y-66875699D01*
X143208700Y-67135693D01*
X140208000Y-67135693D01*
X140208000Y-63036190D01*
X140228002Y-62968069D01*
X140244905Y-62947095D01*
X140671095Y-62520905D01*
X140733407Y-62486879D01*
X140760190Y-62484000D01*
X219411810Y-62484000D01*
X219479931Y-62504002D01*
G37*
%TD.AperFunction*%
M02*
