%TF.GenerationSoftware,KiCad,Pcbnew,8.0.8*%
%TF.CreationDate,2025-01-24T23:50:34+01:00*%
%TF.ProjectId,Bias,42696173-2e6b-4696-9361-645f70636258,rev?*%
%TF.SameCoordinates,Original*%
%TF.FileFunction,Soldermask,Top*%
%TF.FilePolarity,Negative*%
%FSLAX46Y46*%
G04 Gerber Fmt 4.6, Leading zero omitted, Abs format (unit mm)*
G04 Created by KiCad (PCBNEW 8.0.8) date 2025-01-24 23:50:34*
%MOMM*%
%LPD*%
G01*
G04 APERTURE LIST*
G04 Aperture macros list*
%AMRoundRect*
0 Rectangle with rounded corners*
0 $1 Rounding radius*
0 $2 $3 $4 $5 $6 $7 $8 $9 X,Y pos of 4 corners*
0 Add a 4 corners polygon primitive as box body*
4,1,4,$2,$3,$4,$5,$6,$7,$8,$9,$2,$3,0*
0 Add four circle primitives for the rounded corners*
1,1,$1+$1,$2,$3*
1,1,$1+$1,$4,$5*
1,1,$1+$1,$6,$7*
1,1,$1+$1,$8,$9*
0 Add four rect primitives between the rounded corners*
20,1,$1+$1,$2,$3,$4,$5,0*
20,1,$1+$1,$4,$5,$6,$7,0*
20,1,$1+$1,$6,$7,$8,$9,0*
20,1,$1+$1,$8,$9,$2,$3,0*%
G04 Aperture macros list end*
%ADD10R,1.600000X1.600000*%
%ADD11O,1.600000X1.600000*%
%ADD12C,3.500120*%
%ADD13C,1.600000*%
%ADD14R,1.800000X1.800000*%
%ADD15C,1.800000*%
%ADD16R,2.200000X2.200000*%
%ADD17O,2.200000X2.200000*%
%ADD18C,4.000000*%
%ADD19C,2.340000*%
%ADD20RoundRect,0.250000X-0.600000X0.600000X-0.600000X-0.600000X0.600000X-0.600000X0.600000X0.600000X0*%
%ADD21C,1.700000*%
G04 APERTURE END LIST*
D10*
X195072000Y-91440000D03*
D11*
X195072000Y-93980000D03*
X195072000Y-96520000D03*
X195072000Y-99060000D03*
X195072000Y-101600000D03*
X195072000Y-104140000D03*
X195072000Y-106680000D03*
X202692000Y-106680000D03*
X202692000Y-104140000D03*
X202692000Y-101600000D03*
X202692000Y-99060000D03*
X202692000Y-96520000D03*
X202692000Y-93980000D03*
X202692000Y-91440000D03*
D12*
X145209260Y-67266820D03*
X145209260Y-107266740D03*
X215209120Y-67266820D03*
X215209120Y-107266740D03*
D13*
X191516000Y-96520000D03*
X191516000Y-91520000D03*
X191516000Y-99060000D03*
X191516000Y-104060000D03*
X206248000Y-101600000D03*
X211248000Y-101600000D03*
D10*
X186944000Y-93980000D03*
D11*
X176784000Y-93980000D03*
D14*
X154470000Y-68072000D03*
D15*
X151930000Y-68072000D03*
D10*
X178054000Y-75692000D03*
D11*
X178054000Y-85852000D03*
D14*
X161920000Y-68072000D03*
D15*
X164460000Y-68072000D03*
D10*
X186944000Y-90932000D03*
D11*
X176784000Y-90932000D03*
D14*
X208506000Y-68072000D03*
D15*
X205966000Y-68072000D03*
D10*
X206248000Y-93980000D03*
D11*
X216408000Y-93980000D03*
D10*
X209550000Y-75692000D03*
D11*
X209550000Y-85852000D03*
D10*
X206248000Y-90932000D03*
D11*
X216408000Y-90932000D03*
D16*
X144145000Y-75692000D03*
D17*
X144145000Y-85852000D03*
D13*
X185674000Y-75692000D03*
D11*
X185674000Y-85852000D03*
D13*
X186944000Y-99060000D03*
D11*
X176784000Y-99060000D03*
D13*
X174498000Y-75692000D03*
D11*
X174498000Y-85852000D03*
D13*
X212852000Y-75692000D03*
D11*
X212852000Y-85852000D03*
D13*
X216408000Y-75692000D03*
D11*
X216408000Y-85852000D03*
D13*
X186944000Y-102870000D03*
D11*
X176784000Y-102870000D03*
D13*
X206248000Y-75692000D03*
D11*
X206248000Y-85852000D03*
D13*
X147955000Y-85852000D03*
D11*
X147955000Y-75692000D03*
D13*
X151765000Y-75692000D03*
D11*
X151765000Y-85852000D03*
D13*
X151765000Y-91948000D03*
D11*
X151765000Y-102108000D03*
D13*
X148209000Y-102108000D03*
D11*
X148209000Y-91948000D03*
D13*
X206248000Y-98806000D03*
X211248000Y-98806000D03*
X206248000Y-104394000D03*
X211248000Y-104394000D03*
D14*
X174470000Y-68072000D03*
D15*
X171930000Y-68072000D03*
D13*
X182118000Y-75704700D03*
D11*
X182118000Y-85864700D03*
D14*
X195956000Y-68072000D03*
D15*
X198496000Y-68072000D03*
D14*
X188506000Y-68072000D03*
D15*
X185966000Y-68072000D03*
D13*
X155321000Y-85852000D03*
D11*
X155321000Y-75692000D03*
D13*
X189230000Y-85852000D03*
D11*
X189230000Y-75692000D03*
D18*
X197305000Y-80072000D03*
D19*
X194655000Y-85072000D03*
X197155000Y-75072000D03*
X199655000Y-85072000D03*
D18*
X163305000Y-80072000D03*
D19*
X160655000Y-85072000D03*
X163155000Y-75072000D03*
X165655000Y-85072000D03*
D20*
X160655000Y-95885000D03*
D21*
X160655000Y-98425000D03*
X163195000Y-95885000D03*
X163195000Y-98425000D03*
X165735000Y-95885000D03*
X165735000Y-98425000D03*
X168275000Y-95885000D03*
X168275000Y-98425000D03*
M02*
