%TF.GenerationSoftware,KiCad,Pcbnew,8.0.8*%
%TF.CreationDate,2025-02-11T23:57:59+01:00*%
%TF.ProjectId,Aussteuerung,41757373-7465-4756-9572-756e672e6b69,rev?*%
%TF.SameCoordinates,Original*%
%TF.FileFunction,Soldermask,Top*%
%TF.FilePolarity,Negative*%
%FSLAX46Y46*%
G04 Gerber Fmt 4.6, Leading zero omitted, Abs format (unit mm)*
G04 Created by KiCad (PCBNEW 8.0.8) date 2025-02-11 23:57:59*
%MOMM*%
%LPD*%
G01*
G04 APERTURE LIST*
G04 Aperture macros list*
%AMRoundRect*
0 Rectangle with rounded corners*
0 $1 Rounding radius*
0 $2 $3 $4 $5 $6 $7 $8 $9 X,Y pos of 4 corners*
0 Add a 4 corners polygon primitive as box body*
4,1,4,$2,$3,$4,$5,$6,$7,$8,$9,$2,$3,0*
0 Add four circle primitives for the rounded corners*
1,1,$1+$1,$2,$3*
1,1,$1+$1,$4,$5*
1,1,$1+$1,$6,$7*
1,1,$1+$1,$8,$9*
0 Add four rect primitives between the rounded corners*
20,1,$1+$1,$2,$3,$4,$5,0*
20,1,$1+$1,$4,$5,$6,$7,0*
20,1,$1+$1,$6,$7,$8,$9,0*
20,1,$1+$1,$8,$9,$2,$3,0*%
G04 Aperture macros list end*
%ADD10C,1.600000*%
%ADD11O,1.600000X1.600000*%
%ADD12R,1.600000X1.600000*%
%ADD13RoundRect,0.250000X-0.845000X0.620000X-0.845000X-0.620000X0.845000X-0.620000X0.845000X0.620000X0*%
%ADD14O,2.190000X1.740000*%
%ADD15C,3.500120*%
%ADD16C,2.400000*%
%ADD17R,2.000000X2.000000*%
%ADD18C,2.000000*%
%ADD19RoundRect,0.250001X-1.099999X-1.399999X1.099999X-1.399999X1.099999X1.399999X-1.099999X1.399999X0*%
%ADD20O,2.700000X3.300000*%
%ADD21RoundRect,0.250001X-1.399999X1.099999X-1.399999X-1.099999X1.399999X-1.099999X1.399999X1.099999X0*%
%ADD22O,3.300000X2.700000*%
%ADD23RoundRect,0.250001X1.399999X-1.099999X1.399999X1.099999X-1.399999X1.099999X-1.399999X-1.099999X0*%
%ADD24C,4.000000*%
%ADD25C,2.340000*%
G04 APERTURE END LIST*
D10*
X122682000Y-89408000D03*
D11*
X132842000Y-89408000D03*
D12*
X88773000Y-123952000D03*
D11*
X78613000Y-123952000D03*
D13*
X67818000Y-113030000D03*
D14*
X67818000Y-115570000D03*
D15*
X67866260Y-91363800D03*
X67866260Y-121363740D03*
X157866080Y-91363800D03*
X157866080Y-121363740D03*
D10*
X75438000Y-89662000D03*
D11*
X75438000Y-99822000D03*
D16*
X100918000Y-117856000D03*
X95918000Y-117856000D03*
X105918000Y-117856000D03*
D17*
X84668000Y-117856000D03*
D18*
X80918000Y-117856000D03*
D12*
X78994000Y-112776000D03*
D11*
X78994000Y-102616000D03*
D10*
X129540000Y-112268000D03*
D11*
X129540000Y-102108000D03*
D19*
X67818000Y-100382000D03*
D20*
X67818000Y-105882000D03*
D16*
X109220000Y-96139000D03*
X131720000Y-96139000D03*
X81608000Y-96901000D03*
X104108000Y-96901000D03*
D21*
X132842000Y-120904000D03*
D22*
X127342000Y-120904000D03*
D23*
X102160000Y-111252000D03*
D22*
X107660000Y-111252000D03*
D10*
X109220000Y-89408000D03*
D11*
X119380000Y-89408000D03*
D12*
X75438000Y-102616000D03*
D11*
X75438000Y-112776000D03*
D16*
X85059500Y-91031500D03*
X90059500Y-91031500D03*
X80059500Y-91031500D03*
D17*
X101309500Y-91031500D03*
D18*
X105059500Y-91031500D03*
D24*
X118865000Y-106362000D03*
D25*
X113865000Y-103712000D03*
X123865000Y-106212000D03*
X113865000Y-108712000D03*
D24*
X88865000Y-106362000D03*
D25*
X93865000Y-109012000D03*
X83865000Y-106512000D03*
X93865000Y-104012000D03*
D24*
X155837227Y-99898041D03*
X157939001Y-106364200D03*
X155827269Y-112845641D03*
X150326173Y-116830518D03*
X143539813Y-116826622D03*
X138038339Y-112828610D03*
X135939007Y-106377764D03*
X137995309Y-99961063D03*
X143526963Y-95907561D03*
M02*
