%TF.GenerationSoftware,KiCad,Pcbnew,8.0.8*%
%TF.CreationDate,2025-02-11T23:57:59+01:00*%
%TF.ProjectId,Aussteuerung,41757373-7465-4756-9572-756e672e6b69,rev?*%
%TF.SameCoordinates,Original*%
%TF.FileFunction,Legend,Bot*%
%TF.FilePolarity,Positive*%
%FSLAX46Y46*%
G04 Gerber Fmt 4.6, Leading zero omitted, Abs format (unit mm)*
G04 Created by KiCad (PCBNEW 8.0.8) date 2025-02-11 23:57:59*
%MOMM*%
%LPD*%
G01*
G04 APERTURE LIST*
G04 Aperture macros list*
%AMRoundRect*
0 Rectangle with rounded corners*
0 $1 Rounding radius*
0 $2 $3 $4 $5 $6 $7 $8 $9 X,Y pos of 4 corners*
0 Add a 4 corners polygon primitive as box body*
4,1,4,$2,$3,$4,$5,$6,$7,$8,$9,$2,$3,0*
0 Add four circle primitives for the rounded corners*
1,1,$1+$1,$2,$3*
1,1,$1+$1,$4,$5*
1,1,$1+$1,$6,$7*
1,1,$1+$1,$8,$9*
0 Add four rect primitives between the rounded corners*
20,1,$1+$1,$2,$3,$4,$5,0*
20,1,$1+$1,$4,$5,$6,$7,0*
20,1,$1+$1,$6,$7,$8,$9,0*
20,1,$1+$1,$8,$9,$2,$3,0*%
G04 Aperture macros list end*
%ADD10C,0.300000*%
%ADD11C,0.150000*%
%ADD12C,0.381000*%
%ADD13C,0.400000*%
%ADD14C,0.200000*%
%ADD15C,0.100000*%
%ADD16C,0.120000*%
%ADD17C,0.010000*%
%ADD18C,1.600000*%
%ADD19O,1.600000X1.600000*%
%ADD20R,1.600000X1.600000*%
%ADD21RoundRect,0.250000X-0.845000X0.620000X-0.845000X-0.620000X0.845000X-0.620000X0.845000X0.620000X0*%
%ADD22O,2.190000X1.740000*%
%ADD23C,3.500120*%
%ADD24C,2.400000*%
%ADD25R,2.000000X2.000000*%
%ADD26C,2.000000*%
%ADD27RoundRect,0.250001X-1.099999X-1.399999X1.099999X-1.399999X1.099999X1.399999X-1.099999X1.399999X0*%
%ADD28O,2.700000X3.300000*%
%ADD29RoundRect,0.250001X-1.399999X1.099999X-1.399999X-1.099999X1.399999X-1.099999X1.399999X1.099999X0*%
%ADD30O,3.300000X2.700000*%
%ADD31RoundRect,0.250001X1.399999X-1.099999X1.399999X1.099999X-1.399999X1.099999X-1.399999X-1.099999X0*%
%ADD32C,4.000000*%
%ADD33C,2.340000*%
G04 APERTURE END LIST*
D10*
X111359385Y-111207714D02*
X111287957Y-110993428D01*
X111287957Y-110993428D02*
X111216528Y-110921999D01*
X111216528Y-110921999D02*
X111073671Y-110850571D01*
X111073671Y-110850571D02*
X110859385Y-110850571D01*
X110859385Y-110850571D02*
X110716528Y-110921999D01*
X110716528Y-110921999D02*
X110645100Y-110993428D01*
X110645100Y-110993428D02*
X110573671Y-111136285D01*
X110573671Y-111136285D02*
X110573671Y-111707714D01*
X110573671Y-111707714D02*
X112073671Y-111707714D01*
X112073671Y-111707714D02*
X112073671Y-111207714D01*
X112073671Y-111207714D02*
X112002242Y-111064857D01*
X112002242Y-111064857D02*
X111930814Y-110993428D01*
X111930814Y-110993428D02*
X111787957Y-110921999D01*
X111787957Y-110921999D02*
X111645100Y-110921999D01*
X111645100Y-110921999D02*
X111502242Y-110993428D01*
X111502242Y-110993428D02*
X111430814Y-111064857D01*
X111430814Y-111064857D02*
X111359385Y-111207714D01*
X111359385Y-111207714D02*
X111359385Y-111707714D01*
X110573671Y-110207714D02*
X111573671Y-110207714D01*
X111287957Y-110207714D02*
X111430814Y-110136285D01*
X111430814Y-110136285D02*
X111502242Y-110064857D01*
X111502242Y-110064857D02*
X111573671Y-109921999D01*
X111573671Y-109921999D02*
X111573671Y-109779142D01*
X110573671Y-109279143D02*
X111573671Y-109279143D01*
X112073671Y-109279143D02*
X112002242Y-109350571D01*
X112002242Y-109350571D02*
X111930814Y-109279143D01*
X111930814Y-109279143D02*
X112002242Y-109207714D01*
X112002242Y-109207714D02*
X112073671Y-109279143D01*
X112073671Y-109279143D02*
X111930814Y-109279143D01*
X111573671Y-107922000D02*
X110359385Y-107922000D01*
X110359385Y-107922000D02*
X110216528Y-107993428D01*
X110216528Y-107993428D02*
X110145100Y-108064857D01*
X110145100Y-108064857D02*
X110073671Y-108207714D01*
X110073671Y-108207714D02*
X110073671Y-108422000D01*
X110073671Y-108422000D02*
X110145100Y-108564857D01*
X110645100Y-107922000D02*
X110573671Y-108064857D01*
X110573671Y-108064857D02*
X110573671Y-108350571D01*
X110573671Y-108350571D02*
X110645100Y-108493428D01*
X110645100Y-108493428D02*
X110716528Y-108564857D01*
X110716528Y-108564857D02*
X110859385Y-108636285D01*
X110859385Y-108636285D02*
X111287957Y-108636285D01*
X111287957Y-108636285D02*
X111430814Y-108564857D01*
X111430814Y-108564857D02*
X111502242Y-108493428D01*
X111502242Y-108493428D02*
X111573671Y-108350571D01*
X111573671Y-108350571D02*
X111573671Y-108064857D01*
X111573671Y-108064857D02*
X111502242Y-107922000D01*
X110573671Y-107207714D02*
X112073671Y-107207714D01*
X110573671Y-106564857D02*
X111359385Y-106564857D01*
X111359385Y-106564857D02*
X111502242Y-106636285D01*
X111502242Y-106636285D02*
X111573671Y-106779142D01*
X111573671Y-106779142D02*
X111573671Y-106993428D01*
X111573671Y-106993428D02*
X111502242Y-107136285D01*
X111502242Y-107136285D02*
X111430814Y-107207714D01*
X111573671Y-106064856D02*
X111573671Y-105493428D01*
X112073671Y-105850571D02*
X110787957Y-105850571D01*
X110787957Y-105850571D02*
X110645100Y-105779142D01*
X110645100Y-105779142D02*
X110573671Y-105636285D01*
X110573671Y-105636285D02*
X110573671Y-105493428D01*
X111573671Y-104993428D02*
X110573671Y-104993428D01*
X111430814Y-104993428D02*
X111502242Y-104921999D01*
X111502242Y-104921999D02*
X111573671Y-104779142D01*
X111573671Y-104779142D02*
X111573671Y-104564856D01*
X111573671Y-104564856D02*
X111502242Y-104421999D01*
X111502242Y-104421999D02*
X111359385Y-104350571D01*
X111359385Y-104350571D02*
X110573671Y-104350571D01*
X110645100Y-103064856D02*
X110573671Y-103207713D01*
X110573671Y-103207713D02*
X110573671Y-103493428D01*
X110573671Y-103493428D02*
X110645100Y-103636285D01*
X110645100Y-103636285D02*
X110787957Y-103707713D01*
X110787957Y-103707713D02*
X111359385Y-103707713D01*
X111359385Y-103707713D02*
X111502242Y-103636285D01*
X111502242Y-103636285D02*
X111573671Y-103493428D01*
X111573671Y-103493428D02*
X111573671Y-103207713D01*
X111573671Y-103207713D02*
X111502242Y-103064856D01*
X111502242Y-103064856D02*
X111359385Y-102993428D01*
X111359385Y-102993428D02*
X111216528Y-102993428D01*
X111216528Y-102993428D02*
X111073671Y-103707713D01*
X110645100Y-102421999D02*
X110573671Y-102279142D01*
X110573671Y-102279142D02*
X110573671Y-101993428D01*
X110573671Y-101993428D02*
X110645100Y-101850571D01*
X110645100Y-101850571D02*
X110787957Y-101779142D01*
X110787957Y-101779142D02*
X110859385Y-101779142D01*
X110859385Y-101779142D02*
X111002242Y-101850571D01*
X111002242Y-101850571D02*
X111073671Y-101993428D01*
X111073671Y-101993428D02*
X111073671Y-102207714D01*
X111073671Y-102207714D02*
X111145100Y-102350571D01*
X111145100Y-102350571D02*
X111287957Y-102421999D01*
X111287957Y-102421999D02*
X111359385Y-102421999D01*
X111359385Y-102421999D02*
X111502242Y-102350571D01*
X111502242Y-102350571D02*
X111573671Y-102207714D01*
X111573671Y-102207714D02*
X111573671Y-101993428D01*
X111573671Y-101993428D02*
X111502242Y-101850571D01*
X110645100Y-101207713D02*
X110573671Y-101064856D01*
X110573671Y-101064856D02*
X110573671Y-100779142D01*
X110573671Y-100779142D02*
X110645100Y-100636285D01*
X110645100Y-100636285D02*
X110787957Y-100564856D01*
X110787957Y-100564856D02*
X110859385Y-100564856D01*
X110859385Y-100564856D02*
X111002242Y-100636285D01*
X111002242Y-100636285D02*
X111073671Y-100779142D01*
X111073671Y-100779142D02*
X111073671Y-100993428D01*
X111073671Y-100993428D02*
X111145100Y-101136285D01*
X111145100Y-101136285D02*
X111287957Y-101207713D01*
X111287957Y-101207713D02*
X111359385Y-101207713D01*
X111359385Y-101207713D02*
X111502242Y-101136285D01*
X111502242Y-101136285D02*
X111573671Y-100993428D01*
X111573671Y-100993428D02*
X111573671Y-100779142D01*
X111573671Y-100779142D02*
X111502242Y-100636285D01*
X80673100Y-111600571D02*
X80601671Y-111386286D01*
X80601671Y-111386286D02*
X80601671Y-111029143D01*
X80601671Y-111029143D02*
X80673100Y-110886286D01*
X80673100Y-110886286D02*
X80744528Y-110814857D01*
X80744528Y-110814857D02*
X80887385Y-110743428D01*
X80887385Y-110743428D02*
X81030242Y-110743428D01*
X81030242Y-110743428D02*
X81173100Y-110814857D01*
X81173100Y-110814857D02*
X81244528Y-110886286D01*
X81244528Y-110886286D02*
X81315957Y-111029143D01*
X81315957Y-111029143D02*
X81387385Y-111314857D01*
X81387385Y-111314857D02*
X81458814Y-111457714D01*
X81458814Y-111457714D02*
X81530242Y-111529143D01*
X81530242Y-111529143D02*
X81673100Y-111600571D01*
X81673100Y-111600571D02*
X81815957Y-111600571D01*
X81815957Y-111600571D02*
X81958814Y-111529143D01*
X81958814Y-111529143D02*
X82030242Y-111457714D01*
X82030242Y-111457714D02*
X82101671Y-111314857D01*
X82101671Y-111314857D02*
X82101671Y-110957714D01*
X82101671Y-110957714D02*
X82030242Y-110743428D01*
X80673100Y-109529143D02*
X80601671Y-109672000D01*
X80601671Y-109672000D02*
X80601671Y-109957715D01*
X80601671Y-109957715D02*
X80673100Y-110100572D01*
X80673100Y-110100572D02*
X80815957Y-110172000D01*
X80815957Y-110172000D02*
X81387385Y-110172000D01*
X81387385Y-110172000D02*
X81530242Y-110100572D01*
X81530242Y-110100572D02*
X81601671Y-109957715D01*
X81601671Y-109957715D02*
X81601671Y-109672000D01*
X81601671Y-109672000D02*
X81530242Y-109529143D01*
X81530242Y-109529143D02*
X81387385Y-109457715D01*
X81387385Y-109457715D02*
X81244528Y-109457715D01*
X81244528Y-109457715D02*
X81101671Y-110172000D01*
X81601671Y-108814858D02*
X80601671Y-108814858D01*
X81458814Y-108814858D02*
X81530242Y-108743429D01*
X81530242Y-108743429D02*
X81601671Y-108600572D01*
X81601671Y-108600572D02*
X81601671Y-108386286D01*
X81601671Y-108386286D02*
X81530242Y-108243429D01*
X81530242Y-108243429D02*
X81387385Y-108172001D01*
X81387385Y-108172001D02*
X80601671Y-108172001D01*
X80673100Y-107529143D02*
X80601671Y-107386286D01*
X80601671Y-107386286D02*
X80601671Y-107100572D01*
X80601671Y-107100572D02*
X80673100Y-106957715D01*
X80673100Y-106957715D02*
X80815957Y-106886286D01*
X80815957Y-106886286D02*
X80887385Y-106886286D01*
X80887385Y-106886286D02*
X81030242Y-106957715D01*
X81030242Y-106957715D02*
X81101671Y-107100572D01*
X81101671Y-107100572D02*
X81101671Y-107314858D01*
X81101671Y-107314858D02*
X81173100Y-107457715D01*
X81173100Y-107457715D02*
X81315957Y-107529143D01*
X81315957Y-107529143D02*
X81387385Y-107529143D01*
X81387385Y-107529143D02*
X81530242Y-107457715D01*
X81530242Y-107457715D02*
X81601671Y-107314858D01*
X81601671Y-107314858D02*
X81601671Y-107100572D01*
X81601671Y-107100572D02*
X81530242Y-106957715D01*
X80601671Y-106243429D02*
X81601671Y-106243429D01*
X82101671Y-106243429D02*
X82030242Y-106314857D01*
X82030242Y-106314857D02*
X81958814Y-106243429D01*
X81958814Y-106243429D02*
X82030242Y-106172000D01*
X82030242Y-106172000D02*
X82101671Y-106243429D01*
X82101671Y-106243429D02*
X81958814Y-106243429D01*
X81601671Y-105743428D02*
X81601671Y-105172000D01*
X82101671Y-105529143D02*
X80815957Y-105529143D01*
X80815957Y-105529143D02*
X80673100Y-105457714D01*
X80673100Y-105457714D02*
X80601671Y-105314857D01*
X80601671Y-105314857D02*
X80601671Y-105172000D01*
X80601671Y-104672000D02*
X81601671Y-104672000D01*
X82101671Y-104672000D02*
X82030242Y-104743428D01*
X82030242Y-104743428D02*
X81958814Y-104672000D01*
X81958814Y-104672000D02*
X82030242Y-104600571D01*
X82030242Y-104600571D02*
X82101671Y-104672000D01*
X82101671Y-104672000D02*
X81958814Y-104672000D01*
X81601671Y-104100571D02*
X80601671Y-103743428D01*
X80601671Y-103743428D02*
X81601671Y-103386285D01*
X80601671Y-102814857D02*
X81601671Y-102814857D01*
X82101671Y-102814857D02*
X82030242Y-102886285D01*
X82030242Y-102886285D02*
X81958814Y-102814857D01*
X81958814Y-102814857D02*
X82030242Y-102743428D01*
X82030242Y-102743428D02*
X82101671Y-102814857D01*
X82101671Y-102814857D02*
X81958814Y-102814857D01*
X81601671Y-102314856D02*
X81601671Y-101743428D01*
X82101671Y-102100571D02*
X80815957Y-102100571D01*
X80815957Y-102100571D02*
X80673100Y-102029142D01*
X80673100Y-102029142D02*
X80601671Y-101886285D01*
X80601671Y-101886285D02*
X80601671Y-101743428D01*
X81601671Y-101386285D02*
X80601671Y-101029142D01*
X81601671Y-100671999D02*
X80601671Y-101029142D01*
X80601671Y-101029142D02*
X80244528Y-101171999D01*
X80244528Y-101171999D02*
X80173100Y-101243428D01*
X80173100Y-101243428D02*
X80101671Y-101386285D01*
X94551428Y-111866900D02*
X93408571Y-111866900D01*
X93979999Y-112438328D02*
X93979999Y-111295471D01*
X114037400Y-100630510D02*
X114037400Y-101773368D01*
X114507489Y-111497400D02*
X113364632Y-111497400D01*
X113936060Y-112068828D02*
X113936060Y-110925971D01*
X112797129Y-122284857D02*
X114297129Y-122284857D01*
X113582843Y-122284857D02*
X113582843Y-121427714D01*
X112797129Y-121427714D02*
X114297129Y-121427714D01*
X112797129Y-120713428D02*
X113797129Y-120713428D01*
X114297129Y-120713428D02*
X114225700Y-120784856D01*
X114225700Y-120784856D02*
X114154272Y-120713428D01*
X114154272Y-120713428D02*
X114225700Y-120641999D01*
X114225700Y-120641999D02*
X114297129Y-120713428D01*
X114297129Y-120713428D02*
X114154272Y-120713428D01*
X113797129Y-119356285D02*
X112582843Y-119356285D01*
X112582843Y-119356285D02*
X112439986Y-119427713D01*
X112439986Y-119427713D02*
X112368558Y-119499142D01*
X112368558Y-119499142D02*
X112297129Y-119641999D01*
X112297129Y-119641999D02*
X112297129Y-119856285D01*
X112297129Y-119856285D02*
X112368558Y-119999142D01*
X112868558Y-119356285D02*
X112797129Y-119499142D01*
X112797129Y-119499142D02*
X112797129Y-119784856D01*
X112797129Y-119784856D02*
X112868558Y-119927713D01*
X112868558Y-119927713D02*
X112939986Y-119999142D01*
X112939986Y-119999142D02*
X113082843Y-120070570D01*
X113082843Y-120070570D02*
X113511415Y-120070570D01*
X113511415Y-120070570D02*
X113654272Y-119999142D01*
X113654272Y-119999142D02*
X113725700Y-119927713D01*
X113725700Y-119927713D02*
X113797129Y-119784856D01*
X113797129Y-119784856D02*
X113797129Y-119499142D01*
X113797129Y-119499142D02*
X113725700Y-119356285D01*
X112797129Y-118641999D02*
X114297129Y-118641999D01*
X112797129Y-117999142D02*
X113582843Y-117999142D01*
X113582843Y-117999142D02*
X113725700Y-118070570D01*
X113725700Y-118070570D02*
X113797129Y-118213427D01*
X113797129Y-118213427D02*
X113797129Y-118427713D01*
X113797129Y-118427713D02*
X113725700Y-118570570D01*
X113725700Y-118570570D02*
X113654272Y-118641999D01*
X111882213Y-124499142D02*
X110382213Y-123999142D01*
X110382213Y-123999142D02*
X111882213Y-123499142D01*
X110382213Y-122784857D02*
X110453642Y-122927714D01*
X110453642Y-122927714D02*
X110525070Y-122999143D01*
X110525070Y-122999143D02*
X110667927Y-123070571D01*
X110667927Y-123070571D02*
X111096499Y-123070571D01*
X111096499Y-123070571D02*
X111239356Y-122999143D01*
X111239356Y-122999143D02*
X111310784Y-122927714D01*
X111310784Y-122927714D02*
X111382213Y-122784857D01*
X111382213Y-122784857D02*
X111382213Y-122570571D01*
X111382213Y-122570571D02*
X111310784Y-122427714D01*
X111310784Y-122427714D02*
X111239356Y-122356286D01*
X111239356Y-122356286D02*
X111096499Y-122284857D01*
X111096499Y-122284857D02*
X110667927Y-122284857D01*
X110667927Y-122284857D02*
X110525070Y-122356286D01*
X110525070Y-122356286D02*
X110453642Y-122427714D01*
X110453642Y-122427714D02*
X110382213Y-122570571D01*
X110382213Y-122570571D02*
X110382213Y-122784857D01*
X110382213Y-121427714D02*
X110453642Y-121570571D01*
X110453642Y-121570571D02*
X110596499Y-121642000D01*
X110596499Y-121642000D02*
X111882213Y-121642000D01*
X111382213Y-121070571D02*
X111382213Y-120499143D01*
X111882213Y-120856286D02*
X110596499Y-120856286D01*
X110596499Y-120856286D02*
X110453642Y-120784857D01*
X110453642Y-120784857D02*
X110382213Y-120642000D01*
X110382213Y-120642000D02*
X110382213Y-120499143D01*
X110382213Y-119356286D02*
X111167927Y-119356286D01*
X111167927Y-119356286D02*
X111310784Y-119427714D01*
X111310784Y-119427714D02*
X111382213Y-119570571D01*
X111382213Y-119570571D02*
X111382213Y-119856286D01*
X111382213Y-119856286D02*
X111310784Y-119999143D01*
X110453642Y-119356286D02*
X110382213Y-119499143D01*
X110382213Y-119499143D02*
X110382213Y-119856286D01*
X110382213Y-119856286D02*
X110453642Y-119999143D01*
X110453642Y-119999143D02*
X110596499Y-120070571D01*
X110596499Y-120070571D02*
X110739356Y-120070571D01*
X110739356Y-120070571D02*
X110882213Y-119999143D01*
X110882213Y-119999143D02*
X110953642Y-119856286D01*
X110953642Y-119856286D02*
X110953642Y-119499143D01*
X110953642Y-119499143D02*
X111025070Y-119356286D01*
X111382213Y-117999143D02*
X110167927Y-117999143D01*
X110167927Y-117999143D02*
X110025070Y-118070571D01*
X110025070Y-118070571D02*
X109953642Y-118142000D01*
X109953642Y-118142000D02*
X109882213Y-118284857D01*
X109882213Y-118284857D02*
X109882213Y-118499143D01*
X109882213Y-118499143D02*
X109953642Y-118642000D01*
X110453642Y-117999143D02*
X110382213Y-118142000D01*
X110382213Y-118142000D02*
X110382213Y-118427714D01*
X110382213Y-118427714D02*
X110453642Y-118570571D01*
X110453642Y-118570571D02*
X110525070Y-118642000D01*
X110525070Y-118642000D02*
X110667927Y-118713428D01*
X110667927Y-118713428D02*
X111096499Y-118713428D01*
X111096499Y-118713428D02*
X111239356Y-118642000D01*
X111239356Y-118642000D02*
X111310784Y-118570571D01*
X111310784Y-118570571D02*
X111382213Y-118427714D01*
X111382213Y-118427714D02*
X111382213Y-118142000D01*
X111382213Y-118142000D02*
X111310784Y-117999143D01*
X110453642Y-116713428D02*
X110382213Y-116856285D01*
X110382213Y-116856285D02*
X110382213Y-117142000D01*
X110382213Y-117142000D02*
X110453642Y-117284857D01*
X110453642Y-117284857D02*
X110596499Y-117356285D01*
X110596499Y-117356285D02*
X111167927Y-117356285D01*
X111167927Y-117356285D02*
X111310784Y-117284857D01*
X111310784Y-117284857D02*
X111382213Y-117142000D01*
X111382213Y-117142000D02*
X111382213Y-116856285D01*
X111382213Y-116856285D02*
X111310784Y-116713428D01*
X111310784Y-116713428D02*
X111167927Y-116642000D01*
X111167927Y-116642000D02*
X111025070Y-116642000D01*
X111025070Y-116642000D02*
X110882213Y-117356285D01*
X110525070Y-115999143D02*
X110453642Y-115927714D01*
X110453642Y-115927714D02*
X110382213Y-115999143D01*
X110382213Y-115999143D02*
X110453642Y-116070571D01*
X110453642Y-116070571D02*
X110525070Y-115999143D01*
X110525070Y-115999143D02*
X110382213Y-115999143D01*
X110953642Y-115999143D02*
X111810784Y-116070571D01*
X111810784Y-116070571D02*
X111882213Y-115999143D01*
X111882213Y-115999143D02*
X111810784Y-115927714D01*
X111810784Y-115927714D02*
X110953642Y-115999143D01*
X110953642Y-115999143D02*
X111882213Y-115999143D01*
X94086900Y-100774571D02*
X94086900Y-101917429D01*
D11*
X125783180Y-106703238D02*
X126259371Y-107036571D01*
X125783180Y-107274666D02*
X126783180Y-107274666D01*
X126783180Y-107274666D02*
X126783180Y-106893714D01*
X126783180Y-106893714D02*
X126735561Y-106798476D01*
X126735561Y-106798476D02*
X126687942Y-106750857D01*
X126687942Y-106750857D02*
X126592704Y-106703238D01*
X126592704Y-106703238D02*
X126449847Y-106703238D01*
X126449847Y-106703238D02*
X126354609Y-106750857D01*
X126354609Y-106750857D02*
X126306990Y-106798476D01*
X126306990Y-106798476D02*
X126259371Y-106893714D01*
X126259371Y-106893714D02*
X126259371Y-107274666D01*
X126783180Y-106417523D02*
X125783180Y-106084190D01*
X125783180Y-106084190D02*
X126783180Y-105750857D01*
X126687942Y-105465142D02*
X126735561Y-105417523D01*
X126735561Y-105417523D02*
X126783180Y-105322285D01*
X126783180Y-105322285D02*
X126783180Y-105084190D01*
X126783180Y-105084190D02*
X126735561Y-104988952D01*
X126735561Y-104988952D02*
X126687942Y-104941333D01*
X126687942Y-104941333D02*
X126592704Y-104893714D01*
X126592704Y-104893714D02*
X126497466Y-104893714D01*
X126497466Y-104893714D02*
X126354609Y-104941333D01*
X126354609Y-104941333D02*
X125783180Y-105512761D01*
X125783180Y-105512761D02*
X125783180Y-104893714D01*
X95522180Y-107023238D02*
X95998371Y-107356571D01*
X95522180Y-107594666D02*
X96522180Y-107594666D01*
X96522180Y-107594666D02*
X96522180Y-107213714D01*
X96522180Y-107213714D02*
X96474561Y-107118476D01*
X96474561Y-107118476D02*
X96426942Y-107070857D01*
X96426942Y-107070857D02*
X96331704Y-107023238D01*
X96331704Y-107023238D02*
X96188847Y-107023238D01*
X96188847Y-107023238D02*
X96093609Y-107070857D01*
X96093609Y-107070857D02*
X96045990Y-107118476D01*
X96045990Y-107118476D02*
X95998371Y-107213714D01*
X95998371Y-107213714D02*
X95998371Y-107594666D01*
X96522180Y-106737523D02*
X95522180Y-106404190D01*
X95522180Y-106404190D02*
X96522180Y-106070857D01*
X95522180Y-105213714D02*
X95522180Y-105785142D01*
X95522180Y-105499428D02*
X96522180Y-105499428D01*
X96522180Y-105499428D02*
X96379323Y-105594666D01*
X96379323Y-105594666D02*
X96284085Y-105689904D01*
X96284085Y-105689904D02*
X96236466Y-105785142D01*
X143452387Y-119561267D02*
X143202231Y-120331170D01*
X143202231Y-120331170D02*
X143127512Y-120407032D01*
X143127512Y-120407032D02*
X143067508Y-120437605D01*
X143067508Y-120437605D02*
X142962217Y-120453463D01*
X142962217Y-120453463D02*
X142781063Y-120394603D01*
X142781063Y-120394603D02*
X142705201Y-120319884D01*
X142705201Y-120319884D02*
X142674628Y-120259881D01*
X142674628Y-120259881D02*
X142658770Y-120154589D01*
X142658770Y-120154589D02*
X142908926Y-119384686D01*
X141648853Y-120026726D02*
X142192314Y-120203307D01*
X141920583Y-120115016D02*
X142229600Y-119163960D01*
X142229600Y-119163960D02*
X142276032Y-119329255D01*
X142276032Y-119329255D02*
X142337178Y-119449262D01*
X142337178Y-119449262D02*
X142413040Y-119523981D01*
D12*
X115158000Y-116142000D02*
X122078028Y-120141952D01*
D13*
X115158000Y-124142000D02*
X115158000Y-116142000D01*
D14*
X115178000Y-116632000D02*
X115587264Y-116365678D01*
X115178000Y-123652000D02*
X115587266Y-123918319D01*
X116523000Y-119802000D02*
X116433000Y-120312000D01*
X118138901Y-120009101D02*
X117937099Y-120254899D01*
X118403000Y-119692000D02*
X118178000Y-119902000D01*
X121658000Y-119992000D02*
X121658000Y-120302000D01*
D12*
X122078000Y-120142000D02*
X115157972Y-124141952D01*
D15*
X120111636Y-119787521D02*
X120111636Y-120500573D01*
X118118000Y-119642000D01*
X118743740Y-120806167D01*
X116357198Y-120151323D01*
X116560927Y-120486021D01*
X115673250Y-119889385D01*
X116721000Y-119671104D01*
X116400854Y-119903938D01*
X118132552Y-120180427D01*
X117535917Y-119059917D01*
X120111636Y-119787521D01*
G36*
X120111636Y-119787521D02*
G01*
X120111636Y-120500573D01*
X118118000Y-119642000D01*
X118743740Y-120806167D01*
X116357198Y-120151323D01*
X116560927Y-120486021D01*
X115673250Y-119889385D01*
X116721000Y-119671104D01*
X116400854Y-119903938D01*
X118132552Y-120180427D01*
X117535917Y-119059917D01*
X120111636Y-119787521D01*
G37*
D16*
X113691000Y-107368000D02*
G75*
G02*
X113750610Y-105087119I5174000J1006000D01*
G01*
X115074000Y-102701000D02*
G75*
G02*
X118957030Y-101092642I3791000J-3661000D01*
G01*
X118865000Y-101092000D02*
G75*
G02*
X123904726Y-104821201I0J-5270000D01*
G01*
X123979000Y-107636000D02*
G75*
G02*
X114828379Y-109750474I-5114000J1274000D01*
G01*
X83751000Y-105088000D02*
G75*
G02*
X92901621Y-102973526I5114000J-1274000D01*
G01*
X88865000Y-111632000D02*
G75*
G02*
X83825274Y-107902799I0J5270000D01*
G01*
X92656000Y-110023000D02*
G75*
G02*
X88772970Y-111631358I-3791000J3661000D01*
G01*
X94039000Y-105356000D02*
G75*
G02*
X93979390Y-107636881I-5174000J-1006000D01*
G01*
X160239001Y-106365000D02*
G75*
G02*
X133638999Y-106365000I-13300001J0D01*
G01*
X133638999Y-106365000D02*
G75*
G02*
X160239001Y-106365000I13300001J0D01*
G01*
D17*
X119202200Y-96710500D02*
X119189500Y-96723200D01*
X119176800Y-96710500D01*
X119189500Y-96697800D01*
X119202200Y-96710500D01*
G36*
X119202200Y-96710500D02*
G01*
X119189500Y-96723200D01*
X119176800Y-96710500D01*
X119189500Y-96697800D01*
X119202200Y-96710500D01*
G37*
X118761934Y-96909467D02*
X118765908Y-96917107D01*
X118745000Y-96926400D01*
X118731554Y-96924567D01*
X118728067Y-96909467D01*
X118731790Y-96906427D01*
X118761934Y-96909467D01*
G36*
X118761934Y-96909467D02*
G01*
X118765908Y-96917107D01*
X118745000Y-96926400D01*
X118731554Y-96924567D01*
X118728067Y-96909467D01*
X118731790Y-96906427D01*
X118761934Y-96909467D01*
G37*
X119219134Y-96757067D02*
X119223108Y-96764707D01*
X119202200Y-96774000D01*
X119188754Y-96772167D01*
X119185267Y-96757067D01*
X119188990Y-96754027D01*
X119219134Y-96757067D01*
G36*
X119219134Y-96757067D02*
G01*
X119223108Y-96764707D01*
X119202200Y-96774000D01*
X119188754Y-96772167D01*
X119185267Y-96757067D01*
X119188990Y-96754027D01*
X119219134Y-96757067D01*
G37*
X114896339Y-97210647D02*
X114909600Y-97245400D01*
X114905945Y-97263542D01*
X114884200Y-97269300D01*
X114877264Y-97264102D01*
X114858800Y-97229701D01*
X114859528Y-97224031D01*
X114884200Y-97205800D01*
X114896339Y-97210647D01*
G36*
X114896339Y-97210647D02*
G01*
X114909600Y-97245400D01*
X114905945Y-97263542D01*
X114884200Y-97269300D01*
X114877264Y-97264102D01*
X114858800Y-97229701D01*
X114859528Y-97224031D01*
X114884200Y-97205800D01*
X114896339Y-97210647D01*
G37*
X115449027Y-97663685D02*
X115468400Y-97686901D01*
X115467432Y-97694028D01*
X115443000Y-97726500D01*
X115429914Y-97728890D01*
X115417600Y-97702600D01*
X115420709Y-97683675D01*
X115443000Y-97663000D01*
X115449027Y-97663685D01*
G36*
X115449027Y-97663685D02*
G01*
X115468400Y-97686901D01*
X115467432Y-97694028D01*
X115443000Y-97726500D01*
X115429914Y-97728890D01*
X115417600Y-97702600D01*
X115420709Y-97683675D01*
X115443000Y-97663000D01*
X115449027Y-97663685D01*
G37*
X116165033Y-95966016D02*
X116191314Y-95998591D01*
X116189272Y-96048834D01*
X116179584Y-96070368D01*
X116164273Y-96073560D01*
X116139463Y-96034031D01*
X116122842Y-95991658D01*
X116132846Y-95964693D01*
X116165033Y-95966016D01*
G36*
X116165033Y-95966016D02*
G01*
X116191314Y-95998591D01*
X116189272Y-96048834D01*
X116179584Y-96070368D01*
X116164273Y-96073560D01*
X116139463Y-96034031D01*
X116122842Y-95991658D01*
X116132846Y-95964693D01*
X116165033Y-95966016D01*
G37*
X116485750Y-98554029D02*
X116522500Y-98577400D01*
X116521021Y-98593023D01*
X116485900Y-98602800D01*
X116454938Y-98597838D01*
X116433600Y-98577400D01*
X116437373Y-98566202D01*
X116470201Y-98552000D01*
X116485750Y-98554029D01*
G36*
X116485750Y-98554029D02*
G01*
X116522500Y-98577400D01*
X116521021Y-98593023D01*
X116485900Y-98602800D01*
X116454938Y-98597838D01*
X116433600Y-98577400D01*
X116437373Y-98566202D01*
X116470201Y-98552000D01*
X116485750Y-98554029D01*
G37*
X118750749Y-96825092D02*
X118770400Y-96836001D01*
X118769232Y-96840076D01*
X118745000Y-96862900D01*
X118735161Y-96866869D01*
X118719600Y-96851700D01*
X118720577Y-96844327D01*
X118745000Y-96824800D01*
X118750749Y-96825092D01*
G36*
X118750749Y-96825092D02*
G01*
X118770400Y-96836001D01*
X118769232Y-96840076D01*
X118745000Y-96862900D01*
X118735161Y-96866869D01*
X118719600Y-96851700D01*
X118720577Y-96844327D01*
X118745000Y-96824800D01*
X118750749Y-96825092D01*
G37*
X117249640Y-97138142D02*
X117222703Y-97162246D01*
X117175557Y-97180400D01*
X117167343Y-97180303D01*
X117147207Y-97175737D01*
X117163501Y-97160401D01*
X117221000Y-97128883D01*
X117256366Y-97111313D01*
X117269795Y-97110627D01*
X117249640Y-97138142D01*
G36*
X117249640Y-97138142D02*
G01*
X117222703Y-97162246D01*
X117175557Y-97180400D01*
X117167343Y-97180303D01*
X117147207Y-97175737D01*
X117163501Y-97160401D01*
X117221000Y-97128883D01*
X117256366Y-97111313D01*
X117269795Y-97110627D01*
X117249640Y-97138142D01*
G37*
X116076971Y-96963864D02*
X116085677Y-96970248D01*
X116093292Y-96997185D01*
X116061757Y-97019010D01*
X116000301Y-97028000D01*
X115947640Y-97020713D01*
X115925600Y-97003084D01*
X115936410Y-96985837D01*
X115979439Y-96965538D01*
X116034032Y-96956209D01*
X116076971Y-96963864D01*
G36*
X116076971Y-96963864D02*
G01*
X116085677Y-96970248D01*
X116093292Y-96997185D01*
X116061757Y-97019010D01*
X116000301Y-97028000D01*
X115947640Y-97020713D01*
X115925600Y-97003084D01*
X115936410Y-96985837D01*
X115979439Y-96965538D01*
X116034032Y-96956209D01*
X116076971Y-96963864D01*
G37*
X118433850Y-97212049D02*
X118445666Y-97223614D01*
X118482757Y-97279539D01*
X118485755Y-97344912D01*
X118456202Y-97435129D01*
X118434132Y-97482184D01*
X118415849Y-97496959D01*
X118397072Y-97474411D01*
X118388485Y-97449743D01*
X118377980Y-97380407D01*
X118374720Y-97294787D01*
X118376700Y-97158642D01*
X118433850Y-97212049D01*
G36*
X118433850Y-97212049D02*
G01*
X118445666Y-97223614D01*
X118482757Y-97279539D01*
X118485755Y-97344912D01*
X118456202Y-97435129D01*
X118434132Y-97482184D01*
X118415849Y-97496959D01*
X118397072Y-97474411D01*
X118388485Y-97449743D01*
X118377980Y-97380407D01*
X118374720Y-97294787D01*
X118376700Y-97158642D01*
X118433850Y-97212049D01*
G37*
X115454026Y-95602891D02*
X115447590Y-95621975D01*
X115406418Y-95641050D01*
X115354959Y-95673689D01*
X115317705Y-95731183D01*
X115310968Y-95789750D01*
X115311401Y-95794692D01*
X115290600Y-95808800D01*
X115273895Y-95793035D01*
X115265200Y-95745300D01*
X115279257Y-95686434D01*
X115317352Y-95631292D01*
X115367326Y-95592843D01*
X115416957Y-95580304D01*
X115454026Y-95602891D01*
G36*
X115454026Y-95602891D02*
G01*
X115447590Y-95621975D01*
X115406418Y-95641050D01*
X115354959Y-95673689D01*
X115317705Y-95731183D01*
X115310968Y-95789750D01*
X115311401Y-95794692D01*
X115290600Y-95808800D01*
X115273895Y-95793035D01*
X115265200Y-95745300D01*
X115279257Y-95686434D01*
X115317352Y-95631292D01*
X115367326Y-95592843D01*
X115416957Y-95580304D01*
X115454026Y-95602891D01*
G37*
X118571850Y-95834641D02*
X118549359Y-95897755D01*
X118538258Y-95921320D01*
X118520801Y-95970620D01*
X118529886Y-96004038D01*
X118568413Y-96043805D01*
X118629886Y-96100900D01*
X118571745Y-96109200D01*
X118530394Y-96108203D01*
X118476902Y-96087040D01*
X118459323Y-96066143D01*
X118441687Y-95999944D01*
X118452686Y-95924001D01*
X118491000Y-95859600D01*
X118525691Y-95828470D01*
X118562966Y-95810896D01*
X118571850Y-95834641D01*
G36*
X118571850Y-95834641D02*
G01*
X118549359Y-95897755D01*
X118538258Y-95921320D01*
X118520801Y-95970620D01*
X118529886Y-96004038D01*
X118568413Y-96043805D01*
X118629886Y-96100900D01*
X118571745Y-96109200D01*
X118530394Y-96108203D01*
X118476902Y-96087040D01*
X118459323Y-96066143D01*
X118441687Y-95999944D01*
X118452686Y-95924001D01*
X118491000Y-95859600D01*
X118525691Y-95828470D01*
X118562966Y-95810896D01*
X118571850Y-95834641D01*
G37*
X118887754Y-95937003D02*
X118912904Y-95953207D01*
X118907478Y-96000707D01*
X118907305Y-96001400D01*
X118907980Y-96065275D01*
X118949522Y-96127707D01*
X118955172Y-96133854D01*
X118982548Y-96174811D01*
X118971362Y-96189760D01*
X118926526Y-96178112D01*
X118852950Y-96139279D01*
X118839721Y-96130743D01*
X118790371Y-96088398D01*
X118770400Y-96052551D01*
X118773252Y-96016920D01*
X118802871Y-95956642D01*
X118862502Y-95935800D01*
X118887754Y-95937003D01*
G36*
X118887754Y-95937003D02*
G01*
X118912904Y-95953207D01*
X118907478Y-96000707D01*
X118907305Y-96001400D01*
X118907980Y-96065275D01*
X118949522Y-96127707D01*
X118955172Y-96133854D01*
X118982548Y-96174811D01*
X118971362Y-96189760D01*
X118926526Y-96178112D01*
X118852950Y-96139279D01*
X118839721Y-96130743D01*
X118790371Y-96088398D01*
X118770400Y-96052551D01*
X118773252Y-96016920D01*
X118802871Y-95956642D01*
X118862502Y-95935800D01*
X118887754Y-95937003D01*
G37*
X118131440Y-96318834D02*
X118225624Y-96355090D01*
X118299819Y-96382402D01*
X118389113Y-96407771D01*
X118454171Y-96417798D01*
X118513329Y-96426691D01*
X118569999Y-96455910D01*
X118592600Y-96496401D01*
X118590061Y-96502499D01*
X118555680Y-96508234D01*
X118489971Y-96497914D01*
X118404278Y-96474885D01*
X118309940Y-96442496D01*
X118218299Y-96404094D01*
X118140697Y-96363025D01*
X118104512Y-96339697D01*
X118069649Y-96311253D01*
X118079037Y-96304260D01*
X118131440Y-96318834D01*
G36*
X118131440Y-96318834D02*
G01*
X118225624Y-96355090D01*
X118299819Y-96382402D01*
X118389113Y-96407771D01*
X118454171Y-96417798D01*
X118513329Y-96426691D01*
X118569999Y-96455910D01*
X118592600Y-96496401D01*
X118590061Y-96502499D01*
X118555680Y-96508234D01*
X118489971Y-96497914D01*
X118404278Y-96474885D01*
X118309940Y-96442496D01*
X118218299Y-96404094D01*
X118140697Y-96363025D01*
X118104512Y-96339697D01*
X118069649Y-96311253D01*
X118079037Y-96304260D01*
X118131440Y-96318834D01*
G37*
X118579900Y-96724891D02*
X118519937Y-96774846D01*
X118464691Y-96809008D01*
X118407637Y-96824800D01*
X118404268Y-96824859D01*
X118338027Y-96846598D01*
X118284451Y-96895892D01*
X118262400Y-96955737D01*
X118260869Y-96973359D01*
X118239798Y-97001874D01*
X118203134Y-96985667D01*
X118200224Y-96982445D01*
X118186000Y-96930674D01*
X118200028Y-96860242D01*
X118238844Y-96790126D01*
X118256534Y-96769169D01*
X118295093Y-96739722D01*
X118348926Y-96726657D01*
X118435694Y-96724046D01*
X118579900Y-96724891D01*
G36*
X118579900Y-96724891D02*
G01*
X118519937Y-96774846D01*
X118464691Y-96809008D01*
X118407637Y-96824800D01*
X118404268Y-96824859D01*
X118338027Y-96846598D01*
X118284451Y-96895892D01*
X118262400Y-96955737D01*
X118260869Y-96973359D01*
X118239798Y-97001874D01*
X118203134Y-96985667D01*
X118200224Y-96982445D01*
X118186000Y-96930674D01*
X118200028Y-96860242D01*
X118238844Y-96790126D01*
X118256534Y-96769169D01*
X118295093Y-96739722D01*
X118348926Y-96726657D01*
X118435694Y-96724046D01*
X118579900Y-96724891D01*
G37*
X118689004Y-95967080D02*
X118721685Y-96018979D01*
X118727829Y-96030455D01*
X118788124Y-96106124D01*
X118871314Y-96176484D01*
X118955768Y-96222712D01*
X118966814Y-96228929D01*
X118968794Y-96252513D01*
X118964391Y-96255687D01*
X118922209Y-96255547D01*
X118856254Y-96234932D01*
X118781594Y-96200570D01*
X118713296Y-96159188D01*
X118666426Y-96117513D01*
X118651940Y-96096421D01*
X118627114Y-96032070D01*
X118628159Y-95975792D01*
X118656100Y-95944769D01*
X118660135Y-95944506D01*
X118689004Y-95967080D01*
G36*
X118689004Y-95967080D02*
G01*
X118721685Y-96018979D01*
X118727829Y-96030455D01*
X118788124Y-96106124D01*
X118871314Y-96176484D01*
X118955768Y-96222712D01*
X118966814Y-96228929D01*
X118968794Y-96252513D01*
X118964391Y-96255687D01*
X118922209Y-96255547D01*
X118856254Y-96234932D01*
X118781594Y-96200570D01*
X118713296Y-96159188D01*
X118666426Y-96117513D01*
X118651940Y-96096421D01*
X118627114Y-96032070D01*
X118628159Y-95975792D01*
X118656100Y-95944769D01*
X118660135Y-95944506D01*
X118689004Y-95967080D01*
G37*
X117942551Y-96060621D02*
X118025040Y-96104966D01*
X118147446Y-96177147D01*
X118215687Y-96209106D01*
X118319004Y-96243166D01*
X118426846Y-96267560D01*
X118537687Y-96287562D01*
X118613728Y-96306533D01*
X118646232Y-96324579D01*
X118638859Y-96343849D01*
X118595270Y-96366495D01*
X118564729Y-96376566D01*
X118451222Y-96385167D01*
X118320790Y-96362591D01*
X118186858Y-96313363D01*
X118062853Y-96242010D01*
X117962200Y-96153058D01*
X117910849Y-96091521D01*
X117887830Y-96054208D01*
X117897606Y-96043805D01*
X117942551Y-96060621D01*
G36*
X117942551Y-96060621D02*
G01*
X118025040Y-96104966D01*
X118147446Y-96177147D01*
X118215687Y-96209106D01*
X118319004Y-96243166D01*
X118426846Y-96267560D01*
X118537687Y-96287562D01*
X118613728Y-96306533D01*
X118646232Y-96324579D01*
X118638859Y-96343849D01*
X118595270Y-96366495D01*
X118564729Y-96376566D01*
X118451222Y-96385167D01*
X118320790Y-96362591D01*
X118186858Y-96313363D01*
X118062853Y-96242010D01*
X117962200Y-96153058D01*
X117910849Y-96091521D01*
X117887830Y-96054208D01*
X117897606Y-96043805D01*
X117942551Y-96060621D01*
G37*
X117763474Y-97404060D02*
X117750464Y-97424012D01*
X117717009Y-97484631D01*
X117703600Y-97524891D01*
X117700773Y-97536299D01*
X117672489Y-97581770D01*
X117623656Y-97637437D01*
X117582817Y-97675316D01*
X117545051Y-97696545D01*
X117522445Y-97683841D01*
X117503073Y-97624845D01*
X117505621Y-97559655D01*
X117526439Y-97506912D01*
X117561841Y-97485200D01*
X117565615Y-97484741D01*
X117602483Y-97460976D01*
X117646360Y-97412280D01*
X117649659Y-97407942D01*
X117704782Y-97355677D01*
X117761810Y-97327595D01*
X117823348Y-97315831D01*
X117763474Y-97404060D01*
G36*
X117763474Y-97404060D02*
G01*
X117750464Y-97424012D01*
X117717009Y-97484631D01*
X117703600Y-97524891D01*
X117700773Y-97536299D01*
X117672489Y-97581770D01*
X117623656Y-97637437D01*
X117582817Y-97675316D01*
X117545051Y-97696545D01*
X117522445Y-97683841D01*
X117503073Y-97624845D01*
X117505621Y-97559655D01*
X117526439Y-97506912D01*
X117561841Y-97485200D01*
X117565615Y-97484741D01*
X117602483Y-97460976D01*
X117646360Y-97412280D01*
X117649659Y-97407942D01*
X117704782Y-97355677D01*
X117761810Y-97327595D01*
X117823348Y-97315831D01*
X117763474Y-97404060D01*
G37*
X118841716Y-97154944D02*
X118843680Y-97234440D01*
X118845316Y-97270125D01*
X118860106Y-97359764D01*
X118886640Y-97415466D01*
X118921045Y-97431610D01*
X118959453Y-97402576D01*
X118971028Y-97389827D01*
X119007613Y-97380972D01*
X119037459Y-97411307D01*
X119049800Y-97472500D01*
X119039972Y-97523634D01*
X118996376Y-97571814D01*
X118927753Y-97585655D01*
X118844931Y-97560507D01*
X118814962Y-97523545D01*
X118797676Y-97443447D01*
X118799088Y-97330644D01*
X118819743Y-97193100D01*
X118821315Y-97185505D01*
X118832600Y-97134045D01*
X118838712Y-97122668D01*
X118841716Y-97154944D01*
G36*
X118841716Y-97154944D02*
G01*
X118843680Y-97234440D01*
X118845316Y-97270125D01*
X118860106Y-97359764D01*
X118886640Y-97415466D01*
X118921045Y-97431610D01*
X118959453Y-97402576D01*
X118971028Y-97389827D01*
X119007613Y-97380972D01*
X119037459Y-97411307D01*
X119049800Y-97472500D01*
X119039972Y-97523634D01*
X118996376Y-97571814D01*
X118927753Y-97585655D01*
X118844931Y-97560507D01*
X118814962Y-97523545D01*
X118797676Y-97443447D01*
X118799088Y-97330644D01*
X118819743Y-97193100D01*
X118821315Y-97185505D01*
X118832600Y-97134045D01*
X118838712Y-97122668D01*
X118841716Y-97154944D01*
G37*
X117825450Y-96695595D02*
X117940939Y-96701606D01*
X118055904Y-96711189D01*
X118114178Y-96717734D01*
X118183498Y-96729069D01*
X118210021Y-96741035D01*
X118198885Y-96755211D01*
X118161822Y-96764750D01*
X118083741Y-96768622D01*
X117985115Y-96763253D01*
X117832379Y-96759049D01*
X117665347Y-96785673D01*
X117610675Y-96799524D01*
X117518884Y-96818473D01*
X117457120Y-96820871D01*
X117412815Y-96806214D01*
X117373400Y-96774000D01*
X117338407Y-96737004D01*
X117322600Y-96715960D01*
X117334409Y-96712582D01*
X117388942Y-96707482D01*
X117480441Y-96702479D01*
X117600747Y-96697990D01*
X117741700Y-96694436D01*
X117825450Y-96695595D01*
G36*
X117825450Y-96695595D02*
G01*
X117940939Y-96701606D01*
X118055904Y-96711189D01*
X118114178Y-96717734D01*
X118183498Y-96729069D01*
X118210021Y-96741035D01*
X118198885Y-96755211D01*
X118161822Y-96764750D01*
X118083741Y-96768622D01*
X117985115Y-96763253D01*
X117832379Y-96759049D01*
X117665347Y-96785673D01*
X117610675Y-96799524D01*
X117518884Y-96818473D01*
X117457120Y-96820871D01*
X117412815Y-96806214D01*
X117373400Y-96774000D01*
X117338407Y-96737004D01*
X117322600Y-96715960D01*
X117334409Y-96712582D01*
X117388942Y-96707482D01*
X117480441Y-96702479D01*
X117600747Y-96697990D01*
X117741700Y-96694436D01*
X117825450Y-96695595D01*
G37*
X117722264Y-96526182D02*
X117819693Y-96541648D01*
X117956042Y-96570453D01*
X117979748Y-96575616D01*
X118113015Y-96601433D01*
X118249187Y-96623532D01*
X118362173Y-96637601D01*
X118371120Y-96638452D01*
X118457451Y-96648946D01*
X118518590Y-96660421D01*
X118541800Y-96670542D01*
X118528148Y-96675982D01*
X118473200Y-96682946D01*
X118385908Y-96688806D01*
X118276801Y-96692683D01*
X118210731Y-96693607D01*
X118066626Y-96689546D01*
X117943846Y-96674514D01*
X117821613Y-96646401D01*
X117717794Y-96622214D01*
X117622977Y-96608660D01*
X117559562Y-96609682D01*
X117487700Y-96625141D01*
X117547664Y-96572571D01*
X117562364Y-96560334D01*
X117603712Y-96535472D01*
X117653641Y-96524105D01*
X117722264Y-96526182D01*
G36*
X117722264Y-96526182D02*
G01*
X117819693Y-96541648D01*
X117956042Y-96570453D01*
X117979748Y-96575616D01*
X118113015Y-96601433D01*
X118249187Y-96623532D01*
X118362173Y-96637601D01*
X118371120Y-96638452D01*
X118457451Y-96648946D01*
X118518590Y-96660421D01*
X118541800Y-96670542D01*
X118528148Y-96675982D01*
X118473200Y-96682946D01*
X118385908Y-96688806D01*
X118276801Y-96692683D01*
X118210731Y-96693607D01*
X118066626Y-96689546D01*
X117943846Y-96674514D01*
X117821613Y-96646401D01*
X117717794Y-96622214D01*
X117622977Y-96608660D01*
X117559562Y-96609682D01*
X117487700Y-96625141D01*
X117547664Y-96572571D01*
X117562364Y-96560334D01*
X117603712Y-96535472D01*
X117653641Y-96524105D01*
X117722264Y-96526182D01*
G37*
X118043261Y-96794035D02*
X118090475Y-96796165D01*
X118150270Y-96802683D01*
X118171732Y-96814584D01*
X118163143Y-96834678D01*
X118138073Y-96850315D01*
X118065016Y-96868736D01*
X117957299Y-96879932D01*
X117874342Y-96887648D01*
X117792381Y-96903819D01*
X117748517Y-96924593D01*
X117740380Y-96933622D01*
X117733299Y-96949426D01*
X117767100Y-96939114D01*
X117809060Y-96928532D01*
X117888675Y-96916448D01*
X117983000Y-96907312D01*
X118020300Y-96905230D01*
X118096087Y-96906887D01*
X118124778Y-96917866D01*
X118107874Y-96935439D01*
X118046875Y-96956882D01*
X117943282Y-96979470D01*
X117876792Y-96992090D01*
X117786952Y-97011260D01*
X117723877Y-97027252D01*
X117676152Y-97035866D01*
X117643333Y-97018981D01*
X117634832Y-96992842D01*
X117635516Y-96907669D01*
X117677608Y-96838037D01*
X117707867Y-96816106D01*
X117751179Y-96800356D01*
X117814767Y-96792240D01*
X117908753Y-96790539D01*
X118043261Y-96794035D01*
G36*
X118043261Y-96794035D02*
G01*
X118090475Y-96796165D01*
X118150270Y-96802683D01*
X118171732Y-96814584D01*
X118163143Y-96834678D01*
X118138073Y-96850315D01*
X118065016Y-96868736D01*
X117957299Y-96879932D01*
X117874342Y-96887648D01*
X117792381Y-96903819D01*
X117748517Y-96924593D01*
X117740380Y-96933622D01*
X117733299Y-96949426D01*
X117767100Y-96939114D01*
X117809060Y-96928532D01*
X117888675Y-96916448D01*
X117983000Y-96907312D01*
X118020300Y-96905230D01*
X118096087Y-96906887D01*
X118124778Y-96917866D01*
X118107874Y-96935439D01*
X118046875Y-96956882D01*
X117943282Y-96979470D01*
X117876792Y-96992090D01*
X117786952Y-97011260D01*
X117723877Y-97027252D01*
X117676152Y-97035866D01*
X117643333Y-97018981D01*
X117634832Y-96992842D01*
X117635516Y-96907669D01*
X117677608Y-96838037D01*
X117707867Y-96816106D01*
X117751179Y-96800356D01*
X117814767Y-96792240D01*
X117908753Y-96790539D01*
X118043261Y-96794035D01*
G37*
X117945353Y-96254516D02*
X118039384Y-96313960D01*
X118042702Y-96316856D01*
X118170230Y-96408615D01*
X118309116Y-96477239D01*
X118439819Y-96513011D01*
X118481316Y-96520130D01*
X118528516Y-96540191D01*
X118541800Y-96574145D01*
X118532180Y-96599612D01*
X118486181Y-96620389D01*
X118412159Y-96618920D01*
X118321204Y-96594197D01*
X118284343Y-96583519D01*
X118199280Y-96568414D01*
X118104372Y-96559362D01*
X118093057Y-96558743D01*
X118001242Y-96547670D01*
X117934210Y-96521787D01*
X117868539Y-96472466D01*
X117838580Y-96445562D01*
X117799744Y-96407818D01*
X117789539Y-96393000D01*
X117797700Y-96391728D01*
X117836503Y-96379394D01*
X117861145Y-96381780D01*
X117917104Y-96408541D01*
X117984631Y-96455348D01*
X118033191Y-96491549D01*
X118094463Y-96530092D01*
X118132807Y-96545154D01*
X118140583Y-96540105D01*
X118119938Y-96514379D01*
X118065176Y-96470954D01*
X117982308Y-96414436D01*
X117877343Y-96349430D01*
X117871421Y-96345893D01*
X117799886Y-96297246D01*
X117775775Y-96264629D01*
X117798960Y-96246321D01*
X117869316Y-96240600D01*
X117945353Y-96254516D01*
G36*
X117945353Y-96254516D02*
G01*
X118039384Y-96313960D01*
X118042702Y-96316856D01*
X118170230Y-96408615D01*
X118309116Y-96477239D01*
X118439819Y-96513011D01*
X118481316Y-96520130D01*
X118528516Y-96540191D01*
X118541800Y-96574145D01*
X118532180Y-96599612D01*
X118486181Y-96620389D01*
X118412159Y-96618920D01*
X118321204Y-96594197D01*
X118284343Y-96583519D01*
X118199280Y-96568414D01*
X118104372Y-96559362D01*
X118093057Y-96558743D01*
X118001242Y-96547670D01*
X117934210Y-96521787D01*
X117868539Y-96472466D01*
X117838580Y-96445562D01*
X117799744Y-96407818D01*
X117789539Y-96393000D01*
X117797700Y-96391728D01*
X117836503Y-96379394D01*
X117861145Y-96381780D01*
X117917104Y-96408541D01*
X117984631Y-96455348D01*
X118033191Y-96491549D01*
X118094463Y-96530092D01*
X118132807Y-96545154D01*
X118140583Y-96540105D01*
X118119938Y-96514379D01*
X118065176Y-96470954D01*
X117982308Y-96414436D01*
X117877343Y-96349430D01*
X117871421Y-96345893D01*
X117799886Y-96297246D01*
X117775775Y-96264629D01*
X117798960Y-96246321D01*
X117869316Y-96240600D01*
X117945353Y-96254516D01*
G37*
X118170107Y-96974137D02*
X118166523Y-97000418D01*
X118117181Y-97036956D01*
X118098807Y-97045753D01*
X118019715Y-97076768D01*
X117932200Y-97104200D01*
X117906091Y-97111564D01*
X117816259Y-97142133D01*
X117742727Y-97174605D01*
X117696337Y-97203663D01*
X117687926Y-97223993D01*
X117699227Y-97227730D01*
X117734737Y-97212562D01*
X117737541Y-97210553D01*
X117782040Y-97189244D01*
X117858485Y-97160144D01*
X117952104Y-97128937D01*
X117968741Y-97123674D01*
X118056385Y-97093475D01*
X118121297Y-97067045D01*
X118150453Y-97049595D01*
X118160290Y-97040960D01*
X118199703Y-97029605D01*
X118242398Y-97029828D01*
X118262400Y-97043129D01*
X118262103Y-97046833D01*
X118240653Y-97090891D01*
X118195269Y-97148597D01*
X118140013Y-97203920D01*
X118088948Y-97240832D01*
X118041177Y-97257652D01*
X117954306Y-97276522D01*
X117856288Y-97289390D01*
X117810646Y-97293870D01*
X117729532Y-97307967D01*
X117676093Y-97331527D01*
X117633992Y-97370512D01*
X117627110Y-97378173D01*
X117581845Y-97414445D01*
X117548418Y-97419981D01*
X117532496Y-97396647D01*
X117529614Y-97337112D01*
X117546658Y-97260932D01*
X117579635Y-97183765D01*
X117624555Y-97121269D01*
X117628356Y-97117486D01*
X117684442Y-97074065D01*
X117755117Y-97046819D01*
X117858470Y-97028581D01*
X117937226Y-97016612D01*
X118027895Y-96998399D01*
X118090051Y-96980733D01*
X118132975Y-96968561D01*
X118170107Y-96974137D01*
G36*
X118170107Y-96974137D02*
G01*
X118166523Y-97000418D01*
X118117181Y-97036956D01*
X118098807Y-97045753D01*
X118019715Y-97076768D01*
X117932200Y-97104200D01*
X117906091Y-97111564D01*
X117816259Y-97142133D01*
X117742727Y-97174605D01*
X117696337Y-97203663D01*
X117687926Y-97223993D01*
X117699227Y-97227730D01*
X117734737Y-97212562D01*
X117737541Y-97210553D01*
X117782040Y-97189244D01*
X117858485Y-97160144D01*
X117952104Y-97128937D01*
X117968741Y-97123674D01*
X118056385Y-97093475D01*
X118121297Y-97067045D01*
X118150453Y-97049595D01*
X118160290Y-97040960D01*
X118199703Y-97029605D01*
X118242398Y-97029828D01*
X118262400Y-97043129D01*
X118262103Y-97046833D01*
X118240653Y-97090891D01*
X118195269Y-97148597D01*
X118140013Y-97203920D01*
X118088948Y-97240832D01*
X118041177Y-97257652D01*
X117954306Y-97276522D01*
X117856288Y-97289390D01*
X117810646Y-97293870D01*
X117729532Y-97307967D01*
X117676093Y-97331527D01*
X117633992Y-97370512D01*
X117627110Y-97378173D01*
X117581845Y-97414445D01*
X117548418Y-97419981D01*
X117532496Y-97396647D01*
X117529614Y-97337112D01*
X117546658Y-97260932D01*
X117579635Y-97183765D01*
X117624555Y-97121269D01*
X117628356Y-97117486D01*
X117684442Y-97074065D01*
X117755117Y-97046819D01*
X117858470Y-97028581D01*
X117937226Y-97016612D01*
X118027895Y-96998399D01*
X118090051Y-96980733D01*
X118132975Y-96968561D01*
X118170107Y-96974137D01*
G37*
X118166515Y-95923133D02*
X118221539Y-95964403D01*
X118285045Y-96024700D01*
X118315520Y-96055906D01*
X118375945Y-96108166D01*
X118428773Y-96132816D01*
X118490438Y-96139000D01*
X118557851Y-96148539D01*
X118656265Y-96177246D01*
X118761199Y-96219336D01*
X118855366Y-96262979D01*
X118914335Y-96291623D01*
X118943425Y-96308814D01*
X118950898Y-96319457D01*
X118945013Y-96328455D01*
X118926187Y-96327206D01*
X118872544Y-96309266D01*
X118798557Y-96277655D01*
X118739834Y-96253235D01*
X118656645Y-96227081D01*
X118596428Y-96218121D01*
X118561052Y-96221040D01*
X118565821Y-96227132D01*
X118618000Y-96238819D01*
X118657978Y-96248247D01*
X118739526Y-96276791D01*
X118798499Y-96309930D01*
X118821200Y-96340789D01*
X118817838Y-96345003D01*
X118784143Y-96340437D01*
X118725950Y-96316989D01*
X118697927Y-96304874D01*
X118602197Y-96274169D01*
X118503700Y-96253738D01*
X118400577Y-96236795D01*
X118243380Y-96194031D01*
X118113575Y-96132133D01*
X118064430Y-96099443D01*
X118049412Y-96076456D01*
X118069372Y-96057613D01*
X118091680Y-96051280D01*
X118143216Y-96065103D01*
X118219675Y-96113006D01*
X118250282Y-96133157D01*
X118343651Y-96179292D01*
X118428977Y-96202916D01*
X118529100Y-96214419D01*
X118431404Y-96189298D01*
X118359428Y-96163983D01*
X118277340Y-96121400D01*
X118207107Y-96072389D01*
X118160517Y-96025337D01*
X118149359Y-95988631D01*
X118151771Y-95970171D01*
X118129911Y-95931870D01*
X118112575Y-95916375D01*
X118136705Y-95910789D01*
X118166515Y-95923133D01*
G36*
X118166515Y-95923133D02*
G01*
X118221539Y-95964403D01*
X118285045Y-96024700D01*
X118315520Y-96055906D01*
X118375945Y-96108166D01*
X118428773Y-96132816D01*
X118490438Y-96139000D01*
X118557851Y-96148539D01*
X118656265Y-96177246D01*
X118761199Y-96219336D01*
X118855366Y-96262979D01*
X118914335Y-96291623D01*
X118943425Y-96308814D01*
X118950898Y-96319457D01*
X118945013Y-96328455D01*
X118926187Y-96327206D01*
X118872544Y-96309266D01*
X118798557Y-96277655D01*
X118739834Y-96253235D01*
X118656645Y-96227081D01*
X118596428Y-96218121D01*
X118561052Y-96221040D01*
X118565821Y-96227132D01*
X118618000Y-96238819D01*
X118657978Y-96248247D01*
X118739526Y-96276791D01*
X118798499Y-96309930D01*
X118821200Y-96340789D01*
X118817838Y-96345003D01*
X118784143Y-96340437D01*
X118725950Y-96316989D01*
X118697927Y-96304874D01*
X118602197Y-96274169D01*
X118503700Y-96253738D01*
X118400577Y-96236795D01*
X118243380Y-96194031D01*
X118113575Y-96132133D01*
X118064430Y-96099443D01*
X118049412Y-96076456D01*
X118069372Y-96057613D01*
X118091680Y-96051280D01*
X118143216Y-96065103D01*
X118219675Y-96113006D01*
X118250282Y-96133157D01*
X118343651Y-96179292D01*
X118428977Y-96202916D01*
X118529100Y-96214419D01*
X118431404Y-96189298D01*
X118359428Y-96163983D01*
X118277340Y-96121400D01*
X118207107Y-96072389D01*
X118160517Y-96025337D01*
X118149359Y-95988631D01*
X118151771Y-95970171D01*
X118129911Y-95931870D01*
X118112575Y-95916375D01*
X118136705Y-95910789D01*
X118166515Y-95923133D01*
G37*
X119474644Y-96030869D02*
X119472075Y-96091375D01*
X119460937Y-96156307D01*
X119456200Y-96202713D01*
X119445615Y-96224589D01*
X119403191Y-96248538D01*
X119362896Y-96272274D01*
X119356805Y-96308363D01*
X119384899Y-96340813D01*
X119441830Y-96354900D01*
X119495597Y-96363771D01*
X119525944Y-96386650D01*
X119533303Y-96399423D01*
X119572617Y-96418400D01*
X119588183Y-96420916D01*
X119608600Y-96443800D01*
X119612899Y-96455485D01*
X119646700Y-96469200D01*
X119671387Y-96477896D01*
X119683805Y-96513880D01*
X119669775Y-96562122D01*
X119631247Y-96605430D01*
X119599935Y-96637391D01*
X119594646Y-96670371D01*
X119603213Y-96709744D01*
X119581787Y-96733403D01*
X119543952Y-96722247D01*
X119509391Y-96705806D01*
X119471592Y-96721852D01*
X119456201Y-96775500D01*
X119456378Y-96781638D01*
X119473731Y-96815344D01*
X119527624Y-96824800D01*
X119590709Y-96840200D01*
X119654624Y-96899972D01*
X119683896Y-96942255D01*
X119707087Y-96991896D01*
X119692566Y-97007685D01*
X119640350Y-96989511D01*
X119578373Y-96960837D01*
X119497722Y-96927473D01*
X119483102Y-96921848D01*
X119450294Y-96904228D01*
X119434333Y-96876393D01*
X119430826Y-96824858D01*
X119435380Y-96736141D01*
X119436701Y-96713820D01*
X119438081Y-96627367D01*
X119429435Y-96578888D01*
X119409273Y-96558228D01*
X119393143Y-96549556D01*
X119386593Y-96530341D01*
X119386175Y-96507525D01*
X119369858Y-96449894D01*
X119340502Y-96372189D01*
X119312924Y-96304609D01*
X119289064Y-96243268D01*
X119279474Y-96214495D01*
X119289478Y-96194658D01*
X119323953Y-96162227D01*
X119363982Y-96136029D01*
X119389318Y-96131384D01*
X119403329Y-96122329D01*
X119419618Y-96078498D01*
X119433329Y-96039189D01*
X119457851Y-96012521D01*
X119474644Y-96030869D01*
G36*
X119474644Y-96030869D02*
G01*
X119472075Y-96091375D01*
X119460937Y-96156307D01*
X119456200Y-96202713D01*
X119445615Y-96224589D01*
X119403191Y-96248538D01*
X119362896Y-96272274D01*
X119356805Y-96308363D01*
X119384899Y-96340813D01*
X119441830Y-96354900D01*
X119495597Y-96363771D01*
X119525944Y-96386650D01*
X119533303Y-96399423D01*
X119572617Y-96418400D01*
X119588183Y-96420916D01*
X119608600Y-96443800D01*
X119612899Y-96455485D01*
X119646700Y-96469200D01*
X119671387Y-96477896D01*
X119683805Y-96513880D01*
X119669775Y-96562122D01*
X119631247Y-96605430D01*
X119599935Y-96637391D01*
X119594646Y-96670371D01*
X119603213Y-96709744D01*
X119581787Y-96733403D01*
X119543952Y-96722247D01*
X119509391Y-96705806D01*
X119471592Y-96721852D01*
X119456201Y-96775500D01*
X119456378Y-96781638D01*
X119473731Y-96815344D01*
X119527624Y-96824800D01*
X119590709Y-96840200D01*
X119654624Y-96899972D01*
X119683896Y-96942255D01*
X119707087Y-96991896D01*
X119692566Y-97007685D01*
X119640350Y-96989511D01*
X119578373Y-96960837D01*
X119497722Y-96927473D01*
X119483102Y-96921848D01*
X119450294Y-96904228D01*
X119434333Y-96876393D01*
X119430826Y-96824858D01*
X119435380Y-96736141D01*
X119436701Y-96713820D01*
X119438081Y-96627367D01*
X119429435Y-96578888D01*
X119409273Y-96558228D01*
X119393143Y-96549556D01*
X119386593Y-96530341D01*
X119386175Y-96507525D01*
X119369858Y-96449894D01*
X119340502Y-96372189D01*
X119312924Y-96304609D01*
X119289064Y-96243268D01*
X119279474Y-96214495D01*
X119289478Y-96194658D01*
X119323953Y-96162227D01*
X119363982Y-96136029D01*
X119389318Y-96131384D01*
X119403329Y-96122329D01*
X119419618Y-96078498D01*
X119433329Y-96039189D01*
X119457851Y-96012521D01*
X119474644Y-96030869D01*
G37*
X119009956Y-94746697D02*
X119008817Y-94778455D01*
X119007861Y-94781682D01*
X119020365Y-94823760D01*
X119065389Y-94873705D01*
X119078763Y-94884888D01*
X119167517Y-94962459D01*
X119219813Y-95016739D01*
X119240111Y-95053144D01*
X119232871Y-95077090D01*
X119232169Y-95077813D01*
X119224697Y-95116965D01*
X119255059Y-95183077D01*
X119282434Y-95239942D01*
X119300915Y-95357218D01*
X119275519Y-95473822D01*
X119209397Y-95579599D01*
X119105699Y-95664396D01*
X119077887Y-95678487D01*
X118968930Y-95711457D01*
X118841721Y-95727224D01*
X118795800Y-95726103D01*
X118717610Y-95724196D01*
X118617948Y-95700780D01*
X118564364Y-95672507D01*
X118774893Y-95672507D01*
X118795800Y-95681800D01*
X118809247Y-95679967D01*
X118812734Y-95664867D01*
X118809011Y-95661827D01*
X118778867Y-95664867D01*
X118774893Y-95672507D01*
X118564364Y-95672507D01*
X118562061Y-95671292D01*
X118478140Y-95617054D01*
X118393405Y-95554080D01*
X118336221Y-95506786D01*
X118293670Y-95464923D01*
X118283154Y-95439126D01*
X118299313Y-95421863D01*
X118329352Y-95415911D01*
X118376200Y-95436703D01*
X118444699Y-95492343D01*
X118548483Y-95586106D01*
X118724754Y-95568737D01*
X118775187Y-95563863D01*
X118845588Y-95558868D01*
X118879192Y-95562414D01*
X118885226Y-95576689D01*
X118872919Y-95603884D01*
X118864652Y-95620234D01*
X118860420Y-95649664D01*
X118893397Y-95656400D01*
X118899713Y-95656243D01*
X118950450Y-95638437D01*
X118992653Y-95585645D01*
X119032867Y-95490061D01*
X119040473Y-95469726D01*
X119069842Y-95411096D01*
X119096312Y-95382663D01*
X119117515Y-95394616D01*
X119125439Y-95439396D01*
X119119421Y-95500884D01*
X119099199Y-95562820D01*
X119083636Y-95595908D01*
X119085021Y-95601929D01*
X119114579Y-95567500D01*
X119165284Y-95494505D01*
X119203544Y-95390220D01*
X119196802Y-95296233D01*
X119192368Y-95284629D01*
X119158627Y-95236042D01*
X119121245Y-95227546D01*
X119091415Y-95262700D01*
X119083964Y-95275420D01*
X119038313Y-95297904D01*
X118972553Y-95293398D01*
X118904066Y-95261970D01*
X118860880Y-95211399D01*
X118833113Y-95141320D01*
X118825676Y-95108708D01*
X118783410Y-95015394D01*
X118719600Y-94964026D01*
X118703794Y-94952384D01*
X118736532Y-94947206D01*
X118789905Y-94964841D01*
X118844547Y-95015050D01*
X118854657Y-95027910D01*
X118879696Y-95052659D01*
X118882048Y-95040450D01*
X118880987Y-95008167D01*
X118904267Y-94996279D01*
X118935501Y-95021400D01*
X118940689Y-95028250D01*
X118976914Y-95046800D01*
X118984055Y-95037444D01*
X118962715Y-95006886D01*
X118929328Y-94956747D01*
X118935205Y-94924525D01*
X118970606Y-94919774D01*
X119025290Y-94951550D01*
X119031010Y-94956272D01*
X119033178Y-94952867D01*
X119005866Y-94919117D01*
X118976987Y-94870498D01*
X118963806Y-94810599D01*
X118971713Y-94762022D01*
X119001166Y-94742000D01*
X119009956Y-94746697D01*
G36*
X119009956Y-94746697D02*
G01*
X119008817Y-94778455D01*
X119007861Y-94781682D01*
X119020365Y-94823760D01*
X119065389Y-94873705D01*
X119078763Y-94884888D01*
X119167517Y-94962459D01*
X119219813Y-95016739D01*
X119240111Y-95053144D01*
X119232871Y-95077090D01*
X119232169Y-95077813D01*
X119224697Y-95116965D01*
X119255059Y-95183077D01*
X119282434Y-95239942D01*
X119300915Y-95357218D01*
X119275519Y-95473822D01*
X119209397Y-95579599D01*
X119105699Y-95664396D01*
X119077887Y-95678487D01*
X118968930Y-95711457D01*
X118841721Y-95727224D01*
X118795800Y-95726103D01*
X118717610Y-95724196D01*
X118617948Y-95700780D01*
X118564364Y-95672507D01*
X118774893Y-95672507D01*
X118795800Y-95681800D01*
X118809247Y-95679967D01*
X118812734Y-95664867D01*
X118809011Y-95661827D01*
X118778867Y-95664867D01*
X118774893Y-95672507D01*
X118564364Y-95672507D01*
X118562061Y-95671292D01*
X118478140Y-95617054D01*
X118393405Y-95554080D01*
X118336221Y-95506786D01*
X118293670Y-95464923D01*
X118283154Y-95439126D01*
X118299313Y-95421863D01*
X118329352Y-95415911D01*
X118376200Y-95436703D01*
X118444699Y-95492343D01*
X118548483Y-95586106D01*
X118724754Y-95568737D01*
X118775187Y-95563863D01*
X118845588Y-95558868D01*
X118879192Y-95562414D01*
X118885226Y-95576689D01*
X118872919Y-95603884D01*
X118864652Y-95620234D01*
X118860420Y-95649664D01*
X118893397Y-95656400D01*
X118899713Y-95656243D01*
X118950450Y-95638437D01*
X118992653Y-95585645D01*
X119032867Y-95490061D01*
X119040473Y-95469726D01*
X119069842Y-95411096D01*
X119096312Y-95382663D01*
X119117515Y-95394616D01*
X119125439Y-95439396D01*
X119119421Y-95500884D01*
X119099199Y-95562820D01*
X119083636Y-95595908D01*
X119085021Y-95601929D01*
X119114579Y-95567500D01*
X119165284Y-95494505D01*
X119203544Y-95390220D01*
X119196802Y-95296233D01*
X119192368Y-95284629D01*
X119158627Y-95236042D01*
X119121245Y-95227546D01*
X119091415Y-95262700D01*
X119083964Y-95275420D01*
X119038313Y-95297904D01*
X118972553Y-95293398D01*
X118904066Y-95261970D01*
X118860880Y-95211399D01*
X118833113Y-95141320D01*
X118825676Y-95108708D01*
X118783410Y-95015394D01*
X118719600Y-94964026D01*
X118703794Y-94952384D01*
X118736532Y-94947206D01*
X118789905Y-94964841D01*
X118844547Y-95015050D01*
X118854657Y-95027910D01*
X118879696Y-95052659D01*
X118882048Y-95040450D01*
X118880987Y-95008167D01*
X118904267Y-94996279D01*
X118935501Y-95021400D01*
X118940689Y-95028250D01*
X118976914Y-95046800D01*
X118984055Y-95037444D01*
X118962715Y-95006886D01*
X118929328Y-94956747D01*
X118935205Y-94924525D01*
X118970606Y-94919774D01*
X119025290Y-94951550D01*
X119031010Y-94956272D01*
X119033178Y-94952867D01*
X119005866Y-94919117D01*
X118976987Y-94870498D01*
X118963806Y-94810599D01*
X118971713Y-94762022D01*
X119001166Y-94742000D01*
X119009956Y-94746697D01*
G37*
X116401156Y-96609503D02*
X116408200Y-96631090D01*
X116414357Y-96661049D01*
X116447154Y-96689518D01*
X116491863Y-96678256D01*
X116520639Y-96661641D01*
X116571383Y-96643009D01*
X116616999Y-96633732D01*
X116636800Y-96639362D01*
X116635671Y-96643146D01*
X116613948Y-96676492D01*
X116573300Y-96727833D01*
X116573071Y-96728106D01*
X116522094Y-96805866D01*
X116514687Y-96873973D01*
X116549341Y-96946149D01*
X116551097Y-96948633D01*
X116594224Y-96993736D01*
X116625035Y-96996680D01*
X116636800Y-96956655D01*
X116643832Y-96919780D01*
X116672618Y-96861726D01*
X116677252Y-96855445D01*
X116699429Y-96832335D01*
X116712725Y-96846191D01*
X116725487Y-96903627D01*
X116730004Y-96933508D01*
X116724117Y-97060849D01*
X116678745Y-97170419D01*
X116597966Y-97251110D01*
X116594206Y-97253564D01*
X116514792Y-97326203D01*
X116472637Y-97409391D01*
X116473719Y-97491561D01*
X116476305Y-97526777D01*
X116455844Y-97531208D01*
X116421964Y-97506199D01*
X116385245Y-97456004D01*
X116374024Y-97433141D01*
X116361777Y-97347434D01*
X116396910Y-97271347D01*
X116476710Y-97212119D01*
X116495083Y-97202693D01*
X116551864Y-97164125D01*
X116579752Y-97129600D01*
X116582992Y-97108030D01*
X116567908Y-97122405D01*
X116549333Y-97139790D01*
X116494236Y-97177522D01*
X116420721Y-97219893D01*
X116295494Y-97286476D01*
X116160466Y-97240579D01*
X116147389Y-97236180D01*
X116067234Y-97213387D01*
X116015259Y-97210369D01*
X115975519Y-97225856D01*
X115943167Y-97240273D01*
X115925600Y-97232915D01*
X115929757Y-97214489D01*
X115964589Y-97188784D01*
X116038960Y-97176586D01*
X116157890Y-97176679D01*
X116243602Y-97177364D01*
X116309789Y-97172451D01*
X116339779Y-97162942D01*
X116332508Y-97153723D01*
X116288387Y-97146648D01*
X116217397Y-97144624D01*
X116132849Y-97147176D01*
X116048054Y-97153827D01*
X115976322Y-97164104D01*
X115930962Y-97177531D01*
X115891010Y-97213721D01*
X115860040Y-97276384D01*
X115856216Y-97293519D01*
X115836896Y-97374733D01*
X115823048Y-97415288D01*
X115810783Y-97423079D01*
X115796213Y-97406007D01*
X115789907Y-97391189D01*
X115778349Y-97330708D01*
X115773589Y-97251691D01*
X115774763Y-97218977D01*
X115800233Y-97126417D01*
X115859544Y-97071511D01*
X115953477Y-97053400D01*
X116052978Y-97046397D01*
X116144789Y-97017877D01*
X116193556Y-96968694D01*
X116232701Y-96925106D01*
X116319300Y-96891650D01*
X116380940Y-96877959D01*
X116448759Y-96860961D01*
X116479630Y-96849058D01*
X116481686Y-96839645D01*
X116470185Y-96837598D01*
X116420198Y-96840226D01*
X116346347Y-96849630D01*
X116243929Y-96877201D01*
X116176342Y-96924117D01*
X116131690Y-96979260D01*
X116103438Y-96926471D01*
X116089201Y-96851970D01*
X116112708Y-96770019D01*
X116166583Y-96696708D01*
X116243100Y-96647477D01*
X116316805Y-96620982D01*
X116373801Y-96605826D01*
X116401156Y-96609503D01*
G36*
X116401156Y-96609503D02*
G01*
X116408200Y-96631090D01*
X116414357Y-96661049D01*
X116447154Y-96689518D01*
X116491863Y-96678256D01*
X116520639Y-96661641D01*
X116571383Y-96643009D01*
X116616999Y-96633732D01*
X116636800Y-96639362D01*
X116635671Y-96643146D01*
X116613948Y-96676492D01*
X116573300Y-96727833D01*
X116573071Y-96728106D01*
X116522094Y-96805866D01*
X116514687Y-96873973D01*
X116549341Y-96946149D01*
X116551097Y-96948633D01*
X116594224Y-96993736D01*
X116625035Y-96996680D01*
X116636800Y-96956655D01*
X116643832Y-96919780D01*
X116672618Y-96861726D01*
X116677252Y-96855445D01*
X116699429Y-96832335D01*
X116712725Y-96846191D01*
X116725487Y-96903627D01*
X116730004Y-96933508D01*
X116724117Y-97060849D01*
X116678745Y-97170419D01*
X116597966Y-97251110D01*
X116594206Y-97253564D01*
X116514792Y-97326203D01*
X116472637Y-97409391D01*
X116473719Y-97491561D01*
X116476305Y-97526777D01*
X116455844Y-97531208D01*
X116421964Y-97506199D01*
X116385245Y-97456004D01*
X116374024Y-97433141D01*
X116361777Y-97347434D01*
X116396910Y-97271347D01*
X116476710Y-97212119D01*
X116495083Y-97202693D01*
X116551864Y-97164125D01*
X116579752Y-97129600D01*
X116582992Y-97108030D01*
X116567908Y-97122405D01*
X116549333Y-97139790D01*
X116494236Y-97177522D01*
X116420721Y-97219893D01*
X116295494Y-97286476D01*
X116160466Y-97240579D01*
X116147389Y-97236180D01*
X116067234Y-97213387D01*
X116015259Y-97210369D01*
X115975519Y-97225856D01*
X115943167Y-97240273D01*
X115925600Y-97232915D01*
X115929757Y-97214489D01*
X115964589Y-97188784D01*
X116038960Y-97176586D01*
X116157890Y-97176679D01*
X116243602Y-97177364D01*
X116309789Y-97172451D01*
X116339779Y-97162942D01*
X116332508Y-97153723D01*
X116288387Y-97146648D01*
X116217397Y-97144624D01*
X116132849Y-97147176D01*
X116048054Y-97153827D01*
X115976322Y-97164104D01*
X115930962Y-97177531D01*
X115891010Y-97213721D01*
X115860040Y-97276384D01*
X115856216Y-97293519D01*
X115836896Y-97374733D01*
X115823048Y-97415288D01*
X115810783Y-97423079D01*
X115796213Y-97406007D01*
X115789907Y-97391189D01*
X115778349Y-97330708D01*
X115773589Y-97251691D01*
X115774763Y-97218977D01*
X115800233Y-97126417D01*
X115859544Y-97071511D01*
X115953477Y-97053400D01*
X116052978Y-97046397D01*
X116144789Y-97017877D01*
X116193556Y-96968694D01*
X116232701Y-96925106D01*
X116319300Y-96891650D01*
X116380940Y-96877959D01*
X116448759Y-96860961D01*
X116479630Y-96849058D01*
X116481686Y-96839645D01*
X116470185Y-96837598D01*
X116420198Y-96840226D01*
X116346347Y-96849630D01*
X116243929Y-96877201D01*
X116176342Y-96924117D01*
X116131690Y-96979260D01*
X116103438Y-96926471D01*
X116089201Y-96851970D01*
X116112708Y-96770019D01*
X116166583Y-96696708D01*
X116243100Y-96647477D01*
X116316805Y-96620982D01*
X116373801Y-96605826D01*
X116401156Y-96609503D01*
G37*
X119076792Y-96086191D02*
X119115988Y-96136710D01*
X119122271Y-96147078D01*
X119156862Y-96195508D01*
X119180452Y-96215200D01*
X119191714Y-96225122D01*
X119216979Y-96272807D01*
X119247907Y-96348660D01*
X119279879Y-96440073D01*
X119308276Y-96534443D01*
X119328478Y-96619162D01*
X119343030Y-96696091D01*
X119360738Y-96802043D01*
X119367057Y-96874226D01*
X119361578Y-96922862D01*
X119343891Y-96958172D01*
X119313585Y-96990378D01*
X119263210Y-97052621D01*
X119258506Y-97062488D01*
X119230426Y-97121387D01*
X119229151Y-97125957D01*
X119194428Y-97184736D01*
X119151400Y-97197114D01*
X119134460Y-97201986D01*
X119109404Y-97195419D01*
X119075200Y-97186455D01*
X119045846Y-97178762D01*
X119043901Y-97177950D01*
X118993348Y-97145707D01*
X119130493Y-97145707D01*
X119151400Y-97155000D01*
X119164847Y-97153167D01*
X119168334Y-97138067D01*
X119164611Y-97135027D01*
X119134467Y-97138067D01*
X119130493Y-97145707D01*
X118993348Y-97145707D01*
X118990041Y-97143598D01*
X118981480Y-97102213D01*
X118983150Y-97073955D01*
X118957754Y-97070822D01*
X118957252Y-97071013D01*
X118932765Y-97067579D01*
X118933275Y-97029500D01*
X119049800Y-97029500D01*
X119051795Y-97038687D01*
X119075200Y-97040700D01*
X119082802Y-97035487D01*
X119100600Y-97013801D01*
X119099940Y-97011267D01*
X119075200Y-97002600D01*
X119068239Y-97003634D01*
X119060733Y-97014164D01*
X119049800Y-97029500D01*
X118933275Y-97029500D01*
X118933342Y-97024472D01*
X118937120Y-97004151D01*
X118947510Y-96958800D01*
X118957403Y-96955997D01*
X118973600Y-96989900D01*
X118984293Y-97013923D01*
X118994231Y-97023122D01*
X118997215Y-96983550D01*
X118991353Y-96947556D01*
X118967250Y-96924790D01*
X118962045Y-96916983D01*
X118995550Y-96899136D01*
X119031435Y-96876494D01*
X119029887Y-96845251D01*
X118979246Y-96810879D01*
X118880327Y-96774263D01*
X118821884Y-96754513D01*
X118793914Y-96737956D01*
X118812253Y-96728608D01*
X118820112Y-96727859D01*
X118884055Y-96735369D01*
X118958303Y-96758578D01*
X118977922Y-96766480D01*
X119029229Y-96783513D01*
X119049800Y-96784108D01*
X119040696Y-96772149D01*
X118996146Y-96748464D01*
X118929664Y-96724248D01*
X118858357Y-96705395D01*
X118799334Y-96697800D01*
X118760517Y-96701411D01*
X118720019Y-96725853D01*
X118699741Y-96781482D01*
X118694200Y-96877678D01*
X118694765Y-96903569D01*
X118705556Y-96960068D01*
X118732300Y-96977200D01*
X118749898Y-96980572D01*
X118770401Y-97006834D01*
X118769070Y-97017059D01*
X118753688Y-97019754D01*
X118738399Y-97015598D01*
X118700429Y-97033371D01*
X118666991Y-97048949D01*
X118639680Y-97020451D01*
X118608508Y-96983652D01*
X118579379Y-96985224D01*
X118567200Y-97030718D01*
X118559896Y-97065727D01*
X118537209Y-97068592D01*
X118529100Y-97069615D01*
X118498177Y-97070905D01*
X118492227Y-97104386D01*
X118511510Y-97161055D01*
X118554500Y-97231200D01*
X118580685Y-97267409D01*
X118611188Y-97315050D01*
X118608747Y-97324896D01*
X118573029Y-97296946D01*
X118503700Y-97231200D01*
X118470262Y-97198011D01*
X118416568Y-97138842D01*
X118395157Y-97097169D01*
X118402196Y-97061399D01*
X118433850Y-97019940D01*
X118445130Y-97006866D01*
X118460984Y-96981002D01*
X118440705Y-96981788D01*
X118424595Y-96992525D01*
X118385552Y-97039329D01*
X118344508Y-97107672D01*
X118298588Y-97181081D01*
X118237023Y-97238234D01*
X118144128Y-97291082D01*
X118078070Y-97325418D01*
X118028163Y-97355690D01*
X118013111Y-97371378D01*
X118015316Y-97372451D01*
X118049239Y-97365038D01*
X118109132Y-97340406D01*
X118179946Y-97305813D01*
X118246635Y-97268520D01*
X118294150Y-97235787D01*
X118322646Y-97214924D01*
X118338600Y-97212486D01*
X118334830Y-97238715D01*
X118303041Y-97288168D01*
X118233878Y-97338938D01*
X118121294Y-97396138D01*
X118032234Y-97441086D01*
X117927646Y-97513554D01*
X117870992Y-97585455D01*
X117863651Y-97655402D01*
X117866937Y-97667607D01*
X117874620Y-97682622D01*
X117878454Y-97648740D01*
X117880140Y-97635553D01*
X117914641Y-97565145D01*
X117983574Y-97497137D01*
X118074682Y-97444301D01*
X118085818Y-97439694D01*
X118142190Y-97417875D01*
X118171744Y-97409000D01*
X118171468Y-97411638D01*
X118148791Y-97439904D01*
X118100423Y-97492564D01*
X118033800Y-97561400D01*
X118008038Y-97587217D01*
X117940836Y-97651874D01*
X117889993Y-97696902D01*
X117864928Y-97713800D01*
X117864423Y-97713781D01*
X117834021Y-97697092D01*
X117787788Y-97658573D01*
X117776709Y-97647852D01*
X117737618Y-97594291D01*
X117734993Y-97537669D01*
X117766955Y-97460081D01*
X117806529Y-97400005D01*
X117891238Y-97331546D01*
X117991994Y-97307400D01*
X117993453Y-97307399D01*
X118022095Y-97305698D01*
X118049474Y-97297299D01*
X118081502Y-97277060D01*
X118124092Y-97239839D01*
X118183156Y-97180494D01*
X118264608Y-97093882D01*
X118374361Y-96974861D01*
X118385283Y-96962822D01*
X118423224Y-96915588D01*
X118496809Y-96915588D01*
X118497856Y-96943545D01*
X118518707Y-96989900D01*
X118529818Y-97012436D01*
X118537209Y-97018685D01*
X118530584Y-96978137D01*
X118529977Y-96935534D01*
X118559400Y-96870187D01*
X118580009Y-96839727D01*
X118572031Y-96824800D01*
X118549911Y-96834509D01*
X118517294Y-96873931D01*
X118515221Y-96877795D01*
X118496809Y-96915588D01*
X118423224Y-96915588D01*
X118431681Y-96905060D01*
X118441439Y-96878581D01*
X118415479Y-96885578D01*
X118354726Y-96928244D01*
X118346122Y-96934801D01*
X118304667Y-96959024D01*
X118287800Y-96955458D01*
X118287899Y-96952843D01*
X118311040Y-96907864D01*
X118359978Y-96867627D01*
X118413189Y-96850200D01*
X118464022Y-96835423D01*
X118523331Y-96799400D01*
X118524964Y-96798123D01*
X118577501Y-96763103D01*
X118614475Y-96748600D01*
X118617915Y-96747803D01*
X118619828Y-96722206D01*
X118608852Y-96696749D01*
X119127615Y-96696749D01*
X119136379Y-96757378D01*
X119154223Y-96807159D01*
X119182787Y-96837569D01*
X119216951Y-96823099D01*
X119245038Y-96806546D01*
X119253389Y-96828040D01*
X119258506Y-96847933D01*
X119278400Y-96824800D01*
X119289632Y-96802823D01*
X119301626Y-96748600D01*
X119295115Y-96732101D01*
X119276130Y-96761300D01*
X119264853Y-96782744D01*
X119258580Y-96780222D01*
X119264137Y-96731766D01*
X119264256Y-96667117D01*
X119232872Y-96618691D01*
X119220160Y-96609202D01*
X119202942Y-96598946D01*
X119221250Y-96621555D01*
X119232228Y-96634788D01*
X119252214Y-96672803D01*
X119242460Y-96685842D01*
X119206550Y-96663637D01*
X119172998Y-96636838D01*
X119143050Y-96621600D01*
X119142066Y-96621664D01*
X119129116Y-96644951D01*
X119127615Y-96696749D01*
X118608852Y-96696749D01*
X118597769Y-96671044D01*
X118592443Y-96661461D01*
X118569405Y-96611912D01*
X118575138Y-96580789D01*
X118612206Y-96545874D01*
X118669911Y-96498259D01*
X118616067Y-96460545D01*
X118562224Y-96422832D01*
X118626969Y-96380410D01*
X118662529Y-96363060D01*
X118724788Y-96353178D01*
X118775102Y-96365677D01*
X118795800Y-96398649D01*
X118809399Y-96405361D01*
X118845000Y-96381749D01*
X118890555Y-96354956D01*
X118931640Y-96361654D01*
X118948201Y-96405700D01*
X118949614Y-96419808D01*
X118967250Y-96452576D01*
X118970714Y-96453173D01*
X118976274Y-96441164D01*
X119109404Y-96441164D01*
X119140700Y-96412655D01*
X119167761Y-96380847D01*
X119174327Y-96356660D01*
X119157473Y-96363036D01*
X119157469Y-96363037D01*
X119128550Y-96400506D01*
X119110203Y-96431861D01*
X119109404Y-96441164D01*
X118976274Y-96441164D01*
X118982178Y-96428410D01*
X118987313Y-96371525D01*
X118987969Y-96354900D01*
X119054864Y-96354900D01*
X119055266Y-96371632D01*
X119060733Y-96380538D01*
X119075200Y-96342200D01*
X119087703Y-96292356D01*
X119089105Y-96280817D01*
X119153406Y-96280817D01*
X119157473Y-96305784D01*
X119168752Y-96296163D01*
X119172810Y-96281475D01*
X119166746Y-96247480D01*
X119158076Y-96247873D01*
X119153406Y-96280817D01*
X119089105Y-96280817D01*
X119095537Y-96227900D01*
X119095135Y-96211169D01*
X119089668Y-96202263D01*
X119075200Y-96240600D01*
X119062698Y-96290445D01*
X119054864Y-96354900D01*
X118987969Y-96354900D01*
X118989494Y-96316258D01*
X119001519Y-96213774D01*
X119021184Y-96130615D01*
X119045331Y-96082510D01*
X119047162Y-96080880D01*
X119076792Y-96086191D01*
G36*
X119076792Y-96086191D02*
G01*
X119115988Y-96136710D01*
X119122271Y-96147078D01*
X119156862Y-96195508D01*
X119180452Y-96215200D01*
X119191714Y-96225122D01*
X119216979Y-96272807D01*
X119247907Y-96348660D01*
X119279879Y-96440073D01*
X119308276Y-96534443D01*
X119328478Y-96619162D01*
X119343030Y-96696091D01*
X119360738Y-96802043D01*
X119367057Y-96874226D01*
X119361578Y-96922862D01*
X119343891Y-96958172D01*
X119313585Y-96990378D01*
X119263210Y-97052621D01*
X119258506Y-97062488D01*
X119230426Y-97121387D01*
X119229151Y-97125957D01*
X119194428Y-97184736D01*
X119151400Y-97197114D01*
X119134460Y-97201986D01*
X119109404Y-97195419D01*
X119075200Y-97186455D01*
X119045846Y-97178762D01*
X119043901Y-97177950D01*
X118993348Y-97145707D01*
X119130493Y-97145707D01*
X119151400Y-97155000D01*
X119164847Y-97153167D01*
X119168334Y-97138067D01*
X119164611Y-97135027D01*
X119134467Y-97138067D01*
X119130493Y-97145707D01*
X118993348Y-97145707D01*
X118990041Y-97143598D01*
X118981480Y-97102213D01*
X118983150Y-97073955D01*
X118957754Y-97070822D01*
X118957252Y-97071013D01*
X118932765Y-97067579D01*
X118933275Y-97029500D01*
X119049800Y-97029500D01*
X119051795Y-97038687D01*
X119075200Y-97040700D01*
X119082802Y-97035487D01*
X119100600Y-97013801D01*
X119099940Y-97011267D01*
X119075200Y-97002600D01*
X119068239Y-97003634D01*
X119060733Y-97014164D01*
X119049800Y-97029500D01*
X118933275Y-97029500D01*
X118933342Y-97024472D01*
X118937120Y-97004151D01*
X118947510Y-96958800D01*
X118957403Y-96955997D01*
X118973600Y-96989900D01*
X118984293Y-97013923D01*
X118994231Y-97023122D01*
X118997215Y-96983550D01*
X118991353Y-96947556D01*
X118967250Y-96924790D01*
X118962045Y-96916983D01*
X118995550Y-96899136D01*
X119031435Y-96876494D01*
X119029887Y-96845251D01*
X118979246Y-96810879D01*
X118880327Y-96774263D01*
X118821884Y-96754513D01*
X118793914Y-96737956D01*
X118812253Y-96728608D01*
X118820112Y-96727859D01*
X118884055Y-96735369D01*
X118958303Y-96758578D01*
X118977922Y-96766480D01*
X119029229Y-96783513D01*
X119049800Y-96784108D01*
X119040696Y-96772149D01*
X118996146Y-96748464D01*
X118929664Y-96724248D01*
X118858357Y-96705395D01*
X118799334Y-96697800D01*
X118760517Y-96701411D01*
X118720019Y-96725853D01*
X118699741Y-96781482D01*
X118694200Y-96877678D01*
X118694765Y-96903569D01*
X118705556Y-96960068D01*
X118732300Y-96977200D01*
X118749898Y-96980572D01*
X118770401Y-97006834D01*
X118769070Y-97017059D01*
X118753688Y-97019754D01*
X118738399Y-97015598D01*
X118700429Y-97033371D01*
X118666991Y-97048949D01*
X118639680Y-97020451D01*
X118608508Y-96983652D01*
X118579379Y-96985224D01*
X118567200Y-97030718D01*
X118559896Y-97065727D01*
X118537209Y-97068592D01*
X118529100Y-97069615D01*
X118498177Y-97070905D01*
X118492227Y-97104386D01*
X118511510Y-97161055D01*
X118554500Y-97231200D01*
X118580685Y-97267409D01*
X118611188Y-97315050D01*
X118608747Y-97324896D01*
X118573029Y-97296946D01*
X118503700Y-97231200D01*
X118470262Y-97198011D01*
X118416568Y-97138842D01*
X118395157Y-97097169D01*
X118402196Y-97061399D01*
X118433850Y-97019940D01*
X118445130Y-97006866D01*
X118460984Y-96981002D01*
X118440705Y-96981788D01*
X118424595Y-96992525D01*
X118385552Y-97039329D01*
X118344508Y-97107672D01*
X118298588Y-97181081D01*
X118237023Y-97238234D01*
X118144128Y-97291082D01*
X118078070Y-97325418D01*
X118028163Y-97355690D01*
X118013111Y-97371378D01*
X118015316Y-97372451D01*
X118049239Y-97365038D01*
X118109132Y-97340406D01*
X118179946Y-97305813D01*
X118246635Y-97268520D01*
X118294150Y-97235787D01*
X118322646Y-97214924D01*
X118338600Y-97212486D01*
X118334830Y-97238715D01*
X118303041Y-97288168D01*
X118233878Y-97338938D01*
X118121294Y-97396138D01*
X118032234Y-97441086D01*
X117927646Y-97513554D01*
X117870992Y-97585455D01*
X117863651Y-97655402D01*
X117866937Y-97667607D01*
X117874620Y-97682622D01*
X117878454Y-97648740D01*
X117880140Y-97635553D01*
X117914641Y-97565145D01*
X117983574Y-97497137D01*
X118074682Y-97444301D01*
X118085818Y-97439694D01*
X118142190Y-97417875D01*
X118171744Y-97409000D01*
X118171468Y-97411638D01*
X118148791Y-97439904D01*
X118100423Y-97492564D01*
X118033800Y-97561400D01*
X118008038Y-97587217D01*
X117940836Y-97651874D01*
X117889993Y-97696902D01*
X117864928Y-97713800D01*
X117864423Y-97713781D01*
X117834021Y-97697092D01*
X117787788Y-97658573D01*
X117776709Y-97647852D01*
X117737618Y-97594291D01*
X117734993Y-97537669D01*
X117766955Y-97460081D01*
X117806529Y-97400005D01*
X117891238Y-97331546D01*
X117991994Y-97307400D01*
X117993453Y-97307399D01*
X118022095Y-97305698D01*
X118049474Y-97297299D01*
X118081502Y-97277060D01*
X118124092Y-97239839D01*
X118183156Y-97180494D01*
X118264608Y-97093882D01*
X118374361Y-96974861D01*
X118385283Y-96962822D01*
X118423224Y-96915588D01*
X118496809Y-96915588D01*
X118497856Y-96943545D01*
X118518707Y-96989900D01*
X118529818Y-97012436D01*
X118537209Y-97018685D01*
X118530584Y-96978137D01*
X118529977Y-96935534D01*
X118559400Y-96870187D01*
X118580009Y-96839727D01*
X118572031Y-96824800D01*
X118549911Y-96834509D01*
X118517294Y-96873931D01*
X118515221Y-96877795D01*
X118496809Y-96915588D01*
X118423224Y-96915588D01*
X118431681Y-96905060D01*
X118441439Y-96878581D01*
X118415479Y-96885578D01*
X118354726Y-96928244D01*
X118346122Y-96934801D01*
X118304667Y-96959024D01*
X118287800Y-96955458D01*
X118287899Y-96952843D01*
X118311040Y-96907864D01*
X118359978Y-96867627D01*
X118413189Y-96850200D01*
X118464022Y-96835423D01*
X118523331Y-96799400D01*
X118524964Y-96798123D01*
X118577501Y-96763103D01*
X118614475Y-96748600D01*
X118617915Y-96747803D01*
X118619828Y-96722206D01*
X118608852Y-96696749D01*
X119127615Y-96696749D01*
X119136379Y-96757378D01*
X119154223Y-96807159D01*
X119182787Y-96837569D01*
X119216951Y-96823099D01*
X119245038Y-96806546D01*
X119253389Y-96828040D01*
X119258506Y-96847933D01*
X119278400Y-96824800D01*
X119289632Y-96802823D01*
X119301626Y-96748600D01*
X119295115Y-96732101D01*
X119276130Y-96761300D01*
X119264853Y-96782744D01*
X119258580Y-96780222D01*
X119264137Y-96731766D01*
X119264256Y-96667117D01*
X119232872Y-96618691D01*
X119220160Y-96609202D01*
X119202942Y-96598946D01*
X119221250Y-96621555D01*
X119232228Y-96634788D01*
X119252214Y-96672803D01*
X119242460Y-96685842D01*
X119206550Y-96663637D01*
X119172998Y-96636838D01*
X119143050Y-96621600D01*
X119142066Y-96621664D01*
X119129116Y-96644951D01*
X119127615Y-96696749D01*
X118608852Y-96696749D01*
X118597769Y-96671044D01*
X118592443Y-96661461D01*
X118569405Y-96611912D01*
X118575138Y-96580789D01*
X118612206Y-96545874D01*
X118669911Y-96498259D01*
X118616067Y-96460545D01*
X118562224Y-96422832D01*
X118626969Y-96380410D01*
X118662529Y-96363060D01*
X118724788Y-96353178D01*
X118775102Y-96365677D01*
X118795800Y-96398649D01*
X118809399Y-96405361D01*
X118845000Y-96381749D01*
X118890555Y-96354956D01*
X118931640Y-96361654D01*
X118948201Y-96405700D01*
X118949614Y-96419808D01*
X118967250Y-96452576D01*
X118970714Y-96453173D01*
X118976274Y-96441164D01*
X119109404Y-96441164D01*
X119140700Y-96412655D01*
X119167761Y-96380847D01*
X119174327Y-96356660D01*
X119157473Y-96363036D01*
X119157469Y-96363037D01*
X119128550Y-96400506D01*
X119110203Y-96431861D01*
X119109404Y-96441164D01*
X118976274Y-96441164D01*
X118982178Y-96428410D01*
X118987313Y-96371525D01*
X118987969Y-96354900D01*
X119054864Y-96354900D01*
X119055266Y-96371632D01*
X119060733Y-96380538D01*
X119075200Y-96342200D01*
X119087703Y-96292356D01*
X119089105Y-96280817D01*
X119153406Y-96280817D01*
X119157473Y-96305784D01*
X119168752Y-96296163D01*
X119172810Y-96281475D01*
X119166746Y-96247480D01*
X119158076Y-96247873D01*
X119153406Y-96280817D01*
X119089105Y-96280817D01*
X119095537Y-96227900D01*
X119095135Y-96211169D01*
X119089668Y-96202263D01*
X119075200Y-96240600D01*
X119062698Y-96290445D01*
X119054864Y-96354900D01*
X118987969Y-96354900D01*
X118989494Y-96316258D01*
X119001519Y-96213774D01*
X119021184Y-96130615D01*
X119045331Y-96082510D01*
X119047162Y-96080880D01*
X119076792Y-96086191D01*
G37*
X116801032Y-95529430D02*
X116834186Y-95541479D01*
X116863341Y-95580615D01*
X116892532Y-95654527D01*
X116925797Y-95770899D01*
X116945525Y-95892212D01*
X116951878Y-96053891D01*
X116944268Y-96233861D01*
X116923915Y-96416733D01*
X116892036Y-96587122D01*
X116849852Y-96729640D01*
X116813538Y-96811745D01*
X116779428Y-96865799D01*
X116753431Y-96885552D01*
X116740479Y-96867324D01*
X116745509Y-96807437D01*
X116757401Y-96745228D01*
X116684401Y-96815166D01*
X116671099Y-96828521D01*
X116628553Y-96881716D01*
X116611400Y-96921563D01*
X116611388Y-96923597D01*
X116603516Y-96944697D01*
X116573300Y-96926400D01*
X116570480Y-96924024D01*
X116543042Y-96890633D01*
X116541169Y-96850745D01*
X116567357Y-96793666D01*
X116624100Y-96708703D01*
X116663479Y-96650600D01*
X116699051Y-96591126D01*
X116712612Y-96558182D01*
X116710363Y-96548863D01*
X116693562Y-96560540D01*
X116658793Y-96585051D01*
X116598700Y-96606196D01*
X116535272Y-96621775D01*
X116478050Y-96637218D01*
X116476765Y-96637588D01*
X116442154Y-96631834D01*
X116433407Y-96597108D01*
X116449445Y-96547123D01*
X116489190Y-96495590D01*
X116492270Y-96492679D01*
X116520611Y-96458061D01*
X116516433Y-96443800D01*
X116483504Y-96460634D01*
X116441176Y-96503439D01*
X116436505Y-96509013D01*
X116376426Y-96557308D01*
X116301219Y-96593785D01*
X116182615Y-96647930D01*
X116126626Y-96700448D01*
X116101071Y-96724418D01*
X116062680Y-96822763D01*
X116055519Y-96860857D01*
X116036876Y-96903138D01*
X115997519Y-96929210D01*
X115922974Y-96952516D01*
X115878686Y-96966745D01*
X115821048Y-96994518D01*
X115798600Y-97019892D01*
X115797948Y-97030003D01*
X115781009Y-97052689D01*
X115750513Y-97038846D01*
X115719090Y-96992779D01*
X115704916Y-96930697D01*
X115726044Y-96860020D01*
X115747911Y-96823577D01*
X115785880Y-96790472D01*
X115848460Y-96762321D01*
X115948286Y-96731836D01*
X115975546Y-96720440D01*
X115971011Y-96710228D01*
X115935714Y-96706788D01*
X115880617Y-96713147D01*
X115809911Y-96737809D01*
X115727353Y-96803869D01*
X115681273Y-96895353D01*
X115671952Y-96924149D01*
X115638697Y-96991088D01*
X115594826Y-97057841D01*
X115551007Y-97109111D01*
X115517908Y-97129600D01*
X115517721Y-97129600D01*
X115496095Y-97109617D01*
X115496030Y-97060443D01*
X115514949Y-96997492D01*
X115550272Y-96936176D01*
X115577275Y-96899752D01*
X115583891Y-96884030D01*
X115559037Y-96901000D01*
X115515804Y-96949006D01*
X115475643Y-97015300D01*
X115442165Y-97083391D01*
X115405920Y-97151589D01*
X115404083Y-97154874D01*
X115386739Y-97200143D01*
X115389021Y-97251635D01*
X115411567Y-97329389D01*
X115423781Y-97363641D01*
X115457492Y-97445147D01*
X115488017Y-97504054D01*
X115506969Y-97539501D01*
X115512665Y-97596602D01*
X115475456Y-97628598D01*
X115398088Y-97631595D01*
X115365865Y-97628036D01*
X115317097Y-97632120D01*
X115303300Y-97641966D01*
X115278226Y-97659859D01*
X115272752Y-97666946D01*
X115230966Y-97721041D01*
X115201700Y-97759087D01*
X115191601Y-97772215D01*
X115158419Y-97799061D01*
X115137392Y-97788692D01*
X115129069Y-97770703D01*
X115128675Y-97734063D01*
X115129300Y-97726500D01*
X115189000Y-97726500D01*
X115201700Y-97739200D01*
X115214400Y-97726500D01*
X115201700Y-97713800D01*
X115189000Y-97726500D01*
X115129300Y-97726500D01*
X115129524Y-97723796D01*
X115101600Y-97713800D01*
X115082828Y-97712523D01*
X115062000Y-97703178D01*
X115059364Y-97690646D01*
X115044984Y-97648211D01*
X115038835Y-97620315D01*
X115058702Y-97622862D01*
X115059479Y-97623336D01*
X115078955Y-97623442D01*
X115074480Y-97582264D01*
X115073261Y-97574100D01*
X115290600Y-97574100D01*
X115303300Y-97586800D01*
X115316000Y-97574100D01*
X115303300Y-97561400D01*
X115290600Y-97574100D01*
X115073261Y-97574100D01*
X115072291Y-97567605D01*
X115085188Y-97489839D01*
X115087141Y-97485200D01*
X115269211Y-97485200D01*
X115272752Y-97520141D01*
X115282022Y-97516950D01*
X115285377Y-97505453D01*
X115282022Y-97453450D01*
X115273203Y-97449142D01*
X115269211Y-97485200D01*
X115087141Y-97485200D01*
X115130612Y-97381948D01*
X115201700Y-97241225D01*
X115116433Y-97299152D01*
X115044522Y-97335792D01*
X114988972Y-97336122D01*
X114983035Y-97336157D01*
X114946988Y-97293955D01*
X114939916Y-97210952D01*
X114943912Y-97173068D01*
X114951983Y-97148401D01*
X114988972Y-97148401D01*
X115018646Y-97140667D01*
X115042350Y-97128000D01*
X115049973Y-97109106D01*
X115037730Y-97106386D01*
X115004427Y-97126449D01*
X115001145Y-97129794D01*
X114988972Y-97148401D01*
X114951983Y-97148401D01*
X114955743Y-97136909D01*
X114984611Y-97111713D01*
X115041177Y-97089379D01*
X115136098Y-97061802D01*
X115153256Y-97052122D01*
X115147461Y-97027024D01*
X115104195Y-96996186D01*
X115030269Y-96965789D01*
X114998500Y-96953657D01*
X114996626Y-96952942D01*
X114953452Y-96916471D01*
X114952620Y-96913700D01*
X114985800Y-96913700D01*
X114998500Y-96926400D01*
X115011200Y-96913700D01*
X114998500Y-96901000D01*
X114985800Y-96913700D01*
X114952620Y-96913700D01*
X114933565Y-96850200D01*
X114930728Y-96831500D01*
X114926149Y-96763850D01*
X114940509Y-96731492D01*
X114977710Y-96723200D01*
X114988556Y-96723523D01*
X115004084Y-96733664D01*
X114982998Y-96767650D01*
X114963830Y-96793078D01*
X114965342Y-96796967D01*
X115000938Y-96767650D01*
X115043576Y-96738560D01*
X115087400Y-96723200D01*
X115092606Y-96723453D01*
X115147048Y-96748173D01*
X115194257Y-96798857D01*
X115214400Y-96854934D01*
X115216518Y-96874611D01*
X115244019Y-96913118D01*
X115290202Y-96916744D01*
X115338301Y-96881847D01*
X115375761Y-96846761D01*
X115430300Y-96820632D01*
X115447732Y-96813556D01*
X115495215Y-96768423D01*
X115543892Y-96693119D01*
X115585694Y-96623642D01*
X115631431Y-96579296D01*
X115689051Y-96558885D01*
X115692260Y-96558264D01*
X115753718Y-96538963D01*
X115789176Y-96514700D01*
X115791992Y-96498191D01*
X115758317Y-96507095D01*
X115751752Y-96509722D01*
X115689135Y-96526712D01*
X115611390Y-96539771D01*
X115588934Y-96542896D01*
X115544154Y-96555721D01*
X115544770Y-96570905D01*
X115557311Y-96586452D01*
X115551887Y-96625744D01*
X115517753Y-96694946D01*
X115475870Y-96759685D01*
X115435046Y-96791340D01*
X115381173Y-96799012D01*
X115314714Y-96794106D01*
X115266889Y-96776895D01*
X115262918Y-96750808D01*
X115306261Y-96719519D01*
X115364520Y-96677291D01*
X115412405Y-96615019D01*
X115444559Y-96565249D01*
X115476136Y-96542057D01*
X115479763Y-96541372D01*
X115470140Y-96534095D01*
X115422951Y-96523007D01*
X115382955Y-96512671D01*
X115341023Y-96489255D01*
X115338341Y-96465635D01*
X115379500Y-96449574D01*
X115418847Y-96438616D01*
X115492567Y-96410873D01*
X115578481Y-96373687D01*
X115726662Y-96305423D01*
X115824814Y-96361912D01*
X115845934Y-96373050D01*
X115930912Y-96404349D01*
X116006833Y-96415480D01*
X116090700Y-96412559D01*
X116001435Y-96395051D01*
X115971335Y-96387977D01*
X115861520Y-96346257D01*
X115724673Y-96272506D01*
X115727686Y-96257725D01*
X115755138Y-96221126D01*
X115777778Y-96186516D01*
X115773310Y-96147258D01*
X115856005Y-96147258D01*
X115869117Y-96166614D01*
X115919965Y-96195091D01*
X115931187Y-96200347D01*
X116011387Y-96242401D01*
X116078000Y-96283693D01*
X116115773Y-96309754D01*
X116126626Y-96312301D01*
X116106895Y-96285059D01*
X116101535Y-96278761D01*
X116051826Y-96234195D01*
X115986503Y-96188195D01*
X115970774Y-96178969D01*
X115907642Y-96150669D01*
X115863073Y-96143438D01*
X115856005Y-96147258D01*
X115773310Y-96147258D01*
X115772304Y-96138420D01*
X115771817Y-96137645D01*
X115748730Y-96070057D01*
X115758823Y-96009440D01*
X115799171Y-95973719D01*
X115806053Y-95971660D01*
X115900403Y-95966950D01*
X115982627Y-96002248D01*
X116037425Y-96071290D01*
X116052318Y-96099553D01*
X116104608Y-96171698D01*
X116169680Y-96240600D01*
X116208018Y-96274165D01*
X116231724Y-96291060D01*
X116223509Y-96276700D01*
X116192671Y-96222440D01*
X116182485Y-96133242D01*
X116214190Y-96050606D01*
X116218160Y-96045318D01*
X116246754Y-96020212D01*
X116288198Y-96015813D01*
X116360240Y-96029563D01*
X116471700Y-96055824D01*
X116363750Y-96101265D01*
X116331520Y-96116401D01*
X116277251Y-96151496D01*
X116255800Y-96180953D01*
X116260372Y-96202119D01*
X116295636Y-96253833D01*
X116349385Y-96297728D01*
X116401850Y-96315580D01*
X116426301Y-96313193D01*
X116520685Y-96279017D01*
X116608448Y-96215190D01*
X116669355Y-96135345D01*
X116682535Y-96105640D01*
X116716028Y-96006808D01*
X116745325Y-95890730D01*
X116767185Y-95773673D01*
X116778369Y-95671900D01*
X116775639Y-95601678D01*
X116772546Y-95586274D01*
X116772807Y-95541732D01*
X116798989Y-95529400D01*
X116801032Y-95529430D01*
G36*
X116801032Y-95529430D02*
G01*
X116834186Y-95541479D01*
X116863341Y-95580615D01*
X116892532Y-95654527D01*
X116925797Y-95770899D01*
X116945525Y-95892212D01*
X116951878Y-96053891D01*
X116944268Y-96233861D01*
X116923915Y-96416733D01*
X116892036Y-96587122D01*
X116849852Y-96729640D01*
X116813538Y-96811745D01*
X116779428Y-96865799D01*
X116753431Y-96885552D01*
X116740479Y-96867324D01*
X116745509Y-96807437D01*
X116757401Y-96745228D01*
X116684401Y-96815166D01*
X116671099Y-96828521D01*
X116628553Y-96881716D01*
X116611400Y-96921563D01*
X116611388Y-96923597D01*
X116603516Y-96944697D01*
X116573300Y-96926400D01*
X116570480Y-96924024D01*
X116543042Y-96890633D01*
X116541169Y-96850745D01*
X116567357Y-96793666D01*
X116624100Y-96708703D01*
X116663479Y-96650600D01*
X116699051Y-96591126D01*
X116712612Y-96558182D01*
X116710363Y-96548863D01*
X116693562Y-96560540D01*
X116658793Y-96585051D01*
X116598700Y-96606196D01*
X116535272Y-96621775D01*
X116478050Y-96637218D01*
X116476765Y-96637588D01*
X116442154Y-96631834D01*
X116433407Y-96597108D01*
X116449445Y-96547123D01*
X116489190Y-96495590D01*
X116492270Y-96492679D01*
X116520611Y-96458061D01*
X116516433Y-96443800D01*
X116483504Y-96460634D01*
X116441176Y-96503439D01*
X116436505Y-96509013D01*
X116376426Y-96557308D01*
X116301219Y-96593785D01*
X116182615Y-96647930D01*
X116126626Y-96700448D01*
X116101071Y-96724418D01*
X116062680Y-96822763D01*
X116055519Y-96860857D01*
X116036876Y-96903138D01*
X115997519Y-96929210D01*
X115922974Y-96952516D01*
X115878686Y-96966745D01*
X115821048Y-96994518D01*
X115798600Y-97019892D01*
X115797948Y-97030003D01*
X115781009Y-97052689D01*
X115750513Y-97038846D01*
X115719090Y-96992779D01*
X115704916Y-96930697D01*
X115726044Y-96860020D01*
X115747911Y-96823577D01*
X115785880Y-96790472D01*
X115848460Y-96762321D01*
X115948286Y-96731836D01*
X115975546Y-96720440D01*
X115971011Y-96710228D01*
X115935714Y-96706788D01*
X115880617Y-96713147D01*
X115809911Y-96737809D01*
X115727353Y-96803869D01*
X115681273Y-96895353D01*
X115671952Y-96924149D01*
X115638697Y-96991088D01*
X115594826Y-97057841D01*
X115551007Y-97109111D01*
X115517908Y-97129600D01*
X115517721Y-97129600D01*
X115496095Y-97109617D01*
X115496030Y-97060443D01*
X115514949Y-96997492D01*
X115550272Y-96936176D01*
X115577275Y-96899752D01*
X115583891Y-96884030D01*
X115559037Y-96901000D01*
X115515804Y-96949006D01*
X115475643Y-97015300D01*
X115442165Y-97083391D01*
X115405920Y-97151589D01*
X115404083Y-97154874D01*
X115386739Y-97200143D01*
X115389021Y-97251635D01*
X115411567Y-97329389D01*
X115423781Y-97363641D01*
X115457492Y-97445147D01*
X115488017Y-97504054D01*
X115506969Y-97539501D01*
X115512665Y-97596602D01*
X115475456Y-97628598D01*
X115398088Y-97631595D01*
X115365865Y-97628036D01*
X115317097Y-97632120D01*
X115303300Y-97641966D01*
X115278226Y-97659859D01*
X115272752Y-97666946D01*
X115230966Y-97721041D01*
X115201700Y-97759087D01*
X115191601Y-97772215D01*
X115158419Y-97799061D01*
X115137392Y-97788692D01*
X115129069Y-97770703D01*
X115128675Y-97734063D01*
X115129300Y-97726500D01*
X115189000Y-97726500D01*
X115201700Y-97739200D01*
X115214400Y-97726500D01*
X115201700Y-97713800D01*
X115189000Y-97726500D01*
X115129300Y-97726500D01*
X115129524Y-97723796D01*
X115101600Y-97713800D01*
X115082828Y-97712523D01*
X115062000Y-97703178D01*
X115059364Y-97690646D01*
X115044984Y-97648211D01*
X115038835Y-97620315D01*
X115058702Y-97622862D01*
X115059479Y-97623336D01*
X115078955Y-97623442D01*
X115074480Y-97582264D01*
X115073261Y-97574100D01*
X115290600Y-97574100D01*
X115303300Y-97586800D01*
X115316000Y-97574100D01*
X115303300Y-97561400D01*
X115290600Y-97574100D01*
X115073261Y-97574100D01*
X115072291Y-97567605D01*
X115085188Y-97489839D01*
X115087141Y-97485200D01*
X115269211Y-97485200D01*
X115272752Y-97520141D01*
X115282022Y-97516950D01*
X115285377Y-97505453D01*
X115282022Y-97453450D01*
X115273203Y-97449142D01*
X115269211Y-97485200D01*
X115087141Y-97485200D01*
X115130612Y-97381948D01*
X115201700Y-97241225D01*
X115116433Y-97299152D01*
X115044522Y-97335792D01*
X114988972Y-97336122D01*
X114983035Y-97336157D01*
X114946988Y-97293955D01*
X114939916Y-97210952D01*
X114943912Y-97173068D01*
X114951983Y-97148401D01*
X114988972Y-97148401D01*
X115018646Y-97140667D01*
X115042350Y-97128000D01*
X115049973Y-97109106D01*
X115037730Y-97106386D01*
X115004427Y-97126449D01*
X115001145Y-97129794D01*
X114988972Y-97148401D01*
X114951983Y-97148401D01*
X114955743Y-97136909D01*
X114984611Y-97111713D01*
X115041177Y-97089379D01*
X115136098Y-97061802D01*
X115153256Y-97052122D01*
X115147461Y-97027024D01*
X115104195Y-96996186D01*
X115030269Y-96965789D01*
X114998500Y-96953657D01*
X114996626Y-96952942D01*
X114953452Y-96916471D01*
X114952620Y-96913700D01*
X114985800Y-96913700D01*
X114998500Y-96926400D01*
X115011200Y-96913700D01*
X114998500Y-96901000D01*
X114985800Y-96913700D01*
X114952620Y-96913700D01*
X114933565Y-96850200D01*
X114930728Y-96831500D01*
X114926149Y-96763850D01*
X114940509Y-96731492D01*
X114977710Y-96723200D01*
X114988556Y-96723523D01*
X115004084Y-96733664D01*
X114982998Y-96767650D01*
X114963830Y-96793078D01*
X114965342Y-96796967D01*
X115000938Y-96767650D01*
X115043576Y-96738560D01*
X115087400Y-96723200D01*
X115092606Y-96723453D01*
X115147048Y-96748173D01*
X115194257Y-96798857D01*
X115214400Y-96854934D01*
X115216518Y-96874611D01*
X115244019Y-96913118D01*
X115290202Y-96916744D01*
X115338301Y-96881847D01*
X115375761Y-96846761D01*
X115430300Y-96820632D01*
X115447732Y-96813556D01*
X115495215Y-96768423D01*
X115543892Y-96693119D01*
X115585694Y-96623642D01*
X115631431Y-96579296D01*
X115689051Y-96558885D01*
X115692260Y-96558264D01*
X115753718Y-96538963D01*
X115789176Y-96514700D01*
X115791992Y-96498191D01*
X115758317Y-96507095D01*
X115751752Y-96509722D01*
X115689135Y-96526712D01*
X115611390Y-96539771D01*
X115588934Y-96542896D01*
X115544154Y-96555721D01*
X115544770Y-96570905D01*
X115557311Y-96586452D01*
X115551887Y-96625744D01*
X115517753Y-96694946D01*
X115475870Y-96759685D01*
X115435046Y-96791340D01*
X115381173Y-96799012D01*
X115314714Y-96794106D01*
X115266889Y-96776895D01*
X115262918Y-96750808D01*
X115306261Y-96719519D01*
X115364520Y-96677291D01*
X115412405Y-96615019D01*
X115444559Y-96565249D01*
X115476136Y-96542057D01*
X115479763Y-96541372D01*
X115470140Y-96534095D01*
X115422951Y-96523007D01*
X115382955Y-96512671D01*
X115341023Y-96489255D01*
X115338341Y-96465635D01*
X115379500Y-96449574D01*
X115418847Y-96438616D01*
X115492567Y-96410873D01*
X115578481Y-96373687D01*
X115726662Y-96305423D01*
X115824814Y-96361912D01*
X115845934Y-96373050D01*
X115930912Y-96404349D01*
X116006833Y-96415480D01*
X116090700Y-96412559D01*
X116001435Y-96395051D01*
X115971335Y-96387977D01*
X115861520Y-96346257D01*
X115724673Y-96272506D01*
X115727686Y-96257725D01*
X115755138Y-96221126D01*
X115777778Y-96186516D01*
X115773310Y-96147258D01*
X115856005Y-96147258D01*
X115869117Y-96166614D01*
X115919965Y-96195091D01*
X115931187Y-96200347D01*
X116011387Y-96242401D01*
X116078000Y-96283693D01*
X116115773Y-96309754D01*
X116126626Y-96312301D01*
X116106895Y-96285059D01*
X116101535Y-96278761D01*
X116051826Y-96234195D01*
X115986503Y-96188195D01*
X115970774Y-96178969D01*
X115907642Y-96150669D01*
X115863073Y-96143438D01*
X115856005Y-96147258D01*
X115773310Y-96147258D01*
X115772304Y-96138420D01*
X115771817Y-96137645D01*
X115748730Y-96070057D01*
X115758823Y-96009440D01*
X115799171Y-95973719D01*
X115806053Y-95971660D01*
X115900403Y-95966950D01*
X115982627Y-96002248D01*
X116037425Y-96071290D01*
X116052318Y-96099553D01*
X116104608Y-96171698D01*
X116169680Y-96240600D01*
X116208018Y-96274165D01*
X116231724Y-96291060D01*
X116223509Y-96276700D01*
X116192671Y-96222440D01*
X116182485Y-96133242D01*
X116214190Y-96050606D01*
X116218160Y-96045318D01*
X116246754Y-96020212D01*
X116288198Y-96015813D01*
X116360240Y-96029563D01*
X116471700Y-96055824D01*
X116363750Y-96101265D01*
X116331520Y-96116401D01*
X116277251Y-96151496D01*
X116255800Y-96180953D01*
X116260372Y-96202119D01*
X116295636Y-96253833D01*
X116349385Y-96297728D01*
X116401850Y-96315580D01*
X116426301Y-96313193D01*
X116520685Y-96279017D01*
X116608448Y-96215190D01*
X116669355Y-96135345D01*
X116682535Y-96105640D01*
X116716028Y-96006808D01*
X116745325Y-95890730D01*
X116767185Y-95773673D01*
X116778369Y-95671900D01*
X116775639Y-95601678D01*
X116772546Y-95586274D01*
X116772807Y-95541732D01*
X116798989Y-95529400D01*
X116801032Y-95529430D01*
G37*
X116306600Y-94192408D02*
X116301640Y-94201855D01*
X116273236Y-94241858D01*
X116228032Y-94300358D01*
X116211832Y-94321074D01*
X116172461Y-94382264D01*
X116159253Y-94438868D01*
X116164891Y-94515868D01*
X116170390Y-94578571D01*
X116161594Y-94642649D01*
X116129160Y-94697674D01*
X116126804Y-94700688D01*
X116092256Y-94750111D01*
X116078000Y-94780571D01*
X116078071Y-94781444D01*
X116093224Y-94774801D01*
X116126827Y-94738464D01*
X116175654Y-94678500D01*
X116203702Y-94751779D01*
X116208271Y-94764288D01*
X116217781Y-94826643D01*
X116192980Y-94884228D01*
X116161757Y-94950976D01*
X116140373Y-95030466D01*
X116138255Y-95066589D01*
X116164039Y-95154436D01*
X116227532Y-95223705D01*
X116319300Y-95262178D01*
X116336258Y-95265184D01*
X116363476Y-95267328D01*
X116349368Y-95255912D01*
X116291275Y-95227657D01*
X116283483Y-95223960D01*
X116199983Y-95170250D01*
X116165651Y-95112381D01*
X116178986Y-95047949D01*
X116199134Y-95018529D01*
X116252146Y-94986452D01*
X116308904Y-95000284D01*
X116330042Y-95021091D01*
X116312950Y-95038151D01*
X116285927Y-95063498D01*
X116287971Y-95106657D01*
X116325650Y-95144855D01*
X116350979Y-95151816D01*
X116417920Y-95159019D01*
X116507680Y-95162914D01*
X116605555Y-95163491D01*
X116696845Y-95160738D01*
X116766849Y-95154645D01*
X116800866Y-95145202D01*
X116804605Y-95132612D01*
X116786782Y-95094213D01*
X116751100Y-95053353D01*
X116747427Y-95049147D01*
X116700133Y-95011661D01*
X116658495Y-94996000D01*
X116625476Y-94988143D01*
X116616681Y-94951550D01*
X116631185Y-94925498D01*
X116680780Y-94908982D01*
X116712523Y-94905480D01*
X116722939Y-94889932D01*
X116721030Y-94887178D01*
X116686131Y-94869000D01*
X116667677Y-94860478D01*
X116620470Y-94824593D01*
X116599402Y-94805500D01*
X116738400Y-94805500D01*
X116751100Y-94818200D01*
X116763800Y-94805500D01*
X116751100Y-94792800D01*
X116738400Y-94805500D01*
X116599402Y-94805500D01*
X116560450Y-94770199D01*
X116458642Y-94671398D01*
X116527676Y-94654071D01*
X116586448Y-94650141D01*
X116629455Y-94681527D01*
X116633123Y-94686480D01*
X116657328Y-94711798D01*
X116658585Y-94692444D01*
X116636940Y-94628068D01*
X116629343Y-94603797D01*
X116629216Y-94551500D01*
X117044099Y-94551500D01*
X117189700Y-94645531D01*
X117258735Y-94693798D01*
X117362116Y-94775959D01*
X117448539Y-94855081D01*
X117492197Y-94896558D01*
X117565316Y-94950910D01*
X117619989Y-94970600D01*
X117656618Y-94975687D01*
X117678200Y-94993283D01*
X117678178Y-94994448D01*
X117655753Y-95023829D01*
X117602844Y-95033684D01*
X117536626Y-95020688D01*
X117490187Y-95004029D01*
X117461743Y-94996000D01*
X117461575Y-94996023D01*
X117473293Y-95014091D01*
X117511502Y-95059372D01*
X117568205Y-95122376D01*
X117687123Y-95228902D01*
X117822061Y-95300176D01*
X117888367Y-95321436D01*
X117976352Y-95341359D01*
X118055783Y-95351750D01*
X118113264Y-95351012D01*
X118135400Y-95337549D01*
X118133869Y-95332326D01*
X118110610Y-95293175D01*
X118065005Y-95227266D01*
X118004363Y-95144300D01*
X117935990Y-95053979D01*
X117867195Y-94966005D01*
X117805285Y-94890080D01*
X117757566Y-94835906D01*
X117740399Y-94818394D01*
X117612603Y-94710256D01*
X117487700Y-94631869D01*
X117471122Y-94621466D01*
X117335300Y-94564461D01*
X117323620Y-94561264D01*
X117265785Y-94551500D01*
X117475000Y-94551500D01*
X117487700Y-94564200D01*
X117500400Y-94551500D01*
X117487700Y-94538800D01*
X117475000Y-94551500D01*
X117265785Y-94551500D01*
X117228533Y-94545211D01*
X117138900Y-94543140D01*
X117044099Y-94551500D01*
X116629216Y-94551500D01*
X116629197Y-94543542D01*
X116659241Y-94467665D01*
X116664890Y-94456183D01*
X116700572Y-94370209D01*
X116724619Y-94291150D01*
X116726170Y-94284358D01*
X116745753Y-94230633D01*
X116767530Y-94208600D01*
X116779439Y-94218686D01*
X116776853Y-94258290D01*
X116775693Y-94262371D01*
X116770795Y-94323814D01*
X116778207Y-94399265D01*
X116782130Y-94419944D01*
X116793747Y-94465638D01*
X116807973Y-94468855D01*
X116833887Y-94435505D01*
X116864712Y-94402403D01*
X116908214Y-94389805D01*
X116981595Y-94395422D01*
X116996312Y-94397224D01*
X117099465Y-94394101D01*
X117208785Y-94358169D01*
X117286430Y-94327575D01*
X117332382Y-94319907D01*
X117336167Y-94339510D01*
X117297353Y-94386248D01*
X117251274Y-94419616D01*
X117200761Y-94425122D01*
X117180337Y-94419489D01*
X117178555Y-94428622D01*
X117203549Y-94444057D01*
X117266841Y-94465735D01*
X117343387Y-94482378D01*
X117412850Y-94489894D01*
X117454890Y-94484194D01*
X117496483Y-94470072D01*
X117561978Y-94462989D01*
X117636256Y-94462600D01*
X117576600Y-94526100D01*
X117558013Y-94546792D01*
X117537865Y-94579859D01*
X117554948Y-94589600D01*
X117573857Y-94592356D01*
X117642129Y-94627667D01*
X117728669Y-94699577D01*
X117827761Y-94802913D01*
X117933691Y-94932500D01*
X117972508Y-94982934D01*
X118046294Y-95076346D01*
X118111001Y-95155334D01*
X118155977Y-95206753D01*
X118193085Y-95249386D01*
X118204959Y-95280151D01*
X118185754Y-95301614D01*
X118168465Y-95315091D01*
X118170502Y-95325812D01*
X118175457Y-95325143D01*
X118216911Y-95307956D01*
X118276206Y-95274717D01*
X118329913Y-95231109D01*
X118378439Y-95160583D01*
X118400208Y-95086071D01*
X118394475Y-95018866D01*
X118360494Y-94970262D01*
X118297521Y-94951550D01*
X118266994Y-94948649D01*
X118214884Y-94923874D01*
X118163683Y-94867071D01*
X118104832Y-94770182D01*
X118063966Y-94716098D01*
X118004502Y-94691200D01*
X117966904Y-94684859D01*
X117975091Y-94663550D01*
X117982689Y-94647651D01*
X117966259Y-94609072D01*
X117910321Y-94549937D01*
X117898676Y-94539025D01*
X117853594Y-94492621D01*
X117844009Y-94469715D01*
X117866360Y-94463288D01*
X117875787Y-94465086D01*
X117923388Y-94492616D01*
X117989939Y-94546569D01*
X118064255Y-94618189D01*
X118091977Y-94646621D01*
X118156619Y-94709250D01*
X118204227Y-94750093D01*
X118226056Y-94761412D01*
X118228994Y-94751727D01*
X118219036Y-94707268D01*
X118192149Y-94645609D01*
X118155410Y-94584469D01*
X118140782Y-94555255D01*
X118143233Y-94522501D01*
X118166565Y-94524771D01*
X118200925Y-94559383D01*
X118235285Y-94595958D01*
X118275100Y-94615000D01*
X118306542Y-94627557D01*
X118347639Y-94668281D01*
X118384958Y-94721561D01*
X118413473Y-94668281D01*
X118427299Y-94646490D01*
X118459471Y-94618473D01*
X118481442Y-94622575D01*
X118480026Y-94660364D01*
X118479587Y-94661871D01*
X118475932Y-94711054D01*
X118479196Y-94792642D01*
X118488740Y-94889787D01*
X118493465Y-94930853D01*
X118499067Y-95066261D01*
X118481314Y-95170715D01*
X118436516Y-95257176D01*
X118360983Y-95338605D01*
X118315893Y-95377855D01*
X118261611Y-95413120D01*
X118204753Y-95425650D01*
X118122276Y-95423656D01*
X118085638Y-95421591D01*
X118055783Y-95421599D01*
X118027047Y-95421606D01*
X118006950Y-95430661D01*
X118016840Y-95450957D01*
X118039870Y-95470238D01*
X118101123Y-95507196D01*
X118179850Y-95545887D01*
X118236539Y-95573540D01*
X118291821Y-95607694D01*
X118313200Y-95631574D01*
X118304389Y-95645216D01*
X118264070Y-95631894D01*
X118219251Y-95615645D01*
X118147776Y-95605600D01*
X118141088Y-95605343D01*
X118067329Y-95577461D01*
X117978042Y-95505057D01*
X117960173Y-95488438D01*
X117857401Y-95414010D01*
X117749625Y-95362714D01*
X117703204Y-95345192D01*
X117640512Y-95313166D01*
X117610172Y-95285458D01*
X117601428Y-95270235D01*
X117567533Y-95250954D01*
X117563306Y-95256897D01*
X117583347Y-95286887D01*
X117630542Y-95333504D01*
X117658480Y-95361272D01*
X117710947Y-95429964D01*
X117750834Y-95502559D01*
X117771159Y-95565035D01*
X117764938Y-95603369D01*
X117747846Y-95602745D01*
X117708043Y-95564484D01*
X117651597Y-95486338D01*
X117581079Y-95371966D01*
X117499057Y-95225022D01*
X117455002Y-95146099D01*
X117405680Y-95063025D01*
X117356674Y-94984516D01*
X117312362Y-94917027D01*
X117277117Y-94867013D01*
X117255316Y-94840930D01*
X117251333Y-94845234D01*
X117269544Y-94886381D01*
X117283034Y-94923009D01*
X117295351Y-94995191D01*
X117294853Y-95063618D01*
X117280429Y-95105906D01*
X117260351Y-95108300D01*
X117231709Y-95074415D01*
X117204224Y-95009507D01*
X117183505Y-94924096D01*
X117158931Y-94839901D01*
X117105473Y-94748079D01*
X117035127Y-94677088D01*
X116956906Y-94633483D01*
X116879824Y-94623818D01*
X116812895Y-94654644D01*
X116781264Y-94691787D01*
X116763800Y-94735051D01*
X116763949Y-94742254D01*
X116772255Y-94757216D01*
X116801454Y-94733376D01*
X116856242Y-94706432D01*
X116913003Y-94724309D01*
X116959422Y-94783848D01*
X116976066Y-94822855D01*
X116970199Y-94840196D01*
X116927664Y-94832860D01*
X116888153Y-94827006D01*
X116869221Y-94845428D01*
X116865400Y-94902045D01*
X116867657Y-94932145D01*
X116895325Y-95008483D01*
X116959823Y-95097168D01*
X117054246Y-95207480D01*
X116978873Y-95189869D01*
X116956740Y-95185032D01*
X116927237Y-95182977D01*
X116941600Y-95198040D01*
X116963913Y-95209990D01*
X117021195Y-95224212D01*
X117041798Y-95230175D01*
X117096150Y-95269412D01*
X117162736Y-95336860D01*
X117232252Y-95422597D01*
X117295398Y-95516700D01*
X117337856Y-95580825D01*
X117403934Y-95670319D01*
X117474421Y-95758000D01*
X117536318Y-95833129D01*
X117624699Y-95944839D01*
X117702631Y-96047702D01*
X117812642Y-96197704D01*
X117745421Y-96246671D01*
X117714073Y-96272262D01*
X117683077Y-96309195D01*
X117682691Y-96330177D01*
X117716300Y-96325986D01*
X117741199Y-96321108D01*
X117798850Y-96329327D01*
X117816877Y-96337363D01*
X117824116Y-96351209D01*
X117786150Y-96369326D01*
X117739310Y-96397347D01*
X117735336Y-96427553D01*
X117779800Y-96451160D01*
X117789213Y-96453767D01*
X117828760Y-96472455D01*
X117824178Y-96488660D01*
X117781288Y-96498640D01*
X117705913Y-96498654D01*
X117634072Y-96497002D01*
X117574087Y-96509634D01*
X117528097Y-96543104D01*
X117497427Y-96582084D01*
X117477371Y-96629324D01*
X117479660Y-96661977D01*
X117506750Y-96665904D01*
X117541136Y-96654071D01*
X117602000Y-96634931D01*
X117625010Y-96628483D01*
X117648666Y-96627611D01*
X117633717Y-96649259D01*
X117594811Y-96669650D01*
X117519771Y-96682101D01*
X117432825Y-96680641D01*
X117354350Y-96664184D01*
X117311098Y-96659348D01*
X117296479Y-96683820D01*
X117313649Y-96730370D01*
X117362082Y-96790391D01*
X117381090Y-96808237D01*
X117442330Y-96843100D01*
X117520832Y-96846321D01*
X117614700Y-96837369D01*
X117612931Y-96958584D01*
X117611702Y-96999204D01*
X117601498Y-97065429D01*
X117572813Y-97111390D01*
X117515696Y-97149056D01*
X117420198Y-97190394D01*
X117355412Y-97221198D01*
X117272366Y-97283639D01*
X117228850Y-97352766D01*
X117230287Y-97421965D01*
X117249774Y-97451695D01*
X117277713Y-97438648D01*
X117306496Y-97421171D01*
X117365780Y-97409000D01*
X117402617Y-97403677D01*
X117424200Y-97385374D01*
X117424194Y-97385021D01*
X117402004Y-97374396D01*
X117343333Y-97384939D01*
X117337537Y-97386560D01*
X117280306Y-97397829D01*
X117249784Y-97395450D01*
X117245935Y-97381646D01*
X117265828Y-97341933D01*
X117310405Y-97293424D01*
X117367901Y-97247970D01*
X117426549Y-97217421D01*
X117515551Y-97186608D01*
X117510826Y-97329554D01*
X117507580Y-97388070D01*
X117498816Y-97467579D01*
X117487713Y-97517262D01*
X117478291Y-97572081D01*
X117481319Y-97643735D01*
X117482520Y-97698343D01*
X117448199Y-97789473D01*
X117414315Y-97848086D01*
X117387567Y-97917000D01*
X117383083Y-97940755D01*
X117390886Y-97939115D01*
X117417200Y-97891600D01*
X117423755Y-97879482D01*
X117470547Y-97816400D01*
X117519709Y-97777528D01*
X117558104Y-97752441D01*
X117591252Y-97707651D01*
X117606401Y-97679477D01*
X117652205Y-97637919D01*
X117678221Y-97629064D01*
X117720184Y-97640251D01*
X117777725Y-97686461D01*
X117780419Y-97688984D01*
X117827982Y-97739672D01*
X117842407Y-97779511D01*
X117830841Y-97827469D01*
X117814489Y-97882331D01*
X117807153Y-97937704D01*
X117808404Y-97945164D01*
X117819884Y-97937649D01*
X117838903Y-97891600D01*
X117847658Y-97866834D01*
X117890025Y-97774372D01*
X117935198Y-97711560D01*
X117976410Y-97688400D01*
X117988703Y-97685896D01*
X118008400Y-97655969D01*
X118014813Y-97640969D01*
X118050257Y-97593548D01*
X118109765Y-97526079D01*
X118185394Y-97447901D01*
X118362387Y-97272264D01*
X118346689Y-97372382D01*
X118344287Y-97386192D01*
X118323268Y-97464452D01*
X118296696Y-97522602D01*
X118276277Y-97560584D01*
X118263417Y-97611502D01*
X118264170Y-97616960D01*
X118278458Y-97614135D01*
X118304869Y-97574100D01*
X118308379Y-97567504D01*
X118336870Y-97515436D01*
X118352448Y-97489521D01*
X118353391Y-97488950D01*
X118380705Y-97498424D01*
X118430425Y-97527552D01*
X118436878Y-97531777D01*
X118480473Y-97558514D01*
X118492553Y-97556685D01*
X118482852Y-97526003D01*
X118475565Y-97494599D01*
X118479565Y-97430418D01*
X118486688Y-97412753D01*
X118503815Y-97403308D01*
X118536946Y-97421229D01*
X118596695Y-97470113D01*
X118656384Y-97527450D01*
X118735470Y-97614925D01*
X118807818Y-97705467D01*
X118868241Y-97782744D01*
X118953822Y-97882520D01*
X119032058Y-97964672D01*
X119096226Y-98023958D01*
X119143741Y-98056006D01*
X119187826Y-98065173D01*
X119244545Y-98058555D01*
X119290964Y-98047136D01*
X119383926Y-98014909D01*
X119477500Y-97973842D01*
X119613099Y-97906418D01*
X119660517Y-97968859D01*
X119678983Y-97994561D01*
X119691572Y-98026229D01*
X119671577Y-98039396D01*
X119650646Y-98055430D01*
X119640959Y-98102896D01*
X119641920Y-98116255D01*
X119636231Y-98139626D01*
X119610846Y-98152976D01*
X119555397Y-98159764D01*
X119459518Y-98163450D01*
X119446674Y-98163831D01*
X119356388Y-98168214D01*
X119289586Y-98174341D01*
X119259922Y-98181012D01*
X119270569Y-98196877D01*
X119316242Y-98221684D01*
X119383445Y-98249407D01*
X119458323Y-98274350D01*
X119527020Y-98290816D01*
X119564999Y-98301721D01*
X119618423Y-98334228D01*
X119648152Y-98373864D01*
X119642171Y-98408363D01*
X119640571Y-98419442D01*
X119668465Y-98439820D01*
X119691399Y-98453110D01*
X119710668Y-98485756D01*
X119700135Y-98512504D01*
X119661538Y-98514579D01*
X119630782Y-98510526D01*
X119596539Y-98525567D01*
X119587898Y-98535399D01*
X119544648Y-98552001D01*
X119540469Y-98551521D01*
X119498640Y-98532693D01*
X119435479Y-98493340D01*
X119363889Y-98442915D01*
X119296777Y-98390872D01*
X119247045Y-98346663D01*
X119227600Y-98319744D01*
X119226888Y-98314637D01*
X119202200Y-98298000D01*
X119194884Y-98298798D01*
X119178068Y-98325872D01*
X119193300Y-98390390D01*
X119240300Y-98490940D01*
X119256807Y-98523321D01*
X119295640Y-98628275D01*
X119297726Y-98714084D01*
X119263979Y-98792362D01*
X119224158Y-98853137D01*
X119134889Y-98754326D01*
X119102312Y-98714952D01*
X119068295Y-98661228D01*
X119061878Y-98629208D01*
X119066388Y-98617818D01*
X119075174Y-98563864D01*
X119080218Y-98487817D01*
X119081122Y-98407830D01*
X119077486Y-98342055D01*
X119068914Y-98308647D01*
X119050323Y-98311670D01*
X119020051Y-98346327D01*
X118991629Y-98380129D01*
X118954791Y-98399601D01*
X118942879Y-98401437D01*
X118922800Y-98425000D01*
X118915614Y-98434138D01*
X118873260Y-98445699D01*
X118808444Y-98450196D01*
X118739205Y-98446874D01*
X118683578Y-98434983D01*
X118663765Y-98424055D01*
X118643401Y-98394165D01*
X118648813Y-98383233D01*
X118681501Y-98383386D01*
X118706216Y-98385082D01*
X118719601Y-98351113D01*
X118734861Y-98299354D01*
X118784240Y-98259537D01*
X118851493Y-98255840D01*
X118900702Y-98257152D01*
X118951897Y-98233884D01*
X118973600Y-98193290D01*
X118969788Y-98187398D01*
X118931598Y-98175346D01*
X118865650Y-98170155D01*
X118825186Y-98169648D01*
X118782820Y-98165641D01*
X118780381Y-98152706D01*
X118810729Y-98124971D01*
X118836222Y-98102267D01*
X118840542Y-98087340D01*
X118809161Y-98081648D01*
X118734529Y-98080816D01*
X118689716Y-98080409D01*
X118634570Y-98074793D01*
X118611236Y-98058237D01*
X118607221Y-98025292D01*
X118607322Y-98020425D01*
X118598966Y-97986832D01*
X118565032Y-97967384D01*
X118492921Y-97954251D01*
X118437729Y-97945112D01*
X118348101Y-97921107D01*
X118285770Y-97891984D01*
X118262400Y-97862392D01*
X118278372Y-97844743D01*
X118325901Y-97825831D01*
X118345984Y-97820278D01*
X118382942Y-97799854D01*
X118376738Y-97769242D01*
X118327498Y-97719938D01*
X118278560Y-97687116D01*
X118254430Y-97696308D01*
X118253775Y-97697885D01*
X118240345Y-97695613D01*
X118224085Y-97654284D01*
X118220280Y-97636947D01*
X118223754Y-97567046D01*
X118260678Y-97482834D01*
X118276990Y-97452784D01*
X118300476Y-97403189D01*
X118304197Y-97383601D01*
X118289852Y-97393588D01*
X118258956Y-97436131D01*
X118224959Y-97496159D01*
X118197496Y-97556129D01*
X118186200Y-97598492D01*
X118171370Y-97648197D01*
X118135400Y-97706870D01*
X118099114Y-97778738D01*
X118083033Y-97863276D01*
X118081466Y-97955100D01*
X118040744Y-97832917D01*
X118000021Y-97710734D01*
X117966111Y-97791384D01*
X117963041Y-97798759D01*
X117940070Y-97867389D01*
X117935636Y-97930022D01*
X117950884Y-98003925D01*
X117986956Y-98106365D01*
X118016596Y-98193175D01*
X118024864Y-98247970D01*
X118012356Y-98278805D01*
X117990635Y-98294006D01*
X117982567Y-98271331D01*
X117975820Y-98245070D01*
X117948654Y-98183573D01*
X117907849Y-98108301D01*
X117833563Y-97982101D01*
X117807672Y-98050200D01*
X117797219Y-98136313D01*
X117826404Y-98244843D01*
X117896907Y-98377760D01*
X117911763Y-98402632D01*
X117937955Y-98455534D01*
X117942747Y-98482187D01*
X117942251Y-98511514D01*
X117957927Y-98565558D01*
X117972474Y-98625034D01*
X117970245Y-98675605D01*
X117961534Y-98688665D01*
X117939116Y-98679232D01*
X117902457Y-98626774D01*
X117894100Y-98613376D01*
X117893727Y-98612779D01*
X117836664Y-98531228D01*
X117774728Y-98453792D01*
X117771334Y-98449769D01*
X117761495Y-98438109D01*
X117703747Y-98359189D01*
X117692875Y-98340630D01*
X117779800Y-98340630D01*
X117795752Y-98371900D01*
X117836950Y-98414714D01*
X117894100Y-98463100D01*
X117843571Y-98399600D01*
X117841889Y-98397486D01*
X117805316Y-98350835D01*
X117786421Y-98325517D01*
X117784517Y-98323563D01*
X117779800Y-98340630D01*
X117692875Y-98340630D01*
X117660054Y-98284606D01*
X117656968Y-98278108D01*
X117654825Y-98272600D01*
X117754400Y-98272600D01*
X117756234Y-98286047D01*
X117771334Y-98289534D01*
X117774374Y-98285811D01*
X117771334Y-98255667D01*
X117763694Y-98251693D01*
X117754400Y-98272600D01*
X117654825Y-98272600D01*
X117635049Y-98221781D01*
X117640091Y-98181699D01*
X117674576Y-98131739D01*
X117675848Y-98130103D01*
X117712525Y-98062314D01*
X117725995Y-97996125D01*
X117722990Y-97929700D01*
X117706945Y-97993200D01*
X117700349Y-98014992D01*
X117671726Y-98081761D01*
X117634387Y-98149023D01*
X117597722Y-98200972D01*
X117571124Y-98221800D01*
X117558410Y-98216344D01*
X117548774Y-98179136D01*
X117557238Y-98119735D01*
X117580719Y-98053584D01*
X117616139Y-97996123D01*
X117621275Y-97989782D01*
X117668641Y-97908825D01*
X117696618Y-97822724D01*
X117712157Y-97726500D01*
X117441179Y-97977283D01*
X117402055Y-98013941D01*
X117310699Y-98103377D01*
X117237124Y-98180884D01*
X117188052Y-98239181D01*
X117170200Y-98270981D01*
X117171856Y-98281455D01*
X117198193Y-98330967D01*
X117246425Y-98386924D01*
X117288191Y-98432439D01*
X117314551Y-98490198D01*
X117318466Y-98570547D01*
X117316636Y-98599865D01*
X117306915Y-98662979D01*
X117293042Y-98694271D01*
X117283072Y-98696184D01*
X117271800Y-98671322D01*
X117259681Y-98648380D01*
X117209471Y-98647160D01*
X117199188Y-98648916D01*
X117154707Y-98642937D01*
X117134260Y-98599188D01*
X117124976Y-98555873D01*
X117110636Y-98488500D01*
X117108581Y-98479846D01*
X117101231Y-98473091D01*
X117096947Y-98515396D01*
X117104827Y-98580969D01*
X117131293Y-98642396D01*
X117132342Y-98643794D01*
X117165162Y-98711427D01*
X117160540Y-98767089D01*
X117119400Y-98798641D01*
X117089855Y-98812455D01*
X117068601Y-98844345D01*
X117064228Y-98861058D01*
X117030501Y-98891386D01*
X117006777Y-98893580D01*
X116992401Y-98862113D01*
X116983924Y-98831604D01*
X116954300Y-98798511D01*
X116946006Y-98789246D01*
X116939529Y-98784865D01*
X116915470Y-98754559D01*
X116913071Y-98742500D01*
X116941600Y-98742500D01*
X116954300Y-98755200D01*
X116967000Y-98742500D01*
X116954300Y-98729800D01*
X116941600Y-98742500D01*
X116913071Y-98742500D01*
X116904896Y-98701410D01*
X116904607Y-98611686D01*
X116908183Y-98551494D01*
X116919900Y-98448799D01*
X116935627Y-98367850D01*
X116940732Y-98347711D01*
X116949294Y-98294105D01*
X116944080Y-98272600D01*
X116938880Y-98273764D01*
X116902194Y-98300420D01*
X116849384Y-98353071D01*
X116791357Y-98419422D01*
X116739019Y-98487177D01*
X116703280Y-98544040D01*
X116674812Y-98595850D01*
X116638367Y-98634815D01*
X116599848Y-98630045D01*
X116548656Y-98584300D01*
X116516496Y-98540604D01*
X116492010Y-98472156D01*
X116496911Y-98413361D01*
X116532386Y-98379214D01*
X116551976Y-98377453D01*
X116549696Y-98402655D01*
X116547632Y-98409535D01*
X116564297Y-98398635D01*
X116603311Y-98358407D01*
X116617299Y-98343677D01*
X116678520Y-98291429D01*
X116732050Y-98261445D01*
X116769321Y-98244873D01*
X116785052Y-98212941D01*
X116752082Y-98171704D01*
X116669990Y-98120200D01*
X116625416Y-98094199D01*
X116566899Y-98051502D01*
X116538933Y-98018600D01*
X116534649Y-98003194D01*
X116540343Y-97994083D01*
X116574528Y-98018600D01*
X116598171Y-98034936D01*
X116596297Y-98022511D01*
X116564229Y-97974151D01*
X116550214Y-97953373D01*
X116527201Y-97906033D01*
X116539821Y-97889886D01*
X116540943Y-97889825D01*
X116589703Y-97885296D01*
X116658308Y-97877131D01*
X116702313Y-97874661D01*
X116757220Y-97891557D01*
X116814663Y-97942467D01*
X116831305Y-97959108D01*
X116882850Y-97997850D01*
X116920155Y-98008144D01*
X116959867Y-97997328D01*
X117024135Y-97982142D01*
X117038227Y-97977099D01*
X117086410Y-97942953D01*
X117138403Y-97889776D01*
X117183697Y-97830691D01*
X117211786Y-97778823D01*
X117212162Y-97747295D01*
X117204608Y-97749119D01*
X117177283Y-97780798D01*
X117140478Y-97839267D01*
X117113752Y-97881159D01*
X117048177Y-97945185D01*
X116980630Y-97961290D01*
X116914483Y-97928147D01*
X116888791Y-97902422D01*
X116885974Y-97881870D01*
X116915918Y-97859647D01*
X116985357Y-97826054D01*
X117020425Y-97807952D01*
X117115345Y-97745874D01*
X117194233Y-97678218D01*
X117246772Y-97619658D01*
X117264915Y-97591521D01*
X117251424Y-97594123D01*
X117210114Y-97626678D01*
X117144801Y-97688400D01*
X117138132Y-97695045D01*
X117069618Y-97757244D01*
X117019091Y-97783238D01*
X116973441Y-97775928D01*
X116919559Y-97738212D01*
X116896525Y-97717647D01*
X116875619Y-97683311D01*
X116890920Y-97650157D01*
X116926626Y-97625840D01*
X116989161Y-97612070D01*
X116994617Y-97611770D01*
X117039700Y-97600253D01*
X117099301Y-97576599D01*
X117161110Y-97547077D01*
X117212819Y-97517955D01*
X117242118Y-97495504D01*
X117236699Y-97485993D01*
X117232849Y-97486355D01*
X117192581Y-97502267D01*
X117134349Y-97534611D01*
X117070806Y-97564502D01*
X117017787Y-97561392D01*
X117000346Y-97548342D01*
X116993136Y-97531032D01*
X116998683Y-97527821D01*
X117038565Y-97506637D01*
X117100350Y-97474851D01*
X117123267Y-97462414D01*
X117174964Y-97426830D01*
X117195600Y-97399921D01*
X117190981Y-97389232D01*
X117165120Y-97403920D01*
X117163359Y-97405558D01*
X117115955Y-97425983D01*
X117047710Y-97434400D01*
X116999315Y-97432530D01*
X116978241Y-97421811D01*
X116992400Y-97396301D01*
X117027995Y-97371204D01*
X117090761Y-97354741D01*
X117127381Y-97352451D01*
X117136635Y-97348371D01*
X117098302Y-97340006D01*
X117095159Y-97339483D01*
X117026071Y-97350822D01*
X116939092Y-97398039D01*
X116905222Y-97420542D01*
X116853817Y-97450077D01*
X116829318Y-97457224D01*
X116829704Y-97450350D01*
X116850925Y-97414034D01*
X116892754Y-97359787D01*
X116934329Y-97315296D01*
X116991158Y-97280685D01*
X117064711Y-97270887D01*
X117076672Y-97270528D01*
X117141675Y-97259150D01*
X117203878Y-97225682D01*
X117280567Y-97161350D01*
X117334601Y-97108799D01*
X117369652Y-97068730D01*
X117374332Y-97053400D01*
X117366059Y-97054809D01*
X117334230Y-97080532D01*
X117321664Y-97091681D01*
X117279625Y-97093144D01*
X117276415Y-97092156D01*
X117229024Y-97098825D01*
X117170324Y-97129513D01*
X117143232Y-97148341D01*
X117091218Y-97175112D01*
X117048025Y-97170718D01*
X116991702Y-97135950D01*
X116928900Y-97091500D01*
X117066017Y-97078800D01*
X117081664Y-97077212D01*
X117180301Y-97056794D01*
X117230219Y-97022869D01*
X117245761Y-96989072D01*
X117235393Y-96964060D01*
X117188033Y-96950338D01*
X117096828Y-96943846D01*
X117048903Y-96941516D01*
X116990202Y-96936460D01*
X116967199Y-96931081D01*
X116972429Y-96916249D01*
X116993294Y-96873931D01*
X116995023Y-96870824D01*
X117023480Y-96842364D01*
X117075568Y-96827246D01*
X117164744Y-96821341D01*
X117226402Y-96818401D01*
X117261173Y-96813100D01*
X117252750Y-96806875D01*
X117217354Y-96791148D01*
X117195138Y-96753184D01*
X117191005Y-96733322D01*
X117164931Y-96674595D01*
X117122902Y-96604630D01*
X117097677Y-96564970D01*
X117072154Y-96511254D01*
X117055348Y-96447668D01*
X117043997Y-96360574D01*
X117034842Y-96236330D01*
X117028637Y-96123161D01*
X117027314Y-96038470D01*
X117032787Y-95981741D01*
X117046271Y-95941202D01*
X117068978Y-95905079D01*
X117073043Y-95899494D01*
X117105916Y-95850977D01*
X117119401Y-95824776D01*
X117115175Y-95817542D01*
X117085389Y-95817506D01*
X117046877Y-95832682D01*
X117023411Y-95855470D01*
X117005100Y-95881606D01*
X117004584Y-95882342D01*
X116983498Y-95877357D01*
X116979233Y-95876349D01*
X116967000Y-95834473D01*
X116963581Y-95807026D01*
X116945736Y-95736995D01*
X116922750Y-95669100D01*
X116992400Y-95669100D01*
X117005100Y-95681800D01*
X117017800Y-95669100D01*
X117005100Y-95656400D01*
X116992400Y-95669100D01*
X116922750Y-95669100D01*
X116917741Y-95654306D01*
X116901071Y-95610435D01*
X116967000Y-95610435D01*
X116967065Y-95612318D01*
X116983498Y-95627133D01*
X117014118Y-95615408D01*
X117037385Y-95584946D01*
X117036999Y-95569512D01*
X117007223Y-95570201D01*
X116987352Y-95581085D01*
X116967000Y-95610435D01*
X116901071Y-95610435D01*
X116868482Y-95524667D01*
X116932570Y-95540752D01*
X116974586Y-95546124D01*
X116980330Y-95530419D01*
X116974834Y-95526043D01*
X116928633Y-95514628D01*
X116846733Y-95506865D01*
X116740446Y-95504000D01*
X116701173Y-95504131D01*
X116600037Y-95507240D01*
X116530160Y-95516733D01*
X116476607Y-95535577D01*
X116424445Y-95566735D01*
X116396741Y-95584500D01*
X116350338Y-95607958D01*
X116332000Y-95607025D01*
X116318297Y-95598863D01*
X116306946Y-95601041D01*
X116271110Y-95607913D01*
X116264066Y-95610470D01*
X116201706Y-95633104D01*
X116122074Y-95669392D01*
X116044203Y-95711733D01*
X115980084Y-95755083D01*
X115944732Y-95781236D01*
X115892976Y-95811696D01*
X115865654Y-95816587D01*
X115848802Y-95775541D01*
X115865541Y-95716131D01*
X115916326Y-95658244D01*
X115925470Y-95650825D01*
X115956775Y-95618660D01*
X115954426Y-95605600D01*
X115919337Y-95620714D01*
X115871764Y-95659437D01*
X115833758Y-95689884D01*
X115782822Y-95703376D01*
X115704501Y-95697726D01*
X115700569Y-95697166D01*
X115607955Y-95672896D01*
X115525235Y-95633004D01*
X115465789Y-95585620D01*
X115443000Y-95538872D01*
X115447430Y-95519872D01*
X115474638Y-95520555D01*
X115499427Y-95530684D01*
X115567837Y-95548201D01*
X115656770Y-95565101D01*
X115748001Y-95578076D01*
X115823303Y-95583820D01*
X115879257Y-95569032D01*
X115929453Y-95530504D01*
X116306600Y-95530504D01*
X116306946Y-95532544D01*
X116325988Y-95527421D01*
X116365194Y-95493898D01*
X116417308Y-95448732D01*
X116460444Y-95422330D01*
X116476402Y-95413712D01*
X116481240Y-95392134D01*
X116475237Y-95389961D01*
X116438784Y-95403954D01*
X116408200Y-95425829D01*
X116385990Y-95441714D01*
X116368758Y-95456739D01*
X116324385Y-95501710D01*
X116306600Y-95530504D01*
X115929453Y-95530504D01*
X115939511Y-95522784D01*
X115989600Y-95472368D01*
X116041808Y-95432321D01*
X116067003Y-95412917D01*
X116056441Y-95403173D01*
X116047029Y-95404941D01*
X116002742Y-95431543D01*
X115949608Y-95480092D01*
X115911736Y-95515595D01*
X115861581Y-95538294D01*
X115815344Y-95520745D01*
X115785900Y-95483367D01*
X115767470Y-95459971D01*
X115712408Y-95352997D01*
X115692578Y-95313500D01*
X115773200Y-95313500D01*
X115785900Y-95326200D01*
X115798600Y-95313500D01*
X115785900Y-95300800D01*
X115773200Y-95313500D01*
X115692578Y-95313500D01*
X115685711Y-95299822D01*
X115628054Y-95211565D01*
X115573682Y-95161530D01*
X115529801Y-95136420D01*
X115526948Y-95126266D01*
X115565320Y-95124017D01*
X115612074Y-95128251D01*
X115695122Y-95165266D01*
X115747623Y-95232611D01*
X115750657Y-95239985D01*
X115766026Y-95266350D01*
X115771590Y-95245494D01*
X115771608Y-95244833D01*
X115753505Y-95200060D01*
X115708849Y-95152269D01*
X115707528Y-95151224D01*
X115668897Y-95110305D01*
X115671862Y-95084739D01*
X115674846Y-95083073D01*
X115718462Y-95087755D01*
X115770127Y-95137253D01*
X115825494Y-95227528D01*
X115836922Y-95249108D01*
X115872350Y-95307197D01*
X115898386Y-95337779D01*
X115902744Y-95334205D01*
X115901226Y-95330018D01*
X116171112Y-95330018D01*
X116175768Y-95345807D01*
X116220188Y-95384536D01*
X116222590Y-95386317D01*
X116264066Y-95411072D01*
X116281200Y-95409696D01*
X116268737Y-95388788D01*
X116227927Y-95355950D01*
X116204803Y-95342411D01*
X116171112Y-95330018D01*
X115901226Y-95330018D01*
X115894257Y-95310789D01*
X116237346Y-95310789D01*
X116247008Y-95322642D01*
X116290042Y-95335752D01*
X116349614Y-95345649D01*
X116408200Y-95348471D01*
X116425267Y-95346059D01*
X116414173Y-95337226D01*
X116359003Y-95323932D01*
X116325619Y-95317855D01*
X116265308Y-95309854D01*
X116237346Y-95310789D01*
X115894257Y-95310789D01*
X115890045Y-95299167D01*
X115858771Y-95238427D01*
X115841755Y-95205569D01*
X115813203Y-95129008D01*
X115810010Y-95076265D01*
X115812643Y-95043261D01*
X115786517Y-94982886D01*
X115732561Y-94933680D01*
X115664405Y-94911105D01*
X115617373Y-94907220D01*
X115595418Y-94902828D01*
X115597505Y-94895224D01*
X115610818Y-94858378D01*
X115616042Y-94847928D01*
X115660199Y-94821473D01*
X115732118Y-94828999D01*
X115824000Y-94870078D01*
X115912900Y-94921766D01*
X115840025Y-94855900D01*
X115784849Y-94817575D01*
X115702888Y-94795641D01*
X115629769Y-94812990D01*
X115577903Y-94869000D01*
X115567465Y-94886397D01*
X115511733Y-94933204D01*
X115414714Y-94971041D01*
X115392200Y-94977980D01*
X115378076Y-94982333D01*
X115293611Y-95018837D01*
X115253222Y-95063756D01*
X115251919Y-95126517D01*
X115284712Y-95216542D01*
X115315245Y-95288005D01*
X115342469Y-95372034D01*
X115343481Y-95423166D01*
X115319175Y-95447390D01*
X115301232Y-95449298D01*
X115295982Y-95424625D01*
X115285955Y-95392405D01*
X115237552Y-95359973D01*
X115211685Y-95346571D01*
X115169401Y-95300619D01*
X115141831Y-95220273D01*
X115139797Y-95211546D01*
X115127395Y-95161277D01*
X115122212Y-95151878D01*
X115123489Y-95186578D01*
X115130466Y-95268608D01*
X115134367Y-95317383D01*
X115135567Y-95387505D01*
X115125891Y-95425277D01*
X115103477Y-95442719D01*
X115083489Y-95454435D01*
X115075261Y-95479507D01*
X115078042Y-95489359D01*
X115059575Y-95518200D01*
X115042801Y-95522444D01*
X115009701Y-95501575D01*
X115002547Y-95482704D01*
X115018891Y-95447910D01*
X115031950Y-95434625D01*
X115006350Y-95428189D01*
X114984018Y-95424956D01*
X114947880Y-95402691D01*
X114946838Y-95390223D01*
X114978131Y-95394747D01*
X114994085Y-95400401D01*
X115010239Y-95399510D01*
X114988839Y-95368813D01*
X114967681Y-95319728D01*
X114967784Y-95221282D01*
X114972774Y-95175048D01*
X114969962Y-95139913D01*
X114953316Y-95145325D01*
X114926590Y-95161904D01*
X114875222Y-95172776D01*
X114828435Y-95167854D01*
X114820700Y-95159922D01*
X114808000Y-95146901D01*
X114806006Y-95137714D01*
X114782600Y-95135700D01*
X114774255Y-95139521D01*
X114731386Y-95135444D01*
X114723378Y-95128432D01*
X114720441Y-95095431D01*
X114726130Y-95088773D01*
X114758956Y-95085985D01*
X114760381Y-95086725D01*
X114776121Y-95072194D01*
X114782600Y-95022900D01*
X114782707Y-95008647D01*
X114786703Y-94983300D01*
X114808000Y-94983300D01*
X114820700Y-94996000D01*
X114833400Y-94983300D01*
X114820700Y-94970600D01*
X114808000Y-94983300D01*
X114786703Y-94983300D01*
X114789483Y-94965670D01*
X114817490Y-94948386D01*
X114881483Y-94945200D01*
X114931530Y-94939807D01*
X114987638Y-94910159D01*
X115003581Y-94865333D01*
X114977443Y-94817636D01*
X114907307Y-94779372D01*
X114895964Y-94774945D01*
X114862924Y-94737443D01*
X114870077Y-94682369D01*
X114916803Y-94620165D01*
X114974805Y-94565675D01*
X115056503Y-94654693D01*
X115081951Y-94683648D01*
X115122291Y-94736411D01*
X115138200Y-94768255D01*
X115141421Y-94783287D01*
X115170777Y-94789336D01*
X115227637Y-94757449D01*
X115240151Y-94747863D01*
X115253975Y-94728035D01*
X115322183Y-94728035D01*
X115337264Y-94733101D01*
X115392200Y-94735082D01*
X115429475Y-94734342D01*
X115461387Y-94730356D01*
X115449350Y-94724075D01*
X115409066Y-94719873D01*
X115335050Y-94724075D01*
X115322183Y-94728035D01*
X115253975Y-94728035D01*
X115261436Y-94717333D01*
X115242082Y-94681249D01*
X115221322Y-94642175D01*
X115239800Y-94602300D01*
X115261470Y-94582120D01*
X115313504Y-94566678D01*
X115388061Y-94580841D01*
X115493925Y-94625407D01*
X115547532Y-94649410D01*
X115600360Y-94667734D01*
X115620800Y-94666894D01*
X115610321Y-94654716D01*
X115564204Y-94626983D01*
X115493800Y-94594395D01*
X115455683Y-94576985D01*
X115391459Y-94535641D01*
X115366004Y-94498930D01*
X115381654Y-94472649D01*
X115440743Y-94462600D01*
X115502466Y-94475934D01*
X115576091Y-94535578D01*
X115587628Y-94548844D01*
X115659690Y-94614979D01*
X115728236Y-94653375D01*
X115780959Y-94656753D01*
X115791764Y-94649206D01*
X115770276Y-94642406D01*
X115741429Y-94637117D01*
X115671716Y-94596872D01*
X115617333Y-94532157D01*
X115595400Y-94460757D01*
X115603437Y-94404900D01*
X115630441Y-94388773D01*
X115676136Y-94419842D01*
X115680987Y-94424608D01*
X115759818Y-94486712D01*
X115836806Y-94523256D01*
X115897160Y-94527066D01*
X115913566Y-94522930D01*
X115943440Y-94532544D01*
X115958098Y-94582109D01*
X115968789Y-94653100D01*
X115972595Y-94582453D01*
X115967446Y-94533762D01*
X115931950Y-94495406D01*
X115914195Y-94487925D01*
X115867304Y-94454072D01*
X115851420Y-94419761D01*
X115868152Y-94397148D01*
X115919108Y-94398389D01*
X115969453Y-94414253D01*
X116031617Y-94456070D01*
X116060621Y-94521609D01*
X116063718Y-94533751D01*
X116065885Y-94522221D01*
X116062806Y-94470350D01*
X116060377Y-94425559D01*
X116068142Y-94374325D01*
X116098108Y-94329868D01*
X116159450Y-94273500D01*
X116164934Y-94268825D01*
X116241593Y-94208926D01*
X116289838Y-94182890D01*
X116306600Y-94192408D01*
G36*
X116306600Y-94192408D02*
G01*
X116301640Y-94201855D01*
X116273236Y-94241858D01*
X116228032Y-94300358D01*
X116211832Y-94321074D01*
X116172461Y-94382264D01*
X116159253Y-94438868D01*
X116164891Y-94515868D01*
X116170390Y-94578571D01*
X116161594Y-94642649D01*
X116129160Y-94697674D01*
X116126804Y-94700688D01*
X116092256Y-94750111D01*
X116078000Y-94780571D01*
X116078071Y-94781444D01*
X116093224Y-94774801D01*
X116126827Y-94738464D01*
X116175654Y-94678500D01*
X116203702Y-94751779D01*
X116208271Y-94764288D01*
X116217781Y-94826643D01*
X116192980Y-94884228D01*
X116161757Y-94950976D01*
X116140373Y-95030466D01*
X116138255Y-95066589D01*
X116164039Y-95154436D01*
X116227532Y-95223705D01*
X116319300Y-95262178D01*
X116336258Y-95265184D01*
X116363476Y-95267328D01*
X116349368Y-95255912D01*
X116291275Y-95227657D01*
X116283483Y-95223960D01*
X116199983Y-95170250D01*
X116165651Y-95112381D01*
X116178986Y-95047949D01*
X116199134Y-95018529D01*
X116252146Y-94986452D01*
X116308904Y-95000284D01*
X116330042Y-95021091D01*
X116312950Y-95038151D01*
X116285927Y-95063498D01*
X116287971Y-95106657D01*
X116325650Y-95144855D01*
X116350979Y-95151816D01*
X116417920Y-95159019D01*
X116507680Y-95162914D01*
X116605555Y-95163491D01*
X116696845Y-95160738D01*
X116766849Y-95154645D01*
X116800866Y-95145202D01*
X116804605Y-95132612D01*
X116786782Y-95094213D01*
X116751100Y-95053353D01*
X116747427Y-95049147D01*
X116700133Y-95011661D01*
X116658495Y-94996000D01*
X116625476Y-94988143D01*
X116616681Y-94951550D01*
X116631185Y-94925498D01*
X116680780Y-94908982D01*
X116712523Y-94905480D01*
X116722939Y-94889932D01*
X116721030Y-94887178D01*
X116686131Y-94869000D01*
X116667677Y-94860478D01*
X116620470Y-94824593D01*
X116599402Y-94805500D01*
X116738400Y-94805500D01*
X116751100Y-94818200D01*
X116763800Y-94805500D01*
X116751100Y-94792800D01*
X116738400Y-94805500D01*
X116599402Y-94805500D01*
X116560450Y-94770199D01*
X116458642Y-94671398D01*
X116527676Y-94654071D01*
X116586448Y-94650141D01*
X116629455Y-94681527D01*
X116633123Y-94686480D01*
X116657328Y-94711798D01*
X116658585Y-94692444D01*
X116636940Y-94628068D01*
X116629343Y-94603797D01*
X116629216Y-94551500D01*
X117044099Y-94551500D01*
X117189700Y-94645531D01*
X117258735Y-94693798D01*
X117362116Y-94775959D01*
X117448539Y-94855081D01*
X117492197Y-94896558D01*
X117565316Y-94950910D01*
X117619989Y-94970600D01*
X117656618Y-94975687D01*
X117678200Y-94993283D01*
X117678178Y-94994448D01*
X117655753Y-95023829D01*
X117602844Y-95033684D01*
X117536626Y-95020688D01*
X117490187Y-95004029D01*
X117461743Y-94996000D01*
X117461575Y-94996023D01*
X117473293Y-95014091D01*
X117511502Y-95059372D01*
X117568205Y-95122376D01*
X117687123Y-95228902D01*
X117822061Y-95300176D01*
X117888367Y-95321436D01*
X117976352Y-95341359D01*
X118055783Y-95351750D01*
X118113264Y-95351012D01*
X118135400Y-95337549D01*
X118133869Y-95332326D01*
X118110610Y-95293175D01*
X118065005Y-95227266D01*
X118004363Y-95144300D01*
X117935990Y-95053979D01*
X117867195Y-94966005D01*
X117805285Y-94890080D01*
X117757566Y-94835906D01*
X117740399Y-94818394D01*
X117612603Y-94710256D01*
X117487700Y-94631869D01*
X117471122Y-94621466D01*
X117335300Y-94564461D01*
X117323620Y-94561264D01*
X117265785Y-94551500D01*
X117475000Y-94551500D01*
X117487700Y-94564200D01*
X117500400Y-94551500D01*
X117487700Y-94538800D01*
X117475000Y-94551500D01*
X117265785Y-94551500D01*
X117228533Y-94545211D01*
X117138900Y-94543140D01*
X117044099Y-94551500D01*
X116629216Y-94551500D01*
X116629197Y-94543542D01*
X116659241Y-94467665D01*
X116664890Y-94456183D01*
X116700572Y-94370209D01*
X116724619Y-94291150D01*
X116726170Y-94284358D01*
X116745753Y-94230633D01*
X116767530Y-94208600D01*
X116779439Y-94218686D01*
X116776853Y-94258290D01*
X116775693Y-94262371D01*
X116770795Y-94323814D01*
X116778207Y-94399265D01*
X116782130Y-94419944D01*
X116793747Y-94465638D01*
X116807973Y-94468855D01*
X116833887Y-94435505D01*
X116864712Y-94402403D01*
X116908214Y-94389805D01*
X116981595Y-94395422D01*
X116996312Y-94397224D01*
X117099465Y-94394101D01*
X117208785Y-94358169D01*
X117286430Y-94327575D01*
X117332382Y-94319907D01*
X117336167Y-94339510D01*
X117297353Y-94386248D01*
X117251274Y-94419616D01*
X117200761Y-94425122D01*
X117180337Y-94419489D01*
X117178555Y-94428622D01*
X117203549Y-94444057D01*
X117266841Y-94465735D01*
X117343387Y-94482378D01*
X117412850Y-94489894D01*
X117454890Y-94484194D01*
X117496483Y-94470072D01*
X117561978Y-94462989D01*
X117636256Y-94462600D01*
X117576600Y-94526100D01*
X117558013Y-94546792D01*
X117537865Y-94579859D01*
X117554948Y-94589600D01*
X117573857Y-94592356D01*
X117642129Y-94627667D01*
X117728669Y-94699577D01*
X117827761Y-94802913D01*
X117933691Y-94932500D01*
X117972508Y-94982934D01*
X118046294Y-95076346D01*
X118111001Y-95155334D01*
X118155977Y-95206753D01*
X118193085Y-95249386D01*
X118204959Y-95280151D01*
X118185754Y-95301614D01*
X118168465Y-95315091D01*
X118170502Y-95325812D01*
X118175457Y-95325143D01*
X118216911Y-95307956D01*
X118276206Y-95274717D01*
X118329913Y-95231109D01*
X118378439Y-95160583D01*
X118400208Y-95086071D01*
X118394475Y-95018866D01*
X118360494Y-94970262D01*
X118297521Y-94951550D01*
X118266994Y-94948649D01*
X118214884Y-94923874D01*
X118163683Y-94867071D01*
X118104832Y-94770182D01*
X118063966Y-94716098D01*
X118004502Y-94691200D01*
X117966904Y-94684859D01*
X117975091Y-94663550D01*
X117982689Y-94647651D01*
X117966259Y-94609072D01*
X117910321Y-94549937D01*
X117898676Y-94539025D01*
X117853594Y-94492621D01*
X117844009Y-94469715D01*
X117866360Y-94463288D01*
X117875787Y-94465086D01*
X117923388Y-94492616D01*
X117989939Y-94546569D01*
X118064255Y-94618189D01*
X118091977Y-94646621D01*
X118156619Y-94709250D01*
X118204227Y-94750093D01*
X118226056Y-94761412D01*
X118228994Y-94751727D01*
X118219036Y-94707268D01*
X118192149Y-94645609D01*
X118155410Y-94584469D01*
X118140782Y-94555255D01*
X118143233Y-94522501D01*
X118166565Y-94524771D01*
X118200925Y-94559383D01*
X118235285Y-94595958D01*
X118275100Y-94615000D01*
X118306542Y-94627557D01*
X118347639Y-94668281D01*
X118384958Y-94721561D01*
X118413473Y-94668281D01*
X118427299Y-94646490D01*
X118459471Y-94618473D01*
X118481442Y-94622575D01*
X118480026Y-94660364D01*
X118479587Y-94661871D01*
X118475932Y-94711054D01*
X118479196Y-94792642D01*
X118488740Y-94889787D01*
X118493465Y-94930853D01*
X118499067Y-95066261D01*
X118481314Y-95170715D01*
X118436516Y-95257176D01*
X118360983Y-95338605D01*
X118315893Y-95377855D01*
X118261611Y-95413120D01*
X118204753Y-95425650D01*
X118122276Y-95423656D01*
X118085638Y-95421591D01*
X118055783Y-95421599D01*
X118027047Y-95421606D01*
X118006950Y-95430661D01*
X118016840Y-95450957D01*
X118039870Y-95470238D01*
X118101123Y-95507196D01*
X118179850Y-95545887D01*
X118236539Y-95573540D01*
X118291821Y-95607694D01*
X118313200Y-95631574D01*
X118304389Y-95645216D01*
X118264070Y-95631894D01*
X118219251Y-95615645D01*
X118147776Y-95605600D01*
X118141088Y-95605343D01*
X118067329Y-95577461D01*
X117978042Y-95505057D01*
X117960173Y-95488438D01*
X117857401Y-95414010D01*
X117749625Y-95362714D01*
X117703204Y-95345192D01*
X117640512Y-95313166D01*
X117610172Y-95285458D01*
X117601428Y-95270235D01*
X117567533Y-95250954D01*
X117563306Y-95256897D01*
X117583347Y-95286887D01*
X117630542Y-95333504D01*
X117658480Y-95361272D01*
X117710947Y-95429964D01*
X117750834Y-95502559D01*
X117771159Y-95565035D01*
X117764938Y-95603369D01*
X117747846Y-95602745D01*
X117708043Y-95564484D01*
X117651597Y-95486338D01*
X117581079Y-95371966D01*
X117499057Y-95225022D01*
X117455002Y-95146099D01*
X117405680Y-95063025D01*
X117356674Y-94984516D01*
X117312362Y-94917027D01*
X117277117Y-94867013D01*
X117255316Y-94840930D01*
X117251333Y-94845234D01*
X117269544Y-94886381D01*
X117283034Y-94923009D01*
X117295351Y-94995191D01*
X117294853Y-95063618D01*
X117280429Y-95105906D01*
X117260351Y-95108300D01*
X117231709Y-95074415D01*
X117204224Y-95009507D01*
X117183505Y-94924096D01*
X117158931Y-94839901D01*
X117105473Y-94748079D01*
X117035127Y-94677088D01*
X116956906Y-94633483D01*
X116879824Y-94623818D01*
X116812895Y-94654644D01*
X116781264Y-94691787D01*
X116763800Y-94735051D01*
X116763949Y-94742254D01*
X116772255Y-94757216D01*
X116801454Y-94733376D01*
X116856242Y-94706432D01*
X116913003Y-94724309D01*
X116959422Y-94783848D01*
X116976066Y-94822855D01*
X116970199Y-94840196D01*
X116927664Y-94832860D01*
X116888153Y-94827006D01*
X116869221Y-94845428D01*
X116865400Y-94902045D01*
X116867657Y-94932145D01*
X116895325Y-95008483D01*
X116959823Y-95097168D01*
X117054246Y-95207480D01*
X116978873Y-95189869D01*
X116956740Y-95185032D01*
X116927237Y-95182977D01*
X116941600Y-95198040D01*
X116963913Y-95209990D01*
X117021195Y-95224212D01*
X117041798Y-95230175D01*
X117096150Y-95269412D01*
X117162736Y-95336860D01*
X117232252Y-95422597D01*
X117295398Y-95516700D01*
X117337856Y-95580825D01*
X117403934Y-95670319D01*
X117474421Y-95758000D01*
X117536318Y-95833129D01*
X117624699Y-95944839D01*
X117702631Y-96047702D01*
X117812642Y-96197704D01*
X117745421Y-96246671D01*
X117714073Y-96272262D01*
X117683077Y-96309195D01*
X117682691Y-96330177D01*
X117716300Y-96325986D01*
X117741199Y-96321108D01*
X117798850Y-96329327D01*
X117816877Y-96337363D01*
X117824116Y-96351209D01*
X117786150Y-96369326D01*
X117739310Y-96397347D01*
X117735336Y-96427553D01*
X117779800Y-96451160D01*
X117789213Y-96453767D01*
X117828760Y-96472455D01*
X117824178Y-96488660D01*
X117781288Y-96498640D01*
X117705913Y-96498654D01*
X117634072Y-96497002D01*
X117574087Y-96509634D01*
X117528097Y-96543104D01*
X117497427Y-96582084D01*
X117477371Y-96629324D01*
X117479660Y-96661977D01*
X117506750Y-96665904D01*
X117541136Y-96654071D01*
X117602000Y-96634931D01*
X117625010Y-96628483D01*
X117648666Y-96627611D01*
X117633717Y-96649259D01*
X117594811Y-96669650D01*
X117519771Y-96682101D01*
X117432825Y-96680641D01*
X117354350Y-96664184D01*
X117311098Y-96659348D01*
X117296479Y-96683820D01*
X117313649Y-96730370D01*
X117362082Y-96790391D01*
X117381090Y-96808237D01*
X117442330Y-96843100D01*
X117520832Y-96846321D01*
X117614700Y-96837369D01*
X117612931Y-96958584D01*
X117611702Y-96999204D01*
X117601498Y-97065429D01*
X117572813Y-97111390D01*
X117515696Y-97149056D01*
X117420198Y-97190394D01*
X117355412Y-97221198D01*
X117272366Y-97283639D01*
X117228850Y-97352766D01*
X117230287Y-97421965D01*
X117249774Y-97451695D01*
X117277713Y-97438648D01*
X117306496Y-97421171D01*
X117365780Y-97409000D01*
X117402617Y-97403677D01*
X117424200Y-97385374D01*
X117424194Y-97385021D01*
X117402004Y-97374396D01*
X117343333Y-97384939D01*
X117337537Y-97386560D01*
X117280306Y-97397829D01*
X117249784Y-97395450D01*
X117245935Y-97381646D01*
X117265828Y-97341933D01*
X117310405Y-97293424D01*
X117367901Y-97247970D01*
X117426549Y-97217421D01*
X117515551Y-97186608D01*
X117510826Y-97329554D01*
X117507580Y-97388070D01*
X117498816Y-97467579D01*
X117487713Y-97517262D01*
X117478291Y-97572081D01*
X117481319Y-97643735D01*
X117482520Y-97698343D01*
X117448199Y-97789473D01*
X117414315Y-97848086D01*
X117387567Y-97917000D01*
X117383083Y-97940755D01*
X117390886Y-97939115D01*
X117417200Y-97891600D01*
X117423755Y-97879482D01*
X117470547Y-97816400D01*
X117519709Y-97777528D01*
X117558104Y-97752441D01*
X117591252Y-97707651D01*
X117606401Y-97679477D01*
X117652205Y-97637919D01*
X117678221Y-97629064D01*
X117720184Y-97640251D01*
X117777725Y-97686461D01*
X117780419Y-97688984D01*
X117827982Y-97739672D01*
X117842407Y-97779511D01*
X117830841Y-97827469D01*
X117814489Y-97882331D01*
X117807153Y-97937704D01*
X117808404Y-97945164D01*
X117819884Y-97937649D01*
X117838903Y-97891600D01*
X117847658Y-97866834D01*
X117890025Y-97774372D01*
X117935198Y-97711560D01*
X117976410Y-97688400D01*
X117988703Y-97685896D01*
X118008400Y-97655969D01*
X118014813Y-97640969D01*
X118050257Y-97593548D01*
X118109765Y-97526079D01*
X118185394Y-97447901D01*
X118362387Y-97272264D01*
X118346689Y-97372382D01*
X118344287Y-97386192D01*
X118323268Y-97464452D01*
X118296696Y-97522602D01*
X118276277Y-97560584D01*
X118263417Y-97611502D01*
X118264170Y-97616960D01*
X118278458Y-97614135D01*
X118304869Y-97574100D01*
X118308379Y-97567504D01*
X118336870Y-97515436D01*
X118352448Y-97489521D01*
X118353391Y-97488950D01*
X118380705Y-97498424D01*
X118430425Y-97527552D01*
X118436878Y-97531777D01*
X118480473Y-97558514D01*
X118492553Y-97556685D01*
X118482852Y-97526003D01*
X118475565Y-97494599D01*
X118479565Y-97430418D01*
X118486688Y-97412753D01*
X118503815Y-97403308D01*
X118536946Y-97421229D01*
X118596695Y-97470113D01*
X118656384Y-97527450D01*
X118735470Y-97614925D01*
X118807818Y-97705467D01*
X118868241Y-97782744D01*
X118953822Y-97882520D01*
X119032058Y-97964672D01*
X119096226Y-98023958D01*
X119143741Y-98056006D01*
X119187826Y-98065173D01*
X119244545Y-98058555D01*
X119290964Y-98047136D01*
X119383926Y-98014909D01*
X119477500Y-97973842D01*
X119613099Y-97906418D01*
X119660517Y-97968859D01*
X119678983Y-97994561D01*
X119691572Y-98026229D01*
X119671577Y-98039396D01*
X119650646Y-98055430D01*
X119640959Y-98102896D01*
X119641920Y-98116255D01*
X119636231Y-98139626D01*
X119610846Y-98152976D01*
X119555397Y-98159764D01*
X119459518Y-98163450D01*
X119446674Y-98163831D01*
X119356388Y-98168214D01*
X119289586Y-98174341D01*
X119259922Y-98181012D01*
X119270569Y-98196877D01*
X119316242Y-98221684D01*
X119383445Y-98249407D01*
X119458323Y-98274350D01*
X119527020Y-98290816D01*
X119564999Y-98301721D01*
X119618423Y-98334228D01*
X119648152Y-98373864D01*
X119642171Y-98408363D01*
X119640571Y-98419442D01*
X119668465Y-98439820D01*
X119691399Y-98453110D01*
X119710668Y-98485756D01*
X119700135Y-98512504D01*
X119661538Y-98514579D01*
X119630782Y-98510526D01*
X119596539Y-98525567D01*
X119587898Y-98535399D01*
X119544648Y-98552001D01*
X119540469Y-98551521D01*
X119498640Y-98532693D01*
X119435479Y-98493340D01*
X119363889Y-98442915D01*
X119296777Y-98390872D01*
X119247045Y-98346663D01*
X119227600Y-98319744D01*
X119226888Y-98314637D01*
X119202200Y-98298000D01*
X119194884Y-98298798D01*
X119178068Y-98325872D01*
X119193300Y-98390390D01*
X119240300Y-98490940D01*
X119256807Y-98523321D01*
X119295640Y-98628275D01*
X119297726Y-98714084D01*
X119263979Y-98792362D01*
X119224158Y-98853137D01*
X119134889Y-98754326D01*
X119102312Y-98714952D01*
X119068295Y-98661228D01*
X119061878Y-98629208D01*
X119066388Y-98617818D01*
X119075174Y-98563864D01*
X119080218Y-98487817D01*
X119081122Y-98407830D01*
X119077486Y-98342055D01*
X119068914Y-98308647D01*
X119050323Y-98311670D01*
X119020051Y-98346327D01*
X118991629Y-98380129D01*
X118954791Y-98399601D01*
X118942879Y-98401437D01*
X118922800Y-98425000D01*
X118915614Y-98434138D01*
X118873260Y-98445699D01*
X118808444Y-98450196D01*
X118739205Y-98446874D01*
X118683578Y-98434983D01*
X118663765Y-98424055D01*
X118643401Y-98394165D01*
X118648813Y-98383233D01*
X118681501Y-98383386D01*
X118706216Y-98385082D01*
X118719601Y-98351113D01*
X118734861Y-98299354D01*
X118784240Y-98259537D01*
X118851493Y-98255840D01*
X118900702Y-98257152D01*
X118951897Y-98233884D01*
X118973600Y-98193290D01*
X118969788Y-98187398D01*
X118931598Y-98175346D01*
X118865650Y-98170155D01*
X118825186Y-98169648D01*
X118782820Y-98165641D01*
X118780381Y-98152706D01*
X118810729Y-98124971D01*
X118836222Y-98102267D01*
X118840542Y-98087340D01*
X118809161Y-98081648D01*
X118734529Y-98080816D01*
X118689716Y-98080409D01*
X118634570Y-98074793D01*
X118611236Y-98058237D01*
X118607221Y-98025292D01*
X118607322Y-98020425D01*
X118598966Y-97986832D01*
X118565032Y-97967384D01*
X118492921Y-97954251D01*
X118437729Y-97945112D01*
X118348101Y-97921107D01*
X118285770Y-97891984D01*
X118262400Y-97862392D01*
X118278372Y-97844743D01*
X118325901Y-97825831D01*
X118345984Y-97820278D01*
X118382942Y-97799854D01*
X118376738Y-97769242D01*
X118327498Y-97719938D01*
X118278560Y-97687116D01*
X118254430Y-97696308D01*
X118253775Y-97697885D01*
X118240345Y-97695613D01*
X118224085Y-97654284D01*
X118220280Y-97636947D01*
X118223754Y-97567046D01*
X118260678Y-97482834D01*
X118276990Y-97452784D01*
X118300476Y-97403189D01*
X118304197Y-97383601D01*
X118289852Y-97393588D01*
X118258956Y-97436131D01*
X118224959Y-97496159D01*
X118197496Y-97556129D01*
X118186200Y-97598492D01*
X118171370Y-97648197D01*
X118135400Y-97706870D01*
X118099114Y-97778738D01*
X118083033Y-97863276D01*
X118081466Y-97955100D01*
X118040744Y-97832917D01*
X118000021Y-97710734D01*
X117966111Y-97791384D01*
X117963041Y-97798759D01*
X117940070Y-97867389D01*
X117935636Y-97930022D01*
X117950884Y-98003925D01*
X117986956Y-98106365D01*
X118016596Y-98193175D01*
X118024864Y-98247970D01*
X118012356Y-98278805D01*
X117990635Y-98294006D01*
X117982567Y-98271331D01*
X117975820Y-98245070D01*
X117948654Y-98183573D01*
X117907849Y-98108301D01*
X117833563Y-97982101D01*
X117807672Y-98050200D01*
X117797219Y-98136313D01*
X117826404Y-98244843D01*
X117896907Y-98377760D01*
X117911763Y-98402632D01*
X117937955Y-98455534D01*
X117942747Y-98482187D01*
X117942251Y-98511514D01*
X117957927Y-98565558D01*
X117972474Y-98625034D01*
X117970245Y-98675605D01*
X117961534Y-98688665D01*
X117939116Y-98679232D01*
X117902457Y-98626774D01*
X117894100Y-98613376D01*
X117893727Y-98612779D01*
X117836664Y-98531228D01*
X117774728Y-98453792D01*
X117771334Y-98449769D01*
X117761495Y-98438109D01*
X117703747Y-98359189D01*
X117692875Y-98340630D01*
X117779800Y-98340630D01*
X117795752Y-98371900D01*
X117836950Y-98414714D01*
X117894100Y-98463100D01*
X117843571Y-98399600D01*
X117841889Y-98397486D01*
X117805316Y-98350835D01*
X117786421Y-98325517D01*
X117784517Y-98323563D01*
X117779800Y-98340630D01*
X117692875Y-98340630D01*
X117660054Y-98284606D01*
X117656968Y-98278108D01*
X117654825Y-98272600D01*
X117754400Y-98272600D01*
X117756234Y-98286047D01*
X117771334Y-98289534D01*
X117774374Y-98285811D01*
X117771334Y-98255667D01*
X117763694Y-98251693D01*
X117754400Y-98272600D01*
X117654825Y-98272600D01*
X117635049Y-98221781D01*
X117640091Y-98181699D01*
X117674576Y-98131739D01*
X117675848Y-98130103D01*
X117712525Y-98062314D01*
X117725995Y-97996125D01*
X117722990Y-97929700D01*
X117706945Y-97993200D01*
X117700349Y-98014992D01*
X117671726Y-98081761D01*
X117634387Y-98149023D01*
X117597722Y-98200972D01*
X117571124Y-98221800D01*
X117558410Y-98216344D01*
X117548774Y-98179136D01*
X117557238Y-98119735D01*
X117580719Y-98053584D01*
X117616139Y-97996123D01*
X117621275Y-97989782D01*
X117668641Y-97908825D01*
X117696618Y-97822724D01*
X117712157Y-97726500D01*
X117441179Y-97977283D01*
X117402055Y-98013941D01*
X117310699Y-98103377D01*
X117237124Y-98180884D01*
X117188052Y-98239181D01*
X117170200Y-98270981D01*
X117171856Y-98281455D01*
X117198193Y-98330967D01*
X117246425Y-98386924D01*
X117288191Y-98432439D01*
X117314551Y-98490198D01*
X117318466Y-98570547D01*
X117316636Y-98599865D01*
X117306915Y-98662979D01*
X117293042Y-98694271D01*
X117283072Y-98696184D01*
X117271800Y-98671322D01*
X117259681Y-98648380D01*
X117209471Y-98647160D01*
X117199188Y-98648916D01*
X117154707Y-98642937D01*
X117134260Y-98599188D01*
X117124976Y-98555873D01*
X117110636Y-98488500D01*
X117108581Y-98479846D01*
X117101231Y-98473091D01*
X117096947Y-98515396D01*
X117104827Y-98580969D01*
X117131293Y-98642396D01*
X117132342Y-98643794D01*
X117165162Y-98711427D01*
X117160540Y-98767089D01*
X117119400Y-98798641D01*
X117089855Y-98812455D01*
X117068601Y-98844345D01*
X117064228Y-98861058D01*
X117030501Y-98891386D01*
X117006777Y-98893580D01*
X116992401Y-98862113D01*
X116983924Y-98831604D01*
X116954300Y-98798511D01*
X116946006Y-98789246D01*
X116939529Y-98784865D01*
X116915470Y-98754559D01*
X116913071Y-98742500D01*
X116941600Y-98742500D01*
X116954300Y-98755200D01*
X116967000Y-98742500D01*
X116954300Y-98729800D01*
X116941600Y-98742500D01*
X116913071Y-98742500D01*
X116904896Y-98701410D01*
X116904607Y-98611686D01*
X116908183Y-98551494D01*
X116919900Y-98448799D01*
X116935627Y-98367850D01*
X116940732Y-98347711D01*
X116949294Y-98294105D01*
X116944080Y-98272600D01*
X116938880Y-98273764D01*
X116902194Y-98300420D01*
X116849384Y-98353071D01*
X116791357Y-98419422D01*
X116739019Y-98487177D01*
X116703280Y-98544040D01*
X116674812Y-98595850D01*
X116638367Y-98634815D01*
X116599848Y-98630045D01*
X116548656Y-98584300D01*
X116516496Y-98540604D01*
X116492010Y-98472156D01*
X116496911Y-98413361D01*
X116532386Y-98379214D01*
X116551976Y-98377453D01*
X116549696Y-98402655D01*
X116547632Y-98409535D01*
X116564297Y-98398635D01*
X116603311Y-98358407D01*
X116617299Y-98343677D01*
X116678520Y-98291429D01*
X116732050Y-98261445D01*
X116769321Y-98244873D01*
X116785052Y-98212941D01*
X116752082Y-98171704D01*
X116669990Y-98120200D01*
X116625416Y-98094199D01*
X116566899Y-98051502D01*
X116538933Y-98018600D01*
X116534649Y-98003194D01*
X116540343Y-97994083D01*
X116574528Y-98018600D01*
X116598171Y-98034936D01*
X116596297Y-98022511D01*
X116564229Y-97974151D01*
X116550214Y-97953373D01*
X116527201Y-97906033D01*
X116539821Y-97889886D01*
X116540943Y-97889825D01*
X116589703Y-97885296D01*
X116658308Y-97877131D01*
X116702313Y-97874661D01*
X116757220Y-97891557D01*
X116814663Y-97942467D01*
X116831305Y-97959108D01*
X116882850Y-97997850D01*
X116920155Y-98008144D01*
X116959867Y-97997328D01*
X117024135Y-97982142D01*
X117038227Y-97977099D01*
X117086410Y-97942953D01*
X117138403Y-97889776D01*
X117183697Y-97830691D01*
X117211786Y-97778823D01*
X117212162Y-97747295D01*
X117204608Y-97749119D01*
X117177283Y-97780798D01*
X117140478Y-97839267D01*
X117113752Y-97881159D01*
X117048177Y-97945185D01*
X116980630Y-97961290D01*
X116914483Y-97928147D01*
X116888791Y-97902422D01*
X116885974Y-97881870D01*
X116915918Y-97859647D01*
X116985357Y-97826054D01*
X117020425Y-97807952D01*
X117115345Y-97745874D01*
X117194233Y-97678218D01*
X117246772Y-97619658D01*
X117264915Y-97591521D01*
X117251424Y-97594123D01*
X117210114Y-97626678D01*
X117144801Y-97688400D01*
X117138132Y-97695045D01*
X117069618Y-97757244D01*
X117019091Y-97783238D01*
X116973441Y-97775928D01*
X116919559Y-97738212D01*
X116896525Y-97717647D01*
X116875619Y-97683311D01*
X116890920Y-97650157D01*
X116926626Y-97625840D01*
X116989161Y-97612070D01*
X116994617Y-97611770D01*
X117039700Y-97600253D01*
X117099301Y-97576599D01*
X117161110Y-97547077D01*
X117212819Y-97517955D01*
X117242118Y-97495504D01*
X117236699Y-97485993D01*
X117232849Y-97486355D01*
X117192581Y-97502267D01*
X117134349Y-97534611D01*
X117070806Y-97564502D01*
X117017787Y-97561392D01*
X117000346Y-97548342D01*
X116993136Y-97531032D01*
X116998683Y-97527821D01*
X117038565Y-97506637D01*
X117100350Y-97474851D01*
X117123267Y-97462414D01*
X117174964Y-97426830D01*
X117195600Y-97399921D01*
X117190981Y-97389232D01*
X117165120Y-97403920D01*
X117163359Y-97405558D01*
X117115955Y-97425983D01*
X117047710Y-97434400D01*
X116999315Y-97432530D01*
X116978241Y-97421811D01*
X116992400Y-97396301D01*
X117027995Y-97371204D01*
X117090761Y-97354741D01*
X117127381Y-97352451D01*
X117136635Y-97348371D01*
X117098302Y-97340006D01*
X117095159Y-97339483D01*
X117026071Y-97350822D01*
X116939092Y-97398039D01*
X116905222Y-97420542D01*
X116853817Y-97450077D01*
X116829318Y-97457224D01*
X116829704Y-97450350D01*
X116850925Y-97414034D01*
X116892754Y-97359787D01*
X116934329Y-97315296D01*
X116991158Y-97280685D01*
X117064711Y-97270887D01*
X117076672Y-97270528D01*
X117141675Y-97259150D01*
X117203878Y-97225682D01*
X117280567Y-97161350D01*
X117334601Y-97108799D01*
X117369652Y-97068730D01*
X117374332Y-97053400D01*
X117366059Y-97054809D01*
X117334230Y-97080532D01*
X117321664Y-97091681D01*
X117279625Y-97093144D01*
X117276415Y-97092156D01*
X117229024Y-97098825D01*
X117170324Y-97129513D01*
X117143232Y-97148341D01*
X117091218Y-97175112D01*
X117048025Y-97170718D01*
X116991702Y-97135950D01*
X116928900Y-97091500D01*
X117066017Y-97078800D01*
X117081664Y-97077212D01*
X117180301Y-97056794D01*
X117230219Y-97022869D01*
X117245761Y-96989072D01*
X117235393Y-96964060D01*
X117188033Y-96950338D01*
X117096828Y-96943846D01*
X117048903Y-96941516D01*
X116990202Y-96936460D01*
X116967199Y-96931081D01*
X116972429Y-96916249D01*
X116993294Y-96873931D01*
X116995023Y-96870824D01*
X117023480Y-96842364D01*
X117075568Y-96827246D01*
X117164744Y-96821341D01*
X117226402Y-96818401D01*
X117261173Y-96813100D01*
X117252750Y-96806875D01*
X117217354Y-96791148D01*
X117195138Y-96753184D01*
X117191005Y-96733322D01*
X117164931Y-96674595D01*
X117122902Y-96604630D01*
X117097677Y-96564970D01*
X117072154Y-96511254D01*
X117055348Y-96447668D01*
X117043997Y-96360574D01*
X117034842Y-96236330D01*
X117028637Y-96123161D01*
X117027314Y-96038470D01*
X117032787Y-95981741D01*
X117046271Y-95941202D01*
X117068978Y-95905079D01*
X117073043Y-95899494D01*
X117105916Y-95850977D01*
X117119401Y-95824776D01*
X117115175Y-95817542D01*
X117085389Y-95817506D01*
X117046877Y-95832682D01*
X117023411Y-95855470D01*
X117005100Y-95881606D01*
X117004584Y-95882342D01*
X116983498Y-95877357D01*
X116979233Y-95876349D01*
X116967000Y-95834473D01*
X116963581Y-95807026D01*
X116945736Y-95736995D01*
X116922750Y-95669100D01*
X116992400Y-95669100D01*
X117005100Y-95681800D01*
X117017800Y-95669100D01*
X117005100Y-95656400D01*
X116992400Y-95669100D01*
X116922750Y-95669100D01*
X116917741Y-95654306D01*
X116901071Y-95610435D01*
X116967000Y-95610435D01*
X116967065Y-95612318D01*
X116983498Y-95627133D01*
X117014118Y-95615408D01*
X117037385Y-95584946D01*
X117036999Y-95569512D01*
X117007223Y-95570201D01*
X116987352Y-95581085D01*
X116967000Y-95610435D01*
X116901071Y-95610435D01*
X116868482Y-95524667D01*
X116932570Y-95540752D01*
X116974586Y-95546124D01*
X116980330Y-95530419D01*
X116974834Y-95526043D01*
X116928633Y-95514628D01*
X116846733Y-95506865D01*
X116740446Y-95504000D01*
X116701173Y-95504131D01*
X116600037Y-95507240D01*
X116530160Y-95516733D01*
X116476607Y-95535577D01*
X116424445Y-95566735D01*
X116396741Y-95584500D01*
X116350338Y-95607958D01*
X116332000Y-95607025D01*
X116318297Y-95598863D01*
X116306946Y-95601041D01*
X116271110Y-95607913D01*
X116264066Y-95610470D01*
X116201706Y-95633104D01*
X116122074Y-95669392D01*
X116044203Y-95711733D01*
X115980084Y-95755083D01*
X115944732Y-95781236D01*
X115892976Y-95811696D01*
X115865654Y-95816587D01*
X115848802Y-95775541D01*
X115865541Y-95716131D01*
X115916326Y-95658244D01*
X115925470Y-95650825D01*
X115956775Y-95618660D01*
X115954426Y-95605600D01*
X115919337Y-95620714D01*
X115871764Y-95659437D01*
X115833758Y-95689884D01*
X115782822Y-95703376D01*
X115704501Y-95697726D01*
X115700569Y-95697166D01*
X115607955Y-95672896D01*
X115525235Y-95633004D01*
X115465789Y-95585620D01*
X115443000Y-95538872D01*
X115447430Y-95519872D01*
X115474638Y-95520555D01*
X115499427Y-95530684D01*
X115567837Y-95548201D01*
X115656770Y-95565101D01*
X115748001Y-95578076D01*
X115823303Y-95583820D01*
X115879257Y-95569032D01*
X115929453Y-95530504D01*
X116306600Y-95530504D01*
X116306946Y-95532544D01*
X116325988Y-95527421D01*
X116365194Y-95493898D01*
X116417308Y-95448732D01*
X116460444Y-95422330D01*
X116476402Y-95413712D01*
X116481240Y-95392134D01*
X116475237Y-95389961D01*
X116438784Y-95403954D01*
X116408200Y-95425829D01*
X116385990Y-95441714D01*
X116368758Y-95456739D01*
X116324385Y-95501710D01*
X116306600Y-95530504D01*
X115929453Y-95530504D01*
X115939511Y-95522784D01*
X115989600Y-95472368D01*
X116041808Y-95432321D01*
X116067003Y-95412917D01*
X116056441Y-95403173D01*
X116047029Y-95404941D01*
X116002742Y-95431543D01*
X115949608Y-95480092D01*
X115911736Y-95515595D01*
X115861581Y-95538294D01*
X115815344Y-95520745D01*
X115785900Y-95483367D01*
X115767470Y-95459971D01*
X115712408Y-95352997D01*
X115692578Y-95313500D01*
X115773200Y-95313500D01*
X115785900Y-95326200D01*
X115798600Y-95313500D01*
X115785900Y-95300800D01*
X115773200Y-95313500D01*
X115692578Y-95313500D01*
X115685711Y-95299822D01*
X115628054Y-95211565D01*
X115573682Y-95161530D01*
X115529801Y-95136420D01*
X115526948Y-95126266D01*
X115565320Y-95124017D01*
X115612074Y-95128251D01*
X115695122Y-95165266D01*
X115747623Y-95232611D01*
X115750657Y-95239985D01*
X115766026Y-95266350D01*
X115771590Y-95245494D01*
X115771608Y-95244833D01*
X115753505Y-95200060D01*
X115708849Y-95152269D01*
X115707528Y-95151224D01*
X115668897Y-95110305D01*
X115671862Y-95084739D01*
X115674846Y-95083073D01*
X115718462Y-95087755D01*
X115770127Y-95137253D01*
X115825494Y-95227528D01*
X115836922Y-95249108D01*
X115872350Y-95307197D01*
X115898386Y-95337779D01*
X115902744Y-95334205D01*
X115901226Y-95330018D01*
X116171112Y-95330018D01*
X116175768Y-95345807D01*
X116220188Y-95384536D01*
X116222590Y-95386317D01*
X116264066Y-95411072D01*
X116281200Y-95409696D01*
X116268737Y-95388788D01*
X116227927Y-95355950D01*
X116204803Y-95342411D01*
X116171112Y-95330018D01*
X115901226Y-95330018D01*
X115894257Y-95310789D01*
X116237346Y-95310789D01*
X116247008Y-95322642D01*
X116290042Y-95335752D01*
X116349614Y-95345649D01*
X116408200Y-95348471D01*
X116425267Y-95346059D01*
X116414173Y-95337226D01*
X116359003Y-95323932D01*
X116325619Y-95317855D01*
X116265308Y-95309854D01*
X116237346Y-95310789D01*
X115894257Y-95310789D01*
X115890045Y-95299167D01*
X115858771Y-95238427D01*
X115841755Y-95205569D01*
X115813203Y-95129008D01*
X115810010Y-95076265D01*
X115812643Y-95043261D01*
X115786517Y-94982886D01*
X115732561Y-94933680D01*
X115664405Y-94911105D01*
X115617373Y-94907220D01*
X115595418Y-94902828D01*
X115597505Y-94895224D01*
X115610818Y-94858378D01*
X115616042Y-94847928D01*
X115660199Y-94821473D01*
X115732118Y-94828999D01*
X115824000Y-94870078D01*
X115912900Y-94921766D01*
X115840025Y-94855900D01*
X115784849Y-94817575D01*
X115702888Y-94795641D01*
X115629769Y-94812990D01*
X115577903Y-94869000D01*
X115567465Y-94886397D01*
X115511733Y-94933204D01*
X115414714Y-94971041D01*
X115392200Y-94977980D01*
X115378076Y-94982333D01*
X115293611Y-95018837D01*
X115253222Y-95063756D01*
X115251919Y-95126517D01*
X115284712Y-95216542D01*
X115315245Y-95288005D01*
X115342469Y-95372034D01*
X115343481Y-95423166D01*
X115319175Y-95447390D01*
X115301232Y-95449298D01*
X115295982Y-95424625D01*
X115285955Y-95392405D01*
X115237552Y-95359973D01*
X115211685Y-95346571D01*
X115169401Y-95300619D01*
X115141831Y-95220273D01*
X115139797Y-95211546D01*
X115127395Y-95161277D01*
X115122212Y-95151878D01*
X115123489Y-95186578D01*
X115130466Y-95268608D01*
X115134367Y-95317383D01*
X115135567Y-95387505D01*
X115125891Y-95425277D01*
X115103477Y-95442719D01*
X115083489Y-95454435D01*
X115075261Y-95479507D01*
X115078042Y-95489359D01*
X115059575Y-95518200D01*
X115042801Y-95522444D01*
X115009701Y-95501575D01*
X115002547Y-95482704D01*
X115018891Y-95447910D01*
X115031950Y-95434625D01*
X115006350Y-95428189D01*
X114984018Y-95424956D01*
X114947880Y-95402691D01*
X114946838Y-95390223D01*
X114978131Y-95394747D01*
X114994085Y-95400401D01*
X115010239Y-95399510D01*
X114988839Y-95368813D01*
X114967681Y-95319728D01*
X114967784Y-95221282D01*
X114972774Y-95175048D01*
X114969962Y-95139913D01*
X114953316Y-95145325D01*
X114926590Y-95161904D01*
X114875222Y-95172776D01*
X114828435Y-95167854D01*
X114820700Y-95159922D01*
X114808000Y-95146901D01*
X114806006Y-95137714D01*
X114782600Y-95135700D01*
X114774255Y-95139521D01*
X114731386Y-95135444D01*
X114723378Y-95128432D01*
X114720441Y-95095431D01*
X114726130Y-95088773D01*
X114758956Y-95085985D01*
X114760381Y-95086725D01*
X114776121Y-95072194D01*
X114782600Y-95022900D01*
X114782707Y-95008647D01*
X114786703Y-94983300D01*
X114808000Y-94983300D01*
X114820700Y-94996000D01*
X114833400Y-94983300D01*
X114820700Y-94970600D01*
X114808000Y-94983300D01*
X114786703Y-94983300D01*
X114789483Y-94965670D01*
X114817490Y-94948386D01*
X114881483Y-94945200D01*
X114931530Y-94939807D01*
X114987638Y-94910159D01*
X115003581Y-94865333D01*
X114977443Y-94817636D01*
X114907307Y-94779372D01*
X114895964Y-94774945D01*
X114862924Y-94737443D01*
X114870077Y-94682369D01*
X114916803Y-94620165D01*
X114974805Y-94565675D01*
X115056503Y-94654693D01*
X115081951Y-94683648D01*
X115122291Y-94736411D01*
X115138200Y-94768255D01*
X115141421Y-94783287D01*
X115170777Y-94789336D01*
X115227637Y-94757449D01*
X115240151Y-94747863D01*
X115253975Y-94728035D01*
X115322183Y-94728035D01*
X115337264Y-94733101D01*
X115392200Y-94735082D01*
X115429475Y-94734342D01*
X115461387Y-94730356D01*
X115449350Y-94724075D01*
X115409066Y-94719873D01*
X115335050Y-94724075D01*
X115322183Y-94728035D01*
X115253975Y-94728035D01*
X115261436Y-94717333D01*
X115242082Y-94681249D01*
X115221322Y-94642175D01*
X115239800Y-94602300D01*
X115261470Y-94582120D01*
X115313504Y-94566678D01*
X115388061Y-94580841D01*
X115493925Y-94625407D01*
X115547532Y-94649410D01*
X115600360Y-94667734D01*
X115620800Y-94666894D01*
X115610321Y-94654716D01*
X115564204Y-94626983D01*
X115493800Y-94594395D01*
X115455683Y-94576985D01*
X115391459Y-94535641D01*
X115366004Y-94498930D01*
X115381654Y-94472649D01*
X115440743Y-94462600D01*
X115502466Y-94475934D01*
X115576091Y-94535578D01*
X115587628Y-94548844D01*
X115659690Y-94614979D01*
X115728236Y-94653375D01*
X115780959Y-94656753D01*
X115791764Y-94649206D01*
X115770276Y-94642406D01*
X115741429Y-94637117D01*
X115671716Y-94596872D01*
X115617333Y-94532157D01*
X115595400Y-94460757D01*
X115603437Y-94404900D01*
X115630441Y-94388773D01*
X115676136Y-94419842D01*
X115680987Y-94424608D01*
X115759818Y-94486712D01*
X115836806Y-94523256D01*
X115897160Y-94527066D01*
X115913566Y-94522930D01*
X115943440Y-94532544D01*
X115958098Y-94582109D01*
X115968789Y-94653100D01*
X115972595Y-94582453D01*
X115967446Y-94533762D01*
X115931950Y-94495406D01*
X115914195Y-94487925D01*
X115867304Y-94454072D01*
X115851420Y-94419761D01*
X115868152Y-94397148D01*
X115919108Y-94398389D01*
X115969453Y-94414253D01*
X116031617Y-94456070D01*
X116060621Y-94521609D01*
X116063718Y-94533751D01*
X116065885Y-94522221D01*
X116062806Y-94470350D01*
X116060377Y-94425559D01*
X116068142Y-94374325D01*
X116098108Y-94329868D01*
X116159450Y-94273500D01*
X116164934Y-94268825D01*
X116241593Y-94208926D01*
X116289838Y-94182890D01*
X116306600Y-94192408D01*
G37*
%LPC*%
D18*
X122682000Y-89408000D03*
D19*
X132842000Y-89408000D03*
D20*
X88773000Y-123952000D03*
D19*
X78613000Y-123952000D03*
D21*
X67818000Y-113030000D03*
D22*
X67818000Y-115570000D03*
D23*
X67866260Y-91363800D03*
X67866260Y-121363740D03*
X157866080Y-91363800D03*
X157866080Y-121363740D03*
D18*
X75438000Y-89662000D03*
D19*
X75438000Y-99822000D03*
D24*
X100918000Y-117856000D03*
X95918000Y-117856000D03*
X105918000Y-117856000D03*
D25*
X84668000Y-117856000D03*
D26*
X80918000Y-117856000D03*
D20*
X78994000Y-112776000D03*
D19*
X78994000Y-102616000D03*
D18*
X129540000Y-112268000D03*
D19*
X129540000Y-102108000D03*
D27*
X67818000Y-100382000D03*
D28*
X67818000Y-105882000D03*
D24*
X109220000Y-96139000D03*
X131720000Y-96139000D03*
X81608000Y-96901000D03*
X104108000Y-96901000D03*
D29*
X132842000Y-120904000D03*
D30*
X127342000Y-120904000D03*
D31*
X102160000Y-111252000D03*
D30*
X107660000Y-111252000D03*
D18*
X109220000Y-89408000D03*
D19*
X119380000Y-89408000D03*
D20*
X75438000Y-102616000D03*
D19*
X75438000Y-112776000D03*
D24*
X85059500Y-91031500D03*
X90059500Y-91031500D03*
X80059500Y-91031500D03*
D25*
X101309500Y-91031500D03*
D26*
X105059500Y-91031500D03*
D32*
X118865000Y-106362000D03*
D33*
X113865000Y-103712000D03*
X123865000Y-106212000D03*
X113865000Y-108712000D03*
D32*
X88865000Y-106362000D03*
D33*
X93865000Y-109012000D03*
X83865000Y-106512000D03*
X93865000Y-104012000D03*
D32*
X155837227Y-99898041D03*
X157939001Y-106364200D03*
X155827269Y-112845641D03*
X150326173Y-116830518D03*
X143539813Y-116826622D03*
X138038339Y-112828610D03*
X135939007Y-106377764D03*
X137995309Y-99961063D03*
X143526963Y-95907561D03*
%LPD*%
M02*
