%TF.GenerationSoftware,KiCad,Pcbnew,8.0.8*%
%TF.CreationDate,2025-02-11T23:57:59+01:00*%
%TF.ProjectId,Aussteuerung,41757373-7465-4756-9572-756e672e6b69,rev?*%
%TF.SameCoordinates,Original*%
%TF.FileFunction,Copper,L1,Top*%
%TF.FilePolarity,Positive*%
%FSLAX46Y46*%
G04 Gerber Fmt 4.6, Leading zero omitted, Abs format (unit mm)*
G04 Created by KiCad (PCBNEW 8.0.8) date 2025-02-11 23:57:59*
%MOMM*%
%LPD*%
G01*
G04 APERTURE LIST*
G04 Aperture macros list*
%AMRoundRect*
0 Rectangle with rounded corners*
0 $1 Rounding radius*
0 $2 $3 $4 $5 $6 $7 $8 $9 X,Y pos of 4 corners*
0 Add a 4 corners polygon primitive as box body*
4,1,4,$2,$3,$4,$5,$6,$7,$8,$9,$2,$3,0*
0 Add four circle primitives for the rounded corners*
1,1,$1+$1,$2,$3*
1,1,$1+$1,$4,$5*
1,1,$1+$1,$6,$7*
1,1,$1+$1,$8,$9*
0 Add four rect primitives between the rounded corners*
20,1,$1+$1,$2,$3,$4,$5,0*
20,1,$1+$1,$4,$5,$6,$7,0*
20,1,$1+$1,$6,$7,$8,$9,0*
20,1,$1+$1,$8,$9,$2,$3,0*%
G04 Aperture macros list end*
%ADD10C,0.200000*%
%TA.AperFunction,NonConductor*%
%ADD11C,0.200000*%
%TD*%
%TA.AperFunction,ComponentPad*%
%ADD12C,1.600000*%
%TD*%
%TA.AperFunction,ComponentPad*%
%ADD13O,1.600000X1.600000*%
%TD*%
%TA.AperFunction,ComponentPad*%
%ADD14R,1.600000X1.600000*%
%TD*%
%TA.AperFunction,ComponentPad*%
%ADD15RoundRect,0.250000X-0.845000X0.620000X-0.845000X-0.620000X0.845000X-0.620000X0.845000X0.620000X0*%
%TD*%
%TA.AperFunction,ComponentPad*%
%ADD16O,2.190000X1.740000*%
%TD*%
%TA.AperFunction,ComponentPad*%
%ADD17C,2.400000*%
%TD*%
%TA.AperFunction,ComponentPad*%
%ADD18R,2.000000X2.000000*%
%TD*%
%TA.AperFunction,ComponentPad*%
%ADD19C,2.000000*%
%TD*%
%TA.AperFunction,ComponentPad*%
%ADD20RoundRect,0.250001X-1.099999X-1.399999X1.099999X-1.399999X1.099999X1.399999X-1.099999X1.399999X0*%
%TD*%
%TA.AperFunction,ComponentPad*%
%ADD21O,2.700000X3.300000*%
%TD*%
%TA.AperFunction,ComponentPad*%
%ADD22RoundRect,0.250001X-1.399999X1.099999X-1.399999X-1.099999X1.399999X-1.099999X1.399999X1.099999X0*%
%TD*%
%TA.AperFunction,ComponentPad*%
%ADD23O,3.300000X2.700000*%
%TD*%
%TA.AperFunction,ComponentPad*%
%ADD24RoundRect,0.250001X1.399999X-1.099999X1.399999X1.099999X-1.399999X1.099999X-1.399999X-1.099999X0*%
%TD*%
%TA.AperFunction,ComponentPad*%
%ADD25C,2.340000*%
%TD*%
%TA.AperFunction,ComponentPad*%
%ADD26C,4.000000*%
%TD*%
%TA.AperFunction,ViaPad*%
%ADD27C,0.800000*%
%TD*%
%TA.AperFunction,Conductor*%
%ADD28C,0.500000*%
%TD*%
G04 APERTURE END LIST*
D10*
D11*
X111494673Y-123225275D02*
X111494673Y-122225275D01*
X111494673Y-122225275D02*
X111732768Y-122225275D01*
X111732768Y-122225275D02*
X111875625Y-122272894D01*
X111875625Y-122272894D02*
X111970863Y-122368132D01*
X111970863Y-122368132D02*
X112018482Y-122463370D01*
X112018482Y-122463370D02*
X112066101Y-122653846D01*
X112066101Y-122653846D02*
X112066101Y-122796703D01*
X112066101Y-122796703D02*
X112018482Y-122987179D01*
X112018482Y-122987179D02*
X111970863Y-123082417D01*
X111970863Y-123082417D02*
X111875625Y-123177656D01*
X111875625Y-123177656D02*
X111732768Y-123225275D01*
X111732768Y-123225275D02*
X111494673Y-123225275D01*
X112494673Y-123130036D02*
X112542292Y-123177656D01*
X112542292Y-123177656D02*
X112494673Y-123225275D01*
X112494673Y-123225275D02*
X112447054Y-123177656D01*
X112447054Y-123177656D02*
X112494673Y-123130036D01*
X112494673Y-123130036D02*
X112494673Y-123225275D01*
X113637530Y-122225275D02*
X113875625Y-123225275D01*
X113875625Y-123225275D02*
X114066101Y-122510989D01*
X114066101Y-122510989D02*
X114256577Y-123225275D01*
X114256577Y-123225275D02*
X114494673Y-122225275D01*
X115304196Y-123225275D02*
X115304196Y-122701465D01*
X115304196Y-122701465D02*
X115256577Y-122606227D01*
X115256577Y-122606227D02*
X115161339Y-122558608D01*
X115161339Y-122558608D02*
X114970863Y-122558608D01*
X114970863Y-122558608D02*
X114875625Y-122606227D01*
X115304196Y-123177656D02*
X115208958Y-123225275D01*
X115208958Y-123225275D02*
X114970863Y-123225275D01*
X114970863Y-123225275D02*
X114875625Y-123177656D01*
X114875625Y-123177656D02*
X114828006Y-123082417D01*
X114828006Y-123082417D02*
X114828006Y-122987179D01*
X114828006Y-122987179D02*
X114875625Y-122891941D01*
X114875625Y-122891941D02*
X114970863Y-122844322D01*
X114970863Y-122844322D02*
X115208958Y-122844322D01*
X115208958Y-122844322D02*
X115304196Y-122796703D01*
X115923244Y-123225275D02*
X115828006Y-123177656D01*
X115828006Y-123177656D02*
X115780387Y-123082417D01*
X115780387Y-123082417D02*
X115780387Y-122225275D01*
X116161340Y-122558608D02*
X116542292Y-122558608D01*
X116304197Y-122225275D02*
X116304197Y-123082417D01*
X116304197Y-123082417D02*
X116351816Y-123177656D01*
X116351816Y-123177656D02*
X116447054Y-123225275D01*
X116447054Y-123225275D02*
X116542292Y-123225275D01*
X117256578Y-123177656D02*
X117161340Y-123225275D01*
X117161340Y-123225275D02*
X116970864Y-123225275D01*
X116970864Y-123225275D02*
X116875626Y-123177656D01*
X116875626Y-123177656D02*
X116828007Y-123082417D01*
X116828007Y-123082417D02*
X116828007Y-122701465D01*
X116828007Y-122701465D02*
X116875626Y-122606227D01*
X116875626Y-122606227D02*
X116970864Y-122558608D01*
X116970864Y-122558608D02*
X117161340Y-122558608D01*
X117161340Y-122558608D02*
X117256578Y-122606227D01*
X117256578Y-122606227D02*
X117304197Y-122701465D01*
X117304197Y-122701465D02*
X117304197Y-122796703D01*
X117304197Y-122796703D02*
X116828007Y-122891941D01*
X117732769Y-123225275D02*
X117732769Y-122558608D01*
X117732769Y-122749084D02*
X117780388Y-122653846D01*
X117780388Y-122653846D02*
X117828007Y-122606227D01*
X117828007Y-122606227D02*
X117923245Y-122558608D01*
X117923245Y-122558608D02*
X118018483Y-122558608D01*
X111399435Y-124168552D02*
X111637530Y-124835219D01*
X111637530Y-124835219D02*
X111875625Y-124168552D01*
X112780387Y-124835219D02*
X112208959Y-124835219D01*
X112494673Y-124835219D02*
X112494673Y-123835219D01*
X112494673Y-123835219D02*
X112399435Y-123978076D01*
X112399435Y-123978076D02*
X112304197Y-124073314D01*
X112304197Y-124073314D02*
X112208959Y-124120933D01*
X113208959Y-124739980D02*
X113256578Y-124787600D01*
X113256578Y-124787600D02*
X113208959Y-124835219D01*
X113208959Y-124835219D02*
X113161340Y-124787600D01*
X113161340Y-124787600D02*
X113208959Y-124739980D01*
X113208959Y-124739980D02*
X113208959Y-124835219D01*
X113875625Y-123835219D02*
X113970863Y-123835219D01*
X113970863Y-123835219D02*
X114066101Y-123882838D01*
X114066101Y-123882838D02*
X114113720Y-123930457D01*
X114113720Y-123930457D02*
X114161339Y-124025695D01*
X114161339Y-124025695D02*
X114208958Y-124216171D01*
X114208958Y-124216171D02*
X114208958Y-124454266D01*
X114208958Y-124454266D02*
X114161339Y-124644742D01*
X114161339Y-124644742D02*
X114113720Y-124739980D01*
X114113720Y-124739980D02*
X114066101Y-124787600D01*
X114066101Y-124787600D02*
X113970863Y-124835219D01*
X113970863Y-124835219D02*
X113875625Y-124835219D01*
X113875625Y-124835219D02*
X113780387Y-124787600D01*
X113780387Y-124787600D02*
X113732768Y-124739980D01*
X113732768Y-124739980D02*
X113685149Y-124644742D01*
X113685149Y-124644742D02*
X113637530Y-124454266D01*
X113637530Y-124454266D02*
X113637530Y-124216171D01*
X113637530Y-124216171D02*
X113685149Y-124025695D01*
X113685149Y-124025695D02*
X113732768Y-123930457D01*
X113732768Y-123930457D02*
X113780387Y-123882838D01*
X113780387Y-123882838D02*
X113875625Y-123835219D01*
D12*
X122682000Y-89408000D03*
D13*
X132842000Y-89408000D03*
D14*
X88773000Y-123952000D03*
D13*
X78613000Y-123952000D03*
D15*
X67818000Y-113030000D03*
D16*
X67818000Y-115570000D03*
D12*
X75438000Y-89662000D03*
D13*
X75438000Y-99822000D03*
D17*
X100918000Y-117856000D03*
X95918000Y-117856000D03*
X105918000Y-117856000D03*
D18*
X84668000Y-117856000D03*
D19*
X80918000Y-117856000D03*
D14*
X78994000Y-112776000D03*
D13*
X78994000Y-102616000D03*
D12*
X129540000Y-112268000D03*
D13*
X129540000Y-102108000D03*
D20*
X67818000Y-100382000D03*
D21*
X67818000Y-105882000D03*
D17*
X109220000Y-96139000D03*
X131720000Y-96139000D03*
X81608000Y-96901000D03*
X104108000Y-96901000D03*
D22*
X132842000Y-120904000D03*
D23*
X127342000Y-120904000D03*
D24*
X102160000Y-111252000D03*
D23*
X107660000Y-111252000D03*
D12*
X109220000Y-89408000D03*
D13*
X119380000Y-89408000D03*
D14*
X75438000Y-102616000D03*
D13*
X75438000Y-112776000D03*
D17*
X85059500Y-91031500D03*
X90059500Y-91031500D03*
X80059500Y-91031500D03*
D18*
X101309500Y-91031500D03*
D19*
X105059500Y-91031500D03*
D25*
X113865000Y-103712000D03*
X123865000Y-106212000D03*
X113865000Y-108712000D03*
X93865000Y-109012000D03*
X83865000Y-106512000D03*
X93865000Y-104012000D03*
D26*
X155837227Y-99898041D03*
X157939001Y-106364200D03*
X155827269Y-112845641D03*
X150326173Y-116830518D03*
X143539813Y-116826622D03*
X138038339Y-112828610D03*
X135939007Y-106377764D03*
X137995309Y-99961063D03*
X143526963Y-95907561D03*
D27*
X101346000Y-98552000D03*
X122555000Y-118364000D03*
X65024000Y-123952000D03*
X87122000Y-109474000D03*
X109474000Y-102362000D03*
X146812000Y-117094000D03*
X109220000Y-120015000D03*
X73025000Y-107823000D03*
X110744000Y-115316000D03*
X104902000Y-105410000D03*
X73660000Y-123952000D03*
X72263000Y-93345000D03*
X116586000Y-114046000D03*
X101346000Y-101981000D03*
X135382000Y-102616000D03*
X126492000Y-108966000D03*
X132588000Y-113792000D03*
X146812000Y-98044000D03*
X95504000Y-96139000D03*
X151384000Y-101346000D03*
X154178000Y-91948000D03*
X145288000Y-92456000D03*
X146812000Y-109474000D03*
X92710000Y-123952000D03*
X92456000Y-119380000D03*
X90551000Y-103886000D03*
X89662000Y-99314000D03*
X141224000Y-99060000D03*
X137414000Y-94234000D03*
X121031000Y-95504000D03*
X150114000Y-88900000D03*
X77978000Y-96774000D03*
X140166548Y-116960000D03*
X154813000Y-118110000D03*
X84201000Y-88646000D03*
X150876000Y-123952000D03*
X138938000Y-123952000D03*
X78994000Y-107569000D03*
X119380000Y-123952000D03*
X67183000Y-95631000D03*
X154432000Y-106680000D03*
X127762000Y-98552000D03*
X127762000Y-89154000D03*
X161544000Y-106172000D03*
X96901000Y-88646000D03*
X113030000Y-98552000D03*
X102870000Y-123952000D03*
X84582000Y-114046000D03*
X138938000Y-109220000D03*
X72390000Y-88646000D03*
X114046000Y-89154000D03*
X87376000Y-94996000D03*
X143053173Y-104445173D03*
X158623000Y-96520000D03*
X131826000Y-105156000D03*
D28*
X98171000Y-111506000D02*
X98171000Y-97917000D01*
X91694000Y-114300000D02*
X95377000Y-114300000D01*
X95377000Y-114300000D02*
X98171000Y-111506000D01*
X86360000Y-119634000D02*
X91694000Y-114300000D01*
X82696000Y-119634000D02*
X86360000Y-119634000D01*
X80918000Y-117856000D02*
X82696000Y-119634000D01*
X98171000Y-97917000D02*
X105056500Y-91031500D01*
X105056500Y-91031500D02*
X105059500Y-91031500D01*
X101346000Y-93091000D02*
X101346000Y-91068000D01*
X97028000Y-97409000D02*
X101346000Y-93091000D01*
X94742000Y-113284000D02*
X97028000Y-110998000D01*
X86487000Y-117856000D02*
X91059000Y-113284000D01*
X91059000Y-113284000D02*
X94742000Y-113284000D01*
X84668000Y-117856000D02*
X86487000Y-117856000D01*
X97028000Y-110998000D02*
X97028000Y-97409000D01*
%TA.AperFunction,Conductor*%
G36*
X162454807Y-86385082D02*
G01*
X162501300Y-86438738D01*
X162512686Y-86490780D01*
X162607324Y-126238700D01*
X162587484Y-126306868D01*
X162533939Y-126353489D01*
X162481324Y-126365000D01*
X63085951Y-126365000D01*
X63017830Y-126344998D01*
X62971337Y-126291342D01*
X62959951Y-126239300D01*
X62958071Y-125449864D01*
X110785077Y-125449864D01*
X118631983Y-125449864D01*
X118631983Y-121609950D01*
X110785077Y-121609950D01*
X110785077Y-125449864D01*
X62958071Y-125449864D01*
X62954505Y-123952000D01*
X77299502Y-123952000D01*
X77319457Y-124180087D01*
X77378716Y-124401243D01*
X77475477Y-124608749D01*
X77606802Y-124796300D01*
X77768700Y-124958198D01*
X77956251Y-125089523D01*
X78163757Y-125186284D01*
X78384913Y-125245543D01*
X78613000Y-125265498D01*
X78841087Y-125245543D01*
X79062243Y-125186284D01*
X79269749Y-125089523D01*
X79457300Y-124958198D01*
X79619198Y-124796300D01*
X79750523Y-124608749D01*
X79847284Y-124401243D01*
X79906543Y-124180087D01*
X79926498Y-123952000D01*
X79906543Y-123723913D01*
X79847284Y-123502757D01*
X79750523Y-123295251D01*
X79619198Y-123107700D01*
X79614848Y-123103350D01*
X87464500Y-123103350D01*
X87464500Y-124800649D01*
X87471009Y-124861196D01*
X87471011Y-124861204D01*
X87522110Y-124998202D01*
X87522112Y-124998207D01*
X87609738Y-125115261D01*
X87726792Y-125202887D01*
X87726794Y-125202888D01*
X87726796Y-125202889D01*
X87785875Y-125224924D01*
X87863795Y-125253988D01*
X87863803Y-125253990D01*
X87924350Y-125260499D01*
X87924355Y-125260499D01*
X87924362Y-125260500D01*
X87924368Y-125260500D01*
X89621632Y-125260500D01*
X89621638Y-125260500D01*
X89621645Y-125260499D01*
X89621649Y-125260499D01*
X89682196Y-125253990D01*
X89682199Y-125253989D01*
X89682201Y-125253989D01*
X89819204Y-125202889D01*
X89841389Y-125186282D01*
X89936261Y-125115261D01*
X90023887Y-124998207D01*
X90023887Y-124998206D01*
X90023889Y-124998204D01*
X90074989Y-124861201D01*
X90081500Y-124800638D01*
X90081500Y-123103362D01*
X90081499Y-123103350D01*
X90074990Y-123042803D01*
X90074988Y-123042795D01*
X90038811Y-122945804D01*
X90023889Y-122905796D01*
X90023888Y-122905794D01*
X90023887Y-122905792D01*
X89936261Y-122788738D01*
X89819207Y-122701112D01*
X89819202Y-122701110D01*
X89682204Y-122650011D01*
X89682196Y-122650009D01*
X89621649Y-122643500D01*
X89621638Y-122643500D01*
X87924362Y-122643500D01*
X87924350Y-122643500D01*
X87863803Y-122650009D01*
X87863795Y-122650011D01*
X87726797Y-122701110D01*
X87726792Y-122701112D01*
X87609738Y-122788738D01*
X87522112Y-122905792D01*
X87522110Y-122905797D01*
X87471011Y-123042795D01*
X87471009Y-123042803D01*
X87464500Y-123103350D01*
X79614848Y-123103350D01*
X79457300Y-122945802D01*
X79269749Y-122814477D01*
X79062246Y-122717717D01*
X79062240Y-122717715D01*
X78942501Y-122685631D01*
X78841087Y-122658457D01*
X78613000Y-122638502D01*
X78384913Y-122658457D01*
X78163759Y-122717715D01*
X78163753Y-122717717D01*
X77956250Y-122814477D01*
X77768703Y-122945799D01*
X77768697Y-122945804D01*
X77606804Y-123107697D01*
X77606799Y-123107703D01*
X77475477Y-123295250D01*
X77378717Y-123502753D01*
X77378716Y-123502757D01*
X77319457Y-123723913D01*
X77299502Y-123952000D01*
X62954505Y-123952000D01*
X62948030Y-121232613D01*
X65865700Y-121232613D01*
X65865700Y-121494866D01*
X65899928Y-121754860D01*
X65899930Y-121754867D01*
X65967804Y-122008179D01*
X66068162Y-122250464D01*
X66068163Y-122250465D01*
X66068168Y-122250475D01*
X66199283Y-122477573D01*
X66199287Y-122477579D01*
X66358927Y-122685625D01*
X66358946Y-122685646D01*
X66544353Y-122871053D01*
X66544363Y-122871062D01*
X66544369Y-122871068D01*
X66544372Y-122871070D01*
X66544374Y-122871072D01*
X66752420Y-123030712D01*
X66752426Y-123030716D01*
X66931538Y-123134126D01*
X66979536Y-123161838D01*
X67221821Y-123262196D01*
X67475133Y-123330070D01*
X67475137Y-123330070D01*
X67475139Y-123330071D01*
X67542148Y-123338892D01*
X67735136Y-123364300D01*
X67735143Y-123364300D01*
X67997377Y-123364300D01*
X67997384Y-123364300D01*
X68232362Y-123333364D01*
X68257380Y-123330071D01*
X68257380Y-123330070D01*
X68257387Y-123330070D01*
X68510699Y-123262196D01*
X68752984Y-123161838D01*
X68980097Y-123030714D01*
X69188151Y-122871068D01*
X69373588Y-122685631D01*
X69533234Y-122477577D01*
X69664358Y-122250464D01*
X69764716Y-122008179D01*
X69832590Y-121754867D01*
X69866820Y-121494864D01*
X69866820Y-121232616D01*
X69832590Y-120972613D01*
X69781565Y-120782184D01*
X125183500Y-120782184D01*
X125183500Y-121025815D01*
X125215297Y-121267346D01*
X125215299Y-121267353D01*
X125278354Y-121502677D01*
X125371585Y-121727757D01*
X125371586Y-121727758D01*
X125371591Y-121727768D01*
X125493395Y-121938739D01*
X125641707Y-122132024D01*
X125641716Y-122132034D01*
X125813965Y-122304283D01*
X125813975Y-122304292D01*
X125813976Y-122304293D01*
X126007257Y-122452602D01*
X126218243Y-122574415D01*
X126443323Y-122667646D01*
X126678647Y-122730701D01*
X126678651Y-122730701D01*
X126678653Y-122730702D01*
X126740904Y-122738897D01*
X126920187Y-122762500D01*
X126920194Y-122762500D01*
X127763806Y-122762500D01*
X127763813Y-122762500D01*
X127982103Y-122733761D01*
X128005346Y-122730702D01*
X128005346Y-122730701D01*
X128005353Y-122730701D01*
X128240677Y-122667646D01*
X128465757Y-122574415D01*
X128676743Y-122452602D01*
X128870024Y-122304293D01*
X129042293Y-122132024D01*
X129101739Y-122054552D01*
X130683499Y-122054552D01*
X130694112Y-122158421D01*
X130694112Y-122158423D01*
X130694113Y-122158425D01*
X130749885Y-122326738D01*
X130827521Y-122452604D01*
X130842970Y-122477651D01*
X130842975Y-122477657D01*
X130968342Y-122603024D01*
X130968348Y-122603029D01*
X130968349Y-122603030D01*
X131119262Y-122696115D01*
X131287575Y-122751887D01*
X131315906Y-122754781D01*
X131391448Y-122762500D01*
X131391456Y-122762500D01*
X134292552Y-122762500D01*
X134361798Y-122755424D01*
X134396425Y-122751887D01*
X134564738Y-122696115D01*
X134715651Y-122603030D01*
X134841030Y-122477651D01*
X134934115Y-122326738D01*
X134989887Y-122158425D01*
X134993424Y-122123798D01*
X135000500Y-122054552D01*
X135000500Y-121232613D01*
X155865520Y-121232613D01*
X155865520Y-121494866D01*
X155899748Y-121754860D01*
X155899750Y-121754867D01*
X155967624Y-122008179D01*
X156067982Y-122250464D01*
X156067983Y-122250465D01*
X156067988Y-122250475D01*
X156199103Y-122477573D01*
X156199107Y-122477579D01*
X156358747Y-122685625D01*
X156358766Y-122685646D01*
X156544173Y-122871053D01*
X156544183Y-122871062D01*
X156544189Y-122871068D01*
X156544192Y-122871070D01*
X156544194Y-122871072D01*
X156752240Y-123030712D01*
X156752246Y-123030716D01*
X156931358Y-123134126D01*
X156979356Y-123161838D01*
X157221641Y-123262196D01*
X157474953Y-123330070D01*
X157474957Y-123330070D01*
X157474959Y-123330071D01*
X157541968Y-123338892D01*
X157734956Y-123364300D01*
X157734963Y-123364300D01*
X157997197Y-123364300D01*
X157997204Y-123364300D01*
X158232182Y-123333364D01*
X158257200Y-123330071D01*
X158257200Y-123330070D01*
X158257207Y-123330070D01*
X158510519Y-123262196D01*
X158752804Y-123161838D01*
X158979917Y-123030714D01*
X159187971Y-122871068D01*
X159373408Y-122685631D01*
X159533054Y-122477577D01*
X159664178Y-122250464D01*
X159764536Y-122008179D01*
X159832410Y-121754867D01*
X159866640Y-121494864D01*
X159866640Y-121232616D01*
X159832410Y-120972613D01*
X159764536Y-120719301D01*
X159664178Y-120477016D01*
X159533054Y-120249903D01*
X159402867Y-120080241D01*
X159373412Y-120041854D01*
X159373410Y-120041852D01*
X159373408Y-120041849D01*
X159373402Y-120041843D01*
X159373393Y-120041833D01*
X159187986Y-119856426D01*
X159187965Y-119856407D01*
X158979919Y-119696767D01*
X158979913Y-119696763D01*
X158752815Y-119565648D01*
X158752810Y-119565645D01*
X158752804Y-119565642D01*
X158510519Y-119465284D01*
X158257207Y-119397410D01*
X158257200Y-119397408D01*
X157997206Y-119363180D01*
X157997204Y-119363180D01*
X157734956Y-119363180D01*
X157734953Y-119363180D01*
X157474959Y-119397408D01*
X157275469Y-119450861D01*
X157221641Y-119465284D01*
X157074259Y-119526332D01*
X156979354Y-119565643D01*
X156979344Y-119565648D01*
X156752246Y-119696763D01*
X156752240Y-119696767D01*
X156544194Y-119856407D01*
X156544173Y-119856426D01*
X156358766Y-120041833D01*
X156358747Y-120041854D01*
X156199107Y-120249900D01*
X156199103Y-120249906D01*
X156067988Y-120477004D01*
X156067983Y-120477014D01*
X155967624Y-120719301D01*
X155899748Y-120972619D01*
X155865520Y-121232613D01*
X135000500Y-121232613D01*
X135000500Y-119753447D01*
X134989887Y-119649578D01*
X134989887Y-119649575D01*
X134934115Y-119481262D01*
X134841030Y-119330349D01*
X134841029Y-119330348D01*
X134841024Y-119330342D01*
X134715657Y-119204975D01*
X134715651Y-119204970D01*
X134610893Y-119140354D01*
X134564738Y-119111885D01*
X134396425Y-119056113D01*
X134396423Y-119056112D01*
X134396421Y-119056112D01*
X134292552Y-119045500D01*
X134292544Y-119045500D01*
X131391456Y-119045500D01*
X131391448Y-119045500D01*
X131287578Y-119056112D01*
X131119262Y-119111885D01*
X131119260Y-119111886D01*
X130968348Y-119204970D01*
X130968342Y-119204975D01*
X130842975Y-119330342D01*
X130842970Y-119330348D01*
X130749886Y-119481260D01*
X130749885Y-119481262D01*
X130694112Y-119649578D01*
X130683500Y-119753447D01*
X130683500Y-122054552D01*
X130683499Y-122054552D01*
X129101739Y-122054552D01*
X129190602Y-121938743D01*
X129312415Y-121727757D01*
X129405646Y-121502677D01*
X129468701Y-121267353D01*
X129500500Y-121025813D01*
X129500500Y-120782187D01*
X129468701Y-120540647D01*
X129405646Y-120305323D01*
X129312415Y-120080243D01*
X129190602Y-119869257D01*
X129042293Y-119675976D01*
X129042292Y-119675975D01*
X129042283Y-119675965D01*
X128870034Y-119503716D01*
X128870024Y-119503707D01*
X128801152Y-119450860D01*
X128676743Y-119355398D01*
X128676742Y-119355397D01*
X128676739Y-119355395D01*
X128465768Y-119233591D01*
X128465763Y-119233588D01*
X128465757Y-119233585D01*
X128240677Y-119140354D01*
X128005353Y-119077299D01*
X128005346Y-119077297D01*
X127763815Y-119045500D01*
X127763813Y-119045500D01*
X126920187Y-119045500D01*
X126920184Y-119045500D01*
X126678653Y-119077297D01*
X126443323Y-119140354D01*
X126289089Y-119204240D01*
X126218241Y-119233586D01*
X126218231Y-119233591D01*
X126007260Y-119355395D01*
X125813975Y-119503707D01*
X125813965Y-119503716D01*
X125641716Y-119675965D01*
X125641707Y-119675975D01*
X125493395Y-119869260D01*
X125371591Y-120080231D01*
X125371586Y-120080241D01*
X125371585Y-120080243D01*
X125312382Y-120223172D01*
X125278354Y-120305323D01*
X125215297Y-120540653D01*
X125183500Y-120782184D01*
X69781565Y-120782184D01*
X69764716Y-120719301D01*
X69664358Y-120477016D01*
X69533234Y-120249903D01*
X69403047Y-120080241D01*
X69373592Y-120041854D01*
X69373590Y-120041852D01*
X69373588Y-120041849D01*
X69373582Y-120041843D01*
X69373573Y-120041833D01*
X69188166Y-119856426D01*
X69188145Y-119856407D01*
X68980099Y-119696767D01*
X68980093Y-119696763D01*
X68752995Y-119565648D01*
X68752990Y-119565645D01*
X68752984Y-119565642D01*
X68510699Y-119465284D01*
X68257387Y-119397410D01*
X68257380Y-119397408D01*
X67997386Y-119363180D01*
X67997384Y-119363180D01*
X67735136Y-119363180D01*
X67735133Y-119363180D01*
X67475139Y-119397408D01*
X67275649Y-119450861D01*
X67221821Y-119465284D01*
X67074439Y-119526332D01*
X66979534Y-119565643D01*
X66979524Y-119565648D01*
X66752426Y-119696763D01*
X66752420Y-119696767D01*
X66544374Y-119856407D01*
X66544353Y-119856426D01*
X66358946Y-120041833D01*
X66358927Y-120041854D01*
X66199287Y-120249900D01*
X66199283Y-120249906D01*
X66068168Y-120477004D01*
X66068163Y-120477014D01*
X65967804Y-120719301D01*
X65899928Y-120972619D01*
X65865700Y-121232613D01*
X62948030Y-121232613D01*
X62939991Y-117856000D01*
X79404835Y-117856000D01*
X79423465Y-118092710D01*
X79478894Y-118323592D01*
X79478895Y-118323594D01*
X79569760Y-118542963D01*
X79693458Y-118744819D01*
X79693825Y-118745417D01*
X79693826Y-118745419D01*
X79848030Y-118925969D01*
X80025213Y-119077297D01*
X80028584Y-119080176D01*
X80231037Y-119204240D01*
X80450406Y-119295105D01*
X80681289Y-119350535D01*
X80918000Y-119369165D01*
X81154711Y-119350535D01*
X81235396Y-119331164D01*
X81306304Y-119334710D01*
X81353906Y-119364587D01*
X82212485Y-120223166D01*
X82212488Y-120223168D01*
X82212493Y-120223172D01*
X82335437Y-120305320D01*
X82335438Y-120305320D01*
X82336717Y-120306175D01*
X82423760Y-120342228D01*
X82474754Y-120363351D01*
X82621294Y-120392500D01*
X86434701Y-120392500D01*
X86434705Y-120392500D01*
X86434706Y-120392500D01*
X86507976Y-120377925D01*
X86581247Y-120363351D01*
X86719284Y-120306174D01*
X86843515Y-120223166D01*
X89210681Y-117856000D01*
X94204709Y-117856000D01*
X94223845Y-118111356D01*
X94280826Y-118361002D01*
X94280827Y-118361005D01*
X94374374Y-118599362D01*
X94374376Y-118599366D01*
X94502410Y-118821127D01*
X94502412Y-118821130D01*
X94502413Y-118821131D01*
X94662069Y-119021334D01*
X94849781Y-119195505D01*
X94849787Y-119195509D01*
X95061345Y-119339748D01*
X95061352Y-119339752D01*
X95061355Y-119339754D01*
X95122426Y-119369164D01*
X95292060Y-119450856D01*
X95292073Y-119450861D01*
X95536746Y-119526332D01*
X95536748Y-119526332D01*
X95536757Y-119526335D01*
X95789966Y-119564500D01*
X95789970Y-119564500D01*
X96046030Y-119564500D01*
X96046034Y-119564500D01*
X96299243Y-119526335D01*
X96299253Y-119526332D01*
X96543929Y-119450860D01*
X96543930Y-119450859D01*
X96543935Y-119450858D01*
X96774646Y-119339754D01*
X96986219Y-119195505D01*
X97173931Y-119021334D01*
X97333587Y-118821131D01*
X97461622Y-118599369D01*
X97555174Y-118361001D01*
X97612155Y-118111353D01*
X97631291Y-117856000D01*
X99204709Y-117856000D01*
X99223845Y-118111356D01*
X99280826Y-118361002D01*
X99280827Y-118361005D01*
X99374374Y-118599362D01*
X99374376Y-118599366D01*
X99502410Y-118821127D01*
X99502412Y-118821130D01*
X99502413Y-118821131D01*
X99662069Y-119021334D01*
X99849781Y-119195505D01*
X99849787Y-119195509D01*
X100061345Y-119339748D01*
X100061352Y-119339752D01*
X100061355Y-119339754D01*
X100122426Y-119369164D01*
X100292060Y-119450856D01*
X100292073Y-119450861D01*
X100536746Y-119526332D01*
X100536748Y-119526332D01*
X100536757Y-119526335D01*
X100789966Y-119564500D01*
X100789970Y-119564500D01*
X101046030Y-119564500D01*
X101046034Y-119564500D01*
X101299243Y-119526335D01*
X101299253Y-119526332D01*
X101543929Y-119450860D01*
X101543930Y-119450859D01*
X101543935Y-119450858D01*
X101774646Y-119339754D01*
X101986219Y-119195505D01*
X102173931Y-119021334D01*
X102333587Y-118821131D01*
X102461622Y-118599369D01*
X102555174Y-118361001D01*
X102612155Y-118111353D01*
X102631291Y-117856000D01*
X104204709Y-117856000D01*
X104223845Y-118111356D01*
X104280826Y-118361002D01*
X104280827Y-118361005D01*
X104374374Y-118599362D01*
X104374376Y-118599366D01*
X104502410Y-118821127D01*
X104502412Y-118821130D01*
X104502413Y-118821131D01*
X104662069Y-119021334D01*
X104849781Y-119195505D01*
X104849787Y-119195509D01*
X105061345Y-119339748D01*
X105061352Y-119339752D01*
X105061355Y-119339754D01*
X105122426Y-119369164D01*
X105292060Y-119450856D01*
X105292073Y-119450861D01*
X105536746Y-119526332D01*
X105536748Y-119526332D01*
X105536757Y-119526335D01*
X105789966Y-119564500D01*
X105789970Y-119564500D01*
X106046030Y-119564500D01*
X106046034Y-119564500D01*
X106299243Y-119526335D01*
X106299253Y-119526332D01*
X106543929Y-119450860D01*
X106543930Y-119450859D01*
X106543935Y-119450858D01*
X106774646Y-119339754D01*
X106986219Y-119195505D01*
X107173931Y-119021334D01*
X107333587Y-118821131D01*
X107461622Y-118599369D01*
X107555174Y-118361001D01*
X107612155Y-118111353D01*
X107631291Y-117856000D01*
X107612155Y-117600647D01*
X107555174Y-117350999D01*
X107474539Y-117145542D01*
X107461625Y-117112637D01*
X107461623Y-117112633D01*
X107333589Y-116890872D01*
X107324751Y-116879789D01*
X107282346Y-116826615D01*
X141026353Y-116826615D01*
X141026353Y-116826628D01*
X141046170Y-117141629D01*
X141046172Y-117141646D01*
X141105317Y-117451689D01*
X141105320Y-117451702D01*
X141202852Y-117751876D01*
X141202857Y-117751889D01*
X141251848Y-117856000D01*
X141337251Y-118037491D01*
X141337253Y-118037494D01*
X141337256Y-118037500D01*
X141506375Y-118303990D01*
X141707576Y-118547200D01*
X141937673Y-118763276D01*
X142092136Y-118875500D01*
X142193034Y-118948806D01*
X142469634Y-119100869D01*
X142763111Y-119217065D01*
X143068838Y-119295562D01*
X143068846Y-119295563D01*
X143068845Y-119295563D01*
X143099678Y-119299458D01*
X143381992Y-119335122D01*
X143381996Y-119335122D01*
X143697630Y-119335122D01*
X143697634Y-119335122D01*
X144010788Y-119295562D01*
X144316515Y-119217065D01*
X144609992Y-119100869D01*
X144886592Y-118948806D01*
X145141953Y-118763276D01*
X145372046Y-118547204D01*
X145573245Y-118303997D01*
X145573247Y-118303992D01*
X145573250Y-118303990D01*
X145739897Y-118041396D01*
X145742375Y-118037491D01*
X145876769Y-117751888D01*
X145974308Y-117451694D01*
X146033454Y-117141642D01*
X146044468Y-116966580D01*
X146053029Y-116830511D01*
X147812713Y-116830511D01*
X147812713Y-116830524D01*
X147832530Y-117145525D01*
X147832532Y-117145542D01*
X147891677Y-117455584D01*
X147891680Y-117455598D01*
X147989212Y-117755772D01*
X147989217Y-117755784D01*
X148123611Y-118041387D01*
X148123613Y-118041390D01*
X148123616Y-118041396D01*
X148292735Y-118307886D01*
X148493936Y-118551096D01*
X148724033Y-118767172D01*
X148974031Y-118948806D01*
X148979394Y-118952702D01*
X149255994Y-119104765D01*
X149549471Y-119220961D01*
X149855198Y-119299458D01*
X149855206Y-119299459D01*
X149855205Y-119299459D01*
X149975781Y-119314691D01*
X150168352Y-119339018D01*
X150168356Y-119339018D01*
X150483990Y-119339018D01*
X150483994Y-119339018D01*
X150797148Y-119299458D01*
X151102875Y-119220961D01*
X151396352Y-119104765D01*
X151672952Y-118952702D01*
X151928313Y-118767172D01*
X152158406Y-118551100D01*
X152359605Y-118307893D01*
X152359607Y-118307888D01*
X152359610Y-118307886D01*
X152528729Y-118041396D01*
X152528735Y-118041387D01*
X152663129Y-117755784D01*
X152760668Y-117455590D01*
X152819814Y-117145538D01*
X152831073Y-116966580D01*
X152839633Y-116830524D01*
X152839633Y-116830511D01*
X152819815Y-116515510D01*
X152819813Y-116515491D01*
X152787766Y-116347500D01*
X152760668Y-116205446D01*
X152663129Y-115905252D01*
X152528735Y-115619649D01*
X152526263Y-115615753D01*
X152359610Y-115353149D01*
X152158409Y-115109939D01*
X152150867Y-115102857D01*
X151928313Y-114893864D01*
X151922951Y-114889968D01*
X151672954Y-114708335D01*
X151606799Y-114671966D01*
X151396352Y-114556271D01*
X151102875Y-114440075D01*
X150797148Y-114361578D01*
X150797143Y-114361577D01*
X150797138Y-114361576D01*
X150797140Y-114361576D01*
X150484008Y-114322019D01*
X150483997Y-114322018D01*
X150483994Y-114322018D01*
X150168352Y-114322018D01*
X150168349Y-114322018D01*
X150168337Y-114322019D01*
X149855206Y-114361576D01*
X149549474Y-114440074D01*
X149549472Y-114440074D01*
X149549471Y-114440075D01*
X149265834Y-114552375D01*
X149255994Y-114556271D01*
X148979391Y-114708335D01*
X148724034Y-114893863D01*
X148724033Y-114893863D01*
X148493936Y-115109939D01*
X148292735Y-115353149D01*
X148123616Y-115619639D01*
X148123609Y-115619653D01*
X147989217Y-115905250D01*
X147989212Y-115905263D01*
X147891680Y-116205437D01*
X147891677Y-116205450D01*
X147832533Y-116515491D01*
X147832530Y-116515510D01*
X147812713Y-116830511D01*
X146053029Y-116830511D01*
X146053273Y-116826628D01*
X146053273Y-116826615D01*
X146033455Y-116511614D01*
X146033453Y-116511597D01*
X146025143Y-116468033D01*
X145974308Y-116201550D01*
X145956746Y-116147500D01*
X145876773Y-115901367D01*
X145876768Y-115901354D01*
X145872743Y-115892800D01*
X145742375Y-115615753D01*
X145742369Y-115615743D01*
X145573250Y-115349253D01*
X145372049Y-115106043D01*
X145141952Y-114889967D01*
X144886594Y-114704439D01*
X144827517Y-114671961D01*
X144609992Y-114552375D01*
X144316515Y-114436179D01*
X144010788Y-114357682D01*
X144010783Y-114357681D01*
X144010778Y-114357680D01*
X144010780Y-114357680D01*
X143697648Y-114318123D01*
X143697637Y-114318122D01*
X143697634Y-114318122D01*
X143381992Y-114318122D01*
X143381989Y-114318122D01*
X143381977Y-114318123D01*
X143068846Y-114357680D01*
X142763114Y-114436178D01*
X142763112Y-114436178D01*
X142763111Y-114436179D01*
X142555094Y-114518539D01*
X142469634Y-114552375D01*
X142193031Y-114704439D01*
X141937674Y-114889967D01*
X141937673Y-114889967D01*
X141707576Y-115106043D01*
X141506375Y-115349253D01*
X141337256Y-115615743D01*
X141337249Y-115615757D01*
X141202857Y-115901354D01*
X141202852Y-115901367D01*
X141105320Y-116201541D01*
X141105317Y-116201554D01*
X141046172Y-116511597D01*
X141046170Y-116511614D01*
X141026353Y-116826615D01*
X107282346Y-116826615D01*
X107173931Y-116690666D01*
X106986219Y-116516495D01*
X106984774Y-116515510D01*
X106893632Y-116453370D01*
X106774646Y-116372246D01*
X106774643Y-116372245D01*
X106774641Y-116372243D01*
X106774640Y-116372242D01*
X106543936Y-116261142D01*
X106543929Y-116261139D01*
X106299253Y-116185667D01*
X106299245Y-116185665D01*
X106299243Y-116185665D01*
X106046034Y-116147500D01*
X105789966Y-116147500D01*
X105536757Y-116185665D01*
X105536755Y-116185665D01*
X105536746Y-116185667D01*
X105292073Y-116261138D01*
X105292060Y-116261143D01*
X105061352Y-116372247D01*
X105061345Y-116372251D01*
X104849787Y-116516490D01*
X104849782Y-116516494D01*
X104662070Y-116690665D01*
X104502410Y-116890872D01*
X104374376Y-117112633D01*
X104374374Y-117112637D01*
X104280827Y-117350994D01*
X104280826Y-117350997D01*
X104223845Y-117600643D01*
X104204709Y-117856000D01*
X102631291Y-117856000D01*
X102612155Y-117600647D01*
X102555174Y-117350999D01*
X102474539Y-117145542D01*
X102461625Y-117112637D01*
X102461623Y-117112633D01*
X102333589Y-116890872D01*
X102324751Y-116879789D01*
X102173931Y-116690666D01*
X101986219Y-116516495D01*
X101984774Y-116515510D01*
X101893632Y-116453370D01*
X101774646Y-116372246D01*
X101774643Y-116372245D01*
X101774641Y-116372243D01*
X101774640Y-116372242D01*
X101543936Y-116261142D01*
X101543929Y-116261139D01*
X101299253Y-116185667D01*
X101299245Y-116185665D01*
X101299243Y-116185665D01*
X101046034Y-116147500D01*
X100789966Y-116147500D01*
X100536757Y-116185665D01*
X100536755Y-116185665D01*
X100536746Y-116185667D01*
X100292073Y-116261138D01*
X100292060Y-116261143D01*
X100061352Y-116372247D01*
X100061345Y-116372251D01*
X99849787Y-116516490D01*
X99849782Y-116516494D01*
X99662070Y-116690665D01*
X99502410Y-116890872D01*
X99374376Y-117112633D01*
X99374374Y-117112637D01*
X99280827Y-117350994D01*
X99280826Y-117350997D01*
X99223845Y-117600643D01*
X99204709Y-117856000D01*
X97631291Y-117856000D01*
X97612155Y-117600647D01*
X97555174Y-117350999D01*
X97474539Y-117145542D01*
X97461625Y-117112637D01*
X97461623Y-117112633D01*
X97333589Y-116890872D01*
X97324751Y-116879789D01*
X97173931Y-116690666D01*
X96986219Y-116516495D01*
X96984774Y-116515510D01*
X96893632Y-116453370D01*
X96774646Y-116372246D01*
X96774643Y-116372245D01*
X96774641Y-116372243D01*
X96774640Y-116372242D01*
X96543936Y-116261142D01*
X96543929Y-116261139D01*
X96299253Y-116185667D01*
X96299245Y-116185665D01*
X96299243Y-116185665D01*
X96046034Y-116147500D01*
X95789966Y-116147500D01*
X95536757Y-116185665D01*
X95536755Y-116185665D01*
X95536746Y-116185667D01*
X95292073Y-116261138D01*
X95292060Y-116261143D01*
X95061352Y-116372247D01*
X95061345Y-116372251D01*
X94849787Y-116516490D01*
X94849782Y-116516494D01*
X94662070Y-116690665D01*
X94502410Y-116890872D01*
X94374376Y-117112633D01*
X94374374Y-117112637D01*
X94280827Y-117350994D01*
X94280826Y-117350997D01*
X94223845Y-117600643D01*
X94204709Y-117856000D01*
X89210681Y-117856000D01*
X91971276Y-115095405D01*
X92033588Y-115061379D01*
X92060371Y-115058500D01*
X95451706Y-115058500D01*
X95540488Y-115040840D01*
X95598247Y-115029351D01*
X95736284Y-114972174D01*
X95860515Y-114889166D01*
X98347129Y-112402552D01*
X100001499Y-112402552D01*
X100012112Y-112506421D01*
X100012112Y-112506423D01*
X100012113Y-112506425D01*
X100067885Y-112674738D01*
X100104832Y-112734638D01*
X100160970Y-112825651D01*
X100160975Y-112825657D01*
X100286342Y-112951024D01*
X100286348Y-112951029D01*
X100286349Y-112951030D01*
X100437262Y-113044115D01*
X100605575Y-113099887D01*
X100633906Y-113102781D01*
X100709448Y-113110500D01*
X100709456Y-113110500D01*
X103610552Y-113110500D01*
X103679798Y-113103424D01*
X103714425Y-113099887D01*
X103882738Y-113044115D01*
X104033651Y-112951030D01*
X104159030Y-112825651D01*
X104252115Y-112674738D01*
X104307887Y-112506425D01*
X104311424Y-112471798D01*
X104318500Y-112402552D01*
X104318500Y-110997999D01*
X105519406Y-110997999D01*
X105519407Y-110998000D01*
X107007536Y-110998000D01*
X106986901Y-111047818D01*
X106960000Y-111183056D01*
X106960000Y-111320944D01*
X106986901Y-111456182D01*
X107007536Y-111506000D01*
X105519407Y-111506000D01*
X105533789Y-111615248D01*
X105596828Y-111850515D01*
X105690035Y-112075537D01*
X105690041Y-112075548D01*
X105811811Y-112286461D01*
X105811816Y-112286468D01*
X105960076Y-112479684D01*
X105960095Y-112479705D01*
X106132294Y-112651904D01*
X106132315Y-112651923D01*
X106325531Y-112800183D01*
X106325538Y-112800188D01*
X106536451Y-112921958D01*
X106536462Y-112921964D01*
X106761484Y-113015171D01*
X106996750Y-113078210D01*
X107238217Y-113109999D01*
X107238227Y-113110000D01*
X107406000Y-113110000D01*
X107406000Y-111904463D01*
X107455818Y-111925099D01*
X107591056Y-111952000D01*
X107728944Y-111952000D01*
X107864182Y-111925099D01*
X107914000Y-111904463D01*
X107914000Y-113110000D01*
X108081773Y-113110000D01*
X108081782Y-113109999D01*
X108323249Y-113078210D01*
X108558515Y-113015171D01*
X108783537Y-112921964D01*
X108783548Y-112921958D01*
X108994461Y-112800188D01*
X108994468Y-112800183D01*
X109187684Y-112651923D01*
X109187705Y-112651904D01*
X109359904Y-112479705D01*
X109359923Y-112479684D01*
X109508183Y-112286468D01*
X109508188Y-112286461D01*
X109518846Y-112268000D01*
X128226502Y-112268000D01*
X128246457Y-112496087D01*
X128260344Y-112547913D01*
X128305715Y-112717240D01*
X128305717Y-112717246D01*
X128402477Y-112924749D01*
X128532541Y-113110500D01*
X128533802Y-113112300D01*
X128695700Y-113274198D01*
X128883251Y-113405523D01*
X129090757Y-113502284D01*
X129311913Y-113561543D01*
X129540000Y-113581498D01*
X129768087Y-113561543D01*
X129989243Y-113502284D01*
X130196749Y-113405523D01*
X130384300Y-113274198D01*
X130546198Y-113112300D01*
X130677523Y-112924749D01*
X130722356Y-112828603D01*
X135524879Y-112828603D01*
X135524879Y-112828616D01*
X135544696Y-113143617D01*
X135544698Y-113143634D01*
X135603843Y-113453677D01*
X135603846Y-113453690D01*
X135701378Y-113753864D01*
X135701383Y-113753877D01*
X135733537Y-113822207D01*
X135835777Y-114039479D01*
X135835779Y-114039482D01*
X135835782Y-114039488D01*
X136004901Y-114305978D01*
X136206102Y-114549188D01*
X136206105Y-114549190D01*
X136206106Y-114549192D01*
X136223875Y-114565878D01*
X136436199Y-114765264D01*
X136607838Y-114889967D01*
X136691560Y-114950794D01*
X136968160Y-115102857D01*
X137261637Y-115219053D01*
X137567364Y-115297550D01*
X137567372Y-115297551D01*
X137567371Y-115297551D01*
X137698254Y-115314085D01*
X137880518Y-115337110D01*
X137880522Y-115337110D01*
X138196156Y-115337110D01*
X138196160Y-115337110D01*
X138509314Y-115297550D01*
X138815041Y-115219053D01*
X139108518Y-115102857D01*
X139385118Y-114950794D01*
X139640479Y-114765264D01*
X139870572Y-114549192D01*
X140071771Y-114305985D01*
X140071773Y-114305980D01*
X140071776Y-114305978D01*
X140209158Y-114089498D01*
X140240901Y-114039479D01*
X140375295Y-113753876D01*
X140472834Y-113453682D01*
X140531980Y-113143630D01*
X140531981Y-113143617D01*
X140550728Y-112845634D01*
X153314310Y-112845634D01*
X153314310Y-112845647D01*
X153334123Y-113160585D01*
X153334125Y-113160602D01*
X153393258Y-113470583D01*
X153393261Y-113470596D01*
X153485300Y-113753861D01*
X154850018Y-113058502D01*
X154865698Y-113137330D01*
X154941080Y-113319319D01*
X155050518Y-113483104D01*
X155079256Y-113511842D01*
X153719368Y-114204739D01*
X153794243Y-114322723D01*
X153995400Y-114565878D01*
X153995402Y-114565881D01*
X154225449Y-114781909D01*
X154225450Y-114781910D01*
X154480751Y-114967397D01*
X154757303Y-115119433D01*
X155050729Y-115235609D01*
X155050735Y-115235611D01*
X155356372Y-115314085D01*
X155356399Y-115314090D01*
X155669464Y-115353639D01*
X155669483Y-115353641D01*
X155985055Y-115353641D01*
X155985073Y-115353639D01*
X156298138Y-115314090D01*
X156298165Y-115314085D01*
X156603803Y-115235611D01*
X156603817Y-115235606D01*
X156733735Y-115184167D01*
X156040131Y-113822891D01*
X156118958Y-113807212D01*
X156300947Y-113731830D01*
X156464732Y-113622392D01*
X156493470Y-113593653D01*
X157188121Y-114956982D01*
X157429087Y-114781909D01*
X157429088Y-114781909D01*
X157659135Y-114565881D01*
X157659144Y-114565871D01*
X157860297Y-114322719D01*
X157860299Y-114322716D01*
X158029386Y-114056277D01*
X158029393Y-114056263D01*
X158163755Y-113770729D01*
X158163759Y-113770720D01*
X158261276Y-113470596D01*
X158261279Y-113470583D01*
X158320412Y-113160602D01*
X158320414Y-113160585D01*
X158340228Y-112845647D01*
X158340228Y-112845634D01*
X158320414Y-112530696D01*
X158320412Y-112530679D01*
X158261279Y-112220698D01*
X158261276Y-112220685D01*
X158169237Y-111937419D01*
X158169236Y-111937419D01*
X156804519Y-112632776D01*
X156788840Y-112553952D01*
X156713458Y-112371963D01*
X156604020Y-112208178D01*
X156575279Y-112179437D01*
X157935169Y-111486541D01*
X157860299Y-111368565D01*
X157860297Y-111368562D01*
X157659144Y-111125410D01*
X157659135Y-111125400D01*
X157429088Y-110909372D01*
X157429087Y-110909371D01*
X157173786Y-110723884D01*
X156897234Y-110571848D01*
X156603808Y-110455672D01*
X156603802Y-110455670D01*
X156298165Y-110377196D01*
X156298138Y-110377191D01*
X155985073Y-110337642D01*
X155985055Y-110337641D01*
X155669483Y-110337641D01*
X155669464Y-110337642D01*
X155356399Y-110377191D01*
X155356372Y-110377196D01*
X155050734Y-110455671D01*
X155050716Y-110455677D01*
X154920801Y-110507114D01*
X155614405Y-111868390D01*
X155535580Y-111884070D01*
X155353591Y-111959452D01*
X155189806Y-112068890D01*
X155161066Y-112097629D01*
X154466415Y-110734298D01*
X154225453Y-110909369D01*
X153995402Y-111125400D01*
X153995393Y-111125410D01*
X153794240Y-111368562D01*
X153794238Y-111368565D01*
X153625151Y-111635004D01*
X153625144Y-111635018D01*
X153490782Y-111920552D01*
X153490778Y-111920561D01*
X153393261Y-112220685D01*
X153393258Y-112220698D01*
X153334125Y-112530679D01*
X153334123Y-112530696D01*
X153314310Y-112845634D01*
X140550728Y-112845634D01*
X140551799Y-112828616D01*
X140551799Y-112828603D01*
X140531981Y-112513602D01*
X140531979Y-112513585D01*
X140530612Y-112506421D01*
X140472834Y-112203538D01*
X140458107Y-112158215D01*
X140375299Y-111903355D01*
X140375294Y-111903342D01*
X140357385Y-111865283D01*
X140240901Y-111617741D01*
X140237726Y-111612738D01*
X140071776Y-111351241D01*
X139870575Y-111108031D01*
X139728333Y-110974457D01*
X139640479Y-110891956D01*
X139423481Y-110734298D01*
X139385120Y-110706427D01*
X139287944Y-110653004D01*
X139108518Y-110554363D01*
X138815041Y-110438167D01*
X138509314Y-110359670D01*
X138509309Y-110359669D01*
X138509304Y-110359668D01*
X138509306Y-110359668D01*
X138196174Y-110320111D01*
X138196163Y-110320110D01*
X138196160Y-110320110D01*
X137880518Y-110320110D01*
X137880515Y-110320110D01*
X137880503Y-110320111D01*
X137567372Y-110359668D01*
X137261640Y-110438166D01*
X137261638Y-110438166D01*
X137261637Y-110438167D01*
X137181999Y-110469698D01*
X136968160Y-110554363D01*
X136691557Y-110706427D01*
X136436200Y-110891955D01*
X136436199Y-110891955D01*
X136206102Y-111108031D01*
X136004901Y-111351241D01*
X135835782Y-111617731D01*
X135835775Y-111617745D01*
X135701383Y-111903342D01*
X135701378Y-111903355D01*
X135603846Y-112203529D01*
X135603843Y-112203542D01*
X135544698Y-112513585D01*
X135544696Y-112513602D01*
X135524879Y-112828603D01*
X130722356Y-112828603D01*
X130774284Y-112717243D01*
X130833543Y-112496087D01*
X130853498Y-112268000D01*
X130833543Y-112039913D01*
X130774284Y-111818757D01*
X130677523Y-111611251D01*
X130546198Y-111423700D01*
X130384300Y-111261802D01*
X130196749Y-111130477D01*
X130148607Y-111108028D01*
X129989246Y-111033717D01*
X129989240Y-111033715D01*
X129855946Y-110997999D01*
X129768087Y-110974457D01*
X129540000Y-110954502D01*
X129311913Y-110974457D01*
X129090759Y-111033715D01*
X129090753Y-111033717D01*
X128883250Y-111130477D01*
X128695703Y-111261799D01*
X128695697Y-111261804D01*
X128533804Y-111423697D01*
X128533799Y-111423703D01*
X128402477Y-111611250D01*
X128305717Y-111818753D01*
X128305715Y-111818759D01*
X128259962Y-111989513D01*
X128246457Y-112039913D01*
X128226502Y-112268000D01*
X109518846Y-112268000D01*
X109629958Y-112075548D01*
X109629964Y-112075537D01*
X109723171Y-111850515D01*
X109786210Y-111615248D01*
X109800593Y-111506000D01*
X108312464Y-111506000D01*
X108333099Y-111456182D01*
X108360000Y-111320944D01*
X108360000Y-111183056D01*
X108333099Y-111047818D01*
X108312464Y-110998000D01*
X109800593Y-110998000D01*
X109800593Y-110997999D01*
X109786210Y-110888751D01*
X109723171Y-110653484D01*
X109629964Y-110428462D01*
X109629958Y-110428451D01*
X109508188Y-110217538D01*
X109508183Y-110217531D01*
X109359923Y-110024315D01*
X109359904Y-110024294D01*
X109187705Y-109852095D01*
X109187684Y-109852076D01*
X108994468Y-109703816D01*
X108994461Y-109703811D01*
X108783548Y-109582041D01*
X108783537Y-109582035D01*
X108558515Y-109488828D01*
X108323249Y-109425789D01*
X108081782Y-109394000D01*
X107914000Y-109394000D01*
X107914000Y-110599536D01*
X107864182Y-110578901D01*
X107728944Y-110552000D01*
X107591056Y-110552000D01*
X107455818Y-110578901D01*
X107406000Y-110599536D01*
X107406000Y-109394000D01*
X107238217Y-109394000D01*
X106996750Y-109425789D01*
X106761484Y-109488828D01*
X106536462Y-109582035D01*
X106536451Y-109582041D01*
X106325538Y-109703811D01*
X106325531Y-109703816D01*
X106132315Y-109852076D01*
X106132294Y-109852095D01*
X105960095Y-110024294D01*
X105960076Y-110024315D01*
X105811816Y-110217531D01*
X105811811Y-110217538D01*
X105690041Y-110428451D01*
X105690035Y-110428462D01*
X105596828Y-110653484D01*
X105533789Y-110888751D01*
X105519406Y-110997999D01*
X104318500Y-110997999D01*
X104318500Y-110101447D01*
X104307887Y-109997578D01*
X104307887Y-109997575D01*
X104252115Y-109829262D01*
X104159030Y-109678349D01*
X104159029Y-109678348D01*
X104159024Y-109678342D01*
X104033657Y-109552975D01*
X104033651Y-109552970D01*
X103960953Y-109508129D01*
X103882738Y-109459885D01*
X103714425Y-109404113D01*
X103714423Y-109404112D01*
X103714421Y-109404112D01*
X103610552Y-109393500D01*
X103610544Y-109393500D01*
X100709456Y-109393500D01*
X100709448Y-109393500D01*
X100605578Y-109404112D01*
X100437262Y-109459885D01*
X100437260Y-109459886D01*
X100286348Y-109552970D01*
X100286342Y-109552975D01*
X100160975Y-109678342D01*
X100160970Y-109678348D01*
X100067886Y-109829260D01*
X100067885Y-109829262D01*
X100012112Y-109997578D01*
X100001500Y-110101447D01*
X100001500Y-112402552D01*
X100001499Y-112402552D01*
X98347129Y-112402552D01*
X98760166Y-111989515D01*
X98843174Y-111865284D01*
X98900351Y-111727246D01*
X98929500Y-111580705D01*
X98929500Y-111431295D01*
X98929500Y-108712000D01*
X112181793Y-108712000D01*
X112200593Y-108962869D01*
X112200594Y-108962873D01*
X112256571Y-109208129D01*
X112348479Y-109442309D01*
X112348481Y-109442313D01*
X112474266Y-109660180D01*
X112474268Y-109660183D01*
X112474269Y-109660184D01*
X112488754Y-109678348D01*
X112631125Y-109856876D01*
X112767134Y-109983072D01*
X112815538Y-110027984D01*
X112815544Y-110027988D01*
X113023387Y-110169694D01*
X113023394Y-110169698D01*
X113023397Y-110169700D01*
X113250055Y-110278853D01*
X113250058Y-110278853D01*
X113250063Y-110278856D01*
X113490440Y-110353002D01*
X113490442Y-110353002D01*
X113490451Y-110353005D01*
X113739214Y-110390500D01*
X113739218Y-110390500D01*
X113990782Y-110390500D01*
X113990786Y-110390500D01*
X114239549Y-110353005D01*
X114320653Y-110327988D01*
X114479936Y-110278856D01*
X114479938Y-110278854D01*
X114479945Y-110278853D01*
X114706604Y-110169700D01*
X114914462Y-110027984D01*
X115098878Y-109856872D01*
X115255731Y-109660184D01*
X115381517Y-109442316D01*
X115388004Y-109425789D01*
X115451943Y-109262873D01*
X115473427Y-109208134D01*
X115529407Y-108962869D01*
X115548207Y-108712000D01*
X115529407Y-108461131D01*
X115473427Y-108215866D01*
X115419653Y-108078853D01*
X115381520Y-107981690D01*
X115381518Y-107981686D01*
X115374594Y-107969694D01*
X115292781Y-107827988D01*
X115255733Y-107763819D01*
X115228913Y-107730188D01*
X115098878Y-107567128D01*
X115098877Y-107567127D01*
X115098874Y-107567123D01*
X114929215Y-107409705D01*
X114914462Y-107396016D01*
X114860913Y-107359507D01*
X114822768Y-107333500D01*
X114706606Y-107254301D01*
X114479949Y-107145148D01*
X114479936Y-107145143D01*
X114239559Y-107070997D01*
X114239551Y-107070995D01*
X114239549Y-107070995D01*
X113990786Y-107033500D01*
X113739214Y-107033500D01*
X113490451Y-107070995D01*
X113490449Y-107070995D01*
X113490440Y-107070997D01*
X113250063Y-107145143D01*
X113250051Y-107145148D01*
X113023394Y-107254301D01*
X113023387Y-107254305D01*
X112815544Y-107396011D01*
X112815532Y-107396021D01*
X112631125Y-107567123D01*
X112474266Y-107763819D01*
X112348481Y-107981686D01*
X112348479Y-107981690D01*
X112256571Y-108215870D01*
X112218028Y-108384741D01*
X112200593Y-108461131D01*
X112181793Y-108712000D01*
X98929500Y-108712000D01*
X98929500Y-106214491D01*
X116614500Y-106214491D01*
X116614500Y-106509508D01*
X116653005Y-106801985D01*
X116653006Y-106801991D01*
X116653007Y-106801993D01*
X116729361Y-107086952D01*
X116842257Y-107359507D01*
X116842258Y-107359508D01*
X116842263Y-107359519D01*
X116989759Y-107614990D01*
X116989764Y-107614997D01*
X117169346Y-107849033D01*
X117169365Y-107849054D01*
X117377945Y-108057634D01*
X117377966Y-108057653D01*
X117612002Y-108237235D01*
X117612009Y-108237240D01*
X117867480Y-108384736D01*
X117867484Y-108384737D01*
X117867493Y-108384743D01*
X118140048Y-108497639D01*
X118425007Y-108573993D01*
X118425013Y-108573993D01*
X118425014Y-108573994D01*
X118458574Y-108578412D01*
X118717494Y-108612500D01*
X118717501Y-108612500D01*
X119012499Y-108612500D01*
X119012506Y-108612500D01*
X119304993Y-108573993D01*
X119589952Y-108497639D01*
X119862507Y-108384743D01*
X120117994Y-108237238D01*
X120352042Y-108057646D01*
X120560646Y-107849042D01*
X120740238Y-107614994D01*
X120887743Y-107359507D01*
X121000639Y-107086952D01*
X121076993Y-106801993D01*
X121115500Y-106509506D01*
X121115500Y-106214494D01*
X121115172Y-106212000D01*
X122181793Y-106212000D01*
X122200593Y-106462869D01*
X122200594Y-106462873D01*
X122256571Y-106708129D01*
X122348479Y-106942309D01*
X122348481Y-106942313D01*
X122474266Y-107160180D01*
X122631125Y-107356876D01*
X122767134Y-107483072D01*
X122815538Y-107527984D01*
X122815544Y-107527988D01*
X123023387Y-107669694D01*
X123023394Y-107669698D01*
X123023397Y-107669700D01*
X123250055Y-107778853D01*
X123250058Y-107778853D01*
X123250063Y-107778856D01*
X123490440Y-107853002D01*
X123490442Y-107853002D01*
X123490451Y-107853005D01*
X123739214Y-107890500D01*
X123739218Y-107890500D01*
X123990782Y-107890500D01*
X123990786Y-107890500D01*
X124239549Y-107853005D01*
X124242924Y-107851964D01*
X124479936Y-107778856D01*
X124479938Y-107778854D01*
X124479945Y-107778853D01*
X124706604Y-107669700D01*
X124914462Y-107527984D01*
X125098878Y-107356872D01*
X125255731Y-107160184D01*
X125381517Y-106942316D01*
X125473427Y-106708134D01*
X125529407Y-106462869D01*
X125535785Y-106377757D01*
X133425547Y-106377757D01*
X133425547Y-106377770D01*
X133445364Y-106692771D01*
X133445366Y-106692788D01*
X133504511Y-107002831D01*
X133504514Y-107002844D01*
X133602046Y-107303018D01*
X133602051Y-107303031D01*
X133645804Y-107396011D01*
X133736445Y-107588633D01*
X133736447Y-107588636D01*
X133736450Y-107588642D01*
X133905569Y-107855132D01*
X134106770Y-108098342D01*
X134336867Y-108314418D01*
X134589048Y-108497638D01*
X134592228Y-108499948D01*
X134868828Y-108652011D01*
X135162305Y-108768207D01*
X135468032Y-108846704D01*
X135468040Y-108846705D01*
X135468039Y-108846705D01*
X135632136Y-108867434D01*
X135781186Y-108886264D01*
X135781190Y-108886264D01*
X136096824Y-108886264D01*
X136096828Y-108886264D01*
X136409982Y-108846704D01*
X136715709Y-108768207D01*
X137009186Y-108652011D01*
X137285786Y-108499948D01*
X137541147Y-108314418D01*
X137771240Y-108098346D01*
X137972439Y-107855139D01*
X137972441Y-107855134D01*
X137972444Y-107855132D01*
X138141563Y-107588642D01*
X138141569Y-107588633D01*
X138275963Y-107303030D01*
X138373502Y-107002836D01*
X138432648Y-106692784D01*
X138433501Y-106679224D01*
X138452467Y-106377770D01*
X138452467Y-106377757D01*
X138451614Y-106364193D01*
X155425541Y-106364193D01*
X155425541Y-106364206D01*
X155445358Y-106679207D01*
X155445360Y-106679224D01*
X155504505Y-106989267D01*
X155504508Y-106989280D01*
X155602040Y-107289454D01*
X155602045Y-107289467D01*
X155635004Y-107359508D01*
X155736439Y-107575069D01*
X155736441Y-107575072D01*
X155736444Y-107575078D01*
X155905563Y-107841568D01*
X156106764Y-108084778D01*
X156106767Y-108084780D01*
X156106768Y-108084782D01*
X156336861Y-108300854D01*
X156592222Y-108486384D01*
X156868822Y-108638447D01*
X157162299Y-108754643D01*
X157468026Y-108833140D01*
X157468034Y-108833141D01*
X157468033Y-108833141D01*
X157632130Y-108853870D01*
X157781180Y-108872700D01*
X157781184Y-108872700D01*
X158096818Y-108872700D01*
X158096822Y-108872700D01*
X158409976Y-108833140D01*
X158715703Y-108754643D01*
X159009180Y-108638447D01*
X159285780Y-108486384D01*
X159541141Y-108300854D01*
X159771234Y-108084782D01*
X159972433Y-107841575D01*
X159972435Y-107841570D01*
X159972438Y-107841568D01*
X160141557Y-107575078D01*
X160141563Y-107575069D01*
X160275957Y-107289466D01*
X160287383Y-107254302D01*
X160295592Y-107229035D01*
X160373496Y-106989272D01*
X160432642Y-106679220D01*
X160432643Y-106679207D01*
X160452461Y-106364206D01*
X160452461Y-106364193D01*
X160432643Y-106049192D01*
X160432641Y-106049175D01*
X160426287Y-106015866D01*
X160373496Y-105739128D01*
X160312183Y-105550426D01*
X160275961Y-105438945D01*
X160275956Y-105438932D01*
X160241260Y-105365199D01*
X160141563Y-105153331D01*
X160141557Y-105153321D01*
X159972438Y-104886831D01*
X159771237Y-104643621D01*
X159693900Y-104570997D01*
X159541141Y-104427546D01*
X159541140Y-104427545D01*
X159285782Y-104242017D01*
X159212260Y-104201598D01*
X159009180Y-104089953D01*
X158715703Y-103973757D01*
X158409976Y-103895260D01*
X158409971Y-103895259D01*
X158409966Y-103895258D01*
X158409968Y-103895258D01*
X158096836Y-103855701D01*
X158096825Y-103855700D01*
X158096822Y-103855700D01*
X157781180Y-103855700D01*
X157781177Y-103855700D01*
X157781165Y-103855701D01*
X157468034Y-103895258D01*
X157162302Y-103973756D01*
X157162300Y-103973756D01*
X157162299Y-103973757D01*
X157065706Y-104012001D01*
X156868822Y-104089953D01*
X156592219Y-104242017D01*
X156336862Y-104427545D01*
X156336861Y-104427545D01*
X156106764Y-104643621D01*
X155905563Y-104886831D01*
X155736444Y-105153321D01*
X155736437Y-105153335D01*
X155602045Y-105438932D01*
X155602040Y-105438945D01*
X155504508Y-105739119D01*
X155504505Y-105739132D01*
X155445360Y-106049175D01*
X155445358Y-106049192D01*
X155425541Y-106364193D01*
X138451614Y-106364193D01*
X138432649Y-106062756D01*
X138432647Y-106062739D01*
X138430063Y-106049192D01*
X138373502Y-105752692D01*
X138332987Y-105628000D01*
X138275967Y-105452509D01*
X138275962Y-105452496D01*
X138235791Y-105367128D01*
X138141569Y-105166895D01*
X138132955Y-105153321D01*
X137972444Y-104900395D01*
X137771243Y-104657185D01*
X137541146Y-104441109D01*
X137285788Y-104255581D01*
X137232637Y-104226361D01*
X137009186Y-104103517D01*
X136715709Y-103987321D01*
X136409982Y-103908824D01*
X136409977Y-103908823D01*
X136409972Y-103908822D01*
X136409974Y-103908822D01*
X136096842Y-103869265D01*
X136096831Y-103869264D01*
X136096828Y-103869264D01*
X135781186Y-103869264D01*
X135781183Y-103869264D01*
X135781171Y-103869265D01*
X135468040Y-103908822D01*
X135468032Y-103908823D01*
X135468032Y-103908824D01*
X135409817Y-103923770D01*
X135162308Y-103987320D01*
X135162306Y-103987320D01*
X135162305Y-103987321D01*
X134938280Y-104076019D01*
X134868828Y-104103517D01*
X134592225Y-104255581D01*
X134336868Y-104441109D01*
X134336867Y-104441109D01*
X134106770Y-104657185D01*
X133905569Y-104900395D01*
X133736450Y-105166885D01*
X133736443Y-105166899D01*
X133602051Y-105452496D01*
X133602046Y-105452509D01*
X133504514Y-105752683D01*
X133504511Y-105752696D01*
X133445366Y-106062739D01*
X133445364Y-106062756D01*
X133425547Y-106377757D01*
X125535785Y-106377757D01*
X125548207Y-106212000D01*
X125529407Y-105961131D01*
X125473427Y-105715866D01*
X125413752Y-105563816D01*
X125381520Y-105481690D01*
X125381518Y-105481686D01*
X125255733Y-105263819D01*
X125201661Y-105196015D01*
X125098878Y-105067128D01*
X125098877Y-105067127D01*
X125098874Y-105067123D01*
X124914467Y-104896021D01*
X124914461Y-104896015D01*
X124712708Y-104758462D01*
X124706606Y-104754301D01*
X124479949Y-104645148D01*
X124479936Y-104645143D01*
X124239559Y-104570997D01*
X124239551Y-104570995D01*
X124239549Y-104570995D01*
X123990786Y-104533500D01*
X123739214Y-104533500D01*
X123490451Y-104570995D01*
X123490449Y-104570995D01*
X123490440Y-104570997D01*
X123250063Y-104645143D01*
X123250051Y-104645148D01*
X123023394Y-104754301D01*
X123023387Y-104754305D01*
X122815544Y-104896011D01*
X122815532Y-104896021D01*
X122631125Y-105067123D01*
X122474266Y-105263819D01*
X122348481Y-105481686D01*
X122348479Y-105481690D01*
X122256571Y-105715870D01*
X122209521Y-105922014D01*
X122200593Y-105961131D01*
X122181793Y-106212000D01*
X121115172Y-106212000D01*
X121076993Y-105922007D01*
X121000639Y-105637048D01*
X120887743Y-105364493D01*
X120887737Y-105364484D01*
X120887736Y-105364480D01*
X120740240Y-105109009D01*
X120740235Y-105109002D01*
X120560653Y-104874966D01*
X120560634Y-104874945D01*
X120352054Y-104666365D01*
X120352033Y-104666346D01*
X120117997Y-104486764D01*
X120117990Y-104486759D01*
X119862519Y-104339263D01*
X119862511Y-104339259D01*
X119862507Y-104339257D01*
X119589952Y-104226361D01*
X119304993Y-104150007D01*
X119304991Y-104150006D01*
X119304985Y-104150005D01*
X119012508Y-104111500D01*
X119012506Y-104111500D01*
X118717494Y-104111500D01*
X118717491Y-104111500D01*
X118425014Y-104150005D01*
X118140048Y-104226361D01*
X118102254Y-104242016D01*
X117867491Y-104339258D01*
X117867480Y-104339263D01*
X117612009Y-104486759D01*
X117612002Y-104486764D01*
X117377966Y-104666346D01*
X117377945Y-104666365D01*
X117169365Y-104874945D01*
X117169346Y-104874966D01*
X116989764Y-105109002D01*
X116989759Y-105109009D01*
X116842263Y-105364480D01*
X116842258Y-105364491D01*
X116842257Y-105364493D01*
X116765241Y-105550426D01*
X116729361Y-105637048D01*
X116653005Y-105922014D01*
X116614500Y-106214491D01*
X98929500Y-106214491D01*
X98929500Y-103712000D01*
X112181793Y-103712000D01*
X112200593Y-103962869D01*
X112200594Y-103962873D01*
X112256571Y-104208129D01*
X112348479Y-104442309D01*
X112348481Y-104442313D01*
X112474266Y-104660180D01*
X112474268Y-104660183D01*
X112474269Y-104660184D01*
X112479198Y-104666365D01*
X112631125Y-104856876D01*
X112767134Y-104983072D01*
X112815538Y-105027984D01*
X112815544Y-105027988D01*
X113023387Y-105169694D01*
X113023394Y-105169698D01*
X113023397Y-105169700D01*
X113250055Y-105278853D01*
X113250058Y-105278853D01*
X113250063Y-105278856D01*
X113490440Y-105353002D01*
X113490442Y-105353002D01*
X113490451Y-105353005D01*
X113739214Y-105390500D01*
X113739218Y-105390500D01*
X113990782Y-105390500D01*
X113990786Y-105390500D01*
X114239549Y-105353005D01*
X114287306Y-105338274D01*
X114479936Y-105278856D01*
X114479938Y-105278854D01*
X114479945Y-105278853D01*
X114706604Y-105169700D01*
X114914462Y-105027984D01*
X115098878Y-104856872D01*
X115255731Y-104660184D01*
X115381517Y-104442316D01*
X115381991Y-104441110D01*
X115421965Y-104339257D01*
X115473427Y-104208134D01*
X115529407Y-103962869D01*
X115548207Y-103712000D01*
X115529407Y-103461131D01*
X115473427Y-103215866D01*
X115414312Y-103065243D01*
X115381520Y-102981690D01*
X115381518Y-102981686D01*
X115355187Y-102936080D01*
X115312190Y-102861606D01*
X115255733Y-102763819D01*
X115179847Y-102668661D01*
X115098878Y-102567128D01*
X115098877Y-102567127D01*
X115098874Y-102567123D01*
X114914467Y-102396021D01*
X114914461Y-102396015D01*
X114823502Y-102334000D01*
X114706606Y-102254301D01*
X114479949Y-102145148D01*
X114479936Y-102145143D01*
X114359521Y-102108000D01*
X128226502Y-102108000D01*
X128246457Y-102336087D01*
X128265335Y-102406539D01*
X128305715Y-102557240D01*
X128305717Y-102557246D01*
X128402477Y-102764749D01*
X128522444Y-102936080D01*
X128533802Y-102952300D01*
X128695700Y-103114198D01*
X128883251Y-103245523D01*
X129090757Y-103342284D01*
X129311913Y-103401543D01*
X129540000Y-103421498D01*
X129768087Y-103401543D01*
X129989243Y-103342284D01*
X130196749Y-103245523D01*
X130384300Y-103114198D01*
X130546198Y-102952300D01*
X130677523Y-102764749D01*
X130774284Y-102557243D01*
X130833543Y-102336087D01*
X130853498Y-102108000D01*
X130833543Y-101879913D01*
X130774284Y-101658757D01*
X130677523Y-101451251D01*
X130546198Y-101263700D01*
X130384300Y-101101802D01*
X130380995Y-101099488D01*
X130196749Y-100970477D01*
X129989246Y-100873717D01*
X129989240Y-100873715D01*
X129819376Y-100828200D01*
X129768087Y-100814457D01*
X129540000Y-100794502D01*
X129311913Y-100814457D01*
X129090759Y-100873715D01*
X129090753Y-100873717D01*
X128883250Y-100970477D01*
X128695703Y-101101799D01*
X128695697Y-101101804D01*
X128533804Y-101263697D01*
X128533799Y-101263703D01*
X128402477Y-101451250D01*
X128305717Y-101658753D01*
X128305715Y-101658759D01*
X128259147Y-101832552D01*
X128246457Y-101879913D01*
X128226502Y-102108000D01*
X114359521Y-102108000D01*
X114239559Y-102070997D01*
X114239551Y-102070995D01*
X114239549Y-102070995D01*
X113990786Y-102033500D01*
X113739214Y-102033500D01*
X113490451Y-102070995D01*
X113490449Y-102070995D01*
X113490440Y-102070997D01*
X113250063Y-102145143D01*
X113250051Y-102145148D01*
X113023394Y-102254301D01*
X113023387Y-102254305D01*
X112815544Y-102396011D01*
X112815532Y-102396021D01*
X112631125Y-102567123D01*
X112474266Y-102763819D01*
X112348481Y-102981686D01*
X112348479Y-102981690D01*
X112256571Y-103215870D01*
X112200783Y-103460300D01*
X112200593Y-103461131D01*
X112181793Y-103712000D01*
X98929500Y-103712000D01*
X98929500Y-99961056D01*
X135481849Y-99961056D01*
X135481849Y-99961069D01*
X135501666Y-100276070D01*
X135501668Y-100276087D01*
X135560813Y-100586130D01*
X135560816Y-100586143D01*
X135658348Y-100886317D01*
X135658353Y-100886329D01*
X135792747Y-101171932D01*
X135792749Y-101171935D01*
X135792752Y-101171941D01*
X135961871Y-101438431D01*
X136163072Y-101681641D01*
X136163075Y-101681643D01*
X136163076Y-101681645D01*
X136374210Y-101879913D01*
X136393169Y-101897717D01*
X136631666Y-102070995D01*
X136648530Y-102083247D01*
X136925130Y-102235310D01*
X137218607Y-102351506D01*
X137524334Y-102430003D01*
X137524342Y-102430004D01*
X137524341Y-102430004D01*
X137647878Y-102445610D01*
X137837488Y-102469563D01*
X137837492Y-102469563D01*
X138153126Y-102469563D01*
X138153130Y-102469563D01*
X138466284Y-102430003D01*
X138772011Y-102351506D01*
X139065488Y-102235310D01*
X139342088Y-102083247D01*
X139597449Y-101897717D01*
X139827542Y-101681645D01*
X140028741Y-101438438D01*
X140028743Y-101438433D01*
X140028746Y-101438431D01*
X140158264Y-101234342D01*
X140197871Y-101171932D01*
X140332265Y-100886329D01*
X140429804Y-100586135D01*
X140488950Y-100276083D01*
X140492916Y-100213048D01*
X140508769Y-99961069D01*
X140508769Y-99961056D01*
X140504804Y-99898034D01*
X153323767Y-99898034D01*
X153323767Y-99898047D01*
X153343584Y-100213048D01*
X153343586Y-100213065D01*
X153402731Y-100523108D01*
X153402734Y-100523121D01*
X153500266Y-100823295D01*
X153500271Y-100823308D01*
X153529927Y-100886330D01*
X153634665Y-101108910D01*
X153634667Y-101108913D01*
X153634670Y-101108919D01*
X153803789Y-101375409D01*
X154004990Y-101618619D01*
X154004993Y-101618621D01*
X154004994Y-101618623D01*
X154235087Y-101834695D01*
X154490448Y-102020225D01*
X154767048Y-102172288D01*
X155060525Y-102288484D01*
X155366252Y-102366981D01*
X155366260Y-102366982D01*
X155366259Y-102366982D01*
X155401897Y-102371484D01*
X155679406Y-102406541D01*
X155679410Y-102406541D01*
X155995044Y-102406541D01*
X155995048Y-102406541D01*
X156308202Y-102366981D01*
X156613929Y-102288484D01*
X156907406Y-102172288D01*
X157184006Y-102020225D01*
X157439367Y-101834695D01*
X157669460Y-101618623D01*
X157870659Y-101375416D01*
X157870661Y-101375411D01*
X157870664Y-101375409D01*
X158022916Y-101135498D01*
X158039789Y-101108910D01*
X158174183Y-100823307D01*
X158271722Y-100523113D01*
X158330868Y-100213061D01*
X158330869Y-100213048D01*
X158350687Y-99898047D01*
X158350687Y-99898034D01*
X158330869Y-99583033D01*
X158330867Y-99583016D01*
X158290758Y-99372759D01*
X158271722Y-99272969D01*
X158194660Y-99035797D01*
X158174187Y-98972786D01*
X158174182Y-98972773D01*
X158154740Y-98931456D01*
X158039789Y-98687172D01*
X158022077Y-98659262D01*
X157870664Y-98420672D01*
X157669463Y-98177462D01*
X157439366Y-97961386D01*
X157184008Y-97775858D01*
X157107614Y-97733860D01*
X156907406Y-97623794D01*
X156613929Y-97507598D01*
X156308202Y-97429101D01*
X156308197Y-97429100D01*
X156308192Y-97429099D01*
X156308194Y-97429099D01*
X155995062Y-97389542D01*
X155995051Y-97389541D01*
X155995048Y-97389541D01*
X155679406Y-97389541D01*
X155679403Y-97389541D01*
X155679391Y-97389542D01*
X155366260Y-97429099D01*
X155060528Y-97507597D01*
X155060526Y-97507597D01*
X155060525Y-97507598D01*
X154901350Y-97570620D01*
X154767048Y-97623794D01*
X154490445Y-97775858D01*
X154235088Y-97961386D01*
X154235087Y-97961386D01*
X154004990Y-98177462D01*
X153803789Y-98420672D01*
X153634670Y-98687162D01*
X153634663Y-98687176D01*
X153500271Y-98972773D01*
X153500266Y-98972786D01*
X153402734Y-99272960D01*
X153402731Y-99272973D01*
X153343586Y-99583016D01*
X153343584Y-99583033D01*
X153323767Y-99898034D01*
X140504804Y-99898034D01*
X140488951Y-99646055D01*
X140488949Y-99646038D01*
X140429804Y-99335991D01*
X140332265Y-99035797D01*
X140197871Y-98750194D01*
X140157879Y-98687176D01*
X140028746Y-98483694D01*
X139827545Y-98240484D01*
X139817638Y-98231181D01*
X139597449Y-98024409D01*
X139597448Y-98024408D01*
X139342090Y-97838880D01*
X139288346Y-97809334D01*
X139065488Y-97686816D01*
X138772011Y-97570620D01*
X138466284Y-97492123D01*
X138466279Y-97492122D01*
X138466274Y-97492121D01*
X138466276Y-97492121D01*
X138153144Y-97452564D01*
X138153133Y-97452563D01*
X138153130Y-97452563D01*
X137837488Y-97452563D01*
X137837485Y-97452563D01*
X137837473Y-97452564D01*
X137524342Y-97492121D01*
X137218610Y-97570619D01*
X137218608Y-97570619D01*
X137218607Y-97570620D01*
X137032346Y-97644366D01*
X136925130Y-97686816D01*
X136648527Y-97838880D01*
X136393170Y-98024408D01*
X136393169Y-98024408D01*
X136163072Y-98240484D01*
X135961871Y-98483694D01*
X135792752Y-98750184D01*
X135792745Y-98750198D01*
X135658353Y-99035795D01*
X135658348Y-99035808D01*
X135560816Y-99335982D01*
X135560813Y-99335995D01*
X135501668Y-99646038D01*
X135501666Y-99646055D01*
X135481849Y-99961056D01*
X98929500Y-99961056D01*
X98929500Y-98283370D01*
X98949502Y-98215249D01*
X98966400Y-98194280D01*
X100259680Y-96901000D01*
X102394709Y-96901000D01*
X102413845Y-97156356D01*
X102470826Y-97406002D01*
X102470827Y-97406005D01*
X102564374Y-97644362D01*
X102564376Y-97644366D01*
X102692410Y-97866127D01*
X102692412Y-97866130D01*
X102692413Y-97866131D01*
X102852069Y-98066334D01*
X103039781Y-98240505D01*
X103039787Y-98240509D01*
X103251345Y-98384748D01*
X103251352Y-98384752D01*
X103251355Y-98384754D01*
X103325940Y-98420672D01*
X103482060Y-98495856D01*
X103482073Y-98495861D01*
X103726746Y-98571332D01*
X103726748Y-98571332D01*
X103726757Y-98571335D01*
X103979966Y-98609500D01*
X103979970Y-98609500D01*
X104236030Y-98609500D01*
X104236034Y-98609500D01*
X104489243Y-98571335D01*
X104693440Y-98508349D01*
X104733929Y-98495860D01*
X104733930Y-98495859D01*
X104733935Y-98495858D01*
X104964646Y-98384754D01*
X105176219Y-98240505D01*
X105363931Y-98066334D01*
X105523587Y-97866131D01*
X105651622Y-97644369D01*
X105660105Y-97622756D01*
X105686246Y-97556146D01*
X105745174Y-97406001D01*
X105802155Y-97156353D01*
X105821291Y-96901000D01*
X105802155Y-96645647D01*
X105745174Y-96395999D01*
X105735202Y-96370591D01*
X105651625Y-96157637D01*
X105651623Y-96157633D01*
X105640865Y-96139000D01*
X107506709Y-96139000D01*
X107525845Y-96394356D01*
X107582826Y-96644002D01*
X107582827Y-96644005D01*
X107676374Y-96882362D01*
X107676376Y-96882366D01*
X107804410Y-97104127D01*
X107804412Y-97104130D01*
X107804413Y-97104131D01*
X107964069Y-97304334D01*
X108151781Y-97478505D01*
X108151787Y-97478509D01*
X108363345Y-97622748D01*
X108363352Y-97622752D01*
X108363355Y-97622754D01*
X108496360Y-97686806D01*
X108594060Y-97733856D01*
X108594073Y-97733861D01*
X108838746Y-97809332D01*
X108838748Y-97809332D01*
X108838757Y-97809335D01*
X109091966Y-97847500D01*
X109091970Y-97847500D01*
X109348030Y-97847500D01*
X109348034Y-97847500D01*
X109601243Y-97809335D01*
X109602838Y-97808843D01*
X109845929Y-97733860D01*
X109845930Y-97733859D01*
X109845935Y-97733858D01*
X110065464Y-97628139D01*
X110076640Y-97622757D01*
X110076640Y-97622756D01*
X110076646Y-97622754D01*
X110288219Y-97478505D01*
X110475931Y-97304334D01*
X110635587Y-97104131D01*
X110763622Y-96882369D01*
X110763711Y-96882144D01*
X110819890Y-96739000D01*
X110857174Y-96644001D01*
X110914155Y-96394353D01*
X110933291Y-96139000D01*
X130007211Y-96139000D01*
X130026341Y-96394281D01*
X130083305Y-96643854D01*
X130083306Y-96643856D01*
X130176826Y-96882144D01*
X130176828Y-96882148D01*
X130304824Y-97103844D01*
X130304829Y-97103852D01*
X130345250Y-97154537D01*
X130345252Y-97154537D01*
X131154192Y-96345597D01*
X131160889Y-96370591D01*
X131239881Y-96507408D01*
X131351592Y-96619119D01*
X131488409Y-96698111D01*
X131513401Y-96704807D01*
X130704421Y-97513787D01*
X130863603Y-97622317D01*
X131094242Y-97733387D01*
X131338862Y-97808844D01*
X131338870Y-97808845D01*
X131592008Y-97847000D01*
X131847992Y-97847000D01*
X132101129Y-97808845D01*
X132101141Y-97808843D01*
X132345746Y-97733392D01*
X132345753Y-97733389D01*
X132576397Y-97622318D01*
X132576399Y-97622317D01*
X132735577Y-97513789D01*
X132735578Y-97513787D01*
X131926598Y-96704807D01*
X131951591Y-96698111D01*
X132088408Y-96619119D01*
X132200119Y-96507408D01*
X132279111Y-96370591D01*
X132285807Y-96345598D01*
X133094747Y-97154538D01*
X133094748Y-97154537D01*
X133135172Y-97103849D01*
X133135172Y-97103848D01*
X133263171Y-96882148D01*
X133263173Y-96882144D01*
X133356693Y-96643856D01*
X133356694Y-96643854D01*
X133413658Y-96394281D01*
X133432788Y-96139000D01*
X133415444Y-95907554D01*
X141013503Y-95907554D01*
X141013503Y-95907567D01*
X141033320Y-96222568D01*
X141033322Y-96222585D01*
X141092467Y-96532628D01*
X141092470Y-96532641D01*
X141190002Y-96832815D01*
X141190007Y-96832828D01*
X141233606Y-96925480D01*
X141324401Y-97118430D01*
X141324403Y-97118433D01*
X141324406Y-97118439D01*
X141493525Y-97384929D01*
X141694726Y-97628139D01*
X141694729Y-97628141D01*
X141694730Y-97628143D01*
X141806809Y-97733392D01*
X141924823Y-97844215D01*
X142172839Y-98024409D01*
X142180184Y-98029745D01*
X142456784Y-98181808D01*
X142750261Y-98298004D01*
X143055988Y-98376501D01*
X143055996Y-98376502D01*
X143055995Y-98376502D01*
X143220092Y-98397231D01*
X143369142Y-98416061D01*
X143369146Y-98416061D01*
X143684780Y-98416061D01*
X143684784Y-98416061D01*
X143997938Y-98376501D01*
X144303665Y-98298004D01*
X144597142Y-98181808D01*
X144873742Y-98029745D01*
X145129103Y-97844215D01*
X145359196Y-97628143D01*
X145560395Y-97384936D01*
X145560397Y-97384931D01*
X145560400Y-97384929D01*
X145729519Y-97118439D01*
X145729525Y-97118430D01*
X145863919Y-96832827D01*
X145961458Y-96532633D01*
X146020604Y-96222581D01*
X146024690Y-96157631D01*
X146040423Y-95907567D01*
X146040423Y-95907554D01*
X146020605Y-95592553D01*
X146020603Y-95592536D01*
X146018190Y-95579889D01*
X145961458Y-95282489D01*
X145926258Y-95174155D01*
X145863923Y-94982306D01*
X145863918Y-94982293D01*
X145729525Y-94696692D01*
X145729519Y-94696682D01*
X145560400Y-94430192D01*
X145359199Y-94186982D01*
X145129102Y-93970906D01*
X144873744Y-93785378D01*
X144831348Y-93762070D01*
X144597142Y-93633314D01*
X144303665Y-93517118D01*
X143997938Y-93438621D01*
X143997933Y-93438620D01*
X143997928Y-93438619D01*
X143997930Y-93438619D01*
X143684798Y-93399062D01*
X143684787Y-93399061D01*
X143684784Y-93399061D01*
X143369142Y-93399061D01*
X143369139Y-93399061D01*
X143369127Y-93399062D01*
X143055996Y-93438619D01*
X142750264Y-93517117D01*
X142456784Y-93633314D01*
X142180181Y-93785378D01*
X141924824Y-93970906D01*
X141924823Y-93970906D01*
X141694726Y-94186982D01*
X141493525Y-94430192D01*
X141324406Y-94696682D01*
X141324399Y-94696696D01*
X141190007Y-94982293D01*
X141190002Y-94982306D01*
X141092470Y-95282480D01*
X141092467Y-95282493D01*
X141033322Y-95592536D01*
X141033320Y-95592553D01*
X141013503Y-95907554D01*
X133415444Y-95907554D01*
X133413658Y-95883718D01*
X133356694Y-95634145D01*
X133356693Y-95634143D01*
X133263173Y-95395855D01*
X133263171Y-95395851D01*
X133135175Y-95174155D01*
X133094747Y-95123460D01*
X132285807Y-95932400D01*
X132279111Y-95907409D01*
X132200119Y-95770592D01*
X132088408Y-95658881D01*
X131951591Y-95579889D01*
X131926597Y-95573192D01*
X132735578Y-94764211D01*
X132576390Y-94655678D01*
X132576389Y-94655677D01*
X132345753Y-94544610D01*
X132345746Y-94544607D01*
X132101141Y-94469156D01*
X132101129Y-94469154D01*
X131847992Y-94431000D01*
X131592008Y-94431000D01*
X131338870Y-94469154D01*
X131338862Y-94469155D01*
X131094239Y-94544613D01*
X130863611Y-94655677D01*
X130863603Y-94655682D01*
X130704422Y-94764210D01*
X130704422Y-94764212D01*
X131513402Y-95573192D01*
X131488409Y-95579889D01*
X131351592Y-95658881D01*
X131239881Y-95770592D01*
X131160889Y-95907409D01*
X131154192Y-95932401D01*
X130345252Y-95123461D01*
X130345250Y-95123461D01*
X130304828Y-95174148D01*
X130304825Y-95174153D01*
X130176828Y-95395851D01*
X130176826Y-95395855D01*
X130083306Y-95634143D01*
X130083305Y-95634145D01*
X130026341Y-95883718D01*
X130007211Y-96139000D01*
X110933291Y-96139000D01*
X110914155Y-95883647D01*
X110857174Y-95633999D01*
X110835938Y-95579889D01*
X110763625Y-95395637D01*
X110763623Y-95395633D01*
X110635589Y-95173872D01*
X110595387Y-95123460D01*
X110475931Y-94973666D01*
X110288219Y-94799495D01*
X110076646Y-94655246D01*
X110076643Y-94655245D01*
X110076641Y-94655243D01*
X110076640Y-94655242D01*
X109845936Y-94544142D01*
X109845929Y-94544139D01*
X109601253Y-94468667D01*
X109601245Y-94468665D01*
X109601243Y-94468665D01*
X109348034Y-94430500D01*
X109091966Y-94430500D01*
X108838757Y-94468665D01*
X108838755Y-94468665D01*
X108838746Y-94468667D01*
X108594073Y-94544138D01*
X108594060Y-94544143D01*
X108363352Y-94655247D01*
X108363345Y-94655251D01*
X108151787Y-94799490D01*
X108151782Y-94799494D01*
X107964070Y-94973665D01*
X107804410Y-95173872D01*
X107676376Y-95395633D01*
X107676374Y-95395637D01*
X107582827Y-95633994D01*
X107582826Y-95633997D01*
X107525845Y-95883643D01*
X107506709Y-96139000D01*
X105640865Y-96139000D01*
X105523589Y-95935872D01*
X105523587Y-95935869D01*
X105363931Y-95735666D01*
X105176219Y-95561495D01*
X104964646Y-95417246D01*
X104964643Y-95417245D01*
X104964641Y-95417243D01*
X104964640Y-95417242D01*
X104733936Y-95306142D01*
X104733929Y-95306139D01*
X104489253Y-95230667D01*
X104489245Y-95230665D01*
X104489243Y-95230665D01*
X104236034Y-95192500D01*
X103979966Y-95192500D01*
X103726757Y-95230665D01*
X103726755Y-95230665D01*
X103726746Y-95230667D01*
X103482073Y-95306138D01*
X103482060Y-95306143D01*
X103251352Y-95417247D01*
X103251345Y-95417251D01*
X103039787Y-95561490D01*
X103039782Y-95561494D01*
X102852070Y-95735665D01*
X102692410Y-95935872D01*
X102564376Y-96157633D01*
X102564374Y-96157637D01*
X102470827Y-96395994D01*
X102470826Y-96395997D01*
X102413845Y-96645643D01*
X102394709Y-96901000D01*
X100259680Y-96901000D01*
X104621175Y-92539504D01*
X104683485Y-92505480D01*
X104739679Y-92506081D01*
X104822789Y-92526035D01*
X105059500Y-92544665D01*
X105296211Y-92526035D01*
X105527094Y-92470605D01*
X105746463Y-92379740D01*
X105948916Y-92255676D01*
X106129469Y-92101469D01*
X106283676Y-91920916D01*
X106407740Y-91718463D01*
X106498605Y-91499094D01*
X106554035Y-91268211D01*
X106556832Y-91232673D01*
X155865520Y-91232673D01*
X155865520Y-91494926D01*
X155899748Y-91754920D01*
X155905093Y-91774869D01*
X155967624Y-92008239D01*
X156067982Y-92250524D01*
X156067983Y-92250525D01*
X156067988Y-92250535D01*
X156199103Y-92477633D01*
X156199107Y-92477639D01*
X156358747Y-92685685D01*
X156358766Y-92685706D01*
X156544173Y-92871113D01*
X156544183Y-92871122D01*
X156544189Y-92871128D01*
X156752243Y-93030774D01*
X156979356Y-93161898D01*
X157221641Y-93262256D01*
X157474953Y-93330130D01*
X157474957Y-93330130D01*
X157474959Y-93330131D01*
X157541968Y-93338952D01*
X157734956Y-93364360D01*
X157734963Y-93364360D01*
X157997197Y-93364360D01*
X157997204Y-93364360D01*
X158232182Y-93333424D01*
X158257200Y-93330131D01*
X158257200Y-93330130D01*
X158257207Y-93330130D01*
X158510519Y-93262256D01*
X158752804Y-93161898D01*
X158979917Y-93030774D01*
X159187971Y-92871128D01*
X159373408Y-92685691D01*
X159533054Y-92477637D01*
X159664178Y-92250524D01*
X159764536Y-92008239D01*
X159832410Y-91754927D01*
X159866640Y-91494924D01*
X159866640Y-91232676D01*
X159832410Y-90972673D01*
X159764536Y-90719361D01*
X159664178Y-90477076D01*
X159587657Y-90344538D01*
X159533056Y-90249966D01*
X159533052Y-90249960D01*
X159373412Y-90041914D01*
X159373410Y-90041912D01*
X159373408Y-90041909D01*
X159373402Y-90041903D01*
X159373393Y-90041893D01*
X159187986Y-89856486D01*
X159187965Y-89856467D01*
X158979919Y-89696827D01*
X158979913Y-89696823D01*
X158752815Y-89565708D01*
X158752810Y-89565705D01*
X158752804Y-89565702D01*
X158510519Y-89465344D01*
X158257207Y-89397470D01*
X158257200Y-89397468D01*
X157997206Y-89363240D01*
X157997204Y-89363240D01*
X157734956Y-89363240D01*
X157734953Y-89363240D01*
X157474959Y-89397468D01*
X157239118Y-89460661D01*
X157221641Y-89465344D01*
X156987343Y-89562394D01*
X156979354Y-89565703D01*
X156979344Y-89565708D01*
X156752246Y-89696823D01*
X156752240Y-89696827D01*
X156544194Y-89856467D01*
X156544173Y-89856486D01*
X156358766Y-90041893D01*
X156358747Y-90041914D01*
X156199107Y-90249960D01*
X156199103Y-90249966D01*
X156067988Y-90477064D01*
X156067983Y-90477074D01*
X156067982Y-90477076D01*
X155988816Y-90668200D01*
X155967624Y-90719361D01*
X155899748Y-90972679D01*
X155865520Y-91232673D01*
X106556832Y-91232673D01*
X106572665Y-91031500D01*
X106554035Y-90794789D01*
X106498605Y-90563906D01*
X106407740Y-90344537D01*
X106283676Y-90142084D01*
X106257338Y-90111246D01*
X106129469Y-89961530D01*
X105948919Y-89807326D01*
X105948917Y-89807325D01*
X105948916Y-89807324D01*
X105746463Y-89683260D01*
X105710197Y-89668238D01*
X105527092Y-89592394D01*
X105341117Y-89547746D01*
X105296211Y-89536965D01*
X105059500Y-89518335D01*
X104822789Y-89536965D01*
X104591907Y-89592394D01*
X104372538Y-89683259D01*
X104170082Y-89807325D01*
X104170080Y-89807326D01*
X103989530Y-89961530D01*
X103835326Y-90142080D01*
X103835325Y-90142082D01*
X103711259Y-90344538D01*
X103620394Y-90563907D01*
X103564965Y-90794789D01*
X103546335Y-91031500D01*
X103564965Y-91268211D01*
X103583755Y-91346478D01*
X103580207Y-91417386D01*
X103550332Y-91464986D01*
X103033093Y-91982224D01*
X102970783Y-92016248D01*
X102899968Y-92011184D01*
X102843132Y-91968637D01*
X102818321Y-91902117D01*
X102818000Y-91893128D01*
X102818000Y-89982867D01*
X102817999Y-89982850D01*
X102811490Y-89922303D01*
X102811488Y-89922295D01*
X102760389Y-89785297D01*
X102760387Y-89785292D01*
X102672761Y-89668238D01*
X102555707Y-89580612D01*
X102555702Y-89580610D01*
X102418704Y-89529511D01*
X102418696Y-89529509D01*
X102358149Y-89523000D01*
X102358138Y-89523000D01*
X100260862Y-89523000D01*
X100260850Y-89523000D01*
X100200303Y-89529509D01*
X100200295Y-89529511D01*
X100063297Y-89580610D01*
X100063292Y-89580612D01*
X99946238Y-89668238D01*
X99858612Y-89785292D01*
X99858610Y-89785297D01*
X99807511Y-89922295D01*
X99807509Y-89922303D01*
X99801000Y-89982850D01*
X99801000Y-92080149D01*
X99807509Y-92140696D01*
X99807511Y-92140704D01*
X99858610Y-92277702D01*
X99858612Y-92277707D01*
X99946238Y-92394761D01*
X100063292Y-92482387D01*
X100063294Y-92482388D01*
X100063296Y-92482389D01*
X100099617Y-92495936D01*
X100200295Y-92533488D01*
X100200303Y-92533490D01*
X100260850Y-92539999D01*
X100260855Y-92539999D01*
X100260862Y-92540000D01*
X100461500Y-92540000D01*
X100529621Y-92560002D01*
X100576114Y-92613658D01*
X100587500Y-92666000D01*
X100587500Y-92724629D01*
X100567498Y-92792750D01*
X100550595Y-92813724D01*
X96438838Y-96925480D01*
X96438833Y-96925486D01*
X96355826Y-97049716D01*
X96298651Y-97187747D01*
X96298649Y-97187752D01*
X96286765Y-97247500D01*
X96269500Y-97334293D01*
X96269500Y-110631629D01*
X96249498Y-110699750D01*
X96232595Y-110720724D01*
X94464724Y-112488595D01*
X94402412Y-112522621D01*
X94375629Y-112525500D01*
X90984288Y-112525500D01*
X90911024Y-112540073D01*
X90911024Y-112540074D01*
X90837753Y-112554649D01*
X90837751Y-112554649D01*
X90837750Y-112554650D01*
X90837749Y-112554650D01*
X90780576Y-112578332D01*
X90699716Y-112611826D01*
X90699715Y-112611827D01*
X90575485Y-112694834D01*
X90575479Y-112694839D01*
X86390529Y-116879789D01*
X86328217Y-116913815D01*
X86257401Y-116908750D01*
X86200566Y-116866203D01*
X86176156Y-116804161D01*
X86169990Y-116746803D01*
X86169988Y-116746795D01*
X86123240Y-116621461D01*
X86118889Y-116609796D01*
X86118888Y-116609794D01*
X86118887Y-116609792D01*
X86031261Y-116492738D01*
X85914207Y-116405112D01*
X85914202Y-116405110D01*
X85777204Y-116354011D01*
X85777196Y-116354009D01*
X85716649Y-116347500D01*
X85716638Y-116347500D01*
X83619362Y-116347500D01*
X83619350Y-116347500D01*
X83558803Y-116354009D01*
X83558795Y-116354011D01*
X83421797Y-116405110D01*
X83421792Y-116405112D01*
X83304738Y-116492738D01*
X83217112Y-116609792D01*
X83217110Y-116609797D01*
X83166011Y-116746795D01*
X83166009Y-116746803D01*
X83159500Y-116807350D01*
X83159500Y-118720629D01*
X83139498Y-118788750D01*
X83085842Y-118835243D01*
X83015568Y-118845347D01*
X82950988Y-118815853D01*
X82944405Y-118809724D01*
X82426587Y-118291906D01*
X82392561Y-118229594D01*
X82393164Y-118173396D01*
X82412533Y-118092719D01*
X82412532Y-118092719D01*
X82412535Y-118092711D01*
X82431165Y-117856000D01*
X82412535Y-117619289D01*
X82357105Y-117388406D01*
X82266240Y-117169037D01*
X82142176Y-116966584D01*
X82097741Y-116914557D01*
X81987969Y-116786030D01*
X81807419Y-116631826D01*
X81807417Y-116631825D01*
X81807416Y-116631824D01*
X81604963Y-116507760D01*
X81568697Y-116492738D01*
X81385592Y-116416894D01*
X81199617Y-116372246D01*
X81154711Y-116361465D01*
X80918000Y-116342835D01*
X80681289Y-116361465D01*
X80450407Y-116416894D01*
X80231038Y-116507759D01*
X80028582Y-116631825D01*
X80028580Y-116631826D01*
X79848030Y-116786030D01*
X79693826Y-116966580D01*
X79693825Y-116966582D01*
X79569759Y-117169038D01*
X79478894Y-117388407D01*
X79423465Y-117619289D01*
X79404835Y-117856000D01*
X62939991Y-117856000D01*
X62926904Y-112359446D01*
X66214500Y-112359446D01*
X66214500Y-113700544D01*
X66225112Y-113804425D01*
X66280885Y-113972738D01*
X66373970Y-114123652D01*
X66373975Y-114123658D01*
X66499341Y-114249024D01*
X66499347Y-114249029D01*
X66499348Y-114249030D01*
X66618823Y-114322723D01*
X66651402Y-114342818D01*
X66698880Y-114395604D01*
X66710283Y-114465679D01*
X66681990Y-114530795D01*
X66674351Y-114539154D01*
X66541539Y-114671966D01*
X66414003Y-114847504D01*
X66315493Y-115040841D01*
X66248444Y-115247196D01*
X66248443Y-115247200D01*
X66214500Y-115461510D01*
X66214500Y-115678490D01*
X66248443Y-115892800D01*
X66315494Y-116099160D01*
X66414001Y-116292492D01*
X66541539Y-116468033D01*
X66541541Y-116468035D01*
X66541543Y-116468038D01*
X66694961Y-116621456D01*
X66694964Y-116621458D01*
X66694967Y-116621461D01*
X66870508Y-116748999D01*
X67063840Y-116847506D01*
X67270200Y-116914557D01*
X67484510Y-116948500D01*
X67484513Y-116948500D01*
X68151487Y-116948500D01*
X68151490Y-116948500D01*
X68365800Y-116914557D01*
X68572160Y-116847506D01*
X68765492Y-116748999D01*
X68941033Y-116621461D01*
X69094461Y-116468033D01*
X69221999Y-116292492D01*
X69320506Y-116099160D01*
X69387557Y-115892800D01*
X69421500Y-115678490D01*
X69421500Y-115461510D01*
X69387557Y-115247200D01*
X69320506Y-115040840D01*
X69221999Y-114847508D01*
X69094461Y-114671967D01*
X69094458Y-114671964D01*
X69094456Y-114671961D01*
X68961649Y-114539154D01*
X68927623Y-114476842D01*
X68932688Y-114406027D01*
X68975235Y-114349191D01*
X68984597Y-114342818D01*
X68985735Y-114342115D01*
X68985738Y-114342115D01*
X69136652Y-114249030D01*
X69262030Y-114123652D01*
X69355115Y-113972738D01*
X69410887Y-113804426D01*
X69421500Y-113700545D01*
X69421499Y-112776000D01*
X74124502Y-112776000D01*
X74144457Y-113004087D01*
X74173452Y-113112296D01*
X74203715Y-113225240D01*
X74203717Y-113225246D01*
X74226544Y-113274198D01*
X74300477Y-113432749D01*
X74431802Y-113620300D01*
X74593700Y-113782198D01*
X74781251Y-113913523D01*
X74988757Y-114010284D01*
X75209913Y-114069543D01*
X75438000Y-114089498D01*
X75666087Y-114069543D01*
X75887243Y-114010284D01*
X76094749Y-113913523D01*
X76282300Y-113782198D01*
X76444198Y-113620300D01*
X76575523Y-113432749D01*
X76672284Y-113225243D01*
X76731543Y-113004087D01*
X76751498Y-112776000D01*
X76731543Y-112547913D01*
X76672284Y-112326757D01*
X76575523Y-112119251D01*
X76444198Y-111931700D01*
X76439848Y-111927350D01*
X77685500Y-111927350D01*
X77685500Y-113624649D01*
X77692009Y-113685196D01*
X77692011Y-113685204D01*
X77743110Y-113822202D01*
X77743112Y-113822207D01*
X77830738Y-113939261D01*
X77947792Y-114026887D01*
X77947794Y-114026888D01*
X77947796Y-114026889D01*
X77981551Y-114039479D01*
X78084795Y-114077988D01*
X78084803Y-114077990D01*
X78145350Y-114084499D01*
X78145355Y-114084499D01*
X78145362Y-114084500D01*
X78145368Y-114084500D01*
X79842632Y-114084500D01*
X79842638Y-114084500D01*
X79842645Y-114084499D01*
X79842649Y-114084499D01*
X79903196Y-114077990D01*
X79903199Y-114077989D01*
X79903201Y-114077989D01*
X80040204Y-114026889D01*
X80062389Y-114010282D01*
X80157261Y-113939261D01*
X80244887Y-113822207D01*
X80244887Y-113822206D01*
X80244889Y-113822204D01*
X80295989Y-113685201D01*
X80302500Y-113624638D01*
X80302500Y-111927362D01*
X80296584Y-111872332D01*
X80295990Y-111866803D01*
X80295988Y-111866795D01*
X80259811Y-111769804D01*
X80244889Y-111729796D01*
X80244888Y-111729794D01*
X80244887Y-111729792D01*
X80157261Y-111612738D01*
X80040207Y-111525112D01*
X80040202Y-111525110D01*
X79903204Y-111474011D01*
X79903196Y-111474009D01*
X79842649Y-111467500D01*
X79842638Y-111467500D01*
X78145362Y-111467500D01*
X78145350Y-111467500D01*
X78084803Y-111474009D01*
X78084795Y-111474011D01*
X77947797Y-111525110D01*
X77947792Y-111525112D01*
X77830738Y-111612738D01*
X77743112Y-111729792D01*
X77743110Y-111729797D01*
X77692011Y-111866795D01*
X77692009Y-111866803D01*
X77685500Y-111927350D01*
X76439848Y-111927350D01*
X76282300Y-111769802D01*
X76094749Y-111638477D01*
X76044934Y-111615248D01*
X75887246Y-111541717D01*
X75887240Y-111541715D01*
X75753950Y-111506000D01*
X75666087Y-111482457D01*
X75438000Y-111462502D01*
X75209913Y-111482457D01*
X74988759Y-111541715D01*
X74988753Y-111541717D01*
X74781250Y-111638477D01*
X74593703Y-111769799D01*
X74593697Y-111769804D01*
X74431804Y-111931697D01*
X74431799Y-111931703D01*
X74300477Y-112119250D01*
X74203717Y-112326753D01*
X74203715Y-112326759D01*
X74162739Y-112479684D01*
X74144457Y-112547913D01*
X74124502Y-112776000D01*
X69421499Y-112776000D01*
X69421499Y-112359456D01*
X69410887Y-112255574D01*
X69355115Y-112087262D01*
X69262030Y-111936348D01*
X69262029Y-111936347D01*
X69262024Y-111936341D01*
X69136658Y-111810975D01*
X69136652Y-111810970D01*
X69111938Y-111795726D01*
X68985738Y-111717885D01*
X68901582Y-111689999D01*
X68817427Y-111662113D01*
X68817420Y-111662112D01*
X68713553Y-111651500D01*
X66922455Y-111651500D01*
X66818574Y-111662112D01*
X66650261Y-111717885D01*
X66499347Y-111810970D01*
X66499341Y-111810975D01*
X66373975Y-111936341D01*
X66373970Y-111936347D01*
X66280885Y-112087262D01*
X66225113Y-112255572D01*
X66225112Y-112255579D01*
X66214500Y-112359446D01*
X62926904Y-112359446D01*
X62918934Y-109012000D01*
X92181793Y-109012000D01*
X92200593Y-109262869D01*
X92200594Y-109262873D01*
X92256571Y-109508129D01*
X92348479Y-109742309D01*
X92348481Y-109742313D01*
X92474266Y-109960180D01*
X92631125Y-110156876D01*
X92762585Y-110278851D01*
X92815538Y-110327984D01*
X92815544Y-110327988D01*
X93023387Y-110469694D01*
X93023394Y-110469698D01*
X93023397Y-110469700D01*
X93250055Y-110578853D01*
X93250058Y-110578853D01*
X93250063Y-110578856D01*
X93490440Y-110653002D01*
X93490442Y-110653002D01*
X93490451Y-110653005D01*
X93739214Y-110690500D01*
X93739218Y-110690500D01*
X93990782Y-110690500D01*
X93990786Y-110690500D01*
X94239549Y-110653005D01*
X94239559Y-110653002D01*
X94479936Y-110578856D01*
X94479938Y-110578854D01*
X94479945Y-110578853D01*
X94706604Y-110469700D01*
X94914462Y-110327984D01*
X95098878Y-110156872D01*
X95255731Y-109960184D01*
X95381517Y-109742316D01*
X95473427Y-109508134D01*
X95529407Y-109262869D01*
X95548207Y-109012000D01*
X95529407Y-108761131D01*
X95473427Y-108515866D01*
X95421962Y-108384736D01*
X95381520Y-108281690D01*
X95381518Y-108281686D01*
X95255733Y-108063819D01*
X95250810Y-108057646D01*
X95098878Y-107867128D01*
X95098877Y-107867127D01*
X95098874Y-107867123D01*
X94914467Y-107696021D01*
X94914461Y-107696015D01*
X94845176Y-107648777D01*
X94706606Y-107554301D01*
X94479949Y-107445148D01*
X94479936Y-107445143D01*
X94239559Y-107370997D01*
X94239551Y-107370995D01*
X94239549Y-107370995D01*
X93990786Y-107333500D01*
X93739214Y-107333500D01*
X93490451Y-107370995D01*
X93490449Y-107370995D01*
X93490440Y-107370997D01*
X93250063Y-107445143D01*
X93250051Y-107445148D01*
X93023394Y-107554301D01*
X93023387Y-107554305D01*
X92815544Y-107696011D01*
X92815532Y-107696021D01*
X92631125Y-107867123D01*
X92474266Y-108063819D01*
X92348481Y-108281686D01*
X92348479Y-108281690D01*
X92256571Y-108515870D01*
X92202074Y-108754643D01*
X92200593Y-108761131D01*
X92181793Y-109012000D01*
X62918934Y-109012000D01*
X62910477Y-105460217D01*
X65960000Y-105460217D01*
X65960000Y-105628000D01*
X67165536Y-105628000D01*
X67144901Y-105677818D01*
X67118000Y-105813056D01*
X67118000Y-105950944D01*
X67144901Y-106086182D01*
X67165536Y-106136000D01*
X65960000Y-106136000D01*
X65960000Y-106303782D01*
X65991789Y-106545249D01*
X66054828Y-106780515D01*
X66148035Y-107005537D01*
X66148041Y-107005548D01*
X66269811Y-107216461D01*
X66269816Y-107216468D01*
X66418076Y-107409684D01*
X66418095Y-107409705D01*
X66590294Y-107581904D01*
X66590315Y-107581923D01*
X66783531Y-107730183D01*
X66783538Y-107730188D01*
X66994451Y-107851958D01*
X66994462Y-107851964D01*
X67219484Y-107945171D01*
X67454752Y-108008210D01*
X67564000Y-108022591D01*
X67564000Y-106534463D01*
X67613818Y-106555099D01*
X67749056Y-106582000D01*
X67886944Y-106582000D01*
X68022182Y-106555099D01*
X68072000Y-106534463D01*
X68072000Y-108022591D01*
X68181247Y-108008210D01*
X68416515Y-107945171D01*
X68641537Y-107851964D01*
X68641548Y-107851958D01*
X68852461Y-107730188D01*
X68852468Y-107730183D01*
X69045684Y-107581923D01*
X69045705Y-107581904D01*
X69217904Y-107409705D01*
X69217923Y-107409684D01*
X69366183Y-107216468D01*
X69366188Y-107216461D01*
X69487958Y-107005548D01*
X69487964Y-107005537D01*
X69581171Y-106780515D01*
X69644210Y-106545249D01*
X69648587Y-106512000D01*
X82181793Y-106512000D01*
X82200593Y-106762869D01*
X82200594Y-106762873D01*
X82256571Y-107008129D01*
X82348479Y-107242309D01*
X82348481Y-107242313D01*
X82474266Y-107460180D01*
X82631125Y-107656876D01*
X82710138Y-107730188D01*
X82815538Y-107827984D01*
X82815544Y-107827988D01*
X83023387Y-107969694D01*
X83023394Y-107969698D01*
X83023397Y-107969700D01*
X83250055Y-108078853D01*
X83250058Y-108078853D01*
X83250063Y-108078856D01*
X83490440Y-108153002D01*
X83490442Y-108153002D01*
X83490451Y-108153005D01*
X83739214Y-108190500D01*
X83739218Y-108190500D01*
X83990782Y-108190500D01*
X83990786Y-108190500D01*
X84239549Y-108153005D01*
X84239559Y-108153002D01*
X84479936Y-108078856D01*
X84479938Y-108078854D01*
X84479945Y-108078853D01*
X84706604Y-107969700D01*
X84914462Y-107827984D01*
X85098878Y-107656872D01*
X85255731Y-107460184D01*
X85381517Y-107242316D01*
X85473427Y-107008134D01*
X85529407Y-106762869D01*
X85548207Y-106512000D01*
X85529407Y-106261131D01*
X85518762Y-106214491D01*
X86614500Y-106214491D01*
X86614500Y-106509508D01*
X86653005Y-106801985D01*
X86653006Y-106801991D01*
X86653007Y-106801993D01*
X86729361Y-107086952D01*
X86842257Y-107359507D01*
X86842258Y-107359508D01*
X86842263Y-107359519D01*
X86989759Y-107614990D01*
X86989764Y-107614997D01*
X87169346Y-107849033D01*
X87169365Y-107849054D01*
X87377945Y-108057634D01*
X87377966Y-108057653D01*
X87612002Y-108237235D01*
X87612009Y-108237240D01*
X87867480Y-108384736D01*
X87867484Y-108384737D01*
X87867493Y-108384743D01*
X88140048Y-108497639D01*
X88425007Y-108573993D01*
X88425013Y-108573993D01*
X88425014Y-108573994D01*
X88458574Y-108578412D01*
X88717494Y-108612500D01*
X88717501Y-108612500D01*
X89012499Y-108612500D01*
X89012506Y-108612500D01*
X89304993Y-108573993D01*
X89589952Y-108497639D01*
X89862507Y-108384743D01*
X90117994Y-108237238D01*
X90352042Y-108057646D01*
X90560646Y-107849042D01*
X90740238Y-107614994D01*
X90887743Y-107359507D01*
X91000639Y-107086952D01*
X91076993Y-106801993D01*
X91115500Y-106509506D01*
X91115500Y-106214494D01*
X91076993Y-105922007D01*
X91000639Y-105637048D01*
X90887743Y-105364493D01*
X90887737Y-105364484D01*
X90887736Y-105364480D01*
X90740240Y-105109009D01*
X90740235Y-105109002D01*
X90560653Y-104874966D01*
X90560634Y-104874945D01*
X90352054Y-104666365D01*
X90352033Y-104666346D01*
X90117997Y-104486764D01*
X90117990Y-104486759D01*
X89862519Y-104339263D01*
X89862511Y-104339259D01*
X89862507Y-104339257D01*
X89589952Y-104226361D01*
X89304993Y-104150007D01*
X89304991Y-104150006D01*
X89304985Y-104150005D01*
X89012508Y-104111500D01*
X89012506Y-104111500D01*
X88717494Y-104111500D01*
X88717491Y-104111500D01*
X88425014Y-104150005D01*
X88140048Y-104226361D01*
X88102254Y-104242016D01*
X87867491Y-104339258D01*
X87867480Y-104339263D01*
X87612009Y-104486759D01*
X87612002Y-104486764D01*
X87377966Y-104666346D01*
X87377945Y-104666365D01*
X87169365Y-104874945D01*
X87169346Y-104874966D01*
X86989764Y-105109002D01*
X86989759Y-105109009D01*
X86842263Y-105364480D01*
X86842258Y-105364491D01*
X86842257Y-105364493D01*
X86765241Y-105550426D01*
X86729361Y-105637048D01*
X86653005Y-105922014D01*
X86614500Y-106214491D01*
X85518762Y-106214491D01*
X85473427Y-106015866D01*
X85393830Y-105813056D01*
X85381520Y-105781690D01*
X85381518Y-105781686D01*
X85255733Y-105563819D01*
X85245052Y-105550426D01*
X85098878Y-105367128D01*
X85098877Y-105367127D01*
X85098874Y-105367123D01*
X84954797Y-105233442D01*
X84914462Y-105196016D01*
X84893904Y-105182000D01*
X84786847Y-105109009D01*
X84706606Y-105054301D01*
X84479949Y-104945148D01*
X84479936Y-104945143D01*
X84239559Y-104870997D01*
X84239551Y-104870995D01*
X84239549Y-104870995D01*
X83990786Y-104833500D01*
X83739214Y-104833500D01*
X83490451Y-104870995D01*
X83490449Y-104870995D01*
X83490440Y-104870997D01*
X83250063Y-104945143D01*
X83250051Y-104945148D01*
X83023394Y-105054301D01*
X83023387Y-105054305D01*
X82815544Y-105196011D01*
X82815532Y-105196021D01*
X82631125Y-105367123D01*
X82474266Y-105563819D01*
X82348481Y-105781686D01*
X82348479Y-105781690D01*
X82256571Y-106015870D01*
X82211236Y-106214501D01*
X82200593Y-106261131D01*
X82181793Y-106512000D01*
X69648587Y-106512000D01*
X69675999Y-106303782D01*
X69676000Y-106303773D01*
X69676000Y-106136000D01*
X68470464Y-106136000D01*
X68491099Y-106086182D01*
X68518000Y-105950944D01*
X68518000Y-105813056D01*
X68491099Y-105677818D01*
X68470464Y-105628000D01*
X69676000Y-105628000D01*
X69676000Y-105460227D01*
X69675999Y-105460217D01*
X69644210Y-105218750D01*
X69581171Y-104983484D01*
X69487964Y-104758462D01*
X69487958Y-104758451D01*
X69366188Y-104547538D01*
X69366183Y-104547531D01*
X69217923Y-104354315D01*
X69217904Y-104354294D01*
X69045705Y-104182095D01*
X69045684Y-104182076D01*
X68852468Y-104033816D01*
X68852461Y-104033811D01*
X68814683Y-104012000D01*
X92182295Y-104012000D01*
X92201089Y-104262797D01*
X92257053Y-104507987D01*
X92257054Y-104507989D01*
X92348931Y-104742091D01*
X92348933Y-104742095D01*
X92474682Y-104959899D01*
X92474685Y-104959902D01*
X92511597Y-105006190D01*
X93262301Y-104255487D01*
X93288978Y-104319890D01*
X93360112Y-104426351D01*
X93450649Y-104516888D01*
X93557110Y-104588022D01*
X93621510Y-104614698D01*
X92871010Y-105365197D01*
X92871010Y-105365199D01*
X93023638Y-105469259D01*
X93023646Y-105469263D01*
X93250235Y-105578384D01*
X93250247Y-105578389D01*
X93490552Y-105652513D01*
X93490564Y-105652515D01*
X93739255Y-105690000D01*
X93990745Y-105690000D01*
X94239435Y-105652515D01*
X94239447Y-105652513D01*
X94479752Y-105578389D01*
X94479765Y-105578384D01*
X94706355Y-105469263D01*
X94858988Y-105365198D01*
X94858988Y-105365197D01*
X94108489Y-104614698D01*
X94172890Y-104588022D01*
X94279351Y-104516888D01*
X94369888Y-104426351D01*
X94441022Y-104319890D01*
X94467698Y-104255489D01*
X95218399Y-105006190D01*
X95218400Y-105006190D01*
X95255318Y-104959897D01*
X95381066Y-104742095D01*
X95381068Y-104742091D01*
X95472945Y-104507989D01*
X95472946Y-104507987D01*
X95528910Y-104262797D01*
X95547704Y-104012000D01*
X95528910Y-103761202D01*
X95472946Y-103516012D01*
X95472945Y-103516010D01*
X95381068Y-103281908D01*
X95381066Y-103281904D01*
X95255318Y-103064102D01*
X95218400Y-103017808D01*
X95218399Y-103017808D01*
X94467697Y-103768509D01*
X94441022Y-103704110D01*
X94369888Y-103597649D01*
X94279351Y-103507112D01*
X94172890Y-103435978D01*
X94108488Y-103409301D01*
X94858988Y-102658801D01*
X94858988Y-102658799D01*
X94706355Y-102554736D01*
X94706347Y-102554731D01*
X94479770Y-102445617D01*
X94479752Y-102445610D01*
X94239447Y-102371486D01*
X94239435Y-102371484D01*
X93990745Y-102334000D01*
X93739255Y-102334000D01*
X93490564Y-102371484D01*
X93490552Y-102371486D01*
X93250247Y-102445610D01*
X93250234Y-102445615D01*
X93023651Y-102554732D01*
X92871010Y-102658800D01*
X92871010Y-102658801D01*
X93621510Y-103409301D01*
X93557110Y-103435978D01*
X93450649Y-103507112D01*
X93360112Y-103597649D01*
X93288978Y-103704110D01*
X93262301Y-103768510D01*
X92511598Y-103017807D01*
X92511597Y-103017807D01*
X92474686Y-103064095D01*
X92348933Y-103281904D01*
X92348931Y-103281908D01*
X92257054Y-103516010D01*
X92257053Y-103516012D01*
X92201089Y-103761202D01*
X92182295Y-104012000D01*
X68814683Y-104012000D01*
X68641548Y-103912041D01*
X68641537Y-103912035D01*
X68416515Y-103818828D01*
X68181248Y-103755789D01*
X68072000Y-103741406D01*
X68072000Y-105229536D01*
X68022182Y-105208901D01*
X67886944Y-105182000D01*
X67749056Y-105182000D01*
X67613818Y-105208901D01*
X67564000Y-105229536D01*
X67564000Y-103741407D01*
X67563999Y-103741406D01*
X67454751Y-103755789D01*
X67219484Y-103818828D01*
X66994462Y-103912035D01*
X66994451Y-103912041D01*
X66783538Y-104033811D01*
X66783531Y-104033816D01*
X66590315Y-104182076D01*
X66590294Y-104182095D01*
X66418095Y-104354294D01*
X66418076Y-104354315D01*
X66269816Y-104547531D01*
X66269811Y-104547538D01*
X66148041Y-104758451D01*
X66148035Y-104758462D01*
X66054828Y-104983484D01*
X65991789Y-105218750D01*
X65960000Y-105460217D01*
X62910477Y-105460217D01*
X62901840Y-101832552D01*
X65959499Y-101832552D01*
X65970112Y-101936421D01*
X65970112Y-101936423D01*
X65970113Y-101936425D01*
X66025885Y-102104738D01*
X66067550Y-102172287D01*
X66118970Y-102255651D01*
X66118975Y-102255657D01*
X66244342Y-102381024D01*
X66244348Y-102381029D01*
X66244349Y-102381030D01*
X66395262Y-102474115D01*
X66563575Y-102529887D01*
X66591906Y-102532781D01*
X66667448Y-102540500D01*
X66667456Y-102540500D01*
X68968552Y-102540500D01*
X69037798Y-102533424D01*
X69072425Y-102529887D01*
X69240738Y-102474115D01*
X69391651Y-102381030D01*
X69517030Y-102255651D01*
X69610115Y-102104738D01*
X69665887Y-101936425D01*
X69671661Y-101879913D01*
X69676500Y-101832552D01*
X69676500Y-99822000D01*
X74124502Y-99822000D01*
X74144457Y-100050086D01*
X74203715Y-100271240D01*
X74203717Y-100271246D01*
X74300477Y-100478749D01*
X74431802Y-100666300D01*
X74593700Y-100828198D01*
X74781251Y-100959523D01*
X74988757Y-101056284D01*
X75003721Y-101060293D01*
X75064342Y-101097245D01*
X75095364Y-101161106D01*
X75086935Y-101231600D01*
X75041732Y-101286347D01*
X74974106Y-101307964D01*
X74971108Y-101308000D01*
X74589402Y-101308000D01*
X74528906Y-101314505D01*
X74392035Y-101365555D01*
X74392034Y-101365555D01*
X74275095Y-101453095D01*
X74187555Y-101570034D01*
X74187555Y-101570035D01*
X74136505Y-101706906D01*
X74130000Y-101767402D01*
X74130000Y-102362000D01*
X75126314Y-102362000D01*
X75117920Y-102370394D01*
X75065259Y-102461606D01*
X75038000Y-102563339D01*
X75038000Y-102668661D01*
X75065259Y-102770394D01*
X75117920Y-102861606D01*
X75126314Y-102870000D01*
X74130000Y-102870000D01*
X74130000Y-103464597D01*
X74136505Y-103525093D01*
X74187555Y-103661964D01*
X74187555Y-103661965D01*
X74275095Y-103778904D01*
X74392034Y-103866444D01*
X74528906Y-103917494D01*
X74589402Y-103923999D01*
X74589415Y-103924000D01*
X75184000Y-103924000D01*
X75184000Y-102927686D01*
X75192394Y-102936080D01*
X75283606Y-102988741D01*
X75385339Y-103016000D01*
X75490661Y-103016000D01*
X75592394Y-102988741D01*
X75683606Y-102936080D01*
X75692000Y-102927686D01*
X75692000Y-103924000D01*
X76286585Y-103924000D01*
X76286597Y-103923999D01*
X76347093Y-103917494D01*
X76483964Y-103866444D01*
X76483965Y-103866444D01*
X76600904Y-103778904D01*
X76688444Y-103661965D01*
X76688444Y-103661964D01*
X76739494Y-103525093D01*
X76745999Y-103464597D01*
X76746000Y-103464585D01*
X76746000Y-102870000D01*
X75749686Y-102870000D01*
X75758080Y-102861606D01*
X75810741Y-102770394D01*
X75838000Y-102668661D01*
X75838000Y-102616000D01*
X77680502Y-102616000D01*
X77700457Y-102844087D01*
X77725107Y-102936080D01*
X77759715Y-103065240D01*
X77759717Y-103065246D01*
X77856477Y-103272749D01*
X77970771Y-103435978D01*
X77987802Y-103460300D01*
X78149700Y-103622198D01*
X78337251Y-103753523D01*
X78544757Y-103850284D01*
X78765913Y-103909543D01*
X78994000Y-103929498D01*
X79222087Y-103909543D01*
X79443243Y-103850284D01*
X79650749Y-103753523D01*
X79838300Y-103622198D01*
X80000198Y-103460300D01*
X80131523Y-103272749D01*
X80228284Y-103065243D01*
X80287543Y-102844087D01*
X80307498Y-102616000D01*
X80287543Y-102387913D01*
X80228284Y-102166757D01*
X80131523Y-101959251D01*
X80000198Y-101771700D01*
X79838300Y-101609802D01*
X79650749Y-101478477D01*
X79596317Y-101453095D01*
X79443246Y-101381717D01*
X79443240Y-101381715D01*
X79349771Y-101356670D01*
X79222087Y-101322457D01*
X78994000Y-101302502D01*
X78765913Y-101322457D01*
X78544759Y-101381715D01*
X78544753Y-101381717D01*
X78337250Y-101478477D01*
X78149703Y-101609799D01*
X78149697Y-101609804D01*
X77987804Y-101771697D01*
X77987799Y-101771703D01*
X77856477Y-101959250D01*
X77759717Y-102166753D01*
X77759715Y-102166759D01*
X77714903Y-102334000D01*
X77700457Y-102387913D01*
X77680502Y-102616000D01*
X75838000Y-102616000D01*
X75838000Y-102563339D01*
X75810741Y-102461606D01*
X75758080Y-102370394D01*
X75749686Y-102362000D01*
X76746000Y-102362000D01*
X76746000Y-101767414D01*
X76745999Y-101767402D01*
X76739494Y-101706906D01*
X76688444Y-101570035D01*
X76688444Y-101570034D01*
X76600904Y-101453095D01*
X76483965Y-101365555D01*
X76347093Y-101314505D01*
X76286597Y-101308000D01*
X75904892Y-101308000D01*
X75836771Y-101287998D01*
X75790278Y-101234342D01*
X75780174Y-101164068D01*
X75809668Y-101099488D01*
X75869394Y-101061104D01*
X75872252Y-101060300D01*
X75887243Y-101056284D01*
X76094749Y-100959523D01*
X76282300Y-100828198D01*
X76444198Y-100666300D01*
X76575523Y-100478749D01*
X76672284Y-100271243D01*
X76731543Y-100050087D01*
X76751498Y-99822000D01*
X76731543Y-99593913D01*
X76672284Y-99372757D01*
X76575523Y-99165251D01*
X76444198Y-98977700D01*
X76282300Y-98815802D01*
X76094749Y-98684477D01*
X76040671Y-98659260D01*
X75887246Y-98587717D01*
X75887240Y-98587715D01*
X75793771Y-98562670D01*
X75666087Y-98528457D01*
X75438000Y-98508502D01*
X75209913Y-98528457D01*
X74988759Y-98587715D01*
X74988753Y-98587717D01*
X74781250Y-98684477D01*
X74593703Y-98815799D01*
X74593697Y-98815804D01*
X74431804Y-98977697D01*
X74431799Y-98977703D01*
X74300477Y-99165250D01*
X74203717Y-99372753D01*
X74203715Y-99372759D01*
X74144457Y-99593913D01*
X74124502Y-99822000D01*
X69676500Y-99822000D01*
X69676500Y-98931447D01*
X69665887Y-98827578D01*
X69665887Y-98827575D01*
X69610115Y-98659262D01*
X69517030Y-98508349D01*
X69517029Y-98508348D01*
X69517024Y-98508342D01*
X69391657Y-98382975D01*
X69391651Y-98382970D01*
X69381163Y-98376501D01*
X69240738Y-98289885D01*
X69072425Y-98234113D01*
X69072423Y-98234112D01*
X69072421Y-98234112D01*
X68968552Y-98223500D01*
X68968544Y-98223500D01*
X66667456Y-98223500D01*
X66667448Y-98223500D01*
X66563578Y-98234112D01*
X66395262Y-98289885D01*
X66395260Y-98289886D01*
X66244348Y-98382970D01*
X66244342Y-98382975D01*
X66118975Y-98508342D01*
X66118970Y-98508348D01*
X66025886Y-98659260D01*
X66025885Y-98659262D01*
X65970112Y-98827578D01*
X65959500Y-98931447D01*
X65959500Y-101832552D01*
X65959499Y-101832552D01*
X62901840Y-101832552D01*
X62890098Y-96901000D01*
X79894709Y-96901000D01*
X79913845Y-97156356D01*
X79970826Y-97406002D01*
X79970827Y-97406005D01*
X80064374Y-97644362D01*
X80064376Y-97644366D01*
X80192410Y-97866127D01*
X80192412Y-97866130D01*
X80192413Y-97866131D01*
X80352069Y-98066334D01*
X80539781Y-98240505D01*
X80539787Y-98240509D01*
X80751345Y-98384748D01*
X80751352Y-98384752D01*
X80751355Y-98384754D01*
X80825940Y-98420672D01*
X80982060Y-98495856D01*
X80982073Y-98495861D01*
X81226746Y-98571332D01*
X81226748Y-98571332D01*
X81226757Y-98571335D01*
X81479966Y-98609500D01*
X81479970Y-98609500D01*
X81736030Y-98609500D01*
X81736034Y-98609500D01*
X81989243Y-98571335D01*
X82193440Y-98508349D01*
X82233929Y-98495860D01*
X82233930Y-98495859D01*
X82233935Y-98495858D01*
X82464646Y-98384754D01*
X82676219Y-98240505D01*
X82863931Y-98066334D01*
X83023587Y-97866131D01*
X83151622Y-97644369D01*
X83160105Y-97622756D01*
X83186246Y-97556146D01*
X83245174Y-97406001D01*
X83302155Y-97156353D01*
X83321291Y-96901000D01*
X83302155Y-96645647D01*
X83245174Y-96395999D01*
X83235202Y-96370591D01*
X83151625Y-96157637D01*
X83151623Y-96157633D01*
X83023589Y-95935872D01*
X83023587Y-95935869D01*
X82863931Y-95735666D01*
X82676219Y-95561495D01*
X82464646Y-95417246D01*
X82464643Y-95417245D01*
X82464641Y-95417243D01*
X82464640Y-95417242D01*
X82233936Y-95306142D01*
X82233929Y-95306139D01*
X81989253Y-95230667D01*
X81989245Y-95230665D01*
X81989243Y-95230665D01*
X81736034Y-95192500D01*
X81479966Y-95192500D01*
X81226757Y-95230665D01*
X81226755Y-95230665D01*
X81226746Y-95230667D01*
X80982073Y-95306138D01*
X80982060Y-95306143D01*
X80751352Y-95417247D01*
X80751345Y-95417251D01*
X80539787Y-95561490D01*
X80539782Y-95561494D01*
X80352070Y-95735665D01*
X80192410Y-95935872D01*
X80064376Y-96157633D01*
X80064374Y-96157637D01*
X79970827Y-96395994D01*
X79970826Y-96395997D01*
X79913845Y-96645643D01*
X79894709Y-96901000D01*
X62890098Y-96901000D01*
X62876602Y-91232673D01*
X65865700Y-91232673D01*
X65865700Y-91494926D01*
X65899928Y-91754920D01*
X65905273Y-91774869D01*
X65967804Y-92008239D01*
X66068162Y-92250524D01*
X66068163Y-92250525D01*
X66068168Y-92250535D01*
X66199283Y-92477633D01*
X66199287Y-92477639D01*
X66358927Y-92685685D01*
X66358946Y-92685706D01*
X66544353Y-92871113D01*
X66544363Y-92871122D01*
X66544369Y-92871128D01*
X66752423Y-93030774D01*
X66979536Y-93161898D01*
X67221821Y-93262256D01*
X67475133Y-93330130D01*
X67475137Y-93330130D01*
X67475139Y-93330131D01*
X67542148Y-93338952D01*
X67735136Y-93364360D01*
X67735143Y-93364360D01*
X67997377Y-93364360D01*
X67997384Y-93364360D01*
X68232362Y-93333424D01*
X68257380Y-93330131D01*
X68257380Y-93330130D01*
X68257387Y-93330130D01*
X68510699Y-93262256D01*
X68752984Y-93161898D01*
X68980097Y-93030774D01*
X69188151Y-92871128D01*
X69373588Y-92685691D01*
X69533234Y-92477637D01*
X69664358Y-92250524D01*
X69764716Y-92008239D01*
X69832590Y-91754927D01*
X69866820Y-91494924D01*
X69866820Y-91232676D01*
X69840335Y-91031500D01*
X78346209Y-91031500D01*
X78365345Y-91286856D01*
X78422326Y-91536502D01*
X78422327Y-91536505D01*
X78515874Y-91774862D01*
X78515876Y-91774866D01*
X78643910Y-91996627D01*
X78643912Y-91996630D01*
X78643913Y-91996631D01*
X78803569Y-92196834D01*
X78991281Y-92371005D01*
X78991287Y-92371009D01*
X79202845Y-92515248D01*
X79202852Y-92515252D01*
X79202855Y-92515254D01*
X79335860Y-92579306D01*
X79433560Y-92626356D01*
X79433573Y-92626361D01*
X79678246Y-92701832D01*
X79678248Y-92701832D01*
X79678257Y-92701835D01*
X79931466Y-92740000D01*
X79931470Y-92740000D01*
X80187530Y-92740000D01*
X80187534Y-92740000D01*
X80440743Y-92701835D01*
X80440753Y-92701832D01*
X80685429Y-92626360D01*
X80685430Y-92626359D01*
X80685435Y-92626358D01*
X80916146Y-92515254D01*
X81127719Y-92371005D01*
X81315431Y-92196834D01*
X81475087Y-91996631D01*
X81603122Y-91774869D01*
X81610952Y-91754920D01*
X81696672Y-91536505D01*
X81696674Y-91536501D01*
X81753655Y-91286853D01*
X81772791Y-91031500D01*
X83346209Y-91031500D01*
X83365345Y-91286856D01*
X83422326Y-91536502D01*
X83422327Y-91536505D01*
X83515874Y-91774862D01*
X83515876Y-91774866D01*
X83643910Y-91996627D01*
X83643912Y-91996630D01*
X83643913Y-91996631D01*
X83803569Y-92196834D01*
X83991281Y-92371005D01*
X83991287Y-92371009D01*
X84202845Y-92515248D01*
X84202852Y-92515252D01*
X84202855Y-92515254D01*
X84335860Y-92579306D01*
X84433560Y-92626356D01*
X84433573Y-92626361D01*
X84678246Y-92701832D01*
X84678248Y-92701832D01*
X84678257Y-92701835D01*
X84931466Y-92740000D01*
X84931470Y-92740000D01*
X85187530Y-92740000D01*
X85187534Y-92740000D01*
X85440743Y-92701835D01*
X85440753Y-92701832D01*
X85685429Y-92626360D01*
X85685430Y-92626359D01*
X85685435Y-92626358D01*
X85916146Y-92515254D01*
X86127719Y-92371005D01*
X86315431Y-92196834D01*
X86475087Y-91996631D01*
X86603122Y-91774869D01*
X86610952Y-91754920D01*
X86696672Y-91536505D01*
X86696674Y-91536501D01*
X86753655Y-91286853D01*
X86772791Y-91031500D01*
X88346209Y-91031500D01*
X88365345Y-91286856D01*
X88422326Y-91536502D01*
X88422327Y-91536505D01*
X88515874Y-91774862D01*
X88515876Y-91774866D01*
X88643910Y-91996627D01*
X88643912Y-91996630D01*
X88643913Y-91996631D01*
X88803569Y-92196834D01*
X88991281Y-92371005D01*
X88991287Y-92371009D01*
X89202845Y-92515248D01*
X89202852Y-92515252D01*
X89202855Y-92515254D01*
X89335860Y-92579306D01*
X89433560Y-92626356D01*
X89433573Y-92626361D01*
X89678246Y-92701832D01*
X89678248Y-92701832D01*
X89678257Y-92701835D01*
X89931466Y-92740000D01*
X89931470Y-92740000D01*
X90187530Y-92740000D01*
X90187534Y-92740000D01*
X90440743Y-92701835D01*
X90440753Y-92701832D01*
X90685429Y-92626360D01*
X90685430Y-92626359D01*
X90685435Y-92626358D01*
X90916146Y-92515254D01*
X91127719Y-92371005D01*
X91315431Y-92196834D01*
X91475087Y-91996631D01*
X91603122Y-91774869D01*
X91610952Y-91754920D01*
X91696672Y-91536505D01*
X91696674Y-91536501D01*
X91753655Y-91286853D01*
X91772791Y-91031500D01*
X91753655Y-90776147D01*
X91696674Y-90526499D01*
X91652600Y-90414200D01*
X91603125Y-90288137D01*
X91603123Y-90288133D01*
X91582432Y-90252296D01*
X91500995Y-90111243D01*
X91475089Y-90066372D01*
X91473595Y-90064498D01*
X91315431Y-89866166D01*
X91127719Y-89691995D01*
X91114907Y-89683260D01*
X91035132Y-89628870D01*
X90916146Y-89547746D01*
X90916143Y-89547745D01*
X90916141Y-89547743D01*
X90916140Y-89547742D01*
X90685436Y-89436642D01*
X90685429Y-89436639D01*
X90592583Y-89408000D01*
X107906502Y-89408000D01*
X107926457Y-89636087D01*
X107935072Y-89668238D01*
X107985715Y-89857240D01*
X107985717Y-89857246D01*
X108082477Y-90064749D01*
X108212165Y-90249963D01*
X108213802Y-90252300D01*
X108375700Y-90414198D01*
X108563251Y-90545523D01*
X108770757Y-90642284D01*
X108991913Y-90701543D01*
X109220000Y-90721498D01*
X109448087Y-90701543D01*
X109669243Y-90642284D01*
X109876749Y-90545523D01*
X110064300Y-90414198D01*
X110226198Y-90252300D01*
X110357523Y-90064749D01*
X110454284Y-89857243D01*
X110513543Y-89636087D01*
X110533498Y-89408000D01*
X110513543Y-89179913D01*
X110506600Y-89154000D01*
X118093917Y-89154000D01*
X119068314Y-89154000D01*
X119059920Y-89162394D01*
X119007259Y-89253606D01*
X118980000Y-89355339D01*
X118980000Y-89460661D01*
X119007259Y-89562394D01*
X119059920Y-89653606D01*
X119068314Y-89662000D01*
X118093918Y-89662000D01*
X118146186Y-89857068D01*
X118146188Y-89857073D01*
X118242912Y-90064498D01*
X118374184Y-90251974D01*
X118374189Y-90251980D01*
X118536019Y-90413810D01*
X118536025Y-90413815D01*
X118723501Y-90545087D01*
X118930926Y-90641811D01*
X118930931Y-90641813D01*
X119126000Y-90694081D01*
X119126000Y-89719686D01*
X119134394Y-89728080D01*
X119225606Y-89780741D01*
X119327339Y-89808000D01*
X119432661Y-89808000D01*
X119534394Y-89780741D01*
X119625606Y-89728080D01*
X119634000Y-89719686D01*
X119634000Y-90694081D01*
X119829068Y-90641813D01*
X119829073Y-90641811D01*
X120036498Y-90545087D01*
X120223974Y-90413815D01*
X120223980Y-90413810D01*
X120385810Y-90251980D01*
X120385815Y-90251974D01*
X120517087Y-90064498D01*
X120613811Y-89857073D01*
X120613813Y-89857068D01*
X120666082Y-89662000D01*
X119691686Y-89662000D01*
X119700080Y-89653606D01*
X119752741Y-89562394D01*
X119780000Y-89460661D01*
X119780000Y-89408000D01*
X121368502Y-89408000D01*
X121388457Y-89636087D01*
X121397072Y-89668238D01*
X121447715Y-89857240D01*
X121447717Y-89857246D01*
X121544477Y-90064749D01*
X121674165Y-90249963D01*
X121675802Y-90252300D01*
X121837700Y-90414198D01*
X122025251Y-90545523D01*
X122232757Y-90642284D01*
X122453913Y-90701543D01*
X122682000Y-90721498D01*
X122910087Y-90701543D01*
X123131243Y-90642284D01*
X123338749Y-90545523D01*
X123526300Y-90414198D01*
X123688198Y-90252300D01*
X123819523Y-90064749D01*
X123916284Y-89857243D01*
X123975543Y-89636087D01*
X123995498Y-89408000D01*
X131528502Y-89408000D01*
X131548457Y-89636087D01*
X131557072Y-89668238D01*
X131607715Y-89857240D01*
X131607717Y-89857246D01*
X131704477Y-90064749D01*
X131834165Y-90249963D01*
X131835802Y-90252300D01*
X131997700Y-90414198D01*
X132185251Y-90545523D01*
X132392757Y-90642284D01*
X132613913Y-90701543D01*
X132842000Y-90721498D01*
X133070087Y-90701543D01*
X133291243Y-90642284D01*
X133498749Y-90545523D01*
X133686300Y-90414198D01*
X133848198Y-90252300D01*
X133979523Y-90064749D01*
X134076284Y-89857243D01*
X134135543Y-89636087D01*
X134155498Y-89408000D01*
X134135543Y-89179913D01*
X134076284Y-88958757D01*
X133979523Y-88751251D01*
X133848198Y-88563700D01*
X133686300Y-88401802D01*
X133498749Y-88270477D01*
X133291246Y-88173717D01*
X133291240Y-88173715D01*
X133197771Y-88148670D01*
X133070087Y-88114457D01*
X132842000Y-88094502D01*
X132613913Y-88114457D01*
X132392759Y-88173715D01*
X132392753Y-88173717D01*
X132185250Y-88270477D01*
X131997703Y-88401799D01*
X131997697Y-88401804D01*
X131835804Y-88563697D01*
X131835799Y-88563703D01*
X131704477Y-88751250D01*
X131607717Y-88958753D01*
X131607715Y-88958759D01*
X131555400Y-89154000D01*
X131548457Y-89179913D01*
X131528502Y-89408000D01*
X123995498Y-89408000D01*
X123975543Y-89179913D01*
X123916284Y-88958757D01*
X123819523Y-88751251D01*
X123688198Y-88563700D01*
X123526300Y-88401802D01*
X123338749Y-88270477D01*
X123131246Y-88173717D01*
X123131240Y-88173715D01*
X123037771Y-88148670D01*
X122910087Y-88114457D01*
X122682000Y-88094502D01*
X122453913Y-88114457D01*
X122232759Y-88173715D01*
X122232753Y-88173717D01*
X122025250Y-88270477D01*
X121837703Y-88401799D01*
X121837697Y-88401804D01*
X121675804Y-88563697D01*
X121675799Y-88563703D01*
X121544477Y-88751250D01*
X121447717Y-88958753D01*
X121447715Y-88958759D01*
X121395400Y-89154000D01*
X121388457Y-89179913D01*
X121368502Y-89408000D01*
X119780000Y-89408000D01*
X119780000Y-89355339D01*
X119752741Y-89253606D01*
X119700080Y-89162394D01*
X119691686Y-89154000D01*
X120666082Y-89154000D01*
X120613813Y-88958931D01*
X120613811Y-88958926D01*
X120517087Y-88751501D01*
X120385815Y-88564025D01*
X120385810Y-88564019D01*
X120223980Y-88402189D01*
X120223974Y-88402184D01*
X120036498Y-88270912D01*
X119829073Y-88174188D01*
X119829071Y-88174187D01*
X119634000Y-88121917D01*
X119634000Y-89096314D01*
X119625606Y-89087920D01*
X119534394Y-89035259D01*
X119432661Y-89008000D01*
X119327339Y-89008000D01*
X119225606Y-89035259D01*
X119134394Y-89087920D01*
X119126000Y-89096314D01*
X119126000Y-88121917D01*
X119125999Y-88121917D01*
X118930928Y-88174187D01*
X118930926Y-88174188D01*
X118723501Y-88270912D01*
X118536025Y-88402184D01*
X118536019Y-88402189D01*
X118374189Y-88564019D01*
X118374184Y-88564025D01*
X118242912Y-88751501D01*
X118146188Y-88958926D01*
X118146186Y-88958931D01*
X118093917Y-89154000D01*
X110506600Y-89154000D01*
X110454284Y-88958757D01*
X110357523Y-88751251D01*
X110226198Y-88563700D01*
X110064300Y-88401802D01*
X109876749Y-88270477D01*
X109669246Y-88173717D01*
X109669240Y-88173715D01*
X109575771Y-88148670D01*
X109448087Y-88114457D01*
X109220000Y-88094502D01*
X108991913Y-88114457D01*
X108770759Y-88173715D01*
X108770753Y-88173717D01*
X108563250Y-88270477D01*
X108375703Y-88401799D01*
X108375697Y-88401804D01*
X108213804Y-88563697D01*
X108213799Y-88563703D01*
X108082477Y-88751250D01*
X107985717Y-88958753D01*
X107985715Y-88958759D01*
X107933400Y-89154000D01*
X107926457Y-89179913D01*
X107906502Y-89408000D01*
X90592583Y-89408000D01*
X90440753Y-89361167D01*
X90440745Y-89361165D01*
X90440743Y-89361165D01*
X90187534Y-89323000D01*
X89931466Y-89323000D01*
X89678257Y-89361165D01*
X89678255Y-89361165D01*
X89678246Y-89361167D01*
X89433573Y-89436638D01*
X89433560Y-89436643D01*
X89202852Y-89547747D01*
X89202845Y-89547751D01*
X88991287Y-89691990D01*
X88991282Y-89691994D01*
X88803570Y-89866165D01*
X88643910Y-90066372D01*
X88515876Y-90288133D01*
X88515874Y-90288137D01*
X88422327Y-90526494D01*
X88422326Y-90526497D01*
X88365345Y-90776143D01*
X88346209Y-91031500D01*
X86772791Y-91031500D01*
X86753655Y-90776147D01*
X86696674Y-90526499D01*
X86652600Y-90414200D01*
X86603125Y-90288137D01*
X86603123Y-90288133D01*
X86582432Y-90252296D01*
X86500995Y-90111243D01*
X86475089Y-90066372D01*
X86473595Y-90064498D01*
X86315431Y-89866166D01*
X86127719Y-89691995D01*
X86114907Y-89683260D01*
X86035132Y-89628870D01*
X85916146Y-89547746D01*
X85916143Y-89547745D01*
X85916141Y-89547743D01*
X85916140Y-89547742D01*
X85685436Y-89436642D01*
X85685429Y-89436639D01*
X85440753Y-89361167D01*
X85440745Y-89361165D01*
X85440743Y-89361165D01*
X85187534Y-89323000D01*
X84931466Y-89323000D01*
X84678257Y-89361165D01*
X84678255Y-89361165D01*
X84678246Y-89361167D01*
X84433573Y-89436638D01*
X84433560Y-89436643D01*
X84202852Y-89547747D01*
X84202845Y-89547751D01*
X83991287Y-89691990D01*
X83991282Y-89691994D01*
X83803570Y-89866165D01*
X83643910Y-90066372D01*
X83515876Y-90288133D01*
X83515874Y-90288137D01*
X83422327Y-90526494D01*
X83422326Y-90526497D01*
X83365345Y-90776143D01*
X83346209Y-91031500D01*
X81772791Y-91031500D01*
X81753655Y-90776147D01*
X81696674Y-90526499D01*
X81652600Y-90414200D01*
X81603125Y-90288137D01*
X81603123Y-90288133D01*
X81582432Y-90252296D01*
X81500995Y-90111243D01*
X81475089Y-90066372D01*
X81473595Y-90064498D01*
X81315431Y-89866166D01*
X81127719Y-89691995D01*
X81114907Y-89683260D01*
X81035132Y-89628870D01*
X80916146Y-89547746D01*
X80916143Y-89547745D01*
X80916141Y-89547743D01*
X80916140Y-89547742D01*
X80685436Y-89436642D01*
X80685429Y-89436639D01*
X80440753Y-89361167D01*
X80440745Y-89361165D01*
X80440743Y-89361165D01*
X80187534Y-89323000D01*
X79931466Y-89323000D01*
X79678257Y-89361165D01*
X79678255Y-89361165D01*
X79678246Y-89361167D01*
X79433573Y-89436638D01*
X79433560Y-89436643D01*
X79202852Y-89547747D01*
X79202845Y-89547751D01*
X78991287Y-89691990D01*
X78991282Y-89691994D01*
X78803570Y-89866165D01*
X78643910Y-90066372D01*
X78515876Y-90288133D01*
X78515874Y-90288137D01*
X78422327Y-90526494D01*
X78422326Y-90526497D01*
X78365345Y-90776143D01*
X78346209Y-91031500D01*
X69840335Y-91031500D01*
X69832590Y-90972673D01*
X69764716Y-90719361D01*
X69664358Y-90477076D01*
X69587837Y-90344538D01*
X69533236Y-90249966D01*
X69533232Y-90249960D01*
X69373592Y-90041914D01*
X69373590Y-90041912D01*
X69373588Y-90041909D01*
X69373582Y-90041903D01*
X69373573Y-90041893D01*
X69188166Y-89856486D01*
X69188145Y-89856467D01*
X68980099Y-89696827D01*
X68980093Y-89696823D01*
X68919778Y-89662000D01*
X74124502Y-89662000D01*
X74144457Y-89890087D01*
X74163600Y-89961530D01*
X74203715Y-90111240D01*
X74203717Y-90111246D01*
X74269492Y-90252302D01*
X74300477Y-90318749D01*
X74431802Y-90506300D01*
X74593700Y-90668198D01*
X74781251Y-90799523D01*
X74988757Y-90896284D01*
X75209913Y-90955543D01*
X75438000Y-90975498D01*
X75666087Y-90955543D01*
X75887243Y-90896284D01*
X76094749Y-90799523D01*
X76282300Y-90668198D01*
X76444198Y-90506300D01*
X76575523Y-90318749D01*
X76672284Y-90111243D01*
X76731543Y-89890087D01*
X76751498Y-89662000D01*
X76731543Y-89433913D01*
X76672284Y-89212757D01*
X76575523Y-89005251D01*
X76444198Y-88817700D01*
X76282300Y-88655802D01*
X76094749Y-88524477D01*
X75887246Y-88427717D01*
X75887240Y-88427715D01*
X75790520Y-88401799D01*
X75666087Y-88368457D01*
X75438000Y-88348502D01*
X75209913Y-88368457D01*
X74988759Y-88427715D01*
X74988753Y-88427717D01*
X74781250Y-88524477D01*
X74593703Y-88655799D01*
X74593697Y-88655804D01*
X74431804Y-88817697D01*
X74431799Y-88817703D01*
X74300477Y-89005250D01*
X74203717Y-89212753D01*
X74203716Y-89212757D01*
X74144457Y-89433913D01*
X74124502Y-89662000D01*
X68919778Y-89662000D01*
X68752995Y-89565708D01*
X68752990Y-89565705D01*
X68752984Y-89565702D01*
X68510699Y-89465344D01*
X68257387Y-89397470D01*
X68257380Y-89397468D01*
X67997386Y-89363240D01*
X67997384Y-89363240D01*
X67735136Y-89363240D01*
X67735133Y-89363240D01*
X67475139Y-89397468D01*
X67239298Y-89460661D01*
X67221821Y-89465344D01*
X66987523Y-89562394D01*
X66979534Y-89565703D01*
X66979524Y-89565708D01*
X66752426Y-89696823D01*
X66752420Y-89696827D01*
X66544374Y-89856467D01*
X66544353Y-89856486D01*
X66358946Y-90041893D01*
X66358927Y-90041914D01*
X66199287Y-90249960D01*
X66199283Y-90249966D01*
X66068168Y-90477064D01*
X66068163Y-90477074D01*
X66068162Y-90477076D01*
X65988996Y-90668200D01*
X65967804Y-90719361D01*
X65899928Y-90972679D01*
X65865700Y-91232673D01*
X62876602Y-91232673D01*
X62865313Y-86491380D01*
X62885153Y-86423212D01*
X62938698Y-86376591D01*
X62991313Y-86365080D01*
X162386686Y-86365080D01*
X162454807Y-86385082D01*
G37*
%TD.AperFunction*%
M02*
