G04 #@! TF.FileFunction,Legend,Top*
%FSLAX46Y46*%
G04 Gerber Fmt 4.6, Leading zero omitted, Abs format (unit mm)*
G04 Created by KiCad (PCBNEW 4.0.7) date 04/22/18 21:18:39*
%MOMM*%
%LPD*%
G01*
G04 APERTURE LIST*
%ADD10C,0.100000*%
%ADD11C,0.150000*%
%ADD12C,0.304800*%
%ADD13C,0.500000*%
%ADD14C,0.381000*%
%ADD15C,0.254000*%
%ADD16C,0.120000*%
G04 APERTURE END LIST*
D10*
D11*
X98405000Y-100334000D02*
X98405000Y-103334000D01*
X95905000Y-103334000D02*
X95905000Y-100334000D01*
X73410000Y-72410000D02*
X76410000Y-72410000D01*
X76410000Y-74910000D02*
X73410000Y-74910000D01*
X76577000Y-46208000D02*
X73577000Y-46208000D01*
X73577000Y-43708000D02*
X76577000Y-43708000D01*
D12*
X83660000Y-85035000D02*
X89060000Y-85035000D01*
X88660000Y-84835000D02*
X84060000Y-84835000D01*
X88260000Y-84635000D02*
X84460000Y-84635000D01*
X85060000Y-84435000D02*
X87660000Y-84435000D01*
X91660000Y-89535000D02*
G75*
G03X91660000Y-89535000I-5300000J0D01*
G01*
D13*
X87860000Y-86285000D02*
X89360000Y-86285000D01*
D11*
X91690000Y-111740000D02*
X88690000Y-111740000D01*
X88690000Y-109240000D02*
X91690000Y-109240000D01*
X84689000Y-97834000D02*
X84689000Y-100834000D01*
X82189000Y-100834000D02*
X82189000Y-97834000D01*
X80030000Y-66925000D02*
X80030000Y-63925000D01*
X82530000Y-63925000D02*
X82530000Y-66925000D01*
X80030000Y-53590000D02*
X80030000Y-50590000D01*
X82530000Y-50590000D02*
X82530000Y-53590000D01*
D12*
X112455000Y-95270000D02*
X107255000Y-95270000D01*
X113555000Y-95070000D02*
X106155000Y-95070000D01*
X114455000Y-94870000D02*
X105255000Y-94870000D01*
X115055000Y-94670000D02*
X104655000Y-94670000D01*
X115755000Y-94470000D02*
X103955000Y-94470000D01*
X116255000Y-94270000D02*
X103455000Y-94270000D01*
X116755000Y-94070000D02*
X102955000Y-94070000D01*
X117255000Y-93870000D02*
X102455000Y-93870000D01*
X117655000Y-93670000D02*
X102055000Y-93670000D01*
X118055000Y-93470000D02*
X101655000Y-93470000D01*
X127855000Y-77470000D02*
G75*
G03X127855000Y-77470000I-18000000J0D01*
G01*
D13*
X110855000Y-87270000D02*
X108855000Y-87270000D01*
D12*
X156265000Y-67785000D02*
X156265000Y-73185000D01*
X156465000Y-72785000D02*
X156465000Y-68185000D01*
X156665000Y-72385000D02*
X156665000Y-68585000D01*
X156865000Y-69185000D02*
X156865000Y-71785000D01*
X157065000Y-70485000D02*
G75*
G03X157065000Y-70485000I-5300000J0D01*
G01*
D13*
X155015000Y-71985000D02*
X155015000Y-73485000D01*
D12*
X156265000Y-83025000D02*
X156265000Y-88425000D01*
X156465000Y-88025000D02*
X156465000Y-83425000D01*
X156665000Y-87625000D02*
X156665000Y-83825000D01*
X156865000Y-84425000D02*
X156865000Y-87025000D01*
X157065000Y-85725000D02*
G75*
G03X157065000Y-85725000I-5300000J0D01*
G01*
D13*
X155015000Y-87225000D02*
X155015000Y-88725000D01*
D11*
X133989000Y-70378000D02*
X136989000Y-70378000D01*
X136989000Y-72878000D02*
X133989000Y-72878000D01*
X133989000Y-83332000D02*
X136989000Y-83332000D01*
X136989000Y-85832000D02*
X133989000Y-85832000D01*
X142871000Y-72878000D02*
X139871000Y-72878000D01*
X139871000Y-70378000D02*
X142871000Y-70378000D01*
X142871000Y-85832000D02*
X139871000Y-85832000D01*
X139871000Y-83332000D02*
X142871000Y-83332000D01*
X87757000Y-65786000D02*
X87757000Y-66675000D01*
X87757000Y-64897000D02*
X87757000Y-64135000D01*
X87757000Y-65786000D02*
X86741000Y-65024000D01*
X86741000Y-65024000D02*
X88646000Y-65024000D01*
X88646000Y-65024000D02*
X87757000Y-65786000D01*
X86741000Y-65786000D02*
X88646000Y-65786000D01*
X84709000Y-66929000D02*
X85852000Y-66929000D01*
X84709000Y-63881000D02*
X85852000Y-63881000D01*
X85852000Y-60071000D02*
X89535000Y-60071000D01*
X89535000Y-60071000D02*
X89535000Y-70739000D01*
X89535000Y-70739000D02*
X85852000Y-70739000D01*
X84709000Y-60071000D02*
X85852000Y-60071000D01*
X85852000Y-60071000D02*
X85852000Y-70739000D01*
X85852000Y-70739000D02*
X84709000Y-70739000D01*
X84709000Y-65405000D02*
X84709000Y-70739000D01*
X84709000Y-65405000D02*
X84709000Y-60071000D01*
X86487000Y-51943000D02*
X86487000Y-51054000D01*
X86487000Y-52832000D02*
X86487000Y-53594000D01*
X86487000Y-51943000D02*
X87503000Y-52705000D01*
X87503000Y-52705000D02*
X85598000Y-52705000D01*
X85598000Y-52705000D02*
X86487000Y-51943000D01*
X87503000Y-51943000D02*
X85598000Y-51943000D01*
X89535000Y-50800000D02*
X88392000Y-50800000D01*
X89535000Y-53848000D02*
X88392000Y-53848000D01*
X88392000Y-57658000D02*
X84709000Y-57658000D01*
X84709000Y-57658000D02*
X84709000Y-46990000D01*
X84709000Y-46990000D02*
X88392000Y-46990000D01*
X89535000Y-57658000D02*
X88392000Y-57658000D01*
X88392000Y-57658000D02*
X88392000Y-46990000D01*
X88392000Y-46990000D02*
X89535000Y-46990000D01*
X89535000Y-52324000D02*
X89535000Y-46990000D01*
X89535000Y-52324000D02*
X89535000Y-57658000D01*
X74295000Y-65024000D02*
X74295000Y-64135000D01*
X74295000Y-65913000D02*
X74295000Y-66675000D01*
X74295000Y-65024000D02*
X75311000Y-65786000D01*
X75311000Y-65786000D02*
X73406000Y-65786000D01*
X73406000Y-65786000D02*
X74295000Y-65024000D01*
X75311000Y-65024000D02*
X73406000Y-65024000D01*
X77343000Y-63881000D02*
X76200000Y-63881000D01*
X77343000Y-66929000D02*
X76200000Y-66929000D01*
X76200000Y-70739000D02*
X72517000Y-70739000D01*
X72517000Y-70739000D02*
X72517000Y-60071000D01*
X72517000Y-60071000D02*
X76200000Y-60071000D01*
X77343000Y-70739000D02*
X76200000Y-70739000D01*
X76200000Y-70739000D02*
X76200000Y-60071000D01*
X76200000Y-60071000D02*
X77343000Y-60071000D01*
X77343000Y-65405000D02*
X77343000Y-60071000D01*
X77343000Y-65405000D02*
X77343000Y-70739000D01*
X75565000Y-52705000D02*
X75565000Y-53594000D01*
X75565000Y-51816000D02*
X75565000Y-51054000D01*
X75565000Y-52705000D02*
X74549000Y-51943000D01*
X74549000Y-51943000D02*
X76454000Y-51943000D01*
X76454000Y-51943000D02*
X75565000Y-52705000D01*
X74549000Y-52705000D02*
X76454000Y-52705000D01*
X72517000Y-53848000D02*
X73660000Y-53848000D01*
X72517000Y-50800000D02*
X73660000Y-50800000D01*
X73660000Y-46990000D02*
X77343000Y-46990000D01*
X77343000Y-46990000D02*
X77343000Y-57658000D01*
X77343000Y-57658000D02*
X73660000Y-57658000D01*
X72517000Y-46990000D02*
X73660000Y-46990000D01*
X73660000Y-46990000D02*
X73660000Y-57658000D01*
X73660000Y-57658000D02*
X72517000Y-57658000D01*
X72517000Y-52324000D02*
X72517000Y-57658000D01*
X72517000Y-52324000D02*
X72517000Y-46990000D01*
D14*
X78359000Y-85852000D02*
X78359000Y-90932000D01*
X78359000Y-85852000D02*
X79629000Y-86487000D01*
X79629000Y-86487000D02*
X79629000Y-90297000D01*
X79629000Y-90297000D02*
X78359000Y-90932000D01*
X78359000Y-85852000D02*
G75*
G03X75819000Y-88392000I0J-2540000D01*
G01*
X75819000Y-88392000D02*
G75*
G03X78359000Y-90932000I2540000J0D01*
G01*
X63299340Y-60060840D02*
X63350140Y-60149740D01*
X63350140Y-60149740D02*
X63350140Y-60350400D01*
X63350140Y-60350400D02*
X63240920Y-60510420D01*
X63240920Y-60510420D02*
X63040260Y-60568840D01*
X63040260Y-60568840D02*
X62461140Y-59959240D01*
X62461140Y-59959240D02*
X62461140Y-60629800D01*
X62979300Y-55780940D02*
X63350140Y-56179720D01*
X63350140Y-56179720D02*
X62461140Y-56169560D01*
X66370200Y-59690000D02*
X66768980Y-58889900D01*
X66370200Y-63830200D02*
X66768980Y-63030100D01*
X63169800Y-63830200D02*
X62771020Y-63030100D01*
X63169800Y-59690000D02*
X62771020Y-58889900D01*
X66370200Y-63830200D02*
X63169800Y-63830200D01*
X66370200Y-59690000D02*
X63169800Y-59690000D01*
X61970920Y-60190380D02*
X60970160Y-60190380D01*
X60970160Y-60190380D02*
X60970160Y-59189620D01*
X60970160Y-59189620D02*
X61970920Y-59189620D01*
X61970920Y-64691260D02*
X60970160Y-64691260D01*
X60970160Y-64691260D02*
X60970160Y-63690500D01*
X60970160Y-63690500D02*
X61970920Y-63690500D01*
X61970920Y-54688740D02*
X60970160Y-54688740D01*
X60970160Y-54688740D02*
X60970160Y-55689500D01*
X60970160Y-55689500D02*
X61970920Y-55689500D01*
X66570860Y-54688740D02*
X66570860Y-52890420D01*
X66570860Y-52890420D02*
X62969140Y-52890420D01*
X62969140Y-52890420D02*
X62969140Y-54688740D01*
X66271140Y-64691260D02*
X66489580Y-64960500D01*
X66489580Y-64960500D02*
X66700400Y-65338960D01*
X66700400Y-65338960D02*
X66829940Y-65730120D01*
X66829940Y-65730120D02*
X66890900Y-66210180D01*
X66890900Y-66210180D02*
X66840100Y-66680080D01*
X66840100Y-66680080D02*
X66720720Y-67020440D01*
X66720720Y-67020440D02*
X66520060Y-67398900D01*
X66520060Y-67398900D02*
X66200020Y-67769740D01*
X66200020Y-67769740D02*
X65849500Y-68021200D01*
X65849500Y-68021200D02*
X65399920Y-68229480D01*
X65399920Y-68229480D02*
X64960500Y-68320920D01*
X64960500Y-68320920D02*
X64419480Y-68320920D01*
X64419480Y-68320920D02*
X63710820Y-68069460D01*
X63710820Y-68069460D02*
X63240920Y-67701160D01*
X63240920Y-67701160D02*
X62989460Y-67340480D01*
X62989460Y-67340480D02*
X62730380Y-66809620D01*
X62730380Y-66809620D02*
X62669420Y-66159380D01*
X62669420Y-66159380D02*
X62750700Y-65570100D01*
X62750700Y-65570100D02*
X62969140Y-65120520D01*
X62969140Y-65120520D02*
X63268860Y-64691260D01*
X67569080Y-54688740D02*
X61970920Y-54688740D01*
X61970920Y-54688740D02*
X61970920Y-64691260D01*
X61970920Y-64691260D02*
X63268860Y-64691260D01*
X67569080Y-54688740D02*
X67569080Y-64698880D01*
X67569080Y-64698880D02*
X66260980Y-64691260D01*
X155775660Y-55509160D02*
X155724860Y-55420260D01*
X155724860Y-55420260D02*
X155724860Y-55219600D01*
X155724860Y-55219600D02*
X155834080Y-55059580D01*
X155834080Y-55059580D02*
X156034740Y-55001160D01*
X156034740Y-55001160D02*
X156613860Y-55610760D01*
X156613860Y-55610760D02*
X156613860Y-54940200D01*
X156095700Y-59789060D02*
X155724860Y-59390280D01*
X155724860Y-59390280D02*
X156613860Y-59400440D01*
X152704800Y-55880000D02*
X152306020Y-56680100D01*
X152704800Y-51739800D02*
X152306020Y-52539900D01*
X155905200Y-51739800D02*
X156303980Y-52539900D01*
X155905200Y-55880000D02*
X156303980Y-56680100D01*
X152704800Y-51739800D02*
X155905200Y-51739800D01*
X152704800Y-55880000D02*
X155905200Y-55880000D01*
X157104080Y-55379620D02*
X158104840Y-55379620D01*
X158104840Y-55379620D02*
X158104840Y-56380380D01*
X158104840Y-56380380D02*
X157104080Y-56380380D01*
X157104080Y-50878740D02*
X158104840Y-50878740D01*
X158104840Y-50878740D02*
X158104840Y-51879500D01*
X158104840Y-51879500D02*
X157104080Y-51879500D01*
X157104080Y-60881260D02*
X158104840Y-60881260D01*
X158104840Y-60881260D02*
X158104840Y-59880500D01*
X158104840Y-59880500D02*
X157104080Y-59880500D01*
X152504140Y-60881260D02*
X152504140Y-62679580D01*
X152504140Y-62679580D02*
X156105860Y-62679580D01*
X156105860Y-62679580D02*
X156105860Y-60881260D01*
X152803860Y-50878740D02*
X152585420Y-50609500D01*
X152585420Y-50609500D02*
X152374600Y-50231040D01*
X152374600Y-50231040D02*
X152245060Y-49839880D01*
X152245060Y-49839880D02*
X152184100Y-49359820D01*
X152184100Y-49359820D02*
X152234900Y-48889920D01*
X152234900Y-48889920D02*
X152354280Y-48549560D01*
X152354280Y-48549560D02*
X152554940Y-48171100D01*
X152554940Y-48171100D02*
X152874980Y-47800260D01*
X152874980Y-47800260D02*
X153225500Y-47548800D01*
X153225500Y-47548800D02*
X153675080Y-47340520D01*
X153675080Y-47340520D02*
X154114500Y-47249080D01*
X154114500Y-47249080D02*
X154655520Y-47249080D01*
X154655520Y-47249080D02*
X155364180Y-47500540D01*
X155364180Y-47500540D02*
X155834080Y-47868840D01*
X155834080Y-47868840D02*
X156085540Y-48229520D01*
X156085540Y-48229520D02*
X156344620Y-48760380D01*
X156344620Y-48760380D02*
X156405580Y-49410620D01*
X156405580Y-49410620D02*
X156324300Y-49999900D01*
X156324300Y-49999900D02*
X156105860Y-50449480D01*
X156105860Y-50449480D02*
X155806140Y-50878740D01*
X151505920Y-60881260D02*
X157104080Y-60881260D01*
X157104080Y-60881260D02*
X157104080Y-50878740D01*
X157104080Y-50878740D02*
X155806140Y-50878740D01*
X151505920Y-60881260D02*
X151505920Y-50871120D01*
X151505920Y-50871120D02*
X152814020Y-50878740D01*
X152834340Y-100700840D02*
X152885140Y-100789740D01*
X152885140Y-100789740D02*
X152885140Y-100990400D01*
X152885140Y-100990400D02*
X152775920Y-101150420D01*
X152775920Y-101150420D02*
X152575260Y-101208840D01*
X152575260Y-101208840D02*
X151996140Y-100599240D01*
X151996140Y-100599240D02*
X151996140Y-101269800D01*
X152514300Y-96420940D02*
X152885140Y-96819720D01*
X152885140Y-96819720D02*
X151996140Y-96809560D01*
X155905200Y-100330000D02*
X156303980Y-99529900D01*
X155905200Y-104470200D02*
X156303980Y-103670100D01*
X152704800Y-104470200D02*
X152306020Y-103670100D01*
X152704800Y-100330000D02*
X152306020Y-99529900D01*
X155905200Y-104470200D02*
X152704800Y-104470200D01*
X155905200Y-100330000D02*
X152704800Y-100330000D01*
X151505920Y-100830380D02*
X150505160Y-100830380D01*
X150505160Y-100830380D02*
X150505160Y-99829620D01*
X150505160Y-99829620D02*
X151505920Y-99829620D01*
X151505920Y-105331260D02*
X150505160Y-105331260D01*
X150505160Y-105331260D02*
X150505160Y-104330500D01*
X150505160Y-104330500D02*
X151505920Y-104330500D01*
X151505920Y-95328740D02*
X150505160Y-95328740D01*
X150505160Y-95328740D02*
X150505160Y-96329500D01*
X150505160Y-96329500D02*
X151505920Y-96329500D01*
X156105860Y-95328740D02*
X156105860Y-93530420D01*
X156105860Y-93530420D02*
X152504140Y-93530420D01*
X152504140Y-93530420D02*
X152504140Y-95328740D01*
X155806140Y-105331260D02*
X156024580Y-105600500D01*
X156024580Y-105600500D02*
X156235400Y-105978960D01*
X156235400Y-105978960D02*
X156364940Y-106370120D01*
X156364940Y-106370120D02*
X156425900Y-106850180D01*
X156425900Y-106850180D02*
X156375100Y-107320080D01*
X156375100Y-107320080D02*
X156255720Y-107660440D01*
X156255720Y-107660440D02*
X156055060Y-108038900D01*
X156055060Y-108038900D02*
X155735020Y-108409740D01*
X155735020Y-108409740D02*
X155384500Y-108661200D01*
X155384500Y-108661200D02*
X154934920Y-108869480D01*
X154934920Y-108869480D02*
X154495500Y-108960920D01*
X154495500Y-108960920D02*
X153954480Y-108960920D01*
X153954480Y-108960920D02*
X153245820Y-108709460D01*
X153245820Y-108709460D02*
X152775920Y-108341160D01*
X152775920Y-108341160D02*
X152524460Y-107980480D01*
X152524460Y-107980480D02*
X152265380Y-107449620D01*
X152265380Y-107449620D02*
X152204420Y-106799380D01*
X152204420Y-106799380D02*
X152285700Y-106210100D01*
X152285700Y-106210100D02*
X152504140Y-105760520D01*
X152504140Y-105760520D02*
X152803860Y-105331260D01*
X157104080Y-95328740D02*
X151505920Y-95328740D01*
X151505920Y-95328740D02*
X151505920Y-105331260D01*
X151505920Y-105331260D02*
X152803860Y-105331260D01*
X157104080Y-95328740D02*
X157104080Y-105338880D01*
X157104080Y-105338880D02*
X155795980Y-105331260D01*
D11*
X72009000Y-90932000D02*
X72009000Y-85852000D01*
X72009000Y-85852000D02*
X74549000Y-85852000D01*
X74549000Y-85852000D02*
X74549000Y-90932000D01*
X74549000Y-90932000D02*
X72009000Y-90932000D01*
X73279000Y-90932000D02*
X73279000Y-92202000D01*
X73279000Y-85852000D02*
X73279000Y-84582000D01*
X104775000Y-98425000D02*
X104775000Y-103505000D01*
X104775000Y-103505000D02*
X102235000Y-103505000D01*
X102235000Y-103505000D02*
X102235000Y-98425000D01*
X102235000Y-98425000D02*
X104775000Y-98425000D01*
X103505000Y-98425000D02*
X103505000Y-97155000D01*
X103505000Y-103505000D02*
X103505000Y-104775000D01*
X81153000Y-99695000D02*
X81153000Y-104775000D01*
X81153000Y-104775000D02*
X78613000Y-104775000D01*
X78613000Y-104775000D02*
X78613000Y-99695000D01*
X78613000Y-99695000D02*
X81153000Y-99695000D01*
X79883000Y-99695000D02*
X79883000Y-98425000D01*
X79883000Y-104775000D02*
X79883000Y-106045000D01*
X137795000Y-64770000D02*
X132715000Y-64770000D01*
X132715000Y-64770000D02*
X132715000Y-62230000D01*
X132715000Y-62230000D02*
X137795000Y-62230000D01*
X137795000Y-62230000D02*
X137795000Y-64770000D01*
X137795000Y-63500000D02*
X139065000Y-63500000D01*
X132715000Y-63500000D02*
X131445000Y-63500000D01*
X72009000Y-104775000D02*
X72009000Y-99695000D01*
X72009000Y-99695000D02*
X74549000Y-99695000D01*
X74549000Y-99695000D02*
X74549000Y-104775000D01*
X74549000Y-104775000D02*
X72009000Y-104775000D01*
X73279000Y-104775000D02*
X73279000Y-106045000D01*
X73279000Y-99695000D02*
X73279000Y-98425000D01*
X132969000Y-67056000D02*
X138049000Y-67056000D01*
X138049000Y-67056000D02*
X138049000Y-69596000D01*
X138049000Y-69596000D02*
X132969000Y-69596000D01*
X132969000Y-69596000D02*
X132969000Y-67056000D01*
X132969000Y-68326000D02*
X131699000Y-68326000D01*
X138049000Y-68326000D02*
X139319000Y-68326000D01*
X138176000Y-76454000D02*
X133096000Y-76454000D01*
X133096000Y-76454000D02*
X133096000Y-73914000D01*
X133096000Y-73914000D02*
X138176000Y-73914000D01*
X138176000Y-73914000D02*
X138176000Y-76454000D01*
X138176000Y-75184000D02*
X139446000Y-75184000D01*
X133096000Y-75184000D02*
X131826000Y-75184000D01*
X132969000Y-86614000D02*
X138049000Y-86614000D01*
X138049000Y-86614000D02*
X138049000Y-89154000D01*
X138049000Y-89154000D02*
X132969000Y-89154000D01*
X132969000Y-89154000D02*
X132969000Y-86614000D01*
X132969000Y-87884000D02*
X131699000Y-87884000D01*
X138049000Y-87884000D02*
X139319000Y-87884000D01*
X138049000Y-82550000D02*
X132969000Y-82550000D01*
X132969000Y-82550000D02*
X132969000Y-80010000D01*
X132969000Y-80010000D02*
X138049000Y-80010000D01*
X138049000Y-80010000D02*
X138049000Y-82550000D01*
X138049000Y-81280000D02*
X139319000Y-81280000D01*
X132969000Y-81280000D02*
X131699000Y-81280000D01*
X89027000Y-106934000D02*
X89027000Y-105664000D01*
X89027000Y-105664000D02*
X91567000Y-105664000D01*
X91567000Y-105664000D02*
X91567000Y-106934000D01*
X87757000Y-106934000D02*
X87757000Y-96774000D01*
X87757000Y-96774000D02*
X92837000Y-96774000D01*
X92837000Y-96774000D02*
X92837000Y-106934000D01*
X92837000Y-106934000D02*
X87757000Y-106934000D01*
D12*
X141370232Y-106680000D02*
G75*
G03X141370232Y-106680000I-2000432J0D01*
G01*
X128945640Y-112179100D02*
X128945640Y-113680240D01*
X129943860Y-112179100D02*
X129943860Y-113680240D01*
X132946140Y-112179100D02*
X132946140Y-113680240D01*
X133944360Y-112179100D02*
X133944360Y-113680240D01*
X137444480Y-112179100D02*
X137444480Y-113680240D01*
X138445240Y-112179100D02*
X138445240Y-113680240D01*
X141444980Y-112179100D02*
X141444980Y-113680240D01*
X142445740Y-112179100D02*
X142445740Y-113680240D01*
X142445740Y-99679760D02*
X142445740Y-101180900D01*
X141444980Y-99679760D02*
X141444980Y-101180900D01*
X138445240Y-99679760D02*
X138445240Y-101180900D01*
X137444480Y-99679760D02*
X137444480Y-101180900D01*
X133944360Y-99679760D02*
X133944360Y-101180900D01*
X132946140Y-99679760D02*
X132946140Y-101180900D01*
X129943860Y-99679760D02*
X129943860Y-101180900D01*
X128945640Y-99679760D02*
X128945640Y-101180900D01*
X145445480Y-112179100D02*
X125945900Y-112179100D01*
X125945900Y-101180900D02*
X145445480Y-101180900D01*
X125945900Y-99679760D02*
X125945900Y-113680240D01*
X125945900Y-113680240D02*
X145445480Y-113680240D01*
X145445480Y-113680240D02*
X145445480Y-99679760D01*
X145445480Y-99679760D02*
X125945900Y-99679760D01*
X127254000Y-106680000D02*
X120523000Y-106680000D01*
X123063000Y-109220000D02*
X127254000Y-109220000D01*
X123063000Y-104140000D02*
X127254000Y-104140000D01*
X127254000Y-101600000D02*
X127254000Y-111760000D01*
X142621000Y-111760000D02*
X142621000Y-101600000D01*
X127254000Y-111760000D02*
X142621000Y-111760000D01*
X142621000Y-101600000D02*
X127254000Y-101600000D01*
D15*
X136144000Y-111760000D02*
X136144000Y-101600000D01*
D12*
X141370232Y-49530000D02*
G75*
G03X141370232Y-49530000I-2000432J0D01*
G01*
X128945640Y-55029100D02*
X128945640Y-56530240D01*
X129943860Y-55029100D02*
X129943860Y-56530240D01*
X132946140Y-55029100D02*
X132946140Y-56530240D01*
X133944360Y-55029100D02*
X133944360Y-56530240D01*
X137444480Y-55029100D02*
X137444480Y-56530240D01*
X138445240Y-55029100D02*
X138445240Y-56530240D01*
X141444980Y-55029100D02*
X141444980Y-56530240D01*
X142445740Y-55029100D02*
X142445740Y-56530240D01*
X142445740Y-42529760D02*
X142445740Y-44030900D01*
X141444980Y-42529760D02*
X141444980Y-44030900D01*
X138445240Y-42529760D02*
X138445240Y-44030900D01*
X137444480Y-42529760D02*
X137444480Y-44030900D01*
X133944360Y-42529760D02*
X133944360Y-44030900D01*
X132946140Y-42529760D02*
X132946140Y-44030900D01*
X129943860Y-42529760D02*
X129943860Y-44030900D01*
X128945640Y-42529760D02*
X128945640Y-44030900D01*
X145445480Y-55029100D02*
X125945900Y-55029100D01*
X125945900Y-44030900D02*
X145445480Y-44030900D01*
X125945900Y-42529760D02*
X125945900Y-56530240D01*
X125945900Y-56530240D02*
X145445480Y-56530240D01*
X145445480Y-56530240D02*
X145445480Y-42529760D01*
X145445480Y-42529760D02*
X125945900Y-42529760D01*
X127254000Y-49530000D02*
X120523000Y-49530000D01*
X123063000Y-52070000D02*
X127254000Y-52070000D01*
X123063000Y-46990000D02*
X127254000Y-46990000D01*
X127254000Y-44450000D02*
X127254000Y-54610000D01*
X142621000Y-54610000D02*
X142621000Y-44450000D01*
X127254000Y-54610000D02*
X142621000Y-54610000D01*
X142621000Y-44450000D02*
X127254000Y-44450000D01*
D15*
X136144000Y-54610000D02*
X136144000Y-44450000D01*
D16*
X67790000Y-86895000D02*
X61790000Y-86895000D01*
X61790000Y-86895000D02*
X61790000Y-92175000D01*
X61790000Y-92175000D02*
X67790000Y-92175000D01*
X67790000Y-92175000D02*
X67790000Y-86895000D01*
X61790000Y-88265000D02*
X62790000Y-88265000D01*
X62790000Y-88265000D02*
X62790000Y-90805000D01*
X62790000Y-90805000D02*
X61790000Y-90805000D01*
X62790000Y-88265000D02*
X63220000Y-88515000D01*
X63220000Y-88515000D02*
X63220000Y-90555000D01*
X63220000Y-90555000D02*
X62790000Y-90805000D01*
X61790000Y-88515000D02*
X62790000Y-88515000D01*
X61790000Y-90555000D02*
X62790000Y-90555000D01*
X67790000Y-87465000D02*
X67170000Y-87465000D01*
X67170000Y-87465000D02*
X67170000Y-89065000D01*
X67170000Y-89065000D02*
X67790000Y-89065000D01*
X67790000Y-90005000D02*
X67170000Y-90005000D01*
X67170000Y-90005000D02*
X67170000Y-91605000D01*
X67170000Y-91605000D02*
X67790000Y-91605000D01*
D11*
X100012143Y-102000666D02*
X100059762Y-102048285D01*
X100107381Y-102191142D01*
X100107381Y-102286380D01*
X100059762Y-102429238D01*
X99964524Y-102524476D01*
X99869286Y-102572095D01*
X99678810Y-102619714D01*
X99535952Y-102619714D01*
X99345476Y-102572095D01*
X99250238Y-102524476D01*
X99155000Y-102429238D01*
X99107381Y-102286380D01*
X99107381Y-102191142D01*
X99155000Y-102048285D01*
X99202619Y-102000666D01*
X99107381Y-101143523D02*
X99107381Y-101334000D01*
X99155000Y-101429238D01*
X99202619Y-101476857D01*
X99345476Y-101572095D01*
X99535952Y-101619714D01*
X99916905Y-101619714D01*
X100012143Y-101572095D01*
X100059762Y-101524476D01*
X100107381Y-101429238D01*
X100107381Y-101238761D01*
X100059762Y-101143523D01*
X100012143Y-101095904D01*
X99916905Y-101048285D01*
X99678810Y-101048285D01*
X99583571Y-101095904D01*
X99535952Y-101143523D01*
X99488333Y-101238761D01*
X99488333Y-101429238D01*
X99535952Y-101524476D01*
X99583571Y-101572095D01*
X99678810Y-101619714D01*
X74743334Y-71517143D02*
X74695715Y-71564762D01*
X74552858Y-71612381D01*
X74457620Y-71612381D01*
X74314762Y-71564762D01*
X74219524Y-71469524D01*
X74171905Y-71374286D01*
X74124286Y-71183810D01*
X74124286Y-71040952D01*
X74171905Y-70850476D01*
X74219524Y-70755238D01*
X74314762Y-70660000D01*
X74457620Y-70612381D01*
X74552858Y-70612381D01*
X74695715Y-70660000D01*
X74743334Y-70707619D01*
X75695715Y-71612381D02*
X75124286Y-71612381D01*
X75410000Y-71612381D02*
X75410000Y-70612381D01*
X75314762Y-70755238D01*
X75219524Y-70850476D01*
X75124286Y-70898095D01*
X74910334Y-47815143D02*
X74862715Y-47862762D01*
X74719858Y-47910381D01*
X74624620Y-47910381D01*
X74481762Y-47862762D01*
X74386524Y-47767524D01*
X74338905Y-47672286D01*
X74291286Y-47481810D01*
X74291286Y-47338952D01*
X74338905Y-47148476D01*
X74386524Y-47053238D01*
X74481762Y-46958000D01*
X74624620Y-46910381D01*
X74719858Y-46910381D01*
X74862715Y-46958000D01*
X74910334Y-47005619D01*
X75291286Y-47005619D02*
X75338905Y-46958000D01*
X75434143Y-46910381D01*
X75672239Y-46910381D01*
X75767477Y-46958000D01*
X75815096Y-47005619D01*
X75862715Y-47100857D01*
X75862715Y-47196095D01*
X75815096Y-47338952D01*
X75243667Y-47910381D01*
X75862715Y-47910381D01*
D12*
X86106000Y-83479286D02*
X86033429Y-83551857D01*
X85815715Y-83624429D01*
X85670572Y-83624429D01*
X85452857Y-83551857D01*
X85307715Y-83406714D01*
X85235143Y-83261571D01*
X85162572Y-82971286D01*
X85162572Y-82753571D01*
X85235143Y-82463286D01*
X85307715Y-82318143D01*
X85452857Y-82173000D01*
X85670572Y-82100429D01*
X85815715Y-82100429D01*
X86033429Y-82173000D01*
X86106000Y-82245571D01*
X86614000Y-82100429D02*
X87557429Y-82100429D01*
X87049429Y-82681000D01*
X87267143Y-82681000D01*
X87412286Y-82753571D01*
X87484857Y-82826143D01*
X87557429Y-82971286D01*
X87557429Y-83334143D01*
X87484857Y-83479286D01*
X87412286Y-83551857D01*
X87267143Y-83624429D01*
X86831715Y-83624429D01*
X86686572Y-83551857D01*
X86614000Y-83479286D01*
X80844571Y-95300429D02*
X80554285Y-95300429D01*
X80409142Y-95373000D01*
X80336571Y-95445571D01*
X80191428Y-95663286D01*
X80118857Y-95953571D01*
X80118857Y-96534143D01*
X80191428Y-96679286D01*
X80264000Y-96751857D01*
X80409142Y-96824429D01*
X80699428Y-96824429D01*
X80844571Y-96751857D01*
X80917142Y-96679286D01*
X80989714Y-96534143D01*
X80989714Y-96171286D01*
X80917142Y-96026143D01*
X80844571Y-95953571D01*
X80699428Y-95881000D01*
X80409142Y-95881000D01*
X80264000Y-95953571D01*
X80191428Y-96026143D01*
X80118857Y-96171286D01*
X81860571Y-95953571D02*
X81715429Y-95881000D01*
X81642857Y-95808429D01*
X81570286Y-95663286D01*
X81570286Y-95590714D01*
X81642857Y-95445571D01*
X81715429Y-95373000D01*
X81860571Y-95300429D01*
X82150857Y-95300429D01*
X82296000Y-95373000D01*
X82368571Y-95445571D01*
X82441143Y-95590714D01*
X82441143Y-95663286D01*
X82368571Y-95808429D01*
X82296000Y-95881000D01*
X82150857Y-95953571D01*
X81860571Y-95953571D01*
X81715429Y-96026143D01*
X81642857Y-96098714D01*
X81570286Y-96243857D01*
X81570286Y-96534143D01*
X81642857Y-96679286D01*
X81715429Y-96751857D01*
X81860571Y-96824429D01*
X82150857Y-96824429D01*
X82296000Y-96751857D01*
X82368571Y-96679286D01*
X82441143Y-96534143D01*
X82441143Y-96243857D01*
X82368571Y-96098714D01*
X82296000Y-96026143D01*
X82150857Y-95953571D01*
X83384572Y-95300429D02*
X83529715Y-95300429D01*
X83674858Y-95373000D01*
X83747429Y-95445571D01*
X83820000Y-95590714D01*
X83892572Y-95881000D01*
X83892572Y-96243857D01*
X83820000Y-96534143D01*
X83747429Y-96679286D01*
X83674858Y-96751857D01*
X83529715Y-96824429D01*
X83384572Y-96824429D01*
X83239429Y-96751857D01*
X83166858Y-96679286D01*
X83094286Y-96534143D01*
X83021715Y-96243857D01*
X83021715Y-95881000D01*
X83094286Y-95590714D01*
X83166858Y-95445571D01*
X83239429Y-95373000D01*
X83384572Y-95300429D01*
X84545715Y-95808429D02*
X84545715Y-97332429D01*
X85271429Y-96606714D02*
X85344001Y-96751857D01*
X85489144Y-96824429D01*
X84545715Y-96606714D02*
X84618287Y-96751857D01*
X84763429Y-96824429D01*
X85053715Y-96824429D01*
X85198858Y-96751857D01*
X85271429Y-96606714D01*
X85271429Y-95808429D01*
X86650286Y-96026143D02*
X86142286Y-96026143D01*
X86142286Y-96824429D02*
X86142286Y-95300429D01*
X86868000Y-95300429D01*
X88537144Y-95227857D02*
X87230858Y-97187286D01*
X89843429Y-96824429D02*
X88972572Y-96824429D01*
X89408000Y-96824429D02*
X89408000Y-95300429D01*
X89262857Y-95518143D01*
X89117715Y-95663286D01*
X88972572Y-95735857D01*
X91149715Y-95300429D02*
X90859429Y-95300429D01*
X90714286Y-95373000D01*
X90641715Y-95445571D01*
X90496572Y-95663286D01*
X90424001Y-95953571D01*
X90424001Y-96534143D01*
X90496572Y-96679286D01*
X90569144Y-96751857D01*
X90714286Y-96824429D01*
X91004572Y-96824429D01*
X91149715Y-96751857D01*
X91222286Y-96679286D01*
X91294858Y-96534143D01*
X91294858Y-96171286D01*
X91222286Y-96026143D01*
X91149715Y-95953571D01*
X91004572Y-95881000D01*
X90714286Y-95881000D01*
X90569144Y-95953571D01*
X90496572Y-96026143D01*
X90424001Y-96171286D01*
X91730287Y-95300429D02*
X92238287Y-96824429D01*
X92746287Y-95300429D01*
D11*
X90023334Y-113347143D02*
X89975715Y-113394762D01*
X89832858Y-113442381D01*
X89737620Y-113442381D01*
X89594762Y-113394762D01*
X89499524Y-113299524D01*
X89451905Y-113204286D01*
X89404286Y-113013810D01*
X89404286Y-112870952D01*
X89451905Y-112680476D01*
X89499524Y-112585238D01*
X89594762Y-112490000D01*
X89737620Y-112442381D01*
X89832858Y-112442381D01*
X89975715Y-112490000D01*
X90023334Y-112537619D01*
X90928096Y-112442381D02*
X90451905Y-112442381D01*
X90404286Y-112918571D01*
X90451905Y-112870952D01*
X90547143Y-112823333D01*
X90785239Y-112823333D01*
X90880477Y-112870952D01*
X90928096Y-112918571D01*
X90975715Y-113013810D01*
X90975715Y-113251905D01*
X90928096Y-113347143D01*
X90880477Y-113394762D01*
X90785239Y-113442381D01*
X90547143Y-113442381D01*
X90451905Y-113394762D01*
X90404286Y-113347143D01*
X86296143Y-99500666D02*
X86343762Y-99548285D01*
X86391381Y-99691142D01*
X86391381Y-99786380D01*
X86343762Y-99929238D01*
X86248524Y-100024476D01*
X86153286Y-100072095D01*
X85962810Y-100119714D01*
X85819952Y-100119714D01*
X85629476Y-100072095D01*
X85534238Y-100024476D01*
X85439000Y-99929238D01*
X85391381Y-99786380D01*
X85391381Y-99691142D01*
X85439000Y-99548285D01*
X85486619Y-99500666D01*
X85391381Y-99167333D02*
X85391381Y-98500666D01*
X86391381Y-98929238D01*
X79137143Y-65591666D02*
X79184762Y-65639285D01*
X79232381Y-65782142D01*
X79232381Y-65877380D01*
X79184762Y-66020238D01*
X79089524Y-66115476D01*
X78994286Y-66163095D01*
X78803810Y-66210714D01*
X78660952Y-66210714D01*
X78470476Y-66163095D01*
X78375238Y-66115476D01*
X78280000Y-66020238D01*
X78232381Y-65877380D01*
X78232381Y-65782142D01*
X78280000Y-65639285D01*
X78327619Y-65591666D01*
X78660952Y-65020238D02*
X78613333Y-65115476D01*
X78565714Y-65163095D01*
X78470476Y-65210714D01*
X78422857Y-65210714D01*
X78327619Y-65163095D01*
X78280000Y-65115476D01*
X78232381Y-65020238D01*
X78232381Y-64829761D01*
X78280000Y-64734523D01*
X78327619Y-64686904D01*
X78422857Y-64639285D01*
X78470476Y-64639285D01*
X78565714Y-64686904D01*
X78613333Y-64734523D01*
X78660952Y-64829761D01*
X78660952Y-65020238D01*
X78708571Y-65115476D01*
X78756190Y-65163095D01*
X78851429Y-65210714D01*
X79041905Y-65210714D01*
X79137143Y-65163095D01*
X79184762Y-65115476D01*
X79232381Y-65020238D01*
X79232381Y-64829761D01*
X79184762Y-64734523D01*
X79137143Y-64686904D01*
X79041905Y-64639285D01*
X78851429Y-64639285D01*
X78756190Y-64686904D01*
X78708571Y-64734523D01*
X78660952Y-64829761D01*
X79137143Y-52256666D02*
X79184762Y-52304285D01*
X79232381Y-52447142D01*
X79232381Y-52542380D01*
X79184762Y-52685238D01*
X79089524Y-52780476D01*
X78994286Y-52828095D01*
X78803810Y-52875714D01*
X78660952Y-52875714D01*
X78470476Y-52828095D01*
X78375238Y-52780476D01*
X78280000Y-52685238D01*
X78232381Y-52542380D01*
X78232381Y-52447142D01*
X78280000Y-52304285D01*
X78327619Y-52256666D01*
X79232381Y-51780476D02*
X79232381Y-51590000D01*
X79184762Y-51494761D01*
X79137143Y-51447142D01*
X78994286Y-51351904D01*
X78803810Y-51304285D01*
X78422857Y-51304285D01*
X78327619Y-51351904D01*
X78280000Y-51399523D01*
X78232381Y-51494761D01*
X78232381Y-51685238D01*
X78280000Y-51780476D01*
X78327619Y-51828095D01*
X78422857Y-51875714D01*
X78660952Y-51875714D01*
X78756190Y-51828095D01*
X78803810Y-51780476D01*
X78851429Y-51685238D01*
X78851429Y-51494761D01*
X78803810Y-51399523D01*
X78756190Y-51351904D01*
X78660952Y-51304285D01*
D12*
X108875285Y-97314286D02*
X108802714Y-97386857D01*
X108585000Y-97459429D01*
X108439857Y-97459429D01*
X108222142Y-97386857D01*
X108077000Y-97241714D01*
X108004428Y-97096571D01*
X107931857Y-96806286D01*
X107931857Y-96588571D01*
X108004428Y-96298286D01*
X108077000Y-96153143D01*
X108222142Y-96008000D01*
X108439857Y-95935429D01*
X108585000Y-95935429D01*
X108802714Y-96008000D01*
X108875285Y-96080571D01*
X110326714Y-97459429D02*
X109455857Y-97459429D01*
X109891285Y-97459429D02*
X109891285Y-95935429D01*
X109746142Y-96153143D01*
X109601000Y-96298286D01*
X109455857Y-96370857D01*
X111270143Y-95935429D02*
X111415286Y-95935429D01*
X111560429Y-96008000D01*
X111633000Y-96080571D01*
X111705571Y-96225714D01*
X111778143Y-96516000D01*
X111778143Y-96878857D01*
X111705571Y-97169143D01*
X111633000Y-97314286D01*
X111560429Y-97386857D01*
X111415286Y-97459429D01*
X111270143Y-97459429D01*
X111125000Y-97386857D01*
X111052429Y-97314286D01*
X110979857Y-97169143D01*
X110907286Y-96878857D01*
X110907286Y-96516000D01*
X110979857Y-96225714D01*
X111052429Y-96080571D01*
X111125000Y-96008000D01*
X111270143Y-95935429D01*
X102089856Y-57335429D02*
X103033285Y-57335429D01*
X102525285Y-57916000D01*
X102742999Y-57916000D01*
X102888142Y-57988571D01*
X102960713Y-58061143D01*
X103033285Y-58206286D01*
X103033285Y-58569143D01*
X102960713Y-58714286D01*
X102888142Y-58786857D01*
X102742999Y-58859429D01*
X102307571Y-58859429D01*
X102162428Y-58786857D01*
X102089856Y-58714286D01*
X103541285Y-57335429D02*
X104484714Y-57335429D01*
X103976714Y-57916000D01*
X104194428Y-57916000D01*
X104339571Y-57988571D01*
X104412142Y-58061143D01*
X104484714Y-58206286D01*
X104484714Y-58569143D01*
X104412142Y-58714286D01*
X104339571Y-58786857D01*
X104194428Y-58859429D01*
X103759000Y-58859429D01*
X103613857Y-58786857D01*
X103541285Y-58714286D01*
X105428143Y-57335429D02*
X105573286Y-57335429D01*
X105718429Y-57408000D01*
X105791000Y-57480571D01*
X105863571Y-57625714D01*
X105936143Y-57916000D01*
X105936143Y-58278857D01*
X105863571Y-58569143D01*
X105791000Y-58714286D01*
X105718429Y-58786857D01*
X105573286Y-58859429D01*
X105428143Y-58859429D01*
X105283000Y-58786857D01*
X105210429Y-58714286D01*
X105137857Y-58569143D01*
X105065286Y-58278857D01*
X105065286Y-57916000D01*
X105137857Y-57625714D01*
X105210429Y-57480571D01*
X105283000Y-57408000D01*
X105428143Y-57335429D01*
X106879572Y-57335429D02*
X107024715Y-57335429D01*
X107169858Y-57408000D01*
X107242429Y-57480571D01*
X107315000Y-57625714D01*
X107387572Y-57916000D01*
X107387572Y-58278857D01*
X107315000Y-58569143D01*
X107242429Y-58714286D01*
X107169858Y-58786857D01*
X107024715Y-58859429D01*
X106879572Y-58859429D01*
X106734429Y-58786857D01*
X106661858Y-58714286D01*
X106589286Y-58569143D01*
X106516715Y-58278857D01*
X106516715Y-57916000D01*
X106589286Y-57625714D01*
X106661858Y-57480571D01*
X106734429Y-57408000D01*
X106879572Y-57335429D01*
X108331001Y-57335429D02*
X108476144Y-57335429D01*
X108621287Y-57408000D01*
X108693858Y-57480571D01*
X108766429Y-57625714D01*
X108839001Y-57916000D01*
X108839001Y-58278857D01*
X108766429Y-58569143D01*
X108693858Y-58714286D01*
X108621287Y-58786857D01*
X108476144Y-58859429D01*
X108331001Y-58859429D01*
X108185858Y-58786857D01*
X108113287Y-58714286D01*
X108040715Y-58569143D01*
X107968144Y-58278857D01*
X107968144Y-57916000D01*
X108040715Y-57625714D01*
X108113287Y-57480571D01*
X108185858Y-57408000D01*
X108331001Y-57335429D01*
X109492144Y-57843429D02*
X109492144Y-59367429D01*
X110217858Y-58641714D02*
X110290430Y-58786857D01*
X110435573Y-58859429D01*
X109492144Y-58641714D02*
X109564716Y-58786857D01*
X109709858Y-58859429D01*
X110000144Y-58859429D01*
X110145287Y-58786857D01*
X110217858Y-58641714D01*
X110217858Y-57843429D01*
X111596715Y-58061143D02*
X111088715Y-58061143D01*
X111088715Y-58859429D02*
X111088715Y-57335429D01*
X111814429Y-57335429D01*
X113483573Y-57262857D02*
X112177287Y-59222286D01*
X114789858Y-58859429D02*
X113919001Y-58859429D01*
X114354429Y-58859429D02*
X114354429Y-57335429D01*
X114209286Y-57553143D01*
X114064144Y-57698286D01*
X113919001Y-57770857D01*
X116096144Y-57335429D02*
X115805858Y-57335429D01*
X115660715Y-57408000D01*
X115588144Y-57480571D01*
X115443001Y-57698286D01*
X115370430Y-57988571D01*
X115370430Y-58569143D01*
X115443001Y-58714286D01*
X115515573Y-58786857D01*
X115660715Y-58859429D01*
X115951001Y-58859429D01*
X116096144Y-58786857D01*
X116168715Y-58714286D01*
X116241287Y-58569143D01*
X116241287Y-58206286D01*
X116168715Y-58061143D01*
X116096144Y-57988571D01*
X115951001Y-57916000D01*
X115660715Y-57916000D01*
X115515573Y-57988571D01*
X115443001Y-58061143D01*
X115370430Y-58206286D01*
X116676716Y-57335429D02*
X117184716Y-58859429D01*
X117692716Y-57335429D01*
X158909286Y-71464715D02*
X158981857Y-71537286D01*
X159054429Y-71755000D01*
X159054429Y-71900143D01*
X158981857Y-72117858D01*
X158836714Y-72263000D01*
X158691571Y-72335572D01*
X158401286Y-72408143D01*
X158183571Y-72408143D01*
X157893286Y-72335572D01*
X157748143Y-72263000D01*
X157603000Y-72117858D01*
X157530429Y-71900143D01*
X157530429Y-71755000D01*
X157603000Y-71537286D01*
X157675571Y-71464715D01*
X159054429Y-70013286D02*
X159054429Y-70884143D01*
X159054429Y-70448715D02*
X157530429Y-70448715D01*
X157748143Y-70593858D01*
X157893286Y-70739000D01*
X157965857Y-70884143D01*
X159054429Y-68561857D02*
X159054429Y-69432714D01*
X159054429Y-68997286D02*
X157530429Y-68997286D01*
X157748143Y-69142429D01*
X157893286Y-69287571D01*
X157965857Y-69432714D01*
X144330429Y-73097572D02*
X144330429Y-73387858D01*
X144403000Y-73533001D01*
X144475571Y-73605572D01*
X144693286Y-73750715D01*
X144983571Y-73823286D01*
X145564143Y-73823286D01*
X145709286Y-73750715D01*
X145781857Y-73678143D01*
X145854429Y-73533001D01*
X145854429Y-73242715D01*
X145781857Y-73097572D01*
X145709286Y-73025001D01*
X145564143Y-72952429D01*
X145201286Y-72952429D01*
X145056143Y-73025001D01*
X144983571Y-73097572D01*
X144911000Y-73242715D01*
X144911000Y-73533001D01*
X144983571Y-73678143D01*
X145056143Y-73750715D01*
X145201286Y-73823286D01*
X144983571Y-72081572D02*
X144911000Y-72226714D01*
X144838429Y-72299286D01*
X144693286Y-72371857D01*
X144620714Y-72371857D01*
X144475571Y-72299286D01*
X144403000Y-72226714D01*
X144330429Y-72081572D01*
X144330429Y-71791286D01*
X144403000Y-71646143D01*
X144475571Y-71573572D01*
X144620714Y-71501000D01*
X144693286Y-71501000D01*
X144838429Y-71573572D01*
X144911000Y-71646143D01*
X144983571Y-71791286D01*
X144983571Y-72081572D01*
X145056143Y-72226714D01*
X145128714Y-72299286D01*
X145273857Y-72371857D01*
X145564143Y-72371857D01*
X145709286Y-72299286D01*
X145781857Y-72226714D01*
X145854429Y-72081572D01*
X145854429Y-71791286D01*
X145781857Y-71646143D01*
X145709286Y-71573572D01*
X145564143Y-71501000D01*
X145273857Y-71501000D01*
X145128714Y-71573572D01*
X145056143Y-71646143D01*
X144983571Y-71791286D01*
X144330429Y-70557571D02*
X144330429Y-70412428D01*
X144403000Y-70267285D01*
X144475571Y-70194714D01*
X144620714Y-70122143D01*
X144911000Y-70049571D01*
X145273857Y-70049571D01*
X145564143Y-70122143D01*
X145709286Y-70194714D01*
X145781857Y-70267285D01*
X145854429Y-70412428D01*
X145854429Y-70557571D01*
X145781857Y-70702714D01*
X145709286Y-70775285D01*
X145564143Y-70847857D01*
X145273857Y-70920428D01*
X144911000Y-70920428D01*
X144620714Y-70847857D01*
X144475571Y-70775285D01*
X144403000Y-70702714D01*
X144330429Y-70557571D01*
X144838429Y-69396428D02*
X146362429Y-69396428D01*
X145636714Y-68670714D02*
X145781857Y-68598142D01*
X145854429Y-68452999D01*
X145636714Y-69396428D02*
X145781857Y-69323856D01*
X145854429Y-69178714D01*
X145854429Y-68888428D01*
X145781857Y-68743285D01*
X145636714Y-68670714D01*
X144838429Y-68670714D01*
X145056143Y-67291857D02*
X145056143Y-67799857D01*
X145854429Y-67799857D02*
X144330429Y-67799857D01*
X144330429Y-67074143D01*
X158909286Y-86704715D02*
X158981857Y-86777286D01*
X159054429Y-86995000D01*
X159054429Y-87140143D01*
X158981857Y-87357858D01*
X158836714Y-87503000D01*
X158691571Y-87575572D01*
X158401286Y-87648143D01*
X158183571Y-87648143D01*
X157893286Y-87575572D01*
X157748143Y-87503000D01*
X157603000Y-87357858D01*
X157530429Y-87140143D01*
X157530429Y-86995000D01*
X157603000Y-86777286D01*
X157675571Y-86704715D01*
X159054429Y-85253286D02*
X159054429Y-86124143D01*
X159054429Y-85688715D02*
X157530429Y-85688715D01*
X157748143Y-85833858D01*
X157893286Y-85979000D01*
X157965857Y-86124143D01*
X157675571Y-84672714D02*
X157603000Y-84600143D01*
X157530429Y-84455000D01*
X157530429Y-84092143D01*
X157603000Y-83947000D01*
X157675571Y-83874429D01*
X157820714Y-83801857D01*
X157965857Y-83801857D01*
X158183571Y-83874429D01*
X159054429Y-84745286D01*
X159054429Y-83801857D01*
X144330429Y-88337572D02*
X144330429Y-88627858D01*
X144403000Y-88773001D01*
X144475571Y-88845572D01*
X144693286Y-88990715D01*
X144983571Y-89063286D01*
X145564143Y-89063286D01*
X145709286Y-88990715D01*
X145781857Y-88918143D01*
X145854429Y-88773001D01*
X145854429Y-88482715D01*
X145781857Y-88337572D01*
X145709286Y-88265001D01*
X145564143Y-88192429D01*
X145201286Y-88192429D01*
X145056143Y-88265001D01*
X144983571Y-88337572D01*
X144911000Y-88482715D01*
X144911000Y-88773001D01*
X144983571Y-88918143D01*
X145056143Y-88990715D01*
X145201286Y-89063286D01*
X144983571Y-87321572D02*
X144911000Y-87466714D01*
X144838429Y-87539286D01*
X144693286Y-87611857D01*
X144620714Y-87611857D01*
X144475571Y-87539286D01*
X144403000Y-87466714D01*
X144330429Y-87321572D01*
X144330429Y-87031286D01*
X144403000Y-86886143D01*
X144475571Y-86813572D01*
X144620714Y-86741000D01*
X144693286Y-86741000D01*
X144838429Y-86813572D01*
X144911000Y-86886143D01*
X144983571Y-87031286D01*
X144983571Y-87321572D01*
X145056143Y-87466714D01*
X145128714Y-87539286D01*
X145273857Y-87611857D01*
X145564143Y-87611857D01*
X145709286Y-87539286D01*
X145781857Y-87466714D01*
X145854429Y-87321572D01*
X145854429Y-87031286D01*
X145781857Y-86886143D01*
X145709286Y-86813572D01*
X145564143Y-86741000D01*
X145273857Y-86741000D01*
X145128714Y-86813572D01*
X145056143Y-86886143D01*
X144983571Y-87031286D01*
X144330429Y-85797571D02*
X144330429Y-85652428D01*
X144403000Y-85507285D01*
X144475571Y-85434714D01*
X144620714Y-85362143D01*
X144911000Y-85289571D01*
X145273857Y-85289571D01*
X145564143Y-85362143D01*
X145709286Y-85434714D01*
X145781857Y-85507285D01*
X145854429Y-85652428D01*
X145854429Y-85797571D01*
X145781857Y-85942714D01*
X145709286Y-86015285D01*
X145564143Y-86087857D01*
X145273857Y-86160428D01*
X144911000Y-86160428D01*
X144620714Y-86087857D01*
X144475571Y-86015285D01*
X144403000Y-85942714D01*
X144330429Y-85797571D01*
X144838429Y-84636428D02*
X146362429Y-84636428D01*
X145636714Y-83910714D02*
X145781857Y-83838142D01*
X145854429Y-83692999D01*
X145636714Y-84636428D02*
X145781857Y-84563856D01*
X145854429Y-84418714D01*
X145854429Y-84128428D01*
X145781857Y-83983285D01*
X145636714Y-83910714D01*
X144838429Y-83910714D01*
X145056143Y-82531857D02*
X145056143Y-83039857D01*
X145854429Y-83039857D02*
X144330429Y-83039857D01*
X144330429Y-82314143D01*
D11*
X134846143Y-69485143D02*
X134798524Y-69532762D01*
X134655667Y-69580381D01*
X134560429Y-69580381D01*
X134417571Y-69532762D01*
X134322333Y-69437524D01*
X134274714Y-69342286D01*
X134227095Y-69151810D01*
X134227095Y-69008952D01*
X134274714Y-68818476D01*
X134322333Y-68723238D01*
X134417571Y-68628000D01*
X134560429Y-68580381D01*
X134655667Y-68580381D01*
X134798524Y-68628000D01*
X134846143Y-68675619D01*
X135798524Y-69580381D02*
X135227095Y-69580381D01*
X135512809Y-69580381D02*
X135512809Y-68580381D01*
X135417571Y-68723238D01*
X135322333Y-68818476D01*
X135227095Y-68866095D01*
X136131857Y-68580381D02*
X136750905Y-68580381D01*
X136417571Y-68961333D01*
X136560429Y-68961333D01*
X136655667Y-69008952D01*
X136703286Y-69056571D01*
X136750905Y-69151810D01*
X136750905Y-69389905D01*
X136703286Y-69485143D01*
X136655667Y-69532762D01*
X136560429Y-69580381D01*
X136274714Y-69580381D01*
X136179476Y-69532762D01*
X136131857Y-69485143D01*
X134846143Y-82439143D02*
X134798524Y-82486762D01*
X134655667Y-82534381D01*
X134560429Y-82534381D01*
X134417571Y-82486762D01*
X134322333Y-82391524D01*
X134274714Y-82296286D01*
X134227095Y-82105810D01*
X134227095Y-81962952D01*
X134274714Y-81772476D01*
X134322333Y-81677238D01*
X134417571Y-81582000D01*
X134560429Y-81534381D01*
X134655667Y-81534381D01*
X134798524Y-81582000D01*
X134846143Y-81629619D01*
X135798524Y-82534381D02*
X135227095Y-82534381D01*
X135512809Y-82534381D02*
X135512809Y-81534381D01*
X135417571Y-81677238D01*
X135322333Y-81772476D01*
X135227095Y-81820095D01*
X136655667Y-81867714D02*
X136655667Y-82534381D01*
X136417571Y-81486762D02*
X136179476Y-82201048D01*
X136798524Y-82201048D01*
X140728143Y-74485143D02*
X140680524Y-74532762D01*
X140537667Y-74580381D01*
X140442429Y-74580381D01*
X140299571Y-74532762D01*
X140204333Y-74437524D01*
X140156714Y-74342286D01*
X140109095Y-74151810D01*
X140109095Y-74008952D01*
X140156714Y-73818476D01*
X140204333Y-73723238D01*
X140299571Y-73628000D01*
X140442429Y-73580381D01*
X140537667Y-73580381D01*
X140680524Y-73628000D01*
X140728143Y-73675619D01*
X141680524Y-74580381D02*
X141109095Y-74580381D01*
X141394809Y-74580381D02*
X141394809Y-73580381D01*
X141299571Y-73723238D01*
X141204333Y-73818476D01*
X141109095Y-73866095D01*
X142585286Y-73580381D02*
X142109095Y-73580381D01*
X142061476Y-74056571D01*
X142109095Y-74008952D01*
X142204333Y-73961333D01*
X142442429Y-73961333D01*
X142537667Y-74008952D01*
X142585286Y-74056571D01*
X142632905Y-74151810D01*
X142632905Y-74389905D01*
X142585286Y-74485143D01*
X142537667Y-74532762D01*
X142442429Y-74580381D01*
X142204333Y-74580381D01*
X142109095Y-74532762D01*
X142061476Y-74485143D01*
X140728143Y-87439143D02*
X140680524Y-87486762D01*
X140537667Y-87534381D01*
X140442429Y-87534381D01*
X140299571Y-87486762D01*
X140204333Y-87391524D01*
X140156714Y-87296286D01*
X140109095Y-87105810D01*
X140109095Y-86962952D01*
X140156714Y-86772476D01*
X140204333Y-86677238D01*
X140299571Y-86582000D01*
X140442429Y-86534381D01*
X140537667Y-86534381D01*
X140680524Y-86582000D01*
X140728143Y-86629619D01*
X141680524Y-87534381D02*
X141109095Y-87534381D01*
X141394809Y-87534381D02*
X141394809Y-86534381D01*
X141299571Y-86677238D01*
X141204333Y-86772476D01*
X141109095Y-86820095D01*
X142537667Y-86534381D02*
X142347190Y-86534381D01*
X142251952Y-86582000D01*
X142204333Y-86629619D01*
X142109095Y-86772476D01*
X142061476Y-86962952D01*
X142061476Y-87343905D01*
X142109095Y-87439143D01*
X142156714Y-87486762D01*
X142251952Y-87534381D01*
X142442429Y-87534381D01*
X142537667Y-87486762D01*
X142585286Y-87439143D01*
X142632905Y-87343905D01*
X142632905Y-87105810D01*
X142585286Y-87010571D01*
X142537667Y-86962952D01*
X142442429Y-86915333D01*
X142251952Y-86915333D01*
X142156714Y-86962952D01*
X142109095Y-87010571D01*
X142061476Y-87105810D01*
X84280001Y-66135475D02*
X83280001Y-66135475D01*
X83280001Y-65897380D01*
X83327620Y-65754522D01*
X83422858Y-65659284D01*
X83518096Y-65611665D01*
X83708572Y-65564046D01*
X83851430Y-65564046D01*
X84041906Y-65611665D01*
X84137144Y-65659284D01*
X84232382Y-65754522D01*
X84280001Y-65897380D01*
X84280001Y-66135475D01*
X84280001Y-64611665D02*
X84280001Y-65183094D01*
X84280001Y-64897380D02*
X83280001Y-64897380D01*
X83422858Y-64992618D01*
X83518096Y-65087856D01*
X83565715Y-65183094D01*
X88050667Y-61325095D02*
X88050667Y-60848904D01*
X88336381Y-61420333D02*
X87336381Y-61087000D01*
X88336381Y-60753666D01*
X90868761Y-53069715D02*
X89868761Y-53069715D01*
X89868761Y-52831620D01*
X89916380Y-52688762D01*
X90011618Y-52593524D01*
X90106856Y-52545905D01*
X90297332Y-52498286D01*
X90440190Y-52498286D01*
X90630666Y-52545905D01*
X90725904Y-52593524D01*
X90821142Y-52688762D01*
X90868761Y-52831620D01*
X90868761Y-53069715D01*
X89963999Y-52117334D02*
X89916380Y-52069715D01*
X89868761Y-51974477D01*
X89868761Y-51736381D01*
X89916380Y-51641143D01*
X89963999Y-51593524D01*
X90059237Y-51545905D01*
X90154475Y-51545905D01*
X90297332Y-51593524D01*
X90868761Y-52164953D01*
X90868761Y-51545905D01*
X86526667Y-56880095D02*
X86526667Y-56403904D01*
X86812381Y-56975333D02*
X85812381Y-56642000D01*
X86812381Y-56308666D01*
X78676761Y-66150715D02*
X77676761Y-66150715D01*
X77676761Y-65912620D01*
X77724380Y-65769762D01*
X77819618Y-65674524D01*
X77914856Y-65626905D01*
X78105332Y-65579286D01*
X78248190Y-65579286D01*
X78438666Y-65626905D01*
X78533904Y-65674524D01*
X78629142Y-65769762D01*
X78676761Y-65912620D01*
X78676761Y-66150715D01*
X77676761Y-65245953D02*
X77676761Y-64626905D01*
X78057713Y-64960239D01*
X78057713Y-64817381D01*
X78105332Y-64722143D01*
X78152951Y-64674524D01*
X78248190Y-64626905D01*
X78486285Y-64626905D01*
X78581523Y-64674524D01*
X78629142Y-64722143D01*
X78676761Y-64817381D01*
X78676761Y-65103096D01*
X78629142Y-65198334D01*
X78581523Y-65245953D01*
X74334667Y-69961095D02*
X74334667Y-69484904D01*
X74620381Y-70056333D02*
X73620381Y-69723000D01*
X74620381Y-69389666D01*
X72088001Y-53054475D02*
X71088001Y-53054475D01*
X71088001Y-52816380D01*
X71135620Y-52673522D01*
X71230858Y-52578284D01*
X71326096Y-52530665D01*
X71516572Y-52483046D01*
X71659430Y-52483046D01*
X71849906Y-52530665D01*
X71945144Y-52578284D01*
X72040382Y-52673522D01*
X72088001Y-52816380D01*
X72088001Y-53054475D01*
X71421334Y-51625903D02*
X72088001Y-51625903D01*
X71040382Y-51863999D02*
X71754668Y-52102094D01*
X71754668Y-51483046D01*
X75858667Y-48244095D02*
X75858667Y-47767904D01*
X76144381Y-48339333D02*
X75144381Y-48006000D01*
X76144381Y-47672666D01*
D12*
X82223429Y-89516857D02*
X80699429Y-89516857D01*
X80699429Y-89154000D01*
X80772000Y-88936285D01*
X80917143Y-88791143D01*
X81062286Y-88718571D01*
X81352571Y-88646000D01*
X81570286Y-88646000D01*
X81860571Y-88718571D01*
X82005714Y-88791143D01*
X82150857Y-88936285D01*
X82223429Y-89154000D01*
X82223429Y-89516857D01*
X80699429Y-87267143D02*
X80699429Y-87992857D01*
X81425143Y-88065428D01*
X81352571Y-87992857D01*
X81280000Y-87847714D01*
X81280000Y-87484857D01*
X81352571Y-87339714D01*
X81425143Y-87267143D01*
X81570286Y-87194571D01*
X81933143Y-87194571D01*
X82078286Y-87267143D01*
X82150857Y-87339714D01*
X82223429Y-87484857D01*
X82223429Y-87847714D01*
X82150857Y-87992857D01*
X82078286Y-88065428D01*
X74603429Y-94451715D02*
X74603429Y-95177429D01*
X73079429Y-95177429D01*
X74603429Y-93943715D02*
X73079429Y-93943715D01*
X74168000Y-93435715D01*
X73079429Y-92927715D01*
X74603429Y-92927715D01*
X73079429Y-92347144D02*
X73079429Y-91403715D01*
X73660000Y-91911715D01*
X73660000Y-91694001D01*
X73732571Y-91548858D01*
X73805143Y-91476287D01*
X73950286Y-91403715D01*
X74313143Y-91403715D01*
X74458286Y-91476287D01*
X74530857Y-91548858D01*
X74603429Y-91694001D01*
X74603429Y-92129429D01*
X74530857Y-92274572D01*
X74458286Y-92347144D01*
X73732571Y-90532858D02*
X73660000Y-90678000D01*
X73587429Y-90750572D01*
X73442286Y-90823143D01*
X73369714Y-90823143D01*
X73224571Y-90750572D01*
X73152000Y-90678000D01*
X73079429Y-90532858D01*
X73079429Y-90242572D01*
X73152000Y-90097429D01*
X73224571Y-90024858D01*
X73369714Y-89952286D01*
X73442286Y-89952286D01*
X73587429Y-90024858D01*
X73660000Y-90097429D01*
X73732571Y-90242572D01*
X73732571Y-90532858D01*
X73805143Y-90678000D01*
X73877714Y-90750572D01*
X74022857Y-90823143D01*
X74313143Y-90823143D01*
X74458286Y-90750572D01*
X74530857Y-90678000D01*
X74603429Y-90532858D01*
X74603429Y-90242572D01*
X74530857Y-90097429D01*
X74458286Y-90024858D01*
X74313143Y-89952286D01*
X74022857Y-89952286D01*
X73877714Y-90024858D01*
X73805143Y-90097429D01*
X73732571Y-90242572D01*
X73079429Y-88573429D02*
X73079429Y-89299143D01*
X73805143Y-89371714D01*
X73732571Y-89299143D01*
X73660000Y-89154000D01*
X73660000Y-88791143D01*
X73732571Y-88646000D01*
X73805143Y-88573429D01*
X73950286Y-88500857D01*
X74313143Y-88500857D01*
X74458286Y-88573429D01*
X74530857Y-88646000D01*
X74603429Y-88791143D01*
X74603429Y-89154000D01*
X74530857Y-89299143D01*
X74458286Y-89371714D01*
X73079429Y-87992857D02*
X73079429Y-86976857D01*
X74603429Y-87992857D01*
X74603429Y-86976857D01*
X74022857Y-86396285D02*
X74022857Y-85235142D01*
X74603429Y-83711142D02*
X74603429Y-84581999D01*
X74603429Y-84146571D02*
X73079429Y-84146571D01*
X73297143Y-84291714D01*
X73442286Y-84436856D01*
X73514857Y-84581999D01*
X74458286Y-83057999D02*
X74530857Y-82985427D01*
X74603429Y-83057999D01*
X74530857Y-83130570D01*
X74458286Y-83057999D01*
X74603429Y-83057999D01*
X73224571Y-82404856D02*
X73152000Y-82332285D01*
X73079429Y-82187142D01*
X73079429Y-81824285D01*
X73152000Y-81679142D01*
X73224571Y-81606571D01*
X73369714Y-81533999D01*
X73514857Y-81533999D01*
X73732571Y-81606571D01*
X74603429Y-82477428D01*
X74603429Y-81533999D01*
X70889949Y-60885977D02*
X69365949Y-60885977D01*
X69365949Y-60305405D01*
X69438520Y-60160263D01*
X69511091Y-60087691D01*
X69656234Y-60015120D01*
X69873949Y-60015120D01*
X70019091Y-60087691D01*
X70091663Y-60160263D01*
X70164234Y-60305405D01*
X70164234Y-60885977D01*
X70889949Y-58563691D02*
X70889949Y-59434548D01*
X70889949Y-58999120D02*
X69365949Y-58999120D01*
X69583663Y-59144263D01*
X69728806Y-59289405D01*
X69801377Y-59434548D01*
X149563909Y-56933737D02*
X148039909Y-56933737D01*
X148039909Y-56353165D01*
X148112480Y-56208023D01*
X148185051Y-56135451D01*
X148330194Y-56062880D01*
X148547909Y-56062880D01*
X148693051Y-56135451D01*
X148765623Y-56208023D01*
X148838194Y-56353165D01*
X148838194Y-56933737D01*
X148039909Y-55554880D02*
X148039909Y-54611451D01*
X148620480Y-55119451D01*
X148620480Y-54901737D01*
X148693051Y-54756594D01*
X148765623Y-54684023D01*
X148910766Y-54611451D01*
X149273623Y-54611451D01*
X149418766Y-54684023D01*
X149491337Y-54756594D01*
X149563909Y-54901737D01*
X149563909Y-55337165D01*
X149491337Y-55482308D01*
X149418766Y-55554880D01*
X160424949Y-101525977D02*
X158900949Y-101525977D01*
X158900949Y-100945405D01*
X158973520Y-100800263D01*
X159046091Y-100727691D01*
X159191234Y-100655120D01*
X159408949Y-100655120D01*
X159554091Y-100727691D01*
X159626663Y-100800263D01*
X159699234Y-100945405D01*
X159699234Y-101525977D01*
X159408949Y-99348834D02*
X160424949Y-99348834D01*
X158828377Y-99711691D02*
X159916949Y-100074548D01*
X159916949Y-99131120D01*
D11*
X70231261Y-88309746D02*
X69755070Y-88643080D01*
X70231261Y-88881175D02*
X69231261Y-88881175D01*
X69231261Y-88500222D01*
X69278880Y-88404984D01*
X69326499Y-88357365D01*
X69421737Y-88309746D01*
X69564594Y-88309746D01*
X69659832Y-88357365D01*
X69707451Y-88404984D01*
X69755070Y-88500222D01*
X69755070Y-88881175D01*
X70231261Y-87357365D02*
X70231261Y-87928794D01*
X70231261Y-87643080D02*
X69231261Y-87643080D01*
X69374118Y-87738318D01*
X69469356Y-87833556D01*
X69516975Y-87928794D01*
X107457501Y-101380586D02*
X106981310Y-101713920D01*
X107457501Y-101952015D02*
X106457501Y-101952015D01*
X106457501Y-101571062D01*
X106505120Y-101475824D01*
X106552739Y-101428205D01*
X106647977Y-101380586D01*
X106790834Y-101380586D01*
X106886072Y-101428205D01*
X106933691Y-101475824D01*
X106981310Y-101571062D01*
X106981310Y-101952015D01*
X106552739Y-100999634D02*
X106505120Y-100952015D01*
X106457501Y-100856777D01*
X106457501Y-100618681D01*
X106505120Y-100523443D01*
X106552739Y-100475824D01*
X106647977Y-100428205D01*
X106743215Y-100428205D01*
X106886072Y-100475824D01*
X107457501Y-101047253D01*
X107457501Y-100428205D01*
X83835501Y-102650586D02*
X83359310Y-102983920D01*
X83835501Y-103222015D02*
X82835501Y-103222015D01*
X82835501Y-102841062D01*
X82883120Y-102745824D01*
X82930739Y-102698205D01*
X83025977Y-102650586D01*
X83168834Y-102650586D01*
X83264072Y-102698205D01*
X83311691Y-102745824D01*
X83359310Y-102841062D01*
X83359310Y-103222015D01*
X82835501Y-102317253D02*
X82835501Y-101698205D01*
X83216453Y-102031539D01*
X83216453Y-101888681D01*
X83264072Y-101793443D01*
X83311691Y-101745824D01*
X83406930Y-101698205D01*
X83645025Y-101698205D01*
X83740263Y-101745824D01*
X83787882Y-101793443D01*
X83835501Y-101888681D01*
X83835501Y-102174396D01*
X83787882Y-102269634D01*
X83740263Y-102317253D01*
X134839414Y-67452501D02*
X134506080Y-66976310D01*
X134267985Y-67452501D02*
X134267985Y-66452501D01*
X134648938Y-66452501D01*
X134744176Y-66500120D01*
X134791795Y-66547739D01*
X134839414Y-66642977D01*
X134839414Y-66785834D01*
X134791795Y-66881072D01*
X134744176Y-66928691D01*
X134648938Y-66976310D01*
X134267985Y-66976310D01*
X135696557Y-66785834D02*
X135696557Y-67452501D01*
X135458461Y-66404882D02*
X135220366Y-67119168D01*
X135839414Y-67119168D01*
X70231261Y-102152746D02*
X69755070Y-102486080D01*
X70231261Y-102724175D02*
X69231261Y-102724175D01*
X69231261Y-102343222D01*
X69278880Y-102247984D01*
X69326499Y-102200365D01*
X69421737Y-102152746D01*
X69564594Y-102152746D01*
X69659832Y-102200365D01*
X69707451Y-102247984D01*
X69755070Y-102343222D01*
X69755070Y-102724175D01*
X69231261Y-101247984D02*
X69231261Y-101724175D01*
X69707451Y-101771794D01*
X69659832Y-101724175D01*
X69612213Y-101628937D01*
X69612213Y-101390841D01*
X69659832Y-101295603D01*
X69707451Y-101247984D01*
X69802690Y-101200365D01*
X70040785Y-101200365D01*
X70136023Y-101247984D01*
X70183642Y-101295603D01*
X70231261Y-101390841D01*
X70231261Y-101628937D01*
X70183642Y-101724175D01*
X70136023Y-101771794D01*
X135591254Y-65278261D02*
X135257920Y-64802070D01*
X135019825Y-65278261D02*
X135019825Y-64278261D01*
X135400778Y-64278261D01*
X135496016Y-64325880D01*
X135543635Y-64373499D01*
X135591254Y-64468737D01*
X135591254Y-64611594D01*
X135543635Y-64706832D01*
X135496016Y-64754451D01*
X135400778Y-64802070D01*
X135019825Y-64802070D01*
X136448397Y-64278261D02*
X136257920Y-64278261D01*
X136162682Y-64325880D01*
X136115063Y-64373499D01*
X136019825Y-64516356D01*
X135972206Y-64706832D01*
X135972206Y-65087785D01*
X136019825Y-65183023D01*
X136067444Y-65230642D01*
X136162682Y-65278261D01*
X136353159Y-65278261D01*
X136448397Y-65230642D01*
X136496016Y-65183023D01*
X136543635Y-65087785D01*
X136543635Y-64849690D01*
X136496016Y-64754451D01*
X136448397Y-64706832D01*
X136353159Y-64659213D01*
X136162682Y-64659213D01*
X136067444Y-64706832D01*
X136019825Y-64754451D01*
X135972206Y-64849690D01*
X135220414Y-79136501D02*
X134887080Y-78660310D01*
X134648985Y-79136501D02*
X134648985Y-78136501D01*
X135029938Y-78136501D01*
X135125176Y-78184120D01*
X135172795Y-78231739D01*
X135220414Y-78326977D01*
X135220414Y-78469834D01*
X135172795Y-78565072D01*
X135125176Y-78612691D01*
X135029938Y-78660310D01*
X134648985Y-78660310D01*
X135553747Y-78136501D02*
X136220414Y-78136501D01*
X135791842Y-79136501D01*
X135591254Y-84836261D02*
X135257920Y-84360070D01*
X135019825Y-84836261D02*
X135019825Y-83836261D01*
X135400778Y-83836261D01*
X135496016Y-83883880D01*
X135543635Y-83931499D01*
X135591254Y-84026737D01*
X135591254Y-84169594D01*
X135543635Y-84264832D01*
X135496016Y-84312451D01*
X135400778Y-84360070D01*
X135019825Y-84360070D01*
X136162682Y-84264832D02*
X136067444Y-84217213D01*
X136019825Y-84169594D01*
X135972206Y-84074356D01*
X135972206Y-84026737D01*
X136019825Y-83931499D01*
X136067444Y-83883880D01*
X136162682Y-83836261D01*
X136353159Y-83836261D01*
X136448397Y-83883880D01*
X136496016Y-83931499D01*
X136543635Y-84026737D01*
X136543635Y-84074356D01*
X136496016Y-84169594D01*
X136448397Y-84217213D01*
X136353159Y-84264832D01*
X136162682Y-84264832D01*
X136067444Y-84312451D01*
X136019825Y-84360070D01*
X135972206Y-84455309D01*
X135972206Y-84645785D01*
X136019825Y-84741023D01*
X136067444Y-84788642D01*
X136162682Y-84836261D01*
X136353159Y-84836261D01*
X136448397Y-84788642D01*
X136496016Y-84741023D01*
X136543635Y-84645785D01*
X136543635Y-84455309D01*
X136496016Y-84360070D01*
X136448397Y-84312451D01*
X136353159Y-84264832D01*
X135093414Y-85232501D02*
X134760080Y-84756310D01*
X134521985Y-85232501D02*
X134521985Y-84232501D01*
X134902938Y-84232501D01*
X134998176Y-84280120D01*
X135045795Y-84327739D01*
X135093414Y-84422977D01*
X135093414Y-84565834D01*
X135045795Y-84661072D01*
X134998176Y-84708691D01*
X134902938Y-84756310D01*
X134521985Y-84756310D01*
X135569604Y-85232501D02*
X135760080Y-85232501D01*
X135855319Y-85184882D01*
X135902938Y-85137263D01*
X135998176Y-84994406D01*
X136045795Y-84803930D01*
X136045795Y-84422977D01*
X135998176Y-84327739D01*
X135950557Y-84280120D01*
X135855319Y-84232501D01*
X135664842Y-84232501D01*
X135569604Y-84280120D01*
X135521985Y-84327739D01*
X135474366Y-84422977D01*
X135474366Y-84661072D01*
X135521985Y-84756310D01*
X135569604Y-84803930D01*
X135664842Y-84851549D01*
X135855319Y-84851549D01*
X135950557Y-84803930D01*
X135998176Y-84756310D01*
X136045795Y-84661072D01*
X89535095Y-107656381D02*
X89535095Y-108465905D01*
X89582714Y-108561143D01*
X89630333Y-108608762D01*
X89725571Y-108656381D01*
X89916048Y-108656381D01*
X90011286Y-108608762D01*
X90058905Y-108561143D01*
X90106524Y-108465905D01*
X90106524Y-107656381D01*
X91106524Y-108656381D02*
X90535095Y-108656381D01*
X90820809Y-108656381D02*
X90820809Y-107656381D01*
X90725571Y-107799238D01*
X90630333Y-107894476D01*
X90535095Y-107942095D01*
D12*
X148535571Y-106825143D02*
X148463000Y-106970286D01*
X148317857Y-107115429D01*
X148100143Y-107333143D01*
X148027571Y-107478286D01*
X148027571Y-107623429D01*
X148390429Y-107550857D02*
X148317857Y-107696000D01*
X148172714Y-107841143D01*
X147882429Y-107913714D01*
X147374429Y-107913714D01*
X147084143Y-107841143D01*
X146939000Y-107696000D01*
X146866429Y-107550857D01*
X146866429Y-107260571D01*
X146939000Y-107115429D01*
X147084143Y-106970286D01*
X147374429Y-106897714D01*
X147882429Y-106897714D01*
X148172714Y-106970286D01*
X148317857Y-107115429D01*
X148390429Y-107260571D01*
X148390429Y-107550857D01*
X146866429Y-106389715D02*
X146866429Y-105446286D01*
X147447000Y-105954286D01*
X147447000Y-105736572D01*
X147519571Y-105591429D01*
X147592143Y-105518858D01*
X147737286Y-105446286D01*
X148100143Y-105446286D01*
X148245286Y-105518858D01*
X148317857Y-105591429D01*
X148390429Y-105736572D01*
X148390429Y-106172000D01*
X148317857Y-106317143D01*
X148245286Y-106389715D01*
X145977429Y-111070572D02*
X144453429Y-111070572D01*
X145977429Y-109474001D02*
X145251714Y-109982001D01*
X145977429Y-110344858D02*
X144453429Y-110344858D01*
X144453429Y-109764286D01*
X144526000Y-109619144D01*
X144598571Y-109546572D01*
X144743714Y-109474001D01*
X144961429Y-109474001D01*
X145106571Y-109546572D01*
X145179143Y-109619144D01*
X145251714Y-109764286D01*
X145251714Y-110344858D01*
X145179143Y-108312858D02*
X145179143Y-108820858D01*
X145977429Y-108820858D02*
X144453429Y-108820858D01*
X144453429Y-108095144D01*
X144453429Y-106788858D02*
X144453429Y-107514572D01*
X145179143Y-107587143D01*
X145106571Y-107514572D01*
X145034000Y-107369429D01*
X145034000Y-107006572D01*
X145106571Y-106861429D01*
X145179143Y-106788858D01*
X145324286Y-106716286D01*
X145687143Y-106716286D01*
X145832286Y-106788858D01*
X145904857Y-106861429D01*
X145977429Y-107006572D01*
X145977429Y-107369429D01*
X145904857Y-107514572D01*
X145832286Y-107587143D01*
X144961429Y-105410000D02*
X145977429Y-105410000D01*
X144380857Y-105772857D02*
X145469429Y-106135714D01*
X145469429Y-105192286D01*
X144453429Y-104321428D02*
X144453429Y-104176285D01*
X144526000Y-104031142D01*
X144598571Y-103958571D01*
X144743714Y-103886000D01*
X145034000Y-103813428D01*
X145396857Y-103813428D01*
X145687143Y-103886000D01*
X145832286Y-103958571D01*
X145904857Y-104031142D01*
X145977429Y-104176285D01*
X145977429Y-104321428D01*
X145904857Y-104466571D01*
X145832286Y-104539142D01*
X145687143Y-104611714D01*
X145396857Y-104684285D01*
X145034000Y-104684285D01*
X144743714Y-104611714D01*
X144598571Y-104539142D01*
X144526000Y-104466571D01*
X144453429Y-104321428D01*
X145977429Y-103160285D02*
X144453429Y-103160285D01*
X145977429Y-102289428D01*
X144453429Y-102289428D01*
X148535571Y-49675143D02*
X148463000Y-49820286D01*
X148317857Y-49965429D01*
X148100143Y-50183143D01*
X148027571Y-50328286D01*
X148027571Y-50473429D01*
X148390429Y-50400857D02*
X148317857Y-50546000D01*
X148172714Y-50691143D01*
X147882429Y-50763714D01*
X147374429Y-50763714D01*
X147084143Y-50691143D01*
X146939000Y-50546000D01*
X146866429Y-50400857D01*
X146866429Y-50110571D01*
X146939000Y-49965429D01*
X147084143Y-49820286D01*
X147374429Y-49747714D01*
X147882429Y-49747714D01*
X148172714Y-49820286D01*
X148317857Y-49965429D01*
X148390429Y-50110571D01*
X148390429Y-50400857D01*
X147374429Y-48441429D02*
X148390429Y-48441429D01*
X146793857Y-48804286D02*
X147882429Y-49167143D01*
X147882429Y-48223715D01*
X145977429Y-53920572D02*
X144453429Y-53920572D01*
X145977429Y-52324001D02*
X145251714Y-52832001D01*
X145977429Y-53194858D02*
X144453429Y-53194858D01*
X144453429Y-52614286D01*
X144526000Y-52469144D01*
X144598571Y-52396572D01*
X144743714Y-52324001D01*
X144961429Y-52324001D01*
X145106571Y-52396572D01*
X145179143Y-52469144D01*
X145251714Y-52614286D01*
X145251714Y-53194858D01*
X145179143Y-51162858D02*
X145179143Y-51670858D01*
X145977429Y-51670858D02*
X144453429Y-51670858D01*
X144453429Y-50945144D01*
X144453429Y-49638858D02*
X144453429Y-50364572D01*
X145179143Y-50437143D01*
X145106571Y-50364572D01*
X145034000Y-50219429D01*
X145034000Y-49856572D01*
X145106571Y-49711429D01*
X145179143Y-49638858D01*
X145324286Y-49566286D01*
X145687143Y-49566286D01*
X145832286Y-49638858D01*
X145904857Y-49711429D01*
X145977429Y-49856572D01*
X145977429Y-50219429D01*
X145904857Y-50364572D01*
X145832286Y-50437143D01*
X144961429Y-48260000D02*
X145977429Y-48260000D01*
X144380857Y-48622857D02*
X145469429Y-48985714D01*
X145469429Y-48042286D01*
X144453429Y-47171428D02*
X144453429Y-47026285D01*
X144526000Y-46881142D01*
X144598571Y-46808571D01*
X144743714Y-46736000D01*
X145034000Y-46663428D01*
X145396857Y-46663428D01*
X145687143Y-46736000D01*
X145832286Y-46808571D01*
X145904857Y-46881142D01*
X145977429Y-47026285D01*
X145977429Y-47171428D01*
X145904857Y-47316571D01*
X145832286Y-47389142D01*
X145687143Y-47461714D01*
X145396857Y-47534285D01*
X145034000Y-47534285D01*
X144743714Y-47461714D01*
X144598571Y-47389142D01*
X144526000Y-47316571D01*
X144453429Y-47171428D01*
X145977429Y-46010285D02*
X144453429Y-46010285D01*
X145977429Y-45139428D01*
X144453429Y-45139428D01*
D11*
X112966667Y-32837381D02*
X112633333Y-32361190D01*
X112395238Y-32837381D02*
X112395238Y-31837381D01*
X112776191Y-31837381D01*
X112871429Y-31885000D01*
X112919048Y-31932619D01*
X112966667Y-32027857D01*
X112966667Y-32170714D01*
X112919048Y-32265952D01*
X112871429Y-32313571D01*
X112776191Y-32361190D01*
X112395238Y-32361190D01*
X113395238Y-32313571D02*
X113728572Y-32313571D01*
X113871429Y-32837381D02*
X113395238Y-32837381D01*
X113395238Y-31837381D01*
X113871429Y-31837381D01*
X114633334Y-32313571D02*
X114300000Y-32313571D01*
X114300000Y-32837381D02*
X114300000Y-31837381D01*
X114776191Y-31837381D01*
X115300000Y-31837381D02*
X115300000Y-32075476D01*
X115061905Y-31980238D02*
X115300000Y-32075476D01*
X115538096Y-31980238D01*
X115157143Y-32265952D02*
X115300000Y-32075476D01*
X115442858Y-32265952D01*
X116061905Y-31837381D02*
X116061905Y-32075476D01*
X115823810Y-31980238D02*
X116061905Y-32075476D01*
X116300001Y-31980238D01*
X115919048Y-32265952D02*
X116061905Y-32075476D01*
X116204763Y-32265952D01*
X69722381Y-90003095D02*
X68722381Y-90003095D01*
X68722381Y-89622142D01*
X68770000Y-89526904D01*
X68817619Y-89479285D01*
X68912857Y-89431666D01*
X69055714Y-89431666D01*
X69150952Y-89479285D01*
X69198571Y-89526904D01*
X69246190Y-89622142D01*
X69246190Y-90003095D01*
X68817619Y-89050714D02*
X68770000Y-89003095D01*
X68722381Y-88907857D01*
X68722381Y-88669761D01*
X68770000Y-88574523D01*
X68817619Y-88526904D01*
X68912857Y-88479285D01*
X69008095Y-88479285D01*
X69150952Y-88526904D01*
X69722381Y-89098333D01*
X69722381Y-88479285D01*
M02*
