G04 #@! TF.FileFunction,Copper,L2,Bot,Signal*
%FSLAX46Y46*%
G04 Gerber Fmt 4.6, Leading zero omitted, Abs format (unit mm)*
G04 Created by KiCad (PCBNEW 4.0.7) date 04/22/18 21:18:39*
%MOMM*%
%LPD*%
G01*
G04 APERTURE LIST*
%ADD10C,0.100000*%
%ADD11C,0.300000*%
%ADD12R,1.300000X1.300000*%
%ADD13C,1.300000*%
%ADD14R,1.800000X1.800000*%
%ADD15C,1.800000*%
%ADD16R,3.500000X3.500000*%
%ADD17C,3.500000*%
%ADD18R,2.499360X1.501140*%
%ADD19O,2.499360X1.501140*%
%ADD20O,2.200000X1.100000*%
%ADD21C,2.499360*%
%ADD22C,1.998980*%
%ADD23R,1.397000X1.397000*%
%ADD24C,1.397000*%
%ADD25R,2.600000X2.000000*%
%ADD26O,2.600000X2.000000*%
%ADD27C,2.000000*%
%ADD28C,2.000000*%
%ADD29C,3.000000*%
%ADD30C,1.000000*%
%ADD31C,0.500000*%
%ADD32C,0.254000*%
G04 APERTURE END LIST*
D10*
D11*
X103464714Y-42583571D02*
X103464714Y-41083571D01*
X103107571Y-41083571D01*
X102893286Y-41155000D01*
X102750428Y-41297857D01*
X102679000Y-41440714D01*
X102607571Y-41726429D01*
X102607571Y-41940714D01*
X102679000Y-42226429D01*
X102750428Y-42369286D01*
X102893286Y-42512143D01*
X103107571Y-42583571D01*
X103464714Y-42583571D01*
X101964714Y-42440714D02*
X101893286Y-42512143D01*
X101964714Y-42583571D01*
X102036143Y-42512143D01*
X101964714Y-42440714D01*
X101964714Y-42583571D01*
X100250428Y-41083571D02*
X99893285Y-42583571D01*
X99607571Y-41512143D01*
X99321857Y-42583571D01*
X98964714Y-41083571D01*
X97750428Y-42583571D02*
X97750428Y-41797857D01*
X97821857Y-41655000D01*
X97964714Y-41583571D01*
X98250428Y-41583571D01*
X98393285Y-41655000D01*
X97750428Y-42512143D02*
X97893285Y-42583571D01*
X98250428Y-42583571D01*
X98393285Y-42512143D01*
X98464714Y-42369286D01*
X98464714Y-42226429D01*
X98393285Y-42083571D01*
X98250428Y-42012143D01*
X97893285Y-42012143D01*
X97750428Y-41940714D01*
X96821856Y-42583571D02*
X96964714Y-42512143D01*
X97036142Y-42369286D01*
X97036142Y-41083571D01*
X96464714Y-41583571D02*
X95893285Y-41583571D01*
X96250428Y-41083571D02*
X96250428Y-42369286D01*
X96179000Y-42512143D01*
X96036142Y-42583571D01*
X95893285Y-42583571D01*
X94821857Y-42512143D02*
X94964714Y-42583571D01*
X95250428Y-42583571D01*
X95393285Y-42512143D01*
X95464714Y-42369286D01*
X95464714Y-41797857D01*
X95393285Y-41655000D01*
X95250428Y-41583571D01*
X94964714Y-41583571D01*
X94821857Y-41655000D01*
X94750428Y-41797857D01*
X94750428Y-41940714D01*
X95464714Y-42083571D01*
X94107571Y-42583571D02*
X94107571Y-41583571D01*
X94107571Y-41869286D02*
X94036143Y-41726429D01*
X93964714Y-41655000D01*
X93821857Y-41583571D01*
X93679000Y-41583571D01*
X100821856Y-44133571D02*
X100464713Y-45133571D01*
X100107571Y-44133571D01*
X98750428Y-45133571D02*
X99607571Y-45133571D01*
X99178999Y-45133571D02*
X99178999Y-43633571D01*
X99321856Y-43847857D01*
X99464714Y-43990714D01*
X99607571Y-44062143D01*
X98107571Y-44990714D02*
X98036143Y-45062143D01*
X98107571Y-45133571D01*
X98179000Y-45062143D01*
X98107571Y-44990714D01*
X98107571Y-45133571D01*
X97107571Y-43633571D02*
X96964714Y-43633571D01*
X96821857Y-43705000D01*
X96750428Y-43776429D01*
X96678999Y-43919286D01*
X96607571Y-44205000D01*
X96607571Y-44562143D01*
X96678999Y-44847857D01*
X96750428Y-44990714D01*
X96821857Y-45062143D01*
X96964714Y-45133571D01*
X97107571Y-45133571D01*
X97250428Y-45062143D01*
X97321857Y-44990714D01*
X97393285Y-44847857D01*
X97464714Y-44562143D01*
X97464714Y-44205000D01*
X97393285Y-43919286D01*
X97321857Y-43776429D01*
X97250428Y-43705000D01*
X97107571Y-43633571D01*
X147431000Y-113684857D02*
X147216714Y-113756286D01*
X147145286Y-113827714D01*
X147073857Y-113970571D01*
X147073857Y-114184857D01*
X147145286Y-114327714D01*
X147216714Y-114399143D01*
X147359572Y-114470571D01*
X147931000Y-114470571D01*
X147931000Y-112970571D01*
X147431000Y-112970571D01*
X147288143Y-113042000D01*
X147216714Y-113113429D01*
X147145286Y-113256286D01*
X147145286Y-113399143D01*
X147216714Y-113542000D01*
X147288143Y-113613429D01*
X147431000Y-113684857D01*
X147931000Y-113684857D01*
X146216714Y-114470571D02*
X146359572Y-114399143D01*
X146431000Y-114327714D01*
X146502429Y-114184857D01*
X146502429Y-113756286D01*
X146431000Y-113613429D01*
X146359572Y-113542000D01*
X146216714Y-113470571D01*
X146002429Y-113470571D01*
X145859572Y-113542000D01*
X145788143Y-113613429D01*
X145716714Y-113756286D01*
X145716714Y-114184857D01*
X145788143Y-114327714D01*
X145859572Y-114399143D01*
X146002429Y-114470571D01*
X146216714Y-114470571D01*
X145288143Y-113470571D02*
X144716714Y-113470571D01*
X145073857Y-112970571D02*
X145073857Y-114256286D01*
X145002429Y-114399143D01*
X144859571Y-114470571D01*
X144716714Y-114470571D01*
D12*
X97155000Y-100584000D03*
D13*
X97155000Y-103084000D03*
D12*
X73660000Y-73660000D03*
D13*
X76160000Y-73660000D03*
D12*
X76327000Y-44958000D03*
D13*
X73827000Y-44958000D03*
D14*
X86360000Y-92035000D03*
D15*
X86360000Y-87035000D03*
D12*
X91440000Y-110490000D03*
D13*
X88940000Y-110490000D03*
D12*
X83439000Y-98084000D03*
D13*
X83439000Y-100584000D03*
D12*
X81280000Y-66675000D03*
D13*
X81280000Y-64175000D03*
D12*
X81280000Y-53340000D03*
D13*
X81280000Y-50840000D03*
D16*
X109855000Y-72470000D03*
D17*
X109855000Y-82470000D03*
D14*
X149265000Y-70485000D03*
D15*
X154265000Y-70485000D03*
D14*
X149265000Y-85725000D03*
D15*
X154265000Y-85725000D03*
D12*
X134239000Y-71628000D03*
D13*
X136739000Y-71628000D03*
D12*
X134239000Y-84582000D03*
D13*
X136739000Y-84582000D03*
D12*
X142621000Y-71628000D03*
D13*
X140121000Y-71628000D03*
D12*
X142621000Y-84582000D03*
D13*
X140121000Y-84582000D03*
D18*
X87757000Y-67945000D03*
D19*
X87757000Y-62865000D03*
D18*
X86487000Y-49784000D03*
D19*
X86487000Y-54864000D03*
D18*
X74295000Y-62865000D03*
D19*
X74295000Y-67945000D03*
D18*
X75565000Y-54864000D03*
D19*
X75565000Y-49784000D03*
D20*
X78359000Y-87122000D03*
X78359000Y-88392000D03*
X78359000Y-89662000D03*
D21*
X64770000Y-61760100D03*
X64759840Y-57619900D03*
X154305000Y-53809900D03*
X154315160Y-57950100D03*
X154305000Y-102400100D03*
X154294840Y-98259900D03*
D22*
X73279000Y-93472000D03*
X73279000Y-83312000D03*
X103505000Y-95885000D03*
X103505000Y-106045000D03*
X79883000Y-97155000D03*
X79883000Y-107315000D03*
X140335000Y-63500000D03*
X130175000Y-63500000D03*
X73279000Y-107315000D03*
X73279000Y-97155000D03*
X130429000Y-68326000D03*
X140589000Y-68326000D03*
X140716000Y-75184000D03*
X130556000Y-75184000D03*
X130429000Y-87884000D03*
X140589000Y-87884000D03*
X140589000Y-81280000D03*
X130429000Y-81280000D03*
D23*
X94107000Y-105664000D03*
D24*
X94107000Y-103124000D03*
X94107000Y-100584000D03*
X94107000Y-98044000D03*
X86487000Y-98044000D03*
X86487000Y-100584000D03*
X86487000Y-103124000D03*
X86487000Y-105664000D03*
D21*
X123113800Y-109220000D03*
X123113800Y-104140000D03*
X120573800Y-106680000D03*
X123113800Y-52070000D03*
X123113800Y-46990000D03*
X120573800Y-49530000D03*
D25*
X64770000Y-88265000D03*
D26*
X64770000Y-90805000D03*
D27*
X93332791Y-66928412D03*
X93345000Y-54610000D03*
X120587708Y-97387582D03*
X107447073Y-97274069D03*
X119349782Y-102905628D03*
X107590311Y-102868765D03*
X117508055Y-99830824D03*
X107480277Y-99864027D03*
D28*
X74295000Y-67945000D02*
X73169191Y-67945000D01*
D29*
X73169191Y-67945000D02*
X66984291Y-61760100D01*
X66984291Y-61760100D02*
X64770000Y-61760100D01*
D28*
X74295000Y-67945000D02*
X74295000Y-73025000D01*
X74295000Y-73025000D02*
X73660000Y-73660000D01*
D29*
X87757000Y-67945000D02*
X82550000Y-67945000D01*
D28*
X82550000Y-67945000D02*
X81280000Y-66675000D01*
D29*
X74295000Y-67945000D02*
X80010000Y-67945000D01*
D28*
X80010000Y-67945000D02*
X81280000Y-66675000D01*
D30*
X92319522Y-66928412D02*
X93332791Y-66928412D01*
X87757000Y-62865000D02*
X88256110Y-62865000D01*
X88256110Y-62865000D02*
X92319522Y-66928412D01*
X93345000Y-54610000D02*
X86741000Y-54610000D01*
X86741000Y-54610000D02*
X86487000Y-54864000D01*
D29*
X64759840Y-57619900D02*
X66678374Y-57619900D01*
X66678374Y-57619900D02*
X74514274Y-49784000D01*
D30*
X74514274Y-49784000D02*
X75565000Y-49784000D01*
D29*
X86487000Y-49784000D02*
X82336000Y-49784000D01*
D28*
X82336000Y-49784000D02*
X81280000Y-50840000D01*
D29*
X75565000Y-49784000D02*
X80224000Y-49784000D01*
D28*
X80224000Y-49784000D02*
X81280000Y-50840000D01*
X73827000Y-44958000D02*
X73827000Y-48046000D01*
X73827000Y-48046000D02*
X75565000Y-49784000D01*
D31*
X68707000Y-90805000D02*
X72045853Y-90805000D01*
X72045853Y-90805000D02*
X73279000Y-92038147D01*
X73279000Y-92038147D02*
X73279000Y-93472000D01*
X64770000Y-90805000D02*
X68707000Y-90805000D01*
X67786313Y-99663313D02*
X67786313Y-91725687D01*
X67786313Y-91725687D02*
X68707000Y-90805000D01*
X88940000Y-110490000D02*
X77343000Y-110490000D01*
X70739000Y-102616000D02*
X67786313Y-99663313D01*
X77343000Y-110490000D02*
X76327000Y-109474000D01*
X76327000Y-109474000D02*
X76327000Y-104140000D01*
X76327000Y-104140000D02*
X74803000Y-102616000D01*
X74803000Y-102616000D02*
X70739000Y-102616000D01*
X88940000Y-110490000D02*
X88940000Y-108116803D01*
X88940000Y-108116803D02*
X86487197Y-105664000D01*
X86487197Y-105664000D02*
X86487000Y-105664000D01*
X86360000Y-105791000D02*
X86487000Y-105664000D01*
X97155000Y-100584000D02*
X100396292Y-100584000D01*
X100396292Y-100584000D02*
X103505000Y-97475292D01*
X103505000Y-97475292D02*
X103505000Y-95885000D01*
X94107000Y-103124000D02*
X97115000Y-103124000D01*
X97115000Y-103124000D02*
X97155000Y-103084000D01*
X101637142Y-103084000D02*
X97155000Y-103084000D01*
X101637142Y-103084000D02*
X107447073Y-97274069D01*
X134112000Y-71628000D02*
X131449882Y-71628000D01*
X131449882Y-71628000D02*
X130556000Y-72521882D01*
X130556000Y-72521882D02*
X130556000Y-75184000D01*
X121337707Y-96637583D02*
X120587708Y-97387582D01*
X123263422Y-94711868D02*
X121337707Y-96637583D01*
X123263422Y-82476578D02*
X123263422Y-94711868D01*
X130556000Y-75184000D02*
X123263422Y-82476578D01*
X106697074Y-98024068D02*
X107447073Y-97274069D01*
D30*
X134239000Y-71628000D02*
X134112000Y-71628000D01*
D31*
X130429000Y-68326000D02*
X130429000Y-75057000D01*
D30*
X130429000Y-75057000D02*
X130556000Y-75184000D01*
D31*
X83439000Y-98084000D02*
X80812000Y-98084000D01*
X80812000Y-98084000D02*
X79883000Y-97155000D01*
X83439000Y-100584000D02*
X86487000Y-100584000D01*
X133731000Y-84582000D02*
X131776621Y-84582000D01*
X131776621Y-84582000D02*
X130429000Y-85929621D01*
X130429000Y-85929621D02*
X130429000Y-87884000D01*
X86487000Y-100584000D02*
X94400210Y-108497210D01*
X94400210Y-108497210D02*
X105666095Y-108497210D01*
X105666095Y-108497210D02*
X107590311Y-106572994D01*
X107590311Y-106572994D02*
X107590311Y-103929425D01*
X107590311Y-103929425D02*
X107590311Y-102868765D01*
X120099781Y-102155629D02*
X119349782Y-102905628D01*
X130429000Y-91826410D02*
X120099781Y-102155629D01*
X130429000Y-87884000D02*
X130429000Y-91826410D01*
X86273000Y-100370000D02*
X86487000Y-100584000D01*
X130429000Y-81280000D02*
X130429000Y-87884000D01*
X140121000Y-71628000D02*
X140121000Y-70240221D01*
X140121000Y-70240221D02*
X140585416Y-69775805D01*
X140585416Y-69775805D02*
X140585416Y-68329584D01*
X140585416Y-68329584D02*
X140589000Y-68326000D01*
D29*
X149184480Y-70404480D02*
X149184480Y-67310000D01*
X149184480Y-67310000D02*
X149184480Y-63459480D01*
X154315160Y-57950100D02*
X154315160Y-62179320D01*
X154315160Y-62179320D02*
X149184480Y-67310000D01*
X149184480Y-63459480D02*
X143675100Y-57950100D01*
X143675100Y-57950100D02*
X139230100Y-57950100D01*
X139230100Y-57950100D02*
X128270000Y-46990000D01*
X128270000Y-46990000D02*
X123113800Y-46990000D01*
D30*
X149184480Y-70404480D02*
X149265000Y-70485000D01*
D31*
X140121000Y-71628000D02*
X136739000Y-71628000D01*
X140589000Y-68326000D02*
X147106000Y-68326000D01*
X147106000Y-68326000D02*
X149265000Y-70485000D01*
X140121000Y-84582000D02*
X140121000Y-86153180D01*
X140121000Y-86153180D02*
X140584902Y-86617082D01*
X140584902Y-86617082D02*
X140584902Y-87879902D01*
X140584902Y-87879902D02*
X140589000Y-87884000D01*
D29*
X154294840Y-98259900D02*
X154294840Y-93164352D01*
X154294840Y-93164352D02*
X149265000Y-88134512D01*
X149265000Y-88134512D02*
X149265000Y-85725000D01*
X123113800Y-104140000D02*
X128770593Y-104140000D01*
X128770593Y-104140000D02*
X133683371Y-99227222D01*
X133683371Y-99227222D02*
X141507844Y-99227222D01*
X141507844Y-99227222D02*
X149265000Y-91470066D01*
X149265000Y-91470066D02*
X149265000Y-85725000D01*
D31*
X140589000Y-87884000D02*
X147106000Y-87884000D01*
X147106000Y-87884000D02*
X149265000Y-85725000D01*
X136739000Y-84582000D02*
X140121000Y-84582000D01*
X130175000Y-63500000D02*
X120616798Y-73058202D01*
X120616798Y-73058202D02*
X120616798Y-92103672D01*
X120616798Y-92103672D02*
X117508055Y-95212415D01*
X117508055Y-95212415D02*
X117508055Y-99830824D01*
X106730278Y-100614026D02*
X107480277Y-99864027D01*
X103505000Y-103839304D02*
X106730278Y-100614026D01*
X103505000Y-106045000D02*
X103505000Y-103839304D01*
X94107000Y-105664000D02*
X103124000Y-105664000D01*
X103124000Y-105664000D02*
X103505000Y-106045000D01*
X94361000Y-105410000D02*
X94107000Y-105664000D01*
X84074000Y-103124000D02*
X81641326Y-103124000D01*
X81641326Y-103124000D02*
X79883000Y-104882326D01*
X79883000Y-104882326D02*
X79883000Y-107315000D01*
X73279000Y-97155000D02*
X79248000Y-103124000D01*
X79248000Y-103124000D02*
X84074000Y-103124000D01*
X86487000Y-103124000D02*
X84074000Y-103124000D01*
X75311000Y-114300000D02*
X117948618Y-114300000D01*
X73279000Y-107315000D02*
X73279000Y-112268000D01*
X73279000Y-112268000D02*
X75311000Y-114300000D01*
X117948618Y-114300000D02*
X123028618Y-109220000D01*
X123028618Y-109220000D02*
X123113800Y-109220000D01*
X140335000Y-63500000D02*
X137755853Y-63500000D01*
X137755853Y-63500000D02*
X126325853Y-52070000D01*
X126325853Y-52070000D02*
X123113800Y-52070000D01*
X78359000Y-87122000D02*
X75784761Y-87122000D01*
X75784761Y-87122000D02*
X73279000Y-84616239D01*
X73279000Y-84616239D02*
X73279000Y-83312000D01*
X78359000Y-87122000D02*
X82670416Y-87122000D01*
X82670416Y-87122000D02*
X86360000Y-90811584D01*
X86360000Y-90811584D02*
X86360000Y-92035000D01*
X94107000Y-100584000D02*
X90814182Y-100584000D01*
X90814182Y-100584000D02*
X88274182Y-98044000D01*
X88274182Y-98044000D02*
X86487000Y-98044000D01*
X86487000Y-98044000D02*
X86487000Y-92162000D01*
X86487000Y-92162000D02*
X86360000Y-92035000D01*
D29*
X105190163Y-72470000D02*
X109855000Y-72470000D01*
X78994000Y-59055000D02*
X91775163Y-59055000D01*
X91775163Y-59055000D02*
X105190163Y-72470000D01*
X120573800Y-106680000D02*
X114300000Y-106680000D01*
X114300000Y-106680000D02*
X112975079Y-105355079D01*
X112975079Y-105355079D02*
X112975079Y-94520409D01*
X112975079Y-94520409D02*
X114774990Y-92720498D01*
X114774990Y-92720498D02*
X114774990Y-80219341D01*
X114774990Y-80219341D02*
X109855000Y-75299351D01*
X109855000Y-75299351D02*
X109855000Y-72470000D01*
X109855000Y-72470000D02*
X109855000Y-54356000D01*
X109855000Y-54356000D02*
X114681000Y-49530000D01*
X114681000Y-49530000D02*
X120573800Y-49530000D01*
D32*
G36*
X158872300Y-117927500D02*
X60507500Y-117927500D01*
X60507500Y-114214492D01*
X62313789Y-114214492D01*
X62674912Y-115088477D01*
X63343006Y-115757738D01*
X64216359Y-116120386D01*
X65162012Y-116121211D01*
X66035997Y-115760088D01*
X66705258Y-115091994D01*
X67067906Y-114218641D01*
X67068731Y-113272988D01*
X66707608Y-112399003D01*
X66039514Y-111729742D01*
X65166161Y-111367094D01*
X64220508Y-111366269D01*
X63346523Y-111727392D01*
X62677262Y-112395486D01*
X62314614Y-113268839D01*
X62313789Y-114214492D01*
X60507500Y-114214492D01*
X60507500Y-90805000D01*
X62805248Y-90805000D01*
X62929096Y-91427626D01*
X63281785Y-91955463D01*
X63809622Y-92308152D01*
X64432248Y-92432000D01*
X65107752Y-92432000D01*
X65730378Y-92308152D01*
X66258215Y-91955463D01*
X66440937Y-91682000D01*
X66918003Y-91682000D01*
X66909313Y-91725687D01*
X66909313Y-99663313D01*
X66976071Y-99998926D01*
X67166180Y-100283446D01*
X70118867Y-103236133D01*
X70403387Y-103426242D01*
X70739000Y-103493000D01*
X74439734Y-103493000D01*
X75450000Y-104503265D01*
X75450000Y-109474000D01*
X75516758Y-109809613D01*
X75706867Y-110094133D01*
X76722867Y-111110133D01*
X77007387Y-111300242D01*
X77343000Y-111367001D01*
X77343005Y-111367000D01*
X88011094Y-111367000D01*
X88215693Y-111571957D01*
X88684875Y-111766778D01*
X89192897Y-111767221D01*
X89662417Y-111573219D01*
X90021957Y-111214307D01*
X90148212Y-110910250D01*
X90409000Y-110910250D01*
X90409000Y-111215785D01*
X90467004Y-111355819D01*
X90574180Y-111462996D01*
X90714214Y-111521000D01*
X91019750Y-111521000D01*
X91115000Y-111425750D01*
X91115000Y-110815000D01*
X91765000Y-110815000D01*
X91765000Y-111425750D01*
X91860250Y-111521000D01*
X92165786Y-111521000D01*
X92305820Y-111462996D01*
X92412996Y-111355819D01*
X92471000Y-111215785D01*
X92471000Y-110910250D01*
X92375750Y-110815000D01*
X91765000Y-110815000D01*
X91115000Y-110815000D01*
X90504250Y-110815000D01*
X90409000Y-110910250D01*
X90148212Y-110910250D01*
X90216778Y-110745125D01*
X90217221Y-110237103D01*
X90023219Y-109767583D01*
X90019857Y-109764215D01*
X90409000Y-109764215D01*
X90409000Y-110069750D01*
X90504250Y-110165000D01*
X91115000Y-110165000D01*
X91115000Y-109554250D01*
X91765000Y-109554250D01*
X91765000Y-110165000D01*
X92375750Y-110165000D01*
X92471000Y-110069750D01*
X92471000Y-109764215D01*
X92412996Y-109624181D01*
X92305820Y-109517004D01*
X92165786Y-109459000D01*
X91860250Y-109459000D01*
X91765000Y-109554250D01*
X91115000Y-109554250D01*
X91019750Y-109459000D01*
X90714214Y-109459000D01*
X90574180Y-109517004D01*
X90467004Y-109624181D01*
X90409000Y-109764215D01*
X90019857Y-109764215D01*
X89817000Y-109561003D01*
X89817000Y-108116803D01*
X89750242Y-107781190D01*
X89750242Y-107781189D01*
X89642679Y-107620210D01*
X89560133Y-107496670D01*
X89560130Y-107496668D01*
X87812426Y-105748964D01*
X87812730Y-105401498D01*
X87611359Y-104914146D01*
X87238816Y-104540951D01*
X86884649Y-104393888D01*
X87236854Y-104248359D01*
X87610049Y-103875816D01*
X87812269Y-103388815D01*
X87812478Y-103149744D01*
X93780077Y-109117343D01*
X94064597Y-109307452D01*
X94400210Y-109374211D01*
X94400215Y-109374210D01*
X105666095Y-109374210D01*
X106001708Y-109307452D01*
X106286228Y-109117343D01*
X108210441Y-107193129D01*
X108210444Y-107193127D01*
X108361178Y-106967536D01*
X108400553Y-106908608D01*
X108467311Y-106572994D01*
X108467311Y-104266813D01*
X108510729Y-104248873D01*
X108968810Y-103791590D01*
X109217028Y-103193815D01*
X109217593Y-102546554D01*
X108970419Y-101948347D01*
X108513136Y-101490266D01*
X108159948Y-101343610D01*
X108400695Y-101244135D01*
X108858776Y-100786852D01*
X109106994Y-100189077D01*
X109107559Y-99541816D01*
X108860385Y-98943609D01*
X108469652Y-98552194D01*
X108825572Y-98196894D01*
X109073790Y-97599119D01*
X109074355Y-96951858D01*
X108827181Y-96353651D01*
X108369898Y-95895570D01*
X107772123Y-95647352D01*
X107124862Y-95646787D01*
X106526655Y-95893961D01*
X106068574Y-96351244D01*
X105820356Y-96949019D01*
X105819791Y-97596280D01*
X105838739Y-97642138D01*
X101273876Y-102207000D01*
X98083906Y-102207000D01*
X97879307Y-102002043D01*
X97569218Y-101873283D01*
X97805000Y-101873283D01*
X98037352Y-101829563D01*
X98250753Y-101692243D01*
X98393917Y-101482717D01*
X98398315Y-101461000D01*
X100396292Y-101461000D01*
X100731905Y-101394242D01*
X101016425Y-101204133D01*
X104125133Y-98095425D01*
X104315242Y-97810905D01*
X104382000Y-97475292D01*
X104382000Y-97282496D01*
X104425129Y-97264675D01*
X104883067Y-96807536D01*
X105131207Y-96209948D01*
X105131772Y-95562890D01*
X104884675Y-94964871D01*
X104427536Y-94506933D01*
X103829948Y-94258793D01*
X103182890Y-94258228D01*
X102584871Y-94505325D01*
X102126933Y-94962464D01*
X101878793Y-95560052D01*
X101878228Y-96207110D01*
X102125325Y-96805129D01*
X102529758Y-97210268D01*
X100033026Y-99707000D01*
X98401570Y-99707000D01*
X98400563Y-99701648D01*
X98263243Y-99488247D01*
X98053717Y-99345083D01*
X97805000Y-99294717D01*
X96505000Y-99294717D01*
X96272648Y-99338437D01*
X96059247Y-99475757D01*
X95916083Y-99685283D01*
X95865717Y-99934000D01*
X95865717Y-101234000D01*
X95909437Y-101466352D01*
X96046757Y-101679753D01*
X96256283Y-101822917D01*
X96505000Y-101873283D01*
X96741151Y-101873283D01*
X96432583Y-102000781D01*
X96185933Y-102247000D01*
X95104435Y-102247000D01*
X94858816Y-102000951D01*
X94504649Y-101853888D01*
X94856854Y-101708359D01*
X95230049Y-101335816D01*
X95432269Y-100848815D01*
X95432730Y-100321498D01*
X95231359Y-99834146D01*
X94858816Y-99460951D01*
X94371815Y-99258731D01*
X93844498Y-99258270D01*
X93357146Y-99459641D01*
X93109354Y-99707000D01*
X91177447Y-99707000D01*
X90428058Y-98957610D01*
X93687305Y-98957610D01*
X93776037Y-99093710D01*
X94202937Y-99140460D01*
X94437963Y-99093710D01*
X94526695Y-98957610D01*
X94107000Y-98537914D01*
X93687305Y-98957610D01*
X90428058Y-98957610D01*
X89610385Y-98139937D01*
X93010540Y-98139937D01*
X93057290Y-98374963D01*
X93193390Y-98463695D01*
X93613086Y-98044000D01*
X94600914Y-98044000D01*
X95020610Y-98463695D01*
X95156710Y-98374963D01*
X95203460Y-97948063D01*
X95156710Y-97713037D01*
X95020610Y-97624305D01*
X94600914Y-98044000D01*
X93613086Y-98044000D01*
X93193390Y-97624305D01*
X93057290Y-97713037D01*
X93010540Y-98139937D01*
X89610385Y-98139937D01*
X88894315Y-97423867D01*
X88609795Y-97233758D01*
X88274182Y-97167000D01*
X87484435Y-97167000D01*
X87447890Y-97130390D01*
X93687305Y-97130390D01*
X94107000Y-97550086D01*
X94526695Y-97130390D01*
X94437963Y-96994290D01*
X94011063Y-96947540D01*
X93776037Y-96994290D01*
X93687305Y-97130390D01*
X87447890Y-97130390D01*
X87364000Y-97046354D01*
X87364000Y-93554714D01*
X87492352Y-93530563D01*
X87705753Y-93393243D01*
X87848917Y-93183717D01*
X87899283Y-92935000D01*
X87899283Y-91135000D01*
X87855563Y-90902648D01*
X87718243Y-90689247D01*
X87508717Y-90546083D01*
X87260000Y-90495717D01*
X87174170Y-90495717D01*
X87170242Y-90475971D01*
X87165843Y-90469387D01*
X86980133Y-90191451D01*
X86980130Y-90191449D01*
X84901994Y-88113312D01*
X85809190Y-88113312D01*
X85926032Y-88266892D01*
X86430490Y-88339192D01*
X86793968Y-88266892D01*
X86910810Y-88113312D01*
X86360000Y-87562502D01*
X85809190Y-88113312D01*
X84901994Y-88113312D01*
X83894172Y-87105490D01*
X85055808Y-87105490D01*
X85128108Y-87468968D01*
X85281688Y-87585810D01*
X85832498Y-87035000D01*
X86887502Y-87035000D01*
X87438312Y-87585810D01*
X87591892Y-87468968D01*
X87664192Y-86964510D01*
X87591892Y-86601032D01*
X87438312Y-86484190D01*
X86887502Y-87035000D01*
X85832498Y-87035000D01*
X85281688Y-86484190D01*
X85128108Y-86601032D01*
X85055808Y-87105490D01*
X83894172Y-87105490D01*
X83290549Y-86501867D01*
X83006029Y-86311758D01*
X82670416Y-86245000D01*
X79708148Y-86245000D01*
X79393252Y-86034594D01*
X79001594Y-85956688D01*
X85809190Y-85956688D01*
X86360000Y-86507498D01*
X86910810Y-85956688D01*
X86793968Y-85803108D01*
X86289510Y-85730808D01*
X85926032Y-85803108D01*
X85809190Y-85956688D01*
X79001594Y-85956688D01*
X78942834Y-85945000D01*
X77775166Y-85945000D01*
X77324748Y-86034594D01*
X77009852Y-86245000D01*
X76148027Y-86245000D01*
X74397088Y-84494061D01*
X74657067Y-84234536D01*
X74680171Y-84178893D01*
X108673608Y-84178893D01*
X108898613Y-84420939D01*
X109718007Y-84638426D01*
X110558256Y-84525790D01*
X110811387Y-84420939D01*
X111036392Y-84178893D01*
X109855000Y-82997502D01*
X108673608Y-84178893D01*
X74680171Y-84178893D01*
X74905207Y-83636948D01*
X74905772Y-82989890D01*
X74658675Y-82391871D01*
X74599914Y-82333007D01*
X107686574Y-82333007D01*
X107799210Y-83173256D01*
X107904061Y-83426387D01*
X108146107Y-83651392D01*
X109327498Y-82470000D01*
X110382502Y-82470000D01*
X111563893Y-83651392D01*
X111805939Y-83426387D01*
X112023426Y-82606993D01*
X111910790Y-81766744D01*
X111805939Y-81513613D01*
X111563893Y-81288608D01*
X110382502Y-82470000D01*
X109327498Y-82470000D01*
X108146107Y-81288608D01*
X107904061Y-81513613D01*
X107686574Y-82333007D01*
X74599914Y-82333007D01*
X74201536Y-81933933D01*
X73603948Y-81685793D01*
X72956890Y-81685228D01*
X72358871Y-81932325D01*
X71900933Y-82389464D01*
X71652793Y-82987052D01*
X71652228Y-83634110D01*
X71899325Y-84232129D01*
X72356464Y-84690067D01*
X72422107Y-84717324D01*
X72468758Y-84951852D01*
X72658867Y-85236372D01*
X75164628Y-87742133D01*
X75449147Y-87932242D01*
X75784761Y-87999000D01*
X76979565Y-87999000D01*
X77019790Y-88117000D01*
X77186452Y-88117000D01*
X77324748Y-88209406D01*
X77775166Y-88299000D01*
X78942834Y-88299000D01*
X79393252Y-88209406D01*
X79531548Y-88117000D01*
X79698210Y-88117000D01*
X79738435Y-87999000D01*
X82307150Y-87999000D01*
X85002338Y-90694187D01*
X84871083Y-90886283D01*
X84820717Y-91135000D01*
X84820717Y-92935000D01*
X84864437Y-93167352D01*
X85001757Y-93380753D01*
X85211283Y-93523917D01*
X85460000Y-93574283D01*
X85610000Y-93574283D01*
X85610000Y-97046565D01*
X85363951Y-97292184D01*
X85161731Y-97779185D01*
X85161270Y-98306502D01*
X85362641Y-98793854D01*
X85735184Y-99167049D01*
X86089351Y-99314112D01*
X85737146Y-99459641D01*
X85489354Y-99707000D01*
X84367906Y-99707000D01*
X84163307Y-99502043D01*
X83853218Y-99373283D01*
X84089000Y-99373283D01*
X84321352Y-99329563D01*
X84534753Y-99192243D01*
X84677917Y-98982717D01*
X84728283Y-98734000D01*
X84728283Y-97434000D01*
X84684563Y-97201648D01*
X84547243Y-96988247D01*
X84337717Y-96845083D01*
X84089000Y-96794717D01*
X82789000Y-96794717D01*
X82556648Y-96838437D01*
X82343247Y-96975757D01*
X82200083Y-97185283D01*
X82195685Y-97207000D01*
X81509445Y-97207000D01*
X81509772Y-96832890D01*
X81262675Y-96234871D01*
X80805536Y-95776933D01*
X80207948Y-95528793D01*
X79560890Y-95528228D01*
X78962871Y-95775325D01*
X78504933Y-96232464D01*
X78256793Y-96830052D01*
X78256228Y-97477110D01*
X78503325Y-98075129D01*
X78960464Y-98533067D01*
X79558052Y-98781207D01*
X80205110Y-98781772D01*
X80268724Y-98755487D01*
X80308063Y-98781772D01*
X80476386Y-98894242D01*
X80812000Y-98961000D01*
X82192430Y-98961000D01*
X82193437Y-98966352D01*
X82330757Y-99179753D01*
X82540283Y-99322917D01*
X82789000Y-99373283D01*
X83025151Y-99373283D01*
X82716583Y-99500781D01*
X82357043Y-99859693D01*
X82162222Y-100328875D01*
X82161779Y-100836897D01*
X82355781Y-101306417D01*
X82714693Y-101665957D01*
X83183875Y-101860778D01*
X83691897Y-101861221D01*
X84161417Y-101667219D01*
X84367997Y-101461000D01*
X85489565Y-101461000D01*
X85735184Y-101707049D01*
X86089351Y-101854112D01*
X85737146Y-101999641D01*
X85489354Y-102247000D01*
X79611265Y-102247000D01*
X74887311Y-97523046D01*
X74905207Y-97479948D01*
X74905772Y-96832890D01*
X74658675Y-96234871D01*
X74201536Y-95776933D01*
X73603948Y-95528793D01*
X72956890Y-95528228D01*
X72358871Y-95775325D01*
X71900933Y-96232464D01*
X71652793Y-96830052D01*
X71652228Y-97477110D01*
X71899325Y-98075129D01*
X72356464Y-98533067D01*
X72954052Y-98781207D01*
X73601110Y-98781772D01*
X73646678Y-98762944D01*
X78627865Y-103744130D01*
X78627867Y-103744133D01*
X78905178Y-103929425D01*
X78912387Y-103934242D01*
X79248000Y-104001001D01*
X79248005Y-104001000D01*
X79524060Y-104001000D01*
X79262867Y-104262193D01*
X79072758Y-104546713D01*
X79006000Y-104882326D01*
X79006000Y-105917504D01*
X78962871Y-105935325D01*
X78504933Y-106392464D01*
X78256793Y-106990052D01*
X78256228Y-107637110D01*
X78503325Y-108235129D01*
X78960464Y-108693067D01*
X79558052Y-108941207D01*
X80205110Y-108941772D01*
X80803129Y-108694675D01*
X81261067Y-108237536D01*
X81509207Y-107639948D01*
X81509772Y-106992890D01*
X81262675Y-106394871D01*
X80805536Y-105936933D01*
X80760000Y-105918025D01*
X80760000Y-105245592D01*
X82004591Y-104001000D01*
X85489565Y-104001000D01*
X85735184Y-104247049D01*
X86089351Y-104394112D01*
X85737146Y-104539641D01*
X85363951Y-104912184D01*
X85161731Y-105399185D01*
X85161270Y-105926502D01*
X85362641Y-106413854D01*
X85735184Y-106787049D01*
X86222185Y-106989269D01*
X86572507Y-106989575D01*
X88063000Y-108480068D01*
X88063000Y-109561094D01*
X88011003Y-109613000D01*
X77706266Y-109613000D01*
X77204000Y-109110734D01*
X77204000Y-104140000D01*
X77176351Y-104001000D01*
X77137242Y-103804386D01*
X76996541Y-103593812D01*
X76947133Y-103519867D01*
X76947130Y-103519865D01*
X75423133Y-101995867D01*
X75138613Y-101805758D01*
X74803000Y-101739000D01*
X71102266Y-101739000D01*
X68663313Y-99300047D01*
X68663313Y-92088953D01*
X69070266Y-91682000D01*
X71682587Y-91682000D01*
X72225776Y-92225188D01*
X71900933Y-92549464D01*
X71652793Y-93147052D01*
X71652228Y-93794110D01*
X71899325Y-94392129D01*
X72356464Y-94850067D01*
X72954052Y-95098207D01*
X73601110Y-95098772D01*
X74199129Y-94851675D01*
X74657067Y-94394536D01*
X74905207Y-93796948D01*
X74905772Y-93149890D01*
X74658675Y-92551871D01*
X74201536Y-92093933D01*
X74156000Y-92075025D01*
X74156000Y-92038147D01*
X74102276Y-91768058D01*
X74089242Y-91702533D01*
X73942915Y-91483539D01*
X73899133Y-91418014D01*
X73899130Y-91418012D01*
X72665986Y-90184867D01*
X72381466Y-89994758D01*
X72045853Y-89928000D01*
X66440937Y-89928000D01*
X66263202Y-89662000D01*
X76598166Y-89662000D01*
X76687760Y-90112418D01*
X76942901Y-90494265D01*
X77324748Y-90749406D01*
X77775166Y-90839000D01*
X78942834Y-90839000D01*
X79393252Y-90749406D01*
X79775099Y-90494265D01*
X80030240Y-90112418D01*
X80119834Y-89662000D01*
X80030240Y-89211582D01*
X79775099Y-88829735D01*
X79741944Y-88807582D01*
X79744488Y-88802756D01*
X79698210Y-88667000D01*
X79531548Y-88667000D01*
X79393252Y-88574594D01*
X78942834Y-88485000D01*
X77775166Y-88485000D01*
X77324748Y-88574594D01*
X77186452Y-88667000D01*
X77019790Y-88667000D01*
X76973512Y-88802756D01*
X76976056Y-88807582D01*
X76942901Y-88829735D01*
X76687760Y-89211582D01*
X76598166Y-89662000D01*
X66263202Y-89662000D01*
X66258215Y-89654537D01*
X66207303Y-89620519D01*
X66285819Y-89587996D01*
X66392996Y-89480820D01*
X66451000Y-89340786D01*
X66451000Y-88733250D01*
X66355750Y-88638000D01*
X65143000Y-88638000D01*
X65143000Y-88658000D01*
X64397000Y-88658000D01*
X64397000Y-88638000D01*
X63184250Y-88638000D01*
X63089000Y-88733250D01*
X63089000Y-89340786D01*
X63147004Y-89480820D01*
X63254181Y-89587996D01*
X63332697Y-89620519D01*
X63281785Y-89654537D01*
X62929096Y-90182374D01*
X62805248Y-90805000D01*
X60507500Y-90805000D01*
X60507500Y-87189214D01*
X63089000Y-87189214D01*
X63089000Y-87796750D01*
X63184250Y-87892000D01*
X64397000Y-87892000D01*
X64397000Y-86979250D01*
X65143000Y-86979250D01*
X65143000Y-87892000D01*
X66355750Y-87892000D01*
X66451000Y-87796750D01*
X66451000Y-87189214D01*
X66392996Y-87049180D01*
X66285819Y-86942004D01*
X66145785Y-86884000D01*
X65238250Y-86884000D01*
X65143000Y-86979250D01*
X64397000Y-86979250D01*
X64301750Y-86884000D01*
X63394215Y-86884000D01*
X63254181Y-86942004D01*
X63147004Y-87049180D01*
X63089000Y-87189214D01*
X60507500Y-87189214D01*
X60507500Y-80761107D01*
X108673608Y-80761107D01*
X109855000Y-81942498D01*
X111036392Y-80761107D01*
X110811387Y-80519061D01*
X109991993Y-80301574D01*
X109151744Y-80414210D01*
X108898613Y-80519061D01*
X108673608Y-80761107D01*
X60507500Y-80761107D01*
X60507500Y-66651254D01*
X62542415Y-66651254D01*
X62880771Y-67470139D01*
X63506746Y-68097207D01*
X64325039Y-68436992D01*
X65211074Y-68437765D01*
X66029959Y-68099409D01*
X66657027Y-67473434D01*
X66996812Y-66655141D01*
X66997585Y-65769106D01*
X66659229Y-64950221D01*
X66033254Y-64323153D01*
X65214961Y-63983368D01*
X64328926Y-63982595D01*
X63510041Y-64320951D01*
X62882973Y-64946926D01*
X62543188Y-65765219D01*
X62542415Y-66651254D01*
X60507500Y-66651254D01*
X60507500Y-57619900D01*
X62632840Y-57619900D01*
X62794748Y-58433868D01*
X63255824Y-59123916D01*
X63945872Y-59584992D01*
X64478864Y-59691010D01*
X63956032Y-59795008D01*
X63265984Y-60256084D01*
X62804908Y-60946132D01*
X62643000Y-61760100D01*
X62804908Y-62574068D01*
X63265984Y-63264116D01*
X63956032Y-63725192D01*
X64770000Y-63887100D01*
X66103259Y-63887100D01*
X71665175Y-69449016D01*
X72355223Y-69910092D01*
X72668000Y-69972307D01*
X72668000Y-72351074D01*
X72509537Y-72509537D01*
X72156848Y-73037374D01*
X72033000Y-73660000D01*
X72156848Y-74282626D01*
X72509537Y-74810463D01*
X73037374Y-75163152D01*
X73660000Y-75287000D01*
X74282626Y-75163152D01*
X74810463Y-74810463D01*
X75095422Y-74525503D01*
X75754116Y-74525503D01*
X75835324Y-74659802D01*
X76242646Y-74707944D01*
X76484676Y-74659802D01*
X76565884Y-74525503D01*
X76160000Y-74119619D01*
X75754116Y-74525503D01*
X75095422Y-74525503D01*
X75445460Y-74175465D01*
X75445463Y-74175463D01*
X75789883Y-73660000D01*
X76619619Y-73660000D01*
X77025503Y-74065884D01*
X77159802Y-73984676D01*
X77207944Y-73577354D01*
X77159802Y-73335324D01*
X77025503Y-73254116D01*
X76619619Y-73660000D01*
X75789883Y-73660000D01*
X75798152Y-73647626D01*
X75816133Y-73557228D01*
X75843235Y-73420979D01*
X76111917Y-73152298D01*
X76160000Y-73200381D01*
X76565884Y-72794497D01*
X76484676Y-72660198D01*
X76077354Y-72612056D01*
X75922000Y-72642957D01*
X75922000Y-70072000D01*
X80010000Y-70072000D01*
X80823968Y-69910092D01*
X81280000Y-69605381D01*
X81736032Y-69910092D01*
X82550000Y-70072000D01*
X87757000Y-70072000D01*
X88570968Y-69910092D01*
X89261016Y-69449016D01*
X89722092Y-68758968D01*
X89884000Y-67945000D01*
X89722092Y-67131032D01*
X89261016Y-66440984D01*
X88570968Y-65979908D01*
X87757000Y-65818000D01*
X82723926Y-65818000D01*
X82430463Y-65524537D01*
X82355581Y-65474502D01*
X82366356Y-65467356D01*
X82866356Y-64967356D01*
X83000601Y-64767938D01*
X83050000Y-64524000D01*
X83050000Y-63400531D01*
X86261066Y-63400531D01*
X86399902Y-63644245D01*
X86763417Y-63913266D01*
X87202211Y-64022698D01*
X87384000Y-63921905D01*
X87384000Y-63238000D01*
X88130000Y-63238000D01*
X88130000Y-63921905D01*
X88311789Y-64022698D01*
X88750583Y-63913266D01*
X89114098Y-63644245D01*
X89252934Y-63400531D01*
X89222976Y-63238000D01*
X88130000Y-63238000D01*
X87384000Y-63238000D01*
X86291024Y-63238000D01*
X86261066Y-63400531D01*
X83050000Y-63400531D01*
X83050000Y-62329469D01*
X86261066Y-62329469D01*
X86291024Y-62492000D01*
X87384000Y-62492000D01*
X87384000Y-61808095D01*
X88130000Y-61808095D01*
X88130000Y-62492000D01*
X89222976Y-62492000D01*
X89252934Y-62329469D01*
X89114098Y-62085755D01*
X88750583Y-61816734D01*
X88311789Y-61707302D01*
X88130000Y-61808095D01*
X87384000Y-61808095D01*
X87202211Y-61707302D01*
X86763417Y-61816734D01*
X86399902Y-62085755D01*
X86261066Y-62329469D01*
X83050000Y-62329469D01*
X83050000Y-61182000D01*
X90894131Y-61182000D01*
X103686147Y-73974016D01*
X104376195Y-74435092D01*
X105190163Y-74597000D01*
X107602516Y-74597000D01*
X107646757Y-74665753D01*
X107728000Y-74721264D01*
X107728000Y-75299351D01*
X107889908Y-76113319D01*
X108350984Y-76803367D01*
X112647990Y-81100373D01*
X112647990Y-91839466D01*
X111471063Y-93016393D01*
X111009987Y-93706441D01*
X110848079Y-94520409D01*
X110848079Y-105355079D01*
X111009987Y-106169047D01*
X111471063Y-106859095D01*
X112795984Y-108184016D01*
X113486032Y-108645092D01*
X114300000Y-108807000D01*
X120573800Y-108807000D01*
X121314426Y-108659681D01*
X121237447Y-108845068D01*
X121236795Y-109591657D01*
X121289395Y-109718957D01*
X117585352Y-113423000D01*
X75674266Y-113423000D01*
X74156000Y-111904734D01*
X74156000Y-108712496D01*
X74199129Y-108694675D01*
X74657067Y-108237536D01*
X74905207Y-107639948D01*
X74905772Y-106992890D01*
X74658675Y-106394871D01*
X74201536Y-105936933D01*
X73603948Y-105688793D01*
X72956890Y-105688228D01*
X72358871Y-105935325D01*
X71900933Y-106392464D01*
X71652793Y-106990052D01*
X71652228Y-107637110D01*
X71899325Y-108235129D01*
X72356464Y-108693067D01*
X72402000Y-108711975D01*
X72402000Y-112268000D01*
X72468758Y-112603613D01*
X72658867Y-112888133D01*
X74690867Y-114920133D01*
X74975387Y-115110242D01*
X75311000Y-115177001D01*
X75311005Y-115177000D01*
X117948618Y-115177000D01*
X118284231Y-115110242D01*
X118568751Y-114920133D01*
X121523884Y-111965000D01*
X143946857Y-111965000D01*
X143946857Y-115769000D01*
X148915143Y-115769000D01*
X148915143Y-114214492D01*
X152313609Y-114214492D01*
X152674732Y-115088477D01*
X153342826Y-115757738D01*
X154216179Y-116120386D01*
X155161832Y-116121211D01*
X156035817Y-115760088D01*
X156705078Y-115091994D01*
X157067726Y-114218641D01*
X157068551Y-113272988D01*
X156707428Y-112399003D01*
X156039334Y-111729742D01*
X155165981Y-111367094D01*
X154220328Y-111366269D01*
X153346343Y-111727392D01*
X152677082Y-112395486D01*
X152314434Y-113268839D01*
X152313609Y-114214492D01*
X148915143Y-114214492D01*
X148915143Y-111965000D01*
X143946857Y-111965000D01*
X121523884Y-111965000D01*
X122494148Y-110994736D01*
X122738868Y-111096353D01*
X123485457Y-111097005D01*
X124175465Y-110811899D01*
X124703844Y-110284442D01*
X124990153Y-109594932D01*
X124990805Y-108848343D01*
X124705699Y-108158335D01*
X124178242Y-107629956D01*
X123488732Y-107343647D01*
X122742143Y-107342995D01*
X122553411Y-107420978D01*
X122607212Y-107150500D01*
X136993599Y-107150500D01*
X137354529Y-108024019D01*
X138022266Y-108692922D01*
X138895153Y-109055376D01*
X139840300Y-109056201D01*
X140713819Y-108695271D01*
X141382722Y-108027534D01*
X141688451Y-107291254D01*
X152077415Y-107291254D01*
X152415771Y-108110139D01*
X153041746Y-108737207D01*
X153860039Y-109076992D01*
X154746074Y-109077765D01*
X155564959Y-108739409D01*
X156192027Y-108113434D01*
X156531812Y-107295141D01*
X156532585Y-106409106D01*
X156194229Y-105590221D01*
X155568254Y-104963153D01*
X154749961Y-104623368D01*
X153863926Y-104622595D01*
X153045041Y-104960951D01*
X152417973Y-105586926D01*
X152078188Y-106405219D01*
X152077415Y-107291254D01*
X141688451Y-107291254D01*
X141745176Y-107154647D01*
X141746001Y-106209500D01*
X141385071Y-105335981D01*
X140717334Y-104667078D01*
X139844447Y-104304624D01*
X138899300Y-104303799D01*
X138025781Y-104664729D01*
X137356878Y-105332466D01*
X136994424Y-106205353D01*
X136993599Y-107150500D01*
X122607212Y-107150500D01*
X122700800Y-106680000D01*
X122598251Y-106164451D01*
X123113800Y-106267000D01*
X128770593Y-106267000D01*
X129584561Y-106105092D01*
X130274609Y-105644016D01*
X132178312Y-103740313D01*
X153492289Y-103740313D01*
X153654406Y-103930151D01*
X154289454Y-104062654D01*
X154926870Y-103942049D01*
X154955594Y-103930151D01*
X155117711Y-103740313D01*
X154305000Y-102927602D01*
X153492289Y-103740313D01*
X132178312Y-103740313D01*
X133534071Y-102384554D01*
X152642446Y-102384554D01*
X152763051Y-103021970D01*
X152774949Y-103050694D01*
X152964787Y-103212811D01*
X153777498Y-102400100D01*
X154832502Y-102400100D01*
X155645213Y-103212811D01*
X155835051Y-103050694D01*
X155967554Y-102415646D01*
X155846949Y-101778230D01*
X155835051Y-101749506D01*
X155645213Y-101587389D01*
X154832502Y-102400100D01*
X153777498Y-102400100D01*
X152964787Y-101587389D01*
X152774949Y-101749506D01*
X152642446Y-102384554D01*
X133534071Y-102384554D01*
X134564403Y-101354222D01*
X141507844Y-101354222D01*
X142321812Y-101192314D01*
X142520002Y-101059887D01*
X153492289Y-101059887D01*
X154305000Y-101872598D01*
X155117711Y-101059887D01*
X154955594Y-100870049D01*
X154320546Y-100737546D01*
X153683130Y-100858151D01*
X153654406Y-100870049D01*
X153492289Y-101059887D01*
X142520002Y-101059887D01*
X143011860Y-100731238D01*
X150769016Y-92974082D01*
X150900203Y-92777747D01*
X152167840Y-94045384D01*
X152167840Y-98259900D01*
X152329748Y-99073868D01*
X152790824Y-99763916D01*
X153480872Y-100224992D01*
X154294840Y-100386900D01*
X155108808Y-100224992D01*
X155798856Y-99763916D01*
X156259932Y-99073868D01*
X156421840Y-98259900D01*
X156421840Y-93164352D01*
X156259932Y-92350384D01*
X155798856Y-91660336D01*
X151392000Y-87253480D01*
X151392000Y-86803312D01*
X153714190Y-86803312D01*
X153831032Y-86956892D01*
X154335490Y-87029192D01*
X154698968Y-86956892D01*
X154815810Y-86803312D01*
X154265000Y-86252502D01*
X153714190Y-86803312D01*
X151392000Y-86803312D01*
X151392000Y-85795490D01*
X152960808Y-85795490D01*
X153033108Y-86158968D01*
X153186688Y-86275810D01*
X153737498Y-85725000D01*
X154792502Y-85725000D01*
X155343312Y-86275810D01*
X155496892Y-86158968D01*
X155569192Y-85654510D01*
X155496892Y-85291032D01*
X155343312Y-85174190D01*
X154792502Y-85725000D01*
X153737498Y-85725000D01*
X153186688Y-85174190D01*
X153033108Y-85291032D01*
X152960808Y-85795490D01*
X151392000Y-85795490D01*
X151392000Y-85725000D01*
X151230092Y-84911032D01*
X151053463Y-84646688D01*
X153714190Y-84646688D01*
X154265000Y-85197498D01*
X154815810Y-84646688D01*
X154698968Y-84493108D01*
X154194510Y-84420808D01*
X153831032Y-84493108D01*
X153714190Y-84646688D01*
X151053463Y-84646688D01*
X150769016Y-84220984D01*
X150078968Y-83759908D01*
X149265000Y-83598000D01*
X148451032Y-83759908D01*
X147760984Y-84220984D01*
X147299908Y-84911032D01*
X147138000Y-85725000D01*
X147138000Y-86611734D01*
X146742734Y-87007000D01*
X141986496Y-87007000D01*
X141968675Y-86963871D01*
X141511536Y-86505933D01*
X141433334Y-86473461D01*
X141395144Y-86281469D01*
X141370776Y-86245000D01*
X141205035Y-85996949D01*
X141205032Y-85996947D01*
X140998000Y-85789915D01*
X140998000Y-85510906D01*
X141202957Y-85306307D01*
X141329212Y-85002250D01*
X141590000Y-85002250D01*
X141590000Y-85307785D01*
X141648004Y-85447819D01*
X141755180Y-85554996D01*
X141895214Y-85613000D01*
X142200750Y-85613000D01*
X142296000Y-85517750D01*
X142296000Y-84907000D01*
X142946000Y-84907000D01*
X142946000Y-85517750D01*
X143041250Y-85613000D01*
X143346786Y-85613000D01*
X143486820Y-85554996D01*
X143593996Y-85447819D01*
X143652000Y-85307785D01*
X143652000Y-85002250D01*
X143556750Y-84907000D01*
X142946000Y-84907000D01*
X142296000Y-84907000D01*
X141685250Y-84907000D01*
X141590000Y-85002250D01*
X141329212Y-85002250D01*
X141397778Y-84837125D01*
X141398221Y-84329103D01*
X141204219Y-83859583D01*
X141200857Y-83856215D01*
X141590000Y-83856215D01*
X141590000Y-84161750D01*
X141685250Y-84257000D01*
X142296000Y-84257000D01*
X142296000Y-83646250D01*
X142946000Y-83646250D01*
X142946000Y-84257000D01*
X143556750Y-84257000D01*
X143652000Y-84161750D01*
X143652000Y-83856215D01*
X143593996Y-83716181D01*
X143486820Y-83609004D01*
X143346786Y-83551000D01*
X143041250Y-83551000D01*
X142946000Y-83646250D01*
X142296000Y-83646250D01*
X142200750Y-83551000D01*
X141895214Y-83551000D01*
X141755180Y-83609004D01*
X141648004Y-83716181D01*
X141590000Y-83856215D01*
X141200857Y-83856215D01*
X140845307Y-83500043D01*
X140376125Y-83305222D01*
X139868103Y-83304779D01*
X139398583Y-83498781D01*
X139192003Y-83705000D01*
X137667906Y-83705000D01*
X137463307Y-83500043D01*
X136994125Y-83305222D01*
X136486103Y-83304779D01*
X136016583Y-83498781D01*
X135657043Y-83857693D01*
X135528283Y-84167782D01*
X135528283Y-83932000D01*
X135484563Y-83699648D01*
X135347243Y-83486247D01*
X135137717Y-83343083D01*
X134889000Y-83292717D01*
X133589000Y-83292717D01*
X133356648Y-83336437D01*
X133143247Y-83473757D01*
X133000083Y-83683283D01*
X132995685Y-83705000D01*
X131776626Y-83705000D01*
X131776621Y-83704999D01*
X131441008Y-83771758D01*
X131306000Y-83861967D01*
X131306000Y-82677496D01*
X131349129Y-82659675D01*
X131575795Y-82433404D01*
X139963098Y-82433404D01*
X140093014Y-82597252D01*
X140634859Y-82686788D01*
X141084986Y-82597252D01*
X141214902Y-82433404D01*
X140589000Y-81807502D01*
X139963098Y-82433404D01*
X131575795Y-82433404D01*
X131807067Y-82202536D01*
X132055207Y-81604948D01*
X132055450Y-81325859D01*
X139182212Y-81325859D01*
X139271748Y-81775986D01*
X139435596Y-81905902D01*
X140061498Y-81280000D01*
X141116502Y-81280000D01*
X141742404Y-81905902D01*
X141906252Y-81775986D01*
X141995788Y-81234141D01*
X141906252Y-80784014D01*
X141742404Y-80654098D01*
X141116502Y-81280000D01*
X140061498Y-81280000D01*
X139435596Y-80654098D01*
X139271748Y-80784014D01*
X139182212Y-81325859D01*
X132055450Y-81325859D01*
X132055772Y-80957890D01*
X131808675Y-80359871D01*
X131575808Y-80126596D01*
X139963098Y-80126596D01*
X140589000Y-80752498D01*
X141214902Y-80126596D01*
X141084986Y-79962748D01*
X140543141Y-79873212D01*
X140093014Y-79962748D01*
X139963098Y-80126596D01*
X131575808Y-80126596D01*
X131351536Y-79901933D01*
X130753948Y-79653793D01*
X130106890Y-79653228D01*
X129508871Y-79900325D01*
X129050933Y-80357464D01*
X128802793Y-80955052D01*
X128802228Y-81602110D01*
X129049325Y-82200129D01*
X129506464Y-82658067D01*
X129552000Y-82676975D01*
X129552000Y-86486504D01*
X129508871Y-86504325D01*
X129050933Y-86961464D01*
X128802793Y-87559052D01*
X128802228Y-88206110D01*
X129049325Y-88804129D01*
X129506464Y-89262067D01*
X129552000Y-89280975D01*
X129552000Y-91463145D01*
X119718218Y-101296926D01*
X119674832Y-101278911D01*
X119027571Y-101278346D01*
X118429364Y-101525520D01*
X117971283Y-101982803D01*
X117723065Y-102580578D01*
X117722500Y-103227839D01*
X117969674Y-103826046D01*
X118426957Y-104284127D01*
X119024732Y-104532345D01*
X119671993Y-104532910D01*
X120270200Y-104285736D01*
X120728281Y-103828453D01*
X120976499Y-103230678D01*
X120977064Y-102583417D01*
X120958116Y-102537560D01*
X131049130Y-92446545D01*
X131049133Y-92446543D01*
X131239242Y-92162023D01*
X131280330Y-91955463D01*
X131306001Y-91826410D01*
X131306000Y-91826405D01*
X131306000Y-89281496D01*
X131349129Y-89263675D01*
X131807067Y-88806536D01*
X132055207Y-88208948D01*
X132055772Y-87561890D01*
X131808675Y-86963871D01*
X131351536Y-86505933D01*
X131306000Y-86487025D01*
X131306000Y-86292887D01*
X132139887Y-85459000D01*
X132992430Y-85459000D01*
X132993437Y-85464352D01*
X133130757Y-85677753D01*
X133340283Y-85820917D01*
X133589000Y-85871283D01*
X134889000Y-85871283D01*
X135121352Y-85827563D01*
X135334753Y-85690243D01*
X135477917Y-85480717D01*
X135528283Y-85232000D01*
X135528283Y-84995849D01*
X135655781Y-85304417D01*
X136014693Y-85663957D01*
X136483875Y-85858778D01*
X136991897Y-85859221D01*
X137461417Y-85665219D01*
X137667997Y-85459000D01*
X139192094Y-85459000D01*
X139244000Y-85510997D01*
X139244000Y-86153180D01*
X139310758Y-86488793D01*
X139460273Y-86712559D01*
X139210933Y-86961464D01*
X138962793Y-87559052D01*
X138962228Y-88206110D01*
X139209325Y-88804129D01*
X139666464Y-89262067D01*
X140264052Y-89510207D01*
X140911110Y-89510772D01*
X141509129Y-89263675D01*
X141967067Y-88806536D01*
X141985975Y-88761000D01*
X147106000Y-88761000D01*
X147138000Y-88754635D01*
X147138000Y-90589034D01*
X140626812Y-97100222D01*
X133683371Y-97100222D01*
X132869403Y-97262130D01*
X132179355Y-97723206D01*
X127889561Y-102013000D01*
X123113800Y-102013000D01*
X122299832Y-102174908D01*
X121609784Y-102635984D01*
X121148708Y-103326032D01*
X120986800Y-104140000D01*
X121089349Y-104655549D01*
X120573800Y-104553000D01*
X115181032Y-104553000D01*
X115102079Y-104474047D01*
X115102079Y-100153035D01*
X115880773Y-100153035D01*
X116127947Y-100751242D01*
X116585230Y-101209323D01*
X117183005Y-101457541D01*
X117830266Y-101458106D01*
X118428473Y-101210932D01*
X118886554Y-100753649D01*
X119134772Y-100155874D01*
X119135337Y-99508613D01*
X118888163Y-98910406D01*
X118430880Y-98452325D01*
X118385055Y-98433297D01*
X118385055Y-95575681D01*
X121236928Y-92723807D01*
X121236931Y-92723805D01*
X121427040Y-92439285D01*
X121444724Y-92350384D01*
X121493799Y-92103672D01*
X121493798Y-92103667D01*
X121493798Y-73421468D01*
X129806955Y-65108311D01*
X129850052Y-65126207D01*
X130497110Y-65126772D01*
X131095129Y-64879675D01*
X131553067Y-64422536D01*
X131801207Y-63824948D01*
X131801772Y-63177890D01*
X131554675Y-62579871D01*
X131097536Y-62121933D01*
X130499948Y-61873793D01*
X129852890Y-61873228D01*
X129254871Y-62120325D01*
X128796933Y-62577464D01*
X128548793Y-63175052D01*
X128548228Y-63822110D01*
X128567056Y-63867678D01*
X119996665Y-72438069D01*
X119806556Y-72722589D01*
X119739798Y-73058202D01*
X119739798Y-91740407D01*
X116887922Y-94592282D01*
X116697813Y-94876802D01*
X116631055Y-95212415D01*
X116631055Y-98432776D01*
X116587637Y-98450716D01*
X116129556Y-98907999D01*
X115881338Y-99505774D01*
X115880773Y-100153035D01*
X115102079Y-100153035D01*
X115102079Y-95401441D01*
X116279006Y-94224514D01*
X116367460Y-94092133D01*
X116740082Y-93534466D01*
X116901990Y-92720498D01*
X116901990Y-80219341D01*
X116740082Y-79405373D01*
X116279006Y-78715325D01*
X112128353Y-74564672D01*
X112193917Y-74468717D01*
X112244283Y-74220000D01*
X112244283Y-70720000D01*
X112200563Y-70487648D01*
X112063243Y-70274247D01*
X111982000Y-70218736D01*
X111982000Y-55237032D01*
X115562032Y-51657000D01*
X120573800Y-51657000D01*
X121314426Y-51509681D01*
X121237447Y-51695068D01*
X121236795Y-52441657D01*
X121521901Y-53131665D01*
X122049358Y-53660044D01*
X122738868Y-53946353D01*
X123485457Y-53947005D01*
X124175465Y-53661899D01*
X124703844Y-53134442D01*
X124781677Y-52947000D01*
X125962587Y-52947000D01*
X137135720Y-64120133D01*
X137420240Y-64310242D01*
X137755853Y-64377000D01*
X138937504Y-64377000D01*
X138955325Y-64420129D01*
X139412464Y-64878067D01*
X140010052Y-65126207D01*
X140657110Y-65126772D01*
X141255129Y-64879675D01*
X141713067Y-64422536D01*
X141961207Y-63824948D01*
X141961772Y-63177890D01*
X141714675Y-62579871D01*
X141257536Y-62121933D01*
X140659948Y-61873793D01*
X140012890Y-61873228D01*
X139414871Y-62120325D01*
X138956933Y-62577464D01*
X138938025Y-62623000D01*
X138119119Y-62623000D01*
X126945986Y-51449867D01*
X126661466Y-51259758D01*
X126325853Y-51193000D01*
X124782001Y-51193000D01*
X124705699Y-51008335D01*
X124178242Y-50479956D01*
X123488732Y-50193647D01*
X122742143Y-50192995D01*
X122553411Y-50270978D01*
X122700800Y-49530000D01*
X122598251Y-49014451D01*
X123113800Y-49117000D01*
X127388968Y-49117000D01*
X137726084Y-59454116D01*
X138416132Y-59915192D01*
X139230100Y-60077100D01*
X142794068Y-60077100D01*
X147057480Y-64340512D01*
X147057480Y-67449000D01*
X141986496Y-67449000D01*
X141968675Y-67405871D01*
X141511536Y-66947933D01*
X140913948Y-66699793D01*
X140266890Y-66699228D01*
X139668871Y-66946325D01*
X139210933Y-67403464D01*
X138962793Y-68001052D01*
X138962228Y-68648110D01*
X139209325Y-69246129D01*
X139541785Y-69579170D01*
X139500867Y-69620088D01*
X139310758Y-69904608D01*
X139244000Y-70240221D01*
X139244000Y-70699094D01*
X139192003Y-70751000D01*
X137667906Y-70751000D01*
X137463307Y-70546043D01*
X136994125Y-70351222D01*
X136486103Y-70350779D01*
X136016583Y-70544781D01*
X135657043Y-70903693D01*
X135528283Y-71213782D01*
X135528283Y-70978000D01*
X135484563Y-70745648D01*
X135347243Y-70532247D01*
X135137717Y-70389083D01*
X134889000Y-70338717D01*
X133589000Y-70338717D01*
X133356648Y-70382437D01*
X133143247Y-70519757D01*
X133000083Y-70729283D01*
X132995685Y-70751000D01*
X131449882Y-70751000D01*
X131306000Y-70779620D01*
X131306000Y-69723496D01*
X131349129Y-69705675D01*
X131807067Y-69248536D01*
X132055207Y-68650948D01*
X132055772Y-68003890D01*
X131808675Y-67405871D01*
X131351536Y-66947933D01*
X130753948Y-66699793D01*
X130106890Y-66699228D01*
X129508871Y-66946325D01*
X129050933Y-67403464D01*
X128802793Y-68001052D01*
X128802228Y-68648110D01*
X129049325Y-69246129D01*
X129506464Y-69704067D01*
X129552000Y-69722975D01*
X129552000Y-73888050D01*
X129177933Y-74261464D01*
X128929793Y-74859052D01*
X128929228Y-75506110D01*
X128948057Y-75551678D01*
X122643289Y-81856445D01*
X122453180Y-82140965D01*
X122386422Y-82476578D01*
X122386422Y-94348603D01*
X120956144Y-95778880D01*
X120912758Y-95760865D01*
X120265497Y-95760300D01*
X119667290Y-96007474D01*
X119209209Y-96464757D01*
X118960991Y-97062532D01*
X118960426Y-97709793D01*
X119207600Y-98308000D01*
X119664883Y-98766081D01*
X120262658Y-99014299D01*
X120909919Y-99014864D01*
X121508126Y-98767690D01*
X121966207Y-98310407D01*
X122214425Y-97712632D01*
X122214990Y-97065371D01*
X122196042Y-97019514D01*
X123883552Y-95332003D01*
X123883555Y-95332001D01*
X123997517Y-95161444D01*
X124073664Y-95047482D01*
X124140422Y-94711868D01*
X124140422Y-82839844D01*
X130187954Y-76792311D01*
X130231052Y-76810207D01*
X130878110Y-76810772D01*
X131476129Y-76563675D01*
X131702795Y-76337404D01*
X140090098Y-76337404D01*
X140220014Y-76501252D01*
X140761859Y-76590788D01*
X141211986Y-76501252D01*
X141341902Y-76337404D01*
X140716000Y-75711502D01*
X140090098Y-76337404D01*
X131702795Y-76337404D01*
X131934067Y-76106536D01*
X132182207Y-75508948D01*
X132182450Y-75229859D01*
X139309212Y-75229859D01*
X139398748Y-75679986D01*
X139562596Y-75809902D01*
X140188498Y-75184000D01*
X141243502Y-75184000D01*
X141869404Y-75809902D01*
X142033252Y-75679986D01*
X142122788Y-75138141D01*
X142033252Y-74688014D01*
X141869404Y-74558098D01*
X141243502Y-75184000D01*
X140188498Y-75184000D01*
X139562596Y-74558098D01*
X139398748Y-74688014D01*
X139309212Y-75229859D01*
X132182450Y-75229859D01*
X132182772Y-74861890D01*
X131935675Y-74263871D01*
X131702808Y-74030596D01*
X140090098Y-74030596D01*
X140716000Y-74656498D01*
X141341902Y-74030596D01*
X141211986Y-73866748D01*
X140670141Y-73777212D01*
X140220014Y-73866748D01*
X140090098Y-74030596D01*
X131702808Y-74030596D01*
X131478536Y-73805933D01*
X131433000Y-73787025D01*
X131433000Y-72885148D01*
X131813148Y-72505000D01*
X132992430Y-72505000D01*
X132993437Y-72510352D01*
X133130757Y-72723753D01*
X133340283Y-72866917D01*
X133589000Y-72917283D01*
X134889000Y-72917283D01*
X135121352Y-72873563D01*
X135334753Y-72736243D01*
X135477917Y-72526717D01*
X135528283Y-72278000D01*
X135528283Y-72041849D01*
X135655781Y-72350417D01*
X136014693Y-72709957D01*
X136483875Y-72904778D01*
X136991897Y-72905221D01*
X137461417Y-72711219D01*
X137667997Y-72505000D01*
X139192094Y-72505000D01*
X139396693Y-72709957D01*
X139865875Y-72904778D01*
X140373897Y-72905221D01*
X140843417Y-72711219D01*
X141202957Y-72352307D01*
X141329212Y-72048250D01*
X141590000Y-72048250D01*
X141590000Y-72353785D01*
X141648004Y-72493819D01*
X141755180Y-72600996D01*
X141895214Y-72659000D01*
X142200750Y-72659000D01*
X142296000Y-72563750D01*
X142296000Y-71953000D01*
X142946000Y-71953000D01*
X142946000Y-72563750D01*
X143041250Y-72659000D01*
X143346786Y-72659000D01*
X143486820Y-72600996D01*
X143593996Y-72493819D01*
X143652000Y-72353785D01*
X143652000Y-72048250D01*
X143556750Y-71953000D01*
X142946000Y-71953000D01*
X142296000Y-71953000D01*
X141685250Y-71953000D01*
X141590000Y-72048250D01*
X141329212Y-72048250D01*
X141397778Y-71883125D01*
X141398221Y-71375103D01*
X141204219Y-70905583D01*
X141200857Y-70902215D01*
X141590000Y-70902215D01*
X141590000Y-71207750D01*
X141685250Y-71303000D01*
X142296000Y-71303000D01*
X142296000Y-70692250D01*
X142946000Y-70692250D01*
X142946000Y-71303000D01*
X143556750Y-71303000D01*
X143652000Y-71207750D01*
X143652000Y-70902215D01*
X143593996Y-70762181D01*
X143486820Y-70655004D01*
X143346786Y-70597000D01*
X143041250Y-70597000D01*
X142946000Y-70692250D01*
X142296000Y-70692250D01*
X142200750Y-70597000D01*
X141895214Y-70597000D01*
X141755180Y-70655004D01*
X141648004Y-70762181D01*
X141590000Y-70902215D01*
X141200857Y-70902215D01*
X140998000Y-70699003D01*
X140998000Y-70603486D01*
X141205546Y-70395940D01*
X141205549Y-70395938D01*
X141319511Y-70225381D01*
X141395658Y-70111419D01*
X141462416Y-69775805D01*
X141462416Y-69724976D01*
X141509129Y-69705675D01*
X141967067Y-69248536D01*
X141985975Y-69203000D01*
X146742734Y-69203000D01*
X147057480Y-69517746D01*
X147057480Y-70404480D01*
X147219388Y-71218448D01*
X147680464Y-71908496D01*
X148370512Y-72369572D01*
X149184480Y-72531480D01*
X149998448Y-72369572D01*
X150688496Y-71908496D01*
X150919140Y-71563312D01*
X153714190Y-71563312D01*
X153831032Y-71716892D01*
X154335490Y-71789192D01*
X154698968Y-71716892D01*
X154815810Y-71563312D01*
X154265000Y-71012502D01*
X153714190Y-71563312D01*
X150919140Y-71563312D01*
X151149572Y-71218448D01*
X151281442Y-70555490D01*
X152960808Y-70555490D01*
X153033108Y-70918968D01*
X153186688Y-71035810D01*
X153737498Y-70485000D01*
X154792502Y-70485000D01*
X155343312Y-71035810D01*
X155496892Y-70918968D01*
X155569192Y-70414510D01*
X155496892Y-70051032D01*
X155343312Y-69934190D01*
X154792502Y-70485000D01*
X153737498Y-70485000D01*
X153186688Y-69934190D01*
X153033108Y-70051032D01*
X152960808Y-70555490D01*
X151281442Y-70555490D01*
X151311480Y-70404480D01*
X151311480Y-69406688D01*
X153714190Y-69406688D01*
X154265000Y-69957498D01*
X154815810Y-69406688D01*
X154698968Y-69253108D01*
X154194510Y-69180808D01*
X153831032Y-69253108D01*
X153714190Y-69406688D01*
X151311480Y-69406688D01*
X151311480Y-68191032D01*
X155819176Y-63683336D01*
X156280252Y-62993288D01*
X156442160Y-62179320D01*
X156442160Y-57950100D01*
X156280252Y-57136132D01*
X155819176Y-56446084D01*
X155129128Y-55985008D01*
X154315160Y-55823100D01*
X153501192Y-55985008D01*
X152811144Y-56446084D01*
X152350068Y-57136132D01*
X152188160Y-57950100D01*
X152188160Y-61298288D01*
X151025950Y-62460498D01*
X150688496Y-61955464D01*
X145179116Y-56446084D01*
X144489068Y-55985008D01*
X143675100Y-55823100D01*
X140111132Y-55823100D01*
X139438145Y-55150113D01*
X153492289Y-55150113D01*
X153654406Y-55339951D01*
X154289454Y-55472454D01*
X154926870Y-55351849D01*
X154955594Y-55339951D01*
X155117711Y-55150113D01*
X154305000Y-54337402D01*
X153492289Y-55150113D01*
X139438145Y-55150113D01*
X138082386Y-53794354D01*
X152642446Y-53794354D01*
X152763051Y-54431770D01*
X152774949Y-54460494D01*
X152964787Y-54622611D01*
X153777498Y-53809900D01*
X154832502Y-53809900D01*
X155645213Y-54622611D01*
X155835051Y-54460494D01*
X155967554Y-53825446D01*
X155846949Y-53188030D01*
X155835051Y-53159306D01*
X155645213Y-52997189D01*
X154832502Y-53809900D01*
X153777498Y-53809900D01*
X152964787Y-52997189D01*
X152774949Y-53159306D01*
X152642446Y-53794354D01*
X138082386Y-53794354D01*
X136757719Y-52469687D01*
X153492289Y-52469687D01*
X154305000Y-53282398D01*
X155117711Y-52469687D01*
X154955594Y-52279849D01*
X154320546Y-52147346D01*
X153683130Y-52267951D01*
X153654406Y-52279849D01*
X153492289Y-52469687D01*
X136757719Y-52469687D01*
X134288532Y-50000500D01*
X136993599Y-50000500D01*
X137354529Y-50874019D01*
X138022266Y-51542922D01*
X138895153Y-51905376D01*
X139840300Y-51906201D01*
X140713819Y-51545271D01*
X141382722Y-50877534D01*
X141745176Y-50004647D01*
X141745353Y-49800894D01*
X152077415Y-49800894D01*
X152415771Y-50619779D01*
X153041746Y-51246847D01*
X153860039Y-51586632D01*
X154746074Y-51587405D01*
X155564959Y-51249049D01*
X156192027Y-50623074D01*
X156531812Y-49804781D01*
X156532585Y-48918746D01*
X156194229Y-48099861D01*
X155568254Y-47472793D01*
X154749961Y-47133008D01*
X153863926Y-47132235D01*
X153045041Y-47470591D01*
X152417973Y-48096566D01*
X152078188Y-48914859D01*
X152077415Y-49800894D01*
X141745353Y-49800894D01*
X141746001Y-49059500D01*
X141385071Y-48185981D01*
X140717334Y-47517078D01*
X139844447Y-47154624D01*
X138899300Y-47153799D01*
X138025781Y-47514729D01*
X137356878Y-48182466D01*
X136994424Y-49055353D01*
X136993599Y-50000500D01*
X134288532Y-50000500D01*
X129774016Y-45485984D01*
X129083968Y-45024908D01*
X128270000Y-44863000D01*
X123113800Y-44863000D01*
X122299832Y-45024908D01*
X121609784Y-45485984D01*
X121148708Y-46176032D01*
X120986800Y-46990000D01*
X121089349Y-47505549D01*
X120573800Y-47403000D01*
X114681000Y-47403000D01*
X113867032Y-47564908D01*
X113509254Y-47803968D01*
X113176984Y-48025984D01*
X108350984Y-52851984D01*
X107889908Y-53542032D01*
X107728000Y-54356000D01*
X107728000Y-70217516D01*
X107659247Y-70261757D01*
X107603736Y-70343000D01*
X106071195Y-70343000D01*
X93279179Y-57550984D01*
X92589131Y-57089908D01*
X91775163Y-56928000D01*
X83050000Y-56928000D01*
X83050000Y-55399531D01*
X84991066Y-55399531D01*
X85129902Y-55643245D01*
X85493417Y-55912266D01*
X85932211Y-56021698D01*
X86114000Y-55920905D01*
X86114000Y-55237000D01*
X86860000Y-55237000D01*
X86860000Y-55920905D01*
X87041789Y-56021698D01*
X87480583Y-55912266D01*
X87844098Y-55643245D01*
X87982934Y-55399531D01*
X87952976Y-55237000D01*
X86860000Y-55237000D01*
X86114000Y-55237000D01*
X85021024Y-55237000D01*
X84991066Y-55399531D01*
X83050000Y-55399531D01*
X83050000Y-54328469D01*
X84991066Y-54328469D01*
X85021024Y-54491000D01*
X86114000Y-54491000D01*
X86114000Y-53807095D01*
X86860000Y-53807095D01*
X86860000Y-54491000D01*
X87952976Y-54491000D01*
X87982934Y-54328469D01*
X87844098Y-54084755D01*
X87480583Y-53815734D01*
X87041789Y-53706302D01*
X86860000Y-53807095D01*
X86114000Y-53807095D01*
X85932211Y-53706302D01*
X85493417Y-53815734D01*
X85129902Y-54084755D01*
X84991066Y-54328469D01*
X83050000Y-54328469D01*
X83050000Y-52824000D01*
X83003916Y-52588065D01*
X82866356Y-52380644D01*
X82453319Y-51967607D01*
X82509926Y-51911000D01*
X86487000Y-51911000D01*
X87300968Y-51749092D01*
X87991016Y-51288016D01*
X88452092Y-50597968D01*
X88614000Y-49784000D01*
X88452092Y-48970032D01*
X87991016Y-48279984D01*
X87300968Y-47818908D01*
X86487000Y-47657000D01*
X82336000Y-47657000D01*
X81522032Y-47818908D01*
X81280000Y-47980629D01*
X81037968Y-47818908D01*
X80224000Y-47657000D01*
X75738926Y-47657000D01*
X75454000Y-47372074D01*
X75454000Y-45923816D01*
X75461180Y-45930996D01*
X75601214Y-45989000D01*
X75906750Y-45989000D01*
X76002000Y-45893750D01*
X76002000Y-45283000D01*
X76652000Y-45283000D01*
X76652000Y-45893750D01*
X76747250Y-45989000D01*
X77052786Y-45989000D01*
X77192820Y-45930996D01*
X77299996Y-45823819D01*
X77358000Y-45683785D01*
X77358000Y-45378250D01*
X77262750Y-45283000D01*
X76652000Y-45283000D01*
X76002000Y-45283000D01*
X75934000Y-45283000D01*
X75934000Y-44633000D01*
X76002000Y-44633000D01*
X76002000Y-44022250D01*
X76652000Y-44022250D01*
X76652000Y-44633000D01*
X77262750Y-44633000D01*
X77358000Y-44537750D01*
X77358000Y-44232215D01*
X77299996Y-44092181D01*
X77192820Y-43985004D01*
X77052786Y-43927000D01*
X76747250Y-43927000D01*
X76652000Y-44022250D01*
X76002000Y-44022250D01*
X75906750Y-43927000D01*
X75601214Y-43927000D01*
X75461180Y-43985004D01*
X75354004Y-44092181D01*
X75296000Y-44232215D01*
X75296000Y-44284262D01*
X74977463Y-43807537D01*
X74449626Y-43454848D01*
X73827000Y-43331000D01*
X73204374Y-43454848D01*
X72676537Y-43807537D01*
X72323848Y-44335374D01*
X72200000Y-44958000D01*
X72200000Y-48046000D01*
X72323848Y-48668626D01*
X72443117Y-48847125D01*
X65797342Y-55492900D01*
X64759840Y-55492900D01*
X63945872Y-55654808D01*
X63255824Y-56115884D01*
X62794748Y-56805932D01*
X62632840Y-57619900D01*
X60507500Y-57619900D01*
X60507500Y-44214632D01*
X62313789Y-44214632D01*
X62674912Y-45088617D01*
X63343006Y-45757878D01*
X64216359Y-46120526D01*
X65162012Y-46121351D01*
X66035997Y-45760228D01*
X66705258Y-45092134D01*
X67067906Y-44218781D01*
X67068731Y-43273128D01*
X66707608Y-42399143D01*
X66039514Y-41729882D01*
X65166161Y-41367234D01*
X64220508Y-41366409D01*
X63346523Y-41727532D01*
X62677262Y-42395626D01*
X62314614Y-43268979D01*
X62313789Y-44214632D01*
X60507500Y-44214632D01*
X60507500Y-40078000D01*
X92909143Y-40078000D01*
X92909143Y-46432000D01*
X104448857Y-46432000D01*
X104448857Y-44214632D01*
X152313609Y-44214632D01*
X152674732Y-45088617D01*
X153342826Y-45757878D01*
X154216179Y-46120526D01*
X155161832Y-46121351D01*
X156035817Y-45760228D01*
X156705078Y-45092134D01*
X157067726Y-44218781D01*
X157068551Y-43273128D01*
X156707428Y-42399143D01*
X156039334Y-41729882D01*
X155165981Y-41367234D01*
X154220328Y-41366409D01*
X153346343Y-41727532D01*
X152677082Y-42395626D01*
X152314434Y-43268979D01*
X152313609Y-44214632D01*
X104448857Y-44214632D01*
X104448857Y-40078000D01*
X92909143Y-40078000D01*
X60507500Y-40078000D01*
X60507500Y-39562660D01*
X158872300Y-39562660D01*
X158872300Y-117927500D01*
X158872300Y-117927500D01*
G37*
X158872300Y-117927500D02*
X60507500Y-117927500D01*
X60507500Y-114214492D01*
X62313789Y-114214492D01*
X62674912Y-115088477D01*
X63343006Y-115757738D01*
X64216359Y-116120386D01*
X65162012Y-116121211D01*
X66035997Y-115760088D01*
X66705258Y-115091994D01*
X67067906Y-114218641D01*
X67068731Y-113272988D01*
X66707608Y-112399003D01*
X66039514Y-111729742D01*
X65166161Y-111367094D01*
X64220508Y-111366269D01*
X63346523Y-111727392D01*
X62677262Y-112395486D01*
X62314614Y-113268839D01*
X62313789Y-114214492D01*
X60507500Y-114214492D01*
X60507500Y-90805000D01*
X62805248Y-90805000D01*
X62929096Y-91427626D01*
X63281785Y-91955463D01*
X63809622Y-92308152D01*
X64432248Y-92432000D01*
X65107752Y-92432000D01*
X65730378Y-92308152D01*
X66258215Y-91955463D01*
X66440937Y-91682000D01*
X66918003Y-91682000D01*
X66909313Y-91725687D01*
X66909313Y-99663313D01*
X66976071Y-99998926D01*
X67166180Y-100283446D01*
X70118867Y-103236133D01*
X70403387Y-103426242D01*
X70739000Y-103493000D01*
X74439734Y-103493000D01*
X75450000Y-104503265D01*
X75450000Y-109474000D01*
X75516758Y-109809613D01*
X75706867Y-110094133D01*
X76722867Y-111110133D01*
X77007387Y-111300242D01*
X77343000Y-111367001D01*
X77343005Y-111367000D01*
X88011094Y-111367000D01*
X88215693Y-111571957D01*
X88684875Y-111766778D01*
X89192897Y-111767221D01*
X89662417Y-111573219D01*
X90021957Y-111214307D01*
X90148212Y-110910250D01*
X90409000Y-110910250D01*
X90409000Y-111215785D01*
X90467004Y-111355819D01*
X90574180Y-111462996D01*
X90714214Y-111521000D01*
X91019750Y-111521000D01*
X91115000Y-111425750D01*
X91115000Y-110815000D01*
X91765000Y-110815000D01*
X91765000Y-111425750D01*
X91860250Y-111521000D01*
X92165786Y-111521000D01*
X92305820Y-111462996D01*
X92412996Y-111355819D01*
X92471000Y-111215785D01*
X92471000Y-110910250D01*
X92375750Y-110815000D01*
X91765000Y-110815000D01*
X91115000Y-110815000D01*
X90504250Y-110815000D01*
X90409000Y-110910250D01*
X90148212Y-110910250D01*
X90216778Y-110745125D01*
X90217221Y-110237103D01*
X90023219Y-109767583D01*
X90019857Y-109764215D01*
X90409000Y-109764215D01*
X90409000Y-110069750D01*
X90504250Y-110165000D01*
X91115000Y-110165000D01*
X91115000Y-109554250D01*
X91765000Y-109554250D01*
X91765000Y-110165000D01*
X92375750Y-110165000D01*
X92471000Y-110069750D01*
X92471000Y-109764215D01*
X92412996Y-109624181D01*
X92305820Y-109517004D01*
X92165786Y-109459000D01*
X91860250Y-109459000D01*
X91765000Y-109554250D01*
X91115000Y-109554250D01*
X91019750Y-109459000D01*
X90714214Y-109459000D01*
X90574180Y-109517004D01*
X90467004Y-109624181D01*
X90409000Y-109764215D01*
X90019857Y-109764215D01*
X89817000Y-109561003D01*
X89817000Y-108116803D01*
X89750242Y-107781190D01*
X89750242Y-107781189D01*
X89642679Y-107620210D01*
X89560133Y-107496670D01*
X89560130Y-107496668D01*
X87812426Y-105748964D01*
X87812730Y-105401498D01*
X87611359Y-104914146D01*
X87238816Y-104540951D01*
X86884649Y-104393888D01*
X87236854Y-104248359D01*
X87610049Y-103875816D01*
X87812269Y-103388815D01*
X87812478Y-103149744D01*
X93780077Y-109117343D01*
X94064597Y-109307452D01*
X94400210Y-109374211D01*
X94400215Y-109374210D01*
X105666095Y-109374210D01*
X106001708Y-109307452D01*
X106286228Y-109117343D01*
X108210441Y-107193129D01*
X108210444Y-107193127D01*
X108361178Y-106967536D01*
X108400553Y-106908608D01*
X108467311Y-106572994D01*
X108467311Y-104266813D01*
X108510729Y-104248873D01*
X108968810Y-103791590D01*
X109217028Y-103193815D01*
X109217593Y-102546554D01*
X108970419Y-101948347D01*
X108513136Y-101490266D01*
X108159948Y-101343610D01*
X108400695Y-101244135D01*
X108858776Y-100786852D01*
X109106994Y-100189077D01*
X109107559Y-99541816D01*
X108860385Y-98943609D01*
X108469652Y-98552194D01*
X108825572Y-98196894D01*
X109073790Y-97599119D01*
X109074355Y-96951858D01*
X108827181Y-96353651D01*
X108369898Y-95895570D01*
X107772123Y-95647352D01*
X107124862Y-95646787D01*
X106526655Y-95893961D01*
X106068574Y-96351244D01*
X105820356Y-96949019D01*
X105819791Y-97596280D01*
X105838739Y-97642138D01*
X101273876Y-102207000D01*
X98083906Y-102207000D01*
X97879307Y-102002043D01*
X97569218Y-101873283D01*
X97805000Y-101873283D01*
X98037352Y-101829563D01*
X98250753Y-101692243D01*
X98393917Y-101482717D01*
X98398315Y-101461000D01*
X100396292Y-101461000D01*
X100731905Y-101394242D01*
X101016425Y-101204133D01*
X104125133Y-98095425D01*
X104315242Y-97810905D01*
X104382000Y-97475292D01*
X104382000Y-97282496D01*
X104425129Y-97264675D01*
X104883067Y-96807536D01*
X105131207Y-96209948D01*
X105131772Y-95562890D01*
X104884675Y-94964871D01*
X104427536Y-94506933D01*
X103829948Y-94258793D01*
X103182890Y-94258228D01*
X102584871Y-94505325D01*
X102126933Y-94962464D01*
X101878793Y-95560052D01*
X101878228Y-96207110D01*
X102125325Y-96805129D01*
X102529758Y-97210268D01*
X100033026Y-99707000D01*
X98401570Y-99707000D01*
X98400563Y-99701648D01*
X98263243Y-99488247D01*
X98053717Y-99345083D01*
X97805000Y-99294717D01*
X96505000Y-99294717D01*
X96272648Y-99338437D01*
X96059247Y-99475757D01*
X95916083Y-99685283D01*
X95865717Y-99934000D01*
X95865717Y-101234000D01*
X95909437Y-101466352D01*
X96046757Y-101679753D01*
X96256283Y-101822917D01*
X96505000Y-101873283D01*
X96741151Y-101873283D01*
X96432583Y-102000781D01*
X96185933Y-102247000D01*
X95104435Y-102247000D01*
X94858816Y-102000951D01*
X94504649Y-101853888D01*
X94856854Y-101708359D01*
X95230049Y-101335816D01*
X95432269Y-100848815D01*
X95432730Y-100321498D01*
X95231359Y-99834146D01*
X94858816Y-99460951D01*
X94371815Y-99258731D01*
X93844498Y-99258270D01*
X93357146Y-99459641D01*
X93109354Y-99707000D01*
X91177447Y-99707000D01*
X90428058Y-98957610D01*
X93687305Y-98957610D01*
X93776037Y-99093710D01*
X94202937Y-99140460D01*
X94437963Y-99093710D01*
X94526695Y-98957610D01*
X94107000Y-98537914D01*
X93687305Y-98957610D01*
X90428058Y-98957610D01*
X89610385Y-98139937D01*
X93010540Y-98139937D01*
X93057290Y-98374963D01*
X93193390Y-98463695D01*
X93613086Y-98044000D01*
X94600914Y-98044000D01*
X95020610Y-98463695D01*
X95156710Y-98374963D01*
X95203460Y-97948063D01*
X95156710Y-97713037D01*
X95020610Y-97624305D01*
X94600914Y-98044000D01*
X93613086Y-98044000D01*
X93193390Y-97624305D01*
X93057290Y-97713037D01*
X93010540Y-98139937D01*
X89610385Y-98139937D01*
X88894315Y-97423867D01*
X88609795Y-97233758D01*
X88274182Y-97167000D01*
X87484435Y-97167000D01*
X87447890Y-97130390D01*
X93687305Y-97130390D01*
X94107000Y-97550086D01*
X94526695Y-97130390D01*
X94437963Y-96994290D01*
X94011063Y-96947540D01*
X93776037Y-96994290D01*
X93687305Y-97130390D01*
X87447890Y-97130390D01*
X87364000Y-97046354D01*
X87364000Y-93554714D01*
X87492352Y-93530563D01*
X87705753Y-93393243D01*
X87848917Y-93183717D01*
X87899283Y-92935000D01*
X87899283Y-91135000D01*
X87855563Y-90902648D01*
X87718243Y-90689247D01*
X87508717Y-90546083D01*
X87260000Y-90495717D01*
X87174170Y-90495717D01*
X87170242Y-90475971D01*
X87165843Y-90469387D01*
X86980133Y-90191451D01*
X86980130Y-90191449D01*
X84901994Y-88113312D01*
X85809190Y-88113312D01*
X85926032Y-88266892D01*
X86430490Y-88339192D01*
X86793968Y-88266892D01*
X86910810Y-88113312D01*
X86360000Y-87562502D01*
X85809190Y-88113312D01*
X84901994Y-88113312D01*
X83894172Y-87105490D01*
X85055808Y-87105490D01*
X85128108Y-87468968D01*
X85281688Y-87585810D01*
X85832498Y-87035000D01*
X86887502Y-87035000D01*
X87438312Y-87585810D01*
X87591892Y-87468968D01*
X87664192Y-86964510D01*
X87591892Y-86601032D01*
X87438312Y-86484190D01*
X86887502Y-87035000D01*
X85832498Y-87035000D01*
X85281688Y-86484190D01*
X85128108Y-86601032D01*
X85055808Y-87105490D01*
X83894172Y-87105490D01*
X83290549Y-86501867D01*
X83006029Y-86311758D01*
X82670416Y-86245000D01*
X79708148Y-86245000D01*
X79393252Y-86034594D01*
X79001594Y-85956688D01*
X85809190Y-85956688D01*
X86360000Y-86507498D01*
X86910810Y-85956688D01*
X86793968Y-85803108D01*
X86289510Y-85730808D01*
X85926032Y-85803108D01*
X85809190Y-85956688D01*
X79001594Y-85956688D01*
X78942834Y-85945000D01*
X77775166Y-85945000D01*
X77324748Y-86034594D01*
X77009852Y-86245000D01*
X76148027Y-86245000D01*
X74397088Y-84494061D01*
X74657067Y-84234536D01*
X74680171Y-84178893D01*
X108673608Y-84178893D01*
X108898613Y-84420939D01*
X109718007Y-84638426D01*
X110558256Y-84525790D01*
X110811387Y-84420939D01*
X111036392Y-84178893D01*
X109855000Y-82997502D01*
X108673608Y-84178893D01*
X74680171Y-84178893D01*
X74905207Y-83636948D01*
X74905772Y-82989890D01*
X74658675Y-82391871D01*
X74599914Y-82333007D01*
X107686574Y-82333007D01*
X107799210Y-83173256D01*
X107904061Y-83426387D01*
X108146107Y-83651392D01*
X109327498Y-82470000D01*
X110382502Y-82470000D01*
X111563893Y-83651392D01*
X111805939Y-83426387D01*
X112023426Y-82606993D01*
X111910790Y-81766744D01*
X111805939Y-81513613D01*
X111563893Y-81288608D01*
X110382502Y-82470000D01*
X109327498Y-82470000D01*
X108146107Y-81288608D01*
X107904061Y-81513613D01*
X107686574Y-82333007D01*
X74599914Y-82333007D01*
X74201536Y-81933933D01*
X73603948Y-81685793D01*
X72956890Y-81685228D01*
X72358871Y-81932325D01*
X71900933Y-82389464D01*
X71652793Y-82987052D01*
X71652228Y-83634110D01*
X71899325Y-84232129D01*
X72356464Y-84690067D01*
X72422107Y-84717324D01*
X72468758Y-84951852D01*
X72658867Y-85236372D01*
X75164628Y-87742133D01*
X75449147Y-87932242D01*
X75784761Y-87999000D01*
X76979565Y-87999000D01*
X77019790Y-88117000D01*
X77186452Y-88117000D01*
X77324748Y-88209406D01*
X77775166Y-88299000D01*
X78942834Y-88299000D01*
X79393252Y-88209406D01*
X79531548Y-88117000D01*
X79698210Y-88117000D01*
X79738435Y-87999000D01*
X82307150Y-87999000D01*
X85002338Y-90694187D01*
X84871083Y-90886283D01*
X84820717Y-91135000D01*
X84820717Y-92935000D01*
X84864437Y-93167352D01*
X85001757Y-93380753D01*
X85211283Y-93523917D01*
X85460000Y-93574283D01*
X85610000Y-93574283D01*
X85610000Y-97046565D01*
X85363951Y-97292184D01*
X85161731Y-97779185D01*
X85161270Y-98306502D01*
X85362641Y-98793854D01*
X85735184Y-99167049D01*
X86089351Y-99314112D01*
X85737146Y-99459641D01*
X85489354Y-99707000D01*
X84367906Y-99707000D01*
X84163307Y-99502043D01*
X83853218Y-99373283D01*
X84089000Y-99373283D01*
X84321352Y-99329563D01*
X84534753Y-99192243D01*
X84677917Y-98982717D01*
X84728283Y-98734000D01*
X84728283Y-97434000D01*
X84684563Y-97201648D01*
X84547243Y-96988247D01*
X84337717Y-96845083D01*
X84089000Y-96794717D01*
X82789000Y-96794717D01*
X82556648Y-96838437D01*
X82343247Y-96975757D01*
X82200083Y-97185283D01*
X82195685Y-97207000D01*
X81509445Y-97207000D01*
X81509772Y-96832890D01*
X81262675Y-96234871D01*
X80805536Y-95776933D01*
X80207948Y-95528793D01*
X79560890Y-95528228D01*
X78962871Y-95775325D01*
X78504933Y-96232464D01*
X78256793Y-96830052D01*
X78256228Y-97477110D01*
X78503325Y-98075129D01*
X78960464Y-98533067D01*
X79558052Y-98781207D01*
X80205110Y-98781772D01*
X80268724Y-98755487D01*
X80308063Y-98781772D01*
X80476386Y-98894242D01*
X80812000Y-98961000D01*
X82192430Y-98961000D01*
X82193437Y-98966352D01*
X82330757Y-99179753D01*
X82540283Y-99322917D01*
X82789000Y-99373283D01*
X83025151Y-99373283D01*
X82716583Y-99500781D01*
X82357043Y-99859693D01*
X82162222Y-100328875D01*
X82161779Y-100836897D01*
X82355781Y-101306417D01*
X82714693Y-101665957D01*
X83183875Y-101860778D01*
X83691897Y-101861221D01*
X84161417Y-101667219D01*
X84367997Y-101461000D01*
X85489565Y-101461000D01*
X85735184Y-101707049D01*
X86089351Y-101854112D01*
X85737146Y-101999641D01*
X85489354Y-102247000D01*
X79611265Y-102247000D01*
X74887311Y-97523046D01*
X74905207Y-97479948D01*
X74905772Y-96832890D01*
X74658675Y-96234871D01*
X74201536Y-95776933D01*
X73603948Y-95528793D01*
X72956890Y-95528228D01*
X72358871Y-95775325D01*
X71900933Y-96232464D01*
X71652793Y-96830052D01*
X71652228Y-97477110D01*
X71899325Y-98075129D01*
X72356464Y-98533067D01*
X72954052Y-98781207D01*
X73601110Y-98781772D01*
X73646678Y-98762944D01*
X78627865Y-103744130D01*
X78627867Y-103744133D01*
X78905178Y-103929425D01*
X78912387Y-103934242D01*
X79248000Y-104001001D01*
X79248005Y-104001000D01*
X79524060Y-104001000D01*
X79262867Y-104262193D01*
X79072758Y-104546713D01*
X79006000Y-104882326D01*
X79006000Y-105917504D01*
X78962871Y-105935325D01*
X78504933Y-106392464D01*
X78256793Y-106990052D01*
X78256228Y-107637110D01*
X78503325Y-108235129D01*
X78960464Y-108693067D01*
X79558052Y-108941207D01*
X80205110Y-108941772D01*
X80803129Y-108694675D01*
X81261067Y-108237536D01*
X81509207Y-107639948D01*
X81509772Y-106992890D01*
X81262675Y-106394871D01*
X80805536Y-105936933D01*
X80760000Y-105918025D01*
X80760000Y-105245592D01*
X82004591Y-104001000D01*
X85489565Y-104001000D01*
X85735184Y-104247049D01*
X86089351Y-104394112D01*
X85737146Y-104539641D01*
X85363951Y-104912184D01*
X85161731Y-105399185D01*
X85161270Y-105926502D01*
X85362641Y-106413854D01*
X85735184Y-106787049D01*
X86222185Y-106989269D01*
X86572507Y-106989575D01*
X88063000Y-108480068D01*
X88063000Y-109561094D01*
X88011003Y-109613000D01*
X77706266Y-109613000D01*
X77204000Y-109110734D01*
X77204000Y-104140000D01*
X77176351Y-104001000D01*
X77137242Y-103804386D01*
X76996541Y-103593812D01*
X76947133Y-103519867D01*
X76947130Y-103519865D01*
X75423133Y-101995867D01*
X75138613Y-101805758D01*
X74803000Y-101739000D01*
X71102266Y-101739000D01*
X68663313Y-99300047D01*
X68663313Y-92088953D01*
X69070266Y-91682000D01*
X71682587Y-91682000D01*
X72225776Y-92225188D01*
X71900933Y-92549464D01*
X71652793Y-93147052D01*
X71652228Y-93794110D01*
X71899325Y-94392129D01*
X72356464Y-94850067D01*
X72954052Y-95098207D01*
X73601110Y-95098772D01*
X74199129Y-94851675D01*
X74657067Y-94394536D01*
X74905207Y-93796948D01*
X74905772Y-93149890D01*
X74658675Y-92551871D01*
X74201536Y-92093933D01*
X74156000Y-92075025D01*
X74156000Y-92038147D01*
X74102276Y-91768058D01*
X74089242Y-91702533D01*
X73942915Y-91483539D01*
X73899133Y-91418014D01*
X73899130Y-91418012D01*
X72665986Y-90184867D01*
X72381466Y-89994758D01*
X72045853Y-89928000D01*
X66440937Y-89928000D01*
X66263202Y-89662000D01*
X76598166Y-89662000D01*
X76687760Y-90112418D01*
X76942901Y-90494265D01*
X77324748Y-90749406D01*
X77775166Y-90839000D01*
X78942834Y-90839000D01*
X79393252Y-90749406D01*
X79775099Y-90494265D01*
X80030240Y-90112418D01*
X80119834Y-89662000D01*
X80030240Y-89211582D01*
X79775099Y-88829735D01*
X79741944Y-88807582D01*
X79744488Y-88802756D01*
X79698210Y-88667000D01*
X79531548Y-88667000D01*
X79393252Y-88574594D01*
X78942834Y-88485000D01*
X77775166Y-88485000D01*
X77324748Y-88574594D01*
X77186452Y-88667000D01*
X77019790Y-88667000D01*
X76973512Y-88802756D01*
X76976056Y-88807582D01*
X76942901Y-88829735D01*
X76687760Y-89211582D01*
X76598166Y-89662000D01*
X66263202Y-89662000D01*
X66258215Y-89654537D01*
X66207303Y-89620519D01*
X66285819Y-89587996D01*
X66392996Y-89480820D01*
X66451000Y-89340786D01*
X66451000Y-88733250D01*
X66355750Y-88638000D01*
X65143000Y-88638000D01*
X65143000Y-88658000D01*
X64397000Y-88658000D01*
X64397000Y-88638000D01*
X63184250Y-88638000D01*
X63089000Y-88733250D01*
X63089000Y-89340786D01*
X63147004Y-89480820D01*
X63254181Y-89587996D01*
X63332697Y-89620519D01*
X63281785Y-89654537D01*
X62929096Y-90182374D01*
X62805248Y-90805000D01*
X60507500Y-90805000D01*
X60507500Y-87189214D01*
X63089000Y-87189214D01*
X63089000Y-87796750D01*
X63184250Y-87892000D01*
X64397000Y-87892000D01*
X64397000Y-86979250D01*
X65143000Y-86979250D01*
X65143000Y-87892000D01*
X66355750Y-87892000D01*
X66451000Y-87796750D01*
X66451000Y-87189214D01*
X66392996Y-87049180D01*
X66285819Y-86942004D01*
X66145785Y-86884000D01*
X65238250Y-86884000D01*
X65143000Y-86979250D01*
X64397000Y-86979250D01*
X64301750Y-86884000D01*
X63394215Y-86884000D01*
X63254181Y-86942004D01*
X63147004Y-87049180D01*
X63089000Y-87189214D01*
X60507500Y-87189214D01*
X60507500Y-80761107D01*
X108673608Y-80761107D01*
X109855000Y-81942498D01*
X111036392Y-80761107D01*
X110811387Y-80519061D01*
X109991993Y-80301574D01*
X109151744Y-80414210D01*
X108898613Y-80519061D01*
X108673608Y-80761107D01*
X60507500Y-80761107D01*
X60507500Y-66651254D01*
X62542415Y-66651254D01*
X62880771Y-67470139D01*
X63506746Y-68097207D01*
X64325039Y-68436992D01*
X65211074Y-68437765D01*
X66029959Y-68099409D01*
X66657027Y-67473434D01*
X66996812Y-66655141D01*
X66997585Y-65769106D01*
X66659229Y-64950221D01*
X66033254Y-64323153D01*
X65214961Y-63983368D01*
X64328926Y-63982595D01*
X63510041Y-64320951D01*
X62882973Y-64946926D01*
X62543188Y-65765219D01*
X62542415Y-66651254D01*
X60507500Y-66651254D01*
X60507500Y-57619900D01*
X62632840Y-57619900D01*
X62794748Y-58433868D01*
X63255824Y-59123916D01*
X63945872Y-59584992D01*
X64478864Y-59691010D01*
X63956032Y-59795008D01*
X63265984Y-60256084D01*
X62804908Y-60946132D01*
X62643000Y-61760100D01*
X62804908Y-62574068D01*
X63265984Y-63264116D01*
X63956032Y-63725192D01*
X64770000Y-63887100D01*
X66103259Y-63887100D01*
X71665175Y-69449016D01*
X72355223Y-69910092D01*
X72668000Y-69972307D01*
X72668000Y-72351074D01*
X72509537Y-72509537D01*
X72156848Y-73037374D01*
X72033000Y-73660000D01*
X72156848Y-74282626D01*
X72509537Y-74810463D01*
X73037374Y-75163152D01*
X73660000Y-75287000D01*
X74282626Y-75163152D01*
X74810463Y-74810463D01*
X75095422Y-74525503D01*
X75754116Y-74525503D01*
X75835324Y-74659802D01*
X76242646Y-74707944D01*
X76484676Y-74659802D01*
X76565884Y-74525503D01*
X76160000Y-74119619D01*
X75754116Y-74525503D01*
X75095422Y-74525503D01*
X75445460Y-74175465D01*
X75445463Y-74175463D01*
X75789883Y-73660000D01*
X76619619Y-73660000D01*
X77025503Y-74065884D01*
X77159802Y-73984676D01*
X77207944Y-73577354D01*
X77159802Y-73335324D01*
X77025503Y-73254116D01*
X76619619Y-73660000D01*
X75789883Y-73660000D01*
X75798152Y-73647626D01*
X75816133Y-73557228D01*
X75843235Y-73420979D01*
X76111917Y-73152298D01*
X76160000Y-73200381D01*
X76565884Y-72794497D01*
X76484676Y-72660198D01*
X76077354Y-72612056D01*
X75922000Y-72642957D01*
X75922000Y-70072000D01*
X80010000Y-70072000D01*
X80823968Y-69910092D01*
X81280000Y-69605381D01*
X81736032Y-69910092D01*
X82550000Y-70072000D01*
X87757000Y-70072000D01*
X88570968Y-69910092D01*
X89261016Y-69449016D01*
X89722092Y-68758968D01*
X89884000Y-67945000D01*
X89722092Y-67131032D01*
X89261016Y-66440984D01*
X88570968Y-65979908D01*
X87757000Y-65818000D01*
X82723926Y-65818000D01*
X82430463Y-65524537D01*
X82355581Y-65474502D01*
X82366356Y-65467356D01*
X82866356Y-64967356D01*
X83000601Y-64767938D01*
X83050000Y-64524000D01*
X83050000Y-63400531D01*
X86261066Y-63400531D01*
X86399902Y-63644245D01*
X86763417Y-63913266D01*
X87202211Y-64022698D01*
X87384000Y-63921905D01*
X87384000Y-63238000D01*
X88130000Y-63238000D01*
X88130000Y-63921905D01*
X88311789Y-64022698D01*
X88750583Y-63913266D01*
X89114098Y-63644245D01*
X89252934Y-63400531D01*
X89222976Y-63238000D01*
X88130000Y-63238000D01*
X87384000Y-63238000D01*
X86291024Y-63238000D01*
X86261066Y-63400531D01*
X83050000Y-63400531D01*
X83050000Y-62329469D01*
X86261066Y-62329469D01*
X86291024Y-62492000D01*
X87384000Y-62492000D01*
X87384000Y-61808095D01*
X88130000Y-61808095D01*
X88130000Y-62492000D01*
X89222976Y-62492000D01*
X89252934Y-62329469D01*
X89114098Y-62085755D01*
X88750583Y-61816734D01*
X88311789Y-61707302D01*
X88130000Y-61808095D01*
X87384000Y-61808095D01*
X87202211Y-61707302D01*
X86763417Y-61816734D01*
X86399902Y-62085755D01*
X86261066Y-62329469D01*
X83050000Y-62329469D01*
X83050000Y-61182000D01*
X90894131Y-61182000D01*
X103686147Y-73974016D01*
X104376195Y-74435092D01*
X105190163Y-74597000D01*
X107602516Y-74597000D01*
X107646757Y-74665753D01*
X107728000Y-74721264D01*
X107728000Y-75299351D01*
X107889908Y-76113319D01*
X108350984Y-76803367D01*
X112647990Y-81100373D01*
X112647990Y-91839466D01*
X111471063Y-93016393D01*
X111009987Y-93706441D01*
X110848079Y-94520409D01*
X110848079Y-105355079D01*
X111009987Y-106169047D01*
X111471063Y-106859095D01*
X112795984Y-108184016D01*
X113486032Y-108645092D01*
X114300000Y-108807000D01*
X120573800Y-108807000D01*
X121314426Y-108659681D01*
X121237447Y-108845068D01*
X121236795Y-109591657D01*
X121289395Y-109718957D01*
X117585352Y-113423000D01*
X75674266Y-113423000D01*
X74156000Y-111904734D01*
X74156000Y-108712496D01*
X74199129Y-108694675D01*
X74657067Y-108237536D01*
X74905207Y-107639948D01*
X74905772Y-106992890D01*
X74658675Y-106394871D01*
X74201536Y-105936933D01*
X73603948Y-105688793D01*
X72956890Y-105688228D01*
X72358871Y-105935325D01*
X71900933Y-106392464D01*
X71652793Y-106990052D01*
X71652228Y-107637110D01*
X71899325Y-108235129D01*
X72356464Y-108693067D01*
X72402000Y-108711975D01*
X72402000Y-112268000D01*
X72468758Y-112603613D01*
X72658867Y-112888133D01*
X74690867Y-114920133D01*
X74975387Y-115110242D01*
X75311000Y-115177001D01*
X75311005Y-115177000D01*
X117948618Y-115177000D01*
X118284231Y-115110242D01*
X118568751Y-114920133D01*
X121523884Y-111965000D01*
X143946857Y-111965000D01*
X143946857Y-115769000D01*
X148915143Y-115769000D01*
X148915143Y-114214492D01*
X152313609Y-114214492D01*
X152674732Y-115088477D01*
X153342826Y-115757738D01*
X154216179Y-116120386D01*
X155161832Y-116121211D01*
X156035817Y-115760088D01*
X156705078Y-115091994D01*
X157067726Y-114218641D01*
X157068551Y-113272988D01*
X156707428Y-112399003D01*
X156039334Y-111729742D01*
X155165981Y-111367094D01*
X154220328Y-111366269D01*
X153346343Y-111727392D01*
X152677082Y-112395486D01*
X152314434Y-113268839D01*
X152313609Y-114214492D01*
X148915143Y-114214492D01*
X148915143Y-111965000D01*
X143946857Y-111965000D01*
X121523884Y-111965000D01*
X122494148Y-110994736D01*
X122738868Y-111096353D01*
X123485457Y-111097005D01*
X124175465Y-110811899D01*
X124703844Y-110284442D01*
X124990153Y-109594932D01*
X124990805Y-108848343D01*
X124705699Y-108158335D01*
X124178242Y-107629956D01*
X123488732Y-107343647D01*
X122742143Y-107342995D01*
X122553411Y-107420978D01*
X122607212Y-107150500D01*
X136993599Y-107150500D01*
X137354529Y-108024019D01*
X138022266Y-108692922D01*
X138895153Y-109055376D01*
X139840300Y-109056201D01*
X140713819Y-108695271D01*
X141382722Y-108027534D01*
X141688451Y-107291254D01*
X152077415Y-107291254D01*
X152415771Y-108110139D01*
X153041746Y-108737207D01*
X153860039Y-109076992D01*
X154746074Y-109077765D01*
X155564959Y-108739409D01*
X156192027Y-108113434D01*
X156531812Y-107295141D01*
X156532585Y-106409106D01*
X156194229Y-105590221D01*
X155568254Y-104963153D01*
X154749961Y-104623368D01*
X153863926Y-104622595D01*
X153045041Y-104960951D01*
X152417973Y-105586926D01*
X152078188Y-106405219D01*
X152077415Y-107291254D01*
X141688451Y-107291254D01*
X141745176Y-107154647D01*
X141746001Y-106209500D01*
X141385071Y-105335981D01*
X140717334Y-104667078D01*
X139844447Y-104304624D01*
X138899300Y-104303799D01*
X138025781Y-104664729D01*
X137356878Y-105332466D01*
X136994424Y-106205353D01*
X136993599Y-107150500D01*
X122607212Y-107150500D01*
X122700800Y-106680000D01*
X122598251Y-106164451D01*
X123113800Y-106267000D01*
X128770593Y-106267000D01*
X129584561Y-106105092D01*
X130274609Y-105644016D01*
X132178312Y-103740313D01*
X153492289Y-103740313D01*
X153654406Y-103930151D01*
X154289454Y-104062654D01*
X154926870Y-103942049D01*
X154955594Y-103930151D01*
X155117711Y-103740313D01*
X154305000Y-102927602D01*
X153492289Y-103740313D01*
X132178312Y-103740313D01*
X133534071Y-102384554D01*
X152642446Y-102384554D01*
X152763051Y-103021970D01*
X152774949Y-103050694D01*
X152964787Y-103212811D01*
X153777498Y-102400100D01*
X154832502Y-102400100D01*
X155645213Y-103212811D01*
X155835051Y-103050694D01*
X155967554Y-102415646D01*
X155846949Y-101778230D01*
X155835051Y-101749506D01*
X155645213Y-101587389D01*
X154832502Y-102400100D01*
X153777498Y-102400100D01*
X152964787Y-101587389D01*
X152774949Y-101749506D01*
X152642446Y-102384554D01*
X133534071Y-102384554D01*
X134564403Y-101354222D01*
X141507844Y-101354222D01*
X142321812Y-101192314D01*
X142520002Y-101059887D01*
X153492289Y-101059887D01*
X154305000Y-101872598D01*
X155117711Y-101059887D01*
X154955594Y-100870049D01*
X154320546Y-100737546D01*
X153683130Y-100858151D01*
X153654406Y-100870049D01*
X153492289Y-101059887D01*
X142520002Y-101059887D01*
X143011860Y-100731238D01*
X150769016Y-92974082D01*
X150900203Y-92777747D01*
X152167840Y-94045384D01*
X152167840Y-98259900D01*
X152329748Y-99073868D01*
X152790824Y-99763916D01*
X153480872Y-100224992D01*
X154294840Y-100386900D01*
X155108808Y-100224992D01*
X155798856Y-99763916D01*
X156259932Y-99073868D01*
X156421840Y-98259900D01*
X156421840Y-93164352D01*
X156259932Y-92350384D01*
X155798856Y-91660336D01*
X151392000Y-87253480D01*
X151392000Y-86803312D01*
X153714190Y-86803312D01*
X153831032Y-86956892D01*
X154335490Y-87029192D01*
X154698968Y-86956892D01*
X154815810Y-86803312D01*
X154265000Y-86252502D01*
X153714190Y-86803312D01*
X151392000Y-86803312D01*
X151392000Y-85795490D01*
X152960808Y-85795490D01*
X153033108Y-86158968D01*
X153186688Y-86275810D01*
X153737498Y-85725000D01*
X154792502Y-85725000D01*
X155343312Y-86275810D01*
X155496892Y-86158968D01*
X155569192Y-85654510D01*
X155496892Y-85291032D01*
X155343312Y-85174190D01*
X154792502Y-85725000D01*
X153737498Y-85725000D01*
X153186688Y-85174190D01*
X153033108Y-85291032D01*
X152960808Y-85795490D01*
X151392000Y-85795490D01*
X151392000Y-85725000D01*
X151230092Y-84911032D01*
X151053463Y-84646688D01*
X153714190Y-84646688D01*
X154265000Y-85197498D01*
X154815810Y-84646688D01*
X154698968Y-84493108D01*
X154194510Y-84420808D01*
X153831032Y-84493108D01*
X153714190Y-84646688D01*
X151053463Y-84646688D01*
X150769016Y-84220984D01*
X150078968Y-83759908D01*
X149265000Y-83598000D01*
X148451032Y-83759908D01*
X147760984Y-84220984D01*
X147299908Y-84911032D01*
X147138000Y-85725000D01*
X147138000Y-86611734D01*
X146742734Y-87007000D01*
X141986496Y-87007000D01*
X141968675Y-86963871D01*
X141511536Y-86505933D01*
X141433334Y-86473461D01*
X141395144Y-86281469D01*
X141370776Y-86245000D01*
X141205035Y-85996949D01*
X141205032Y-85996947D01*
X140998000Y-85789915D01*
X140998000Y-85510906D01*
X141202957Y-85306307D01*
X141329212Y-85002250D01*
X141590000Y-85002250D01*
X141590000Y-85307785D01*
X141648004Y-85447819D01*
X141755180Y-85554996D01*
X141895214Y-85613000D01*
X142200750Y-85613000D01*
X142296000Y-85517750D01*
X142296000Y-84907000D01*
X142946000Y-84907000D01*
X142946000Y-85517750D01*
X143041250Y-85613000D01*
X143346786Y-85613000D01*
X143486820Y-85554996D01*
X143593996Y-85447819D01*
X143652000Y-85307785D01*
X143652000Y-85002250D01*
X143556750Y-84907000D01*
X142946000Y-84907000D01*
X142296000Y-84907000D01*
X141685250Y-84907000D01*
X141590000Y-85002250D01*
X141329212Y-85002250D01*
X141397778Y-84837125D01*
X141398221Y-84329103D01*
X141204219Y-83859583D01*
X141200857Y-83856215D01*
X141590000Y-83856215D01*
X141590000Y-84161750D01*
X141685250Y-84257000D01*
X142296000Y-84257000D01*
X142296000Y-83646250D01*
X142946000Y-83646250D01*
X142946000Y-84257000D01*
X143556750Y-84257000D01*
X143652000Y-84161750D01*
X143652000Y-83856215D01*
X143593996Y-83716181D01*
X143486820Y-83609004D01*
X143346786Y-83551000D01*
X143041250Y-83551000D01*
X142946000Y-83646250D01*
X142296000Y-83646250D01*
X142200750Y-83551000D01*
X141895214Y-83551000D01*
X141755180Y-83609004D01*
X141648004Y-83716181D01*
X141590000Y-83856215D01*
X141200857Y-83856215D01*
X140845307Y-83500043D01*
X140376125Y-83305222D01*
X139868103Y-83304779D01*
X139398583Y-83498781D01*
X139192003Y-83705000D01*
X137667906Y-83705000D01*
X137463307Y-83500043D01*
X136994125Y-83305222D01*
X136486103Y-83304779D01*
X136016583Y-83498781D01*
X135657043Y-83857693D01*
X135528283Y-84167782D01*
X135528283Y-83932000D01*
X135484563Y-83699648D01*
X135347243Y-83486247D01*
X135137717Y-83343083D01*
X134889000Y-83292717D01*
X133589000Y-83292717D01*
X133356648Y-83336437D01*
X133143247Y-83473757D01*
X133000083Y-83683283D01*
X132995685Y-83705000D01*
X131776626Y-83705000D01*
X131776621Y-83704999D01*
X131441008Y-83771758D01*
X131306000Y-83861967D01*
X131306000Y-82677496D01*
X131349129Y-82659675D01*
X131575795Y-82433404D01*
X139963098Y-82433404D01*
X140093014Y-82597252D01*
X140634859Y-82686788D01*
X141084986Y-82597252D01*
X141214902Y-82433404D01*
X140589000Y-81807502D01*
X139963098Y-82433404D01*
X131575795Y-82433404D01*
X131807067Y-82202536D01*
X132055207Y-81604948D01*
X132055450Y-81325859D01*
X139182212Y-81325859D01*
X139271748Y-81775986D01*
X139435596Y-81905902D01*
X140061498Y-81280000D01*
X141116502Y-81280000D01*
X141742404Y-81905902D01*
X141906252Y-81775986D01*
X141995788Y-81234141D01*
X141906252Y-80784014D01*
X141742404Y-80654098D01*
X141116502Y-81280000D01*
X140061498Y-81280000D01*
X139435596Y-80654098D01*
X139271748Y-80784014D01*
X139182212Y-81325859D01*
X132055450Y-81325859D01*
X132055772Y-80957890D01*
X131808675Y-80359871D01*
X131575808Y-80126596D01*
X139963098Y-80126596D01*
X140589000Y-80752498D01*
X141214902Y-80126596D01*
X141084986Y-79962748D01*
X140543141Y-79873212D01*
X140093014Y-79962748D01*
X139963098Y-80126596D01*
X131575808Y-80126596D01*
X131351536Y-79901933D01*
X130753948Y-79653793D01*
X130106890Y-79653228D01*
X129508871Y-79900325D01*
X129050933Y-80357464D01*
X128802793Y-80955052D01*
X128802228Y-81602110D01*
X129049325Y-82200129D01*
X129506464Y-82658067D01*
X129552000Y-82676975D01*
X129552000Y-86486504D01*
X129508871Y-86504325D01*
X129050933Y-86961464D01*
X128802793Y-87559052D01*
X128802228Y-88206110D01*
X129049325Y-88804129D01*
X129506464Y-89262067D01*
X129552000Y-89280975D01*
X129552000Y-91463145D01*
X119718218Y-101296926D01*
X119674832Y-101278911D01*
X119027571Y-101278346D01*
X118429364Y-101525520D01*
X117971283Y-101982803D01*
X117723065Y-102580578D01*
X117722500Y-103227839D01*
X117969674Y-103826046D01*
X118426957Y-104284127D01*
X119024732Y-104532345D01*
X119671993Y-104532910D01*
X120270200Y-104285736D01*
X120728281Y-103828453D01*
X120976499Y-103230678D01*
X120977064Y-102583417D01*
X120958116Y-102537560D01*
X131049130Y-92446545D01*
X131049133Y-92446543D01*
X131239242Y-92162023D01*
X131280330Y-91955463D01*
X131306001Y-91826410D01*
X131306000Y-91826405D01*
X131306000Y-89281496D01*
X131349129Y-89263675D01*
X131807067Y-88806536D01*
X132055207Y-88208948D01*
X132055772Y-87561890D01*
X131808675Y-86963871D01*
X131351536Y-86505933D01*
X131306000Y-86487025D01*
X131306000Y-86292887D01*
X132139887Y-85459000D01*
X132992430Y-85459000D01*
X132993437Y-85464352D01*
X133130757Y-85677753D01*
X133340283Y-85820917D01*
X133589000Y-85871283D01*
X134889000Y-85871283D01*
X135121352Y-85827563D01*
X135334753Y-85690243D01*
X135477917Y-85480717D01*
X135528283Y-85232000D01*
X135528283Y-84995849D01*
X135655781Y-85304417D01*
X136014693Y-85663957D01*
X136483875Y-85858778D01*
X136991897Y-85859221D01*
X137461417Y-85665219D01*
X137667997Y-85459000D01*
X139192094Y-85459000D01*
X139244000Y-85510997D01*
X139244000Y-86153180D01*
X139310758Y-86488793D01*
X139460273Y-86712559D01*
X139210933Y-86961464D01*
X138962793Y-87559052D01*
X138962228Y-88206110D01*
X139209325Y-88804129D01*
X139666464Y-89262067D01*
X140264052Y-89510207D01*
X140911110Y-89510772D01*
X141509129Y-89263675D01*
X141967067Y-88806536D01*
X141985975Y-88761000D01*
X147106000Y-88761000D01*
X147138000Y-88754635D01*
X147138000Y-90589034D01*
X140626812Y-97100222D01*
X133683371Y-97100222D01*
X132869403Y-97262130D01*
X132179355Y-97723206D01*
X127889561Y-102013000D01*
X123113800Y-102013000D01*
X122299832Y-102174908D01*
X121609784Y-102635984D01*
X121148708Y-103326032D01*
X120986800Y-104140000D01*
X121089349Y-104655549D01*
X120573800Y-104553000D01*
X115181032Y-104553000D01*
X115102079Y-104474047D01*
X115102079Y-100153035D01*
X115880773Y-100153035D01*
X116127947Y-100751242D01*
X116585230Y-101209323D01*
X117183005Y-101457541D01*
X117830266Y-101458106D01*
X118428473Y-101210932D01*
X118886554Y-100753649D01*
X119134772Y-100155874D01*
X119135337Y-99508613D01*
X118888163Y-98910406D01*
X118430880Y-98452325D01*
X118385055Y-98433297D01*
X118385055Y-95575681D01*
X121236928Y-92723807D01*
X121236931Y-92723805D01*
X121427040Y-92439285D01*
X121444724Y-92350384D01*
X121493799Y-92103672D01*
X121493798Y-92103667D01*
X121493798Y-73421468D01*
X129806955Y-65108311D01*
X129850052Y-65126207D01*
X130497110Y-65126772D01*
X131095129Y-64879675D01*
X131553067Y-64422536D01*
X131801207Y-63824948D01*
X131801772Y-63177890D01*
X131554675Y-62579871D01*
X131097536Y-62121933D01*
X130499948Y-61873793D01*
X129852890Y-61873228D01*
X129254871Y-62120325D01*
X128796933Y-62577464D01*
X128548793Y-63175052D01*
X128548228Y-63822110D01*
X128567056Y-63867678D01*
X119996665Y-72438069D01*
X119806556Y-72722589D01*
X119739798Y-73058202D01*
X119739798Y-91740407D01*
X116887922Y-94592282D01*
X116697813Y-94876802D01*
X116631055Y-95212415D01*
X116631055Y-98432776D01*
X116587637Y-98450716D01*
X116129556Y-98907999D01*
X115881338Y-99505774D01*
X115880773Y-100153035D01*
X115102079Y-100153035D01*
X115102079Y-95401441D01*
X116279006Y-94224514D01*
X116367460Y-94092133D01*
X116740082Y-93534466D01*
X116901990Y-92720498D01*
X116901990Y-80219341D01*
X116740082Y-79405373D01*
X116279006Y-78715325D01*
X112128353Y-74564672D01*
X112193917Y-74468717D01*
X112244283Y-74220000D01*
X112244283Y-70720000D01*
X112200563Y-70487648D01*
X112063243Y-70274247D01*
X111982000Y-70218736D01*
X111982000Y-55237032D01*
X115562032Y-51657000D01*
X120573800Y-51657000D01*
X121314426Y-51509681D01*
X121237447Y-51695068D01*
X121236795Y-52441657D01*
X121521901Y-53131665D01*
X122049358Y-53660044D01*
X122738868Y-53946353D01*
X123485457Y-53947005D01*
X124175465Y-53661899D01*
X124703844Y-53134442D01*
X124781677Y-52947000D01*
X125962587Y-52947000D01*
X137135720Y-64120133D01*
X137420240Y-64310242D01*
X137755853Y-64377000D01*
X138937504Y-64377000D01*
X138955325Y-64420129D01*
X139412464Y-64878067D01*
X140010052Y-65126207D01*
X140657110Y-65126772D01*
X141255129Y-64879675D01*
X141713067Y-64422536D01*
X141961207Y-63824948D01*
X141961772Y-63177890D01*
X141714675Y-62579871D01*
X141257536Y-62121933D01*
X140659948Y-61873793D01*
X140012890Y-61873228D01*
X139414871Y-62120325D01*
X138956933Y-62577464D01*
X138938025Y-62623000D01*
X138119119Y-62623000D01*
X126945986Y-51449867D01*
X126661466Y-51259758D01*
X126325853Y-51193000D01*
X124782001Y-51193000D01*
X124705699Y-51008335D01*
X124178242Y-50479956D01*
X123488732Y-50193647D01*
X122742143Y-50192995D01*
X122553411Y-50270978D01*
X122700800Y-49530000D01*
X122598251Y-49014451D01*
X123113800Y-49117000D01*
X127388968Y-49117000D01*
X137726084Y-59454116D01*
X138416132Y-59915192D01*
X139230100Y-60077100D01*
X142794068Y-60077100D01*
X147057480Y-64340512D01*
X147057480Y-67449000D01*
X141986496Y-67449000D01*
X141968675Y-67405871D01*
X141511536Y-66947933D01*
X140913948Y-66699793D01*
X140266890Y-66699228D01*
X139668871Y-66946325D01*
X139210933Y-67403464D01*
X138962793Y-68001052D01*
X138962228Y-68648110D01*
X139209325Y-69246129D01*
X139541785Y-69579170D01*
X139500867Y-69620088D01*
X139310758Y-69904608D01*
X139244000Y-70240221D01*
X139244000Y-70699094D01*
X139192003Y-70751000D01*
X137667906Y-70751000D01*
X137463307Y-70546043D01*
X136994125Y-70351222D01*
X136486103Y-70350779D01*
X136016583Y-70544781D01*
X135657043Y-70903693D01*
X135528283Y-71213782D01*
X135528283Y-70978000D01*
X135484563Y-70745648D01*
X135347243Y-70532247D01*
X135137717Y-70389083D01*
X134889000Y-70338717D01*
X133589000Y-70338717D01*
X133356648Y-70382437D01*
X133143247Y-70519757D01*
X133000083Y-70729283D01*
X132995685Y-70751000D01*
X131449882Y-70751000D01*
X131306000Y-70779620D01*
X131306000Y-69723496D01*
X131349129Y-69705675D01*
X131807067Y-69248536D01*
X132055207Y-68650948D01*
X132055772Y-68003890D01*
X131808675Y-67405871D01*
X131351536Y-66947933D01*
X130753948Y-66699793D01*
X130106890Y-66699228D01*
X129508871Y-66946325D01*
X129050933Y-67403464D01*
X128802793Y-68001052D01*
X128802228Y-68648110D01*
X129049325Y-69246129D01*
X129506464Y-69704067D01*
X129552000Y-69722975D01*
X129552000Y-73888050D01*
X129177933Y-74261464D01*
X128929793Y-74859052D01*
X128929228Y-75506110D01*
X128948057Y-75551678D01*
X122643289Y-81856445D01*
X122453180Y-82140965D01*
X122386422Y-82476578D01*
X122386422Y-94348603D01*
X120956144Y-95778880D01*
X120912758Y-95760865D01*
X120265497Y-95760300D01*
X119667290Y-96007474D01*
X119209209Y-96464757D01*
X118960991Y-97062532D01*
X118960426Y-97709793D01*
X119207600Y-98308000D01*
X119664883Y-98766081D01*
X120262658Y-99014299D01*
X120909919Y-99014864D01*
X121508126Y-98767690D01*
X121966207Y-98310407D01*
X122214425Y-97712632D01*
X122214990Y-97065371D01*
X122196042Y-97019514D01*
X123883552Y-95332003D01*
X123883555Y-95332001D01*
X123997517Y-95161444D01*
X124073664Y-95047482D01*
X124140422Y-94711868D01*
X124140422Y-82839844D01*
X130187954Y-76792311D01*
X130231052Y-76810207D01*
X130878110Y-76810772D01*
X131476129Y-76563675D01*
X131702795Y-76337404D01*
X140090098Y-76337404D01*
X140220014Y-76501252D01*
X140761859Y-76590788D01*
X141211986Y-76501252D01*
X141341902Y-76337404D01*
X140716000Y-75711502D01*
X140090098Y-76337404D01*
X131702795Y-76337404D01*
X131934067Y-76106536D01*
X132182207Y-75508948D01*
X132182450Y-75229859D01*
X139309212Y-75229859D01*
X139398748Y-75679986D01*
X139562596Y-75809902D01*
X140188498Y-75184000D01*
X141243502Y-75184000D01*
X141869404Y-75809902D01*
X142033252Y-75679986D01*
X142122788Y-75138141D01*
X142033252Y-74688014D01*
X141869404Y-74558098D01*
X141243502Y-75184000D01*
X140188498Y-75184000D01*
X139562596Y-74558098D01*
X139398748Y-74688014D01*
X139309212Y-75229859D01*
X132182450Y-75229859D01*
X132182772Y-74861890D01*
X131935675Y-74263871D01*
X131702808Y-74030596D01*
X140090098Y-74030596D01*
X140716000Y-74656498D01*
X141341902Y-74030596D01*
X141211986Y-73866748D01*
X140670141Y-73777212D01*
X140220014Y-73866748D01*
X140090098Y-74030596D01*
X131702808Y-74030596D01*
X131478536Y-73805933D01*
X131433000Y-73787025D01*
X131433000Y-72885148D01*
X131813148Y-72505000D01*
X132992430Y-72505000D01*
X132993437Y-72510352D01*
X133130757Y-72723753D01*
X133340283Y-72866917D01*
X133589000Y-72917283D01*
X134889000Y-72917283D01*
X135121352Y-72873563D01*
X135334753Y-72736243D01*
X135477917Y-72526717D01*
X135528283Y-72278000D01*
X135528283Y-72041849D01*
X135655781Y-72350417D01*
X136014693Y-72709957D01*
X136483875Y-72904778D01*
X136991897Y-72905221D01*
X137461417Y-72711219D01*
X137667997Y-72505000D01*
X139192094Y-72505000D01*
X139396693Y-72709957D01*
X139865875Y-72904778D01*
X140373897Y-72905221D01*
X140843417Y-72711219D01*
X141202957Y-72352307D01*
X141329212Y-72048250D01*
X141590000Y-72048250D01*
X141590000Y-72353785D01*
X141648004Y-72493819D01*
X141755180Y-72600996D01*
X141895214Y-72659000D01*
X142200750Y-72659000D01*
X142296000Y-72563750D01*
X142296000Y-71953000D01*
X142946000Y-71953000D01*
X142946000Y-72563750D01*
X143041250Y-72659000D01*
X143346786Y-72659000D01*
X143486820Y-72600996D01*
X143593996Y-72493819D01*
X143652000Y-72353785D01*
X143652000Y-72048250D01*
X143556750Y-71953000D01*
X142946000Y-71953000D01*
X142296000Y-71953000D01*
X141685250Y-71953000D01*
X141590000Y-72048250D01*
X141329212Y-72048250D01*
X141397778Y-71883125D01*
X141398221Y-71375103D01*
X141204219Y-70905583D01*
X141200857Y-70902215D01*
X141590000Y-70902215D01*
X141590000Y-71207750D01*
X141685250Y-71303000D01*
X142296000Y-71303000D01*
X142296000Y-70692250D01*
X142946000Y-70692250D01*
X142946000Y-71303000D01*
X143556750Y-71303000D01*
X143652000Y-71207750D01*
X143652000Y-70902215D01*
X143593996Y-70762181D01*
X143486820Y-70655004D01*
X143346786Y-70597000D01*
X143041250Y-70597000D01*
X142946000Y-70692250D01*
X142296000Y-70692250D01*
X142200750Y-70597000D01*
X141895214Y-70597000D01*
X141755180Y-70655004D01*
X141648004Y-70762181D01*
X141590000Y-70902215D01*
X141200857Y-70902215D01*
X140998000Y-70699003D01*
X140998000Y-70603486D01*
X141205546Y-70395940D01*
X141205549Y-70395938D01*
X141319511Y-70225381D01*
X141395658Y-70111419D01*
X141462416Y-69775805D01*
X141462416Y-69724976D01*
X141509129Y-69705675D01*
X141967067Y-69248536D01*
X141985975Y-69203000D01*
X146742734Y-69203000D01*
X147057480Y-69517746D01*
X147057480Y-70404480D01*
X147219388Y-71218448D01*
X147680464Y-71908496D01*
X148370512Y-72369572D01*
X149184480Y-72531480D01*
X149998448Y-72369572D01*
X150688496Y-71908496D01*
X150919140Y-71563312D01*
X153714190Y-71563312D01*
X153831032Y-71716892D01*
X154335490Y-71789192D01*
X154698968Y-71716892D01*
X154815810Y-71563312D01*
X154265000Y-71012502D01*
X153714190Y-71563312D01*
X150919140Y-71563312D01*
X151149572Y-71218448D01*
X151281442Y-70555490D01*
X152960808Y-70555490D01*
X153033108Y-70918968D01*
X153186688Y-71035810D01*
X153737498Y-70485000D01*
X154792502Y-70485000D01*
X155343312Y-71035810D01*
X155496892Y-70918968D01*
X155569192Y-70414510D01*
X155496892Y-70051032D01*
X155343312Y-69934190D01*
X154792502Y-70485000D01*
X153737498Y-70485000D01*
X153186688Y-69934190D01*
X153033108Y-70051032D01*
X152960808Y-70555490D01*
X151281442Y-70555490D01*
X151311480Y-70404480D01*
X151311480Y-69406688D01*
X153714190Y-69406688D01*
X154265000Y-69957498D01*
X154815810Y-69406688D01*
X154698968Y-69253108D01*
X154194510Y-69180808D01*
X153831032Y-69253108D01*
X153714190Y-69406688D01*
X151311480Y-69406688D01*
X151311480Y-68191032D01*
X155819176Y-63683336D01*
X156280252Y-62993288D01*
X156442160Y-62179320D01*
X156442160Y-57950100D01*
X156280252Y-57136132D01*
X155819176Y-56446084D01*
X155129128Y-55985008D01*
X154315160Y-55823100D01*
X153501192Y-55985008D01*
X152811144Y-56446084D01*
X152350068Y-57136132D01*
X152188160Y-57950100D01*
X152188160Y-61298288D01*
X151025950Y-62460498D01*
X150688496Y-61955464D01*
X145179116Y-56446084D01*
X144489068Y-55985008D01*
X143675100Y-55823100D01*
X140111132Y-55823100D01*
X139438145Y-55150113D01*
X153492289Y-55150113D01*
X153654406Y-55339951D01*
X154289454Y-55472454D01*
X154926870Y-55351849D01*
X154955594Y-55339951D01*
X155117711Y-55150113D01*
X154305000Y-54337402D01*
X153492289Y-55150113D01*
X139438145Y-55150113D01*
X138082386Y-53794354D01*
X152642446Y-53794354D01*
X152763051Y-54431770D01*
X152774949Y-54460494D01*
X152964787Y-54622611D01*
X153777498Y-53809900D01*
X154832502Y-53809900D01*
X155645213Y-54622611D01*
X155835051Y-54460494D01*
X155967554Y-53825446D01*
X155846949Y-53188030D01*
X155835051Y-53159306D01*
X155645213Y-52997189D01*
X154832502Y-53809900D01*
X153777498Y-53809900D01*
X152964787Y-52997189D01*
X152774949Y-53159306D01*
X152642446Y-53794354D01*
X138082386Y-53794354D01*
X136757719Y-52469687D01*
X153492289Y-52469687D01*
X154305000Y-53282398D01*
X155117711Y-52469687D01*
X154955594Y-52279849D01*
X154320546Y-52147346D01*
X153683130Y-52267951D01*
X153654406Y-52279849D01*
X153492289Y-52469687D01*
X136757719Y-52469687D01*
X134288532Y-50000500D01*
X136993599Y-50000500D01*
X137354529Y-50874019D01*
X138022266Y-51542922D01*
X138895153Y-51905376D01*
X139840300Y-51906201D01*
X140713819Y-51545271D01*
X141382722Y-50877534D01*
X141745176Y-50004647D01*
X141745353Y-49800894D01*
X152077415Y-49800894D01*
X152415771Y-50619779D01*
X153041746Y-51246847D01*
X153860039Y-51586632D01*
X154746074Y-51587405D01*
X155564959Y-51249049D01*
X156192027Y-50623074D01*
X156531812Y-49804781D01*
X156532585Y-48918746D01*
X156194229Y-48099861D01*
X155568254Y-47472793D01*
X154749961Y-47133008D01*
X153863926Y-47132235D01*
X153045041Y-47470591D01*
X152417973Y-48096566D01*
X152078188Y-48914859D01*
X152077415Y-49800894D01*
X141745353Y-49800894D01*
X141746001Y-49059500D01*
X141385071Y-48185981D01*
X140717334Y-47517078D01*
X139844447Y-47154624D01*
X138899300Y-47153799D01*
X138025781Y-47514729D01*
X137356878Y-48182466D01*
X136994424Y-49055353D01*
X136993599Y-50000500D01*
X134288532Y-50000500D01*
X129774016Y-45485984D01*
X129083968Y-45024908D01*
X128270000Y-44863000D01*
X123113800Y-44863000D01*
X122299832Y-45024908D01*
X121609784Y-45485984D01*
X121148708Y-46176032D01*
X120986800Y-46990000D01*
X121089349Y-47505549D01*
X120573800Y-47403000D01*
X114681000Y-47403000D01*
X113867032Y-47564908D01*
X113509254Y-47803968D01*
X113176984Y-48025984D01*
X108350984Y-52851984D01*
X107889908Y-53542032D01*
X107728000Y-54356000D01*
X107728000Y-70217516D01*
X107659247Y-70261757D01*
X107603736Y-70343000D01*
X106071195Y-70343000D01*
X93279179Y-57550984D01*
X92589131Y-57089908D01*
X91775163Y-56928000D01*
X83050000Y-56928000D01*
X83050000Y-55399531D01*
X84991066Y-55399531D01*
X85129902Y-55643245D01*
X85493417Y-55912266D01*
X85932211Y-56021698D01*
X86114000Y-55920905D01*
X86114000Y-55237000D01*
X86860000Y-55237000D01*
X86860000Y-55920905D01*
X87041789Y-56021698D01*
X87480583Y-55912266D01*
X87844098Y-55643245D01*
X87982934Y-55399531D01*
X87952976Y-55237000D01*
X86860000Y-55237000D01*
X86114000Y-55237000D01*
X85021024Y-55237000D01*
X84991066Y-55399531D01*
X83050000Y-55399531D01*
X83050000Y-54328469D01*
X84991066Y-54328469D01*
X85021024Y-54491000D01*
X86114000Y-54491000D01*
X86114000Y-53807095D01*
X86860000Y-53807095D01*
X86860000Y-54491000D01*
X87952976Y-54491000D01*
X87982934Y-54328469D01*
X87844098Y-54084755D01*
X87480583Y-53815734D01*
X87041789Y-53706302D01*
X86860000Y-53807095D01*
X86114000Y-53807095D01*
X85932211Y-53706302D01*
X85493417Y-53815734D01*
X85129902Y-54084755D01*
X84991066Y-54328469D01*
X83050000Y-54328469D01*
X83050000Y-52824000D01*
X83003916Y-52588065D01*
X82866356Y-52380644D01*
X82453319Y-51967607D01*
X82509926Y-51911000D01*
X86487000Y-51911000D01*
X87300968Y-51749092D01*
X87991016Y-51288016D01*
X88452092Y-50597968D01*
X88614000Y-49784000D01*
X88452092Y-48970032D01*
X87991016Y-48279984D01*
X87300968Y-47818908D01*
X86487000Y-47657000D01*
X82336000Y-47657000D01*
X81522032Y-47818908D01*
X81280000Y-47980629D01*
X81037968Y-47818908D01*
X80224000Y-47657000D01*
X75738926Y-47657000D01*
X75454000Y-47372074D01*
X75454000Y-45923816D01*
X75461180Y-45930996D01*
X75601214Y-45989000D01*
X75906750Y-45989000D01*
X76002000Y-45893750D01*
X76002000Y-45283000D01*
X76652000Y-45283000D01*
X76652000Y-45893750D01*
X76747250Y-45989000D01*
X77052786Y-45989000D01*
X77192820Y-45930996D01*
X77299996Y-45823819D01*
X77358000Y-45683785D01*
X77358000Y-45378250D01*
X77262750Y-45283000D01*
X76652000Y-45283000D01*
X76002000Y-45283000D01*
X75934000Y-45283000D01*
X75934000Y-44633000D01*
X76002000Y-44633000D01*
X76002000Y-44022250D01*
X76652000Y-44022250D01*
X76652000Y-44633000D01*
X77262750Y-44633000D01*
X77358000Y-44537750D01*
X77358000Y-44232215D01*
X77299996Y-44092181D01*
X77192820Y-43985004D01*
X77052786Y-43927000D01*
X76747250Y-43927000D01*
X76652000Y-44022250D01*
X76002000Y-44022250D01*
X75906750Y-43927000D01*
X75601214Y-43927000D01*
X75461180Y-43985004D01*
X75354004Y-44092181D01*
X75296000Y-44232215D01*
X75296000Y-44284262D01*
X74977463Y-43807537D01*
X74449626Y-43454848D01*
X73827000Y-43331000D01*
X73204374Y-43454848D01*
X72676537Y-43807537D01*
X72323848Y-44335374D01*
X72200000Y-44958000D01*
X72200000Y-48046000D01*
X72323848Y-48668626D01*
X72443117Y-48847125D01*
X65797342Y-55492900D01*
X64759840Y-55492900D01*
X63945872Y-55654808D01*
X63255824Y-56115884D01*
X62794748Y-56805932D01*
X62632840Y-57619900D01*
X60507500Y-57619900D01*
X60507500Y-44214632D01*
X62313789Y-44214632D01*
X62674912Y-45088617D01*
X63343006Y-45757878D01*
X64216359Y-46120526D01*
X65162012Y-46121351D01*
X66035997Y-45760228D01*
X66705258Y-45092134D01*
X67067906Y-44218781D01*
X67068731Y-43273128D01*
X66707608Y-42399143D01*
X66039514Y-41729882D01*
X65166161Y-41367234D01*
X64220508Y-41366409D01*
X63346523Y-41727532D01*
X62677262Y-42395626D01*
X62314614Y-43268979D01*
X62313789Y-44214632D01*
X60507500Y-44214632D01*
X60507500Y-40078000D01*
X92909143Y-40078000D01*
X92909143Y-46432000D01*
X104448857Y-46432000D01*
X104448857Y-44214632D01*
X152313609Y-44214632D01*
X152674732Y-45088617D01*
X153342826Y-45757878D01*
X154216179Y-46120526D01*
X155161832Y-46121351D01*
X156035817Y-45760228D01*
X156705078Y-45092134D01*
X157067726Y-44218781D01*
X157068551Y-43273128D01*
X156707428Y-42399143D01*
X156039334Y-41729882D01*
X155165981Y-41367234D01*
X154220328Y-41366409D01*
X153346343Y-41727532D01*
X152677082Y-42395626D01*
X152314434Y-43268979D01*
X152313609Y-44214632D01*
X104448857Y-44214632D01*
X104448857Y-40078000D01*
X92909143Y-40078000D01*
X60507500Y-40078000D01*
X60507500Y-39562660D01*
X158872300Y-39562660D01*
X158872300Y-117927500D01*
G36*
X81280000Y-52467001D02*
X81360442Y-52451000D01*
X81870394Y-52451000D01*
X82296000Y-52876606D01*
X82296000Y-64471394D01*
X81870394Y-64897000D01*
X78911606Y-64897000D01*
X78476705Y-64462099D01*
X78475994Y-64458590D01*
X78448803Y-64418197D01*
X77948803Y-63918197D01*
X77906789Y-63890334D01*
X77859000Y-63881000D01*
X72815606Y-63881000D01*
X72390000Y-63455394D01*
X72390000Y-61512606D01*
X72815606Y-61087000D01*
X73287000Y-61087000D01*
X73336410Y-61076994D01*
X73376803Y-61049803D01*
X73876803Y-60549803D01*
X73904666Y-60507789D01*
X73914000Y-60460000D01*
X73914000Y-54400606D01*
X74339606Y-53975000D01*
X77859000Y-53975000D01*
X77908410Y-53964994D01*
X77948803Y-53937803D01*
X78448803Y-53437803D01*
X78476666Y-53395789D01*
X78486000Y-53348000D01*
X78486000Y-52876606D01*
X78911606Y-52451000D01*
X81199558Y-52451000D01*
X81280000Y-52467001D01*
X81280000Y-52467001D01*
G37*
X81280000Y-52467001D02*
X81360442Y-52451000D01*
X81870394Y-52451000D01*
X82296000Y-52876606D01*
X82296000Y-64471394D01*
X81870394Y-64897000D01*
X78911606Y-64897000D01*
X78476705Y-64462099D01*
X78475994Y-64458590D01*
X78448803Y-64418197D01*
X77948803Y-63918197D01*
X77906789Y-63890334D01*
X77859000Y-63881000D01*
X72815606Y-63881000D01*
X72390000Y-63455394D01*
X72390000Y-61512606D01*
X72815606Y-61087000D01*
X73287000Y-61087000D01*
X73336410Y-61076994D01*
X73376803Y-61049803D01*
X73876803Y-60549803D01*
X73904666Y-60507789D01*
X73914000Y-60460000D01*
X73914000Y-54400606D01*
X74339606Y-53975000D01*
X77859000Y-53975000D01*
X77908410Y-53964994D01*
X77948803Y-53937803D01*
X78448803Y-53437803D01*
X78476666Y-53395789D01*
X78486000Y-53348000D01*
X78486000Y-52876606D01*
X78911606Y-52451000D01*
X81199558Y-52451000D01*
X81280000Y-52467001D01*
M02*
