G04 #@! TF.GenerationSoftware,KiCad,Pcbnew,8.0.5*
G04 #@! TF.CreationDate,2024-11-20T22:58:00+01:00*
G04 #@! TF.ProjectId,Anoden_Stabi,416e6f64-656e-45f5-9374-6162692e6b69,rev?*
G04 #@! TF.SameCoordinates,Original*
G04 #@! TF.FileFunction,Copper,L2,Bot*
G04 #@! TF.FilePolarity,Positive*
%FSLAX46Y46*%
G04 Gerber Fmt 4.6, Leading zero omitted, Abs format (unit mm)*
G04 Created by KiCad (PCBNEW 8.0.5) date 2024-11-20 22:58:00*
%MOMM*%
%LPD*%
G01*
G04 APERTURE LIST*
G04 Aperture macros list*
%AMRoundRect*
0 Rectangle with rounded corners*
0 $1 Rounding radius*
0 $2 $3 $4 $5 $6 $7 $8 $9 X,Y pos of 4 corners*
0 Add a 4 corners polygon primitive as box body*
4,1,4,$2,$3,$4,$5,$6,$7,$8,$9,$2,$3,0*
0 Add four circle primitives for the rounded corners*
1,1,$1+$1,$2,$3*
1,1,$1+$1,$4,$5*
1,1,$1+$1,$6,$7*
1,1,$1+$1,$8,$9*
0 Add four rect primitives between the rounded corners*
20,1,$1+$1,$2,$3,$4,$5,0*
20,1,$1+$1,$4,$5,$6,$7,0*
20,1,$1+$1,$6,$7,$8,$9,0*
20,1,$1+$1,$8,$9,$2,$3,0*%
G04 Aperture macros list end*
%ADD10C,0.300000*%
G04 #@! TA.AperFunction,NonConductor*
%ADD11C,0.300000*%
G04 #@! TD*
G04 #@! TA.AperFunction,ComponentPad*
%ADD12C,2.400000*%
G04 #@! TD*
G04 #@! TA.AperFunction,ComponentPad*
%ADD13O,2.400000X2.400000*%
G04 #@! TD*
G04 #@! TA.AperFunction,ComponentPad*
%ADD14R,4.000000X4.000000*%
G04 #@! TD*
G04 #@! TA.AperFunction,ComponentPad*
%ADD15C,4.000000*%
G04 #@! TD*
G04 #@! TA.AperFunction,ComponentPad*
%ADD16R,2.200000X2.200000*%
G04 #@! TD*
G04 #@! TA.AperFunction,ComponentPad*
%ADD17O,2.200000X2.200000*%
G04 #@! TD*
G04 #@! TA.AperFunction,ComponentPad*
%ADD18R,4.500000X2.500000*%
G04 #@! TD*
G04 #@! TA.AperFunction,ComponentPad*
%ADD19O,4.500000X2.500000*%
G04 #@! TD*
G04 #@! TA.AperFunction,ComponentPad*
%ADD20C,1.600000*%
G04 #@! TD*
G04 #@! TA.AperFunction,ComponentPad*
%ADD21O,1.600000X1.600000*%
G04 #@! TD*
G04 #@! TA.AperFunction,ComponentPad*
%ADD22R,2.400000X2.400000*%
G04 #@! TD*
G04 #@! TA.AperFunction,ComponentPad*
%ADD23RoundRect,0.250001X1.399999X-1.099999X1.399999X1.099999X-1.399999X1.099999X-1.399999X-1.099999X0*%
G04 #@! TD*
G04 #@! TA.AperFunction,ComponentPad*
%ADD24O,3.300000X2.700000*%
G04 #@! TD*
G04 #@! TA.AperFunction,ComponentPad*
%ADD25RoundRect,0.250001X-1.399999X1.099999X-1.399999X-1.099999X1.399999X-1.099999X1.399999X1.099999X0*%
G04 #@! TD*
G04 #@! TA.AperFunction,ViaPad*
%ADD26C,1.200000*%
G04 #@! TD*
G04 #@! TA.AperFunction,Conductor*
%ADD27C,2.000000*%
G04 #@! TD*
G04 APERTURE END LIST*
D10*
D11*
X87924285Y-54504129D02*
X87924285Y-56004129D01*
X87924285Y-56004129D02*
X88281428Y-56004129D01*
X88281428Y-56004129D02*
X88495714Y-55932700D01*
X88495714Y-55932700D02*
X88638571Y-55789843D01*
X88638571Y-55789843D02*
X88710000Y-55646986D01*
X88710000Y-55646986D02*
X88781428Y-55361272D01*
X88781428Y-55361272D02*
X88781428Y-55146986D01*
X88781428Y-55146986D02*
X88710000Y-54861272D01*
X88710000Y-54861272D02*
X88638571Y-54718415D01*
X88638571Y-54718415D02*
X88495714Y-54575558D01*
X88495714Y-54575558D02*
X88281428Y-54504129D01*
X88281428Y-54504129D02*
X87924285Y-54504129D01*
X89424285Y-54646986D02*
X89495714Y-54575558D01*
X89495714Y-54575558D02*
X89424285Y-54504129D01*
X89424285Y-54504129D02*
X89352857Y-54575558D01*
X89352857Y-54575558D02*
X89424285Y-54646986D01*
X89424285Y-54646986D02*
X89424285Y-54504129D01*
X91138571Y-56004129D02*
X91495714Y-54504129D01*
X91495714Y-54504129D02*
X91781428Y-55575558D01*
X91781428Y-55575558D02*
X92067143Y-54504129D01*
X92067143Y-54504129D02*
X92424286Y-56004129D01*
X93638572Y-54504129D02*
X93638572Y-55289843D01*
X93638572Y-55289843D02*
X93567143Y-55432700D01*
X93567143Y-55432700D02*
X93424286Y-55504129D01*
X93424286Y-55504129D02*
X93138572Y-55504129D01*
X93138572Y-55504129D02*
X92995714Y-55432700D01*
X93638572Y-54575558D02*
X93495714Y-54504129D01*
X93495714Y-54504129D02*
X93138572Y-54504129D01*
X93138572Y-54504129D02*
X92995714Y-54575558D01*
X92995714Y-54575558D02*
X92924286Y-54718415D01*
X92924286Y-54718415D02*
X92924286Y-54861272D01*
X92924286Y-54861272D02*
X92995714Y-55004129D01*
X92995714Y-55004129D02*
X93138572Y-55075558D01*
X93138572Y-55075558D02*
X93495714Y-55075558D01*
X93495714Y-55075558D02*
X93638572Y-55146986D01*
X94567143Y-54504129D02*
X94424286Y-54575558D01*
X94424286Y-54575558D02*
X94352857Y-54718415D01*
X94352857Y-54718415D02*
X94352857Y-56004129D01*
X94924286Y-55504129D02*
X95495714Y-55504129D01*
X95138571Y-56004129D02*
X95138571Y-54718415D01*
X95138571Y-54718415D02*
X95210000Y-54575558D01*
X95210000Y-54575558D02*
X95352857Y-54504129D01*
X95352857Y-54504129D02*
X95495714Y-54504129D01*
X96567143Y-54575558D02*
X96424286Y-54504129D01*
X96424286Y-54504129D02*
X96138572Y-54504129D01*
X96138572Y-54504129D02*
X95995714Y-54575558D01*
X95995714Y-54575558D02*
X95924286Y-54718415D01*
X95924286Y-54718415D02*
X95924286Y-55289843D01*
X95924286Y-55289843D02*
X95995714Y-55432700D01*
X95995714Y-55432700D02*
X96138572Y-55504129D01*
X96138572Y-55504129D02*
X96424286Y-55504129D01*
X96424286Y-55504129D02*
X96567143Y-55432700D01*
X96567143Y-55432700D02*
X96638572Y-55289843D01*
X96638572Y-55289843D02*
X96638572Y-55146986D01*
X96638572Y-55146986D02*
X95924286Y-55004129D01*
X97281428Y-54504129D02*
X97281428Y-55504129D01*
X97281428Y-55218415D02*
X97352857Y-55361272D01*
X97352857Y-55361272D02*
X97424286Y-55432700D01*
X97424286Y-55432700D02*
X97567143Y-55504129D01*
X97567143Y-55504129D02*
X97710000Y-55504129D01*
X90567143Y-53089213D02*
X90924286Y-52089213D01*
X90924286Y-52089213D02*
X91281429Y-53089213D01*
X92638572Y-52089213D02*
X91781429Y-52089213D01*
X92210000Y-52089213D02*
X92210000Y-53589213D01*
X92210000Y-53589213D02*
X92067143Y-53374927D01*
X92067143Y-53374927D02*
X91924286Y-53232070D01*
X91924286Y-53232070D02*
X91781429Y-53160642D01*
X93281428Y-52232070D02*
X93352857Y-52160642D01*
X93352857Y-52160642D02*
X93281428Y-52089213D01*
X93281428Y-52089213D02*
X93210000Y-52160642D01*
X93210000Y-52160642D02*
X93281428Y-52232070D01*
X93281428Y-52232070D02*
X93281428Y-52089213D01*
X94281429Y-53589213D02*
X94424286Y-53589213D01*
X94424286Y-53589213D02*
X94567143Y-53517784D01*
X94567143Y-53517784D02*
X94638572Y-53446356D01*
X94638572Y-53446356D02*
X94710000Y-53303499D01*
X94710000Y-53303499D02*
X94781429Y-53017784D01*
X94781429Y-53017784D02*
X94781429Y-52660642D01*
X94781429Y-52660642D02*
X94710000Y-52374927D01*
X94710000Y-52374927D02*
X94638572Y-52232070D01*
X94638572Y-52232070D02*
X94567143Y-52160642D01*
X94567143Y-52160642D02*
X94424286Y-52089213D01*
X94424286Y-52089213D02*
X94281429Y-52089213D01*
X94281429Y-52089213D02*
X94138572Y-52160642D01*
X94138572Y-52160642D02*
X94067143Y-52232070D01*
X94067143Y-52232070D02*
X93995714Y-52374927D01*
X93995714Y-52374927D02*
X93924286Y-52660642D01*
X93924286Y-52660642D02*
X93924286Y-53017784D01*
X93924286Y-53017784D02*
X93995714Y-53303499D01*
X93995714Y-53303499D02*
X94067143Y-53446356D01*
X94067143Y-53446356D02*
X94138572Y-53517784D01*
X94138572Y-53517784D02*
X94281429Y-53589213D01*
D12*
X156718000Y-107442000D03*
D13*
X156718000Y-122682000D03*
D12*
X106680000Y-119888000D03*
D13*
X106680000Y-104648000D03*
D12*
X97536000Y-119888000D03*
D13*
X97536000Y-104648000D03*
D12*
X106680000Y-83693000D03*
D13*
X106680000Y-68453000D03*
D12*
X97282000Y-68453000D03*
D13*
X97282000Y-83693000D03*
D14*
X126238000Y-120227832D03*
D15*
X126238000Y-110227832D03*
D14*
X126170150Y-86614000D03*
D15*
X126170150Y-96614000D03*
D14*
X126238000Y-66633832D03*
D15*
X126238000Y-56633832D03*
D16*
X111252000Y-117475000D03*
D17*
X111252000Y-107315000D03*
D18*
X87255000Y-60590000D03*
D19*
X87255000Y-66040000D03*
X87255000Y-71490000D03*
D20*
X102108000Y-81026000D03*
D21*
X102108000Y-70866000D03*
D20*
X102108000Y-117348000D03*
D21*
X102108000Y-107188000D03*
D20*
X136398000Y-78359000D03*
D21*
X126238000Y-78359000D03*
D22*
X106680000Y-60706000D03*
D12*
X106680000Y-55706000D03*
X106680000Y-91557959D03*
D22*
X106680000Y-96557959D03*
D23*
X161850000Y-100212000D03*
D24*
X161850000Y-96012000D03*
X161850000Y-91812000D03*
X167350000Y-100212000D03*
X167350000Y-96012000D03*
X167350000Y-91812000D03*
D12*
X146050000Y-94996000D03*
X146050000Y-122496000D03*
X146050000Y-54356000D03*
X146050000Y-81856000D03*
D16*
X111252000Y-81026000D03*
D17*
X111252000Y-70866000D03*
D16*
X115062000Y-70866000D03*
D17*
X115062000Y-81026000D03*
D12*
X160782000Y-54356000D03*
X160782000Y-81856000D03*
D20*
X136398000Y-74930000D03*
D21*
X126238000Y-74930000D03*
D18*
X87382000Y-115813000D03*
D19*
X87382000Y-110363000D03*
X87382000Y-104913000D03*
D25*
X88594000Y-88070000D03*
D24*
X88594000Y-92270000D03*
X83094000Y-88070000D03*
X83094000Y-92270000D03*
D26*
X112268000Y-101600000D03*
X112522000Y-66040000D03*
X173609000Y-64643000D03*
X79883000Y-106807000D03*
X111125000Y-125984000D03*
X89281000Y-125730000D03*
X146050000Y-62484000D03*
X146304000Y-117856000D03*
X79756000Y-116205000D03*
X96520000Y-94996000D03*
X160147000Y-50800000D03*
X160020000Y-125984000D03*
X168656000Y-58928000D03*
X146050000Y-88392000D03*
X154014873Y-98512733D03*
X145796000Y-72390000D03*
X156464000Y-113538000D03*
X110998000Y-50927000D03*
X154686000Y-88392000D03*
X146050000Y-105156000D03*
X165100000Y-122682000D03*
X175328000Y-83658493D03*
X148336000Y-50800000D03*
X173736000Y-74422000D03*
X173736000Y-116205000D03*
X157734000Y-72390000D03*
X101346000Y-50800000D03*
X100838000Y-65024000D03*
X87376000Y-79502000D03*
X121158000Y-76962000D03*
X173736000Y-106807000D03*
X79883000Y-74422000D03*
X139446000Y-88392000D03*
X160782000Y-62484000D03*
X79756000Y-62738000D03*
X138684000Y-58674000D03*
X113284000Y-87122000D03*
X101346000Y-125984000D03*
X132842000Y-50800000D03*
X135890000Y-71374000D03*
X136652000Y-105156000D03*
X117602000Y-104902000D03*
X96520000Y-91186000D03*
D27*
X141664000Y-81856000D02*
X146050000Y-81856000D01*
X136906000Y-86614000D02*
X141664000Y-81856000D01*
X126170150Y-86614000D02*
X136906000Y-86614000D01*
X160646000Y-81992000D02*
X160782000Y-81856000D01*
X158835832Y-66633832D02*
X126238000Y-66633832D01*
X160782000Y-68580000D02*
X158835832Y-66633832D01*
X160782000Y-81856000D02*
X160782000Y-68580000D01*
X121920000Y-72644000D02*
X121920000Y-67564000D01*
X119126000Y-75438000D02*
X121920000Y-72644000D01*
X96774000Y-75438000D02*
X119126000Y-75438000D01*
X92826000Y-71490000D02*
X96774000Y-75438000D01*
X122850168Y-66633832D02*
X126238000Y-66633832D01*
X87255000Y-71490000D02*
X92826000Y-71490000D01*
X121920000Y-67564000D02*
X122850168Y-66633832D01*
X156532000Y-122496000D02*
X156718000Y-122682000D01*
X146050000Y-122496000D02*
X156532000Y-122496000D01*
X143781832Y-120227832D02*
X146050000Y-122496000D01*
X126238000Y-120227832D02*
X143781832Y-120227832D01*
X123021832Y-120227832D02*
X126238000Y-120227832D01*
X115570000Y-112776000D02*
X123021832Y-120227832D01*
X96520000Y-112776000D02*
X115570000Y-112776000D01*
X94107000Y-110363000D02*
X96520000Y-112776000D01*
X87382000Y-110363000D02*
X94107000Y-110363000D01*
G04 #@! TA.AperFunction,Conductor*
G36*
X175837121Y-48544162D02*
G01*
X175883614Y-48597818D01*
X175895000Y-48650160D01*
X175895000Y-128144000D01*
X175874998Y-128212121D01*
X175821342Y-128258614D01*
X175769000Y-128270000D01*
X76326000Y-128270000D01*
X76257879Y-128249998D01*
X76211386Y-128196342D01*
X76200000Y-128144000D01*
X76200000Y-123391613D01*
X79200700Y-123391613D01*
X79200700Y-123653866D01*
X79234928Y-123913860D01*
X79234930Y-123913867D01*
X79302804Y-124167179D01*
X79403162Y-124409464D01*
X79403163Y-124409465D01*
X79403168Y-124409475D01*
X79534283Y-124636573D01*
X79534287Y-124636579D01*
X79693927Y-124844625D01*
X79693946Y-124844646D01*
X79879353Y-125030053D01*
X79879363Y-125030062D01*
X79879369Y-125030068D01*
X80087423Y-125189714D01*
X80314536Y-125320838D01*
X80556821Y-125421196D01*
X80810133Y-125489070D01*
X80810137Y-125489070D01*
X80810139Y-125489071D01*
X80877148Y-125497892D01*
X81070136Y-125523300D01*
X81070143Y-125523300D01*
X81332377Y-125523300D01*
X81332384Y-125523300D01*
X81567362Y-125492364D01*
X81592380Y-125489071D01*
X81592380Y-125489070D01*
X81592387Y-125489070D01*
X81845699Y-125421196D01*
X82087984Y-125320838D01*
X82315097Y-125189714D01*
X82523151Y-125030068D01*
X82708588Y-124844631D01*
X82868234Y-124636577D01*
X82999358Y-124409464D01*
X83099716Y-124167179D01*
X83167590Y-123913867D01*
X83201820Y-123653864D01*
X83201820Y-123391616D01*
X83176412Y-123198628D01*
X83167591Y-123131619D01*
X83167590Y-123131617D01*
X83167590Y-123131613D01*
X83099716Y-122878301D01*
X82999358Y-122636016D01*
X82868234Y-122408903D01*
X82817797Y-122343173D01*
X82708592Y-122200854D01*
X82708590Y-122200852D01*
X82708588Y-122200849D01*
X82708582Y-122200843D01*
X82708573Y-122200833D01*
X82523166Y-122015426D01*
X82523145Y-122015407D01*
X82315099Y-121855767D01*
X82315093Y-121855763D01*
X82087995Y-121724648D01*
X82087990Y-121724645D01*
X82087984Y-121724642D01*
X81845699Y-121624284D01*
X81592387Y-121556410D01*
X81592380Y-121556408D01*
X81332386Y-121522180D01*
X81332384Y-121522180D01*
X81070136Y-121522180D01*
X81070133Y-121522180D01*
X80810139Y-121556408D01*
X80556821Y-121624284D01*
X80314534Y-121724643D01*
X80314524Y-121724648D01*
X80087426Y-121855763D01*
X80087420Y-121855767D01*
X79879374Y-122015407D01*
X79879353Y-122015426D01*
X79693946Y-122200833D01*
X79693927Y-122200854D01*
X79534287Y-122408900D01*
X79534283Y-122408906D01*
X79403168Y-122636004D01*
X79403163Y-122636014D01*
X79403162Y-122636016D01*
X79384115Y-122682000D01*
X79302804Y-122878301D01*
X79234928Y-123131619D01*
X79200700Y-123391613D01*
X76200000Y-123391613D01*
X76200000Y-119887996D01*
X95330778Y-119887996D01*
X95330778Y-119888003D01*
X95349643Y-120175834D01*
X95349645Y-120175849D01*
X95405919Y-120458754D01*
X95405920Y-120458758D01*
X95437545Y-120551920D01*
X95498641Y-120731902D01*
X95498644Y-120731908D01*
X95626220Y-120990608D01*
X95786473Y-121230445D01*
X95786476Y-121230449D01*
X95976672Y-121447327D01*
X96062026Y-121522180D01*
X96193546Y-121637520D01*
X96193548Y-121637521D01*
X96193550Y-121637523D01*
X96193554Y-121637526D01*
X96323933Y-121724642D01*
X96433389Y-121797778D01*
X96692098Y-121925359D01*
X96965247Y-122018081D01*
X97180831Y-122060963D01*
X97248150Y-122074354D01*
X97248152Y-122074354D01*
X97248161Y-122074356D01*
X97412640Y-122085136D01*
X97535997Y-122093222D01*
X97536000Y-122093222D01*
X97536003Y-122093222D01*
X97643939Y-122086147D01*
X97823839Y-122074356D01*
X98106753Y-122018081D01*
X98379902Y-121925359D01*
X98638611Y-121797778D01*
X98878454Y-121637520D01*
X99095327Y-121447327D01*
X99285520Y-121230454D01*
X99445778Y-120990611D01*
X99573359Y-120731902D01*
X99666081Y-120458753D01*
X99722356Y-120175839D01*
X99741222Y-119888000D01*
X99741222Y-119887996D01*
X104474778Y-119887996D01*
X104474778Y-119888003D01*
X104493643Y-120175834D01*
X104493645Y-120175849D01*
X104549919Y-120458754D01*
X104549920Y-120458758D01*
X104581545Y-120551920D01*
X104642641Y-120731902D01*
X104642644Y-120731908D01*
X104770220Y-120990608D01*
X104930473Y-121230445D01*
X104930476Y-121230449D01*
X105120672Y-121447327D01*
X105206026Y-121522180D01*
X105337546Y-121637520D01*
X105337548Y-121637521D01*
X105337550Y-121637523D01*
X105337554Y-121637526D01*
X105467933Y-121724642D01*
X105577389Y-121797778D01*
X105836098Y-121925359D01*
X106109247Y-122018081D01*
X106324831Y-122060963D01*
X106392150Y-122074354D01*
X106392152Y-122074354D01*
X106392161Y-122074356D01*
X106556640Y-122085136D01*
X106679997Y-122093222D01*
X106680000Y-122093222D01*
X106680003Y-122093222D01*
X106787939Y-122086147D01*
X106967839Y-122074356D01*
X107250753Y-122018081D01*
X107523902Y-121925359D01*
X107782611Y-121797778D01*
X108022454Y-121637520D01*
X108239327Y-121447327D01*
X108429520Y-121230454D01*
X108589778Y-120990611D01*
X108717359Y-120731902D01*
X108810081Y-120458753D01*
X108866356Y-120175839D01*
X108885222Y-119888000D01*
X108866356Y-119600161D01*
X108861450Y-119575499D01*
X108829465Y-119414698D01*
X108810081Y-119317247D01*
X108717359Y-119044098D01*
X108589778Y-118785389D01*
X108487973Y-118633027D01*
X108429526Y-118545554D01*
X108429523Y-118545550D01*
X108429521Y-118545548D01*
X108429520Y-118545546D01*
X108328009Y-118429795D01*
X108239327Y-118328672D01*
X108022449Y-118138476D01*
X108022445Y-118138473D01*
X107782608Y-117978220D01*
X107523908Y-117850644D01*
X107523902Y-117850641D01*
X107431266Y-117819195D01*
X107250758Y-117757920D01*
X107250754Y-117757919D01*
X106967849Y-117701645D01*
X106967834Y-117701643D01*
X106680003Y-117682778D01*
X106679997Y-117682778D01*
X106392165Y-117701643D01*
X106392150Y-117701645D01*
X106109245Y-117757919D01*
X106109241Y-117757920D01*
X105840855Y-117849025D01*
X105836098Y-117850641D01*
X105836095Y-117850642D01*
X105836091Y-117850644D01*
X105577391Y-117978220D01*
X105337554Y-118138473D01*
X105337550Y-118138476D01*
X105120672Y-118328672D01*
X104930476Y-118545550D01*
X104930473Y-118545554D01*
X104770220Y-118785391D01*
X104642644Y-119044091D01*
X104642640Y-119044101D01*
X104549920Y-119317241D01*
X104549919Y-119317245D01*
X104493645Y-119600150D01*
X104493643Y-119600165D01*
X104474778Y-119887996D01*
X99741222Y-119887996D01*
X99722356Y-119600161D01*
X99717450Y-119575499D01*
X99685465Y-119414698D01*
X99666081Y-119317247D01*
X99573359Y-119044098D01*
X99445778Y-118785389D01*
X99343973Y-118633027D01*
X99285526Y-118545554D01*
X99285523Y-118545550D01*
X99285521Y-118545548D01*
X99285520Y-118545546D01*
X99184009Y-118429795D01*
X99095327Y-118328672D01*
X98878449Y-118138476D01*
X98878445Y-118138473D01*
X98638608Y-117978220D01*
X98379908Y-117850644D01*
X98379902Y-117850641D01*
X98287266Y-117819195D01*
X98106758Y-117757920D01*
X98106754Y-117757919D01*
X97823849Y-117701645D01*
X97823834Y-117701643D01*
X97536003Y-117682778D01*
X97535997Y-117682778D01*
X97248165Y-117701643D01*
X97248150Y-117701645D01*
X96965245Y-117757919D01*
X96965241Y-117757920D01*
X96696855Y-117849025D01*
X96692098Y-117850641D01*
X96692095Y-117850642D01*
X96692091Y-117850644D01*
X96433391Y-117978220D01*
X96193554Y-118138473D01*
X96193550Y-118138476D01*
X95976672Y-118328672D01*
X95786476Y-118545550D01*
X95786473Y-118545554D01*
X95626220Y-118785391D01*
X95498644Y-119044091D01*
X95498640Y-119044101D01*
X95405920Y-119317241D01*
X95405919Y-119317245D01*
X95349645Y-119600150D01*
X95349643Y-119600165D01*
X95330778Y-119887996D01*
X76200000Y-119887996D01*
X76200000Y-114504965D01*
X84131500Y-114504965D01*
X84131500Y-117121027D01*
X84131501Y-117121037D01*
X84140950Y-117227333D01*
X84142114Y-117240418D01*
X84184381Y-117388134D01*
X84198092Y-117436051D01*
X84240232Y-117516725D01*
X84292302Y-117616407D01*
X84420891Y-117774109D01*
X84578593Y-117902698D01*
X84758951Y-117996909D01*
X84954582Y-118052886D01*
X85073963Y-118063500D01*
X89690036Y-118063499D01*
X89809418Y-118052886D01*
X90005049Y-117996909D01*
X90185407Y-117902698D01*
X90343109Y-117774109D01*
X90471698Y-117616407D01*
X90565909Y-117436049D01*
X90591103Y-117348000D01*
X100302451Y-117348000D01*
X100322617Y-117617106D01*
X100382665Y-117880193D01*
X100481255Y-118131394D01*
X100481258Y-118131402D01*
X100616182Y-118365098D01*
X100616184Y-118365101D01*
X100616185Y-118365102D01*
X100784439Y-118576085D01*
X100982259Y-118759635D01*
X100982265Y-118759639D01*
X101205216Y-118911645D01*
X101205223Y-118911649D01*
X101205226Y-118911651D01*
X101448359Y-119028738D01*
X101448362Y-119028738D01*
X101448367Y-119028741D01*
X101706217Y-119108277D01*
X101706219Y-119108277D01*
X101706228Y-119108280D01*
X101973071Y-119148500D01*
X101973075Y-119148500D01*
X102242925Y-119148500D01*
X102242929Y-119148500D01*
X102509772Y-119108280D01*
X102509782Y-119108277D01*
X102767632Y-119028741D01*
X102767634Y-119028739D01*
X102767641Y-119028738D01*
X102767646Y-119028735D01*
X102767650Y-119028734D01*
X103010769Y-118911654D01*
X103010769Y-118911653D01*
X103010775Y-118911651D01*
X103233741Y-118759635D01*
X103431561Y-118576085D01*
X103599815Y-118365102D01*
X103721882Y-118153674D01*
X103734741Y-118131402D01*
X103734743Y-118131398D01*
X103833334Y-117880195D01*
X103893383Y-117617103D01*
X103913549Y-117348000D01*
X103893383Y-117078897D01*
X103833334Y-116815805D01*
X103734743Y-116564602D01*
X103734742Y-116564601D01*
X103734741Y-116564597D01*
X103599817Y-116330901D01*
X103588703Y-116316965D01*
X109151500Y-116316965D01*
X109151500Y-118633027D01*
X109151501Y-118633037D01*
X109159281Y-118720558D01*
X109162114Y-118752418D01*
X109218091Y-118948049D01*
X109218092Y-118948051D01*
X109301788Y-119108280D01*
X109312302Y-119128407D01*
X109440891Y-119286109D01*
X109598593Y-119414698D01*
X109778951Y-119508909D01*
X109974582Y-119564886D01*
X110093963Y-119575500D01*
X112410036Y-119575499D01*
X112529418Y-119564886D01*
X112725049Y-119508909D01*
X112905407Y-119414698D01*
X113063109Y-119286109D01*
X113191698Y-119128407D01*
X113285909Y-118948049D01*
X113341886Y-118752418D01*
X113352500Y-118633037D01*
X113352499Y-116316964D01*
X113341886Y-116197582D01*
X113285909Y-116001951D01*
X113191698Y-115821593D01*
X113063109Y-115663891D01*
X112905407Y-115535302D01*
X112905405Y-115535301D01*
X112905404Y-115535300D01*
X112725051Y-115441092D01*
X112725050Y-115441091D01*
X112725049Y-115441091D01*
X112529418Y-115385114D01*
X112410037Y-115374500D01*
X112410032Y-115374500D01*
X110093972Y-115374500D01*
X110093962Y-115374501D01*
X109974588Y-115385113D01*
X109974585Y-115385113D01*
X109974582Y-115385114D01*
X109778951Y-115441091D01*
X109778948Y-115441092D01*
X109598595Y-115535300D01*
X109440891Y-115663891D01*
X109312300Y-115821595D01*
X109218092Y-116001948D01*
X109218091Y-116001950D01*
X109218091Y-116001951D01*
X109162114Y-116197582D01*
X109162114Y-116197588D01*
X109151500Y-116316965D01*
X103588703Y-116316965D01*
X103431561Y-116119915D01*
X103233741Y-115936365D01*
X103065402Y-115821593D01*
X103010777Y-115784350D01*
X103010769Y-115784345D01*
X102767650Y-115667265D01*
X102767632Y-115667258D01*
X102509782Y-115587722D01*
X102509774Y-115587720D01*
X102509772Y-115587720D01*
X102242929Y-115547500D01*
X101973071Y-115547500D01*
X101706228Y-115587720D01*
X101706226Y-115587720D01*
X101706217Y-115587722D01*
X101448367Y-115667258D01*
X101448355Y-115667263D01*
X101205223Y-115784350D01*
X101205216Y-115784354D01*
X100982265Y-115936360D01*
X100982260Y-115936364D01*
X100784439Y-116119914D01*
X100616182Y-116330901D01*
X100481258Y-116564597D01*
X100481255Y-116564605D01*
X100382665Y-116815806D01*
X100322617Y-117078893D01*
X100302451Y-117348000D01*
X90591103Y-117348000D01*
X90621886Y-117240418D01*
X90632500Y-117121037D01*
X90632499Y-114504964D01*
X90621886Y-114385582D01*
X90565909Y-114189951D01*
X90471698Y-114009593D01*
X90343109Y-113851891D01*
X90185407Y-113723302D01*
X90185405Y-113723301D01*
X90185404Y-113723300D01*
X90005051Y-113629092D01*
X90005050Y-113629091D01*
X90005049Y-113629091D01*
X89809418Y-113573114D01*
X89690037Y-113562500D01*
X89690032Y-113562500D01*
X85073972Y-113562500D01*
X85073962Y-113562501D01*
X84954588Y-113573113D01*
X84954585Y-113573113D01*
X84954582Y-113573114D01*
X84758951Y-113629091D01*
X84758948Y-113629092D01*
X84578595Y-113723300D01*
X84420891Y-113851891D01*
X84292300Y-114009595D01*
X84198092Y-114189948D01*
X84198091Y-114189950D01*
X84198091Y-114189951D01*
X84142114Y-114385582D01*
X84142114Y-114385588D01*
X84131500Y-114504965D01*
X76200000Y-114504965D01*
X76200000Y-110215491D01*
X84131500Y-110215491D01*
X84131500Y-110510508D01*
X84170005Y-110802985D01*
X84170006Y-110802991D01*
X84170007Y-110802993D01*
X84246361Y-111087952D01*
X84359257Y-111360507D01*
X84359258Y-111360508D01*
X84359263Y-111360519D01*
X84506759Y-111615990D01*
X84506764Y-111615997D01*
X84686346Y-111850033D01*
X84686365Y-111850054D01*
X84894945Y-112058634D01*
X84894966Y-112058653D01*
X85129002Y-112238235D01*
X85129009Y-112238240D01*
X85384480Y-112385736D01*
X85384484Y-112385737D01*
X85384493Y-112385743D01*
X85657048Y-112498639D01*
X85942007Y-112574993D01*
X85942013Y-112574993D01*
X85942014Y-112574994D01*
X85975574Y-112579412D01*
X86234494Y-112613500D01*
X86234501Y-112613500D01*
X88529499Y-112613500D01*
X88529506Y-112613500D01*
X88821993Y-112574993D01*
X89106952Y-112498639D01*
X89379507Y-112385743D01*
X89388793Y-112380382D01*
X89451795Y-112363500D01*
X93226176Y-112363500D01*
X93294297Y-112383502D01*
X93315266Y-112400400D01*
X94766756Y-113851891D01*
X95198145Y-114283280D01*
X95198154Y-114283288D01*
X95290817Y-114354389D01*
X95290818Y-114354390D01*
X95406194Y-114442922D01*
X95406200Y-114442926D01*
X95633290Y-114574036D01*
X95633294Y-114574037D01*
X95633303Y-114574043D01*
X95875581Y-114674398D01*
X96128884Y-114742271D01*
X96128890Y-114742271D01*
X96128891Y-114742272D01*
X96141402Y-114743919D01*
X96258882Y-114759385D01*
X96388880Y-114776500D01*
X114689176Y-114776500D01*
X114757297Y-114796502D01*
X114778271Y-114813405D01*
X121699970Y-121735105D01*
X121699987Y-121735120D01*
X121754109Y-121776648D01*
X121817698Y-121825441D01*
X121817699Y-121825443D01*
X121908026Y-121894754D01*
X121908032Y-121894758D01*
X122121633Y-122018080D01*
X122121635Y-122018081D01*
X122135135Y-122025875D01*
X122377413Y-122126230D01*
X122630716Y-122194103D01*
X122752683Y-122210159D01*
X122752684Y-122210160D01*
X122777350Y-122213407D01*
X122890712Y-122228332D01*
X123117091Y-122228332D01*
X123185212Y-122248334D01*
X123231705Y-122301990D01*
X123242596Y-122343176D01*
X123248112Y-122405243D01*
X123304092Y-122600883D01*
X123346465Y-122682003D01*
X123398302Y-122781239D01*
X123526891Y-122938941D01*
X123684593Y-123067530D01*
X123864951Y-123161741D01*
X124060582Y-123217718D01*
X124179963Y-123228332D01*
X128296036Y-123228331D01*
X128415418Y-123217718D01*
X128611049Y-123161741D01*
X128791407Y-123067530D01*
X128949109Y-122938941D01*
X129077698Y-122781239D01*
X129171909Y-122600881D01*
X129227886Y-122405250D01*
X129233405Y-122343172D01*
X129259362Y-122277091D01*
X129316924Y-122235533D01*
X129358910Y-122228332D01*
X142901008Y-122228332D01*
X142969129Y-122248334D01*
X142990103Y-122265237D01*
X143965077Y-123240211D01*
X143995295Y-123288803D01*
X144012641Y-123339903D01*
X144140220Y-123598608D01*
X144300473Y-123838445D01*
X144300476Y-123838449D01*
X144490672Y-124055327D01*
X144618214Y-124167178D01*
X144707546Y-124245520D01*
X144707548Y-124245521D01*
X144707550Y-124245523D01*
X144707554Y-124245526D01*
X144865981Y-124351383D01*
X144947389Y-124405778D01*
X145206098Y-124533359D01*
X145479247Y-124626081D01*
X145694831Y-124668963D01*
X145762150Y-124682354D01*
X145762152Y-124682354D01*
X145762161Y-124682356D01*
X145926640Y-124693136D01*
X146049997Y-124701222D01*
X146050000Y-124701222D01*
X146050003Y-124701222D01*
X146157939Y-124694147D01*
X146337839Y-124682356D01*
X146620753Y-124626081D01*
X146893902Y-124533359D01*
X146942296Y-124509494D01*
X146998024Y-124496500D01*
X155434573Y-124496500D01*
X155502694Y-124516502D01*
X155504575Y-124517735D01*
X155560434Y-124555058D01*
X155615389Y-124591778D01*
X155874098Y-124719359D01*
X156147247Y-124812081D01*
X156310963Y-124844646D01*
X156430150Y-124868354D01*
X156430152Y-124868354D01*
X156430161Y-124868356D01*
X156594640Y-124879136D01*
X156717997Y-124887222D01*
X156718000Y-124887222D01*
X156718003Y-124887222D01*
X156825939Y-124880147D01*
X157005839Y-124868356D01*
X157288753Y-124812081D01*
X157561902Y-124719359D01*
X157820611Y-124591778D01*
X158060454Y-124431520D01*
X158277327Y-124241327D01*
X158467520Y-124024454D01*
X158627778Y-123784611D01*
X158755359Y-123525902D01*
X158800944Y-123391613D01*
X169200520Y-123391613D01*
X169200520Y-123653866D01*
X169234748Y-123913860D01*
X169234750Y-123913867D01*
X169302624Y-124167179D01*
X169402982Y-124409464D01*
X169402983Y-124409465D01*
X169402988Y-124409475D01*
X169534103Y-124636573D01*
X169534107Y-124636579D01*
X169693747Y-124844625D01*
X169693766Y-124844646D01*
X169879173Y-125030053D01*
X169879183Y-125030062D01*
X169879189Y-125030068D01*
X170087243Y-125189714D01*
X170314356Y-125320838D01*
X170556641Y-125421196D01*
X170809953Y-125489070D01*
X170809957Y-125489070D01*
X170809959Y-125489071D01*
X170876968Y-125497892D01*
X171069956Y-125523300D01*
X171069963Y-125523300D01*
X171332197Y-125523300D01*
X171332204Y-125523300D01*
X171567182Y-125492364D01*
X171592200Y-125489071D01*
X171592200Y-125489070D01*
X171592207Y-125489070D01*
X171845519Y-125421196D01*
X172087804Y-125320838D01*
X172314917Y-125189714D01*
X172522971Y-125030068D01*
X172708408Y-124844631D01*
X172868054Y-124636577D01*
X172999178Y-124409464D01*
X173099536Y-124167179D01*
X173167410Y-123913867D01*
X173201640Y-123653864D01*
X173201640Y-123391616D01*
X173176232Y-123198628D01*
X173167411Y-123131619D01*
X173167410Y-123131617D01*
X173167410Y-123131613D01*
X173099536Y-122878301D01*
X172999178Y-122636016D01*
X172868054Y-122408903D01*
X172817617Y-122343173D01*
X172708412Y-122200854D01*
X172708410Y-122200852D01*
X172708408Y-122200849D01*
X172708402Y-122200843D01*
X172708393Y-122200833D01*
X172522986Y-122015426D01*
X172522965Y-122015407D01*
X172314919Y-121855767D01*
X172314913Y-121855763D01*
X172087815Y-121724648D01*
X172087810Y-121724645D01*
X172087804Y-121724642D01*
X171845519Y-121624284D01*
X171592207Y-121556410D01*
X171592200Y-121556408D01*
X171332206Y-121522180D01*
X171332204Y-121522180D01*
X171069956Y-121522180D01*
X171069953Y-121522180D01*
X170809959Y-121556408D01*
X170556641Y-121624284D01*
X170314354Y-121724643D01*
X170314344Y-121724648D01*
X170087246Y-121855763D01*
X170087240Y-121855767D01*
X169879194Y-122015407D01*
X169879173Y-122015426D01*
X169693766Y-122200833D01*
X169693747Y-122200854D01*
X169534107Y-122408900D01*
X169534103Y-122408906D01*
X169402988Y-122636004D01*
X169402983Y-122636014D01*
X169402982Y-122636016D01*
X169383935Y-122682000D01*
X169302624Y-122878301D01*
X169234748Y-123131619D01*
X169200520Y-123391613D01*
X158800944Y-123391613D01*
X158848081Y-123252753D01*
X158904356Y-122969839D01*
X158923222Y-122682000D01*
X158904356Y-122394161D01*
X158894214Y-122343176D01*
X158872803Y-122235533D01*
X158848081Y-122111247D01*
X158755359Y-121838098D01*
X158627778Y-121579389D01*
X158539537Y-121447327D01*
X158467526Y-121339554D01*
X158467523Y-121339550D01*
X158467521Y-121339548D01*
X158467520Y-121339546D01*
X158371841Y-121230445D01*
X158277327Y-121122672D01*
X158060449Y-120932476D01*
X158060445Y-120932473D01*
X157820608Y-120772220D01*
X157561908Y-120644644D01*
X157561902Y-120644641D01*
X157469266Y-120613195D01*
X157288758Y-120551920D01*
X157288754Y-120551919D01*
X157005849Y-120495645D01*
X157005834Y-120495643D01*
X156718003Y-120476778D01*
X156717997Y-120476778D01*
X156436477Y-120495230D01*
X156428236Y-120495500D01*
X146998024Y-120495500D01*
X146942296Y-120482506D01*
X146893903Y-120458641D01*
X146860485Y-120447297D01*
X146842802Y-120441294D01*
X146794211Y-120411077D01*
X145103693Y-118720558D01*
X145103683Y-118720549D01*
X144985963Y-118630220D01*
X144985963Y-118630219D01*
X144895638Y-118560910D01*
X144895631Y-118560905D01*
X144668541Y-118429795D01*
X144668533Y-118429791D01*
X144668529Y-118429789D01*
X144426251Y-118329434D01*
X144416831Y-118326910D01*
X144416826Y-118326908D01*
X144216512Y-118273234D01*
X144172948Y-118261561D01*
X144172946Y-118261560D01*
X144172940Y-118261559D01*
X144042951Y-118244447D01*
X143912954Y-118227332D01*
X143912952Y-118227332D01*
X129358909Y-118227332D01*
X129290788Y-118207330D01*
X129244295Y-118153674D01*
X129233404Y-118112488D01*
X129227887Y-118050420D01*
X129227886Y-118050417D01*
X129227886Y-118050414D01*
X129171909Y-117854783D01*
X129077698Y-117674425D01*
X128949109Y-117516723D01*
X128791407Y-117388134D01*
X128791405Y-117388133D01*
X128791404Y-117388132D01*
X128611051Y-117293924D01*
X128611050Y-117293923D01*
X128611049Y-117293923D01*
X128415418Y-117237946D01*
X128296037Y-117227332D01*
X128296032Y-117227332D01*
X124179972Y-117227332D01*
X124179962Y-117227333D01*
X124060588Y-117237945D01*
X124060585Y-117237945D01*
X124060582Y-117237946D01*
X123864951Y-117293923D01*
X123864948Y-117293924D01*
X123684595Y-117388132D01*
X123526887Y-117516725D01*
X123441183Y-117621833D01*
X123382633Y-117661987D01*
X123311668Y-117664112D01*
X123254437Y-117631303D01*
X116891861Y-111268726D01*
X116891855Y-111268721D01*
X116891851Y-111268717D01*
X116722654Y-111138888D01*
X116683803Y-111109076D01*
X116683799Y-111109074D01*
X116683797Y-111109072D01*
X116456709Y-110977963D01*
X116456701Y-110977959D01*
X116456697Y-110977957D01*
X116214419Y-110877602D01*
X116214416Y-110877601D01*
X116214414Y-110877600D01*
X116006362Y-110821853D01*
X115961116Y-110809729D01*
X115961114Y-110809728D01*
X115961108Y-110809727D01*
X115831119Y-110792615D01*
X115701122Y-110775500D01*
X115701120Y-110775500D01*
X97400825Y-110775500D01*
X97332704Y-110755498D01*
X97311730Y-110738595D01*
X96800963Y-110227828D01*
X123933065Y-110227828D01*
X123933065Y-110227835D01*
X123952783Y-110528681D01*
X123952785Y-110528696D01*
X124011604Y-110824394D01*
X124011605Y-110824398D01*
X124108517Y-111109888D01*
X124108521Y-111109898D01*
X124241866Y-111380297D01*
X124409369Y-111630985D01*
X124509050Y-111744648D01*
X124509051Y-111744648D01*
X125432071Y-110821628D01*
X125461249Y-110865295D01*
X125600537Y-111004583D01*
X125644202Y-111033759D01*
X124721182Y-111956779D01*
X124721182Y-111956780D01*
X124834851Y-112056465D01*
X125085534Y-112223965D01*
X125355933Y-112357310D01*
X125355943Y-112357314D01*
X125641433Y-112454226D01*
X125641437Y-112454227D01*
X125937135Y-112513046D01*
X125937150Y-112513048D01*
X126237997Y-112532767D01*
X126238003Y-112532767D01*
X126538849Y-112513048D01*
X126538864Y-112513046D01*
X126834562Y-112454227D01*
X126834566Y-112454226D01*
X127120056Y-112357314D01*
X127120066Y-112357310D01*
X127390465Y-112223965D01*
X127641154Y-112056462D01*
X127754816Y-111956781D01*
X127754816Y-111956779D01*
X126831796Y-111033759D01*
X126875463Y-111004583D01*
X127014751Y-110865295D01*
X127043927Y-110821628D01*
X127966947Y-111744648D01*
X127966949Y-111744648D01*
X128066630Y-111630986D01*
X128234133Y-111380297D01*
X128367478Y-111109898D01*
X128367482Y-111109888D01*
X128464394Y-110824398D01*
X128464395Y-110824394D01*
X128523214Y-110528696D01*
X128523216Y-110528681D01*
X128542935Y-110227835D01*
X128542935Y-110227828D01*
X128523216Y-109926982D01*
X128523214Y-109926967D01*
X128464395Y-109631269D01*
X128464394Y-109631265D01*
X128367482Y-109345775D01*
X128367478Y-109345765D01*
X128234133Y-109075367D01*
X128066629Y-108824678D01*
X127966948Y-108711014D01*
X127966947Y-108711014D01*
X127043927Y-109634034D01*
X127014751Y-109590369D01*
X126875463Y-109451081D01*
X126831796Y-109421903D01*
X127754816Y-108498883D01*
X127754816Y-108498882D01*
X127641153Y-108399201D01*
X127390465Y-108231698D01*
X127120066Y-108098353D01*
X127120056Y-108098349D01*
X126834566Y-108001437D01*
X126834562Y-108001436D01*
X126538864Y-107942617D01*
X126538849Y-107942615D01*
X126238003Y-107922897D01*
X126237997Y-107922897D01*
X125937150Y-107942615D01*
X125937135Y-107942617D01*
X125641437Y-108001436D01*
X125641433Y-108001437D01*
X125355943Y-108098349D01*
X125355933Y-108098353D01*
X125085535Y-108231698D01*
X124834844Y-108399203D01*
X124834840Y-108399206D01*
X124721182Y-108498881D01*
X124721182Y-108498883D01*
X125644203Y-109421904D01*
X125600537Y-109451081D01*
X125461249Y-109590369D01*
X125432072Y-109634035D01*
X124509051Y-108711014D01*
X124509049Y-108711014D01*
X124409374Y-108824672D01*
X124409371Y-108824676D01*
X124241866Y-109075367D01*
X124108521Y-109345765D01*
X124108517Y-109345775D01*
X124011605Y-109631265D01*
X124011604Y-109631269D01*
X123952785Y-109926967D01*
X123952783Y-109926982D01*
X123933065Y-110227828D01*
X96800963Y-110227828D01*
X95428861Y-108855726D01*
X95428855Y-108855721D01*
X95428851Y-108855717D01*
X95293229Y-108751651D01*
X95293229Y-108751650D01*
X95293228Y-108751650D01*
X95220805Y-108696077D01*
X95220799Y-108696073D01*
X94993709Y-108564963D01*
X94993701Y-108564959D01*
X94993697Y-108564957D01*
X94751419Y-108464602D01*
X94751416Y-108464601D01*
X94751414Y-108464600D01*
X94507349Y-108399203D01*
X94498116Y-108396729D01*
X94498114Y-108396728D01*
X94498108Y-108396727D01*
X94368119Y-108379615D01*
X94238122Y-108362500D01*
X94238120Y-108362500D01*
X89451795Y-108362500D01*
X89388793Y-108345618D01*
X89379516Y-108340261D01*
X89379510Y-108340258D01*
X89379507Y-108340257D01*
X89106952Y-108227361D01*
X88821993Y-108151007D01*
X88821991Y-108151006D01*
X88821985Y-108151005D01*
X88529508Y-108112500D01*
X88529506Y-108112500D01*
X86234494Y-108112500D01*
X86234491Y-108112500D01*
X85942014Y-108151005D01*
X85657048Y-108227361D01*
X85384491Y-108340258D01*
X85384480Y-108340263D01*
X85129009Y-108487759D01*
X85129002Y-108487764D01*
X84894966Y-108667346D01*
X84894945Y-108667365D01*
X84686365Y-108875945D01*
X84686346Y-108875966D01*
X84506764Y-109110002D01*
X84506759Y-109110009D01*
X84359263Y-109365480D01*
X84359258Y-109365491D01*
X84246361Y-109638048D01*
X84170005Y-109923014D01*
X84131500Y-110215491D01*
X76200000Y-110215491D01*
X76200000Y-107188000D01*
X100302451Y-107188000D01*
X100322617Y-107457106D01*
X100382665Y-107720193D01*
X100481255Y-107971394D01*
X100481258Y-107971402D01*
X100616182Y-108205098D01*
X100616184Y-108205101D01*
X100616185Y-108205102D01*
X100784439Y-108416085D01*
X100982259Y-108599635D01*
X100982265Y-108599639D01*
X101205216Y-108751645D01*
X101205223Y-108751649D01*
X101205226Y-108751651D01*
X101448359Y-108868738D01*
X101448362Y-108868738D01*
X101448367Y-108868741D01*
X101706217Y-108948277D01*
X101706219Y-108948277D01*
X101706228Y-108948280D01*
X101973071Y-108988500D01*
X101973075Y-108988500D01*
X102242925Y-108988500D01*
X102242929Y-108988500D01*
X102509772Y-108948280D01*
X102509782Y-108948277D01*
X102767632Y-108868741D01*
X102767634Y-108868739D01*
X102767641Y-108868738D01*
X102767646Y-108868735D01*
X102767650Y-108868734D01*
X103010769Y-108751654D01*
X103010769Y-108751653D01*
X103010775Y-108751651D01*
X103233741Y-108599635D01*
X103431561Y-108416085D01*
X103599815Y-108205102D01*
X103734743Y-107971398D01*
X103833334Y-107720195D01*
X103893383Y-107457103D01*
X103913549Y-107188000D01*
X103911825Y-107165000D01*
X109859632Y-107165000D01*
X110722791Y-107165000D01*
X110702000Y-107242591D01*
X110702000Y-107387409D01*
X110722791Y-107465000D01*
X109859632Y-107465000D01*
X109866362Y-107546225D01*
X109866364Y-107546234D01*
X109923316Y-107771133D01*
X109923319Y-107771140D01*
X110016516Y-107983609D01*
X110143416Y-108177845D01*
X110300549Y-108348537D01*
X110483652Y-108491052D01*
X110687699Y-108601477D01*
X110687701Y-108601478D01*
X110907137Y-108676810D01*
X110907146Y-108676812D01*
X111101999Y-108709326D01*
X111102000Y-108709326D01*
X111102000Y-107844209D01*
X111179591Y-107865000D01*
X111324409Y-107865000D01*
X111402000Y-107844209D01*
X111402000Y-108709326D01*
X111596853Y-108676812D01*
X111596862Y-108676810D01*
X111816298Y-108601478D01*
X111816300Y-108601477D01*
X112020347Y-108491052D01*
X112203450Y-108348537D01*
X112360583Y-108177845D01*
X112487483Y-107983609D01*
X112580680Y-107771140D01*
X112580683Y-107771133D01*
X112637635Y-107546234D01*
X112637637Y-107546225D01*
X112644368Y-107465000D01*
X111781209Y-107465000D01*
X111787373Y-107441996D01*
X154512778Y-107441996D01*
X154512778Y-107442003D01*
X154531643Y-107729834D01*
X154531645Y-107729849D01*
X154587919Y-108012754D01*
X154587920Y-108012758D01*
X154634849Y-108151005D01*
X154680641Y-108285902D01*
X154680644Y-108285908D01*
X154808220Y-108544608D01*
X154968473Y-108784445D01*
X154968476Y-108784449D01*
X155158672Y-109001327D01*
X155243099Y-109075367D01*
X155375546Y-109191520D01*
X155375548Y-109191521D01*
X155375550Y-109191523D01*
X155375554Y-109191526D01*
X155487404Y-109266261D01*
X155615389Y-109351778D01*
X155874098Y-109479359D01*
X156147247Y-109572081D01*
X156362831Y-109614963D01*
X156430150Y-109628354D01*
X156430152Y-109628354D01*
X156430161Y-109628356D01*
X156578032Y-109638048D01*
X156717997Y-109647222D01*
X156718000Y-109647222D01*
X156718003Y-109647222D01*
X156825939Y-109640147D01*
X157005839Y-109628356D01*
X157288753Y-109572081D01*
X157561902Y-109479359D01*
X157820611Y-109351778D01*
X158060454Y-109191520D01*
X158277327Y-109001327D01*
X158467520Y-108784454D01*
X158627778Y-108544611D01*
X158755359Y-108285902D01*
X158848081Y-108012753D01*
X158904356Y-107729839D01*
X158917632Y-107527292D01*
X158923222Y-107442003D01*
X158923222Y-107441996D01*
X158904356Y-107154165D01*
X158904356Y-107154161D01*
X158848081Y-106871247D01*
X158755359Y-106598098D01*
X158627778Y-106339389D01*
X158515196Y-106170898D01*
X158467526Y-106099554D01*
X158467523Y-106099550D01*
X158467521Y-106099548D01*
X158467520Y-106099546D01*
X158339168Y-105953189D01*
X158277327Y-105882672D01*
X158060449Y-105692476D01*
X158060445Y-105692473D01*
X157820608Y-105532220D01*
X157561908Y-105404644D01*
X157561902Y-105404641D01*
X157409753Y-105352993D01*
X157288758Y-105311920D01*
X157288754Y-105311919D01*
X157005849Y-105255645D01*
X157005834Y-105255643D01*
X156718003Y-105236778D01*
X156717997Y-105236778D01*
X156430165Y-105255643D01*
X156430150Y-105255645D01*
X156147245Y-105311919D01*
X156147241Y-105311920D01*
X155878855Y-105403025D01*
X155874098Y-105404641D01*
X155874095Y-105404642D01*
X155874091Y-105404644D01*
X155615391Y-105532220D01*
X155375554Y-105692473D01*
X155375550Y-105692476D01*
X155158672Y-105882672D01*
X154968476Y-106099550D01*
X154968473Y-106099554D01*
X154808220Y-106339391D01*
X154680644Y-106598091D01*
X154680640Y-106598101D01*
X154587920Y-106871241D01*
X154587919Y-106871245D01*
X154531645Y-107154150D01*
X154531643Y-107154165D01*
X154512778Y-107441996D01*
X111787373Y-107441996D01*
X111802000Y-107387409D01*
X111802000Y-107242591D01*
X111781209Y-107165000D01*
X112644367Y-107165000D01*
X112637637Y-107083774D01*
X112637635Y-107083765D01*
X112580683Y-106858866D01*
X112580680Y-106858859D01*
X112487483Y-106646390D01*
X112360583Y-106452154D01*
X112203450Y-106281462D01*
X112020347Y-106138947D01*
X111816300Y-106028522D01*
X111816298Y-106028521D01*
X111596862Y-105953189D01*
X111596855Y-105953187D01*
X111402000Y-105920672D01*
X111402000Y-106785790D01*
X111324409Y-106765000D01*
X111179591Y-106765000D01*
X111102000Y-106785790D01*
X111102000Y-105920672D01*
X110907144Y-105953187D01*
X110907137Y-105953189D01*
X110687701Y-106028521D01*
X110687699Y-106028522D01*
X110483652Y-106138947D01*
X110300549Y-106281462D01*
X110143416Y-106452154D01*
X110016516Y-106646390D01*
X109923319Y-106858859D01*
X109923316Y-106858866D01*
X109866364Y-107083765D01*
X109866362Y-107083774D01*
X109859632Y-107165000D01*
X103911825Y-107165000D01*
X103893383Y-106918897D01*
X103833334Y-106655805D01*
X103734743Y-106404602D01*
X103734742Y-106404601D01*
X103734741Y-106404597D01*
X103599817Y-106170901D01*
X103595906Y-106165997D01*
X103431561Y-105959915D01*
X103233741Y-105776365D01*
X103110699Y-105692476D01*
X103010777Y-105624350D01*
X103010769Y-105624345D01*
X102767650Y-105507265D01*
X102767632Y-105507258D01*
X102509782Y-105427722D01*
X102509774Y-105427720D01*
X102509772Y-105427720D01*
X102242929Y-105387500D01*
X101973071Y-105387500D01*
X101706228Y-105427720D01*
X101706226Y-105427720D01*
X101706217Y-105427722D01*
X101448367Y-105507258D01*
X101448355Y-105507263D01*
X101205223Y-105624350D01*
X101205216Y-105624354D01*
X100982265Y-105776360D01*
X100982260Y-105776364D01*
X100784439Y-105959914D01*
X100616182Y-106170901D01*
X100481258Y-106404597D01*
X100481255Y-106404605D01*
X100382665Y-106655806D01*
X100322617Y-106918893D01*
X100302451Y-107188000D01*
X76200000Y-107188000D01*
X76200000Y-104765491D01*
X84131500Y-104765491D01*
X84131500Y-105060508D01*
X84170005Y-105352985D01*
X84170006Y-105352991D01*
X84170007Y-105352993D01*
X84246361Y-105637952D01*
X84359257Y-105910507D01*
X84359258Y-105910508D01*
X84359263Y-105910519D01*
X84506759Y-106165990D01*
X84506764Y-106165997D01*
X84686346Y-106400033D01*
X84686365Y-106400054D01*
X84894945Y-106608634D01*
X84894966Y-106608653D01*
X85129002Y-106788235D01*
X85129009Y-106788240D01*
X85384480Y-106935736D01*
X85384484Y-106935737D01*
X85384493Y-106935743D01*
X85657048Y-107048639D01*
X85942007Y-107124993D01*
X85942013Y-107124993D01*
X85942014Y-107124994D01*
X85975574Y-107129412D01*
X86234494Y-107163500D01*
X86234501Y-107163500D01*
X88529499Y-107163500D01*
X88529506Y-107163500D01*
X88821993Y-107124993D01*
X89106952Y-107048639D01*
X89379507Y-106935743D01*
X89634994Y-106788238D01*
X89869042Y-106608646D01*
X90077646Y-106400042D01*
X90257238Y-106165994D01*
X90404743Y-105910507D01*
X90517639Y-105637952D01*
X90593993Y-105352993D01*
X90632500Y-105060506D01*
X90632500Y-104765494D01*
X90617031Y-104647996D01*
X95330778Y-104647996D01*
X95330778Y-104648003D01*
X95349643Y-104935834D01*
X95349645Y-104935849D01*
X95405919Y-105218754D01*
X95405920Y-105218758D01*
X95463201Y-105387500D01*
X95498641Y-105491902D01*
X95498644Y-105491908D01*
X95626220Y-105750608D01*
X95786473Y-105990445D01*
X95786476Y-105990449D01*
X95976672Y-106207327D01*
X96114009Y-106327767D01*
X96193546Y-106397520D01*
X96193548Y-106397521D01*
X96193550Y-106397523D01*
X96193554Y-106397526D01*
X96351981Y-106503383D01*
X96433389Y-106557778D01*
X96692098Y-106685359D01*
X96965247Y-106778081D01*
X97180831Y-106820963D01*
X97248150Y-106834354D01*
X97248152Y-106834354D01*
X97248161Y-106834356D01*
X97412640Y-106845136D01*
X97535997Y-106853222D01*
X97536000Y-106853222D01*
X97536003Y-106853222D01*
X97643939Y-106846147D01*
X97823839Y-106834356D01*
X98106753Y-106778081D01*
X98379902Y-106685359D01*
X98638611Y-106557778D01*
X98878454Y-106397520D01*
X99095327Y-106207327D01*
X99285520Y-105990454D01*
X99445778Y-105750611D01*
X99573359Y-105491902D01*
X99666081Y-105218753D01*
X99722356Y-104935839D01*
X99741222Y-104648000D01*
X99741222Y-104647996D01*
X104474778Y-104647996D01*
X104474778Y-104648003D01*
X104493643Y-104935834D01*
X104493645Y-104935849D01*
X104549919Y-105218754D01*
X104549920Y-105218758D01*
X104607201Y-105387500D01*
X104642641Y-105491902D01*
X104642644Y-105491908D01*
X104770220Y-105750608D01*
X104930473Y-105990445D01*
X104930476Y-105990449D01*
X105120672Y-106207327D01*
X105258009Y-106327767D01*
X105337546Y-106397520D01*
X105337548Y-106397521D01*
X105337550Y-106397523D01*
X105337554Y-106397526D01*
X105495981Y-106503383D01*
X105577389Y-106557778D01*
X105836098Y-106685359D01*
X106109247Y-106778081D01*
X106324831Y-106820963D01*
X106392150Y-106834354D01*
X106392152Y-106834354D01*
X106392161Y-106834356D01*
X106556640Y-106845136D01*
X106679997Y-106853222D01*
X106680000Y-106853222D01*
X106680003Y-106853222D01*
X106787939Y-106846147D01*
X106967839Y-106834356D01*
X107250753Y-106778081D01*
X107523902Y-106685359D01*
X107782611Y-106557778D01*
X108022454Y-106397520D01*
X108239327Y-106207327D01*
X108429520Y-105990454D01*
X108589778Y-105750611D01*
X108717359Y-105491902D01*
X108810081Y-105218753D01*
X108866356Y-104935839D01*
X108885222Y-104648000D01*
X108866356Y-104360161D01*
X108810081Y-104077247D01*
X108717359Y-103804098D01*
X108589778Y-103545389D01*
X108509968Y-103425945D01*
X108429526Y-103305554D01*
X108429523Y-103305550D01*
X108429521Y-103305548D01*
X108429520Y-103305546D01*
X108352187Y-103217365D01*
X108239327Y-103088672D01*
X108022449Y-102898476D01*
X108022445Y-102898473D01*
X107782608Y-102738220D01*
X107523908Y-102610644D01*
X107523902Y-102610641D01*
X107382084Y-102562500D01*
X107250758Y-102517920D01*
X107250754Y-102517919D01*
X106967849Y-102461645D01*
X106967834Y-102461643D01*
X106680003Y-102442778D01*
X106679997Y-102442778D01*
X106392165Y-102461643D01*
X106392150Y-102461645D01*
X106109245Y-102517919D01*
X106109241Y-102517920D01*
X105840855Y-102609025D01*
X105836098Y-102610641D01*
X105836095Y-102610642D01*
X105836091Y-102610644D01*
X105577391Y-102738220D01*
X105337554Y-102898473D01*
X105337550Y-102898476D01*
X105120672Y-103088672D01*
X104930476Y-103305550D01*
X104930473Y-103305554D01*
X104770220Y-103545391D01*
X104642644Y-103804091D01*
X104642640Y-103804101D01*
X104549920Y-104077241D01*
X104549919Y-104077245D01*
X104493645Y-104360150D01*
X104493643Y-104360165D01*
X104474778Y-104647996D01*
X99741222Y-104647996D01*
X99722356Y-104360161D01*
X99666081Y-104077247D01*
X99573359Y-103804098D01*
X99445778Y-103545389D01*
X99365968Y-103425945D01*
X99285526Y-103305554D01*
X99285523Y-103305550D01*
X99285521Y-103305548D01*
X99285520Y-103305546D01*
X99208187Y-103217365D01*
X99095327Y-103088672D01*
X98878449Y-102898476D01*
X98878445Y-102898473D01*
X98638608Y-102738220D01*
X98379908Y-102610644D01*
X98379902Y-102610641D01*
X98238084Y-102562500D01*
X98106758Y-102517920D01*
X98106754Y-102517919D01*
X97823849Y-102461645D01*
X97823834Y-102461643D01*
X97536003Y-102442778D01*
X97535997Y-102442778D01*
X97248165Y-102461643D01*
X97248150Y-102461645D01*
X96965245Y-102517919D01*
X96965241Y-102517920D01*
X96696855Y-102609025D01*
X96692098Y-102610641D01*
X96692095Y-102610642D01*
X96692091Y-102610644D01*
X96433391Y-102738220D01*
X96193554Y-102898473D01*
X96193550Y-102898476D01*
X95976672Y-103088672D01*
X95786476Y-103305550D01*
X95786473Y-103305554D01*
X95626220Y-103545391D01*
X95498644Y-103804091D01*
X95498640Y-103804101D01*
X95405920Y-104077241D01*
X95405919Y-104077245D01*
X95349645Y-104360150D01*
X95349643Y-104360165D01*
X95330778Y-104647996D01*
X90617031Y-104647996D01*
X90593993Y-104473007D01*
X90517639Y-104188048D01*
X90404743Y-103915493D01*
X90404737Y-103915484D01*
X90404736Y-103915480D01*
X90257240Y-103660009D01*
X90257235Y-103660002D01*
X90077653Y-103425966D01*
X90077634Y-103425945D01*
X89869054Y-103217365D01*
X89869033Y-103217346D01*
X89634997Y-103037764D01*
X89634990Y-103037759D01*
X89379519Y-102890263D01*
X89379511Y-102890259D01*
X89379507Y-102890257D01*
X89106952Y-102777361D01*
X88821993Y-102701007D01*
X88821991Y-102701006D01*
X88821985Y-102701005D01*
X88529508Y-102662500D01*
X88529506Y-102662500D01*
X86234494Y-102662500D01*
X86234491Y-102662500D01*
X85942014Y-102701005D01*
X85657048Y-102777361D01*
X85384491Y-102890258D01*
X85384480Y-102890263D01*
X85129009Y-103037759D01*
X85129002Y-103037764D01*
X84894966Y-103217346D01*
X84894945Y-103217365D01*
X84686365Y-103425945D01*
X84686346Y-103425966D01*
X84506764Y-103660002D01*
X84506759Y-103660009D01*
X84359263Y-103915480D01*
X84359258Y-103915491D01*
X84246361Y-104188048D01*
X84170005Y-104473014D01*
X84131500Y-104765491D01*
X76200000Y-104765491D01*
X76200000Y-95299924D01*
X104479500Y-95299924D01*
X104479500Y-97815986D01*
X104479501Y-97815996D01*
X104489360Y-97926904D01*
X104490114Y-97935377D01*
X104544264Y-98124622D01*
X104546092Y-98131010D01*
X104638200Y-98307343D01*
X104640302Y-98311366D01*
X104768891Y-98469068D01*
X104926593Y-98597657D01*
X105106951Y-98691868D01*
X105302582Y-98747845D01*
X105421963Y-98758459D01*
X107938036Y-98758458D01*
X108057418Y-98747845D01*
X108253049Y-98691868D01*
X108433407Y-98597657D01*
X108591109Y-98469068D01*
X108719698Y-98311366D01*
X108813909Y-98131008D01*
X108869886Y-97935377D01*
X108880500Y-97815996D01*
X108880500Y-96613996D01*
X123865215Y-96613996D01*
X123865215Y-96614003D01*
X123884933Y-96914849D01*
X123884935Y-96914864D01*
X123943754Y-97210562D01*
X123943755Y-97210566D01*
X124040667Y-97496056D01*
X124040671Y-97496066D01*
X124174016Y-97766465D01*
X124341519Y-98017153D01*
X124441200Y-98130816D01*
X124441201Y-98130816D01*
X125364221Y-97207796D01*
X125393399Y-97251463D01*
X125532687Y-97390751D01*
X125576352Y-97419927D01*
X124653332Y-98342947D01*
X124653332Y-98342948D01*
X124767001Y-98442633D01*
X125017684Y-98610133D01*
X125288083Y-98743478D01*
X125288093Y-98743482D01*
X125573583Y-98840394D01*
X125573587Y-98840395D01*
X125869285Y-98899214D01*
X125869300Y-98899216D01*
X126170147Y-98918935D01*
X126170153Y-98918935D01*
X126470999Y-98899216D01*
X126471014Y-98899214D01*
X126766712Y-98840395D01*
X126766716Y-98840394D01*
X127052206Y-98743482D01*
X127052216Y-98743478D01*
X127322615Y-98610133D01*
X127573304Y-98442630D01*
X127686966Y-98342949D01*
X127686966Y-98342947D01*
X126763946Y-97419927D01*
X126807613Y-97390751D01*
X126946901Y-97251463D01*
X126976077Y-97207796D01*
X127899097Y-98130816D01*
X127899099Y-98130816D01*
X127998780Y-98017154D01*
X128166283Y-97766465D01*
X128299628Y-97496066D01*
X128299632Y-97496056D01*
X128396544Y-97210566D01*
X128396545Y-97210562D01*
X128455364Y-96914864D01*
X128455366Y-96914849D01*
X128475085Y-96614003D01*
X128475085Y-96613996D01*
X128455366Y-96313150D01*
X128455364Y-96313135D01*
X128396545Y-96017437D01*
X128396544Y-96017433D01*
X128299632Y-95731943D01*
X128299628Y-95731933D01*
X128166283Y-95461535D01*
X127998779Y-95210846D01*
X127899098Y-95097182D01*
X127899097Y-95097182D01*
X126976077Y-96020202D01*
X126946901Y-95976537D01*
X126807613Y-95837249D01*
X126763946Y-95808071D01*
X127576017Y-94996000D01*
X144544859Y-94996000D01*
X144565388Y-95243743D01*
X144626411Y-95484716D01*
X144726266Y-95712364D01*
X144726270Y-95712370D01*
X144862229Y-95920473D01*
X144886752Y-95947113D01*
X145533123Y-95300742D01*
X145569881Y-95364408D01*
X145681592Y-95476119D01*
X145745255Y-95512875D01*
X145100417Y-96157712D01*
X145100417Y-96157713D01*
X145226765Y-96256053D01*
X145226766Y-96256054D01*
X145445392Y-96374367D01*
X145445394Y-96374369D01*
X145680505Y-96455082D01*
X145680512Y-96455084D01*
X145925710Y-96496000D01*
X146174290Y-96496000D01*
X146419487Y-96455084D01*
X146419494Y-96455082D01*
X146654605Y-96374369D01*
X146654607Y-96374367D01*
X146873231Y-96256054D01*
X146873241Y-96256048D01*
X146999580Y-96157713D01*
X146999581Y-96157712D01*
X146354744Y-95512875D01*
X146418408Y-95476119D01*
X146530119Y-95364408D01*
X146566875Y-95300744D01*
X147213245Y-95947114D01*
X147213246Y-95947113D01*
X147237764Y-95920481D01*
X147237769Y-95920475D01*
X147278627Y-95857937D01*
X159199500Y-95857937D01*
X159199500Y-96166062D01*
X159239716Y-96471536D01*
X159239717Y-96471542D01*
X159239718Y-96471544D01*
X159319465Y-96769164D01*
X159437378Y-97053830D01*
X159437379Y-97053831D01*
X159437384Y-97053842D01*
X159591440Y-97320675D01*
X159779004Y-97565111D01*
X159779023Y-97565132D01*
X159979247Y-97765356D01*
X160013273Y-97827668D01*
X160008208Y-97898483D01*
X159965661Y-97955319D01*
X159942261Y-97969171D01*
X159830372Y-98019993D01*
X159830367Y-98019997D01*
X159645348Y-98148178D01*
X159645343Y-98148182D01*
X159486182Y-98307343D01*
X159486178Y-98307348D01*
X159357997Y-98492367D01*
X159357991Y-98492375D01*
X159264906Y-98697311D01*
X159264903Y-98697320D01*
X159228851Y-98840395D01*
X159209904Y-98915589D01*
X159199500Y-99047784D01*
X159199500Y-101376216D01*
X159209904Y-101508411D01*
X159209905Y-101508414D01*
X159264903Y-101726679D01*
X159264906Y-101726688D01*
X159357991Y-101931624D01*
X159357997Y-101931632D01*
X159486178Y-102116651D01*
X159486182Y-102116656D01*
X159645343Y-102275817D01*
X159645348Y-102275821D01*
X159830367Y-102404002D01*
X159830375Y-102404008D01*
X159957269Y-102461645D01*
X160035317Y-102497096D01*
X160253589Y-102552096D01*
X160385784Y-102562500D01*
X160385786Y-102562500D01*
X163314214Y-102562500D01*
X163314216Y-102562500D01*
X163446411Y-102552096D01*
X163664683Y-102497096D01*
X163869626Y-102404007D01*
X164054654Y-102275819D01*
X164213819Y-102116654D01*
X164342007Y-101931626D01*
X164435096Y-101726683D01*
X164490096Y-101508411D01*
X164500500Y-101376216D01*
X164500500Y-99047784D01*
X164490096Y-98915589D01*
X164435096Y-98697317D01*
X164372872Y-98560326D01*
X164342008Y-98492375D01*
X164342002Y-98492367D01*
X164325860Y-98469068D01*
X164298347Y-98429355D01*
X164213821Y-98307348D01*
X164213817Y-98307343D01*
X164054656Y-98148182D01*
X164054651Y-98148178D01*
X163869632Y-98019997D01*
X163869627Y-98019994D01*
X163869628Y-98019994D01*
X163869626Y-98019993D01*
X163760800Y-97970562D01*
X163757738Y-97969171D01*
X163703988Y-97922788D01*
X163683847Y-97854708D01*
X163703710Y-97786546D01*
X163720747Y-97765360D01*
X163920991Y-97565117D01*
X164054787Y-97390751D01*
X164108559Y-97320675D01*
X164172131Y-97210566D01*
X164262622Y-97053830D01*
X164380535Y-96769164D01*
X164460282Y-96471544D01*
X164469455Y-96401868D01*
X164475078Y-96359159D01*
X164503800Y-96294232D01*
X164563065Y-96255140D01*
X164634057Y-96254295D01*
X164694236Y-96291965D01*
X164724495Y-96356190D01*
X164724922Y-96359159D01*
X164739716Y-96471536D01*
X164739717Y-96471542D01*
X164739718Y-96471544D01*
X164819465Y-96769164D01*
X164937378Y-97053830D01*
X164937379Y-97053831D01*
X164937384Y-97053842D01*
X165091440Y-97320675D01*
X165279004Y-97565111D01*
X165279023Y-97565132D01*
X165496867Y-97782976D01*
X165496877Y-97782985D01*
X165496883Y-97782991D01*
X165496886Y-97782993D01*
X165496888Y-97782995D01*
X165741324Y-97970559D01*
X166008157Y-98124615D01*
X166008161Y-98124616D01*
X166008170Y-98124622D01*
X166292836Y-98242535D01*
X166590456Y-98322282D01*
X166590460Y-98322282D01*
X166590462Y-98322283D01*
X166667562Y-98332433D01*
X166735429Y-98341368D01*
X166800356Y-98370090D01*
X166839448Y-98429355D01*
X166840293Y-98500347D01*
X166802623Y-98560526D01*
X166738695Y-98590739D01*
X166663617Y-98602630D01*
X166416624Y-98682883D01*
X166416618Y-98682886D01*
X166185208Y-98800796D01*
X165975094Y-98953453D01*
X165975091Y-98953455D01*
X165791455Y-99137091D01*
X165791453Y-99137094D01*
X165638796Y-99347208D01*
X165520886Y-99578618D01*
X165520883Y-99578624D01*
X165440630Y-99825619D01*
X165403190Y-100062000D01*
X166666123Y-100062000D01*
X166650000Y-100143056D01*
X166650000Y-100280944D01*
X166666123Y-100362000D01*
X165403190Y-100362000D01*
X165440630Y-100598380D01*
X165520883Y-100845375D01*
X165520886Y-100845381D01*
X165638796Y-101076791D01*
X165791453Y-101286905D01*
X165791455Y-101286908D01*
X165975091Y-101470544D01*
X165975094Y-101470546D01*
X166185208Y-101623203D01*
X166416618Y-101741113D01*
X166416624Y-101741116D01*
X166663620Y-101821369D01*
X166663616Y-101821369D01*
X166920145Y-101862000D01*
X167200000Y-101862000D01*
X167200000Y-100895876D01*
X167281056Y-100912000D01*
X167418944Y-100912000D01*
X167500000Y-100895876D01*
X167500000Y-101862000D01*
X167779855Y-101862000D01*
X168036381Y-101821369D01*
X168283375Y-101741116D01*
X168283381Y-101741113D01*
X168514791Y-101623203D01*
X168724905Y-101470546D01*
X168724908Y-101470544D01*
X168908544Y-101286908D01*
X168908546Y-101286905D01*
X169061203Y-101076791D01*
X169179113Y-100845381D01*
X169179116Y-100845375D01*
X169259369Y-100598380D01*
X169296810Y-100362000D01*
X168033877Y-100362000D01*
X168050000Y-100280944D01*
X168050000Y-100143056D01*
X168033877Y-100062000D01*
X169296809Y-100062000D01*
X169259369Y-99825619D01*
X169179116Y-99578624D01*
X169179113Y-99578618D01*
X169061203Y-99347208D01*
X168908546Y-99137094D01*
X168908544Y-99137091D01*
X168724908Y-98953455D01*
X168724905Y-98953453D01*
X168514791Y-98800796D01*
X168283381Y-98682886D01*
X168283375Y-98682883D01*
X168036382Y-98602630D01*
X167961304Y-98590739D01*
X167897152Y-98560326D01*
X167859625Y-98500057D01*
X167860639Y-98429068D01*
X167899872Y-98369896D01*
X167964568Y-98341368D01*
X168080754Y-98326072D01*
X168109537Y-98322283D01*
X168109537Y-98322282D01*
X168109544Y-98322282D01*
X168407164Y-98242535D01*
X168691830Y-98124622D01*
X168958670Y-97970562D01*
X168958670Y-97970561D01*
X168958675Y-97970559D01*
X169160117Y-97815986D01*
X169203117Y-97782991D01*
X169420991Y-97565117D01*
X169554787Y-97390751D01*
X169608559Y-97320675D01*
X169672131Y-97210566D01*
X169762622Y-97053830D01*
X169880535Y-96769164D01*
X169960282Y-96471544D01*
X170000500Y-96166060D01*
X170000500Y-95857940D01*
X169960282Y-95552456D01*
X169880535Y-95254836D01*
X169762622Y-94970170D01*
X169762616Y-94970161D01*
X169762615Y-94970157D01*
X169608559Y-94703324D01*
X169420995Y-94458888D01*
X169420993Y-94458886D01*
X169420991Y-94458883D01*
X169420985Y-94458877D01*
X169420976Y-94458867D01*
X169203132Y-94241023D01*
X169203111Y-94241004D01*
X168958673Y-94053440D01*
X168958670Y-94053438D01*
X168902690Y-94021118D01*
X168853698Y-93969738D01*
X168840261Y-93900024D01*
X168866648Y-93834113D01*
X168902689Y-93802882D01*
X168958670Y-93770562D01*
X169203117Y-93582991D01*
X169420991Y-93365117D01*
X169597727Y-93134791D01*
X169608559Y-93120675D01*
X169711083Y-92943099D01*
X169762622Y-92853830D01*
X169880535Y-92569164D01*
X169960282Y-92271544D01*
X170000500Y-91966060D01*
X170000500Y-91657940D01*
X169960282Y-91352456D01*
X169880535Y-91054836D01*
X169762622Y-90770170D01*
X169762616Y-90770161D01*
X169762615Y-90770157D01*
X169608559Y-90503324D01*
X169420995Y-90258888D01*
X169420993Y-90258886D01*
X169420991Y-90258883D01*
X169420985Y-90258877D01*
X169420976Y-90258867D01*
X169203132Y-90041023D01*
X169203111Y-90041004D01*
X168958675Y-89853440D01*
X168691842Y-89699384D01*
X168691834Y-89699380D01*
X168691830Y-89699378D01*
X168407164Y-89581465D01*
X168109544Y-89501718D01*
X168109542Y-89501717D01*
X168109536Y-89501716D01*
X167804062Y-89461500D01*
X167804060Y-89461500D01*
X166895940Y-89461500D01*
X166895937Y-89461500D01*
X166590463Y-89501716D01*
X166292836Y-89581465D01*
X166008168Y-89699379D01*
X166008157Y-89699384D01*
X165741324Y-89853440D01*
X165496888Y-90041004D01*
X165496867Y-90041023D01*
X165279023Y-90258867D01*
X165279004Y-90258888D01*
X165091440Y-90503324D01*
X164937384Y-90770157D01*
X164937379Y-90770168D01*
X164819465Y-91054836D01*
X164739716Y-91352463D01*
X164699500Y-91657937D01*
X164699500Y-91966062D01*
X164739716Y-92271536D01*
X164739717Y-92271542D01*
X164739718Y-92271544D01*
X164819465Y-92569164D01*
X164937378Y-92853830D01*
X164937379Y-92853831D01*
X164937384Y-92853842D01*
X165091440Y-93120675D01*
X165279004Y-93365111D01*
X165279023Y-93365132D01*
X165496867Y-93582976D01*
X165496877Y-93582985D01*
X165496883Y-93582991D01*
X165496886Y-93582993D01*
X165496888Y-93582995D01*
X165741321Y-93770557D01*
X165797308Y-93802881D01*
X165846301Y-93854264D01*
X165859736Y-93923978D01*
X165833349Y-93989888D01*
X165797308Y-94021119D01*
X165741321Y-94053442D01*
X165496888Y-94241004D01*
X165496867Y-94241023D01*
X165279023Y-94458867D01*
X165279004Y-94458888D01*
X165091440Y-94703324D01*
X164937384Y-94970157D01*
X164937379Y-94970168D01*
X164937378Y-94970170D01*
X164893960Y-95074991D01*
X164819465Y-95254836D01*
X164739716Y-95552463D01*
X164724922Y-95664840D01*
X164696200Y-95729767D01*
X164636935Y-95768859D01*
X164565943Y-95769704D01*
X164505764Y-95732034D01*
X164475505Y-95667809D01*
X164475078Y-95664840D01*
X164460283Y-95552463D01*
X164460282Y-95552462D01*
X164460282Y-95552456D01*
X164380535Y-95254836D01*
X164262622Y-94970170D01*
X164262616Y-94970161D01*
X164262615Y-94970157D01*
X164108559Y-94703324D01*
X163920995Y-94458888D01*
X163920993Y-94458886D01*
X163920991Y-94458883D01*
X163920985Y-94458877D01*
X163920976Y-94458867D01*
X163703132Y-94241023D01*
X163703111Y-94241004D01*
X163458675Y-94053440D01*
X163191842Y-93899384D01*
X163191834Y-93899380D01*
X163191830Y-93899378D01*
X162907164Y-93781465D01*
X162609544Y-93701718D01*
X162609537Y-93701716D01*
X162464569Y-93682631D01*
X162399642Y-93653908D01*
X162360551Y-93594643D01*
X162359706Y-93523652D01*
X162397376Y-93463473D01*
X162461306Y-93433260D01*
X162536380Y-93421369D01*
X162783375Y-93341116D01*
X162783381Y-93341113D01*
X163014791Y-93223203D01*
X163224905Y-93070546D01*
X163224908Y-93070544D01*
X163408544Y-92886908D01*
X163408546Y-92886905D01*
X163561203Y-92676791D01*
X163679113Y-92445381D01*
X163679116Y-92445375D01*
X163759369Y-92198380D01*
X163796810Y-91962000D01*
X162533877Y-91962000D01*
X162550000Y-91880944D01*
X162550000Y-91743056D01*
X162533877Y-91662000D01*
X163796809Y-91662000D01*
X163759369Y-91425619D01*
X163679116Y-91178624D01*
X163679113Y-91178618D01*
X163561203Y-90947208D01*
X163408546Y-90737094D01*
X163408544Y-90737091D01*
X163224908Y-90553455D01*
X163224905Y-90553453D01*
X163014791Y-90400796D01*
X162783381Y-90282886D01*
X162783375Y-90282883D01*
X162536379Y-90202630D01*
X162536383Y-90202630D01*
X162279855Y-90162000D01*
X162000000Y-90162000D01*
X162000000Y-91128123D01*
X161918944Y-91112000D01*
X161781056Y-91112000D01*
X161700000Y-91128123D01*
X161700000Y-90162000D01*
X161420145Y-90162000D01*
X161163618Y-90202630D01*
X160916624Y-90282883D01*
X160916618Y-90282886D01*
X160685208Y-90400796D01*
X160475094Y-90553453D01*
X160475091Y-90553455D01*
X160291455Y-90737091D01*
X160291453Y-90737094D01*
X160138796Y-90947208D01*
X160020886Y-91178618D01*
X160020883Y-91178624D01*
X159940630Y-91425619D01*
X159903190Y-91662000D01*
X161166123Y-91662000D01*
X161150000Y-91743056D01*
X161150000Y-91880944D01*
X161166123Y-91962000D01*
X159903190Y-91962000D01*
X159940630Y-92198380D01*
X160020883Y-92445375D01*
X160020886Y-92445381D01*
X160138796Y-92676791D01*
X160291453Y-92886905D01*
X160291455Y-92886908D01*
X160475091Y-93070544D01*
X160475094Y-93070546D01*
X160685208Y-93223203D01*
X160916618Y-93341113D01*
X160916624Y-93341116D01*
X161163620Y-93421369D01*
X161163618Y-93421369D01*
X161238693Y-93433260D01*
X161302846Y-93463672D01*
X161340374Y-93523940D01*
X161339360Y-93594930D01*
X161300128Y-93654102D01*
X161235430Y-93682631D01*
X161090462Y-93701716D01*
X160792836Y-93781465D01*
X160617085Y-93854264D01*
X160508168Y-93899379D01*
X160508157Y-93899384D01*
X160241324Y-94053440D01*
X159996888Y-94241004D01*
X159996867Y-94241023D01*
X159779023Y-94458867D01*
X159779004Y-94458888D01*
X159591440Y-94703324D01*
X159437384Y-94970157D01*
X159437379Y-94970168D01*
X159437378Y-94970170D01*
X159393960Y-95074991D01*
X159319465Y-95254836D01*
X159239716Y-95552463D01*
X159199500Y-95857937D01*
X147278627Y-95857937D01*
X147373729Y-95712370D01*
X147373733Y-95712364D01*
X147473588Y-95484716D01*
X147534611Y-95243743D01*
X147555140Y-94996000D01*
X147534611Y-94748256D01*
X147473588Y-94507283D01*
X147373733Y-94279635D01*
X147373729Y-94279629D01*
X147237770Y-94071526D01*
X147213245Y-94044884D01*
X146566874Y-94691254D01*
X146530119Y-94627592D01*
X146418408Y-94515881D01*
X146354744Y-94479124D01*
X146999580Y-93834287D01*
X146999580Y-93834286D01*
X146873234Y-93735946D01*
X146873233Y-93735945D01*
X146654607Y-93617632D01*
X146654605Y-93617630D01*
X146419494Y-93536917D01*
X146419487Y-93536915D01*
X146174290Y-93496000D01*
X145925710Y-93496000D01*
X145680512Y-93536915D01*
X145680505Y-93536917D01*
X145445394Y-93617630D01*
X145445392Y-93617631D01*
X145226763Y-93735948D01*
X145100418Y-93834286D01*
X145100418Y-93834287D01*
X145745255Y-94479124D01*
X145681592Y-94515881D01*
X145569881Y-94627592D01*
X145533124Y-94691255D01*
X144886753Y-94044884D01*
X144886753Y-94044885D01*
X144862232Y-94071523D01*
X144862227Y-94071528D01*
X144726270Y-94279629D01*
X144726266Y-94279635D01*
X144626411Y-94507283D01*
X144565388Y-94748256D01*
X144544859Y-94996000D01*
X127576017Y-94996000D01*
X127686966Y-94885051D01*
X127686966Y-94885050D01*
X127573303Y-94785369D01*
X127322615Y-94617866D01*
X127052216Y-94484521D01*
X127052206Y-94484517D01*
X126766716Y-94387605D01*
X126766712Y-94387604D01*
X126471014Y-94328785D01*
X126470999Y-94328783D01*
X126170153Y-94309065D01*
X126170147Y-94309065D01*
X125869300Y-94328783D01*
X125869285Y-94328785D01*
X125573587Y-94387604D01*
X125573583Y-94387605D01*
X125288093Y-94484517D01*
X125288083Y-94484521D01*
X125017685Y-94617866D01*
X124766994Y-94785371D01*
X124766990Y-94785374D01*
X124653332Y-94885049D01*
X124653332Y-94885051D01*
X125576353Y-95808072D01*
X125532687Y-95837249D01*
X125393399Y-95976537D01*
X125364222Y-96020203D01*
X124441201Y-95097182D01*
X124441199Y-95097182D01*
X124341524Y-95210840D01*
X124341521Y-95210844D01*
X124174016Y-95461535D01*
X124040671Y-95731933D01*
X124040667Y-95731943D01*
X123943755Y-96017433D01*
X123943754Y-96017437D01*
X123884935Y-96313135D01*
X123884933Y-96313150D01*
X123865215Y-96613996D01*
X108880500Y-96613996D01*
X108880499Y-95299923D01*
X108869886Y-95180541D01*
X108813909Y-94984910D01*
X108719698Y-94804552D01*
X108591109Y-94646850D01*
X108433407Y-94518261D01*
X108433405Y-94518260D01*
X108433404Y-94518259D01*
X108253051Y-94424051D01*
X108253050Y-94424050D01*
X108253049Y-94424050D01*
X108057418Y-94368073D01*
X107938037Y-94357459D01*
X107938032Y-94357459D01*
X105421972Y-94357459D01*
X105421962Y-94357460D01*
X105302588Y-94368072D01*
X105302585Y-94368072D01*
X105302582Y-94368073D01*
X105106951Y-94424050D01*
X105106948Y-94424051D01*
X104926595Y-94518259D01*
X104768891Y-94646850D01*
X104640300Y-94804554D01*
X104546092Y-94984907D01*
X104546091Y-94984909D01*
X104546091Y-94984910D01*
X104490114Y-95180541D01*
X104490114Y-95180547D01*
X104479500Y-95299924D01*
X76200000Y-95299924D01*
X76200000Y-92115937D01*
X80443500Y-92115937D01*
X80443500Y-92424062D01*
X80483716Y-92729536D01*
X80483717Y-92729542D01*
X80483718Y-92729544D01*
X80563465Y-93027164D01*
X80681378Y-93311830D01*
X80681379Y-93311831D01*
X80681384Y-93311842D01*
X80835440Y-93578675D01*
X81023004Y-93823111D01*
X81023023Y-93823132D01*
X81240867Y-94040976D01*
X81240877Y-94040985D01*
X81240883Y-94040991D01*
X81240886Y-94040993D01*
X81240888Y-94040995D01*
X81485324Y-94228559D01*
X81752157Y-94382615D01*
X81752161Y-94382616D01*
X81752170Y-94382622D01*
X82036836Y-94500535D01*
X82334456Y-94580282D01*
X82334462Y-94580282D01*
X82334463Y-94580283D01*
X82369515Y-94584897D01*
X82639940Y-94620500D01*
X82639947Y-94620500D01*
X83548053Y-94620500D01*
X83548060Y-94620500D01*
X83853544Y-94580282D01*
X84151164Y-94500535D01*
X84435830Y-94382622D01*
X84702670Y-94228562D01*
X84702670Y-94228561D01*
X84702675Y-94228559D01*
X84907323Y-94071526D01*
X84947117Y-94040991D01*
X85164991Y-93823117D01*
X85273886Y-93681203D01*
X85352559Y-93578675D01*
X85400292Y-93496000D01*
X85506622Y-93311830D01*
X85624535Y-93027164D01*
X85704282Y-92729544D01*
X85744500Y-92424060D01*
X85744500Y-92115940D01*
X85704282Y-91810456D01*
X85624535Y-91512836D01*
X85506622Y-91228170D01*
X85506616Y-91228161D01*
X85506615Y-91228157D01*
X85352559Y-90961324D01*
X85164995Y-90716888D01*
X85164993Y-90716886D01*
X85164991Y-90716883D01*
X85164985Y-90716877D01*
X85164976Y-90716867D01*
X84947132Y-90499023D01*
X84947111Y-90499004D01*
X84702675Y-90311440D01*
X84435842Y-90157384D01*
X84435834Y-90157380D01*
X84435830Y-90157378D01*
X84151164Y-90039465D01*
X83947881Y-89984995D01*
X83853537Y-89959716D01*
X83708569Y-89940631D01*
X83643642Y-89911908D01*
X83604551Y-89852643D01*
X83603706Y-89781652D01*
X83641376Y-89721473D01*
X83705306Y-89691260D01*
X83780380Y-89679369D01*
X84027375Y-89599116D01*
X84027381Y-89599113D01*
X84258791Y-89481203D01*
X84468905Y-89328546D01*
X84468908Y-89328544D01*
X84652544Y-89144908D01*
X84652546Y-89144905D01*
X84805203Y-88934791D01*
X84923113Y-88703381D01*
X84923116Y-88703375D01*
X85003369Y-88456380D01*
X85040810Y-88220000D01*
X83777877Y-88220000D01*
X83794000Y-88138944D01*
X83794000Y-88001056D01*
X83777877Y-87920000D01*
X85040809Y-87920000D01*
X85003369Y-87683619D01*
X84923116Y-87436624D01*
X84923113Y-87436618D01*
X84805203Y-87205208D01*
X84652546Y-86995094D01*
X84652544Y-86995091D01*
X84563237Y-86905784D01*
X85943500Y-86905784D01*
X85943500Y-89234216D01*
X85953904Y-89366411D01*
X85982829Y-89481203D01*
X86008903Y-89584679D01*
X86008906Y-89584688D01*
X86101991Y-89789624D01*
X86101997Y-89789632D01*
X86230178Y-89974651D01*
X86230182Y-89974656D01*
X86389343Y-90133817D01*
X86389348Y-90133821D01*
X86574367Y-90262002D01*
X86574375Y-90262008D01*
X86683200Y-90311438D01*
X86779317Y-90355096D01*
X86997589Y-90410096D01*
X87129784Y-90420500D01*
X87129786Y-90420500D01*
X87851132Y-90420500D01*
X87919253Y-90440502D01*
X87965746Y-90494158D01*
X87975850Y-90564432D01*
X87946356Y-90629012D01*
X87890068Y-90666333D01*
X87660624Y-90740883D01*
X87660618Y-90740886D01*
X87429208Y-90858796D01*
X87219094Y-91011453D01*
X87219091Y-91011455D01*
X87035455Y-91195091D01*
X87035453Y-91195094D01*
X86882796Y-91405208D01*
X86764886Y-91636618D01*
X86764883Y-91636624D01*
X86684630Y-91883619D01*
X86647190Y-92120000D01*
X87910123Y-92120000D01*
X87894000Y-92201056D01*
X87894000Y-92338944D01*
X87910123Y-92420000D01*
X86647190Y-92420000D01*
X86684630Y-92656380D01*
X86764883Y-92903375D01*
X86764886Y-92903381D01*
X86882796Y-93134791D01*
X87035453Y-93344905D01*
X87035455Y-93344908D01*
X87219091Y-93528544D01*
X87219094Y-93528546D01*
X87429208Y-93681203D01*
X87660618Y-93799113D01*
X87660624Y-93799116D01*
X87907620Y-93879369D01*
X87907616Y-93879369D01*
X88164145Y-93920000D01*
X88444000Y-93920000D01*
X88444000Y-92953876D01*
X88525056Y-92970000D01*
X88662944Y-92970000D01*
X88744000Y-92953876D01*
X88744000Y-93920000D01*
X89023855Y-93920000D01*
X89280381Y-93879369D01*
X89527375Y-93799116D01*
X89527381Y-93799113D01*
X89758791Y-93681203D01*
X89968905Y-93528546D01*
X89968908Y-93528544D01*
X90152544Y-93344908D01*
X90152546Y-93344905D01*
X90305203Y-93134791D01*
X90423113Y-92903381D01*
X90423116Y-92903375D01*
X90503369Y-92656380D01*
X90540810Y-92420000D01*
X89277877Y-92420000D01*
X89294000Y-92338944D01*
X89294000Y-92201056D01*
X89277877Y-92120000D01*
X90540809Y-92120000D01*
X90503369Y-91883619D01*
X90423116Y-91636624D01*
X90423113Y-91636618D01*
X90383034Y-91557959D01*
X105174859Y-91557959D01*
X105195388Y-91805702D01*
X105256411Y-92046675D01*
X105356266Y-92274323D01*
X105356270Y-92274329D01*
X105492229Y-92482432D01*
X105516752Y-92509072D01*
X106163123Y-91862701D01*
X106199881Y-91926367D01*
X106311592Y-92038078D01*
X106375255Y-92074834D01*
X105730417Y-92719671D01*
X105730417Y-92719672D01*
X105856765Y-92818012D01*
X105856766Y-92818013D01*
X106075392Y-92936326D01*
X106075394Y-92936328D01*
X106310505Y-93017041D01*
X106310512Y-93017043D01*
X106555710Y-93057959D01*
X106804290Y-93057959D01*
X107049487Y-93017043D01*
X107049494Y-93017041D01*
X107284605Y-92936328D01*
X107284607Y-92936326D01*
X107503231Y-92818013D01*
X107503241Y-92818007D01*
X107629580Y-92719672D01*
X107629581Y-92719671D01*
X106984744Y-92074834D01*
X107048408Y-92038078D01*
X107160119Y-91926367D01*
X107196875Y-91862703D01*
X107843245Y-92509073D01*
X107843246Y-92509072D01*
X107867764Y-92482440D01*
X107867769Y-92482434D01*
X108003729Y-92274329D01*
X108003733Y-92274323D01*
X108103588Y-92046675D01*
X108164611Y-91805702D01*
X108185140Y-91557959D01*
X108164611Y-91310215D01*
X108103588Y-91069242D01*
X108003733Y-90841594D01*
X108003729Y-90841588D01*
X107867770Y-90633485D01*
X107843245Y-90606843D01*
X107196874Y-91253213D01*
X107160119Y-91189551D01*
X107048408Y-91077840D01*
X106984744Y-91041083D01*
X107629580Y-90396246D01*
X107629580Y-90396245D01*
X107503234Y-90297905D01*
X107503233Y-90297904D01*
X107284607Y-90179591D01*
X107284605Y-90179589D01*
X107049494Y-90098876D01*
X107049487Y-90098874D01*
X106804290Y-90057959D01*
X106555710Y-90057959D01*
X106310512Y-90098874D01*
X106310505Y-90098876D01*
X106075394Y-90179589D01*
X106075392Y-90179590D01*
X105856763Y-90297907D01*
X105730418Y-90396245D01*
X105730418Y-90396246D01*
X106375255Y-91041083D01*
X106311592Y-91077840D01*
X106199881Y-91189551D01*
X106163124Y-91253214D01*
X105516753Y-90606843D01*
X105516753Y-90606844D01*
X105492232Y-90633482D01*
X105492227Y-90633487D01*
X105356270Y-90841588D01*
X105356266Y-90841594D01*
X105256411Y-91069242D01*
X105195388Y-91310215D01*
X105174859Y-91557959D01*
X90383034Y-91557959D01*
X90305203Y-91405208D01*
X90152546Y-91195094D01*
X90152544Y-91195091D01*
X89968908Y-91011455D01*
X89968905Y-91011453D01*
X89758791Y-90858796D01*
X89527381Y-90740886D01*
X89527375Y-90740883D01*
X89297932Y-90666333D01*
X89239326Y-90626260D01*
X89211689Y-90560863D01*
X89223796Y-90490906D01*
X89271802Y-90438600D01*
X89336868Y-90420500D01*
X90058214Y-90420500D01*
X90058216Y-90420500D01*
X90190411Y-90410096D01*
X90408683Y-90355096D01*
X90613626Y-90262007D01*
X90798654Y-90133819D01*
X90957819Y-89974654D01*
X91086007Y-89789626D01*
X91179096Y-89584683D01*
X91234096Y-89366411D01*
X91244500Y-89234216D01*
X91244500Y-86905784D01*
X91234096Y-86773589D01*
X91179096Y-86555317D01*
X91136087Y-86460630D01*
X91086008Y-86350375D01*
X91086002Y-86350367D01*
X90957821Y-86165348D01*
X90957817Y-86165343D01*
X90798656Y-86006182D01*
X90798651Y-86006178D01*
X90613632Y-85877997D01*
X90613624Y-85877991D01*
X90408688Y-85784906D01*
X90408685Y-85784905D01*
X90408683Y-85784904D01*
X90190411Y-85729904D01*
X90058216Y-85719500D01*
X87129784Y-85719500D01*
X86997589Y-85729904D01*
X86997585Y-85729904D01*
X86997585Y-85729905D01*
X86779320Y-85784903D01*
X86779311Y-85784906D01*
X86574375Y-85877991D01*
X86574367Y-85877997D01*
X86389348Y-86006178D01*
X86389343Y-86006182D01*
X86230182Y-86165343D01*
X86230178Y-86165348D01*
X86101997Y-86350367D01*
X86101991Y-86350375D01*
X86008906Y-86555311D01*
X86008904Y-86555317D01*
X85953904Y-86773589D01*
X85943500Y-86905784D01*
X84563237Y-86905784D01*
X84468908Y-86811455D01*
X84468905Y-86811453D01*
X84258791Y-86658796D01*
X84027381Y-86540886D01*
X84027375Y-86540883D01*
X83780379Y-86460630D01*
X83780383Y-86460630D01*
X83523855Y-86420000D01*
X83244000Y-86420000D01*
X83244000Y-87386123D01*
X83162944Y-87370000D01*
X83025056Y-87370000D01*
X82944000Y-87386123D01*
X82944000Y-86420000D01*
X82664145Y-86420000D01*
X82407618Y-86460630D01*
X82160624Y-86540883D01*
X82160618Y-86540886D01*
X81929208Y-86658796D01*
X81719094Y-86811453D01*
X81719091Y-86811455D01*
X81535455Y-86995091D01*
X81535453Y-86995094D01*
X81382796Y-87205208D01*
X81264886Y-87436618D01*
X81264883Y-87436624D01*
X81184630Y-87683619D01*
X81147190Y-87920000D01*
X82410123Y-87920000D01*
X82394000Y-88001056D01*
X82394000Y-88138944D01*
X82410123Y-88220000D01*
X81147190Y-88220000D01*
X81184630Y-88456380D01*
X81264883Y-88703375D01*
X81264886Y-88703381D01*
X81382796Y-88934791D01*
X81535453Y-89144905D01*
X81535455Y-89144908D01*
X81719091Y-89328544D01*
X81719094Y-89328546D01*
X81929208Y-89481203D01*
X82160618Y-89599113D01*
X82160624Y-89599116D01*
X82407620Y-89679369D01*
X82407618Y-89679369D01*
X82482693Y-89691260D01*
X82546846Y-89721672D01*
X82584374Y-89781940D01*
X82583360Y-89852930D01*
X82544128Y-89912102D01*
X82479430Y-89940631D01*
X82334462Y-89959716D01*
X82036836Y-90039465D01*
X81809042Y-90133821D01*
X81752168Y-90157379D01*
X81752157Y-90157384D01*
X81485324Y-90311440D01*
X81240888Y-90499004D01*
X81240867Y-90499023D01*
X81023023Y-90716867D01*
X81023004Y-90716888D01*
X80835440Y-90961324D01*
X80681384Y-91228157D01*
X80681379Y-91228168D01*
X80681378Y-91228170D01*
X80608046Y-91405208D01*
X80563465Y-91512836D01*
X80483716Y-91810463D01*
X80443500Y-92115937D01*
X76200000Y-92115937D01*
X76200000Y-83692996D01*
X95076778Y-83692996D01*
X95076778Y-83693003D01*
X95095643Y-83980834D01*
X95095645Y-83980849D01*
X95151919Y-84263754D01*
X95151920Y-84263758D01*
X95210587Y-84436582D01*
X95244641Y-84536902D01*
X95244644Y-84536908D01*
X95372220Y-84795608D01*
X95532473Y-85035445D01*
X95532476Y-85035449D01*
X95722672Y-85252327D01*
X95860009Y-85372767D01*
X95939546Y-85442520D01*
X95939548Y-85442521D01*
X95939550Y-85442523D01*
X95939554Y-85442526D01*
X96097981Y-85548383D01*
X96179389Y-85602778D01*
X96438098Y-85730359D01*
X96711247Y-85823081D01*
X96926831Y-85865963D01*
X96994150Y-85879354D01*
X96994152Y-85879354D01*
X96994161Y-85879356D01*
X97158640Y-85890136D01*
X97281997Y-85898222D01*
X97282000Y-85898222D01*
X97282003Y-85898222D01*
X97389939Y-85891147D01*
X97569839Y-85879356D01*
X97852753Y-85823081D01*
X98125902Y-85730359D01*
X98384611Y-85602778D01*
X98624454Y-85442520D01*
X98841327Y-85252327D01*
X99031520Y-85035454D01*
X99191778Y-84795611D01*
X99319359Y-84536902D01*
X99412081Y-84263753D01*
X99468356Y-83980839D01*
X99487222Y-83693000D01*
X99487222Y-83692996D01*
X104474778Y-83692996D01*
X104474778Y-83693003D01*
X104493643Y-83980834D01*
X104493645Y-83980849D01*
X104549919Y-84263754D01*
X104549920Y-84263758D01*
X104608587Y-84436582D01*
X104642641Y-84536902D01*
X104642644Y-84536908D01*
X104770220Y-84795608D01*
X104930473Y-85035445D01*
X104930476Y-85035449D01*
X105120672Y-85252327D01*
X105258009Y-85372767D01*
X105337546Y-85442520D01*
X105337548Y-85442521D01*
X105337550Y-85442523D01*
X105337554Y-85442526D01*
X105495981Y-85548383D01*
X105577389Y-85602778D01*
X105836098Y-85730359D01*
X106109247Y-85823081D01*
X106324831Y-85865963D01*
X106392150Y-85879354D01*
X106392152Y-85879354D01*
X106392161Y-85879356D01*
X106556640Y-85890136D01*
X106679997Y-85898222D01*
X106680000Y-85898222D01*
X106680003Y-85898222D01*
X106787939Y-85891147D01*
X106967839Y-85879356D01*
X107250753Y-85823081D01*
X107523902Y-85730359D01*
X107782611Y-85602778D01*
X108022454Y-85442520D01*
X108239327Y-85252327D01*
X108429520Y-85035454D01*
X108589778Y-84795611D01*
X108707958Y-84555965D01*
X123169650Y-84555965D01*
X123169650Y-88672027D01*
X123169651Y-88672037D01*
X123172437Y-88703381D01*
X123180264Y-88791418D01*
X123236241Y-88987049D01*
X123236242Y-88987051D01*
X123318699Y-89144908D01*
X123330452Y-89167407D01*
X123459041Y-89325109D01*
X123616743Y-89453698D01*
X123797101Y-89547909D01*
X123992732Y-89603886D01*
X124112113Y-89614500D01*
X128228186Y-89614499D01*
X128347568Y-89603886D01*
X128543199Y-89547909D01*
X128723557Y-89453698D01*
X128881259Y-89325109D01*
X129009848Y-89167407D01*
X129104059Y-88987049D01*
X129160036Y-88791418D01*
X129165555Y-88729340D01*
X129191512Y-88663259D01*
X129249074Y-88621701D01*
X129291060Y-88614500D01*
X137037113Y-88614500D01*
X137037120Y-88614500D01*
X137167118Y-88597385D01*
X137297116Y-88580271D01*
X137550419Y-88512398D01*
X137792697Y-88412043D01*
X137809290Y-88402463D01*
X138019803Y-88280924D01*
X138149430Y-88181457D01*
X138227851Y-88121283D01*
X142455729Y-83893405D01*
X142518041Y-83859379D01*
X142544824Y-83856500D01*
X145101976Y-83856500D01*
X145157704Y-83869494D01*
X145206098Y-83893359D01*
X145479247Y-83986081D01*
X145694831Y-84028963D01*
X145762150Y-84042354D01*
X145762152Y-84042354D01*
X145762161Y-84042356D01*
X145926640Y-84053136D01*
X146049997Y-84061222D01*
X146050000Y-84061222D01*
X146050003Y-84061222D01*
X146157939Y-84054147D01*
X146337839Y-84042356D01*
X146620753Y-83986081D01*
X146893902Y-83893359D01*
X147152611Y-83765778D01*
X147392454Y-83605520D01*
X147609327Y-83415327D01*
X147799520Y-83198454D01*
X147959778Y-82958611D01*
X148087359Y-82699902D01*
X148180081Y-82426753D01*
X148236356Y-82143839D01*
X148255222Y-81856000D01*
X148236356Y-81568161D01*
X148180081Y-81285247D01*
X148087359Y-81012098D01*
X147959778Y-80753389D01*
X147837152Y-80569866D01*
X147799526Y-80513554D01*
X147799523Y-80513550D01*
X147799521Y-80513548D01*
X147799520Y-80513546D01*
X147662575Y-80357390D01*
X147609327Y-80296672D01*
X147452724Y-80159335D01*
X147392454Y-80106480D01*
X147392452Y-80106478D01*
X147392449Y-80106476D01*
X147392445Y-80106473D01*
X147152608Y-79946220D01*
X146893908Y-79818644D01*
X146893902Y-79818641D01*
X146801266Y-79787195D01*
X146620758Y-79725920D01*
X146620754Y-79725919D01*
X146337849Y-79669645D01*
X146337834Y-79669643D01*
X146050003Y-79650778D01*
X146049997Y-79650778D01*
X145762165Y-79669643D01*
X145762150Y-79669645D01*
X145479245Y-79725919D01*
X145479241Y-79725920D01*
X145206101Y-79818640D01*
X145206090Y-79818644D01*
X145157704Y-79842506D01*
X145101976Y-79855500D01*
X141532877Y-79855500D01*
X141402881Y-79872615D01*
X141402880Y-79872615D01*
X141272891Y-79889727D01*
X141019585Y-79957600D01*
X141019581Y-79957602D01*
X140821281Y-80039741D01*
X140777301Y-80057958D01*
X140777290Y-80057963D01*
X140550202Y-80189072D01*
X140480441Y-80242602D01*
X140480440Y-80242601D01*
X140342158Y-80348709D01*
X140342138Y-80348726D01*
X136114271Y-84576595D01*
X136051959Y-84610621D01*
X136025176Y-84613500D01*
X129291059Y-84613500D01*
X129222938Y-84593498D01*
X129176445Y-84539842D01*
X129165554Y-84498656D01*
X129160037Y-84436588D01*
X129160036Y-84436584D01*
X129160036Y-84436582D01*
X129104059Y-84240951D01*
X129009848Y-84060593D01*
X128881259Y-83902891D01*
X128723557Y-83774302D01*
X128723555Y-83774301D01*
X128723554Y-83774300D01*
X128543201Y-83680092D01*
X128543200Y-83680091D01*
X128543199Y-83680091D01*
X128347568Y-83624114D01*
X128228187Y-83613500D01*
X128228182Y-83613500D01*
X124112122Y-83613500D01*
X124112112Y-83613501D01*
X123992738Y-83624113D01*
X123992735Y-83624113D01*
X123992732Y-83624114D01*
X123797101Y-83680091D01*
X123797098Y-83680092D01*
X123616745Y-83774300D01*
X123459041Y-83902891D01*
X123330450Y-84060595D01*
X123236242Y-84240948D01*
X123236241Y-84240950D01*
X123236241Y-84240951D01*
X123180264Y-84436582D01*
X123180264Y-84436588D01*
X123169650Y-84555965D01*
X108707958Y-84555965D01*
X108717359Y-84536902D01*
X108810081Y-84263753D01*
X108866356Y-83980839D01*
X108885222Y-83693000D01*
X108879488Y-83605523D01*
X108866356Y-83405165D01*
X108866356Y-83405161D01*
X108810081Y-83122247D01*
X108717359Y-82849098D01*
X108589778Y-82590389D01*
X108487711Y-82437635D01*
X108429526Y-82350554D01*
X108429523Y-82350550D01*
X108429521Y-82350548D01*
X108429520Y-82350546D01*
X108299294Y-82202052D01*
X108239327Y-82133672D01*
X108022449Y-81943476D01*
X108022445Y-81943473D01*
X107782608Y-81783220D01*
X107523908Y-81655644D01*
X107523902Y-81655641D01*
X107431266Y-81624195D01*
X107250758Y-81562920D01*
X107250754Y-81562919D01*
X106967849Y-81506645D01*
X106967834Y-81506643D01*
X106680003Y-81487778D01*
X106679997Y-81487778D01*
X106392165Y-81506643D01*
X106392150Y-81506645D01*
X106109245Y-81562919D01*
X106109241Y-81562920D01*
X105840855Y-81654025D01*
X105836098Y-81655641D01*
X105836095Y-81655642D01*
X105836091Y-81655644D01*
X105577391Y-81783220D01*
X105337554Y-81943473D01*
X105337550Y-81943476D01*
X105120672Y-82133672D01*
X104930476Y-82350550D01*
X104930473Y-82350554D01*
X104770220Y-82590391D01*
X104642644Y-82849091D01*
X104642640Y-82849101D01*
X104549920Y-83122241D01*
X104549919Y-83122245D01*
X104493645Y-83405150D01*
X104493643Y-83405165D01*
X104474778Y-83692996D01*
X99487222Y-83692996D01*
X99481488Y-83605523D01*
X99468356Y-83405165D01*
X99468356Y-83405161D01*
X99412081Y-83122247D01*
X99319359Y-82849098D01*
X99191778Y-82590389D01*
X99089711Y-82437635D01*
X99031526Y-82350554D01*
X99031523Y-82350550D01*
X99031521Y-82350548D01*
X99031520Y-82350546D01*
X98901294Y-82202052D01*
X98841327Y-82133672D01*
X98624449Y-81943476D01*
X98624445Y-81943473D01*
X98384608Y-81783220D01*
X98125908Y-81655644D01*
X98125902Y-81655641D01*
X98033266Y-81624195D01*
X97852758Y-81562920D01*
X97852754Y-81562919D01*
X97569849Y-81506645D01*
X97569834Y-81506643D01*
X97282003Y-81487778D01*
X97281997Y-81487778D01*
X96994165Y-81506643D01*
X96994150Y-81506645D01*
X96711245Y-81562919D01*
X96711241Y-81562920D01*
X96442855Y-81654025D01*
X96438098Y-81655641D01*
X96438095Y-81655642D01*
X96438091Y-81655644D01*
X96179391Y-81783220D01*
X95939554Y-81943473D01*
X95939550Y-81943476D01*
X95722672Y-82133672D01*
X95532476Y-82350550D01*
X95532473Y-82350554D01*
X95372220Y-82590391D01*
X95244644Y-82849091D01*
X95244640Y-82849101D01*
X95151920Y-83122241D01*
X95151919Y-83122245D01*
X95095645Y-83405150D01*
X95095643Y-83405165D01*
X95076778Y-83692996D01*
X76200000Y-83692996D01*
X76200000Y-81026000D01*
X100302451Y-81026000D01*
X100322617Y-81295106D01*
X100382665Y-81558193D01*
X100481255Y-81809394D01*
X100481258Y-81809402D01*
X100616182Y-82043098D01*
X100616184Y-82043101D01*
X100616185Y-82043102D01*
X100784439Y-82254085D01*
X100982259Y-82437635D01*
X100982265Y-82437639D01*
X101205216Y-82589645D01*
X101205223Y-82589649D01*
X101205226Y-82589651D01*
X101448359Y-82706738D01*
X101448362Y-82706738D01*
X101448367Y-82706741D01*
X101706217Y-82786277D01*
X101706219Y-82786277D01*
X101706228Y-82786280D01*
X101973071Y-82826500D01*
X101973075Y-82826500D01*
X102242925Y-82826500D01*
X102242929Y-82826500D01*
X102509772Y-82786280D01*
X102509782Y-82786277D01*
X102767632Y-82706741D01*
X102767634Y-82706739D01*
X102767641Y-82706738D01*
X102767646Y-82706735D01*
X102767650Y-82706734D01*
X103010769Y-82589654D01*
X103010769Y-82589653D01*
X103010775Y-82589651D01*
X103233741Y-82437635D01*
X103431561Y-82254085D01*
X103599815Y-82043102D01*
X103734743Y-81809398D01*
X103833334Y-81558195D01*
X103893383Y-81295103D01*
X103913549Y-81026000D01*
X103893383Y-80756897D01*
X103833334Y-80493805D01*
X103734743Y-80242602D01*
X103734742Y-80242601D01*
X103734741Y-80242597D01*
X103599817Y-80008901D01*
X103586707Y-79992462D01*
X103487424Y-79867965D01*
X109151500Y-79867965D01*
X109151500Y-82184027D01*
X109151501Y-82184037D01*
X109153102Y-82202052D01*
X109162114Y-82303418D01*
X109218091Y-82499049D01*
X109312302Y-82679407D01*
X109440891Y-82837109D01*
X109598593Y-82965698D01*
X109778951Y-83059909D01*
X109974582Y-83115886D01*
X110093963Y-83126500D01*
X112410036Y-83126499D01*
X112529418Y-83115886D01*
X112725049Y-83059909D01*
X112905407Y-82965698D01*
X113063109Y-82837109D01*
X113191698Y-82679407D01*
X113285909Y-82499049D01*
X113341886Y-82303418D01*
X113352500Y-82184037D01*
X113352499Y-80876000D01*
X113669632Y-80876000D01*
X114532791Y-80876000D01*
X114512000Y-80953591D01*
X114512000Y-81098409D01*
X114532791Y-81176000D01*
X113669632Y-81176000D01*
X113676362Y-81257225D01*
X113676364Y-81257234D01*
X113733316Y-81482133D01*
X113733319Y-81482140D01*
X113826516Y-81694609D01*
X113953416Y-81888845D01*
X114110549Y-82059537D01*
X114293652Y-82202052D01*
X114497699Y-82312477D01*
X114497701Y-82312478D01*
X114717137Y-82387810D01*
X114717146Y-82387812D01*
X114911999Y-82420326D01*
X114912000Y-82420326D01*
X114912000Y-81555209D01*
X114989591Y-81576000D01*
X115134409Y-81576000D01*
X115212000Y-81555209D01*
X115212000Y-82420326D01*
X115406853Y-82387812D01*
X115406862Y-82387810D01*
X115626298Y-82312478D01*
X115626300Y-82312477D01*
X115830347Y-82202052D01*
X116013450Y-82059537D01*
X116170583Y-81888845D01*
X116297483Y-81694609D01*
X116390680Y-81482140D01*
X116390683Y-81482133D01*
X116447635Y-81257234D01*
X116447637Y-81257225D01*
X116454368Y-81176000D01*
X115591209Y-81176000D01*
X115612000Y-81098409D01*
X115612000Y-80953591D01*
X115591209Y-80876000D01*
X116454367Y-80876000D01*
X116447637Y-80794774D01*
X116447635Y-80794765D01*
X116390683Y-80569866D01*
X116390680Y-80569859D01*
X116297483Y-80357390D01*
X116170583Y-80163154D01*
X116013450Y-79992462D01*
X115830347Y-79849947D01*
X115626300Y-79739522D01*
X115626298Y-79739521D01*
X115406862Y-79664189D01*
X115406855Y-79664187D01*
X115212000Y-79631672D01*
X115212000Y-80496790D01*
X115134409Y-80476000D01*
X114989591Y-80476000D01*
X114912000Y-80496790D01*
X114912000Y-79631672D01*
X114717144Y-79664187D01*
X114717137Y-79664189D01*
X114497701Y-79739521D01*
X114497699Y-79739522D01*
X114293652Y-79849947D01*
X114110549Y-79992462D01*
X113953416Y-80163154D01*
X113826516Y-80357390D01*
X113733319Y-80569859D01*
X113733316Y-80569866D01*
X113676364Y-80794765D01*
X113676362Y-80794774D01*
X113669632Y-80876000D01*
X113352499Y-80876000D01*
X113352499Y-79867964D01*
X113341886Y-79748582D01*
X113285909Y-79552951D01*
X113191698Y-79372593D01*
X113063109Y-79214891D01*
X112905407Y-79086302D01*
X112905405Y-79086301D01*
X112905404Y-79086300D01*
X112725051Y-78992092D01*
X112725050Y-78992091D01*
X112725049Y-78992091D01*
X112529418Y-78936114D01*
X112410037Y-78925500D01*
X112410032Y-78925500D01*
X110093972Y-78925500D01*
X110093962Y-78925501D01*
X109974588Y-78936113D01*
X109974585Y-78936113D01*
X109974582Y-78936114D01*
X109778951Y-78992091D01*
X109778948Y-78992092D01*
X109598595Y-79086300D01*
X109440891Y-79214891D01*
X109312300Y-79372595D01*
X109218092Y-79552948D01*
X109218091Y-79552950D01*
X109218091Y-79552951D01*
X109162114Y-79748582D01*
X109153764Y-79842506D01*
X109151500Y-79867965D01*
X103487424Y-79867965D01*
X103431561Y-79797915D01*
X103233741Y-79614365D01*
X103193729Y-79587085D01*
X103010777Y-79462350D01*
X103010769Y-79462345D01*
X102767650Y-79345265D01*
X102767632Y-79345258D01*
X102509782Y-79265722D01*
X102509774Y-79265720D01*
X102509772Y-79265720D01*
X102242929Y-79225500D01*
X101973071Y-79225500D01*
X101706228Y-79265720D01*
X101706226Y-79265720D01*
X101706217Y-79265722D01*
X101448367Y-79345258D01*
X101448355Y-79345263D01*
X101205223Y-79462350D01*
X101205216Y-79462354D01*
X100982265Y-79614360D01*
X100982260Y-79614364D01*
X100784439Y-79797914D01*
X100616182Y-80008901D01*
X100481258Y-80242597D01*
X100481255Y-80242605D01*
X100382665Y-80493806D01*
X100322617Y-80756893D01*
X100302451Y-81026000D01*
X76200000Y-81026000D01*
X76200000Y-71342491D01*
X84004500Y-71342491D01*
X84004500Y-71637508D01*
X84043005Y-71929985D01*
X84043006Y-71929991D01*
X84043007Y-71929993D01*
X84119361Y-72214952D01*
X84232257Y-72487507D01*
X84232258Y-72487508D01*
X84232263Y-72487519D01*
X84379759Y-72742990D01*
X84379764Y-72742997D01*
X84559346Y-72977033D01*
X84559365Y-72977054D01*
X84767945Y-73185634D01*
X84767966Y-73185653D01*
X85002002Y-73365235D01*
X85002009Y-73365240D01*
X85257480Y-73512736D01*
X85257484Y-73512737D01*
X85257493Y-73512743D01*
X85530048Y-73625639D01*
X85815007Y-73701993D01*
X85815013Y-73701993D01*
X85815014Y-73701994D01*
X85848574Y-73706412D01*
X86107494Y-73740500D01*
X86107501Y-73740500D01*
X88402499Y-73740500D01*
X88402506Y-73740500D01*
X88694993Y-73701993D01*
X88979952Y-73625639D01*
X89252507Y-73512743D01*
X89261793Y-73507382D01*
X89324795Y-73490500D01*
X91945176Y-73490500D01*
X92013297Y-73510502D01*
X92034271Y-73527405D01*
X95452138Y-76945273D01*
X95452143Y-76945277D01*
X95452149Y-76945283D01*
X95514313Y-76992983D01*
X95514316Y-76992985D01*
X95660194Y-77104922D01*
X95660200Y-77104926D01*
X95887290Y-77236036D01*
X95887294Y-77236037D01*
X95887303Y-77236043D01*
X96129581Y-77336398D01*
X96382884Y-77404271D01*
X96382890Y-77404271D01*
X96382891Y-77404272D01*
X96395402Y-77405919D01*
X96512882Y-77421385D01*
X96642880Y-77438500D01*
X96642887Y-77438500D01*
X119257113Y-77438500D01*
X119257120Y-77438500D01*
X119387118Y-77421385D01*
X119517116Y-77404271D01*
X119770419Y-77336398D01*
X120012697Y-77236043D01*
X120239803Y-77104924D01*
X120385684Y-76992985D01*
X120447851Y-76945283D01*
X122463134Y-74930000D01*
X124432451Y-74930000D01*
X124452617Y-75199106D01*
X124512665Y-75462193D01*
X124611255Y-75713394D01*
X124611258Y-75713402D01*
X124746182Y-75947098D01*
X124746184Y-75947101D01*
X124746185Y-75947102D01*
X124914439Y-76158085D01*
X125112259Y-76341635D01*
X125112265Y-76341639D01*
X125335216Y-76493645D01*
X125335220Y-76493647D01*
X125335226Y-76493651D01*
X125409180Y-76529265D01*
X125412736Y-76530978D01*
X125465432Y-76578557D01*
X125484040Y-76647071D01*
X125462652Y-76714770D01*
X125412736Y-76758022D01*
X125335224Y-76795350D01*
X125335216Y-76795354D01*
X125112265Y-76947360D01*
X125112260Y-76947364D01*
X124914439Y-77130914D01*
X124746182Y-77341901D01*
X124611258Y-77575597D01*
X124611255Y-77575605D01*
X124512665Y-77826806D01*
X124452617Y-78089893D01*
X124432451Y-78359000D01*
X124452617Y-78628106D01*
X124512665Y-78891193D01*
X124611255Y-79142394D01*
X124611258Y-79142402D01*
X124746182Y-79376098D01*
X124746184Y-79376101D01*
X124746185Y-79376102D01*
X124914439Y-79587085D01*
X125112259Y-79770635D01*
X125112265Y-79770639D01*
X125335216Y-79922645D01*
X125335223Y-79922649D01*
X125335226Y-79922651D01*
X125578359Y-80039738D01*
X125578362Y-80039738D01*
X125578367Y-80039741D01*
X125836217Y-80119277D01*
X125836219Y-80119277D01*
X125836228Y-80119280D01*
X126103071Y-80159500D01*
X126103075Y-80159500D01*
X126372925Y-80159500D01*
X126372929Y-80159500D01*
X126639772Y-80119280D01*
X126681282Y-80106476D01*
X126897632Y-80039741D01*
X126897634Y-80039739D01*
X126897641Y-80039738D01*
X126897646Y-80039735D01*
X126897650Y-80039734D01*
X127140769Y-79922654D01*
X127140769Y-79922653D01*
X127140775Y-79922651D01*
X127363741Y-79770635D01*
X127561561Y-79587085D01*
X127729815Y-79376102D01*
X127797279Y-79259250D01*
X127864741Y-79142402D01*
X127864743Y-79142398D01*
X127963334Y-78891195D01*
X128023383Y-78628103D01*
X128043549Y-78359000D01*
X128023383Y-78089897D01*
X127963334Y-77826805D01*
X127864743Y-77575602D01*
X127864742Y-77575601D01*
X127864741Y-77575597D01*
X127729817Y-77341901D01*
X127725429Y-77336399D01*
X127561561Y-77130915D01*
X127363741Y-76947365D01*
X127363734Y-76947360D01*
X127140777Y-76795350D01*
X127140769Y-76795345D01*
X127063266Y-76758022D01*
X127010570Y-76710444D01*
X126991961Y-76641930D01*
X127013349Y-76574231D01*
X127063266Y-76530978D01*
X127140769Y-76493654D01*
X127140769Y-76493653D01*
X127140775Y-76493651D01*
X127363741Y-76341635D01*
X127561561Y-76158085D01*
X127729815Y-75947102D01*
X127864743Y-75713398D01*
X127963334Y-75462195D01*
X128023383Y-75199103D01*
X128043549Y-74930000D01*
X134592451Y-74930000D01*
X134612617Y-75199106D01*
X134672665Y-75462193D01*
X134771255Y-75713394D01*
X134771258Y-75713402D01*
X134906182Y-75947098D01*
X134906184Y-75947101D01*
X134906185Y-75947102D01*
X135074439Y-76158085D01*
X135272259Y-76341635D01*
X135272265Y-76341639D01*
X135495216Y-76493645D01*
X135495220Y-76493647D01*
X135495226Y-76493651D01*
X135569180Y-76529265D01*
X135572736Y-76530978D01*
X135625432Y-76578557D01*
X135644040Y-76647071D01*
X135622652Y-76714770D01*
X135572736Y-76758022D01*
X135495224Y-76795350D01*
X135495216Y-76795354D01*
X135272265Y-76947360D01*
X135272260Y-76947364D01*
X135074439Y-77130914D01*
X134906182Y-77341901D01*
X134771258Y-77575597D01*
X134771255Y-77575605D01*
X134672665Y-77826806D01*
X134612617Y-78089893D01*
X134592451Y-78359000D01*
X134612617Y-78628106D01*
X134672665Y-78891193D01*
X134771255Y-79142394D01*
X134771258Y-79142402D01*
X134906182Y-79376098D01*
X134906184Y-79376101D01*
X134906185Y-79376102D01*
X135074439Y-79587085D01*
X135272259Y-79770635D01*
X135272265Y-79770639D01*
X135495216Y-79922645D01*
X135495223Y-79922649D01*
X135495226Y-79922651D01*
X135738359Y-80039738D01*
X135738362Y-80039738D01*
X135738367Y-80039741D01*
X135996217Y-80119277D01*
X135996219Y-80119277D01*
X135996228Y-80119280D01*
X136263071Y-80159500D01*
X136263075Y-80159500D01*
X136532925Y-80159500D01*
X136532929Y-80159500D01*
X136799772Y-80119280D01*
X136841282Y-80106476D01*
X137057632Y-80039741D01*
X137057634Y-80039739D01*
X137057641Y-80039738D01*
X137057646Y-80039735D01*
X137057650Y-80039734D01*
X137300769Y-79922654D01*
X137300769Y-79922653D01*
X137300775Y-79922651D01*
X137523741Y-79770635D01*
X137721561Y-79587085D01*
X137889815Y-79376102D01*
X137957279Y-79259250D01*
X138024741Y-79142402D01*
X138024743Y-79142398D01*
X138123334Y-78891195D01*
X138183383Y-78628103D01*
X138203549Y-78359000D01*
X138183383Y-78089897D01*
X138123334Y-77826805D01*
X138024743Y-77575602D01*
X138024742Y-77575601D01*
X138024741Y-77575597D01*
X137889817Y-77341901D01*
X137885429Y-77336399D01*
X137721561Y-77130915D01*
X137523741Y-76947365D01*
X137523734Y-76947360D01*
X137300777Y-76795350D01*
X137300769Y-76795345D01*
X137223266Y-76758022D01*
X137170570Y-76710444D01*
X137151961Y-76641930D01*
X137173349Y-76574231D01*
X137223266Y-76530978D01*
X137300769Y-76493654D01*
X137300769Y-76493653D01*
X137300775Y-76493651D01*
X137523741Y-76341635D01*
X137721561Y-76158085D01*
X137889815Y-75947102D01*
X138024743Y-75713398D01*
X138123334Y-75462195D01*
X138183383Y-75199103D01*
X138203549Y-74930000D01*
X138183383Y-74660897D01*
X138123334Y-74397805D01*
X138024743Y-74146602D01*
X138024742Y-74146601D01*
X138024741Y-74146597D01*
X137889817Y-73912901D01*
X137766125Y-73757797D01*
X137721561Y-73701915D01*
X137523741Y-73518365D01*
X137482871Y-73490500D01*
X137300777Y-73366350D01*
X137300769Y-73366345D01*
X137057650Y-73249265D01*
X137057632Y-73249258D01*
X136799782Y-73169722D01*
X136799774Y-73169720D01*
X136799772Y-73169720D01*
X136532929Y-73129500D01*
X136263071Y-73129500D01*
X135996228Y-73169720D01*
X135996226Y-73169720D01*
X135996217Y-73169722D01*
X135738367Y-73249258D01*
X135738355Y-73249263D01*
X135495223Y-73366350D01*
X135495216Y-73366354D01*
X135272265Y-73518360D01*
X135272260Y-73518364D01*
X135074439Y-73701914D01*
X134906182Y-73912901D01*
X134771258Y-74146597D01*
X134771255Y-74146605D01*
X134672665Y-74397806D01*
X134612617Y-74660893D01*
X134592451Y-74930000D01*
X128043549Y-74930000D01*
X128023383Y-74660897D01*
X127963334Y-74397805D01*
X127864743Y-74146602D01*
X127864742Y-74146601D01*
X127864741Y-74146597D01*
X127729817Y-73912901D01*
X127606125Y-73757797D01*
X127561561Y-73701915D01*
X127363741Y-73518365D01*
X127322871Y-73490500D01*
X127140777Y-73366350D01*
X127140769Y-73366345D01*
X126897650Y-73249265D01*
X126897632Y-73249258D01*
X126639782Y-73169722D01*
X126639774Y-73169720D01*
X126639772Y-73169720D01*
X126372929Y-73129500D01*
X126103071Y-73129500D01*
X125836228Y-73169720D01*
X125836226Y-73169720D01*
X125836217Y-73169722D01*
X125578367Y-73249258D01*
X125578355Y-73249263D01*
X125335223Y-73366350D01*
X125335216Y-73366354D01*
X125112265Y-73518360D01*
X125112260Y-73518364D01*
X124914439Y-73701914D01*
X124746182Y-73912901D01*
X124611258Y-74146597D01*
X124611255Y-74146605D01*
X124512665Y-74397806D01*
X124452617Y-74660893D01*
X124432451Y-74930000D01*
X122463134Y-74930000D01*
X123427283Y-73965851D01*
X123506067Y-73863177D01*
X123576735Y-73771082D01*
X123576739Y-73771076D01*
X123586924Y-73757803D01*
X123718043Y-73530697D01*
X123818398Y-73288419D01*
X123831238Y-73240500D01*
X123886271Y-73035115D01*
X123895304Y-72966499D01*
X123910662Y-72849845D01*
X123916474Y-72805698D01*
X123920500Y-72775120D01*
X123920500Y-69748962D01*
X123940502Y-69680841D01*
X123994158Y-69634348D01*
X124057659Y-69623457D01*
X124060576Y-69623716D01*
X124060582Y-69623718D01*
X124179963Y-69634332D01*
X128296036Y-69634331D01*
X128415418Y-69623718D01*
X128611049Y-69567741D01*
X128791407Y-69473530D01*
X128949109Y-69344941D01*
X129077698Y-69187239D01*
X129171909Y-69006881D01*
X129227886Y-68811250D01*
X129233405Y-68749172D01*
X129259362Y-68683091D01*
X129316924Y-68641533D01*
X129358910Y-68634332D01*
X157955008Y-68634332D01*
X158023129Y-68654334D01*
X158044103Y-68671237D01*
X158744595Y-69371729D01*
X158778621Y-69434041D01*
X158781500Y-69460824D01*
X158781500Y-80907976D01*
X158768506Y-80963704D01*
X158744644Y-81012090D01*
X158744640Y-81012101D01*
X158651920Y-81285241D01*
X158651919Y-81285245D01*
X158595645Y-81568150D01*
X158595643Y-81568165D01*
X158576778Y-81855996D01*
X158576778Y-81856003D01*
X158595643Y-82143834D01*
X158595645Y-82143849D01*
X158651919Y-82426754D01*
X158651920Y-82426758D01*
X158655614Y-82437639D01*
X158744641Y-82699902D01*
X158744644Y-82699908D01*
X158872220Y-82958608D01*
X159032473Y-83198445D01*
X159032476Y-83198449D01*
X159222672Y-83415327D01*
X159360009Y-83535767D01*
X159439546Y-83605520D01*
X159439548Y-83605521D01*
X159439550Y-83605523D01*
X159439554Y-83605526D01*
X159597981Y-83711383D01*
X159679389Y-83765778D01*
X159938098Y-83893359D01*
X160211247Y-83986081D01*
X160426831Y-84028963D01*
X160494150Y-84042354D01*
X160494152Y-84042354D01*
X160494161Y-84042356D01*
X160658640Y-84053136D01*
X160781997Y-84061222D01*
X160782000Y-84061222D01*
X160782003Y-84061222D01*
X160889939Y-84054147D01*
X161069839Y-84042356D01*
X161352753Y-83986081D01*
X161625902Y-83893359D01*
X161884611Y-83765778D01*
X162124454Y-83605520D01*
X162341327Y-83415327D01*
X162531520Y-83198454D01*
X162691778Y-82958611D01*
X162819359Y-82699902D01*
X162912081Y-82426753D01*
X162968356Y-82143839D01*
X162987222Y-81856000D01*
X162968356Y-81568161D01*
X162912081Y-81285247D01*
X162819359Y-81012098D01*
X162795494Y-80963704D01*
X162782500Y-80907976D01*
X162782500Y-68448884D01*
X162782499Y-68448875D01*
X162762999Y-68300756D01*
X162748272Y-68188890D01*
X162748271Y-68188888D01*
X162748271Y-68188884D01*
X162680398Y-67935581D01*
X162580043Y-67693303D01*
X162534347Y-67614155D01*
X162484053Y-67527042D01*
X162448926Y-67466200D01*
X162448922Y-67466194D01*
X162316020Y-67292994D01*
X162316018Y-67292992D01*
X162316016Y-67292990D01*
X162289283Y-67258149D01*
X162289282Y-67258148D01*
X162289273Y-67258138D01*
X160157693Y-65126558D01*
X160157683Y-65126549D01*
X160039963Y-65036220D01*
X160039963Y-65036219D01*
X159949638Y-64966910D01*
X159949631Y-64966905D01*
X159722541Y-64835795D01*
X159722533Y-64835791D01*
X159722529Y-64835789D01*
X159480251Y-64735434D01*
X159426685Y-64721081D01*
X159426682Y-64721080D01*
X159311371Y-64690182D01*
X159226948Y-64667561D01*
X159226946Y-64667560D01*
X159226940Y-64667559D01*
X159096951Y-64650447D01*
X158966954Y-64633332D01*
X158966952Y-64633332D01*
X129358909Y-64633332D01*
X129290788Y-64613330D01*
X129244295Y-64559674D01*
X129233404Y-64518488D01*
X129227887Y-64456420D01*
X129227886Y-64456416D01*
X129227886Y-64456414D01*
X129171909Y-64260783D01*
X129077698Y-64080425D01*
X128949109Y-63922723D01*
X128791407Y-63794134D01*
X128791405Y-63794133D01*
X128791404Y-63794132D01*
X128611051Y-63699924D01*
X128611050Y-63699923D01*
X128611049Y-63699923D01*
X128415418Y-63643946D01*
X128296037Y-63633332D01*
X128296032Y-63633332D01*
X124179972Y-63633332D01*
X124179962Y-63633333D01*
X124060588Y-63643945D01*
X124060585Y-63643945D01*
X124060582Y-63643946D01*
X123864951Y-63699923D01*
X123864948Y-63699924D01*
X123684595Y-63794132D01*
X123526891Y-63922723D01*
X123398300Y-64080427D01*
X123304092Y-64260780D01*
X123304091Y-64260782D01*
X123304091Y-64260783D01*
X123248114Y-64456414D01*
X123248114Y-64456420D01*
X123242595Y-64518491D01*
X123216638Y-64584573D01*
X123159076Y-64626131D01*
X123117090Y-64633332D01*
X122719045Y-64633332D01*
X122589049Y-64650447D01*
X122589048Y-64650447D01*
X122459059Y-64667559D01*
X122259314Y-64721081D01*
X122259313Y-64721080D01*
X122205764Y-64735429D01*
X122205749Y-64735434D01*
X122081244Y-64787006D01*
X121963469Y-64835790D01*
X121963458Y-64835795D01*
X121736370Y-64966904D01*
X121608024Y-65065388D01*
X121528317Y-65126549D01*
X121528306Y-65126558D01*
X120412731Y-66242133D01*
X120412718Y-66242147D01*
X120322387Y-66359867D01*
X120322388Y-66359868D01*
X120253075Y-66450198D01*
X120164345Y-66603886D01*
X120164344Y-66603887D01*
X120121960Y-66677297D01*
X120121955Y-66677306D01*
X120021602Y-66919581D01*
X120021600Y-66919585D01*
X119953727Y-67172891D01*
X119942504Y-67258148D01*
X119942504Y-67258149D01*
X119919500Y-67432877D01*
X119919500Y-71763176D01*
X119899498Y-71831297D01*
X119882595Y-71852271D01*
X118334271Y-73400595D01*
X118271959Y-73434621D01*
X118245176Y-73437500D01*
X97654824Y-73437500D01*
X97586703Y-73417498D01*
X97565729Y-73400595D01*
X95031135Y-70866000D01*
X100302451Y-70866000D01*
X100322617Y-71135106D01*
X100382665Y-71398193D01*
X100481255Y-71649394D01*
X100481258Y-71649402D01*
X100616182Y-71883098D01*
X100616184Y-71883101D01*
X100616185Y-71883102D01*
X100784439Y-72094085D01*
X100982259Y-72277635D01*
X100982265Y-72277639D01*
X101205216Y-72429645D01*
X101205223Y-72429649D01*
X101205226Y-72429651D01*
X101448359Y-72546738D01*
X101448362Y-72546738D01*
X101448367Y-72546741D01*
X101706217Y-72626277D01*
X101706219Y-72626277D01*
X101706228Y-72626280D01*
X101973071Y-72666500D01*
X101973075Y-72666500D01*
X102242925Y-72666500D01*
X102242929Y-72666500D01*
X102509772Y-72626280D01*
X102509782Y-72626277D01*
X102767632Y-72546741D01*
X102767634Y-72546739D01*
X102767641Y-72546738D01*
X102767646Y-72546735D01*
X102767650Y-72546734D01*
X103010769Y-72429654D01*
X103010769Y-72429653D01*
X103010775Y-72429651D01*
X103233741Y-72277635D01*
X103431561Y-72094085D01*
X103599815Y-71883102D01*
X103734743Y-71649398D01*
X103833334Y-71398195D01*
X103893383Y-71135103D01*
X103913549Y-70866000D01*
X103913549Y-70865995D01*
X109146592Y-70865995D01*
X109146592Y-70866004D01*
X109166200Y-71152672D01*
X109166201Y-71152678D01*
X109166202Y-71152686D01*
X109198264Y-71306980D01*
X109224664Y-71434025D01*
X109224666Y-71434033D01*
X109320898Y-71704803D01*
X109437584Y-71929993D01*
X109453099Y-71959936D01*
X109618811Y-72194698D01*
X109814944Y-72404705D01*
X109814943Y-72404705D01*
X109814947Y-72404708D01*
X110037853Y-72586055D01*
X110283375Y-72735361D01*
X110546942Y-72849844D01*
X110823642Y-72927371D01*
X111108311Y-72966499D01*
X111108322Y-72966500D01*
X111395678Y-72966500D01*
X111395688Y-72966499D01*
X111603927Y-72937876D01*
X111680358Y-72927371D01*
X111957058Y-72849844D01*
X112220625Y-72735361D01*
X112466147Y-72586055D01*
X112689053Y-72404708D01*
X112810987Y-72274147D01*
X112872101Y-72238016D01*
X112943048Y-72240660D01*
X113001303Y-72281241D01*
X113024211Y-72325488D01*
X113028092Y-72339051D01*
X113105638Y-72487507D01*
X113122302Y-72519407D01*
X113250891Y-72677109D01*
X113408593Y-72805698D01*
X113588951Y-72899909D01*
X113784582Y-72955886D01*
X113903963Y-72966500D01*
X116220036Y-72966499D01*
X116339418Y-72955886D01*
X116535049Y-72899909D01*
X116715407Y-72805698D01*
X116873109Y-72677109D01*
X117001698Y-72519407D01*
X117095909Y-72339049D01*
X117151886Y-72143418D01*
X117162500Y-72024037D01*
X117162499Y-69707964D01*
X117151886Y-69588582D01*
X117095909Y-69392951D01*
X117001698Y-69212593D01*
X116873109Y-69054891D01*
X116715407Y-68926302D01*
X116715405Y-68926301D01*
X116715404Y-68926300D01*
X116535051Y-68832092D01*
X116535050Y-68832091D01*
X116535049Y-68832091D01*
X116339418Y-68776114D01*
X116220037Y-68765500D01*
X116220032Y-68765500D01*
X113903972Y-68765500D01*
X113903962Y-68765501D01*
X113784588Y-68776113D01*
X113784585Y-68776113D01*
X113784582Y-68776114D01*
X113588951Y-68832091D01*
X113588948Y-68832092D01*
X113408595Y-68926300D01*
X113250891Y-69054891D01*
X113122300Y-69212595D01*
X113028090Y-69392950D01*
X113024210Y-69406513D01*
X112986239Y-69466502D01*
X112921863Y-69496440D01*
X112851521Y-69486821D01*
X112810987Y-69457851D01*
X112689055Y-69327294D01*
X112689056Y-69327294D01*
X112516904Y-69187239D01*
X112466147Y-69145945D01*
X112220625Y-68996639D01*
X111957058Y-68882156D01*
X111852141Y-68852760D01*
X111680357Y-68804628D01*
X111395688Y-68765500D01*
X111395678Y-68765500D01*
X111108322Y-68765500D01*
X111108311Y-68765500D01*
X110823642Y-68804628D01*
X110584991Y-68871495D01*
X110546942Y-68882156D01*
X110546940Y-68882156D01*
X110546939Y-68882157D01*
X110445312Y-68926300D01*
X110283375Y-68996639D01*
X110170139Y-69065500D01*
X110037850Y-69145947D01*
X109814944Y-69327294D01*
X109618811Y-69537302D01*
X109453100Y-69772061D01*
X109320898Y-70027196D01*
X109224666Y-70297966D01*
X109224664Y-70297974D01*
X109211198Y-70362778D01*
X109184244Y-70492493D01*
X109166201Y-70579321D01*
X109166200Y-70579327D01*
X109146592Y-70865995D01*
X103913549Y-70865995D01*
X103893383Y-70596897D01*
X103833334Y-70333805D01*
X103734743Y-70082602D01*
X103734742Y-70082601D01*
X103734741Y-70082597D01*
X103599817Y-69848901D01*
X103579222Y-69823076D01*
X103431561Y-69637915D01*
X103233741Y-69454365D01*
X103233734Y-69454360D01*
X103010777Y-69302350D01*
X103010769Y-69302345D01*
X102767650Y-69185265D01*
X102767632Y-69185258D01*
X102509782Y-69105722D01*
X102509774Y-69105720D01*
X102509772Y-69105720D01*
X102242929Y-69065500D01*
X101973071Y-69065500D01*
X101706228Y-69105720D01*
X101706226Y-69105720D01*
X101706217Y-69105722D01*
X101448367Y-69185258D01*
X101448355Y-69185263D01*
X101205223Y-69302350D01*
X101205216Y-69302354D01*
X100982265Y-69454360D01*
X100982260Y-69454364D01*
X100784439Y-69637914D01*
X100616182Y-69848901D01*
X100481258Y-70082597D01*
X100481255Y-70082605D01*
X100382665Y-70333806D01*
X100322617Y-70596893D01*
X100302451Y-70866000D01*
X95031135Y-70866000D01*
X94147861Y-69982726D01*
X94147851Y-69982717D01*
X94030131Y-69892388D01*
X94030131Y-69892387D01*
X93939806Y-69823078D01*
X93939799Y-69823073D01*
X93712709Y-69691963D01*
X93712701Y-69691959D01*
X93712697Y-69691957D01*
X93470419Y-69591602D01*
X93470417Y-69591601D01*
X93470416Y-69591601D01*
X93459145Y-69588581D01*
X93459144Y-69588580D01*
X93249539Y-69532417D01*
X93217116Y-69523729D01*
X93217114Y-69523728D01*
X93217108Y-69523727D01*
X93087119Y-69506615D01*
X92957122Y-69489500D01*
X92957120Y-69489500D01*
X89324795Y-69489500D01*
X89261793Y-69472618D01*
X89252516Y-69467261D01*
X89252510Y-69467258D01*
X89252507Y-69467257D01*
X88979952Y-69354361D01*
X88694993Y-69278007D01*
X88694991Y-69278006D01*
X88694985Y-69278005D01*
X88402508Y-69239500D01*
X88402506Y-69239500D01*
X86107494Y-69239500D01*
X86107491Y-69239500D01*
X85815014Y-69278005D01*
X85631064Y-69327294D01*
X85530048Y-69354361D01*
X85288620Y-69454364D01*
X85257491Y-69467258D01*
X85257480Y-69467263D01*
X85002009Y-69614759D01*
X85002002Y-69614764D01*
X84767966Y-69794346D01*
X84767945Y-69794365D01*
X84559365Y-70002945D01*
X84559346Y-70002966D01*
X84379764Y-70237002D01*
X84379759Y-70237009D01*
X84232263Y-70492480D01*
X84232258Y-70492491D01*
X84232257Y-70492493D01*
X84171425Y-70639354D01*
X84119361Y-70765048D01*
X84043005Y-71050014D01*
X84004500Y-71342491D01*
X76200000Y-71342491D01*
X76200000Y-68452996D01*
X95076778Y-68452996D01*
X95076778Y-68453003D01*
X95095643Y-68740834D01*
X95095645Y-68740849D01*
X95151919Y-69023754D01*
X95151920Y-69023758D01*
X95193398Y-69145945D01*
X95244641Y-69296902D01*
X95244644Y-69296908D01*
X95372220Y-69555608D01*
X95532473Y-69795445D01*
X95532476Y-69795449D01*
X95722672Y-70012327D01*
X95802800Y-70082597D01*
X95939546Y-70202520D01*
X95939548Y-70202521D01*
X95939550Y-70202523D01*
X95939554Y-70202526D01*
X95991162Y-70237009D01*
X96179389Y-70362778D01*
X96438098Y-70490359D01*
X96711247Y-70583081D01*
X96926831Y-70625963D01*
X96994150Y-70639354D01*
X96994152Y-70639354D01*
X96994161Y-70639356D01*
X97158640Y-70650136D01*
X97281997Y-70658222D01*
X97282000Y-70658222D01*
X97282003Y-70658222D01*
X97389939Y-70651147D01*
X97569839Y-70639356D01*
X97852753Y-70583081D01*
X98125902Y-70490359D01*
X98384611Y-70362778D01*
X98624454Y-70202520D01*
X98841327Y-70012327D01*
X99031520Y-69795454D01*
X99191778Y-69555611D01*
X99319359Y-69296902D01*
X99412081Y-69023753D01*
X99468356Y-68740839D01*
X99487222Y-68453000D01*
X99487222Y-68452996D01*
X104474778Y-68452996D01*
X104474778Y-68453003D01*
X104493643Y-68740834D01*
X104493645Y-68740849D01*
X104549919Y-69023754D01*
X104549920Y-69023758D01*
X104591398Y-69145945D01*
X104642641Y-69296902D01*
X104642644Y-69296908D01*
X104770220Y-69555608D01*
X104930473Y-69795445D01*
X104930476Y-69795449D01*
X105120672Y-70012327D01*
X105200800Y-70082597D01*
X105337546Y-70202520D01*
X105337548Y-70202521D01*
X105337550Y-70202523D01*
X105337554Y-70202526D01*
X105389162Y-70237009D01*
X105577389Y-70362778D01*
X105836098Y-70490359D01*
X106109247Y-70583081D01*
X106324831Y-70625963D01*
X106392150Y-70639354D01*
X106392152Y-70639354D01*
X106392161Y-70639356D01*
X106556640Y-70650136D01*
X106679997Y-70658222D01*
X106680000Y-70658222D01*
X106680003Y-70658222D01*
X106787939Y-70651147D01*
X106967839Y-70639356D01*
X107250753Y-70583081D01*
X107523902Y-70490359D01*
X107782611Y-70362778D01*
X108022454Y-70202520D01*
X108239327Y-70012327D01*
X108429520Y-69795454D01*
X108589778Y-69555611D01*
X108717359Y-69296902D01*
X108810081Y-69023753D01*
X108866356Y-68740839D01*
X108885222Y-68453000D01*
X108866356Y-68165161D01*
X108810081Y-67882247D01*
X108717359Y-67609098D01*
X108589778Y-67350389D01*
X108471173Y-67172884D01*
X108429526Y-67110554D01*
X108429523Y-67110550D01*
X108429521Y-67110548D01*
X108429520Y-67110546D01*
X108359767Y-67031009D01*
X108239327Y-66893672D01*
X108022449Y-66703476D01*
X108022445Y-66703473D01*
X107782608Y-66543220D01*
X107523908Y-66415644D01*
X107523902Y-66415641D01*
X107431266Y-66384195D01*
X107250758Y-66322920D01*
X107250754Y-66322919D01*
X106967849Y-66266645D01*
X106967834Y-66266643D01*
X106680003Y-66247778D01*
X106679997Y-66247778D01*
X106392165Y-66266643D01*
X106392150Y-66266645D01*
X106109245Y-66322919D01*
X106109241Y-66322920D01*
X105840855Y-66414025D01*
X105836098Y-66415641D01*
X105836095Y-66415642D01*
X105836091Y-66415644D01*
X105577391Y-66543220D01*
X105337554Y-66703473D01*
X105337550Y-66703476D01*
X105120672Y-66893672D01*
X104930476Y-67110550D01*
X104930473Y-67110554D01*
X104770220Y-67350391D01*
X104642644Y-67609091D01*
X104642640Y-67609101D01*
X104549920Y-67882241D01*
X104549919Y-67882245D01*
X104493645Y-68165150D01*
X104493643Y-68165165D01*
X104474778Y-68452996D01*
X99487222Y-68452996D01*
X99468356Y-68165161D01*
X99412081Y-67882247D01*
X99319359Y-67609098D01*
X99191778Y-67350389D01*
X99073173Y-67172884D01*
X99031526Y-67110554D01*
X99031523Y-67110550D01*
X99031521Y-67110548D01*
X99031520Y-67110546D01*
X98961767Y-67031009D01*
X98841327Y-66893672D01*
X98624449Y-66703476D01*
X98624445Y-66703473D01*
X98384608Y-66543220D01*
X98125908Y-66415644D01*
X98125902Y-66415641D01*
X98033266Y-66384195D01*
X97852758Y-66322920D01*
X97852754Y-66322919D01*
X97569849Y-66266645D01*
X97569834Y-66266643D01*
X97282003Y-66247778D01*
X97281997Y-66247778D01*
X96994165Y-66266643D01*
X96994150Y-66266645D01*
X96711245Y-66322919D01*
X96711241Y-66322920D01*
X96442855Y-66414025D01*
X96438098Y-66415641D01*
X96438095Y-66415642D01*
X96438091Y-66415644D01*
X96179391Y-66543220D01*
X95939554Y-66703473D01*
X95939550Y-66703476D01*
X95722672Y-66893672D01*
X95532476Y-67110550D01*
X95532473Y-67110554D01*
X95372220Y-67350391D01*
X95244644Y-67609091D01*
X95244640Y-67609101D01*
X95151920Y-67882241D01*
X95151919Y-67882245D01*
X95095645Y-68165150D01*
X95095643Y-68165165D01*
X95076778Y-68452996D01*
X76200000Y-68452996D01*
X76200000Y-65892491D01*
X84004500Y-65892491D01*
X84004500Y-66187508D01*
X84043005Y-66479985D01*
X84043006Y-66479991D01*
X84043007Y-66479993D01*
X84119361Y-66764952D01*
X84232257Y-67037507D01*
X84232258Y-67037508D01*
X84232263Y-67037519D01*
X84379759Y-67292990D01*
X84379762Y-67292994D01*
X84559346Y-67527033D01*
X84559365Y-67527054D01*
X84767945Y-67735634D01*
X84767966Y-67735653D01*
X85002002Y-67915235D01*
X85002009Y-67915240D01*
X85257480Y-68062736D01*
X85257484Y-68062737D01*
X85257493Y-68062743D01*
X85530048Y-68175639D01*
X85815007Y-68251993D01*
X85815013Y-68251993D01*
X85815014Y-68251994D01*
X85848574Y-68256412D01*
X86107494Y-68290500D01*
X86107501Y-68290500D01*
X88402499Y-68290500D01*
X88402506Y-68290500D01*
X88694993Y-68251993D01*
X88979952Y-68175639D01*
X89252507Y-68062743D01*
X89507994Y-67915238D01*
X89742042Y-67735646D01*
X89950646Y-67527042D01*
X89997337Y-67466194D01*
X90130238Y-67292994D01*
X90130240Y-67292990D01*
X90150356Y-67258149D01*
X90277743Y-67037507D01*
X90390639Y-66764952D01*
X90466993Y-66479993D01*
X90505500Y-66187506D01*
X90505500Y-65892494D01*
X90466993Y-65600007D01*
X90390639Y-65315048D01*
X90277743Y-65042493D01*
X90277737Y-65042484D01*
X90277736Y-65042480D01*
X90130240Y-64787009D01*
X90130235Y-64787002D01*
X89950653Y-64552966D01*
X89950634Y-64552945D01*
X89742054Y-64344365D01*
X89742033Y-64344346D01*
X89507997Y-64164764D01*
X89507990Y-64164759D01*
X89252519Y-64017263D01*
X89252511Y-64017259D01*
X89252507Y-64017257D01*
X88979952Y-63904361D01*
X88694993Y-63828007D01*
X88694991Y-63828006D01*
X88694985Y-63828005D01*
X88402508Y-63789500D01*
X88402506Y-63789500D01*
X86107494Y-63789500D01*
X86107491Y-63789500D01*
X85815014Y-63828005D01*
X85530048Y-63904361D01*
X85257491Y-64017258D01*
X85257480Y-64017263D01*
X85002009Y-64164759D01*
X85002002Y-64164764D01*
X84767966Y-64344346D01*
X84767945Y-64344365D01*
X84559365Y-64552945D01*
X84559346Y-64552966D01*
X84379764Y-64787002D01*
X84379759Y-64787009D01*
X84232263Y-65042480D01*
X84232258Y-65042491D01*
X84119361Y-65315048D01*
X84043005Y-65600014D01*
X84004500Y-65892491D01*
X76200000Y-65892491D01*
X76200000Y-59281965D01*
X84004500Y-59281965D01*
X84004500Y-61898027D01*
X84004501Y-61898037D01*
X84010367Y-61964027D01*
X84015114Y-62017418D01*
X84071091Y-62213049D01*
X84071092Y-62213051D01*
X84105567Y-62279051D01*
X84165302Y-62393407D01*
X84293891Y-62551109D01*
X84451593Y-62679698D01*
X84631951Y-62773909D01*
X84827582Y-62829886D01*
X84946963Y-62840500D01*
X89563036Y-62840499D01*
X89682418Y-62829886D01*
X89878049Y-62773909D01*
X90058407Y-62679698D01*
X90216109Y-62551109D01*
X90344698Y-62393407D01*
X90438909Y-62213049D01*
X90494886Y-62017418D01*
X90505500Y-61898037D01*
X90505499Y-59447965D01*
X104479500Y-59447965D01*
X104479500Y-61964027D01*
X104479501Y-61964037D01*
X104484246Y-62017418D01*
X104490114Y-62083418D01*
X104527207Y-62213051D01*
X104546092Y-62279051D01*
X104605826Y-62393407D01*
X104640302Y-62459407D01*
X104768891Y-62617109D01*
X104926593Y-62745698D01*
X105106951Y-62839909D01*
X105302582Y-62895886D01*
X105421963Y-62906500D01*
X107938036Y-62906499D01*
X108057418Y-62895886D01*
X108253049Y-62839909D01*
X108433407Y-62745698D01*
X108591109Y-62617109D01*
X108719698Y-62459407D01*
X108813909Y-62279049D01*
X108869886Y-62083418D01*
X108880500Y-61964037D01*
X108880499Y-59447964D01*
X108869886Y-59328582D01*
X108813909Y-59132951D01*
X108719698Y-58952593D01*
X108591109Y-58794891D01*
X108433407Y-58666302D01*
X108433405Y-58666301D01*
X108433404Y-58666300D01*
X108253051Y-58572092D01*
X108253050Y-58572091D01*
X108253049Y-58572091D01*
X108057418Y-58516114D01*
X107938037Y-58505500D01*
X107938032Y-58505500D01*
X105421972Y-58505500D01*
X105421962Y-58505501D01*
X105302588Y-58516113D01*
X105302585Y-58516113D01*
X105302582Y-58516114D01*
X105106951Y-58572091D01*
X105106948Y-58572092D01*
X104926595Y-58666300D01*
X104768891Y-58794891D01*
X104640300Y-58952595D01*
X104546092Y-59132948D01*
X104546091Y-59132950D01*
X104546091Y-59132951D01*
X104490114Y-59328582D01*
X104490114Y-59328588D01*
X104479500Y-59447965D01*
X90505499Y-59447965D01*
X90505499Y-59281964D01*
X90494886Y-59162582D01*
X90438909Y-58966951D01*
X90344698Y-58786593D01*
X90216109Y-58628891D01*
X90058407Y-58500302D01*
X90058405Y-58500301D01*
X90058404Y-58500300D01*
X89878051Y-58406092D01*
X89878050Y-58406091D01*
X89878049Y-58406091D01*
X89682418Y-58350114D01*
X89563037Y-58339500D01*
X89563032Y-58339500D01*
X84946972Y-58339500D01*
X84946962Y-58339501D01*
X84827588Y-58350113D01*
X84827585Y-58350113D01*
X84827582Y-58350114D01*
X84631951Y-58406091D01*
X84631948Y-58406092D01*
X84451595Y-58500300D01*
X84293891Y-58628891D01*
X84165300Y-58786595D01*
X84071092Y-58966948D01*
X84071091Y-58966950D01*
X84071091Y-58966951D01*
X84015114Y-59162582D01*
X84015114Y-59162588D01*
X84004500Y-59281965D01*
X76200000Y-59281965D01*
X76200000Y-57162398D01*
X86768785Y-57162398D01*
X98865500Y-57162398D01*
X98865500Y-55706000D01*
X105174859Y-55706000D01*
X105195388Y-55953743D01*
X105256411Y-56194716D01*
X105356266Y-56422364D01*
X105356270Y-56422370D01*
X105492229Y-56630473D01*
X105516752Y-56657113D01*
X106163123Y-56010742D01*
X106199881Y-56074408D01*
X106311592Y-56186119D01*
X106375255Y-56222875D01*
X105730417Y-56867712D01*
X105730417Y-56867713D01*
X105856765Y-56966053D01*
X105856766Y-56966054D01*
X106075392Y-57084367D01*
X106075394Y-57084369D01*
X106310505Y-57165082D01*
X106310512Y-57165084D01*
X106555710Y-57206000D01*
X106804290Y-57206000D01*
X107049487Y-57165084D01*
X107049494Y-57165082D01*
X107284605Y-57084369D01*
X107284607Y-57084367D01*
X107503231Y-56966054D01*
X107503241Y-56966048D01*
X107629580Y-56867713D01*
X107629581Y-56867712D01*
X106984744Y-56222875D01*
X107048408Y-56186119D01*
X107160119Y-56074408D01*
X107196875Y-56010744D01*
X107843245Y-56657114D01*
X107843246Y-56657113D01*
X107864683Y-56633828D01*
X123933065Y-56633828D01*
X123933065Y-56633835D01*
X123952783Y-56934681D01*
X123952785Y-56934696D01*
X124011604Y-57230394D01*
X124011605Y-57230398D01*
X124108517Y-57515888D01*
X124108521Y-57515898D01*
X124241866Y-57786297D01*
X124409369Y-58036985D01*
X124509050Y-58150648D01*
X124509051Y-58150648D01*
X125432071Y-57227628D01*
X125461249Y-57271295D01*
X125600537Y-57410583D01*
X125644202Y-57439759D01*
X124721182Y-58362779D01*
X124721182Y-58362780D01*
X124834851Y-58462465D01*
X125085534Y-58629965D01*
X125355933Y-58763310D01*
X125355943Y-58763314D01*
X125641433Y-58860226D01*
X125641437Y-58860227D01*
X125937135Y-58919046D01*
X125937150Y-58919048D01*
X126237997Y-58938767D01*
X126238003Y-58938767D01*
X126538849Y-58919048D01*
X126538864Y-58919046D01*
X126834562Y-58860227D01*
X126834566Y-58860226D01*
X127120056Y-58763314D01*
X127120066Y-58763310D01*
X127390465Y-58629965D01*
X127641154Y-58462462D01*
X127754816Y-58362781D01*
X127754816Y-58362779D01*
X126831796Y-57439759D01*
X126875463Y-57410583D01*
X127014751Y-57271295D01*
X127043927Y-57227628D01*
X127966947Y-58150648D01*
X127966949Y-58150648D01*
X128066630Y-58036986D01*
X128234133Y-57786297D01*
X128367478Y-57515898D01*
X128367482Y-57515888D01*
X128464394Y-57230398D01*
X128464395Y-57230394D01*
X128523214Y-56934696D01*
X128523216Y-56934681D01*
X128542935Y-56633835D01*
X128542935Y-56633828D01*
X128523216Y-56332982D01*
X128523214Y-56332967D01*
X128464395Y-56037269D01*
X128464394Y-56037265D01*
X128367482Y-55751775D01*
X128367478Y-55751765D01*
X128234133Y-55481367D01*
X128066629Y-55230678D01*
X127966948Y-55117014D01*
X127966947Y-55117014D01*
X127043927Y-56040034D01*
X127014751Y-55996369D01*
X126875463Y-55857081D01*
X126831796Y-55827903D01*
X127754816Y-54904883D01*
X127754816Y-54904882D01*
X127641153Y-54805201D01*
X127390465Y-54637698D01*
X127120066Y-54504353D01*
X127120056Y-54504349D01*
X126834566Y-54407437D01*
X126834562Y-54407436D01*
X126575980Y-54356000D01*
X144544859Y-54356000D01*
X144565388Y-54603743D01*
X144626411Y-54844716D01*
X144726266Y-55072364D01*
X144726270Y-55072370D01*
X144862229Y-55280473D01*
X144886752Y-55307113D01*
X145533123Y-54660742D01*
X145569881Y-54724408D01*
X145681592Y-54836119D01*
X145745255Y-54872875D01*
X145100417Y-55517712D01*
X145100417Y-55517713D01*
X145226765Y-55616053D01*
X145226766Y-55616054D01*
X145445392Y-55734367D01*
X145445394Y-55734369D01*
X145680505Y-55815082D01*
X145680512Y-55815084D01*
X145925710Y-55856000D01*
X146174290Y-55856000D01*
X146419487Y-55815084D01*
X146419494Y-55815082D01*
X146654605Y-55734369D01*
X146654607Y-55734367D01*
X146873231Y-55616054D01*
X146873241Y-55616048D01*
X146999580Y-55517713D01*
X146999581Y-55517712D01*
X146354744Y-54872875D01*
X146418408Y-54836119D01*
X146530119Y-54724408D01*
X146566875Y-54660744D01*
X147213245Y-55307114D01*
X147213246Y-55307113D01*
X147237764Y-55280481D01*
X147237769Y-55280475D01*
X147373729Y-55072370D01*
X147373733Y-55072364D01*
X147473588Y-54844716D01*
X147534611Y-54603743D01*
X147555140Y-54356000D01*
X159276859Y-54356000D01*
X159297388Y-54603743D01*
X159358411Y-54844716D01*
X159458266Y-55072364D01*
X159458270Y-55072370D01*
X159594229Y-55280473D01*
X159618752Y-55307113D01*
X160265123Y-54660742D01*
X160301881Y-54724408D01*
X160413592Y-54836119D01*
X160477255Y-54872875D01*
X159832417Y-55517712D01*
X159832417Y-55517713D01*
X159958765Y-55616053D01*
X159958766Y-55616054D01*
X160177392Y-55734367D01*
X160177394Y-55734369D01*
X160412505Y-55815082D01*
X160412512Y-55815084D01*
X160657710Y-55856000D01*
X160906290Y-55856000D01*
X161151487Y-55815084D01*
X161151494Y-55815082D01*
X161386605Y-55734369D01*
X161386607Y-55734367D01*
X161605231Y-55616054D01*
X161605241Y-55616048D01*
X161731580Y-55517713D01*
X161731581Y-55517712D01*
X161086744Y-54872875D01*
X161150408Y-54836119D01*
X161262119Y-54724408D01*
X161298875Y-54660744D01*
X161945245Y-55307114D01*
X161945246Y-55307113D01*
X161969764Y-55280481D01*
X161969769Y-55280475D01*
X162105729Y-55072370D01*
X162105733Y-55072364D01*
X162205588Y-54844716D01*
X162266611Y-54603743D01*
X162287140Y-54356000D01*
X162266611Y-54108256D01*
X162205588Y-53867283D01*
X162105733Y-53639635D01*
X162105729Y-53639629D01*
X161969770Y-53431526D01*
X161945245Y-53404884D01*
X161298874Y-54051254D01*
X161262119Y-53987592D01*
X161150408Y-53875881D01*
X161086744Y-53839124D01*
X161534114Y-53391753D01*
X169200520Y-53391753D01*
X169200520Y-53654006D01*
X169234748Y-53914000D01*
X169234750Y-53914007D01*
X169302624Y-54167319D01*
X169402982Y-54409604D01*
X169402983Y-54409605D01*
X169402988Y-54409615D01*
X169534103Y-54636713D01*
X169534107Y-54636719D01*
X169693747Y-54844765D01*
X169693766Y-54844786D01*
X169879173Y-55030193D01*
X169879183Y-55030202D01*
X169879189Y-55030208D01*
X169879192Y-55030210D01*
X169879194Y-55030212D01*
X170087240Y-55189852D01*
X170087246Y-55189856D01*
X170157952Y-55230678D01*
X170314356Y-55320978D01*
X170556641Y-55421336D01*
X170809953Y-55489210D01*
X170809957Y-55489210D01*
X170809959Y-55489211D01*
X170876968Y-55498032D01*
X171069956Y-55523440D01*
X171069963Y-55523440D01*
X171332197Y-55523440D01*
X171332204Y-55523440D01*
X171567182Y-55492504D01*
X171592200Y-55489211D01*
X171592200Y-55489210D01*
X171592207Y-55489210D01*
X171845519Y-55421336D01*
X172087804Y-55320978D01*
X172314917Y-55189854D01*
X172522971Y-55030208D01*
X172708408Y-54844771D01*
X172868054Y-54636717D01*
X172999178Y-54409604D01*
X173099536Y-54167319D01*
X173167410Y-53914007D01*
X173201640Y-53654004D01*
X173201640Y-53391756D01*
X173167410Y-53131753D01*
X173099536Y-52878441D01*
X172999178Y-52636156D01*
X172868054Y-52409043D01*
X172708408Y-52200989D01*
X172708402Y-52200983D01*
X172708393Y-52200973D01*
X172522986Y-52015566D01*
X172522965Y-52015547D01*
X172314919Y-51855907D01*
X172314913Y-51855903D01*
X172087815Y-51724788D01*
X172087810Y-51724785D01*
X172087804Y-51724782D01*
X171845519Y-51624424D01*
X171592207Y-51556550D01*
X171592200Y-51556548D01*
X171332206Y-51522320D01*
X171332204Y-51522320D01*
X171069956Y-51522320D01*
X171069953Y-51522320D01*
X170809959Y-51556548D01*
X170556641Y-51624424D01*
X170314354Y-51724783D01*
X170314344Y-51724788D01*
X170087246Y-51855903D01*
X170087240Y-51855907D01*
X169879194Y-52015547D01*
X169879173Y-52015566D01*
X169693766Y-52200973D01*
X169693747Y-52200994D01*
X169534107Y-52409040D01*
X169534103Y-52409046D01*
X169402988Y-52636144D01*
X169402983Y-52636154D01*
X169302624Y-52878441D01*
X169234748Y-53131759D01*
X169200520Y-53391753D01*
X161534114Y-53391753D01*
X161731580Y-53194287D01*
X161731580Y-53194286D01*
X161605234Y-53095946D01*
X161605233Y-53095945D01*
X161386607Y-52977632D01*
X161386605Y-52977630D01*
X161151494Y-52896917D01*
X161151487Y-52896915D01*
X160906290Y-52856000D01*
X160657710Y-52856000D01*
X160412512Y-52896915D01*
X160412505Y-52896917D01*
X160177394Y-52977630D01*
X160177392Y-52977631D01*
X159958763Y-53095948D01*
X159832418Y-53194286D01*
X159832418Y-53194287D01*
X160477255Y-53839124D01*
X160413592Y-53875881D01*
X160301881Y-53987592D01*
X160265124Y-54051255D01*
X159618753Y-53404884D01*
X159618753Y-53404885D01*
X159594232Y-53431523D01*
X159594227Y-53431528D01*
X159458270Y-53639629D01*
X159458266Y-53639635D01*
X159358411Y-53867283D01*
X159297388Y-54108256D01*
X159276859Y-54356000D01*
X147555140Y-54356000D01*
X147534611Y-54108256D01*
X147473588Y-53867283D01*
X147373733Y-53639635D01*
X147373729Y-53639629D01*
X147237770Y-53431526D01*
X147213245Y-53404884D01*
X146566874Y-54051254D01*
X146530119Y-53987592D01*
X146418408Y-53875881D01*
X146354744Y-53839124D01*
X146999580Y-53194287D01*
X146999580Y-53194286D01*
X146873234Y-53095946D01*
X146873233Y-53095945D01*
X146654607Y-52977632D01*
X146654605Y-52977630D01*
X146419494Y-52896917D01*
X146419487Y-52896915D01*
X146174290Y-52856000D01*
X145925710Y-52856000D01*
X145680512Y-52896915D01*
X145680505Y-52896917D01*
X145445394Y-52977630D01*
X145445392Y-52977631D01*
X145226763Y-53095948D01*
X145100418Y-53194286D01*
X145100418Y-53194287D01*
X145745255Y-53839124D01*
X145681592Y-53875881D01*
X145569881Y-53987592D01*
X145533124Y-54051255D01*
X144886753Y-53404884D01*
X144886753Y-53404885D01*
X144862232Y-53431523D01*
X144862227Y-53431528D01*
X144726270Y-53639629D01*
X144726266Y-53639635D01*
X144626411Y-53867283D01*
X144565388Y-54108256D01*
X144544859Y-54356000D01*
X126575980Y-54356000D01*
X126538864Y-54348617D01*
X126538849Y-54348615D01*
X126238003Y-54328897D01*
X126237997Y-54328897D01*
X125937150Y-54348615D01*
X125937135Y-54348617D01*
X125641437Y-54407436D01*
X125641433Y-54407437D01*
X125355943Y-54504349D01*
X125355933Y-54504353D01*
X125085535Y-54637698D01*
X124834844Y-54805203D01*
X124834840Y-54805206D01*
X124721182Y-54904881D01*
X124721182Y-54904883D01*
X125644203Y-55827904D01*
X125600537Y-55857081D01*
X125461249Y-55996369D01*
X125432072Y-56040035D01*
X124509051Y-55117014D01*
X124509049Y-55117014D01*
X124409374Y-55230672D01*
X124409371Y-55230676D01*
X124241866Y-55481367D01*
X124108521Y-55751765D01*
X124108517Y-55751775D01*
X124011605Y-56037265D01*
X124011604Y-56037269D01*
X123952785Y-56332967D01*
X123952783Y-56332982D01*
X123933065Y-56633828D01*
X107864683Y-56633828D01*
X107867764Y-56630481D01*
X107867769Y-56630475D01*
X108003729Y-56422370D01*
X108003733Y-56422364D01*
X108103588Y-56194716D01*
X108164611Y-55953743D01*
X108185140Y-55706000D01*
X108164611Y-55458256D01*
X108103588Y-55217283D01*
X108003733Y-54989635D01*
X108003729Y-54989629D01*
X107867770Y-54781526D01*
X107843245Y-54754884D01*
X107196874Y-55401254D01*
X107160119Y-55337592D01*
X107048408Y-55225881D01*
X106984744Y-55189124D01*
X107629580Y-54544287D01*
X107629580Y-54544286D01*
X107503234Y-54445946D01*
X107503233Y-54445945D01*
X107284607Y-54327632D01*
X107284605Y-54327630D01*
X107049494Y-54246917D01*
X107049487Y-54246915D01*
X106804290Y-54206000D01*
X106555710Y-54206000D01*
X106310512Y-54246915D01*
X106310505Y-54246917D01*
X106075394Y-54327630D01*
X106075392Y-54327631D01*
X105856763Y-54445948D01*
X105730418Y-54544286D01*
X105730418Y-54544287D01*
X106375255Y-55189124D01*
X106311592Y-55225881D01*
X106199881Y-55337592D01*
X106163124Y-55401255D01*
X105516753Y-54754884D01*
X105516753Y-54754885D01*
X105492232Y-54781523D01*
X105492227Y-54781528D01*
X105356270Y-54989629D01*
X105356266Y-54989635D01*
X105256411Y-55217283D01*
X105195388Y-55458256D01*
X105174859Y-55706000D01*
X98865500Y-55706000D01*
X98865500Y-50931988D01*
X86768785Y-50931988D01*
X86768785Y-57162398D01*
X76200000Y-57162398D01*
X76200000Y-53391753D01*
X79200700Y-53391753D01*
X79200700Y-53654006D01*
X79234928Y-53914000D01*
X79234930Y-53914007D01*
X79302804Y-54167319D01*
X79403162Y-54409604D01*
X79403163Y-54409605D01*
X79403168Y-54409615D01*
X79534283Y-54636713D01*
X79534287Y-54636719D01*
X79693927Y-54844765D01*
X79693946Y-54844786D01*
X79879353Y-55030193D01*
X79879363Y-55030202D01*
X79879369Y-55030208D01*
X79879372Y-55030210D01*
X79879374Y-55030212D01*
X80087420Y-55189852D01*
X80087426Y-55189856D01*
X80158132Y-55230678D01*
X80314536Y-55320978D01*
X80556821Y-55421336D01*
X80810133Y-55489210D01*
X80810137Y-55489210D01*
X80810139Y-55489211D01*
X80877148Y-55498032D01*
X81070136Y-55523440D01*
X81070143Y-55523440D01*
X81332377Y-55523440D01*
X81332384Y-55523440D01*
X81567362Y-55492504D01*
X81592380Y-55489211D01*
X81592380Y-55489210D01*
X81592387Y-55489210D01*
X81845699Y-55421336D01*
X82087984Y-55320978D01*
X82315097Y-55189854D01*
X82523151Y-55030208D01*
X82708588Y-54844771D01*
X82868234Y-54636717D01*
X82999358Y-54409604D01*
X83099716Y-54167319D01*
X83167590Y-53914007D01*
X83201820Y-53654004D01*
X83201820Y-53391756D01*
X83167590Y-53131753D01*
X83099716Y-52878441D01*
X82999358Y-52636156D01*
X82868234Y-52409043D01*
X82708588Y-52200989D01*
X82708582Y-52200983D01*
X82708573Y-52200973D01*
X82523166Y-52015566D01*
X82523145Y-52015547D01*
X82315099Y-51855907D01*
X82315093Y-51855903D01*
X82087995Y-51724788D01*
X82087990Y-51724785D01*
X82087984Y-51724782D01*
X81845699Y-51624424D01*
X81592387Y-51556550D01*
X81592380Y-51556548D01*
X81332386Y-51522320D01*
X81332384Y-51522320D01*
X81070136Y-51522320D01*
X81070133Y-51522320D01*
X80810139Y-51556548D01*
X80556821Y-51624424D01*
X80314534Y-51724783D01*
X80314524Y-51724788D01*
X80087426Y-51855903D01*
X80087420Y-51855907D01*
X79879374Y-52015547D01*
X79879353Y-52015566D01*
X79693946Y-52200973D01*
X79693927Y-52200994D01*
X79534287Y-52409040D01*
X79534283Y-52409046D01*
X79403168Y-52636144D01*
X79403163Y-52636154D01*
X79302804Y-52878441D01*
X79234928Y-53131759D01*
X79200700Y-53391753D01*
X76200000Y-53391753D01*
X76200000Y-48650160D01*
X76220002Y-48582039D01*
X76273658Y-48535546D01*
X76326000Y-48524160D01*
X175769000Y-48524160D01*
X175837121Y-48544162D01*
G37*
G04 #@! TD.AperFunction*
M02*
