G04 #@! TF.FileFunction,Copper,L1,Top,Signal*
%FSLAX46Y46*%
G04 Gerber Fmt 4.6, Leading zero omitted, Abs format (unit mm)*
G04 Created by KiCad (PCBNEW 4.0.7) date 04/22/18 21:31:13*
%MOMM*%
%LPD*%
G01*
G04 APERTURE LIST*
%ADD10C,0.100000*%
%ADD11R,1.300000X1.300000*%
%ADD12C,1.300000*%
%ADD13C,1.998980*%
%ADD14R,1.998980X1.998980*%
%ADD15C,2.499360*%
%ADD16R,2.000000X2.000000*%
%ADD17C,2.000000*%
%ADD18C,1.000000*%
G04 APERTURE END LIST*
D10*
D11*
X163830000Y-67945000D03*
D12*
X163830000Y-60445000D03*
D13*
X88265000Y-104140000D03*
X98425000Y-104140000D03*
X88265000Y-97155000D03*
X98425000Y-97155000D03*
X118745000Y-67310000D03*
D14*
X108585000Y-67310000D03*
D13*
X108585000Y-64135000D03*
D14*
X118745000Y-64135000D03*
D13*
X98425000Y-100327460D03*
D14*
X88265000Y-100327460D03*
D15*
X125171200Y-78105000D03*
X125171200Y-83185000D03*
X127711200Y-80645000D03*
X111201200Y-111760000D03*
X111201200Y-116840000D03*
X113741200Y-114300000D03*
D13*
X104140000Y-71120000D03*
X104140000Y-60960000D03*
X108585000Y-71120000D03*
X118745000Y-71120000D03*
X119140000Y-56515000D03*
X104140000Y-56515000D03*
X88265000Y-93345000D03*
X98425000Y-93345000D03*
X132588000Y-87630000D03*
X132588000Y-77470000D03*
D11*
X128350000Y-69850000D03*
D12*
X133350000Y-69850000D03*
D11*
X114935000Y-104775000D03*
D12*
X119935000Y-104775000D03*
D11*
X129540000Y-113665000D03*
D12*
X129540000Y-121165000D03*
D16*
X145415000Y-60385000D03*
D17*
X145415000Y-67885000D03*
D16*
X147955000Y-113605000D03*
D17*
X147955000Y-106105000D03*
D11*
X131445000Y-93980000D03*
D12*
X131445000Y-101480000D03*
D16*
X146685000Y-90745000D03*
D17*
X146685000Y-83245000D03*
D15*
X88265000Y-75565000D03*
X88265000Y-71424800D03*
X88265000Y-79705200D03*
X168275000Y-111290100D03*
X168264840Y-107149900D03*
X164299900Y-81584800D03*
X164299900Y-85725000D03*
X164299900Y-89865200D03*
X168440100Y-81584800D03*
X168440100Y-85725000D03*
X168440100Y-89865200D03*
D17*
X163803485Y-98494441D03*
X153454275Y-98450957D03*
D18*
X163760001Y-98450957D02*
X163803485Y-98494441D01*
X153454275Y-98450957D02*
X163760001Y-98450957D01*
M02*
