G04 #@! TF.FileFunction,Legend,Top*
%FSLAX46Y46*%
G04 Gerber Fmt 4.6, Leading zero omitted, Abs format (unit mm)*
G04 Created by KiCad (PCBNEW 4.0.7) date 04/22/18 21:31:13*
%MOMM*%
%LPD*%
G01*
G04 APERTURE LIST*
%ADD10C,0.100000*%
%ADD11C,0.150000*%
%ADD12C,0.304800*%
%ADD13C,0.254000*%
%ADD14C,0.500000*%
G04 APERTURE END LIST*
D10*
D11*
X155830000Y-64120000D02*
X171830000Y-64120000D01*
X155833000Y-63980000D02*
X171827000Y-63980000D01*
X155838000Y-63840000D02*
X171822000Y-63840000D01*
X155845000Y-63700000D02*
X171815000Y-63700000D01*
X155855000Y-63560000D02*
X171805000Y-63560000D01*
X155868000Y-63420000D02*
X171792000Y-63420000D01*
X155882000Y-63280000D02*
X171778000Y-63280000D01*
X155900000Y-63140000D02*
X171760000Y-63140000D01*
X155920000Y-63000000D02*
X171740000Y-63000000D01*
X155942000Y-62860000D02*
X171718000Y-62860000D01*
X155967000Y-62720000D02*
X171693000Y-62720000D01*
X155995000Y-62580000D02*
X171665000Y-62580000D01*
X156025000Y-62440000D02*
X171635000Y-62440000D01*
X156058000Y-62300000D02*
X171602000Y-62300000D01*
X156093000Y-62160000D02*
X171567000Y-62160000D01*
X156131000Y-62020000D02*
X171529000Y-62020000D01*
X156172000Y-61880000D02*
X171488000Y-61880000D01*
X156216000Y-61740000D02*
X171444000Y-61740000D01*
X156263000Y-61600000D02*
X171397000Y-61600000D01*
X156312000Y-61460000D02*
X171348000Y-61460000D01*
X156364000Y-61320000D02*
X163346000Y-61320000D01*
X164314000Y-61320000D02*
X171296000Y-61320000D01*
X156420000Y-61180000D02*
X163152000Y-61180000D01*
X164508000Y-61180000D02*
X171240000Y-61180000D01*
X156478000Y-61040000D02*
X163026000Y-61040000D01*
X164634000Y-61040000D02*
X171182000Y-61040000D01*
X156540000Y-60900000D02*
X162940000Y-60900000D01*
X164720000Y-60900000D02*
X171120000Y-60900000D01*
X156605000Y-60760000D02*
X162881000Y-60760000D01*
X164779000Y-60760000D02*
X171055000Y-60760000D01*
X156673000Y-60620000D02*
X162845000Y-60620000D01*
X164815000Y-60620000D02*
X170987000Y-60620000D01*
X156745000Y-60480000D02*
X162831000Y-60480000D01*
X164829000Y-60480000D02*
X170915000Y-60480000D01*
X156820000Y-60340000D02*
X162836000Y-60340000D01*
X164824000Y-60340000D02*
X170840000Y-60340000D01*
X156899000Y-60200000D02*
X162860000Y-60200000D01*
X164800000Y-60200000D02*
X170761000Y-60200000D01*
X156982000Y-60060000D02*
X162907000Y-60060000D01*
X164753000Y-60060000D02*
X170678000Y-60060000D01*
X157068000Y-59920000D02*
X162979000Y-59920000D01*
X164681000Y-59920000D02*
X170592000Y-59920000D01*
X157159000Y-59780000D02*
X163083000Y-59780000D01*
X164577000Y-59780000D02*
X170501000Y-59780000D01*
X157253000Y-59640000D02*
X163237000Y-59640000D01*
X164423000Y-59640000D02*
X170407000Y-59640000D01*
X157353000Y-59500000D02*
X163503000Y-59500000D01*
X164157000Y-59500000D02*
X170307000Y-59500000D01*
X157456000Y-59360000D02*
X170204000Y-59360000D01*
X157565000Y-59220000D02*
X170095000Y-59220000D01*
X157679000Y-59080000D02*
X169981000Y-59080000D01*
X157798000Y-58940000D02*
X169862000Y-58940000D01*
X157923000Y-58800000D02*
X169737000Y-58800000D01*
X158054000Y-58660000D02*
X169606000Y-58660000D01*
X158191000Y-58520000D02*
X169469000Y-58520000D01*
X158336000Y-58380000D02*
X169324000Y-58380000D01*
X158488000Y-58240000D02*
X169172000Y-58240000D01*
X158648000Y-58100000D02*
X169012000Y-58100000D01*
X158818000Y-57960000D02*
X168842000Y-57960000D01*
X158997000Y-57820000D02*
X168663000Y-57820000D01*
X159187000Y-57680000D02*
X168473000Y-57680000D01*
X159390000Y-57540000D02*
X168270000Y-57540000D01*
X159608000Y-57400000D02*
X168052000Y-57400000D01*
X159842000Y-57260000D02*
X167818000Y-57260000D01*
X160096000Y-57120000D02*
X167564000Y-57120000D01*
X160374000Y-56980000D02*
X167286000Y-56980000D01*
X160683000Y-56840000D02*
X166977000Y-56840000D01*
X161033000Y-56700000D02*
X166627000Y-56700000D01*
X161441000Y-56560000D02*
X166219000Y-56560000D01*
X161946000Y-56420000D02*
X165714000Y-56420000D01*
X162667000Y-56280000D02*
X164993000Y-56280000D01*
X164830000Y-60445000D02*
G75*
G03X164830000Y-60445000I-1000000J0D01*
G01*
X171867500Y-64195000D02*
G75*
G03X171867500Y-64195000I-8037500J0D01*
G01*
X90805000Y-102870000D02*
X95885000Y-102870000D01*
X95885000Y-102870000D02*
X95885000Y-105410000D01*
X95885000Y-105410000D02*
X90805000Y-105410000D01*
X90805000Y-105410000D02*
X90805000Y-102870000D01*
X90805000Y-104140000D02*
X89535000Y-104140000D01*
X95885000Y-104140000D02*
X97155000Y-104140000D01*
X90805000Y-95885000D02*
X95885000Y-95885000D01*
X95885000Y-95885000D02*
X95885000Y-98425000D01*
X95885000Y-98425000D02*
X90805000Y-98425000D01*
X90805000Y-98425000D02*
X90805000Y-95885000D01*
X90805000Y-97155000D02*
X89535000Y-97155000D01*
X95885000Y-97155000D02*
X97155000Y-97155000D01*
X116205000Y-67310000D02*
X117221000Y-67310000D01*
X111379000Y-67310000D02*
X110109000Y-67310000D01*
X111633000Y-66040000D02*
X111633000Y-68580000D01*
X111887000Y-66040000D02*
X111887000Y-68580000D01*
X112141000Y-66040000D02*
X112141000Y-68580000D01*
X111379000Y-66040000D02*
X111379000Y-68580000D01*
X112395000Y-66040000D02*
X111125000Y-68580000D01*
X111125000Y-66040000D02*
X112395000Y-68580000D01*
X112395000Y-66040000D02*
X112395000Y-68580000D01*
X111760000Y-66040000D02*
X111760000Y-68580000D01*
X111125000Y-68580000D02*
X111125000Y-66040000D01*
X111125000Y-66040000D02*
X116205000Y-66040000D01*
X116205000Y-66040000D02*
X116205000Y-68580000D01*
X116205000Y-68580000D02*
X111125000Y-68580000D01*
X111125000Y-64135000D02*
X110109000Y-64135000D01*
X115951000Y-64135000D02*
X117221000Y-64135000D01*
X115697000Y-65405000D02*
X115697000Y-62865000D01*
X115443000Y-65405000D02*
X115443000Y-62865000D01*
X115189000Y-65405000D02*
X115189000Y-62865000D01*
X115951000Y-65405000D02*
X115951000Y-62865000D01*
X114935000Y-65405000D02*
X116205000Y-62865000D01*
X116205000Y-65405000D02*
X114935000Y-62865000D01*
X114935000Y-65405000D02*
X114935000Y-62865000D01*
X115570000Y-65405000D02*
X115570000Y-62865000D01*
X116205000Y-62865000D02*
X116205000Y-65405000D01*
X116205000Y-65405000D02*
X111125000Y-65405000D01*
X111125000Y-65405000D02*
X111125000Y-62865000D01*
X111125000Y-62865000D02*
X116205000Y-62865000D01*
X95885000Y-100327460D02*
X96901000Y-100327460D01*
X91059000Y-100327460D02*
X89789000Y-100327460D01*
X91313000Y-99057460D02*
X91313000Y-101597460D01*
X91567000Y-99057460D02*
X91567000Y-101597460D01*
X91821000Y-99057460D02*
X91821000Y-101597460D01*
X91059000Y-99057460D02*
X91059000Y-101597460D01*
X92075000Y-99057460D02*
X90805000Y-101597460D01*
X90805000Y-99057460D02*
X92075000Y-101597460D01*
X92075000Y-99057460D02*
X92075000Y-101597460D01*
X91440000Y-99057460D02*
X91440000Y-101597460D01*
X90805000Y-101597460D02*
X90805000Y-99057460D01*
X90805000Y-99057460D02*
X95885000Y-99057460D01*
X95885000Y-99057460D02*
X95885000Y-101597460D01*
X95885000Y-101597460D02*
X90805000Y-101597460D01*
D12*
X110915632Y-80645000D02*
G75*
G03X110915632Y-80645000I-2000432J0D01*
G01*
X119339360Y-75145900D02*
X119339360Y-73644760D01*
X118341140Y-75145900D02*
X118341140Y-73644760D01*
X115338860Y-75145900D02*
X115338860Y-73644760D01*
X114340640Y-75145900D02*
X114340640Y-73644760D01*
X110840520Y-75145900D02*
X110840520Y-73644760D01*
X109839760Y-75145900D02*
X109839760Y-73644760D01*
X106840020Y-75145900D02*
X106840020Y-73644760D01*
X105839260Y-75145900D02*
X105839260Y-73644760D01*
X105839260Y-87645240D02*
X105839260Y-86144100D01*
X106840020Y-87645240D02*
X106840020Y-86144100D01*
X109839760Y-87645240D02*
X109839760Y-86144100D01*
X110840520Y-87645240D02*
X110840520Y-86144100D01*
X114340640Y-87645240D02*
X114340640Y-86144100D01*
X115338860Y-87645240D02*
X115338860Y-86144100D01*
X118341140Y-87645240D02*
X118341140Y-86144100D01*
X119339360Y-87645240D02*
X119339360Y-86144100D01*
X102839520Y-75145900D02*
X122339100Y-75145900D01*
X122339100Y-86144100D02*
X102839520Y-86144100D01*
X122339100Y-87645240D02*
X122339100Y-73644760D01*
X122339100Y-73644760D02*
X102839520Y-73644760D01*
X102839520Y-73644760D02*
X102839520Y-87645240D01*
X102839520Y-87645240D02*
X122339100Y-87645240D01*
X121031000Y-80645000D02*
X127762000Y-80645000D01*
X125222000Y-78105000D02*
X121031000Y-78105000D01*
X125222000Y-83185000D02*
X121031000Y-83185000D01*
X121031000Y-85725000D02*
X121031000Y-75565000D01*
X105664000Y-75565000D02*
X105664000Y-85725000D01*
X121031000Y-75565000D02*
X105664000Y-75565000D01*
X105664000Y-85725000D02*
X121031000Y-85725000D01*
D13*
X112141000Y-75565000D02*
X112141000Y-85725000D01*
D12*
X96945632Y-114300000D02*
G75*
G03X96945632Y-114300000I-2000432J0D01*
G01*
X105369360Y-108800900D02*
X105369360Y-107299760D01*
X104371140Y-108800900D02*
X104371140Y-107299760D01*
X101368860Y-108800900D02*
X101368860Y-107299760D01*
X100370640Y-108800900D02*
X100370640Y-107299760D01*
X96870520Y-108800900D02*
X96870520Y-107299760D01*
X95869760Y-108800900D02*
X95869760Y-107299760D01*
X92870020Y-108800900D02*
X92870020Y-107299760D01*
X91869260Y-108800900D02*
X91869260Y-107299760D01*
X91869260Y-121300240D02*
X91869260Y-119799100D01*
X92870020Y-121300240D02*
X92870020Y-119799100D01*
X95869760Y-121300240D02*
X95869760Y-119799100D01*
X96870520Y-121300240D02*
X96870520Y-119799100D01*
X100370640Y-121300240D02*
X100370640Y-119799100D01*
X101368860Y-121300240D02*
X101368860Y-119799100D01*
X104371140Y-121300240D02*
X104371140Y-119799100D01*
X105369360Y-121300240D02*
X105369360Y-119799100D01*
X88869520Y-108800900D02*
X108369100Y-108800900D01*
X108369100Y-119799100D02*
X88869520Y-119799100D01*
X108369100Y-121300240D02*
X108369100Y-107299760D01*
X108369100Y-107299760D02*
X88869520Y-107299760D01*
X88869520Y-107299760D02*
X88869520Y-121300240D01*
X88869520Y-121300240D02*
X108369100Y-121300240D01*
X107061000Y-114300000D02*
X113792000Y-114300000D01*
X111252000Y-111760000D02*
X107061000Y-111760000D01*
X111252000Y-116840000D02*
X107061000Y-116840000D01*
X107061000Y-119380000D02*
X107061000Y-109220000D01*
X91694000Y-109220000D02*
X91694000Y-119380000D01*
X107061000Y-109220000D02*
X91694000Y-109220000D01*
X91694000Y-119380000D02*
X107061000Y-119380000D01*
D13*
X98171000Y-109220000D02*
X98171000Y-119380000D01*
D11*
X102870000Y-68580000D02*
X102870000Y-63500000D01*
X102870000Y-63500000D02*
X105410000Y-63500000D01*
X105410000Y-63500000D02*
X105410000Y-68580000D01*
X105410000Y-68580000D02*
X102870000Y-68580000D01*
X104140000Y-68580000D02*
X104140000Y-69850000D01*
X104140000Y-63500000D02*
X104140000Y-62230000D01*
X111125000Y-69850000D02*
X116205000Y-69850000D01*
X116205000Y-69850000D02*
X116205000Y-72390000D01*
X116205000Y-72390000D02*
X111125000Y-72390000D01*
X111125000Y-72390000D02*
X111125000Y-69850000D01*
X111125000Y-71120000D02*
X109855000Y-71120000D01*
X116205000Y-71120000D02*
X117475000Y-71120000D01*
X116720000Y-57785000D02*
X116720000Y-55245000D01*
X116720000Y-55245000D02*
X106560000Y-55245000D01*
X106560000Y-55245000D02*
X106560000Y-57785000D01*
X106560000Y-57785000D02*
X116720000Y-57785000D01*
X105410000Y-56515000D02*
X106560000Y-56515000D01*
X117870000Y-56515000D02*
X116720000Y-56515000D01*
X90805000Y-92075000D02*
X95885000Y-92075000D01*
X95885000Y-92075000D02*
X95885000Y-94615000D01*
X95885000Y-94615000D02*
X90805000Y-94615000D01*
X90805000Y-94615000D02*
X90805000Y-92075000D01*
X90805000Y-93345000D02*
X89535000Y-93345000D01*
X95885000Y-93345000D02*
X97155000Y-93345000D01*
X131318000Y-85090000D02*
X131318000Y-80010000D01*
X131318000Y-80010000D02*
X133858000Y-80010000D01*
X133858000Y-80010000D02*
X133858000Y-85090000D01*
X133858000Y-85090000D02*
X131318000Y-85090000D01*
X132588000Y-85090000D02*
X132588000Y-86360000D01*
X132588000Y-80010000D02*
X132588000Y-78740000D01*
X130925000Y-64851000D02*
X130925000Y-74849000D01*
X131065000Y-64855000D02*
X131065000Y-74845000D01*
X131205000Y-64863000D02*
X131205000Y-74837000D01*
X131345000Y-64875000D02*
X131345000Y-74825000D01*
X131485000Y-64890000D02*
X131485000Y-74810000D01*
X131625000Y-64910000D02*
X131625000Y-74790000D01*
X131765000Y-64934000D02*
X131765000Y-74766000D01*
X131905000Y-64963000D02*
X131905000Y-74737000D01*
X132045000Y-64995000D02*
X132045000Y-74705000D01*
X132185000Y-65032000D02*
X132185000Y-74668000D01*
X132325000Y-65073000D02*
X132325000Y-74627000D01*
X132465000Y-65118000D02*
X132465000Y-69384000D01*
X132465000Y-70316000D02*
X132465000Y-74582000D01*
X132605000Y-65168000D02*
X132605000Y-69183000D01*
X132605000Y-70517000D02*
X132605000Y-74532000D01*
X132745000Y-65223000D02*
X132745000Y-69054000D01*
X132745000Y-70646000D02*
X132745000Y-74477000D01*
X132885000Y-65283000D02*
X132885000Y-68965000D01*
X132885000Y-70735000D02*
X132885000Y-74417000D01*
X133025000Y-65348000D02*
X133025000Y-68904000D01*
X133025000Y-70796000D02*
X133025000Y-74352000D01*
X133165000Y-65418000D02*
X133165000Y-68867000D01*
X133165000Y-70833000D02*
X133165000Y-74282000D01*
X133305000Y-65494000D02*
X133305000Y-68851000D01*
X133305000Y-70849000D02*
X133305000Y-74206000D01*
X133445000Y-65576000D02*
X133445000Y-68855000D01*
X133445000Y-70845000D02*
X133445000Y-74124000D01*
X133585000Y-65664000D02*
X133585000Y-68878000D01*
X133585000Y-70822000D02*
X133585000Y-74036000D01*
X133725000Y-65759000D02*
X133725000Y-68923000D01*
X133725000Y-70777000D02*
X133725000Y-73941000D01*
X133865000Y-65861000D02*
X133865000Y-68993000D01*
X133865000Y-70707000D02*
X133865000Y-73839000D01*
X134005000Y-65971000D02*
X134005000Y-69094000D01*
X134005000Y-70606000D02*
X134005000Y-73729000D01*
X134145000Y-66089000D02*
X134145000Y-69243000D01*
X134145000Y-70457000D02*
X134145000Y-73611000D01*
X134285000Y-66217000D02*
X134285000Y-69495000D01*
X134285000Y-70205000D02*
X134285000Y-73483000D01*
X134425000Y-66354000D02*
X134425000Y-73346000D01*
X134565000Y-66504000D02*
X134565000Y-73196000D01*
X134705000Y-66666000D02*
X134705000Y-73034000D01*
X134845000Y-66843000D02*
X134845000Y-72857000D01*
X134985000Y-67039000D02*
X134985000Y-72661000D01*
X135125000Y-67257000D02*
X135125000Y-72443000D01*
X135265000Y-67503000D02*
X135265000Y-72197000D01*
X135405000Y-67788000D02*
X135405000Y-71912000D01*
X135545000Y-68130000D02*
X135545000Y-71570000D01*
X135685000Y-68576000D02*
X135685000Y-71124000D01*
X135825000Y-69351000D02*
X135825000Y-70349000D01*
X134350000Y-69850000D02*
G75*
G03X134350000Y-69850000I-1000000J0D01*
G01*
X135887500Y-69850000D02*
G75*
G03X135887500Y-69850000I-5037500J0D01*
G01*
X117510000Y-99776000D02*
X117510000Y-109774000D01*
X117650000Y-99780000D02*
X117650000Y-109770000D01*
X117790000Y-99788000D02*
X117790000Y-109762000D01*
X117930000Y-99800000D02*
X117930000Y-109750000D01*
X118070000Y-99815000D02*
X118070000Y-109735000D01*
X118210000Y-99835000D02*
X118210000Y-109715000D01*
X118350000Y-99859000D02*
X118350000Y-109691000D01*
X118490000Y-99888000D02*
X118490000Y-109662000D01*
X118630000Y-99920000D02*
X118630000Y-109630000D01*
X118770000Y-99957000D02*
X118770000Y-109593000D01*
X118910000Y-99998000D02*
X118910000Y-109552000D01*
X119050000Y-100043000D02*
X119050000Y-104309000D01*
X119050000Y-105241000D02*
X119050000Y-109507000D01*
X119190000Y-100093000D02*
X119190000Y-104108000D01*
X119190000Y-105442000D02*
X119190000Y-109457000D01*
X119330000Y-100148000D02*
X119330000Y-103979000D01*
X119330000Y-105571000D02*
X119330000Y-109402000D01*
X119470000Y-100208000D02*
X119470000Y-103890000D01*
X119470000Y-105660000D02*
X119470000Y-109342000D01*
X119610000Y-100273000D02*
X119610000Y-103829000D01*
X119610000Y-105721000D02*
X119610000Y-109277000D01*
X119750000Y-100343000D02*
X119750000Y-103792000D01*
X119750000Y-105758000D02*
X119750000Y-109207000D01*
X119890000Y-100419000D02*
X119890000Y-103776000D01*
X119890000Y-105774000D02*
X119890000Y-109131000D01*
X120030000Y-100501000D02*
X120030000Y-103780000D01*
X120030000Y-105770000D02*
X120030000Y-109049000D01*
X120170000Y-100589000D02*
X120170000Y-103803000D01*
X120170000Y-105747000D02*
X120170000Y-108961000D01*
X120310000Y-100684000D02*
X120310000Y-103848000D01*
X120310000Y-105702000D02*
X120310000Y-108866000D01*
X120450000Y-100786000D02*
X120450000Y-103918000D01*
X120450000Y-105632000D02*
X120450000Y-108764000D01*
X120590000Y-100896000D02*
X120590000Y-104019000D01*
X120590000Y-105531000D02*
X120590000Y-108654000D01*
X120730000Y-101014000D02*
X120730000Y-104168000D01*
X120730000Y-105382000D02*
X120730000Y-108536000D01*
X120870000Y-101142000D02*
X120870000Y-104420000D01*
X120870000Y-105130000D02*
X120870000Y-108408000D01*
X121010000Y-101279000D02*
X121010000Y-108271000D01*
X121150000Y-101429000D02*
X121150000Y-108121000D01*
X121290000Y-101591000D02*
X121290000Y-107959000D01*
X121430000Y-101768000D02*
X121430000Y-107782000D01*
X121570000Y-101964000D02*
X121570000Y-107586000D01*
X121710000Y-102182000D02*
X121710000Y-107368000D01*
X121850000Y-102428000D02*
X121850000Y-107122000D01*
X121990000Y-102713000D02*
X121990000Y-106837000D01*
X122130000Y-103055000D02*
X122130000Y-106495000D01*
X122270000Y-103501000D02*
X122270000Y-106049000D01*
X122410000Y-104276000D02*
X122410000Y-105274000D01*
X120935000Y-104775000D02*
G75*
G03X120935000Y-104775000I-1000000J0D01*
G01*
X122472500Y-104775000D02*
G75*
G03X122472500Y-104775000I-5037500J0D01*
G01*
X137540000Y-117490000D02*
X121540000Y-117490000D01*
X137537000Y-117630000D02*
X121543000Y-117630000D01*
X137532000Y-117770000D02*
X121548000Y-117770000D01*
X137525000Y-117910000D02*
X121555000Y-117910000D01*
X137515000Y-118050000D02*
X121565000Y-118050000D01*
X137502000Y-118190000D02*
X121578000Y-118190000D01*
X137488000Y-118330000D02*
X121592000Y-118330000D01*
X137470000Y-118470000D02*
X121610000Y-118470000D01*
X137450000Y-118610000D02*
X121630000Y-118610000D01*
X137428000Y-118750000D02*
X121652000Y-118750000D01*
X137403000Y-118890000D02*
X121677000Y-118890000D01*
X137375000Y-119030000D02*
X121705000Y-119030000D01*
X137345000Y-119170000D02*
X121735000Y-119170000D01*
X137312000Y-119310000D02*
X121768000Y-119310000D01*
X137277000Y-119450000D02*
X121803000Y-119450000D01*
X137239000Y-119590000D02*
X121841000Y-119590000D01*
X137198000Y-119730000D02*
X121882000Y-119730000D01*
X137154000Y-119870000D02*
X121926000Y-119870000D01*
X137107000Y-120010000D02*
X121973000Y-120010000D01*
X137058000Y-120150000D02*
X122022000Y-120150000D01*
X137006000Y-120290000D02*
X130024000Y-120290000D01*
X129056000Y-120290000D02*
X122074000Y-120290000D01*
X136950000Y-120430000D02*
X130218000Y-120430000D01*
X128862000Y-120430000D02*
X122130000Y-120430000D01*
X136892000Y-120570000D02*
X130344000Y-120570000D01*
X128736000Y-120570000D02*
X122188000Y-120570000D01*
X136830000Y-120710000D02*
X130430000Y-120710000D01*
X128650000Y-120710000D02*
X122250000Y-120710000D01*
X136765000Y-120850000D02*
X130489000Y-120850000D01*
X128591000Y-120850000D02*
X122315000Y-120850000D01*
X136697000Y-120990000D02*
X130525000Y-120990000D01*
X128555000Y-120990000D02*
X122383000Y-120990000D01*
X136625000Y-121130000D02*
X130539000Y-121130000D01*
X128541000Y-121130000D02*
X122455000Y-121130000D01*
X136550000Y-121270000D02*
X130534000Y-121270000D01*
X128546000Y-121270000D02*
X122530000Y-121270000D01*
X136471000Y-121410000D02*
X130510000Y-121410000D01*
X128570000Y-121410000D02*
X122609000Y-121410000D01*
X136388000Y-121550000D02*
X130463000Y-121550000D01*
X128617000Y-121550000D02*
X122692000Y-121550000D01*
X136302000Y-121690000D02*
X130391000Y-121690000D01*
X128689000Y-121690000D02*
X122778000Y-121690000D01*
X136211000Y-121830000D02*
X130287000Y-121830000D01*
X128793000Y-121830000D02*
X122869000Y-121830000D01*
X136117000Y-121970000D02*
X130133000Y-121970000D01*
X128947000Y-121970000D02*
X122963000Y-121970000D01*
X136017000Y-122110000D02*
X129867000Y-122110000D01*
X129213000Y-122110000D02*
X123063000Y-122110000D01*
X135914000Y-122250000D02*
X123166000Y-122250000D01*
X135805000Y-122390000D02*
X123275000Y-122390000D01*
X135691000Y-122530000D02*
X123389000Y-122530000D01*
X135572000Y-122670000D02*
X123508000Y-122670000D01*
X135447000Y-122810000D02*
X123633000Y-122810000D01*
X135316000Y-122950000D02*
X123764000Y-122950000D01*
X135179000Y-123090000D02*
X123901000Y-123090000D01*
X135034000Y-123230000D02*
X124046000Y-123230000D01*
X134882000Y-123370000D02*
X124198000Y-123370000D01*
X134722000Y-123510000D02*
X124358000Y-123510000D01*
X134552000Y-123650000D02*
X124528000Y-123650000D01*
X134373000Y-123790000D02*
X124707000Y-123790000D01*
X134183000Y-123930000D02*
X124897000Y-123930000D01*
X133980000Y-124070000D02*
X125100000Y-124070000D01*
X133762000Y-124210000D02*
X125318000Y-124210000D01*
X133528000Y-124350000D02*
X125552000Y-124350000D01*
X133274000Y-124490000D02*
X125806000Y-124490000D01*
X132996000Y-124630000D02*
X126084000Y-124630000D01*
X132687000Y-124770000D02*
X126393000Y-124770000D01*
X132337000Y-124910000D02*
X126743000Y-124910000D01*
X131929000Y-125050000D02*
X127151000Y-125050000D01*
X131424000Y-125190000D02*
X127656000Y-125190000D01*
X130703000Y-125330000D02*
X128377000Y-125330000D01*
X130540000Y-121165000D02*
G75*
G03X130540000Y-121165000I-1000000J0D01*
G01*
X137577500Y-117415000D02*
G75*
G03X137577500Y-117415000I-8037500J0D01*
G01*
D12*
X149915000Y-72235000D02*
X140915000Y-72235000D01*
X147215000Y-73235000D02*
X143615000Y-73235000D01*
X142815000Y-73035000D02*
X148015000Y-73035000D01*
X148615000Y-72835000D02*
X142215000Y-72835000D01*
X141715000Y-72635000D02*
X149115000Y-72635000D01*
X149515000Y-72435000D02*
X141315000Y-72435000D01*
X154715000Y-64135000D02*
G75*
G03X154715000Y-64135000I-9300000J0D01*
G01*
D14*
X146415000Y-70135000D02*
X144415000Y-70135000D01*
D12*
X143455000Y-101755000D02*
X152455000Y-101755000D01*
X146155000Y-100755000D02*
X149755000Y-100755000D01*
X150555000Y-100955000D02*
X145355000Y-100955000D01*
X144755000Y-101155000D02*
X151155000Y-101155000D01*
X151655000Y-101355000D02*
X144255000Y-101355000D01*
X143855000Y-101555000D02*
X152055000Y-101555000D01*
X157255000Y-109855000D02*
G75*
G03X157255000Y-109855000I-9300000J0D01*
G01*
D14*
X146955000Y-103855000D02*
X148955000Y-103855000D01*
D11*
X139445000Y-97805000D02*
X123445000Y-97805000D01*
X139442000Y-97945000D02*
X123448000Y-97945000D01*
X139437000Y-98085000D02*
X123453000Y-98085000D01*
X139430000Y-98225000D02*
X123460000Y-98225000D01*
X139420000Y-98365000D02*
X123470000Y-98365000D01*
X139407000Y-98505000D02*
X123483000Y-98505000D01*
X139393000Y-98645000D02*
X123497000Y-98645000D01*
X139375000Y-98785000D02*
X123515000Y-98785000D01*
X139355000Y-98925000D02*
X123535000Y-98925000D01*
X139333000Y-99065000D02*
X123557000Y-99065000D01*
X139308000Y-99205000D02*
X123582000Y-99205000D01*
X139280000Y-99345000D02*
X123610000Y-99345000D01*
X139250000Y-99485000D02*
X123640000Y-99485000D01*
X139217000Y-99625000D02*
X123673000Y-99625000D01*
X139182000Y-99765000D02*
X123708000Y-99765000D01*
X139144000Y-99905000D02*
X123746000Y-99905000D01*
X139103000Y-100045000D02*
X123787000Y-100045000D01*
X139059000Y-100185000D02*
X123831000Y-100185000D01*
X139012000Y-100325000D02*
X123878000Y-100325000D01*
X138963000Y-100465000D02*
X123927000Y-100465000D01*
X138911000Y-100605000D02*
X131929000Y-100605000D01*
X130961000Y-100605000D02*
X123979000Y-100605000D01*
X138855000Y-100745000D02*
X132123000Y-100745000D01*
X130767000Y-100745000D02*
X124035000Y-100745000D01*
X138797000Y-100885000D02*
X132249000Y-100885000D01*
X130641000Y-100885000D02*
X124093000Y-100885000D01*
X138735000Y-101025000D02*
X132335000Y-101025000D01*
X130555000Y-101025000D02*
X124155000Y-101025000D01*
X138670000Y-101165000D02*
X132394000Y-101165000D01*
X130496000Y-101165000D02*
X124220000Y-101165000D01*
X138602000Y-101305000D02*
X132430000Y-101305000D01*
X130460000Y-101305000D02*
X124288000Y-101305000D01*
X138530000Y-101445000D02*
X132444000Y-101445000D01*
X130446000Y-101445000D02*
X124360000Y-101445000D01*
X138455000Y-101585000D02*
X132439000Y-101585000D01*
X130451000Y-101585000D02*
X124435000Y-101585000D01*
X138376000Y-101725000D02*
X132415000Y-101725000D01*
X130475000Y-101725000D02*
X124514000Y-101725000D01*
X138293000Y-101865000D02*
X132368000Y-101865000D01*
X130522000Y-101865000D02*
X124597000Y-101865000D01*
X138207000Y-102005000D02*
X132296000Y-102005000D01*
X130594000Y-102005000D02*
X124683000Y-102005000D01*
X138116000Y-102145000D02*
X132192000Y-102145000D01*
X130698000Y-102145000D02*
X124774000Y-102145000D01*
X138022000Y-102285000D02*
X132038000Y-102285000D01*
X130852000Y-102285000D02*
X124868000Y-102285000D01*
X137922000Y-102425000D02*
X131772000Y-102425000D01*
X131118000Y-102425000D02*
X124968000Y-102425000D01*
X137819000Y-102565000D02*
X125071000Y-102565000D01*
X137710000Y-102705000D02*
X125180000Y-102705000D01*
X137596000Y-102845000D02*
X125294000Y-102845000D01*
X137477000Y-102985000D02*
X125413000Y-102985000D01*
X137352000Y-103125000D02*
X125538000Y-103125000D01*
X137221000Y-103265000D02*
X125669000Y-103265000D01*
X137084000Y-103405000D02*
X125806000Y-103405000D01*
X136939000Y-103545000D02*
X125951000Y-103545000D01*
X136787000Y-103685000D02*
X126103000Y-103685000D01*
X136627000Y-103825000D02*
X126263000Y-103825000D01*
X136457000Y-103965000D02*
X126433000Y-103965000D01*
X136278000Y-104105000D02*
X126612000Y-104105000D01*
X136088000Y-104245000D02*
X126802000Y-104245000D01*
X135885000Y-104385000D02*
X127005000Y-104385000D01*
X135667000Y-104525000D02*
X127223000Y-104525000D01*
X135433000Y-104665000D02*
X127457000Y-104665000D01*
X135179000Y-104805000D02*
X127711000Y-104805000D01*
X134901000Y-104945000D02*
X127989000Y-104945000D01*
X134592000Y-105085000D02*
X128298000Y-105085000D01*
X134242000Y-105225000D02*
X128648000Y-105225000D01*
X133834000Y-105365000D02*
X129056000Y-105365000D01*
X133329000Y-105505000D02*
X129561000Y-105505000D01*
X132608000Y-105645000D02*
X130282000Y-105645000D01*
X132445000Y-101480000D02*
G75*
G03X132445000Y-101480000I-1000000J0D01*
G01*
X139482500Y-97730000D02*
G75*
G03X139482500Y-97730000I-8037500J0D01*
G01*
D12*
X142185000Y-78895000D02*
X151185000Y-78895000D01*
X144885000Y-77895000D02*
X148485000Y-77895000D01*
X149285000Y-78095000D02*
X144085000Y-78095000D01*
X143485000Y-78295000D02*
X149885000Y-78295000D01*
X150385000Y-78495000D02*
X142985000Y-78495000D01*
X142585000Y-78695000D02*
X150785000Y-78695000D01*
X155985000Y-86995000D02*
G75*
G03X155985000Y-86995000I-9300000J0D01*
G01*
D14*
X145685000Y-80995000D02*
X147685000Y-80995000D01*
D11*
X86763860Y-69293740D02*
X87045800Y-69613780D01*
X87045800Y-69613780D02*
X86085680Y-69623940D01*
X84465160Y-81561940D02*
X85463380Y-81561940D01*
X84465160Y-82562700D02*
X84465160Y-81561940D01*
X85463380Y-82562700D02*
X84465160Y-82562700D01*
X85463380Y-81561940D02*
X85463380Y-82562700D01*
X85463380Y-77063600D02*
X85463380Y-78064360D01*
X85463380Y-78064360D02*
X84465160Y-78064360D01*
X84465160Y-78064360D02*
X84465160Y-77063600D01*
X84465160Y-77063600D02*
X85463380Y-77063600D01*
X84465160Y-72763380D02*
X85463380Y-72763380D01*
X84465160Y-73764140D02*
X84465160Y-72763380D01*
X85463380Y-73764140D02*
X84465160Y-73764140D01*
X85463380Y-72763380D02*
X85463380Y-73764140D01*
X85463380Y-68564760D02*
X85463380Y-69565520D01*
X85463380Y-69565520D02*
X84465160Y-69565520D01*
X84465160Y-69565520D02*
X84465160Y-68564760D01*
X84465160Y-68564760D02*
X85463380Y-68564760D01*
X89865200Y-81864200D02*
X90263980Y-81363820D01*
X89865200Y-81864200D02*
X86664800Y-81864200D01*
X86664800Y-81864200D02*
X86266020Y-81363820D01*
X86664800Y-77665580D02*
X86266020Y-77165200D01*
X89865200Y-77665580D02*
X90263980Y-77165200D01*
X86664800Y-73464420D02*
X86266020Y-72964040D01*
X89865200Y-73464420D02*
X90263980Y-72964040D01*
X89865200Y-77665580D02*
X86664800Y-77665580D01*
X89865200Y-73464420D02*
X86664800Y-73464420D01*
X90263980Y-68564760D02*
X90263980Y-66565780D01*
X90263980Y-66565780D02*
X86266020Y-66565780D01*
X86266020Y-66565780D02*
X86266020Y-68564760D01*
X89766140Y-82565240D02*
X90065860Y-82964020D01*
X90065860Y-82964020D02*
X90263980Y-83365340D01*
X90263980Y-83365340D02*
X90365580Y-83665060D01*
X90365580Y-83665060D02*
X90464640Y-84063840D01*
X90464640Y-84063840D02*
X90365580Y-84665820D01*
X90365580Y-84665820D02*
X90164920Y-85166200D01*
X90164920Y-85166200D02*
X89865200Y-85564980D01*
X89865200Y-85564980D02*
X89565480Y-85864700D01*
X89565480Y-85864700D02*
X89164160Y-86065360D01*
X89164160Y-86065360D02*
X88663780Y-86266020D01*
X88663780Y-86266020D02*
X88165940Y-86266020D01*
X88165940Y-86266020D02*
X87665560Y-86164420D01*
X87665560Y-86164420D02*
X87165180Y-85963760D01*
X87165180Y-85963760D02*
X86763860Y-85564980D01*
X86763860Y-85564980D02*
X86464140Y-85166200D01*
X86464140Y-85166200D02*
X86266020Y-84764880D01*
X86266020Y-84764880D02*
X86164420Y-84366100D01*
X86164420Y-84366100D02*
X86164420Y-83865720D01*
X86164420Y-83865720D02*
X86365080Y-83263740D01*
X86365080Y-83263740D02*
X86565740Y-82964020D01*
X86565740Y-82964020D02*
X86763860Y-82565240D01*
X85465920Y-82565240D02*
X86763860Y-82565240D01*
X91064080Y-82565240D02*
X89766140Y-82565240D01*
X91064080Y-68564760D02*
X85465920Y-68564760D01*
X85465920Y-68564760D02*
X85465920Y-82565240D01*
X91064080Y-68564760D02*
X91064080Y-82565240D01*
X166804340Y-109590840D02*
X166855140Y-109679740D01*
X166855140Y-109679740D02*
X166855140Y-109880400D01*
X166855140Y-109880400D02*
X166745920Y-110040420D01*
X166745920Y-110040420D02*
X166545260Y-110098840D01*
X166545260Y-110098840D02*
X165966140Y-109489240D01*
X165966140Y-109489240D02*
X165966140Y-110159800D01*
X166484300Y-105310940D02*
X166855140Y-105709720D01*
X166855140Y-105709720D02*
X165966140Y-105699560D01*
X169875200Y-109220000D02*
X170273980Y-108419900D01*
X169875200Y-113360200D02*
X170273980Y-112560100D01*
X166674800Y-113360200D02*
X166276020Y-112560100D01*
X166674800Y-109220000D02*
X166276020Y-108419900D01*
X169875200Y-113360200D02*
X166674800Y-113360200D01*
X169875200Y-109220000D02*
X166674800Y-109220000D01*
X165475920Y-109720380D02*
X164475160Y-109720380D01*
X164475160Y-109720380D02*
X164475160Y-108719620D01*
X164475160Y-108719620D02*
X165475920Y-108719620D01*
X165475920Y-114221260D02*
X164475160Y-114221260D01*
X164475160Y-114221260D02*
X164475160Y-113220500D01*
X164475160Y-113220500D02*
X165475920Y-113220500D01*
X165475920Y-104218740D02*
X164475160Y-104218740D01*
X164475160Y-104218740D02*
X164475160Y-105219500D01*
X164475160Y-105219500D02*
X165475920Y-105219500D01*
X170075860Y-104218740D02*
X170075860Y-102420420D01*
X170075860Y-102420420D02*
X166474140Y-102420420D01*
X166474140Y-102420420D02*
X166474140Y-104218740D01*
X169776140Y-114221260D02*
X169994580Y-114490500D01*
X169994580Y-114490500D02*
X170205400Y-114868960D01*
X170205400Y-114868960D02*
X170334940Y-115260120D01*
X170334940Y-115260120D02*
X170395900Y-115740180D01*
X170395900Y-115740180D02*
X170345100Y-116210080D01*
X170345100Y-116210080D02*
X170225720Y-116550440D01*
X170225720Y-116550440D02*
X170025060Y-116928900D01*
X170025060Y-116928900D02*
X169705020Y-117299740D01*
X169705020Y-117299740D02*
X169354500Y-117551200D01*
X169354500Y-117551200D02*
X168904920Y-117759480D01*
X168904920Y-117759480D02*
X168465500Y-117850920D01*
X168465500Y-117850920D02*
X167924480Y-117850920D01*
X167924480Y-117850920D02*
X167215820Y-117599460D01*
X167215820Y-117599460D02*
X166745920Y-117231160D01*
X166745920Y-117231160D02*
X166494460Y-116870480D01*
X166494460Y-116870480D02*
X166235380Y-116339620D01*
X166235380Y-116339620D02*
X166174420Y-115689380D01*
X166174420Y-115689380D02*
X166255700Y-115100100D01*
X166255700Y-115100100D02*
X166474140Y-114650520D01*
X166474140Y-114650520D02*
X166773860Y-114221260D01*
X171074080Y-104218740D02*
X165475920Y-104218740D01*
X165475920Y-104218740D02*
X165475920Y-114221260D01*
X165475920Y-114221260D02*
X166773860Y-114221260D01*
X171074080Y-104218740D02*
X171074080Y-114228880D01*
X171074080Y-114228880D02*
X169765980Y-114221260D01*
X170799760Y-79484220D02*
X170159680Y-79474060D01*
X169611040Y-79684880D02*
X170418760Y-79984600D01*
X170418760Y-79984600D02*
X170418760Y-79184500D01*
X169819320Y-83705700D02*
X169809160Y-84234020D01*
X169809160Y-84234020D02*
X170299380Y-84264500D01*
X170299380Y-84264500D02*
X170258740Y-84114640D01*
X170258740Y-84114640D02*
X170279060Y-83865720D01*
X170279060Y-83865720D02*
X170390820Y-83764120D01*
X170390820Y-83764120D02*
X170599100Y-83743800D01*
X170599100Y-83743800D02*
X170779440Y-83774280D01*
X170779440Y-83774280D02*
X170860720Y-83875880D01*
X170860720Y-83875880D02*
X170891200Y-84046060D01*
X170891200Y-84046060D02*
X170881040Y-84104480D01*
X170881040Y-84104480D02*
X170850560Y-84206080D01*
X170850560Y-84206080D02*
X170748960Y-84264500D01*
X169870120Y-91506040D02*
X169870120Y-91605100D01*
X169870120Y-91605100D02*
X169870120Y-91836240D01*
X169870120Y-91836240D02*
X169931080Y-91945460D01*
X169931080Y-91945460D02*
X170108880Y-92075000D01*
X170108880Y-92075000D02*
X170380660Y-92115640D01*
X170380660Y-92115640D02*
X170639740Y-92115640D01*
X170639740Y-92115640D02*
X170860720Y-92064840D01*
X170860720Y-92064840D02*
X170919140Y-91945460D01*
X170919140Y-91945460D02*
X170959780Y-91666060D01*
X170959780Y-91666060D02*
X170850560Y-91533980D01*
X170850560Y-91533980D02*
X170670220Y-91455240D01*
X170670220Y-91455240D02*
X170449240Y-91455240D01*
X170449240Y-91455240D02*
X170350180Y-91544140D01*
X170350180Y-91544140D02*
X170319700Y-91676220D01*
X170319700Y-91676220D02*
X170309540Y-91925140D01*
X162039300Y-92105480D02*
X162039300Y-91404440D01*
X162039300Y-91404440D02*
X162450780Y-91785440D01*
X162450780Y-91785440D02*
X162471100Y-91516200D01*
X162471100Y-91516200D02*
X162638740Y-91434920D01*
X162638740Y-91434920D02*
X162829240Y-91424760D01*
X162829240Y-91424760D02*
X162958780Y-91485720D01*
X162958780Y-91485720D02*
X163009580Y-91605100D01*
X163009580Y-91605100D02*
X163009580Y-91714320D01*
X163009580Y-91714320D02*
X162999420Y-91884500D01*
X162999420Y-91884500D02*
X162941000Y-92014040D01*
X162168840Y-84335620D02*
X162059620Y-84195920D01*
X162059620Y-84195920D02*
X162008820Y-84084160D01*
X162008820Y-84084160D02*
X162018980Y-83845400D01*
X162018980Y-83845400D02*
X162110420Y-83675220D01*
X162110420Y-83675220D02*
X162239960Y-83654900D01*
X162239960Y-83654900D02*
X162410140Y-83705700D01*
X162410140Y-83705700D02*
X162989260Y-84274660D01*
X162989260Y-84274660D02*
X162989260Y-83593940D01*
X162440620Y-80025240D02*
X162059620Y-79613760D01*
X162059620Y-79613760D02*
X163050220Y-79613760D01*
X172859700Y-80543400D02*
X171361100Y-80543400D01*
X172859700Y-79044800D02*
X172859700Y-80543400D01*
X171361100Y-79044800D02*
X172859700Y-79044800D01*
X171361100Y-80543400D02*
X171361100Y-79044800D01*
X171368720Y-84305140D02*
X171368720Y-82806540D01*
X171368720Y-82806540D02*
X172867320Y-82806540D01*
X172867320Y-82806540D02*
X172867320Y-84305140D01*
X172867320Y-84305140D02*
X171368720Y-84305140D01*
X172859700Y-88503760D02*
X171361100Y-88503760D01*
X172859700Y-87005160D02*
X172859700Y-88503760D01*
X171361100Y-87005160D02*
X172859700Y-87005160D01*
X171361100Y-88503760D02*
X171361100Y-87005160D01*
X171371260Y-92735400D02*
X171371260Y-91236800D01*
X171371260Y-91236800D02*
X172869860Y-91236800D01*
X172869860Y-91236800D02*
X172869860Y-92735400D01*
X172869860Y-92735400D02*
X171371260Y-92735400D01*
X166959280Y-95724980D02*
X166959280Y-92725240D01*
X166959280Y-92725240D02*
X169959020Y-92725240D01*
X169959020Y-92725240D02*
X169959020Y-95724980D01*
X169959020Y-95724980D02*
X166959280Y-95724980D01*
X171371260Y-78724760D02*
X165869620Y-78724760D01*
X165869620Y-78724760D02*
X166281100Y-78183740D01*
X166281100Y-78183740D02*
X166489380Y-77444600D01*
X166489380Y-77444600D02*
X166489380Y-76835000D01*
X166489380Y-76835000D02*
X166309040Y-76266040D01*
X166309040Y-76266040D02*
X165930580Y-75684380D01*
X165930580Y-75684380D02*
X165420040Y-75275440D01*
X165420040Y-75275440D02*
X164769800Y-75013820D01*
X164769800Y-75013820D02*
X164089080Y-74985880D01*
X164089080Y-74985880D02*
X163560760Y-75105260D01*
X163560760Y-75105260D02*
X163040060Y-75425300D01*
X163040060Y-75425300D02*
X162631120Y-75765660D01*
X162631120Y-75765660D02*
X162339020Y-76215240D01*
X162339020Y-76215240D02*
X162209480Y-76746100D01*
X162209480Y-76746100D02*
X162179000Y-77254100D01*
X162179000Y-77254100D02*
X162250120Y-77805280D01*
X162250120Y-77805280D02*
X162499040Y-78295500D01*
X162499040Y-78295500D02*
X162819080Y-78724760D01*
X161368740Y-78724760D02*
X162819080Y-78724760D01*
X161368740Y-83726020D02*
X159369760Y-83726020D01*
X159369760Y-83726020D02*
X159369760Y-87723980D01*
X159369760Y-87723980D02*
X161368740Y-87723980D01*
X171371260Y-78724760D02*
X171371260Y-92725240D01*
X171371260Y-92725240D02*
X161368740Y-92725240D01*
X161368740Y-92725240D02*
X161368740Y-78724760D01*
X154887143Y-64361666D02*
X154934762Y-64409285D01*
X154982381Y-64552142D01*
X154982381Y-64647380D01*
X154934762Y-64790238D01*
X154839524Y-64885476D01*
X154744286Y-64933095D01*
X154553810Y-64980714D01*
X154410952Y-64980714D01*
X154220476Y-64933095D01*
X154125238Y-64885476D01*
X154030000Y-64790238D01*
X153982381Y-64647380D01*
X153982381Y-64552142D01*
X154030000Y-64409285D01*
X154077619Y-64361666D01*
X154315714Y-63504523D02*
X154982381Y-63504523D01*
X153934762Y-63742619D02*
X154649048Y-63980714D01*
X154649048Y-63361666D01*
X93427254Y-101092261D02*
X93093920Y-100616070D01*
X92855825Y-101092261D02*
X92855825Y-100092261D01*
X93236778Y-100092261D01*
X93332016Y-100139880D01*
X93379635Y-100187499D01*
X93427254Y-100282737D01*
X93427254Y-100425594D01*
X93379635Y-100520832D01*
X93332016Y-100568451D01*
X93236778Y-100616070D01*
X92855825Y-100616070D01*
X94284397Y-100425594D02*
X94284397Y-101092261D01*
X94046301Y-100044642D02*
X93808206Y-100758928D01*
X94427254Y-100758928D01*
X93427254Y-94107261D02*
X93093920Y-93631070D01*
X92855825Y-94107261D02*
X92855825Y-93107261D01*
X93236778Y-93107261D01*
X93332016Y-93154880D01*
X93379635Y-93202499D01*
X93427254Y-93297737D01*
X93427254Y-93440594D01*
X93379635Y-93535832D01*
X93332016Y-93583451D01*
X93236778Y-93631070D01*
X92855825Y-93631070D01*
X93808206Y-93202499D02*
X93855825Y-93154880D01*
X93951063Y-93107261D01*
X94189159Y-93107261D01*
X94284397Y-93154880D01*
X94332016Y-93202499D01*
X94379635Y-93297737D01*
X94379635Y-93392975D01*
X94332016Y-93535832D01*
X93760587Y-94107261D01*
X94379635Y-94107261D01*
X113234245Y-70302381D02*
X113234245Y-69302381D01*
X113472340Y-69302381D01*
X113615198Y-69350000D01*
X113710436Y-69445238D01*
X113758055Y-69540476D01*
X113805674Y-69730952D01*
X113805674Y-69873810D01*
X113758055Y-70064286D01*
X113710436Y-70159524D01*
X113615198Y-70254762D01*
X113472340Y-70302381D01*
X113234245Y-70302381D01*
X114758055Y-70302381D02*
X114186626Y-70302381D01*
X114472340Y-70302381D02*
X114472340Y-69302381D01*
X114377102Y-69445238D01*
X114281864Y-69540476D01*
X114186626Y-69588095D01*
X112619565Y-62047381D02*
X112619565Y-61047381D01*
X112857660Y-61047381D01*
X113000518Y-61095000D01*
X113095756Y-61190238D01*
X113143375Y-61285476D01*
X113190994Y-61475952D01*
X113190994Y-61618810D01*
X113143375Y-61809286D01*
X113095756Y-61904524D01*
X113000518Y-61999762D01*
X112857660Y-62047381D01*
X112619565Y-62047381D01*
X113571946Y-61142619D02*
X113619565Y-61095000D01*
X113714803Y-61047381D01*
X113952899Y-61047381D01*
X114048137Y-61095000D01*
X114095756Y-61142619D01*
X114143375Y-61237857D01*
X114143375Y-61333095D01*
X114095756Y-61475952D01*
X113524327Y-62047381D01*
X114143375Y-62047381D01*
X92914245Y-103319841D02*
X92914245Y-102319841D01*
X93152340Y-102319841D01*
X93295198Y-102367460D01*
X93390436Y-102462698D01*
X93438055Y-102557936D01*
X93485674Y-102748412D01*
X93485674Y-102891270D01*
X93438055Y-103081746D01*
X93390436Y-103176984D01*
X93295198Y-103272222D01*
X93152340Y-103319841D01*
X92914245Y-103319841D01*
X93819007Y-102319841D02*
X94438055Y-102319841D01*
X94104721Y-102700793D01*
X94247579Y-102700793D01*
X94342817Y-102748412D01*
X94390436Y-102796031D01*
X94438055Y-102891270D01*
X94438055Y-103129365D01*
X94390436Y-103224603D01*
X94342817Y-103272222D01*
X94247579Y-103319841D01*
X93961864Y-103319841D01*
X93866626Y-103272222D01*
X93819007Y-103224603D01*
D12*
X101418571Y-80790143D02*
X101346000Y-80935286D01*
X101200857Y-81080429D01*
X100983143Y-81298143D01*
X100910571Y-81443286D01*
X100910571Y-81588429D01*
X101273429Y-81515857D02*
X101200857Y-81661000D01*
X101055714Y-81806143D01*
X100765429Y-81878714D01*
X100257429Y-81878714D01*
X99967143Y-81806143D01*
X99822000Y-81661000D01*
X99749429Y-81515857D01*
X99749429Y-81225571D01*
X99822000Y-81080429D01*
X99967143Y-80935286D01*
X100257429Y-80862714D01*
X100765429Y-80862714D01*
X101055714Y-80935286D01*
X101200857Y-81080429D01*
X101273429Y-81225571D01*
X101273429Y-81515857D01*
X101273429Y-79411286D02*
X101273429Y-80282143D01*
X101273429Y-79846715D02*
X99749429Y-79846715D01*
X99967143Y-79991858D01*
X100112286Y-80137000D01*
X100184857Y-80282143D01*
X102307571Y-85471001D02*
X102235000Y-85398430D01*
X102162429Y-85253287D01*
X102162429Y-84890430D01*
X102235000Y-84745287D01*
X102307571Y-84672716D01*
X102452714Y-84600144D01*
X102597857Y-84600144D01*
X102815571Y-84672716D01*
X103686429Y-85543573D01*
X103686429Y-84600144D01*
X103613857Y-84019572D02*
X103686429Y-83801858D01*
X103686429Y-83439001D01*
X103613857Y-83293858D01*
X103541286Y-83221287D01*
X103396143Y-83148715D01*
X103251000Y-83148715D01*
X103105857Y-83221287D01*
X103033286Y-83293858D01*
X102960714Y-83439001D01*
X102888143Y-83729287D01*
X102815571Y-83874429D01*
X102743000Y-83947001D01*
X102597857Y-84019572D01*
X102452714Y-84019572D01*
X102307571Y-83947001D01*
X102235000Y-83874429D01*
X102162429Y-83729287D01*
X102162429Y-83366429D01*
X102235000Y-83148715D01*
X103541286Y-81624715D02*
X103613857Y-81697286D01*
X103686429Y-81915000D01*
X103686429Y-82060143D01*
X103613857Y-82277858D01*
X103468714Y-82423000D01*
X103323571Y-82495572D01*
X103033286Y-82568143D01*
X102815571Y-82568143D01*
X102525286Y-82495572D01*
X102380143Y-82423000D01*
X102235000Y-82277858D01*
X102162429Y-82060143D01*
X102162429Y-81915000D01*
X102235000Y-81697286D01*
X102307571Y-81624715D01*
X102307571Y-81044143D02*
X102235000Y-80971572D01*
X102162429Y-80826429D01*
X102162429Y-80463572D01*
X102235000Y-80318429D01*
X102307571Y-80245858D01*
X102452714Y-80173286D01*
X102597857Y-80173286D01*
X102815571Y-80245858D01*
X103686429Y-81116715D01*
X103686429Y-80173286D01*
X103686429Y-79447571D02*
X103686429Y-79157286D01*
X103613857Y-79012143D01*
X103541286Y-78939571D01*
X103323571Y-78794429D01*
X103033286Y-78721857D01*
X102452714Y-78721857D01*
X102307571Y-78794429D01*
X102235000Y-78867000D01*
X102162429Y-79012143D01*
X102162429Y-79302429D01*
X102235000Y-79447571D01*
X102307571Y-79520143D01*
X102452714Y-79592714D01*
X102815571Y-79592714D01*
X102960714Y-79520143D01*
X103033286Y-79447571D01*
X103105857Y-79302429D01*
X103105857Y-79012143D01*
X103033286Y-78867000D01*
X102960714Y-78794429D01*
X102815571Y-78721857D01*
X102162429Y-78213857D02*
X102162429Y-77197857D01*
X103686429Y-77851000D01*
X103686429Y-76544713D02*
X103686429Y-76254428D01*
X103613857Y-76109285D01*
X103541286Y-76036713D01*
X103323571Y-75891571D01*
X103033286Y-75818999D01*
X102452714Y-75818999D01*
X102307571Y-75891571D01*
X102235000Y-75964142D01*
X102162429Y-76109285D01*
X102162429Y-76399571D01*
X102235000Y-76544713D01*
X102307571Y-76617285D01*
X102452714Y-76689856D01*
X102815571Y-76689856D01*
X102960714Y-76617285D01*
X103033286Y-76544713D01*
X103105857Y-76399571D01*
X103105857Y-76109285D01*
X103033286Y-75964142D01*
X102960714Y-75891571D01*
X102815571Y-75818999D01*
X87448571Y-114445143D02*
X87376000Y-114590286D01*
X87230857Y-114735429D01*
X87013143Y-114953143D01*
X86940571Y-115098286D01*
X86940571Y-115243429D01*
X87303429Y-115170857D02*
X87230857Y-115316000D01*
X87085714Y-115461143D01*
X86795429Y-115533714D01*
X86287429Y-115533714D01*
X85997143Y-115461143D01*
X85852000Y-115316000D01*
X85779429Y-115170857D01*
X85779429Y-114880571D01*
X85852000Y-114735429D01*
X85997143Y-114590286D01*
X86287429Y-114517714D01*
X86795429Y-114517714D01*
X87085714Y-114590286D01*
X87230857Y-114735429D01*
X87303429Y-114880571D01*
X87303429Y-115170857D01*
X85924571Y-113937143D02*
X85852000Y-113864572D01*
X85779429Y-113719429D01*
X85779429Y-113356572D01*
X85852000Y-113211429D01*
X85924571Y-113138858D01*
X86069714Y-113066286D01*
X86214857Y-113066286D01*
X86432571Y-113138858D01*
X87303429Y-114009715D01*
X87303429Y-113066286D01*
X89716429Y-118980858D02*
X88192429Y-118980858D01*
X89281000Y-118472858D01*
X88192429Y-117964858D01*
X89716429Y-117964858D01*
X88192429Y-116803715D02*
X89281000Y-116803715D01*
X89498714Y-116876287D01*
X89643857Y-117021430D01*
X89716429Y-117239144D01*
X89716429Y-117384287D01*
X88918143Y-116078001D02*
X88918143Y-115570001D01*
X89716429Y-115352287D02*
X89716429Y-116078001D01*
X88192429Y-116078001D01*
X88192429Y-115352287D01*
X88192429Y-113973430D02*
X88192429Y-114699144D01*
X88918143Y-114771715D01*
X88845571Y-114699144D01*
X88773000Y-114554001D01*
X88773000Y-114191144D01*
X88845571Y-114046001D01*
X88918143Y-113973430D01*
X89063286Y-113900858D01*
X89426143Y-113900858D01*
X89571286Y-113973430D01*
X89643857Y-114046001D01*
X89716429Y-114191144D01*
X89716429Y-114554001D01*
X89643857Y-114699144D01*
X89571286Y-114771715D01*
X88192429Y-113392858D02*
X88192429Y-112376858D01*
X89716429Y-113030001D01*
X88192429Y-111941429D02*
X88192429Y-110998000D01*
X88773000Y-111506000D01*
X88773000Y-111288286D01*
X88845571Y-111143143D01*
X88918143Y-111070572D01*
X89063286Y-110998000D01*
X89426143Y-110998000D01*
X89571286Y-111070572D01*
X89643857Y-111143143D01*
X89716429Y-111288286D01*
X89716429Y-111723714D01*
X89643857Y-111868857D01*
X89571286Y-111941429D01*
X89716429Y-109546571D02*
X89716429Y-110417428D01*
X89716429Y-109982000D02*
X88192429Y-109982000D01*
X88410143Y-110127143D01*
X88555286Y-110272285D01*
X88627857Y-110417428D01*
D11*
X101092261Y-65957746D02*
X100616070Y-66291080D01*
X101092261Y-66529175D02*
X100092261Y-66529175D01*
X100092261Y-66148222D01*
X100139880Y-66052984D01*
X100187499Y-66005365D01*
X100282737Y-65957746D01*
X100425594Y-65957746D01*
X100520832Y-66005365D01*
X100568451Y-66052984D01*
X100616070Y-66148222D01*
X100616070Y-66529175D01*
X101092261Y-65005365D02*
X101092261Y-65576794D01*
X101092261Y-65291080D02*
X100092261Y-65291080D01*
X100235118Y-65386318D01*
X100330356Y-65481556D01*
X100377975Y-65576794D01*
X113747254Y-68072261D02*
X113413920Y-67596070D01*
X113175825Y-68072261D02*
X113175825Y-67072261D01*
X113556778Y-67072261D01*
X113652016Y-67119880D01*
X113699635Y-67167499D01*
X113747254Y-67262737D01*
X113747254Y-67405594D01*
X113699635Y-67500832D01*
X113652016Y-67548451D01*
X113556778Y-67596070D01*
X113175825Y-67596070D01*
X114080587Y-67072261D02*
X114699635Y-67072261D01*
X114366301Y-67453213D01*
X114509159Y-67453213D01*
X114604397Y-67500832D01*
X114652016Y-67548451D01*
X114699635Y-67643690D01*
X114699635Y-67881785D01*
X114652016Y-67977023D01*
X114604397Y-68024642D01*
X114509159Y-68072261D01*
X114223444Y-68072261D01*
X114128206Y-68024642D01*
X114080587Y-67977023D01*
X111473334Y-60716421D02*
X111140000Y-60240230D01*
X110901905Y-60716421D02*
X110901905Y-59716421D01*
X111282858Y-59716421D01*
X111378096Y-59764040D01*
X111425715Y-59811659D01*
X111473334Y-59906897D01*
X111473334Y-60049754D01*
X111425715Y-60144992D01*
X111378096Y-60192611D01*
X111282858Y-60240230D01*
X110901905Y-60240230D01*
X112378096Y-59716421D02*
X111901905Y-59716421D01*
X111854286Y-60192611D01*
X111901905Y-60144992D01*
X111997143Y-60097373D01*
X112235239Y-60097373D01*
X112330477Y-60144992D01*
X112378096Y-60192611D01*
X112425715Y-60287850D01*
X112425715Y-60525945D01*
X112378096Y-60621183D01*
X112330477Y-60668802D01*
X112235239Y-60716421D01*
X111997143Y-60716421D01*
X111901905Y-60668802D01*
X111854286Y-60621183D01*
X93427254Y-90297261D02*
X93093920Y-89821070D01*
X92855825Y-90297261D02*
X92855825Y-89297261D01*
X93236778Y-89297261D01*
X93332016Y-89344880D01*
X93379635Y-89392499D01*
X93427254Y-89487737D01*
X93427254Y-89630594D01*
X93379635Y-89725832D01*
X93332016Y-89773451D01*
X93236778Y-89821070D01*
X92855825Y-89821070D01*
X94284397Y-89297261D02*
X94093920Y-89297261D01*
X93998682Y-89344880D01*
X93951063Y-89392499D01*
X93855825Y-89535356D01*
X93808206Y-89725832D01*
X93808206Y-90106785D01*
X93855825Y-90202023D01*
X93903444Y-90249642D01*
X93998682Y-90297261D01*
X94189159Y-90297261D01*
X94284397Y-90249642D01*
X94332016Y-90202023D01*
X94379635Y-90106785D01*
X94379635Y-89868690D01*
X94332016Y-89773451D01*
X94284397Y-89725832D01*
X94189159Y-89678213D01*
X93998682Y-89678213D01*
X93903444Y-89725832D01*
X93855825Y-89773451D01*
X93808206Y-89868690D01*
X129540261Y-82467746D02*
X129064070Y-82801080D01*
X129540261Y-83039175D02*
X128540261Y-83039175D01*
X128540261Y-82658222D01*
X128587880Y-82562984D01*
X128635499Y-82515365D01*
X128730737Y-82467746D01*
X128873594Y-82467746D01*
X128968832Y-82515365D01*
X129016451Y-82562984D01*
X129064070Y-82658222D01*
X129064070Y-83039175D01*
X128540261Y-82134413D02*
X128540261Y-81467746D01*
X129540261Y-81896318D01*
X130683334Y-63907143D02*
X130635715Y-63954762D01*
X130492858Y-64002381D01*
X130397620Y-64002381D01*
X130254762Y-63954762D01*
X130159524Y-63859524D01*
X130111905Y-63764286D01*
X130064286Y-63573810D01*
X130064286Y-63430952D01*
X130111905Y-63240476D01*
X130159524Y-63145238D01*
X130254762Y-63050000D01*
X130397620Y-63002381D01*
X130492858Y-63002381D01*
X130635715Y-63050000D01*
X130683334Y-63097619D01*
X131635715Y-64002381D02*
X131064286Y-64002381D01*
X131350000Y-64002381D02*
X131350000Y-63002381D01*
X131254762Y-63145238D01*
X131159524Y-63240476D01*
X131064286Y-63288095D01*
X117268334Y-98832143D02*
X117220715Y-98879762D01*
X117077858Y-98927381D01*
X116982620Y-98927381D01*
X116839762Y-98879762D01*
X116744524Y-98784524D01*
X116696905Y-98689286D01*
X116649286Y-98498810D01*
X116649286Y-98355952D01*
X116696905Y-98165476D01*
X116744524Y-98070238D01*
X116839762Y-97975000D01*
X116982620Y-97927381D01*
X117077858Y-97927381D01*
X117220715Y-97975000D01*
X117268334Y-98022619D01*
X117649286Y-98022619D02*
X117696905Y-97975000D01*
X117792143Y-97927381D01*
X118030239Y-97927381D01*
X118125477Y-97975000D01*
X118173096Y-98022619D01*
X118220715Y-98117857D01*
X118220715Y-98213095D01*
X118173096Y-98355952D01*
X117601667Y-98927381D01*
X118220715Y-98927381D01*
X139197143Y-117581666D02*
X139244762Y-117629285D01*
X139292381Y-117772142D01*
X139292381Y-117867380D01*
X139244762Y-118010238D01*
X139149524Y-118105476D01*
X139054286Y-118153095D01*
X138863810Y-118200714D01*
X138720952Y-118200714D01*
X138530476Y-118153095D01*
X138435238Y-118105476D01*
X138340000Y-118010238D01*
X138292381Y-117867380D01*
X138292381Y-117772142D01*
X138340000Y-117629285D01*
X138387619Y-117581666D01*
X138292381Y-117248333D02*
X138292381Y-116629285D01*
X138673333Y-116962619D01*
X138673333Y-116819761D01*
X138720952Y-116724523D01*
X138768571Y-116676904D01*
X138863810Y-116629285D01*
X139101905Y-116629285D01*
X139197143Y-116676904D01*
X139244762Y-116724523D01*
X139292381Y-116819761D01*
X139292381Y-117105476D01*
X139244762Y-117200714D01*
X139197143Y-117248333D01*
D12*
X145161000Y-75179286D02*
X145088429Y-75251857D01*
X144870715Y-75324429D01*
X144725572Y-75324429D01*
X144507857Y-75251857D01*
X144362715Y-75106714D01*
X144290143Y-74961571D01*
X144217572Y-74671286D01*
X144217572Y-74453571D01*
X144290143Y-74163286D01*
X144362715Y-74018143D01*
X144507857Y-73873000D01*
X144725572Y-73800429D01*
X144870715Y-73800429D01*
X145088429Y-73873000D01*
X145161000Y-73945571D01*
X146539857Y-73800429D02*
X145814143Y-73800429D01*
X145741572Y-74526143D01*
X145814143Y-74453571D01*
X145959286Y-74381000D01*
X146322143Y-74381000D01*
X146467286Y-74453571D01*
X146539857Y-74526143D01*
X146612429Y-74671286D01*
X146612429Y-75034143D01*
X146539857Y-75179286D01*
X146467286Y-75251857D01*
X146322143Y-75324429D01*
X145959286Y-75324429D01*
X145814143Y-75251857D01*
X145741572Y-75179286D01*
X140770428Y-54324429D02*
X139899571Y-54324429D01*
X140334999Y-54324429D02*
X140334999Y-52800429D01*
X140189856Y-53018143D01*
X140044714Y-53163286D01*
X139899571Y-53235857D01*
X141423571Y-53308429D02*
X141423571Y-54832429D01*
X142149285Y-54106714D02*
X142221857Y-54251857D01*
X142367000Y-54324429D01*
X141423571Y-54106714D02*
X141496143Y-54251857D01*
X141641285Y-54324429D01*
X141931571Y-54324429D01*
X142076714Y-54251857D01*
X142149285Y-54106714D01*
X142149285Y-53308429D01*
X143528142Y-53526143D02*
X143020142Y-53526143D01*
X143020142Y-54324429D02*
X143020142Y-52800429D01*
X143745856Y-52800429D01*
X145415000Y-52727857D02*
X144108714Y-54687286D01*
X146576142Y-53308429D02*
X146576142Y-54324429D01*
X146213285Y-52727857D02*
X145850428Y-53816429D01*
X146793856Y-53816429D01*
X147664714Y-52800429D02*
X147809857Y-52800429D01*
X147955000Y-52873000D01*
X148027571Y-52945571D01*
X148100142Y-53090714D01*
X148172714Y-53381000D01*
X148172714Y-53743857D01*
X148100142Y-54034143D01*
X148027571Y-54179286D01*
X147955000Y-54251857D01*
X147809857Y-54324429D01*
X147664714Y-54324429D01*
X147519571Y-54251857D01*
X147447000Y-54179286D01*
X147374428Y-54034143D01*
X147301857Y-53743857D01*
X147301857Y-53381000D01*
X147374428Y-53090714D01*
X147447000Y-52945571D01*
X147519571Y-52873000D01*
X147664714Y-52800429D01*
X149116143Y-52800429D02*
X149261286Y-52800429D01*
X149406429Y-52873000D01*
X149479000Y-52945571D01*
X149551571Y-53090714D01*
X149624143Y-53381000D01*
X149624143Y-53743857D01*
X149551571Y-54034143D01*
X149479000Y-54179286D01*
X149406429Y-54251857D01*
X149261286Y-54324429D01*
X149116143Y-54324429D01*
X148971000Y-54251857D01*
X148898429Y-54179286D01*
X148825857Y-54034143D01*
X148753286Y-53743857D01*
X148753286Y-53381000D01*
X148825857Y-53090714D01*
X148898429Y-52945571D01*
X148971000Y-52873000D01*
X149116143Y-52800429D01*
X150059572Y-52800429D02*
X150567572Y-54324429D01*
X151075572Y-52800429D01*
X147701000Y-99899286D02*
X147628429Y-99971857D01*
X147410715Y-100044429D01*
X147265572Y-100044429D01*
X147047857Y-99971857D01*
X146902715Y-99826714D01*
X146830143Y-99681571D01*
X146757572Y-99391286D01*
X146757572Y-99173571D01*
X146830143Y-98883286D01*
X146902715Y-98738143D01*
X147047857Y-98593000D01*
X147265572Y-98520429D01*
X147410715Y-98520429D01*
X147628429Y-98593000D01*
X147701000Y-98665571D01*
X149007286Y-98520429D02*
X148717000Y-98520429D01*
X148571857Y-98593000D01*
X148499286Y-98665571D01*
X148354143Y-98883286D01*
X148281572Y-99173571D01*
X148281572Y-99754143D01*
X148354143Y-99899286D01*
X148426715Y-99971857D01*
X148571857Y-100044429D01*
X148862143Y-100044429D01*
X149007286Y-99971857D01*
X149079857Y-99899286D01*
X149152429Y-99754143D01*
X149152429Y-99391286D01*
X149079857Y-99246143D01*
X149007286Y-99173571D01*
X148862143Y-99101000D01*
X148571857Y-99101000D01*
X148426715Y-99173571D01*
X148354143Y-99246143D01*
X148281572Y-99391286D01*
X143310428Y-121044429D02*
X142439571Y-121044429D01*
X142874999Y-121044429D02*
X142874999Y-119520429D01*
X142729856Y-119738143D01*
X142584714Y-119883286D01*
X142439571Y-119955857D01*
X143963571Y-120028429D02*
X143963571Y-121552429D01*
X144689285Y-120826714D02*
X144761857Y-120971857D01*
X144907000Y-121044429D01*
X143963571Y-120826714D02*
X144036143Y-120971857D01*
X144181285Y-121044429D01*
X144471571Y-121044429D01*
X144616714Y-120971857D01*
X144689285Y-120826714D01*
X144689285Y-120028429D01*
X146068142Y-120246143D02*
X145560142Y-120246143D01*
X145560142Y-121044429D02*
X145560142Y-119520429D01*
X146285856Y-119520429D01*
X147955000Y-119447857D02*
X146648714Y-121407286D01*
X149116142Y-120028429D02*
X149116142Y-121044429D01*
X148753285Y-119447857D02*
X148390428Y-120536429D01*
X149333856Y-120536429D01*
X150204714Y-119520429D02*
X150349857Y-119520429D01*
X150495000Y-119593000D01*
X150567571Y-119665571D01*
X150640142Y-119810714D01*
X150712714Y-120101000D01*
X150712714Y-120463857D01*
X150640142Y-120754143D01*
X150567571Y-120899286D01*
X150495000Y-120971857D01*
X150349857Y-121044429D01*
X150204714Y-121044429D01*
X150059571Y-120971857D01*
X149987000Y-120899286D01*
X149914428Y-120754143D01*
X149841857Y-120463857D01*
X149841857Y-120101000D01*
X149914428Y-119810714D01*
X149987000Y-119665571D01*
X150059571Y-119593000D01*
X150204714Y-119520429D01*
X151656143Y-119520429D02*
X151801286Y-119520429D01*
X151946429Y-119593000D01*
X152019000Y-119665571D01*
X152091571Y-119810714D01*
X152164143Y-120101000D01*
X152164143Y-120463857D01*
X152091571Y-120754143D01*
X152019000Y-120899286D01*
X151946429Y-120971857D01*
X151801286Y-121044429D01*
X151656143Y-121044429D01*
X151511000Y-120971857D01*
X151438429Y-120899286D01*
X151365857Y-120754143D01*
X151293286Y-120463857D01*
X151293286Y-120101000D01*
X151365857Y-119810714D01*
X151438429Y-119665571D01*
X151511000Y-119593000D01*
X151656143Y-119520429D01*
X152599572Y-119520429D02*
X153107572Y-121044429D01*
X153615572Y-119520429D01*
D11*
X141102143Y-97896666D02*
X141149762Y-97944285D01*
X141197381Y-98087142D01*
X141197381Y-98182380D01*
X141149762Y-98325238D01*
X141054524Y-98420476D01*
X140959286Y-98468095D01*
X140768810Y-98515714D01*
X140625952Y-98515714D01*
X140435476Y-98468095D01*
X140340238Y-98420476D01*
X140245000Y-98325238D01*
X140197381Y-98182380D01*
X140197381Y-98087142D01*
X140245000Y-97944285D01*
X140292619Y-97896666D01*
X140197381Y-97563333D02*
X140197381Y-96896666D01*
X141197381Y-97325238D01*
D12*
X146431000Y-77039286D02*
X146358429Y-77111857D01*
X146140715Y-77184429D01*
X145995572Y-77184429D01*
X145777857Y-77111857D01*
X145632715Y-76966714D01*
X145560143Y-76821571D01*
X145487572Y-76531286D01*
X145487572Y-76313571D01*
X145560143Y-76023286D01*
X145632715Y-75878143D01*
X145777857Y-75733000D01*
X145995572Y-75660429D01*
X146140715Y-75660429D01*
X146358429Y-75733000D01*
X146431000Y-75805571D01*
X147301857Y-76313571D02*
X147156715Y-76241000D01*
X147084143Y-76168429D01*
X147011572Y-76023286D01*
X147011572Y-75950714D01*
X147084143Y-75805571D01*
X147156715Y-75733000D01*
X147301857Y-75660429D01*
X147592143Y-75660429D01*
X147737286Y-75733000D01*
X147809857Y-75805571D01*
X147882429Y-75950714D01*
X147882429Y-76023286D01*
X147809857Y-76168429D01*
X147737286Y-76241000D01*
X147592143Y-76313571D01*
X147301857Y-76313571D01*
X147156715Y-76386143D01*
X147084143Y-76458714D01*
X147011572Y-76603857D01*
X147011572Y-76894143D01*
X147084143Y-77039286D01*
X147156715Y-77111857D01*
X147301857Y-77184429D01*
X147592143Y-77184429D01*
X147737286Y-77111857D01*
X147809857Y-77039286D01*
X147882429Y-76894143D01*
X147882429Y-76603857D01*
X147809857Y-76458714D01*
X147737286Y-76386143D01*
X147592143Y-76313571D01*
X142040428Y-98184429D02*
X141169571Y-98184429D01*
X141604999Y-98184429D02*
X141604999Y-96660429D01*
X141459856Y-96878143D01*
X141314714Y-97023286D01*
X141169571Y-97095857D01*
X142693571Y-97168429D02*
X142693571Y-98692429D01*
X143419285Y-97966714D02*
X143491857Y-98111857D01*
X143637000Y-98184429D01*
X142693571Y-97966714D02*
X142766143Y-98111857D01*
X142911285Y-98184429D01*
X143201571Y-98184429D01*
X143346714Y-98111857D01*
X143419285Y-97966714D01*
X143419285Y-97168429D01*
X144798142Y-97386143D02*
X144290142Y-97386143D01*
X144290142Y-98184429D02*
X144290142Y-96660429D01*
X145015856Y-96660429D01*
X146685000Y-96587857D02*
X145378714Y-98547286D01*
X147846142Y-97168429D02*
X147846142Y-98184429D01*
X147483285Y-96587857D02*
X147120428Y-97676429D01*
X148063856Y-97676429D01*
X148934714Y-96660429D02*
X149079857Y-96660429D01*
X149225000Y-96733000D01*
X149297571Y-96805571D01*
X149370142Y-96950714D01*
X149442714Y-97241000D01*
X149442714Y-97603857D01*
X149370142Y-97894143D01*
X149297571Y-98039286D01*
X149225000Y-98111857D01*
X149079857Y-98184429D01*
X148934714Y-98184429D01*
X148789571Y-98111857D01*
X148717000Y-98039286D01*
X148644428Y-97894143D01*
X148571857Y-97603857D01*
X148571857Y-97241000D01*
X148644428Y-96950714D01*
X148717000Y-96805571D01*
X148789571Y-96733000D01*
X148934714Y-96660429D01*
X150386143Y-96660429D02*
X150531286Y-96660429D01*
X150676429Y-96733000D01*
X150749000Y-96805571D01*
X150821571Y-96950714D01*
X150894143Y-97241000D01*
X150894143Y-97603857D01*
X150821571Y-97894143D01*
X150749000Y-98039286D01*
X150676429Y-98111857D01*
X150531286Y-98184429D01*
X150386143Y-98184429D01*
X150241000Y-98111857D01*
X150168429Y-98039286D01*
X150095857Y-97894143D01*
X150023286Y-97603857D01*
X150023286Y-97241000D01*
X150095857Y-96950714D01*
X150168429Y-96805571D01*
X150241000Y-96733000D01*
X150386143Y-96660429D01*
X151329572Y-96660429D02*
X151837572Y-98184429D01*
X152345572Y-96660429D01*
D11*
X94147901Y-76374215D02*
X93147901Y-76374215D01*
X93147901Y-75993262D01*
X93195520Y-75898024D01*
X93243139Y-75850405D01*
X93338377Y-75802786D01*
X93481234Y-75802786D01*
X93576472Y-75850405D01*
X93624091Y-75898024D01*
X93671710Y-75993262D01*
X93671710Y-76374215D01*
X94147901Y-74850405D02*
X94147901Y-75421834D01*
X94147901Y-75136120D02*
X93147901Y-75136120D01*
X93290758Y-75231358D01*
X93385996Y-75326596D01*
X93433615Y-75421834D01*
X174157901Y-110029215D02*
X173157901Y-110029215D01*
X173157901Y-109648262D01*
X173205520Y-109553024D01*
X173253139Y-109505405D01*
X173348377Y-109457786D01*
X173491234Y-109457786D01*
X173586472Y-109505405D01*
X173634091Y-109553024D01*
X173681710Y-109648262D01*
X173681710Y-110029215D01*
X173253139Y-109076834D02*
X173205520Y-109029215D01*
X173157901Y-108933977D01*
X173157901Y-108695881D01*
X173205520Y-108600643D01*
X173253139Y-108553024D01*
X173348377Y-108505405D01*
X173443615Y-108505405D01*
X173586472Y-108553024D01*
X174157901Y-109124453D01*
X174157901Y-108505405D01*
X129222667Y-42616381D02*
X128889333Y-42140190D01*
X128651238Y-42616381D02*
X128651238Y-41616381D01*
X129032191Y-41616381D01*
X129127429Y-41664000D01*
X129175048Y-41711619D01*
X129222667Y-41806857D01*
X129222667Y-41949714D01*
X129175048Y-42044952D01*
X129127429Y-42092571D01*
X129032191Y-42140190D01*
X128651238Y-42140190D01*
X129651238Y-42092571D02*
X129984572Y-42092571D01*
X130127429Y-42616381D02*
X129651238Y-42616381D01*
X129651238Y-41616381D01*
X130127429Y-41616381D01*
X130889334Y-42092571D02*
X130556000Y-42092571D01*
X130556000Y-42616381D02*
X130556000Y-41616381D01*
X131032191Y-41616381D01*
X131556000Y-41616381D02*
X131556000Y-41854476D01*
X131317905Y-41759238D02*
X131556000Y-41854476D01*
X131794096Y-41759238D01*
X131413143Y-42044952D02*
X131556000Y-41854476D01*
X131698858Y-42044952D01*
X132317905Y-41616381D02*
X132317905Y-41854476D01*
X132079810Y-41759238D02*
X132317905Y-41854476D01*
X132556001Y-41759238D01*
X132175048Y-42044952D02*
X132317905Y-41854476D01*
X132460763Y-42044952D01*
X156452321Y-86048173D02*
X157166607Y-86048173D01*
X157309464Y-86095793D01*
X157404702Y-86191031D01*
X157452321Y-86333888D01*
X157452321Y-86429126D01*
X157452321Y-85048173D02*
X157452321Y-85619602D01*
X157452321Y-85333888D02*
X156452321Y-85333888D01*
X156595178Y-85429126D01*
X156690416Y-85524364D01*
X156738035Y-85619602D01*
M02*
