G04 #@! TF.FileFunction,Copper,L2,Bot,Signal*
%FSLAX46Y46*%
G04 Gerber Fmt 4.6, Leading zero omitted, Abs format (unit mm)*
G04 Created by KiCad (PCBNEW 4.0.7) date 04/22/18 21:31:13*
%MOMM*%
%LPD*%
G01*
G04 APERTURE LIST*
%ADD10C,0.100000*%
%ADD11C,0.300000*%
%ADD12R,1.300000X1.300000*%
%ADD13C,1.300000*%
%ADD14C,1.998980*%
%ADD15R,1.998980X1.998980*%
%ADD16C,2.499360*%
%ADD17R,2.000000X2.000000*%
%ADD18C,2.000000*%
%ADD19C,1.000000*%
%ADD20C,0.254000*%
G04 APERTURE END LIST*
D10*
D11*
X89827571Y-51348286D02*
X88327571Y-51348286D01*
X88327571Y-51705429D01*
X88399000Y-51919714D01*
X88541857Y-52062572D01*
X88684714Y-52134000D01*
X88970429Y-52205429D01*
X89184714Y-52205429D01*
X89470429Y-52134000D01*
X89613286Y-52062572D01*
X89756143Y-51919714D01*
X89827571Y-51705429D01*
X89827571Y-51348286D01*
X89684714Y-52848286D02*
X89756143Y-52919714D01*
X89827571Y-52848286D01*
X89756143Y-52776857D01*
X89684714Y-52848286D01*
X89827571Y-52848286D01*
X88327571Y-54562572D02*
X89827571Y-54919715D01*
X88756143Y-55205429D01*
X89827571Y-55491143D01*
X88327571Y-55848286D01*
X89827571Y-57062572D02*
X89041857Y-57062572D01*
X88899000Y-56991143D01*
X88827571Y-56848286D01*
X88827571Y-56562572D01*
X88899000Y-56419715D01*
X89756143Y-57062572D02*
X89827571Y-56919715D01*
X89827571Y-56562572D01*
X89756143Y-56419715D01*
X89613286Y-56348286D01*
X89470429Y-56348286D01*
X89327571Y-56419715D01*
X89256143Y-56562572D01*
X89256143Y-56919715D01*
X89184714Y-57062572D01*
X89827571Y-57991144D02*
X89756143Y-57848286D01*
X89613286Y-57776858D01*
X88327571Y-57776858D01*
X88827571Y-58348286D02*
X88827571Y-58919715D01*
X88327571Y-58562572D02*
X89613286Y-58562572D01*
X89756143Y-58634000D01*
X89827571Y-58776858D01*
X89827571Y-58919715D01*
X89756143Y-59991143D02*
X89827571Y-59848286D01*
X89827571Y-59562572D01*
X89756143Y-59419715D01*
X89613286Y-59348286D01*
X89041857Y-59348286D01*
X88899000Y-59419715D01*
X88827571Y-59562572D01*
X88827571Y-59848286D01*
X88899000Y-59991143D01*
X89041857Y-60062572D01*
X89184714Y-60062572D01*
X89327571Y-59348286D01*
X89827571Y-60705429D02*
X88827571Y-60705429D01*
X89113286Y-60705429D02*
X88970429Y-60776857D01*
X88899000Y-60848286D01*
X88827571Y-60991143D01*
X88827571Y-61134000D01*
X91377571Y-53991144D02*
X92377571Y-54348287D01*
X91377571Y-54705429D01*
X92377571Y-56062572D02*
X92377571Y-55205429D01*
X92377571Y-55634001D02*
X90877571Y-55634001D01*
X91091857Y-55491144D01*
X91234714Y-55348286D01*
X91306143Y-55205429D01*
X92234714Y-56705429D02*
X92306143Y-56776857D01*
X92377571Y-56705429D01*
X92306143Y-56634000D01*
X92234714Y-56705429D01*
X92377571Y-56705429D01*
X90877571Y-57705429D02*
X90877571Y-57848286D01*
X90949000Y-57991143D01*
X91020429Y-58062572D01*
X91163286Y-58134001D01*
X91449000Y-58205429D01*
X91806143Y-58205429D01*
X92091857Y-58134001D01*
X92234714Y-58062572D01*
X92306143Y-57991143D01*
X92377571Y-57848286D01*
X92377571Y-57705429D01*
X92306143Y-57562572D01*
X92234714Y-57491143D01*
X92091857Y-57419715D01*
X91806143Y-57348286D01*
X91449000Y-57348286D01*
X91163286Y-57419715D01*
X91020429Y-57491143D01*
X90949000Y-57562572D01*
X90877571Y-57705429D01*
X164068000Y-123590857D02*
X163853714Y-123662286D01*
X163782286Y-123733714D01*
X163710857Y-123876571D01*
X163710857Y-124090857D01*
X163782286Y-124233714D01*
X163853714Y-124305143D01*
X163996572Y-124376571D01*
X164568000Y-124376571D01*
X164568000Y-122876571D01*
X164068000Y-122876571D01*
X163925143Y-122948000D01*
X163853714Y-123019429D01*
X163782286Y-123162286D01*
X163782286Y-123305143D01*
X163853714Y-123448000D01*
X163925143Y-123519429D01*
X164068000Y-123590857D01*
X164568000Y-123590857D01*
X162853714Y-124376571D02*
X162996572Y-124305143D01*
X163068000Y-124233714D01*
X163139429Y-124090857D01*
X163139429Y-123662286D01*
X163068000Y-123519429D01*
X162996572Y-123448000D01*
X162853714Y-123376571D01*
X162639429Y-123376571D01*
X162496572Y-123448000D01*
X162425143Y-123519429D01*
X162353714Y-123662286D01*
X162353714Y-124090857D01*
X162425143Y-124233714D01*
X162496572Y-124305143D01*
X162639429Y-124376571D01*
X162853714Y-124376571D01*
X161925143Y-123376571D02*
X161353714Y-123376571D01*
X161710857Y-122876571D02*
X161710857Y-124162286D01*
X161639429Y-124305143D01*
X161496571Y-124376571D01*
X161353714Y-124376571D01*
D12*
X163830000Y-67945000D03*
D13*
X163830000Y-60445000D03*
D14*
X88265000Y-104140000D03*
X98425000Y-104140000D03*
X88265000Y-97155000D03*
X98425000Y-97155000D03*
X118745000Y-67310000D03*
D15*
X108585000Y-67310000D03*
D14*
X108585000Y-64135000D03*
D15*
X118745000Y-64135000D03*
D14*
X98425000Y-100327460D03*
D15*
X88265000Y-100327460D03*
D16*
X125171200Y-78105000D03*
X125171200Y-83185000D03*
X127711200Y-80645000D03*
X111201200Y-111760000D03*
X111201200Y-116840000D03*
X113741200Y-114300000D03*
D14*
X104140000Y-71120000D03*
X104140000Y-60960000D03*
X108585000Y-71120000D03*
X118745000Y-71120000D03*
X119140000Y-56515000D03*
X104140000Y-56515000D03*
X88265000Y-93345000D03*
X98425000Y-93345000D03*
X132588000Y-87630000D03*
X132588000Y-77470000D03*
D12*
X128350000Y-69850000D03*
D13*
X133350000Y-69850000D03*
D12*
X114935000Y-104775000D03*
D13*
X119935000Y-104775000D03*
D12*
X129540000Y-113665000D03*
D13*
X129540000Y-121165000D03*
D17*
X145415000Y-60385000D03*
D18*
X145415000Y-67885000D03*
D17*
X147955000Y-113605000D03*
D18*
X147955000Y-106105000D03*
D12*
X131445000Y-93980000D03*
D13*
X131445000Y-101480000D03*
D17*
X146685000Y-90745000D03*
D18*
X146685000Y-83245000D03*
D16*
X88265000Y-75565000D03*
X88265000Y-71424800D03*
X88265000Y-79705200D03*
X168275000Y-111290100D03*
X168264840Y-107149900D03*
X164299900Y-81584800D03*
X164299900Y-85725000D03*
X164299900Y-89865200D03*
X168440100Y-81584800D03*
X168440100Y-85725000D03*
X168440100Y-89865200D03*
D18*
X163803485Y-98494441D03*
X153454275Y-98450957D03*
D19*
X128350000Y-69850000D02*
X126420120Y-69850000D01*
X125171200Y-71098920D02*
X125171200Y-78105000D01*
X126420120Y-69850000D02*
X125171200Y-71098920D01*
X118745000Y-71120000D02*
X121977893Y-71120000D01*
X121977893Y-71120000D02*
X123258941Y-69838952D01*
X123258941Y-69838952D02*
X128338952Y-69838952D01*
X128338952Y-69838952D02*
X128350000Y-69850000D01*
X125171200Y-78105000D02*
X125095000Y-78105000D01*
X111201200Y-111760000D02*
X111201200Y-106138822D01*
X111201200Y-106138822D02*
X112565022Y-104775000D01*
X112565022Y-104775000D02*
X114935000Y-104775000D01*
X114935000Y-104775000D02*
X99060000Y-104775000D01*
X99060000Y-104775000D02*
X98425000Y-104140000D01*
X111125000Y-111683800D02*
X111201200Y-111760000D01*
X111201200Y-116840000D02*
X111201200Y-116916200D01*
X111201200Y-116916200D02*
X113030000Y-118745000D01*
X127086504Y-113665000D02*
X129540000Y-113665000D01*
X113030000Y-118745000D02*
X122006504Y-118745000D01*
X122006504Y-118745000D02*
X127086504Y-113665000D01*
X147955000Y-106105000D02*
X147940819Y-106105000D01*
X147940819Y-106105000D02*
X140380819Y-113665000D01*
X140380819Y-113665000D02*
X129540000Y-113665000D01*
X152200300Y-106105000D02*
X151130000Y-106105000D01*
X151130000Y-106105000D02*
X147955000Y-106105000D01*
X158115000Y-103505000D02*
X155515000Y-106105000D01*
X155515000Y-106105000D02*
X151130000Y-106105000D01*
X158115000Y-98425000D02*
X158115000Y-103505000D01*
X162560000Y-93980000D02*
X158115000Y-98425000D01*
X167005000Y-93980000D02*
X162560000Y-93980000D01*
X168440100Y-92544900D02*
X167005000Y-93980000D01*
X168440100Y-89865200D02*
X168440100Y-92544900D01*
X148015885Y-106165885D02*
X147955000Y-106105000D01*
X132588000Y-77470000D02*
X135830000Y-77470000D01*
X135830000Y-77470000D02*
X145415000Y-67885000D01*
X132588000Y-77470000D02*
X132594192Y-77476192D01*
X132594192Y-77476192D02*
X132594192Y-80227853D01*
X132594192Y-80227853D02*
X129623183Y-83198862D01*
X129623183Y-83198862D02*
X125185062Y-83198862D01*
X125185062Y-83198862D02*
X125171200Y-83185000D01*
X163830000Y-67945000D02*
X163770000Y-67885000D01*
X163770000Y-67885000D02*
X152915000Y-67885000D01*
X152915000Y-67885000D02*
X145415000Y-67885000D01*
X168440100Y-81584800D02*
X168440100Y-70905100D01*
X168440100Y-70905100D02*
X165480000Y-67945000D01*
X165480000Y-67945000D02*
X163830000Y-67945000D01*
X144840000Y-67885000D02*
X145415000Y-67885000D01*
X145415000Y-67885000D02*
X145415000Y-67993426D01*
X131445000Y-93980000D02*
X131445000Y-92201885D01*
X131445000Y-92201885D02*
X132588000Y-91058885D01*
X132588000Y-91058885D02*
X132588000Y-87630000D01*
X164299900Y-85725000D02*
X152505842Y-85725000D01*
X152505842Y-85725000D02*
X150025842Y-83245000D01*
X150025842Y-83245000D02*
X146685000Y-83245000D01*
X131445000Y-93980000D02*
X135950000Y-93980000D01*
X135950000Y-93980000D02*
X146685000Y-83245000D01*
X118745000Y-67310000D02*
X118745000Y-64135000D01*
X104140000Y-71120000D02*
X108585000Y-71120000D01*
X108585000Y-67310000D02*
X108585000Y-71120000D01*
X88265000Y-100327460D02*
X88265000Y-104140000D01*
X88265000Y-97155000D02*
X88265000Y-100327460D01*
X153454275Y-98450957D02*
X113833174Y-98450957D01*
X106020212Y-86335212D02*
X97790000Y-78105000D01*
X113833174Y-98450957D02*
X106020212Y-90637995D01*
X106020212Y-90637995D02*
X106020212Y-86335212D01*
X97790000Y-78105000D02*
X97790000Y-73660000D01*
X104140000Y-60960000D02*
X104140000Y-56515000D01*
X163803485Y-98494441D02*
X163824422Y-98494441D01*
X163824422Y-98494441D02*
X168264840Y-102934859D01*
X168264840Y-102934859D02*
X168264840Y-107149900D01*
X88265000Y-71424800D02*
X96648275Y-71424800D01*
X96648275Y-71424800D02*
X97790000Y-72566525D01*
X97790000Y-72566525D02*
X97790000Y-73660000D01*
X97790000Y-73660000D02*
X97790000Y-69670675D01*
X97790000Y-69670675D02*
X104140000Y-63320675D01*
X104140000Y-63320675D02*
X104140000Y-60960000D01*
X88265000Y-79705200D02*
X90791552Y-79705200D01*
X90791552Y-79705200D02*
X98425000Y-87338648D01*
X98425000Y-87338648D02*
X98425000Y-91931508D01*
X98425000Y-91931508D02*
X98425000Y-93345000D01*
X98425000Y-97155000D02*
X98425000Y-93345000D01*
X119140000Y-56515000D02*
X117726508Y-56515000D01*
X117726508Y-56515000D02*
X113665000Y-60576508D01*
X113665000Y-60576508D02*
X113665000Y-75565000D01*
X113665000Y-75565000D02*
X118745000Y-80645000D01*
X118745000Y-80645000D02*
X127711200Y-80645000D01*
X88265000Y-93345000D02*
X92710000Y-93345000D01*
X92710000Y-93345000D02*
X93980000Y-94615000D01*
X93980000Y-94615000D02*
X93980000Y-106045000D01*
X93980000Y-106045000D02*
X102235000Y-114300000D01*
X106045000Y-114300000D02*
X113741200Y-114300000D01*
X102235000Y-114300000D02*
X106045000Y-114300000D01*
D20*
G36*
X174628300Y-127206500D02*
X77263500Y-127206500D01*
X77263500Y-124092512D01*
X78069702Y-124092512D01*
X78506785Y-125150335D01*
X79315409Y-125960371D01*
X80372467Y-126399300D01*
X81517032Y-126400298D01*
X82574855Y-125963215D01*
X83384891Y-125154591D01*
X83823820Y-124097533D01*
X83824818Y-122952968D01*
X83387735Y-121895145D01*
X83374678Y-121882065D01*
X128855462Y-121882065D01*
X128913302Y-122066706D01*
X129306074Y-122237895D01*
X129734460Y-122245745D01*
X130133241Y-122089062D01*
X130166698Y-122066706D01*
X130224538Y-121882065D01*
X129540000Y-121197527D01*
X128855462Y-121882065D01*
X83374678Y-121882065D01*
X82852984Y-121359460D01*
X128459255Y-121359460D01*
X128615938Y-121758241D01*
X128638294Y-121791698D01*
X128822935Y-121849538D01*
X129507473Y-121165000D01*
X129572527Y-121165000D01*
X130257065Y-121849538D01*
X130441706Y-121791698D01*
X130612895Y-121398926D01*
X130613406Y-121371000D01*
X160083857Y-121371000D01*
X160083857Y-126175000D01*
X166052143Y-126175000D01*
X166052143Y-124092512D01*
X168069522Y-124092512D01*
X168506605Y-125150335D01*
X169315229Y-125960371D01*
X170372287Y-126399300D01*
X171516852Y-126400298D01*
X172574675Y-125963215D01*
X173384711Y-125154591D01*
X173823640Y-124097533D01*
X173824638Y-122952968D01*
X173387555Y-121895145D01*
X172578931Y-121085109D01*
X171521873Y-120646180D01*
X170377308Y-120645182D01*
X169319485Y-121082265D01*
X168509449Y-121890889D01*
X168070520Y-122947947D01*
X168069522Y-124092512D01*
X166052143Y-124092512D01*
X166052143Y-121371000D01*
X160083857Y-121371000D01*
X130613406Y-121371000D01*
X130620745Y-120970540D01*
X130464062Y-120571759D01*
X130441706Y-120538302D01*
X130257065Y-120480462D01*
X129572527Y-121165000D01*
X129507473Y-121165000D01*
X128822935Y-120480462D01*
X128638294Y-120538302D01*
X128467105Y-120931074D01*
X128459255Y-121359460D01*
X82852984Y-121359460D01*
X82579111Y-121085109D01*
X81522053Y-120646180D01*
X80377488Y-120645182D01*
X79319665Y-121082265D01*
X78509629Y-121890889D01*
X78070700Y-122947947D01*
X78069702Y-124092512D01*
X77263500Y-124092512D01*
X77263500Y-120447935D01*
X128855462Y-120447935D01*
X129540000Y-121132473D01*
X130224538Y-120447935D01*
X130166698Y-120263294D01*
X129773926Y-120092105D01*
X129345540Y-120084255D01*
X128946759Y-120240938D01*
X128913302Y-120263294D01*
X128855462Y-120447935D01*
X77263500Y-120447935D01*
X77263500Y-114869520D01*
X92068912Y-114869520D01*
X92505802Y-115926876D01*
X93314069Y-116736554D01*
X94370660Y-117175290D01*
X95514720Y-117176288D01*
X96572076Y-116739398D01*
X97381754Y-115931131D01*
X97820490Y-114874540D01*
X97821488Y-113730480D01*
X97384598Y-112673124D01*
X96576331Y-111863446D01*
X95519740Y-111424710D01*
X94375680Y-111423712D01*
X93318324Y-111860602D01*
X92508646Y-112668869D01*
X92069910Y-113725460D01*
X92068912Y-114869520D01*
X77263500Y-114869520D01*
X77263500Y-99327970D01*
X86116431Y-99327970D01*
X86116431Y-101326950D01*
X86195016Y-101744591D01*
X86441841Y-102128169D01*
X86638000Y-102262199D01*
X86638000Y-102759474D01*
X86463301Y-102933868D01*
X86138880Y-103715159D01*
X86138142Y-104561129D01*
X86461199Y-105342986D01*
X87058868Y-105941699D01*
X87840159Y-106266120D01*
X88686129Y-106266858D01*
X89467986Y-105943801D01*
X90066699Y-105346132D01*
X90391120Y-104564841D01*
X90391858Y-103718871D01*
X90068801Y-102937014D01*
X89892000Y-102759904D01*
X89892000Y-102262397D01*
X90065709Y-102150619D01*
X90323038Y-101774006D01*
X90413569Y-101326950D01*
X90413569Y-99327970D01*
X90334984Y-98910329D01*
X90088159Y-98526751D01*
X89976926Y-98450749D01*
X90066699Y-98361132D01*
X90391120Y-97579841D01*
X90391858Y-96733871D01*
X90068801Y-95952014D01*
X89471132Y-95353301D01*
X89222710Y-95250147D01*
X89467986Y-95148801D01*
X89645096Y-94972000D01*
X92036074Y-94972000D01*
X92353000Y-95288926D01*
X92353000Y-106045000D01*
X92476848Y-106667626D01*
X92829537Y-107195463D01*
X101084537Y-115450463D01*
X101612374Y-115803152D01*
X102235000Y-115927000D01*
X109006880Y-115927000D01*
X108824933Y-116365175D01*
X108824108Y-117310677D01*
X109185174Y-118184522D01*
X109853161Y-118853676D01*
X110726375Y-119216267D01*
X111200755Y-119216681D01*
X111879537Y-119895463D01*
X112407374Y-120248152D01*
X113030000Y-120372001D01*
X113030005Y-120372000D01*
X122006504Y-120372000D01*
X122629130Y-120248152D01*
X123156967Y-119895463D01*
X126772156Y-116280274D01*
X165547328Y-116280274D01*
X165961644Y-117282997D01*
X166728148Y-118050840D01*
X167730146Y-118466906D01*
X168815094Y-118467852D01*
X169817817Y-118053536D01*
X170585660Y-117287032D01*
X171001726Y-116285034D01*
X171002672Y-115200086D01*
X170588356Y-114197363D01*
X169821852Y-113429520D01*
X168819854Y-113013454D01*
X167734906Y-113012508D01*
X166732183Y-113426824D01*
X165964340Y-114193328D01*
X165548274Y-115195326D01*
X165547328Y-116280274D01*
X126772156Y-116280274D01*
X127760430Y-115292000D01*
X128323595Y-115292000D01*
X128442944Y-115373548D01*
X128890000Y-115464079D01*
X130190000Y-115464079D01*
X130607641Y-115385494D01*
X130752935Y-115292000D01*
X140380819Y-115292000D01*
X141003445Y-115168152D01*
X141531282Y-114815463D01*
X142611994Y-113734750D01*
X146528000Y-113734750D01*
X146528000Y-114689936D01*
X146593007Y-114846876D01*
X146713124Y-114966993D01*
X146870065Y-115032000D01*
X147825250Y-115032000D01*
X147932000Y-114925250D01*
X147932000Y-113628000D01*
X147978000Y-113628000D01*
X147978000Y-114925250D01*
X148084750Y-115032000D01*
X149039935Y-115032000D01*
X149196876Y-114966993D01*
X149316993Y-114846876D01*
X149382000Y-114689936D01*
X149382000Y-113734750D01*
X149275250Y-113628000D01*
X147978000Y-113628000D01*
X147932000Y-113628000D01*
X146634750Y-113628000D01*
X146528000Y-113734750D01*
X142611994Y-113734750D01*
X143826680Y-112520064D01*
X146528000Y-112520064D01*
X146528000Y-113475250D01*
X146634750Y-113582000D01*
X147932000Y-113582000D01*
X147932000Y-112284750D01*
X147978000Y-112284750D01*
X147978000Y-113582000D01*
X149275250Y-113582000D01*
X149382000Y-113475250D01*
X149382000Y-112520064D01*
X149348664Y-112439582D01*
X167158045Y-112439582D01*
X167288863Y-112686531D01*
X167898319Y-112957613D01*
X168565122Y-112974830D01*
X169187755Y-112735563D01*
X169261137Y-112686531D01*
X169391955Y-112439582D01*
X168275000Y-111322627D01*
X167158045Y-112439582D01*
X149348664Y-112439582D01*
X149316993Y-112363124D01*
X149196876Y-112243007D01*
X149039935Y-112178000D01*
X148084750Y-112178000D01*
X147978000Y-112284750D01*
X147932000Y-112284750D01*
X147825250Y-112178000D01*
X146870065Y-112178000D01*
X146713124Y-112243007D01*
X146593007Y-112363124D01*
X146528000Y-112520064D01*
X143826680Y-112520064D01*
X144766522Y-111580222D01*
X166590270Y-111580222D01*
X166829537Y-112202855D01*
X166878569Y-112276237D01*
X167125518Y-112407055D01*
X168242473Y-111290100D01*
X168307527Y-111290100D01*
X169424482Y-112407055D01*
X169671431Y-112276237D01*
X169942513Y-111666781D01*
X169959730Y-110999978D01*
X169720463Y-110377345D01*
X169671431Y-110303963D01*
X169424482Y-110173145D01*
X168307527Y-111290100D01*
X168242473Y-111290100D01*
X167125518Y-110173145D01*
X166878569Y-110303963D01*
X166607487Y-110913419D01*
X166590270Y-111580222D01*
X144766522Y-111580222D01*
X146206126Y-110140618D01*
X167158045Y-110140618D01*
X168275000Y-111257573D01*
X169391955Y-110140618D01*
X169261137Y-109893669D01*
X168651681Y-109622587D01*
X167984878Y-109605370D01*
X167362245Y-109844637D01*
X167288863Y-109893669D01*
X167158045Y-110140618D01*
X146206126Y-110140618D01*
X148114604Y-108232140D01*
X148376230Y-108232368D01*
X149158274Y-107909234D01*
X149335818Y-107732000D01*
X155515000Y-107732000D01*
X156137626Y-107608152D01*
X156665463Y-107255463D01*
X159265463Y-104655463D01*
X159618152Y-104127626D01*
X159742000Y-103505000D01*
X159742000Y-99098926D01*
X159925255Y-98915671D01*
X161676117Y-98915671D01*
X161999251Y-99697715D01*
X162597063Y-100296572D01*
X163378542Y-100621071D01*
X163650363Y-100621308D01*
X166637840Y-103608784D01*
X166637840Y-105415859D01*
X166251164Y-105801861D01*
X165888573Y-106675075D01*
X165887748Y-107620577D01*
X166248814Y-108494422D01*
X166916801Y-109163576D01*
X167790015Y-109526167D01*
X168735517Y-109526992D01*
X169609362Y-109165926D01*
X170278516Y-108497939D01*
X170641107Y-107624725D01*
X170641932Y-106679223D01*
X170280866Y-105805378D01*
X169891840Y-105415672D01*
X169891840Y-102934859D01*
X169767992Y-102312233D01*
X169415303Y-101784396D01*
X169415300Y-101784394D01*
X165930655Y-98299749D01*
X165930853Y-98073211D01*
X165607719Y-97291167D01*
X165009907Y-96692310D01*
X164228428Y-96367811D01*
X163382255Y-96367073D01*
X162600211Y-96690207D01*
X162001354Y-97288019D01*
X161676855Y-98069498D01*
X161676117Y-98915671D01*
X159925255Y-98915671D01*
X163233926Y-95607000D01*
X167005000Y-95607000D01*
X167627626Y-95483152D01*
X168155463Y-95130463D01*
X169590563Y-93695363D01*
X169943252Y-93167526D01*
X170067100Y-92544900D01*
X170067100Y-91599241D01*
X170453776Y-91213239D01*
X170816367Y-90340025D01*
X170817192Y-89394523D01*
X170456126Y-88520678D01*
X169788139Y-87851524D01*
X168914925Y-87488933D01*
X167969423Y-87488108D01*
X167095578Y-87849174D01*
X166426424Y-88517161D01*
X166063833Y-89390375D01*
X166063008Y-90335877D01*
X166424074Y-91209722D01*
X166813100Y-91599428D01*
X166813100Y-91870974D01*
X166331074Y-92353000D01*
X162560000Y-92353000D01*
X161937374Y-92476848D01*
X161409537Y-92829537D01*
X156964537Y-97274537D01*
X156611848Y-97802374D01*
X156488000Y-98425000D01*
X156488000Y-102831074D01*
X154841074Y-104478000D01*
X149336247Y-104478000D01*
X149161422Y-104302869D01*
X148379943Y-103978370D01*
X147533770Y-103977632D01*
X146751726Y-104300766D01*
X146152869Y-104898578D01*
X145828370Y-105680057D01*
X145828164Y-105916730D01*
X139706893Y-112038000D01*
X130756405Y-112038000D01*
X130637056Y-111956452D01*
X130190000Y-111865921D01*
X128890000Y-111865921D01*
X128472359Y-111944506D01*
X128327065Y-112038000D01*
X127086504Y-112038000D01*
X126463878Y-112161848D01*
X125936041Y-112514537D01*
X121332578Y-117118000D01*
X113703926Y-117118000D01*
X113577749Y-116991823D01*
X113578024Y-116676539D01*
X114211877Y-116677092D01*
X115085722Y-116316026D01*
X115754876Y-115648039D01*
X116117467Y-114774825D01*
X116118292Y-113829323D01*
X115757226Y-112955478D01*
X115089239Y-112286324D01*
X114216025Y-111923733D01*
X113577739Y-111923176D01*
X113578292Y-111289323D01*
X113217226Y-110415478D01*
X112828200Y-110025772D01*
X112828200Y-106812748D01*
X113238947Y-106402000D01*
X113718595Y-106402000D01*
X113837944Y-106483548D01*
X114285000Y-106574079D01*
X115585000Y-106574079D01*
X116002641Y-106495494D01*
X116386219Y-106248669D01*
X116643548Y-105872056D01*
X116720498Y-105492065D01*
X119250462Y-105492065D01*
X119308302Y-105676706D01*
X119701074Y-105847895D01*
X120129460Y-105855745D01*
X120528241Y-105699062D01*
X120561698Y-105676706D01*
X120619538Y-105492065D01*
X119935000Y-104807527D01*
X119250462Y-105492065D01*
X116720498Y-105492065D01*
X116734079Y-105425000D01*
X116734079Y-104969460D01*
X118854255Y-104969460D01*
X119010938Y-105368241D01*
X119033294Y-105401698D01*
X119217935Y-105459538D01*
X119902473Y-104775000D01*
X119967527Y-104775000D01*
X120652065Y-105459538D01*
X120836706Y-105401698D01*
X121007895Y-105008926D01*
X121015745Y-104580540D01*
X120859062Y-104181759D01*
X120836706Y-104148302D01*
X120652065Y-104090462D01*
X119967527Y-104775000D01*
X119902473Y-104775000D01*
X119217935Y-104090462D01*
X119033294Y-104148302D01*
X118862105Y-104541074D01*
X118854255Y-104969460D01*
X116734079Y-104969460D01*
X116734079Y-104125000D01*
X116721460Y-104057935D01*
X119250462Y-104057935D01*
X119935000Y-104742473D01*
X120619538Y-104057935D01*
X120561698Y-103873294D01*
X120168926Y-103702105D01*
X119740540Y-103694255D01*
X119341759Y-103850938D01*
X119308302Y-103873294D01*
X119250462Y-104057935D01*
X116721460Y-104057935D01*
X116655494Y-103707359D01*
X116408669Y-103323781D01*
X116032056Y-103066452D01*
X115585000Y-102975921D01*
X114285000Y-102975921D01*
X113867359Y-103054506D01*
X113722065Y-103148000D01*
X112565027Y-103148000D01*
X112565022Y-103147999D01*
X112565017Y-103148000D01*
X100315979Y-103148000D01*
X100228801Y-102937014D01*
X99631132Y-102338301D01*
X99290999Y-102197065D01*
X130760462Y-102197065D01*
X130818302Y-102381706D01*
X131211074Y-102552895D01*
X131639460Y-102560745D01*
X132038241Y-102404062D01*
X132071698Y-102381706D01*
X132129538Y-102197065D01*
X131445000Y-101512527D01*
X130760462Y-102197065D01*
X99290999Y-102197065D01*
X98849841Y-102013880D01*
X98003871Y-102013142D01*
X97222014Y-102336199D01*
X96623301Y-102933868D01*
X96298880Y-103715159D01*
X96298142Y-104561129D01*
X96621199Y-105342986D01*
X97218868Y-105941699D01*
X98000159Y-106266120D01*
X98419915Y-106266486D01*
X98437374Y-106278152D01*
X99060000Y-106402001D01*
X99060005Y-106402000D01*
X109574200Y-106402000D01*
X109574200Y-110025959D01*
X109187524Y-110411961D01*
X108824933Y-111285175D01*
X108824108Y-112230677D01*
X109006872Y-112673000D01*
X102908926Y-112673000D01*
X95607000Y-105371074D01*
X95607000Y-101296543D01*
X97488443Y-101296543D01*
X97588817Y-101517496D01*
X98107875Y-101746903D01*
X98675213Y-101760212D01*
X98896798Y-101674460D01*
X130364255Y-101674460D01*
X130520938Y-102073241D01*
X130543294Y-102106698D01*
X130727935Y-102164538D01*
X131412473Y-101480000D01*
X131477527Y-101480000D01*
X132162065Y-102164538D01*
X132346706Y-102106698D01*
X132517895Y-101713926D01*
X132525745Y-101285540D01*
X132369062Y-100886759D01*
X132346706Y-100853302D01*
X132162065Y-100795462D01*
X131477527Y-101480000D01*
X131412473Y-101480000D01*
X130727935Y-100795462D01*
X130543294Y-100853302D01*
X130372105Y-101246074D01*
X130364255Y-101674460D01*
X98896798Y-101674460D01*
X99204457Y-101555398D01*
X99261183Y-101517496D01*
X99361557Y-101296543D01*
X98425000Y-100359987D01*
X97488443Y-101296543D01*
X95607000Y-101296543D01*
X95607000Y-100577673D01*
X96992248Y-100577673D01*
X97197062Y-101106917D01*
X97234964Y-101163643D01*
X97455917Y-101264017D01*
X98392473Y-100327460D01*
X98457527Y-100327460D01*
X99394083Y-101264017D01*
X99615036Y-101163643D01*
X99792136Y-100762935D01*
X130760462Y-100762935D01*
X131445000Y-101447473D01*
X132129538Y-100762935D01*
X132071698Y-100578294D01*
X131678926Y-100407105D01*
X131250540Y-100399255D01*
X130851759Y-100555938D01*
X130818302Y-100578294D01*
X130760462Y-100762935D01*
X99792136Y-100762935D01*
X99844443Y-100644585D01*
X99857752Y-100077247D01*
X99652938Y-99548003D01*
X99615036Y-99491277D01*
X99394083Y-99390903D01*
X98457527Y-100327460D01*
X98392473Y-100327460D01*
X97455917Y-99390903D01*
X97234964Y-99491277D01*
X97005557Y-100010335D01*
X96992248Y-100577673D01*
X95607000Y-100577673D01*
X95607000Y-94615000D01*
X95483152Y-93992374D01*
X95130463Y-93464537D01*
X93860463Y-92194537D01*
X93332626Y-91841848D01*
X92710000Y-91718000D01*
X89645526Y-91718000D01*
X89471132Y-91543301D01*
X88689841Y-91218880D01*
X87843871Y-91218142D01*
X87062014Y-91541199D01*
X86463301Y-92138868D01*
X86138880Y-92920159D01*
X86138142Y-93766129D01*
X86461199Y-94547986D01*
X87058868Y-95146699D01*
X87307290Y-95249853D01*
X87062014Y-95351199D01*
X86463301Y-95948868D01*
X86138880Y-96730159D01*
X86138142Y-97576129D01*
X86461199Y-98357986D01*
X86551341Y-98448286D01*
X86464291Y-98504301D01*
X86206962Y-98880914D01*
X86116431Y-99327970D01*
X77263500Y-99327970D01*
X77263500Y-84695374D01*
X85537328Y-84695374D01*
X85951644Y-85698097D01*
X86718148Y-86465940D01*
X87720146Y-86882006D01*
X88805094Y-86882952D01*
X89807817Y-86468636D01*
X90575660Y-85702132D01*
X90991726Y-84700134D01*
X90992672Y-83615186D01*
X90578356Y-82612463D01*
X89811852Y-81844620D01*
X89561987Y-81740867D01*
X89609522Y-81721226D01*
X89999228Y-81332200D01*
X90117626Y-81332200D01*
X96798000Y-88012574D01*
X96798000Y-91964474D01*
X96623301Y-92138868D01*
X96298880Y-92920159D01*
X96298142Y-93766129D01*
X96621199Y-94547986D01*
X96798000Y-94725096D01*
X96798000Y-95774474D01*
X96623301Y-95948868D01*
X96298880Y-96730159D01*
X96298142Y-97576129D01*
X96621199Y-98357986D01*
X97218868Y-98956699D01*
X97613839Y-99120705D01*
X97588817Y-99137424D01*
X97488443Y-99358377D01*
X98425000Y-100294933D01*
X99361557Y-99358377D01*
X99261183Y-99137424D01*
X99229536Y-99123437D01*
X99627986Y-98958801D01*
X100226699Y-98361132D01*
X100551120Y-97579841D01*
X100551858Y-96733871D01*
X100228801Y-95952014D01*
X100052000Y-95774904D01*
X100052000Y-94725526D01*
X100226699Y-94551132D01*
X100551120Y-93769841D01*
X100551858Y-92923871D01*
X100228801Y-92142014D01*
X100052000Y-91964904D01*
X100052000Y-87338653D01*
X100052001Y-87338648D01*
X99928152Y-86716022D01*
X99575463Y-86188185D01*
X91942015Y-78554737D01*
X91414178Y-78202048D01*
X90791552Y-78078200D01*
X89999041Y-78078200D01*
X89613039Y-77691524D01*
X88739825Y-77328933D01*
X87794323Y-77328108D01*
X86920478Y-77689174D01*
X86251324Y-78357161D01*
X85888733Y-79230375D01*
X85887908Y-80175877D01*
X86248974Y-81049722D01*
X86916961Y-81718876D01*
X86968344Y-81740212D01*
X86722183Y-81841924D01*
X85954340Y-82608428D01*
X85538274Y-83610426D01*
X85537328Y-84695374D01*
X77263500Y-84695374D01*
X77263500Y-76714482D01*
X87148045Y-76714482D01*
X87278863Y-76961431D01*
X87888319Y-77232513D01*
X88555122Y-77249730D01*
X89177755Y-77010463D01*
X89251137Y-76961431D01*
X89381955Y-76714482D01*
X88265000Y-75597527D01*
X87148045Y-76714482D01*
X77263500Y-76714482D01*
X77263500Y-75855122D01*
X86580270Y-75855122D01*
X86819537Y-76477755D01*
X86868569Y-76551137D01*
X87115518Y-76681955D01*
X88232473Y-75565000D01*
X88297527Y-75565000D01*
X89414482Y-76681955D01*
X89661431Y-76551137D01*
X89932513Y-75941681D01*
X89949730Y-75274878D01*
X89710463Y-74652245D01*
X89661431Y-74578863D01*
X89414482Y-74448045D01*
X88297527Y-75565000D01*
X88232473Y-75565000D01*
X87115518Y-74448045D01*
X86868569Y-74578863D01*
X86597487Y-75188319D01*
X86580270Y-75855122D01*
X77263500Y-75855122D01*
X77263500Y-74415518D01*
X87148045Y-74415518D01*
X88265000Y-75532473D01*
X89381955Y-74415518D01*
X89251137Y-74168569D01*
X88641681Y-73897487D01*
X87974878Y-73880270D01*
X87352245Y-74119537D01*
X87278863Y-74168569D01*
X87148045Y-74415518D01*
X77263500Y-74415518D01*
X77263500Y-71895477D01*
X85887908Y-71895477D01*
X86248974Y-72769322D01*
X86916961Y-73438476D01*
X87790175Y-73801067D01*
X88735677Y-73801892D01*
X89609522Y-73440826D01*
X89999228Y-73051800D01*
X95974349Y-73051800D01*
X96163000Y-73240451D01*
X96163000Y-78105000D01*
X96286848Y-78727626D01*
X96639537Y-79255463D01*
X104393212Y-87009137D01*
X104393212Y-90637995D01*
X104517060Y-91260621D01*
X104869749Y-91788458D01*
X112682711Y-99601420D01*
X113210548Y-99954109D01*
X113833174Y-100077958D01*
X113833179Y-100077957D01*
X152073028Y-100077957D01*
X152247853Y-100253088D01*
X153029332Y-100577587D01*
X153875505Y-100578325D01*
X154657549Y-100255191D01*
X155256406Y-99657379D01*
X155580905Y-98875900D01*
X155581643Y-98029727D01*
X155258509Y-97247683D01*
X154660697Y-96648826D01*
X153879218Y-96324327D01*
X153033045Y-96323589D01*
X152251001Y-96646723D01*
X152073457Y-96823957D01*
X114507100Y-96823957D01*
X111013143Y-93330000D01*
X129645921Y-93330000D01*
X129645921Y-94630000D01*
X129724506Y-95047641D01*
X129971331Y-95431219D01*
X130347944Y-95688548D01*
X130795000Y-95779079D01*
X132095000Y-95779079D01*
X132512641Y-95700494D01*
X132657935Y-95607000D01*
X135950000Y-95607000D01*
X136572626Y-95483152D01*
X137100463Y-95130463D01*
X141356175Y-90874750D01*
X145258000Y-90874750D01*
X145258000Y-91829936D01*
X145323007Y-91986876D01*
X145443124Y-92106993D01*
X145600065Y-92172000D01*
X146555250Y-92172000D01*
X146662000Y-92065250D01*
X146662000Y-90768000D01*
X146708000Y-90768000D01*
X146708000Y-92065250D01*
X146814750Y-92172000D01*
X147769935Y-92172000D01*
X147926876Y-92106993D01*
X148046993Y-91986876D01*
X148112000Y-91829936D01*
X148112000Y-91014682D01*
X163182945Y-91014682D01*
X163313763Y-91261631D01*
X163923219Y-91532713D01*
X164590022Y-91549930D01*
X165212655Y-91310663D01*
X165286037Y-91261631D01*
X165416855Y-91014682D01*
X164299900Y-89897727D01*
X163182945Y-91014682D01*
X148112000Y-91014682D01*
X148112000Y-90874750D01*
X148005250Y-90768000D01*
X146708000Y-90768000D01*
X146662000Y-90768000D01*
X145364750Y-90768000D01*
X145258000Y-90874750D01*
X141356175Y-90874750D01*
X142570861Y-89660064D01*
X145258000Y-89660064D01*
X145258000Y-90615250D01*
X145364750Y-90722000D01*
X146662000Y-90722000D01*
X146662000Y-89424750D01*
X146708000Y-89424750D01*
X146708000Y-90722000D01*
X148005250Y-90722000D01*
X148112000Y-90615250D01*
X148112000Y-90155322D01*
X162615170Y-90155322D01*
X162854437Y-90777955D01*
X162903469Y-90851337D01*
X163150418Y-90982155D01*
X164267373Y-89865200D01*
X164332427Y-89865200D01*
X165449382Y-90982155D01*
X165696331Y-90851337D01*
X165967413Y-90241881D01*
X165984630Y-89575078D01*
X165745363Y-88952445D01*
X165696331Y-88879063D01*
X165449382Y-88748245D01*
X164332427Y-89865200D01*
X164267373Y-89865200D01*
X163150418Y-88748245D01*
X162903469Y-88879063D01*
X162632387Y-89488519D01*
X162615170Y-90155322D01*
X148112000Y-90155322D01*
X148112000Y-89660064D01*
X148046993Y-89503124D01*
X147926876Y-89383007D01*
X147769935Y-89318000D01*
X146814750Y-89318000D01*
X146708000Y-89424750D01*
X146662000Y-89424750D01*
X146555250Y-89318000D01*
X145600065Y-89318000D01*
X145443124Y-89383007D01*
X145323007Y-89503124D01*
X145258000Y-89660064D01*
X142570861Y-89660064D01*
X143515207Y-88715718D01*
X163182945Y-88715718D01*
X164299900Y-89832673D01*
X165416855Y-88715718D01*
X165286037Y-88468769D01*
X164676581Y-88197687D01*
X164009778Y-88180470D01*
X163387145Y-88419737D01*
X163313763Y-88468769D01*
X163182945Y-88715718D01*
X143515207Y-88715718D01*
X146858773Y-85372152D01*
X147106230Y-85372368D01*
X147888274Y-85049234D01*
X148065818Y-84872000D01*
X149351916Y-84872000D01*
X151355377Y-86875460D01*
X151355379Y-86875463D01*
X151651073Y-87073039D01*
X151883216Y-87228152D01*
X152505842Y-87352001D01*
X152505847Y-87352000D01*
X162565859Y-87352000D01*
X162951861Y-87738676D01*
X163825075Y-88101267D01*
X164770577Y-88102092D01*
X165644422Y-87741026D01*
X166313576Y-87073039D01*
X166396024Y-86874482D01*
X167323145Y-86874482D01*
X167453963Y-87121431D01*
X168063419Y-87392513D01*
X168730222Y-87409730D01*
X169352855Y-87170463D01*
X169426237Y-87121431D01*
X169557055Y-86874482D01*
X168440100Y-85757527D01*
X167323145Y-86874482D01*
X166396024Y-86874482D01*
X166676167Y-86199825D01*
X166676328Y-86015122D01*
X166755370Y-86015122D01*
X166994637Y-86637755D01*
X167043669Y-86711137D01*
X167290618Y-86841955D01*
X168407573Y-85725000D01*
X168472627Y-85725000D01*
X169589582Y-86841955D01*
X169836531Y-86711137D01*
X170107613Y-86101681D01*
X170124830Y-85434878D01*
X169885563Y-84812245D01*
X169836531Y-84738863D01*
X169589582Y-84608045D01*
X168472627Y-85725000D01*
X168407573Y-85725000D01*
X167290618Y-84608045D01*
X167043669Y-84738863D01*
X166772587Y-85348319D01*
X166755370Y-86015122D01*
X166676328Y-86015122D01*
X166676992Y-85254323D01*
X166396516Y-84575518D01*
X167323145Y-84575518D01*
X168440100Y-85692473D01*
X169557055Y-84575518D01*
X169426237Y-84328569D01*
X168816781Y-84057487D01*
X168149978Y-84040270D01*
X167527345Y-84279537D01*
X167453963Y-84328569D01*
X167323145Y-84575518D01*
X166396516Y-84575518D01*
X166315926Y-84380478D01*
X165647939Y-83711324D01*
X164774725Y-83348733D01*
X163829223Y-83347908D01*
X162955378Y-83708974D01*
X162565672Y-84098000D01*
X153179767Y-84098000D01*
X151816050Y-82734282D01*
X163182945Y-82734282D01*
X163313763Y-82981231D01*
X163923219Y-83252313D01*
X164590022Y-83269530D01*
X165212655Y-83030263D01*
X165286037Y-82981231D01*
X165416855Y-82734282D01*
X164299900Y-81617327D01*
X163182945Y-82734282D01*
X151816050Y-82734282D01*
X151176305Y-82094537D01*
X150847628Y-81874922D01*
X162615170Y-81874922D01*
X162854437Y-82497555D01*
X162903469Y-82570937D01*
X163150418Y-82701755D01*
X164267373Y-81584800D01*
X164332427Y-81584800D01*
X165449382Y-82701755D01*
X165696331Y-82570937D01*
X165967413Y-81961481D01*
X165984630Y-81294678D01*
X165745363Y-80672045D01*
X165696331Y-80598663D01*
X165449382Y-80467845D01*
X164332427Y-81584800D01*
X164267373Y-81584800D01*
X163150418Y-80467845D01*
X162903469Y-80598663D01*
X162632387Y-81208119D01*
X162615170Y-81874922D01*
X150847628Y-81874922D01*
X150648468Y-81741848D01*
X150025842Y-81618000D01*
X148066247Y-81618000D01*
X147891422Y-81442869D01*
X147109943Y-81118370D01*
X146263770Y-81117632D01*
X145481726Y-81440766D01*
X144882869Y-82038578D01*
X144558370Y-82820057D01*
X144558151Y-83070924D01*
X135276074Y-92353000D01*
X133594811Y-92353000D01*
X133738463Y-92209348D01*
X134091152Y-91681511D01*
X134215000Y-91058885D01*
X134215000Y-89010526D01*
X134389699Y-88836132D01*
X134714120Y-88054841D01*
X134714858Y-87208871D01*
X134391801Y-86427014D01*
X133794132Y-85828301D01*
X133012841Y-85503880D01*
X132166871Y-85503142D01*
X131385014Y-85826199D01*
X130786301Y-86423868D01*
X130461880Y-87205159D01*
X130461142Y-88051129D01*
X130784199Y-88832986D01*
X130961000Y-89010096D01*
X130961000Y-90384959D01*
X130294537Y-91051422D01*
X129941848Y-91579259D01*
X129818000Y-92201885D01*
X129818000Y-92763595D01*
X129736452Y-92882944D01*
X129645921Y-93330000D01*
X111013143Y-93330000D01*
X107647212Y-89964069D01*
X107647212Y-86335212D01*
X107523364Y-85712586D01*
X107170675Y-85184749D01*
X107170672Y-85184747D01*
X103200446Y-81214520D01*
X106038912Y-81214520D01*
X106475802Y-82271876D01*
X107284069Y-83081554D01*
X108340660Y-83520290D01*
X109484720Y-83521288D01*
X110542076Y-83084398D01*
X111351754Y-82276131D01*
X111790490Y-81219540D01*
X111791488Y-80075480D01*
X111354598Y-79018124D01*
X110546331Y-78208446D01*
X109489740Y-77769710D01*
X108345680Y-77768712D01*
X107288324Y-78205602D01*
X106478646Y-79013869D01*
X106039910Y-80070460D01*
X106038912Y-81214520D01*
X103200446Y-81214520D01*
X99417000Y-77431074D01*
X99417000Y-71541129D01*
X102013142Y-71541129D01*
X102336199Y-72322986D01*
X102933868Y-72921699D01*
X103715159Y-73246120D01*
X104561129Y-73246858D01*
X105342986Y-72923801D01*
X105520096Y-72747000D01*
X107204474Y-72747000D01*
X107378868Y-72921699D01*
X108160159Y-73246120D01*
X109006129Y-73246858D01*
X109787986Y-72923801D01*
X110386699Y-72326132D01*
X110711120Y-71544841D01*
X110711858Y-70698871D01*
X110388801Y-69917014D01*
X110212000Y-69739904D01*
X110212000Y-69244937D01*
X110385709Y-69133159D01*
X110643038Y-68756546D01*
X110733569Y-68309490D01*
X110733569Y-66310510D01*
X110654984Y-65892869D01*
X110408159Y-65509291D01*
X110031546Y-65251962D01*
X109584490Y-65161431D01*
X109495505Y-65161431D01*
X109521557Y-65104083D01*
X108585000Y-64167527D01*
X107648443Y-65104083D01*
X107674495Y-65161431D01*
X107585510Y-65161431D01*
X107167869Y-65240016D01*
X106784291Y-65486841D01*
X106526962Y-65863454D01*
X106436431Y-66310510D01*
X106436431Y-68309490D01*
X106515016Y-68727131D01*
X106761841Y-69110709D01*
X106958000Y-69244739D01*
X106958000Y-69493000D01*
X105520526Y-69493000D01*
X105346132Y-69318301D01*
X104564841Y-68993880D01*
X103718871Y-68993142D01*
X102937014Y-69316199D01*
X102338301Y-69913868D01*
X102013880Y-70695159D01*
X102013142Y-71541129D01*
X99417000Y-71541129D01*
X99417000Y-70344601D01*
X105290463Y-64471138D01*
X105347876Y-64385213D01*
X107152248Y-64385213D01*
X107357062Y-64914457D01*
X107394964Y-64971183D01*
X107615917Y-65071557D01*
X108552473Y-64135000D01*
X108617527Y-64135000D01*
X109554083Y-65071557D01*
X109775036Y-64971183D01*
X110004443Y-64452125D01*
X110017752Y-63884787D01*
X109812938Y-63355543D01*
X109775036Y-63298817D01*
X109554083Y-63198443D01*
X108617527Y-64135000D01*
X108552473Y-64135000D01*
X107615917Y-63198443D01*
X107394964Y-63298817D01*
X107165557Y-63817875D01*
X107152248Y-64385213D01*
X105347876Y-64385213D01*
X105643152Y-63943301D01*
X105767000Y-63320675D01*
X105767000Y-63165917D01*
X107648443Y-63165917D01*
X108585000Y-64102473D01*
X109521557Y-63165917D01*
X109421183Y-62944964D01*
X108902125Y-62715557D01*
X108334787Y-62702248D01*
X107805543Y-62907062D01*
X107748817Y-62944964D01*
X107648443Y-63165917D01*
X105767000Y-63165917D01*
X105767000Y-62340526D01*
X105941699Y-62166132D01*
X106266120Y-61384841D01*
X106266825Y-60576508D01*
X112038000Y-60576508D01*
X112038000Y-75565000D01*
X112161848Y-76187626D01*
X112514537Y-76715463D01*
X117594537Y-81795463D01*
X118122374Y-82148152D01*
X118745000Y-82272000D01*
X122976880Y-82272000D01*
X122794933Y-82710175D01*
X122794108Y-83655677D01*
X123155174Y-84529522D01*
X123823161Y-85198676D01*
X124696375Y-85561267D01*
X125641877Y-85562092D01*
X126515722Y-85201026D01*
X126891541Y-84825862D01*
X129623183Y-84825862D01*
X130245809Y-84702014D01*
X130773646Y-84349325D01*
X133744655Y-81378316D01*
X134097344Y-80850479D01*
X134179924Y-80435318D01*
X163182945Y-80435318D01*
X164299900Y-81552273D01*
X165416855Y-80435318D01*
X165286037Y-80188369D01*
X164676581Y-79917287D01*
X164009778Y-79900070D01*
X163387145Y-80139337D01*
X163313763Y-80188369D01*
X163182945Y-80435318D01*
X134179924Y-80435318D01*
X134221192Y-80227853D01*
X134221192Y-79097000D01*
X135830000Y-79097000D01*
X136452626Y-78973152D01*
X136980463Y-78620463D01*
X145588774Y-70012152D01*
X145836230Y-70012368D01*
X146618274Y-69689234D01*
X146795818Y-69512000D01*
X162525782Y-69512000D01*
X162732944Y-69653548D01*
X163180000Y-69744079D01*
X164480000Y-69744079D01*
X164897641Y-69665494D01*
X164898814Y-69664739D01*
X166813100Y-71579025D01*
X166813100Y-76075563D01*
X166613256Y-75591903D01*
X165846752Y-74824060D01*
X164844754Y-74407994D01*
X163759806Y-74407048D01*
X162757083Y-74821364D01*
X161989240Y-75587868D01*
X161573174Y-76589866D01*
X161572228Y-77674814D01*
X161986544Y-78677537D01*
X162753048Y-79445380D01*
X163755046Y-79861446D01*
X164839994Y-79862392D01*
X165842717Y-79448076D01*
X166610560Y-78681572D01*
X166813100Y-78193802D01*
X166813100Y-79850759D01*
X166426424Y-80236761D01*
X166063833Y-81109975D01*
X166063008Y-82055477D01*
X166424074Y-82929322D01*
X167092061Y-83598476D01*
X167965275Y-83961067D01*
X168910777Y-83961892D01*
X169784622Y-83600826D01*
X170453776Y-82932839D01*
X170816367Y-82059625D01*
X170817192Y-81114123D01*
X170456126Y-80240278D01*
X170067100Y-79850572D01*
X170067100Y-70905105D01*
X170067101Y-70905100D01*
X169943252Y-70282474D01*
X169937815Y-70274337D01*
X169590563Y-69754637D01*
X169590560Y-69754635D01*
X166630463Y-66794537D01*
X166102626Y-66441848D01*
X165480000Y-66318000D01*
X165046405Y-66318000D01*
X164927056Y-66236452D01*
X164480000Y-66145921D01*
X163180000Y-66145921D01*
X162762359Y-66224506D01*
X162710308Y-66258000D01*
X146796247Y-66258000D01*
X146621422Y-66082869D01*
X145839943Y-65758370D01*
X144993770Y-65757632D01*
X144211726Y-66080766D01*
X143612869Y-66678578D01*
X143425626Y-67129508D01*
X143336848Y-67262374D01*
X143305946Y-67417730D01*
X143288370Y-67460057D01*
X143288330Y-67506292D01*
X143237564Y-67761510D01*
X135156074Y-75843000D01*
X133968526Y-75843000D01*
X133794132Y-75668301D01*
X133012841Y-75343880D01*
X132166871Y-75343142D01*
X131385014Y-75666199D01*
X130786301Y-76263868D01*
X130461880Y-77045159D01*
X130461142Y-77891129D01*
X130784199Y-78672986D01*
X130967192Y-78856299D01*
X130967192Y-79553927D01*
X130088066Y-80433053D01*
X130088292Y-80174323D01*
X129727226Y-79300478D01*
X129059239Y-78631324D01*
X128186025Y-78268733D01*
X127547739Y-78268176D01*
X127548292Y-77634323D01*
X127187226Y-76760478D01*
X126798200Y-76370772D01*
X126798200Y-71772846D01*
X127094045Y-71477000D01*
X127133595Y-71477000D01*
X127252944Y-71558548D01*
X127700000Y-71649079D01*
X129000000Y-71649079D01*
X129417641Y-71570494D01*
X129801219Y-71323669D01*
X130058548Y-70947056D01*
X130135498Y-70567065D01*
X132665462Y-70567065D01*
X132723302Y-70751706D01*
X133116074Y-70922895D01*
X133544460Y-70930745D01*
X133943241Y-70774062D01*
X133976698Y-70751706D01*
X134034538Y-70567065D01*
X133350000Y-69882527D01*
X132665462Y-70567065D01*
X130135498Y-70567065D01*
X130149079Y-70500000D01*
X130149079Y-70044460D01*
X132269255Y-70044460D01*
X132425938Y-70443241D01*
X132448294Y-70476698D01*
X132632935Y-70534538D01*
X133317473Y-69850000D01*
X133382527Y-69850000D01*
X134067065Y-70534538D01*
X134251706Y-70476698D01*
X134422895Y-70083926D01*
X134430745Y-69655540D01*
X134274062Y-69256759D01*
X134251706Y-69223302D01*
X134067065Y-69165462D01*
X133382527Y-69850000D01*
X133317473Y-69850000D01*
X132632935Y-69165462D01*
X132448294Y-69223302D01*
X132277105Y-69616074D01*
X132269255Y-70044460D01*
X130149079Y-70044460D01*
X130149079Y-69200000D01*
X130136460Y-69132935D01*
X132665462Y-69132935D01*
X133350000Y-69817473D01*
X134034538Y-69132935D01*
X133976698Y-68948294D01*
X133583926Y-68777105D01*
X133155540Y-68769255D01*
X132756759Y-68925938D01*
X132723302Y-68948294D01*
X132665462Y-69132935D01*
X130136460Y-69132935D01*
X130070494Y-68782359D01*
X129823669Y-68398781D01*
X129447056Y-68141452D01*
X129000000Y-68050921D01*
X127700000Y-68050921D01*
X127282359Y-68129506D01*
X127154234Y-68211952D01*
X123258941Y-68211952D01*
X122636315Y-68335800D01*
X122108478Y-68688489D01*
X122108476Y-68688492D01*
X121303967Y-69493000D01*
X120125526Y-69493000D01*
X119951132Y-69318301D01*
X119702710Y-69215147D01*
X119947986Y-69113801D01*
X120546699Y-68516132D01*
X120871120Y-67734841D01*
X120871858Y-66888871D01*
X120548801Y-66107014D01*
X120457115Y-66015168D01*
X120545709Y-65958159D01*
X120803038Y-65581546D01*
X120893569Y-65134490D01*
X120893569Y-63135510D01*
X120814984Y-62717869D01*
X120568159Y-62334291D01*
X120191546Y-62076962D01*
X119744490Y-61986431D01*
X117745510Y-61986431D01*
X117327869Y-62065016D01*
X116944291Y-62311841D01*
X116686962Y-62688454D01*
X116596431Y-63135510D01*
X116596431Y-65134490D01*
X116675016Y-65552131D01*
X116921841Y-65935709D01*
X117034585Y-66012744D01*
X116943301Y-66103868D01*
X116618880Y-66885159D01*
X116618142Y-67731129D01*
X116941199Y-68512986D01*
X117538868Y-69111699D01*
X117787290Y-69214853D01*
X117542014Y-69316199D01*
X116943301Y-69913868D01*
X116618880Y-70695159D01*
X116618142Y-71541129D01*
X116941199Y-72322986D01*
X117538868Y-72921699D01*
X118320159Y-73246120D01*
X119166129Y-73246858D01*
X119947986Y-72923801D01*
X120125096Y-72747000D01*
X121977893Y-72747000D01*
X122600519Y-72623152D01*
X123128356Y-72270463D01*
X123544200Y-71854619D01*
X123544200Y-76370959D01*
X123157524Y-76756961D01*
X122794933Y-77630175D01*
X122794108Y-78575677D01*
X122976872Y-79018000D01*
X119418926Y-79018000D01*
X115292000Y-74891074D01*
X115292000Y-61250434D01*
X116027684Y-60514750D01*
X143988000Y-60514750D01*
X143988000Y-61469936D01*
X144053007Y-61626876D01*
X144173124Y-61746993D01*
X144330065Y-61812000D01*
X145285250Y-61812000D01*
X145392000Y-61705250D01*
X145392000Y-60408000D01*
X145438000Y-60408000D01*
X145438000Y-61705250D01*
X145544750Y-61812000D01*
X146499935Y-61812000D01*
X146656876Y-61746993D01*
X146776993Y-61626876D01*
X146842000Y-61469936D01*
X146842000Y-61162065D01*
X163145462Y-61162065D01*
X163203302Y-61346706D01*
X163596074Y-61517895D01*
X164024460Y-61525745D01*
X164423241Y-61369062D01*
X164456698Y-61346706D01*
X164514538Y-61162065D01*
X163830000Y-60477527D01*
X163145462Y-61162065D01*
X146842000Y-61162065D01*
X146842000Y-60639460D01*
X162749255Y-60639460D01*
X162905938Y-61038241D01*
X162928294Y-61071698D01*
X163112935Y-61129538D01*
X163797473Y-60445000D01*
X163862527Y-60445000D01*
X164547065Y-61129538D01*
X164731706Y-61071698D01*
X164902895Y-60678926D01*
X164910745Y-60250540D01*
X164754062Y-59851759D01*
X164731706Y-59818302D01*
X164547065Y-59760462D01*
X163862527Y-60445000D01*
X163797473Y-60445000D01*
X163112935Y-59760462D01*
X162928294Y-59818302D01*
X162757105Y-60211074D01*
X162749255Y-60639460D01*
X146842000Y-60639460D01*
X146842000Y-60514750D01*
X146735250Y-60408000D01*
X145438000Y-60408000D01*
X145392000Y-60408000D01*
X144094750Y-60408000D01*
X143988000Y-60514750D01*
X116027684Y-60514750D01*
X117242370Y-59300064D01*
X143988000Y-59300064D01*
X143988000Y-60255250D01*
X144094750Y-60362000D01*
X145392000Y-60362000D01*
X145392000Y-59064750D01*
X145438000Y-59064750D01*
X145438000Y-60362000D01*
X146735250Y-60362000D01*
X146842000Y-60255250D01*
X146842000Y-59727935D01*
X163145462Y-59727935D01*
X163830000Y-60412473D01*
X164514538Y-59727935D01*
X164456698Y-59543294D01*
X164063926Y-59372105D01*
X163635540Y-59364255D01*
X163236759Y-59520938D01*
X163203302Y-59543294D01*
X163145462Y-59727935D01*
X146842000Y-59727935D01*
X146842000Y-59300064D01*
X146776993Y-59143124D01*
X146656876Y-59023007D01*
X146499935Y-58958000D01*
X145544750Y-58958000D01*
X145438000Y-59064750D01*
X145392000Y-59064750D01*
X145285250Y-58958000D01*
X144330065Y-58958000D01*
X144173124Y-59023007D01*
X144053007Y-59143124D01*
X143988000Y-59300064D01*
X117242370Y-59300064D01*
X118140100Y-58402334D01*
X118715159Y-58641120D01*
X119561129Y-58641858D01*
X120342986Y-58318801D01*
X120941699Y-57721132D01*
X121266120Y-56939841D01*
X121266858Y-56093871D01*
X120943801Y-55312014D01*
X120346132Y-54713301D01*
X119564841Y-54388880D01*
X118718871Y-54388142D01*
X117937014Y-54711199D01*
X117759904Y-54888000D01*
X117726513Y-54888000D01*
X117726508Y-54887999D01*
X117103882Y-55011848D01*
X116576045Y-55364537D01*
X112514537Y-59426045D01*
X112161848Y-59953882D01*
X112038000Y-60576508D01*
X106266825Y-60576508D01*
X106266858Y-60538871D01*
X105943801Y-59757014D01*
X105767000Y-59579904D01*
X105767000Y-57895526D01*
X105941699Y-57721132D01*
X106266120Y-56939841D01*
X106266858Y-56093871D01*
X105943801Y-55312014D01*
X105346132Y-54713301D01*
X104564841Y-54388880D01*
X103718871Y-54388142D01*
X102937014Y-54711199D01*
X102338301Y-55308868D01*
X102013880Y-56090159D01*
X102013142Y-56936129D01*
X102336199Y-57717986D01*
X102513000Y-57895096D01*
X102513000Y-59579474D01*
X102338301Y-59753868D01*
X102013880Y-60535159D01*
X102013142Y-61381129D01*
X102336199Y-62162986D01*
X102513000Y-62340096D01*
X102513000Y-62646749D01*
X96639537Y-68520212D01*
X96286848Y-69048049D01*
X96163000Y-69670675D01*
X96163000Y-69797800D01*
X89999041Y-69797800D01*
X89613039Y-69411124D01*
X88739825Y-69048533D01*
X87794323Y-69047708D01*
X86920478Y-69408774D01*
X86251324Y-70076761D01*
X85888733Y-70949975D01*
X85887908Y-71895477D01*
X77263500Y-71895477D01*
X77263500Y-54092652D01*
X78069702Y-54092652D01*
X78506785Y-55150475D01*
X79315409Y-55960511D01*
X80372467Y-56399440D01*
X81517032Y-56400438D01*
X82574855Y-55963355D01*
X83384891Y-55154731D01*
X83823820Y-54097673D01*
X83824818Y-52953108D01*
X83387735Y-51895285D01*
X82579111Y-51085249D01*
X81522053Y-50646320D01*
X80377488Y-50645322D01*
X79319665Y-51082405D01*
X78509629Y-51891029D01*
X78070700Y-52948087D01*
X78069702Y-54092652D01*
X77263500Y-54092652D01*
X77263500Y-49864143D01*
X86822000Y-49864143D01*
X86822000Y-62403857D01*
X94176000Y-62403857D01*
X94176000Y-54092652D01*
X168069522Y-54092652D01*
X168506605Y-55150475D01*
X169315229Y-55960511D01*
X170372287Y-56399440D01*
X171516852Y-56400438D01*
X172574675Y-55963355D01*
X173384711Y-55154731D01*
X173823640Y-54097673D01*
X173824638Y-52953108D01*
X173387555Y-51895285D01*
X172578931Y-51085249D01*
X171521873Y-50646320D01*
X170377308Y-50645322D01*
X169319485Y-51082405D01*
X168509449Y-51891029D01*
X168070520Y-52948087D01*
X168069522Y-54092652D01*
X94176000Y-54092652D01*
X94176000Y-49864143D01*
X86822000Y-49864143D01*
X77263500Y-49864143D01*
X77263500Y-49841660D01*
X174628300Y-49841660D01*
X174628300Y-127206500D01*
X174628300Y-127206500D01*
G37*
X174628300Y-127206500D02*
X77263500Y-127206500D01*
X77263500Y-124092512D01*
X78069702Y-124092512D01*
X78506785Y-125150335D01*
X79315409Y-125960371D01*
X80372467Y-126399300D01*
X81517032Y-126400298D01*
X82574855Y-125963215D01*
X83384891Y-125154591D01*
X83823820Y-124097533D01*
X83824818Y-122952968D01*
X83387735Y-121895145D01*
X83374678Y-121882065D01*
X128855462Y-121882065D01*
X128913302Y-122066706D01*
X129306074Y-122237895D01*
X129734460Y-122245745D01*
X130133241Y-122089062D01*
X130166698Y-122066706D01*
X130224538Y-121882065D01*
X129540000Y-121197527D01*
X128855462Y-121882065D01*
X83374678Y-121882065D01*
X82852984Y-121359460D01*
X128459255Y-121359460D01*
X128615938Y-121758241D01*
X128638294Y-121791698D01*
X128822935Y-121849538D01*
X129507473Y-121165000D01*
X129572527Y-121165000D01*
X130257065Y-121849538D01*
X130441706Y-121791698D01*
X130612895Y-121398926D01*
X130613406Y-121371000D01*
X160083857Y-121371000D01*
X160083857Y-126175000D01*
X166052143Y-126175000D01*
X166052143Y-124092512D01*
X168069522Y-124092512D01*
X168506605Y-125150335D01*
X169315229Y-125960371D01*
X170372287Y-126399300D01*
X171516852Y-126400298D01*
X172574675Y-125963215D01*
X173384711Y-125154591D01*
X173823640Y-124097533D01*
X173824638Y-122952968D01*
X173387555Y-121895145D01*
X172578931Y-121085109D01*
X171521873Y-120646180D01*
X170377308Y-120645182D01*
X169319485Y-121082265D01*
X168509449Y-121890889D01*
X168070520Y-122947947D01*
X168069522Y-124092512D01*
X166052143Y-124092512D01*
X166052143Y-121371000D01*
X160083857Y-121371000D01*
X130613406Y-121371000D01*
X130620745Y-120970540D01*
X130464062Y-120571759D01*
X130441706Y-120538302D01*
X130257065Y-120480462D01*
X129572527Y-121165000D01*
X129507473Y-121165000D01*
X128822935Y-120480462D01*
X128638294Y-120538302D01*
X128467105Y-120931074D01*
X128459255Y-121359460D01*
X82852984Y-121359460D01*
X82579111Y-121085109D01*
X81522053Y-120646180D01*
X80377488Y-120645182D01*
X79319665Y-121082265D01*
X78509629Y-121890889D01*
X78070700Y-122947947D01*
X78069702Y-124092512D01*
X77263500Y-124092512D01*
X77263500Y-120447935D01*
X128855462Y-120447935D01*
X129540000Y-121132473D01*
X130224538Y-120447935D01*
X130166698Y-120263294D01*
X129773926Y-120092105D01*
X129345540Y-120084255D01*
X128946759Y-120240938D01*
X128913302Y-120263294D01*
X128855462Y-120447935D01*
X77263500Y-120447935D01*
X77263500Y-114869520D01*
X92068912Y-114869520D01*
X92505802Y-115926876D01*
X93314069Y-116736554D01*
X94370660Y-117175290D01*
X95514720Y-117176288D01*
X96572076Y-116739398D01*
X97381754Y-115931131D01*
X97820490Y-114874540D01*
X97821488Y-113730480D01*
X97384598Y-112673124D01*
X96576331Y-111863446D01*
X95519740Y-111424710D01*
X94375680Y-111423712D01*
X93318324Y-111860602D01*
X92508646Y-112668869D01*
X92069910Y-113725460D01*
X92068912Y-114869520D01*
X77263500Y-114869520D01*
X77263500Y-99327970D01*
X86116431Y-99327970D01*
X86116431Y-101326950D01*
X86195016Y-101744591D01*
X86441841Y-102128169D01*
X86638000Y-102262199D01*
X86638000Y-102759474D01*
X86463301Y-102933868D01*
X86138880Y-103715159D01*
X86138142Y-104561129D01*
X86461199Y-105342986D01*
X87058868Y-105941699D01*
X87840159Y-106266120D01*
X88686129Y-106266858D01*
X89467986Y-105943801D01*
X90066699Y-105346132D01*
X90391120Y-104564841D01*
X90391858Y-103718871D01*
X90068801Y-102937014D01*
X89892000Y-102759904D01*
X89892000Y-102262397D01*
X90065709Y-102150619D01*
X90323038Y-101774006D01*
X90413569Y-101326950D01*
X90413569Y-99327970D01*
X90334984Y-98910329D01*
X90088159Y-98526751D01*
X89976926Y-98450749D01*
X90066699Y-98361132D01*
X90391120Y-97579841D01*
X90391858Y-96733871D01*
X90068801Y-95952014D01*
X89471132Y-95353301D01*
X89222710Y-95250147D01*
X89467986Y-95148801D01*
X89645096Y-94972000D01*
X92036074Y-94972000D01*
X92353000Y-95288926D01*
X92353000Y-106045000D01*
X92476848Y-106667626D01*
X92829537Y-107195463D01*
X101084537Y-115450463D01*
X101612374Y-115803152D01*
X102235000Y-115927000D01*
X109006880Y-115927000D01*
X108824933Y-116365175D01*
X108824108Y-117310677D01*
X109185174Y-118184522D01*
X109853161Y-118853676D01*
X110726375Y-119216267D01*
X111200755Y-119216681D01*
X111879537Y-119895463D01*
X112407374Y-120248152D01*
X113030000Y-120372001D01*
X113030005Y-120372000D01*
X122006504Y-120372000D01*
X122629130Y-120248152D01*
X123156967Y-119895463D01*
X126772156Y-116280274D01*
X165547328Y-116280274D01*
X165961644Y-117282997D01*
X166728148Y-118050840D01*
X167730146Y-118466906D01*
X168815094Y-118467852D01*
X169817817Y-118053536D01*
X170585660Y-117287032D01*
X171001726Y-116285034D01*
X171002672Y-115200086D01*
X170588356Y-114197363D01*
X169821852Y-113429520D01*
X168819854Y-113013454D01*
X167734906Y-113012508D01*
X166732183Y-113426824D01*
X165964340Y-114193328D01*
X165548274Y-115195326D01*
X165547328Y-116280274D01*
X126772156Y-116280274D01*
X127760430Y-115292000D01*
X128323595Y-115292000D01*
X128442944Y-115373548D01*
X128890000Y-115464079D01*
X130190000Y-115464079D01*
X130607641Y-115385494D01*
X130752935Y-115292000D01*
X140380819Y-115292000D01*
X141003445Y-115168152D01*
X141531282Y-114815463D01*
X142611994Y-113734750D01*
X146528000Y-113734750D01*
X146528000Y-114689936D01*
X146593007Y-114846876D01*
X146713124Y-114966993D01*
X146870065Y-115032000D01*
X147825250Y-115032000D01*
X147932000Y-114925250D01*
X147932000Y-113628000D01*
X147978000Y-113628000D01*
X147978000Y-114925250D01*
X148084750Y-115032000D01*
X149039935Y-115032000D01*
X149196876Y-114966993D01*
X149316993Y-114846876D01*
X149382000Y-114689936D01*
X149382000Y-113734750D01*
X149275250Y-113628000D01*
X147978000Y-113628000D01*
X147932000Y-113628000D01*
X146634750Y-113628000D01*
X146528000Y-113734750D01*
X142611994Y-113734750D01*
X143826680Y-112520064D01*
X146528000Y-112520064D01*
X146528000Y-113475250D01*
X146634750Y-113582000D01*
X147932000Y-113582000D01*
X147932000Y-112284750D01*
X147978000Y-112284750D01*
X147978000Y-113582000D01*
X149275250Y-113582000D01*
X149382000Y-113475250D01*
X149382000Y-112520064D01*
X149348664Y-112439582D01*
X167158045Y-112439582D01*
X167288863Y-112686531D01*
X167898319Y-112957613D01*
X168565122Y-112974830D01*
X169187755Y-112735563D01*
X169261137Y-112686531D01*
X169391955Y-112439582D01*
X168275000Y-111322627D01*
X167158045Y-112439582D01*
X149348664Y-112439582D01*
X149316993Y-112363124D01*
X149196876Y-112243007D01*
X149039935Y-112178000D01*
X148084750Y-112178000D01*
X147978000Y-112284750D01*
X147932000Y-112284750D01*
X147825250Y-112178000D01*
X146870065Y-112178000D01*
X146713124Y-112243007D01*
X146593007Y-112363124D01*
X146528000Y-112520064D01*
X143826680Y-112520064D01*
X144766522Y-111580222D01*
X166590270Y-111580222D01*
X166829537Y-112202855D01*
X166878569Y-112276237D01*
X167125518Y-112407055D01*
X168242473Y-111290100D01*
X168307527Y-111290100D01*
X169424482Y-112407055D01*
X169671431Y-112276237D01*
X169942513Y-111666781D01*
X169959730Y-110999978D01*
X169720463Y-110377345D01*
X169671431Y-110303963D01*
X169424482Y-110173145D01*
X168307527Y-111290100D01*
X168242473Y-111290100D01*
X167125518Y-110173145D01*
X166878569Y-110303963D01*
X166607487Y-110913419D01*
X166590270Y-111580222D01*
X144766522Y-111580222D01*
X146206126Y-110140618D01*
X167158045Y-110140618D01*
X168275000Y-111257573D01*
X169391955Y-110140618D01*
X169261137Y-109893669D01*
X168651681Y-109622587D01*
X167984878Y-109605370D01*
X167362245Y-109844637D01*
X167288863Y-109893669D01*
X167158045Y-110140618D01*
X146206126Y-110140618D01*
X148114604Y-108232140D01*
X148376230Y-108232368D01*
X149158274Y-107909234D01*
X149335818Y-107732000D01*
X155515000Y-107732000D01*
X156137626Y-107608152D01*
X156665463Y-107255463D01*
X159265463Y-104655463D01*
X159618152Y-104127626D01*
X159742000Y-103505000D01*
X159742000Y-99098926D01*
X159925255Y-98915671D01*
X161676117Y-98915671D01*
X161999251Y-99697715D01*
X162597063Y-100296572D01*
X163378542Y-100621071D01*
X163650363Y-100621308D01*
X166637840Y-103608784D01*
X166637840Y-105415859D01*
X166251164Y-105801861D01*
X165888573Y-106675075D01*
X165887748Y-107620577D01*
X166248814Y-108494422D01*
X166916801Y-109163576D01*
X167790015Y-109526167D01*
X168735517Y-109526992D01*
X169609362Y-109165926D01*
X170278516Y-108497939D01*
X170641107Y-107624725D01*
X170641932Y-106679223D01*
X170280866Y-105805378D01*
X169891840Y-105415672D01*
X169891840Y-102934859D01*
X169767992Y-102312233D01*
X169415303Y-101784396D01*
X169415300Y-101784394D01*
X165930655Y-98299749D01*
X165930853Y-98073211D01*
X165607719Y-97291167D01*
X165009907Y-96692310D01*
X164228428Y-96367811D01*
X163382255Y-96367073D01*
X162600211Y-96690207D01*
X162001354Y-97288019D01*
X161676855Y-98069498D01*
X161676117Y-98915671D01*
X159925255Y-98915671D01*
X163233926Y-95607000D01*
X167005000Y-95607000D01*
X167627626Y-95483152D01*
X168155463Y-95130463D01*
X169590563Y-93695363D01*
X169943252Y-93167526D01*
X170067100Y-92544900D01*
X170067100Y-91599241D01*
X170453776Y-91213239D01*
X170816367Y-90340025D01*
X170817192Y-89394523D01*
X170456126Y-88520678D01*
X169788139Y-87851524D01*
X168914925Y-87488933D01*
X167969423Y-87488108D01*
X167095578Y-87849174D01*
X166426424Y-88517161D01*
X166063833Y-89390375D01*
X166063008Y-90335877D01*
X166424074Y-91209722D01*
X166813100Y-91599428D01*
X166813100Y-91870974D01*
X166331074Y-92353000D01*
X162560000Y-92353000D01*
X161937374Y-92476848D01*
X161409537Y-92829537D01*
X156964537Y-97274537D01*
X156611848Y-97802374D01*
X156488000Y-98425000D01*
X156488000Y-102831074D01*
X154841074Y-104478000D01*
X149336247Y-104478000D01*
X149161422Y-104302869D01*
X148379943Y-103978370D01*
X147533770Y-103977632D01*
X146751726Y-104300766D01*
X146152869Y-104898578D01*
X145828370Y-105680057D01*
X145828164Y-105916730D01*
X139706893Y-112038000D01*
X130756405Y-112038000D01*
X130637056Y-111956452D01*
X130190000Y-111865921D01*
X128890000Y-111865921D01*
X128472359Y-111944506D01*
X128327065Y-112038000D01*
X127086504Y-112038000D01*
X126463878Y-112161848D01*
X125936041Y-112514537D01*
X121332578Y-117118000D01*
X113703926Y-117118000D01*
X113577749Y-116991823D01*
X113578024Y-116676539D01*
X114211877Y-116677092D01*
X115085722Y-116316026D01*
X115754876Y-115648039D01*
X116117467Y-114774825D01*
X116118292Y-113829323D01*
X115757226Y-112955478D01*
X115089239Y-112286324D01*
X114216025Y-111923733D01*
X113577739Y-111923176D01*
X113578292Y-111289323D01*
X113217226Y-110415478D01*
X112828200Y-110025772D01*
X112828200Y-106812748D01*
X113238947Y-106402000D01*
X113718595Y-106402000D01*
X113837944Y-106483548D01*
X114285000Y-106574079D01*
X115585000Y-106574079D01*
X116002641Y-106495494D01*
X116386219Y-106248669D01*
X116643548Y-105872056D01*
X116720498Y-105492065D01*
X119250462Y-105492065D01*
X119308302Y-105676706D01*
X119701074Y-105847895D01*
X120129460Y-105855745D01*
X120528241Y-105699062D01*
X120561698Y-105676706D01*
X120619538Y-105492065D01*
X119935000Y-104807527D01*
X119250462Y-105492065D01*
X116720498Y-105492065D01*
X116734079Y-105425000D01*
X116734079Y-104969460D01*
X118854255Y-104969460D01*
X119010938Y-105368241D01*
X119033294Y-105401698D01*
X119217935Y-105459538D01*
X119902473Y-104775000D01*
X119967527Y-104775000D01*
X120652065Y-105459538D01*
X120836706Y-105401698D01*
X121007895Y-105008926D01*
X121015745Y-104580540D01*
X120859062Y-104181759D01*
X120836706Y-104148302D01*
X120652065Y-104090462D01*
X119967527Y-104775000D01*
X119902473Y-104775000D01*
X119217935Y-104090462D01*
X119033294Y-104148302D01*
X118862105Y-104541074D01*
X118854255Y-104969460D01*
X116734079Y-104969460D01*
X116734079Y-104125000D01*
X116721460Y-104057935D01*
X119250462Y-104057935D01*
X119935000Y-104742473D01*
X120619538Y-104057935D01*
X120561698Y-103873294D01*
X120168926Y-103702105D01*
X119740540Y-103694255D01*
X119341759Y-103850938D01*
X119308302Y-103873294D01*
X119250462Y-104057935D01*
X116721460Y-104057935D01*
X116655494Y-103707359D01*
X116408669Y-103323781D01*
X116032056Y-103066452D01*
X115585000Y-102975921D01*
X114285000Y-102975921D01*
X113867359Y-103054506D01*
X113722065Y-103148000D01*
X112565027Y-103148000D01*
X112565022Y-103147999D01*
X112565017Y-103148000D01*
X100315979Y-103148000D01*
X100228801Y-102937014D01*
X99631132Y-102338301D01*
X99290999Y-102197065D01*
X130760462Y-102197065D01*
X130818302Y-102381706D01*
X131211074Y-102552895D01*
X131639460Y-102560745D01*
X132038241Y-102404062D01*
X132071698Y-102381706D01*
X132129538Y-102197065D01*
X131445000Y-101512527D01*
X130760462Y-102197065D01*
X99290999Y-102197065D01*
X98849841Y-102013880D01*
X98003871Y-102013142D01*
X97222014Y-102336199D01*
X96623301Y-102933868D01*
X96298880Y-103715159D01*
X96298142Y-104561129D01*
X96621199Y-105342986D01*
X97218868Y-105941699D01*
X98000159Y-106266120D01*
X98419915Y-106266486D01*
X98437374Y-106278152D01*
X99060000Y-106402001D01*
X99060005Y-106402000D01*
X109574200Y-106402000D01*
X109574200Y-110025959D01*
X109187524Y-110411961D01*
X108824933Y-111285175D01*
X108824108Y-112230677D01*
X109006872Y-112673000D01*
X102908926Y-112673000D01*
X95607000Y-105371074D01*
X95607000Y-101296543D01*
X97488443Y-101296543D01*
X97588817Y-101517496D01*
X98107875Y-101746903D01*
X98675213Y-101760212D01*
X98896798Y-101674460D01*
X130364255Y-101674460D01*
X130520938Y-102073241D01*
X130543294Y-102106698D01*
X130727935Y-102164538D01*
X131412473Y-101480000D01*
X131477527Y-101480000D01*
X132162065Y-102164538D01*
X132346706Y-102106698D01*
X132517895Y-101713926D01*
X132525745Y-101285540D01*
X132369062Y-100886759D01*
X132346706Y-100853302D01*
X132162065Y-100795462D01*
X131477527Y-101480000D01*
X131412473Y-101480000D01*
X130727935Y-100795462D01*
X130543294Y-100853302D01*
X130372105Y-101246074D01*
X130364255Y-101674460D01*
X98896798Y-101674460D01*
X99204457Y-101555398D01*
X99261183Y-101517496D01*
X99361557Y-101296543D01*
X98425000Y-100359987D01*
X97488443Y-101296543D01*
X95607000Y-101296543D01*
X95607000Y-100577673D01*
X96992248Y-100577673D01*
X97197062Y-101106917D01*
X97234964Y-101163643D01*
X97455917Y-101264017D01*
X98392473Y-100327460D01*
X98457527Y-100327460D01*
X99394083Y-101264017D01*
X99615036Y-101163643D01*
X99792136Y-100762935D01*
X130760462Y-100762935D01*
X131445000Y-101447473D01*
X132129538Y-100762935D01*
X132071698Y-100578294D01*
X131678926Y-100407105D01*
X131250540Y-100399255D01*
X130851759Y-100555938D01*
X130818302Y-100578294D01*
X130760462Y-100762935D01*
X99792136Y-100762935D01*
X99844443Y-100644585D01*
X99857752Y-100077247D01*
X99652938Y-99548003D01*
X99615036Y-99491277D01*
X99394083Y-99390903D01*
X98457527Y-100327460D01*
X98392473Y-100327460D01*
X97455917Y-99390903D01*
X97234964Y-99491277D01*
X97005557Y-100010335D01*
X96992248Y-100577673D01*
X95607000Y-100577673D01*
X95607000Y-94615000D01*
X95483152Y-93992374D01*
X95130463Y-93464537D01*
X93860463Y-92194537D01*
X93332626Y-91841848D01*
X92710000Y-91718000D01*
X89645526Y-91718000D01*
X89471132Y-91543301D01*
X88689841Y-91218880D01*
X87843871Y-91218142D01*
X87062014Y-91541199D01*
X86463301Y-92138868D01*
X86138880Y-92920159D01*
X86138142Y-93766129D01*
X86461199Y-94547986D01*
X87058868Y-95146699D01*
X87307290Y-95249853D01*
X87062014Y-95351199D01*
X86463301Y-95948868D01*
X86138880Y-96730159D01*
X86138142Y-97576129D01*
X86461199Y-98357986D01*
X86551341Y-98448286D01*
X86464291Y-98504301D01*
X86206962Y-98880914D01*
X86116431Y-99327970D01*
X77263500Y-99327970D01*
X77263500Y-84695374D01*
X85537328Y-84695374D01*
X85951644Y-85698097D01*
X86718148Y-86465940D01*
X87720146Y-86882006D01*
X88805094Y-86882952D01*
X89807817Y-86468636D01*
X90575660Y-85702132D01*
X90991726Y-84700134D01*
X90992672Y-83615186D01*
X90578356Y-82612463D01*
X89811852Y-81844620D01*
X89561987Y-81740867D01*
X89609522Y-81721226D01*
X89999228Y-81332200D01*
X90117626Y-81332200D01*
X96798000Y-88012574D01*
X96798000Y-91964474D01*
X96623301Y-92138868D01*
X96298880Y-92920159D01*
X96298142Y-93766129D01*
X96621199Y-94547986D01*
X96798000Y-94725096D01*
X96798000Y-95774474D01*
X96623301Y-95948868D01*
X96298880Y-96730159D01*
X96298142Y-97576129D01*
X96621199Y-98357986D01*
X97218868Y-98956699D01*
X97613839Y-99120705D01*
X97588817Y-99137424D01*
X97488443Y-99358377D01*
X98425000Y-100294933D01*
X99361557Y-99358377D01*
X99261183Y-99137424D01*
X99229536Y-99123437D01*
X99627986Y-98958801D01*
X100226699Y-98361132D01*
X100551120Y-97579841D01*
X100551858Y-96733871D01*
X100228801Y-95952014D01*
X100052000Y-95774904D01*
X100052000Y-94725526D01*
X100226699Y-94551132D01*
X100551120Y-93769841D01*
X100551858Y-92923871D01*
X100228801Y-92142014D01*
X100052000Y-91964904D01*
X100052000Y-87338653D01*
X100052001Y-87338648D01*
X99928152Y-86716022D01*
X99575463Y-86188185D01*
X91942015Y-78554737D01*
X91414178Y-78202048D01*
X90791552Y-78078200D01*
X89999041Y-78078200D01*
X89613039Y-77691524D01*
X88739825Y-77328933D01*
X87794323Y-77328108D01*
X86920478Y-77689174D01*
X86251324Y-78357161D01*
X85888733Y-79230375D01*
X85887908Y-80175877D01*
X86248974Y-81049722D01*
X86916961Y-81718876D01*
X86968344Y-81740212D01*
X86722183Y-81841924D01*
X85954340Y-82608428D01*
X85538274Y-83610426D01*
X85537328Y-84695374D01*
X77263500Y-84695374D01*
X77263500Y-76714482D01*
X87148045Y-76714482D01*
X87278863Y-76961431D01*
X87888319Y-77232513D01*
X88555122Y-77249730D01*
X89177755Y-77010463D01*
X89251137Y-76961431D01*
X89381955Y-76714482D01*
X88265000Y-75597527D01*
X87148045Y-76714482D01*
X77263500Y-76714482D01*
X77263500Y-75855122D01*
X86580270Y-75855122D01*
X86819537Y-76477755D01*
X86868569Y-76551137D01*
X87115518Y-76681955D01*
X88232473Y-75565000D01*
X88297527Y-75565000D01*
X89414482Y-76681955D01*
X89661431Y-76551137D01*
X89932513Y-75941681D01*
X89949730Y-75274878D01*
X89710463Y-74652245D01*
X89661431Y-74578863D01*
X89414482Y-74448045D01*
X88297527Y-75565000D01*
X88232473Y-75565000D01*
X87115518Y-74448045D01*
X86868569Y-74578863D01*
X86597487Y-75188319D01*
X86580270Y-75855122D01*
X77263500Y-75855122D01*
X77263500Y-74415518D01*
X87148045Y-74415518D01*
X88265000Y-75532473D01*
X89381955Y-74415518D01*
X89251137Y-74168569D01*
X88641681Y-73897487D01*
X87974878Y-73880270D01*
X87352245Y-74119537D01*
X87278863Y-74168569D01*
X87148045Y-74415518D01*
X77263500Y-74415518D01*
X77263500Y-71895477D01*
X85887908Y-71895477D01*
X86248974Y-72769322D01*
X86916961Y-73438476D01*
X87790175Y-73801067D01*
X88735677Y-73801892D01*
X89609522Y-73440826D01*
X89999228Y-73051800D01*
X95974349Y-73051800D01*
X96163000Y-73240451D01*
X96163000Y-78105000D01*
X96286848Y-78727626D01*
X96639537Y-79255463D01*
X104393212Y-87009137D01*
X104393212Y-90637995D01*
X104517060Y-91260621D01*
X104869749Y-91788458D01*
X112682711Y-99601420D01*
X113210548Y-99954109D01*
X113833174Y-100077958D01*
X113833179Y-100077957D01*
X152073028Y-100077957D01*
X152247853Y-100253088D01*
X153029332Y-100577587D01*
X153875505Y-100578325D01*
X154657549Y-100255191D01*
X155256406Y-99657379D01*
X155580905Y-98875900D01*
X155581643Y-98029727D01*
X155258509Y-97247683D01*
X154660697Y-96648826D01*
X153879218Y-96324327D01*
X153033045Y-96323589D01*
X152251001Y-96646723D01*
X152073457Y-96823957D01*
X114507100Y-96823957D01*
X111013143Y-93330000D01*
X129645921Y-93330000D01*
X129645921Y-94630000D01*
X129724506Y-95047641D01*
X129971331Y-95431219D01*
X130347944Y-95688548D01*
X130795000Y-95779079D01*
X132095000Y-95779079D01*
X132512641Y-95700494D01*
X132657935Y-95607000D01*
X135950000Y-95607000D01*
X136572626Y-95483152D01*
X137100463Y-95130463D01*
X141356175Y-90874750D01*
X145258000Y-90874750D01*
X145258000Y-91829936D01*
X145323007Y-91986876D01*
X145443124Y-92106993D01*
X145600065Y-92172000D01*
X146555250Y-92172000D01*
X146662000Y-92065250D01*
X146662000Y-90768000D01*
X146708000Y-90768000D01*
X146708000Y-92065250D01*
X146814750Y-92172000D01*
X147769935Y-92172000D01*
X147926876Y-92106993D01*
X148046993Y-91986876D01*
X148112000Y-91829936D01*
X148112000Y-91014682D01*
X163182945Y-91014682D01*
X163313763Y-91261631D01*
X163923219Y-91532713D01*
X164590022Y-91549930D01*
X165212655Y-91310663D01*
X165286037Y-91261631D01*
X165416855Y-91014682D01*
X164299900Y-89897727D01*
X163182945Y-91014682D01*
X148112000Y-91014682D01*
X148112000Y-90874750D01*
X148005250Y-90768000D01*
X146708000Y-90768000D01*
X146662000Y-90768000D01*
X145364750Y-90768000D01*
X145258000Y-90874750D01*
X141356175Y-90874750D01*
X142570861Y-89660064D01*
X145258000Y-89660064D01*
X145258000Y-90615250D01*
X145364750Y-90722000D01*
X146662000Y-90722000D01*
X146662000Y-89424750D01*
X146708000Y-89424750D01*
X146708000Y-90722000D01*
X148005250Y-90722000D01*
X148112000Y-90615250D01*
X148112000Y-90155322D01*
X162615170Y-90155322D01*
X162854437Y-90777955D01*
X162903469Y-90851337D01*
X163150418Y-90982155D01*
X164267373Y-89865200D01*
X164332427Y-89865200D01*
X165449382Y-90982155D01*
X165696331Y-90851337D01*
X165967413Y-90241881D01*
X165984630Y-89575078D01*
X165745363Y-88952445D01*
X165696331Y-88879063D01*
X165449382Y-88748245D01*
X164332427Y-89865200D01*
X164267373Y-89865200D01*
X163150418Y-88748245D01*
X162903469Y-88879063D01*
X162632387Y-89488519D01*
X162615170Y-90155322D01*
X148112000Y-90155322D01*
X148112000Y-89660064D01*
X148046993Y-89503124D01*
X147926876Y-89383007D01*
X147769935Y-89318000D01*
X146814750Y-89318000D01*
X146708000Y-89424750D01*
X146662000Y-89424750D01*
X146555250Y-89318000D01*
X145600065Y-89318000D01*
X145443124Y-89383007D01*
X145323007Y-89503124D01*
X145258000Y-89660064D01*
X142570861Y-89660064D01*
X143515207Y-88715718D01*
X163182945Y-88715718D01*
X164299900Y-89832673D01*
X165416855Y-88715718D01*
X165286037Y-88468769D01*
X164676581Y-88197687D01*
X164009778Y-88180470D01*
X163387145Y-88419737D01*
X163313763Y-88468769D01*
X163182945Y-88715718D01*
X143515207Y-88715718D01*
X146858773Y-85372152D01*
X147106230Y-85372368D01*
X147888274Y-85049234D01*
X148065818Y-84872000D01*
X149351916Y-84872000D01*
X151355377Y-86875460D01*
X151355379Y-86875463D01*
X151651073Y-87073039D01*
X151883216Y-87228152D01*
X152505842Y-87352001D01*
X152505847Y-87352000D01*
X162565859Y-87352000D01*
X162951861Y-87738676D01*
X163825075Y-88101267D01*
X164770577Y-88102092D01*
X165644422Y-87741026D01*
X166313576Y-87073039D01*
X166396024Y-86874482D01*
X167323145Y-86874482D01*
X167453963Y-87121431D01*
X168063419Y-87392513D01*
X168730222Y-87409730D01*
X169352855Y-87170463D01*
X169426237Y-87121431D01*
X169557055Y-86874482D01*
X168440100Y-85757527D01*
X167323145Y-86874482D01*
X166396024Y-86874482D01*
X166676167Y-86199825D01*
X166676328Y-86015122D01*
X166755370Y-86015122D01*
X166994637Y-86637755D01*
X167043669Y-86711137D01*
X167290618Y-86841955D01*
X168407573Y-85725000D01*
X168472627Y-85725000D01*
X169589582Y-86841955D01*
X169836531Y-86711137D01*
X170107613Y-86101681D01*
X170124830Y-85434878D01*
X169885563Y-84812245D01*
X169836531Y-84738863D01*
X169589582Y-84608045D01*
X168472627Y-85725000D01*
X168407573Y-85725000D01*
X167290618Y-84608045D01*
X167043669Y-84738863D01*
X166772587Y-85348319D01*
X166755370Y-86015122D01*
X166676328Y-86015122D01*
X166676992Y-85254323D01*
X166396516Y-84575518D01*
X167323145Y-84575518D01*
X168440100Y-85692473D01*
X169557055Y-84575518D01*
X169426237Y-84328569D01*
X168816781Y-84057487D01*
X168149978Y-84040270D01*
X167527345Y-84279537D01*
X167453963Y-84328569D01*
X167323145Y-84575518D01*
X166396516Y-84575518D01*
X166315926Y-84380478D01*
X165647939Y-83711324D01*
X164774725Y-83348733D01*
X163829223Y-83347908D01*
X162955378Y-83708974D01*
X162565672Y-84098000D01*
X153179767Y-84098000D01*
X151816050Y-82734282D01*
X163182945Y-82734282D01*
X163313763Y-82981231D01*
X163923219Y-83252313D01*
X164590022Y-83269530D01*
X165212655Y-83030263D01*
X165286037Y-82981231D01*
X165416855Y-82734282D01*
X164299900Y-81617327D01*
X163182945Y-82734282D01*
X151816050Y-82734282D01*
X151176305Y-82094537D01*
X150847628Y-81874922D01*
X162615170Y-81874922D01*
X162854437Y-82497555D01*
X162903469Y-82570937D01*
X163150418Y-82701755D01*
X164267373Y-81584800D01*
X164332427Y-81584800D01*
X165449382Y-82701755D01*
X165696331Y-82570937D01*
X165967413Y-81961481D01*
X165984630Y-81294678D01*
X165745363Y-80672045D01*
X165696331Y-80598663D01*
X165449382Y-80467845D01*
X164332427Y-81584800D01*
X164267373Y-81584800D01*
X163150418Y-80467845D01*
X162903469Y-80598663D01*
X162632387Y-81208119D01*
X162615170Y-81874922D01*
X150847628Y-81874922D01*
X150648468Y-81741848D01*
X150025842Y-81618000D01*
X148066247Y-81618000D01*
X147891422Y-81442869D01*
X147109943Y-81118370D01*
X146263770Y-81117632D01*
X145481726Y-81440766D01*
X144882869Y-82038578D01*
X144558370Y-82820057D01*
X144558151Y-83070924D01*
X135276074Y-92353000D01*
X133594811Y-92353000D01*
X133738463Y-92209348D01*
X134091152Y-91681511D01*
X134215000Y-91058885D01*
X134215000Y-89010526D01*
X134389699Y-88836132D01*
X134714120Y-88054841D01*
X134714858Y-87208871D01*
X134391801Y-86427014D01*
X133794132Y-85828301D01*
X133012841Y-85503880D01*
X132166871Y-85503142D01*
X131385014Y-85826199D01*
X130786301Y-86423868D01*
X130461880Y-87205159D01*
X130461142Y-88051129D01*
X130784199Y-88832986D01*
X130961000Y-89010096D01*
X130961000Y-90384959D01*
X130294537Y-91051422D01*
X129941848Y-91579259D01*
X129818000Y-92201885D01*
X129818000Y-92763595D01*
X129736452Y-92882944D01*
X129645921Y-93330000D01*
X111013143Y-93330000D01*
X107647212Y-89964069D01*
X107647212Y-86335212D01*
X107523364Y-85712586D01*
X107170675Y-85184749D01*
X107170672Y-85184747D01*
X103200446Y-81214520D01*
X106038912Y-81214520D01*
X106475802Y-82271876D01*
X107284069Y-83081554D01*
X108340660Y-83520290D01*
X109484720Y-83521288D01*
X110542076Y-83084398D01*
X111351754Y-82276131D01*
X111790490Y-81219540D01*
X111791488Y-80075480D01*
X111354598Y-79018124D01*
X110546331Y-78208446D01*
X109489740Y-77769710D01*
X108345680Y-77768712D01*
X107288324Y-78205602D01*
X106478646Y-79013869D01*
X106039910Y-80070460D01*
X106038912Y-81214520D01*
X103200446Y-81214520D01*
X99417000Y-77431074D01*
X99417000Y-71541129D01*
X102013142Y-71541129D01*
X102336199Y-72322986D01*
X102933868Y-72921699D01*
X103715159Y-73246120D01*
X104561129Y-73246858D01*
X105342986Y-72923801D01*
X105520096Y-72747000D01*
X107204474Y-72747000D01*
X107378868Y-72921699D01*
X108160159Y-73246120D01*
X109006129Y-73246858D01*
X109787986Y-72923801D01*
X110386699Y-72326132D01*
X110711120Y-71544841D01*
X110711858Y-70698871D01*
X110388801Y-69917014D01*
X110212000Y-69739904D01*
X110212000Y-69244937D01*
X110385709Y-69133159D01*
X110643038Y-68756546D01*
X110733569Y-68309490D01*
X110733569Y-66310510D01*
X110654984Y-65892869D01*
X110408159Y-65509291D01*
X110031546Y-65251962D01*
X109584490Y-65161431D01*
X109495505Y-65161431D01*
X109521557Y-65104083D01*
X108585000Y-64167527D01*
X107648443Y-65104083D01*
X107674495Y-65161431D01*
X107585510Y-65161431D01*
X107167869Y-65240016D01*
X106784291Y-65486841D01*
X106526962Y-65863454D01*
X106436431Y-66310510D01*
X106436431Y-68309490D01*
X106515016Y-68727131D01*
X106761841Y-69110709D01*
X106958000Y-69244739D01*
X106958000Y-69493000D01*
X105520526Y-69493000D01*
X105346132Y-69318301D01*
X104564841Y-68993880D01*
X103718871Y-68993142D01*
X102937014Y-69316199D01*
X102338301Y-69913868D01*
X102013880Y-70695159D01*
X102013142Y-71541129D01*
X99417000Y-71541129D01*
X99417000Y-70344601D01*
X105290463Y-64471138D01*
X105347876Y-64385213D01*
X107152248Y-64385213D01*
X107357062Y-64914457D01*
X107394964Y-64971183D01*
X107615917Y-65071557D01*
X108552473Y-64135000D01*
X108617527Y-64135000D01*
X109554083Y-65071557D01*
X109775036Y-64971183D01*
X110004443Y-64452125D01*
X110017752Y-63884787D01*
X109812938Y-63355543D01*
X109775036Y-63298817D01*
X109554083Y-63198443D01*
X108617527Y-64135000D01*
X108552473Y-64135000D01*
X107615917Y-63198443D01*
X107394964Y-63298817D01*
X107165557Y-63817875D01*
X107152248Y-64385213D01*
X105347876Y-64385213D01*
X105643152Y-63943301D01*
X105767000Y-63320675D01*
X105767000Y-63165917D01*
X107648443Y-63165917D01*
X108585000Y-64102473D01*
X109521557Y-63165917D01*
X109421183Y-62944964D01*
X108902125Y-62715557D01*
X108334787Y-62702248D01*
X107805543Y-62907062D01*
X107748817Y-62944964D01*
X107648443Y-63165917D01*
X105767000Y-63165917D01*
X105767000Y-62340526D01*
X105941699Y-62166132D01*
X106266120Y-61384841D01*
X106266825Y-60576508D01*
X112038000Y-60576508D01*
X112038000Y-75565000D01*
X112161848Y-76187626D01*
X112514537Y-76715463D01*
X117594537Y-81795463D01*
X118122374Y-82148152D01*
X118745000Y-82272000D01*
X122976880Y-82272000D01*
X122794933Y-82710175D01*
X122794108Y-83655677D01*
X123155174Y-84529522D01*
X123823161Y-85198676D01*
X124696375Y-85561267D01*
X125641877Y-85562092D01*
X126515722Y-85201026D01*
X126891541Y-84825862D01*
X129623183Y-84825862D01*
X130245809Y-84702014D01*
X130773646Y-84349325D01*
X133744655Y-81378316D01*
X134097344Y-80850479D01*
X134179924Y-80435318D01*
X163182945Y-80435318D01*
X164299900Y-81552273D01*
X165416855Y-80435318D01*
X165286037Y-80188369D01*
X164676581Y-79917287D01*
X164009778Y-79900070D01*
X163387145Y-80139337D01*
X163313763Y-80188369D01*
X163182945Y-80435318D01*
X134179924Y-80435318D01*
X134221192Y-80227853D01*
X134221192Y-79097000D01*
X135830000Y-79097000D01*
X136452626Y-78973152D01*
X136980463Y-78620463D01*
X145588774Y-70012152D01*
X145836230Y-70012368D01*
X146618274Y-69689234D01*
X146795818Y-69512000D01*
X162525782Y-69512000D01*
X162732944Y-69653548D01*
X163180000Y-69744079D01*
X164480000Y-69744079D01*
X164897641Y-69665494D01*
X164898814Y-69664739D01*
X166813100Y-71579025D01*
X166813100Y-76075563D01*
X166613256Y-75591903D01*
X165846752Y-74824060D01*
X164844754Y-74407994D01*
X163759806Y-74407048D01*
X162757083Y-74821364D01*
X161989240Y-75587868D01*
X161573174Y-76589866D01*
X161572228Y-77674814D01*
X161986544Y-78677537D01*
X162753048Y-79445380D01*
X163755046Y-79861446D01*
X164839994Y-79862392D01*
X165842717Y-79448076D01*
X166610560Y-78681572D01*
X166813100Y-78193802D01*
X166813100Y-79850759D01*
X166426424Y-80236761D01*
X166063833Y-81109975D01*
X166063008Y-82055477D01*
X166424074Y-82929322D01*
X167092061Y-83598476D01*
X167965275Y-83961067D01*
X168910777Y-83961892D01*
X169784622Y-83600826D01*
X170453776Y-82932839D01*
X170816367Y-82059625D01*
X170817192Y-81114123D01*
X170456126Y-80240278D01*
X170067100Y-79850572D01*
X170067100Y-70905105D01*
X170067101Y-70905100D01*
X169943252Y-70282474D01*
X169937815Y-70274337D01*
X169590563Y-69754637D01*
X169590560Y-69754635D01*
X166630463Y-66794537D01*
X166102626Y-66441848D01*
X165480000Y-66318000D01*
X165046405Y-66318000D01*
X164927056Y-66236452D01*
X164480000Y-66145921D01*
X163180000Y-66145921D01*
X162762359Y-66224506D01*
X162710308Y-66258000D01*
X146796247Y-66258000D01*
X146621422Y-66082869D01*
X145839943Y-65758370D01*
X144993770Y-65757632D01*
X144211726Y-66080766D01*
X143612869Y-66678578D01*
X143425626Y-67129508D01*
X143336848Y-67262374D01*
X143305946Y-67417730D01*
X143288370Y-67460057D01*
X143288330Y-67506292D01*
X143237564Y-67761510D01*
X135156074Y-75843000D01*
X133968526Y-75843000D01*
X133794132Y-75668301D01*
X133012841Y-75343880D01*
X132166871Y-75343142D01*
X131385014Y-75666199D01*
X130786301Y-76263868D01*
X130461880Y-77045159D01*
X130461142Y-77891129D01*
X130784199Y-78672986D01*
X130967192Y-78856299D01*
X130967192Y-79553927D01*
X130088066Y-80433053D01*
X130088292Y-80174323D01*
X129727226Y-79300478D01*
X129059239Y-78631324D01*
X128186025Y-78268733D01*
X127547739Y-78268176D01*
X127548292Y-77634323D01*
X127187226Y-76760478D01*
X126798200Y-76370772D01*
X126798200Y-71772846D01*
X127094045Y-71477000D01*
X127133595Y-71477000D01*
X127252944Y-71558548D01*
X127700000Y-71649079D01*
X129000000Y-71649079D01*
X129417641Y-71570494D01*
X129801219Y-71323669D01*
X130058548Y-70947056D01*
X130135498Y-70567065D01*
X132665462Y-70567065D01*
X132723302Y-70751706D01*
X133116074Y-70922895D01*
X133544460Y-70930745D01*
X133943241Y-70774062D01*
X133976698Y-70751706D01*
X134034538Y-70567065D01*
X133350000Y-69882527D01*
X132665462Y-70567065D01*
X130135498Y-70567065D01*
X130149079Y-70500000D01*
X130149079Y-70044460D01*
X132269255Y-70044460D01*
X132425938Y-70443241D01*
X132448294Y-70476698D01*
X132632935Y-70534538D01*
X133317473Y-69850000D01*
X133382527Y-69850000D01*
X134067065Y-70534538D01*
X134251706Y-70476698D01*
X134422895Y-70083926D01*
X134430745Y-69655540D01*
X134274062Y-69256759D01*
X134251706Y-69223302D01*
X134067065Y-69165462D01*
X133382527Y-69850000D01*
X133317473Y-69850000D01*
X132632935Y-69165462D01*
X132448294Y-69223302D01*
X132277105Y-69616074D01*
X132269255Y-70044460D01*
X130149079Y-70044460D01*
X130149079Y-69200000D01*
X130136460Y-69132935D01*
X132665462Y-69132935D01*
X133350000Y-69817473D01*
X134034538Y-69132935D01*
X133976698Y-68948294D01*
X133583926Y-68777105D01*
X133155540Y-68769255D01*
X132756759Y-68925938D01*
X132723302Y-68948294D01*
X132665462Y-69132935D01*
X130136460Y-69132935D01*
X130070494Y-68782359D01*
X129823669Y-68398781D01*
X129447056Y-68141452D01*
X129000000Y-68050921D01*
X127700000Y-68050921D01*
X127282359Y-68129506D01*
X127154234Y-68211952D01*
X123258941Y-68211952D01*
X122636315Y-68335800D01*
X122108478Y-68688489D01*
X122108476Y-68688492D01*
X121303967Y-69493000D01*
X120125526Y-69493000D01*
X119951132Y-69318301D01*
X119702710Y-69215147D01*
X119947986Y-69113801D01*
X120546699Y-68516132D01*
X120871120Y-67734841D01*
X120871858Y-66888871D01*
X120548801Y-66107014D01*
X120457115Y-66015168D01*
X120545709Y-65958159D01*
X120803038Y-65581546D01*
X120893569Y-65134490D01*
X120893569Y-63135510D01*
X120814984Y-62717869D01*
X120568159Y-62334291D01*
X120191546Y-62076962D01*
X119744490Y-61986431D01*
X117745510Y-61986431D01*
X117327869Y-62065016D01*
X116944291Y-62311841D01*
X116686962Y-62688454D01*
X116596431Y-63135510D01*
X116596431Y-65134490D01*
X116675016Y-65552131D01*
X116921841Y-65935709D01*
X117034585Y-66012744D01*
X116943301Y-66103868D01*
X116618880Y-66885159D01*
X116618142Y-67731129D01*
X116941199Y-68512986D01*
X117538868Y-69111699D01*
X117787290Y-69214853D01*
X117542014Y-69316199D01*
X116943301Y-69913868D01*
X116618880Y-70695159D01*
X116618142Y-71541129D01*
X116941199Y-72322986D01*
X117538868Y-72921699D01*
X118320159Y-73246120D01*
X119166129Y-73246858D01*
X119947986Y-72923801D01*
X120125096Y-72747000D01*
X121977893Y-72747000D01*
X122600519Y-72623152D01*
X123128356Y-72270463D01*
X123544200Y-71854619D01*
X123544200Y-76370959D01*
X123157524Y-76756961D01*
X122794933Y-77630175D01*
X122794108Y-78575677D01*
X122976872Y-79018000D01*
X119418926Y-79018000D01*
X115292000Y-74891074D01*
X115292000Y-61250434D01*
X116027684Y-60514750D01*
X143988000Y-60514750D01*
X143988000Y-61469936D01*
X144053007Y-61626876D01*
X144173124Y-61746993D01*
X144330065Y-61812000D01*
X145285250Y-61812000D01*
X145392000Y-61705250D01*
X145392000Y-60408000D01*
X145438000Y-60408000D01*
X145438000Y-61705250D01*
X145544750Y-61812000D01*
X146499935Y-61812000D01*
X146656876Y-61746993D01*
X146776993Y-61626876D01*
X146842000Y-61469936D01*
X146842000Y-61162065D01*
X163145462Y-61162065D01*
X163203302Y-61346706D01*
X163596074Y-61517895D01*
X164024460Y-61525745D01*
X164423241Y-61369062D01*
X164456698Y-61346706D01*
X164514538Y-61162065D01*
X163830000Y-60477527D01*
X163145462Y-61162065D01*
X146842000Y-61162065D01*
X146842000Y-60639460D01*
X162749255Y-60639460D01*
X162905938Y-61038241D01*
X162928294Y-61071698D01*
X163112935Y-61129538D01*
X163797473Y-60445000D01*
X163862527Y-60445000D01*
X164547065Y-61129538D01*
X164731706Y-61071698D01*
X164902895Y-60678926D01*
X164910745Y-60250540D01*
X164754062Y-59851759D01*
X164731706Y-59818302D01*
X164547065Y-59760462D01*
X163862527Y-60445000D01*
X163797473Y-60445000D01*
X163112935Y-59760462D01*
X162928294Y-59818302D01*
X162757105Y-60211074D01*
X162749255Y-60639460D01*
X146842000Y-60639460D01*
X146842000Y-60514750D01*
X146735250Y-60408000D01*
X145438000Y-60408000D01*
X145392000Y-60408000D01*
X144094750Y-60408000D01*
X143988000Y-60514750D01*
X116027684Y-60514750D01*
X117242370Y-59300064D01*
X143988000Y-59300064D01*
X143988000Y-60255250D01*
X144094750Y-60362000D01*
X145392000Y-60362000D01*
X145392000Y-59064750D01*
X145438000Y-59064750D01*
X145438000Y-60362000D01*
X146735250Y-60362000D01*
X146842000Y-60255250D01*
X146842000Y-59727935D01*
X163145462Y-59727935D01*
X163830000Y-60412473D01*
X164514538Y-59727935D01*
X164456698Y-59543294D01*
X164063926Y-59372105D01*
X163635540Y-59364255D01*
X163236759Y-59520938D01*
X163203302Y-59543294D01*
X163145462Y-59727935D01*
X146842000Y-59727935D01*
X146842000Y-59300064D01*
X146776993Y-59143124D01*
X146656876Y-59023007D01*
X146499935Y-58958000D01*
X145544750Y-58958000D01*
X145438000Y-59064750D01*
X145392000Y-59064750D01*
X145285250Y-58958000D01*
X144330065Y-58958000D01*
X144173124Y-59023007D01*
X144053007Y-59143124D01*
X143988000Y-59300064D01*
X117242370Y-59300064D01*
X118140100Y-58402334D01*
X118715159Y-58641120D01*
X119561129Y-58641858D01*
X120342986Y-58318801D01*
X120941699Y-57721132D01*
X121266120Y-56939841D01*
X121266858Y-56093871D01*
X120943801Y-55312014D01*
X120346132Y-54713301D01*
X119564841Y-54388880D01*
X118718871Y-54388142D01*
X117937014Y-54711199D01*
X117759904Y-54888000D01*
X117726513Y-54888000D01*
X117726508Y-54887999D01*
X117103882Y-55011848D01*
X116576045Y-55364537D01*
X112514537Y-59426045D01*
X112161848Y-59953882D01*
X112038000Y-60576508D01*
X106266825Y-60576508D01*
X106266858Y-60538871D01*
X105943801Y-59757014D01*
X105767000Y-59579904D01*
X105767000Y-57895526D01*
X105941699Y-57721132D01*
X106266120Y-56939841D01*
X106266858Y-56093871D01*
X105943801Y-55312014D01*
X105346132Y-54713301D01*
X104564841Y-54388880D01*
X103718871Y-54388142D01*
X102937014Y-54711199D01*
X102338301Y-55308868D01*
X102013880Y-56090159D01*
X102013142Y-56936129D01*
X102336199Y-57717986D01*
X102513000Y-57895096D01*
X102513000Y-59579474D01*
X102338301Y-59753868D01*
X102013880Y-60535159D01*
X102013142Y-61381129D01*
X102336199Y-62162986D01*
X102513000Y-62340096D01*
X102513000Y-62646749D01*
X96639537Y-68520212D01*
X96286848Y-69048049D01*
X96163000Y-69670675D01*
X96163000Y-69797800D01*
X89999041Y-69797800D01*
X89613039Y-69411124D01*
X88739825Y-69048533D01*
X87794323Y-69047708D01*
X86920478Y-69408774D01*
X86251324Y-70076761D01*
X85888733Y-70949975D01*
X85887908Y-71895477D01*
X77263500Y-71895477D01*
X77263500Y-54092652D01*
X78069702Y-54092652D01*
X78506785Y-55150475D01*
X79315409Y-55960511D01*
X80372467Y-56399440D01*
X81517032Y-56400438D01*
X82574855Y-55963355D01*
X83384891Y-55154731D01*
X83823820Y-54097673D01*
X83824818Y-52953108D01*
X83387735Y-51895285D01*
X82579111Y-51085249D01*
X81522053Y-50646320D01*
X80377488Y-50645322D01*
X79319665Y-51082405D01*
X78509629Y-51891029D01*
X78070700Y-52948087D01*
X78069702Y-54092652D01*
X77263500Y-54092652D01*
X77263500Y-49864143D01*
X86822000Y-49864143D01*
X86822000Y-62403857D01*
X94176000Y-62403857D01*
X94176000Y-54092652D01*
X168069522Y-54092652D01*
X168506605Y-55150475D01*
X169315229Y-55960511D01*
X170372287Y-56399440D01*
X171516852Y-56400438D01*
X172574675Y-55963355D01*
X173384711Y-55154731D01*
X173823640Y-54097673D01*
X173824638Y-52953108D01*
X173387555Y-51895285D01*
X172578931Y-51085249D01*
X171521873Y-50646320D01*
X170377308Y-50645322D01*
X169319485Y-51082405D01*
X168509449Y-51891029D01*
X168070520Y-52948087D01*
X168069522Y-54092652D01*
X94176000Y-54092652D01*
X94176000Y-49864143D01*
X86822000Y-49864143D01*
X77263500Y-49864143D01*
X77263500Y-49841660D01*
X174628300Y-49841660D01*
X174628300Y-127206500D01*
M02*
